<?xml version="1.0" encoding="UTF-8" standalone="no"?><svg xmlns="http://www.w3.org/2000/svg" xmlns:xlink="http://www.w3.org/1999/xlink" contentStyleType="text/css" height="633px" preserveAspectRatio="none" style="width:953px;height:633px;background:#FFFFFF;" version="1.1" viewBox="0 0 953 633" width="953px" zoomAndPan="magnify"><defs/><g><rect fill="#FFFFFF" height="542.6719" style="stroke:#181818;stroke-width:1.0;" width="10" x="123.5" y="46.2969"/><rect fill="#FFFFFF" height="87.3984" style="stroke:#181818;stroke-width:1.0;" width="10" x="510.5" y="91.5625"/><rect fill="#FFFFFF" height="87.3984" style="stroke:#181818;stroke-width:1.0;" width="10" x="510.5" y="222.8984"/><rect fill="#FFFFFF" height="87.3984" style="stroke:#181818;stroke-width:1.0;" width="10" x="510.5" y="354.2344"/><rect fill="#FFFFFF" height="87.3984" style="stroke:#181818;stroke-width:1.0;" width="10" x="510.5" y="485.5703"/><rect fill="#FFFFFF" height="29.1328" style="stroke:#181818;stroke-width:1.0;" width="10" x="786.5" y="120.6953"/><rect fill="#FFFFFF" height="29.1328" style="stroke:#181818;stroke-width:1.0;" width="10" x="786.5" y="383.3672"/><rect fill="#FFFFFF" height="29.1328" style="stroke:#181818;stroke-width:1.0;" width="10" x="887" y="252.0313"/><rect fill="#FFFFFF" height="29.1328" style="stroke:#181818;stroke-width:1.0;" width="10" x="887" y="514.7031"/><rect height="527.6719" style="stroke:#000000;stroke-width:1.5;fill:none;" width="936" x="10" y="53.2969"/><line style="stroke:#181818;stroke-width:0.5;fill:none;stroke-dasharray:5.0,5.0;" x1="128" x2="128" y1="36.2969" y2="597.9688"/><line style="stroke:#181818;stroke-width:0.5;fill:none;stroke-dasharray:5.0,5.0;" x1="515.5" x2="515.5" y1="36.2969" y2="597.9688"/><line style="stroke:#181818;stroke-width:0.5;fill:none;stroke-dasharray:5.0,5.0;" x1="791" x2="791" y1="36.2969" y2="597.9688"/><line style="stroke:#181818;stroke-width:0.5;fill:none;stroke-dasharray:5.0,5.0;" x1="892" x2="892" y1="36.2969" y2="597.9688"/><rect fill="#E2E2F0" height="30.2969" rx="2.5" ry="2.5" style="stroke:#181818;stroke-width:0.5;" width="217" x="20" y="5"/><text fill="#000000" font-family="sans-serif" font-size="14" lengthAdjust="spacing" textLength="203" x="27" y="24.9951">:ImportLegacySystemDataUI</text><rect fill="#E2E2F0" height="30.2969" rx="2.5" ry="2.5" style="stroke:#181818;stroke-width:0.5;" width="217" x="20" y="596.9688"/><text fill="#000000" font-family="sans-serif" font-size="14" lengthAdjust="spacing" textLength="203" x="27" y="616.9639">:ImportLegacySystemDataUI</text><rect fill="#E2E2F0" height="30.2969" rx="2.5" ry="2.5" style="stroke:#181818;stroke-width:0.5;" width="274" x="378.5" y="5"/><text fill="#000000" font-family="sans-serif" font-size="14" lengthAdjust="spacing" textLength="260" x="385.5" y="24.9951">:ImportLegacySystemDataController</text><rect fill="#E2E2F0" height="30.2969" rx="2.5" ry="2.5" style="stroke:#181818;stroke-width:0.5;" width="274" x="378.5" y="596.9688"/><text fill="#000000" font-family="sans-serif" font-size="14" lengthAdjust="spacing" textLength="260" x="385.5" y="616.9639">:ImportLegacySystemDataController</text><rect fill="#E2E2F0" height="30.2969" rx="2.5" ry="2.5" style="stroke:#181818;stroke-width:0.5;" width="93" x="745" y="5"/><text fill="#000000" font-family="sans-serif" font-size="14" lengthAdjust="spacing" textLength="79" x="752" y="24.9951">BubbleSort</text><rect fill="#E2E2F0" height="30.2969" rx="2.5" ry="2.5" style="stroke:#181818;stroke-width:0.5;" width="93" x="745" y="596.9688"/><text fill="#000000" font-family="sans-serif" font-size="14" lengthAdjust="spacing" textLength="79" x="752" y="616.9639">BubbleSort</text><rect fill="#E2E2F0" height="30.2969" rx="2.5" ry="2.5" style="stroke:#181818;stroke-width:0.5;" width="88" x="848" y="5"/><text fill="#000000" font-family="sans-serif" font-size="14" lengthAdjust="spacing" textLength="74" x="855" y="24.9951">QuickStort</text><rect fill="#E2E2F0" height="30.2969" rx="2.5" ry="2.5" style="stroke:#181818;stroke-width:0.5;" width="88" x="848" y="596.9688"/><text fill="#000000" font-family="sans-serif" font-size="14" lengthAdjust="spacing" textLength="74" x="855" y="616.9639">QuickStort</text><rect fill="#FFFFFF" height="542.6719" style="stroke:#181818;stroke-width:1.0;" width="10" x="123.5" y="46.2969"/><rect fill="#FFFFFF" height="87.3984" style="stroke:#181818;stroke-width:1.0;" width="10" x="510.5" y="91.5625"/><rect fill="#FFFFFF" height="87.3984" style="stroke:#181818;stroke-width:1.0;" width="10" x="510.5" y="222.8984"/><rect fill="#FFFFFF" height="87.3984" style="stroke:#181818;stroke-width:1.0;" width="10" x="510.5" y="354.2344"/><rect fill="#FFFFFF" height="87.3984" style="stroke:#181818;stroke-width:1.0;" width="10" x="510.5" y="485.5703"/><rect fill="#FFFFFF" height="29.1328" style="stroke:#181818;stroke-width:1.0;" width="10" x="786.5" y="120.6953"/><rect fill="#FFFFFF" height="29.1328" style="stroke:#181818;stroke-width:1.0;" width="10" x="786.5" y="383.3672"/><rect fill="#FFFFFF" height="29.1328" style="stroke:#181818;stroke-width:1.0;" width="10" x="887" y="252.0313"/><rect fill="#FFFFFF" height="29.1328" style="stroke:#181818;stroke-width:1.0;" width="10" x="887" y="514.7031"/><path d="M10,53.2969 L74,53.2969 L74,60.4297 L64,70.4297 L10,70.4297 L10,53.2969 " fill="#EEEEEE" style="stroke:#000000;stroke-width:1.5;"/><rect fill="none" height="527.6719" style="stroke:#000000;stroke-width:1.5;" width="936" x="10" y="53.2969"/><text fill="#000000" font-family="sans-serif" font-size="13" font-weight="bold" lengthAdjust="spacing" textLength="19" x="25" y="66.3638">alt</text><text fill="#000000" font-family="sans-serif" font-size="11" font-weight="bold" lengthAdjust="spacing" textLength="326" x="89" y="65.5073">[order = arrivalDateTime and algorithm=BubbleSort]</text><polygon fill="#181818" points="498.5,87.5625,508.5,91.5625,498.5,95.5625,502.5,91.5625" style="stroke:#181818;stroke-width:1.0;"/><line style="stroke:#181818;stroke-width:1.0;" x1="133.5" x2="504.5" y1="91.5625" y2="91.5625"/><text fill="#000000" font-family="sans-serif" font-size="13" lengthAdjust="spacing" textLength="345" x="140.5" y="86.4966">orderedOutputList = sortByArrivalTime(sortingOrder)</text><polygon fill="#181818" points="774.5,116.6953,784.5,120.6953,774.5,124.6953,778.5,120.6953" style="stroke:#181818;stroke-width:1.0;"/><line style="stroke:#181818;stroke-width:1.0;" x1="520.5" x2="780.5" y1="120.6953" y2="120.6953"/><text fill="#000000" font-family="sans-serif" font-size="13" lengthAdjust="spacing" textLength="241" x="527.5" y="115.6294">bubbleSort(importedList,arrivalTime)</text><polygon fill="#181818" points="531.5,145.8281,521.5,149.8281,531.5,153.8281,527.5,149.8281" style="stroke:#181818;stroke-width:1.0;"/><line style="stroke:#181818;stroke-width:1.0;stroke-dasharray:2.0,2.0;" x1="525.5" x2="790.5" y1="149.8281" y2="149.8281"/><text fill="#000000" font-family="sans-serif" font-size="13" lengthAdjust="spacing" textLength="117" x="537.5" y="144.7622">orderedOutputList</text><polygon fill="#181818" points="144.5,174.9609,134.5,178.9609,144.5,182.9609,140.5,178.9609" style="stroke:#181818;stroke-width:1.0;"/><line style="stroke:#181818;stroke-width:1.0;stroke-dasharray:2.0,2.0;" x1="138.5" x2="514.5" y1="178.9609" y2="178.9609"/><text fill="#000000" font-family="sans-serif" font-size="13" lengthAdjust="spacing" textLength="117" x="150.5" y="173.895">orderedOutputList</text><line style="stroke:#000000;stroke-width:1.0;stroke-dasharray:2.0,2.0;" x1="10" x2="946" y1="187.9609" y2="187.9609"/><text fill="#000000" font-family="sans-serif" font-size="11" font-weight="bold" lengthAdjust="spacing" textLength="318" x="15" y="198.1714">[order = arrivalDateTime and algorithm=QuickSort]</text><polygon fill="#181818" points="498.5,218.8984,508.5,222.8984,498.5,226.8984,502.5,222.8984" style="stroke:#181818;stroke-width:1.0;"/><line style="stroke:#181818;stroke-width:1.0;" x1="133.5" x2="504.5" y1="222.8984" y2="222.8984"/><text fill="#000000" font-family="sans-serif" font-size="13" lengthAdjust="spacing" textLength="350" x="140.5" y="217.8325">orderedOutputList = sortByArrivalTime(sortingOrder))</text><polygon fill="#181818" points="875,248.0313,885,252.0313,875,256.0313,879,252.0313" style="stroke:#181818;stroke-width:1.0;"/><line style="stroke:#181818;stroke-width:1.0;" x1="520.5" x2="881" y1="252.0313" y2="252.0313"/><text fill="#000000" font-family="sans-serif" font-size="13" lengthAdjust="spacing" textLength="291" x="527.5" y="246.9653">quickSort(importedList,low,high,arrivalTime)</text><polygon fill="#181818" points="531.5,277.1641,521.5,281.1641,531.5,285.1641,527.5,281.1641" style="stroke:#181818;stroke-width:1.0;"/><line style="stroke:#181818;stroke-width:1.0;stroke-dasharray:2.0,2.0;" x1="525.5" x2="891" y1="281.1641" y2="281.1641"/><text fill="#000000" font-family="sans-serif" font-size="13" lengthAdjust="spacing" textLength="117" x="537.5" y="276.0981">orderedOutputList</text><polygon fill="#181818" points="144.5,306.2969,134.5,310.2969,144.5,314.2969,140.5,310.2969" style="stroke:#181818;stroke-width:1.0;"/><line style="stroke:#181818;stroke-width:1.0;stroke-dasharray:2.0,2.0;" x1="138.5" x2="514.5" y1="310.2969" y2="310.2969"/><text fill="#000000" font-family="sans-serif" font-size="13" lengthAdjust="spacing" textLength="117" x="150.5" y="305.231">orderedOutputList</text><line style="stroke:#000000;stroke-width:1.0;stroke-dasharray:2.0,2.0;" x1="10" x2="946" y1="319.2969" y2="319.2969"/><text fill="#000000" font-family="sans-serif" font-size="11" font-weight="bold" lengthAdjust="spacing" textLength="332" x="15" y="329.5073">[order = leavingDateTime and algorithm=BubbleSort]</text><polygon fill="#181818" points="498.5,350.2344,508.5,354.2344,498.5,358.2344,502.5,354.2344" style="stroke:#181818;stroke-width:1.0;"/><line style="stroke:#181818;stroke-width:1.0;" x1="133.5" x2="504.5" y1="354.2344" y2="354.2344"/><text fill="#000000" font-family="sans-serif" font-size="13" lengthAdjust="spacing" textLength="358" x="140.5" y="349.1685">orderedOutputList = sortByLeavingTime(sortingOrder))</text><polygon fill="#181818" points="774.5,379.3672,784.5,383.3672,774.5,387.3672,778.5,383.3672" style="stroke:#181818;stroke-width:1.0;"/><line style="stroke:#181818;stroke-width:1.0;" x1="520.5" x2="780.5" y1="383.3672" y2="383.3672"/><text fill="#000000" font-family="sans-serif" font-size="13" lengthAdjust="spacing" textLength="247" x="527.5" y="378.3013">bubbleSort(importedList,leavingTime)</text><polygon fill="#181818" points="531.5,408.5,521.5,412.5,531.5,416.5,527.5,412.5" style="stroke:#181818;stroke-width:1.0;"/><line style="stroke:#181818;stroke-width:1.0;stroke-dasharray:2.0,2.0;" x1="525.5" x2="790.5" y1="412.5" y2="412.5"/><text fill="#000000" font-family="sans-serif" font-size="13" lengthAdjust="spacing" textLength="117" x="537.5" y="407.4341">orderedOutputList</text><polygon fill="#181818" points="144.5,437.6328,134.5,441.6328,144.5,445.6328,140.5,441.6328" style="stroke:#181818;stroke-width:1.0;"/><line style="stroke:#181818;stroke-width:1.0;stroke-dasharray:2.0,2.0;" x1="138.5" x2="514.5" y1="441.6328" y2="441.6328"/><text fill="#000000" font-family="sans-serif" font-size="13" lengthAdjust="spacing" textLength="117" x="150.5" y="436.5669">orderedOutputList</text><line style="stroke:#000000;stroke-width:1.0;stroke-dasharray:2.0,2.0;" x1="10" x2="946" y1="450.6328" y2="450.6328"/><text fill="#000000" font-family="sans-serif" font-size="11" font-weight="bold" lengthAdjust="spacing" textLength="324" x="15" y="460.8433">[order = leavingDateTime and algorithm=QuickSort]</text><polygon fill="#181818" points="498.5,481.5703,508.5,485.5703,498.5,489.5703,502.5,485.5703" style="stroke:#181818;stroke-width:1.0;"/><line style="stroke:#181818;stroke-width:1.0;" x1="133.5" x2="504.5" y1="485.5703" y2="485.5703"/><text fill="#000000" font-family="sans-serif" font-size="13" lengthAdjust="spacing" textLength="353" x="140.5" y="480.5044">orderedOutputList = sortByLeavingTime(sortingOrder)</text><polygon fill="#181818" points="875,510.7031,885,514.7031,875,518.7031,879,514.7031" style="stroke:#181818;stroke-width:1.0;"/><line style="stroke:#181818;stroke-width:1.0;" x1="520.5" x2="881" y1="514.7031" y2="514.7031"/><text fill="#000000" font-family="sans-serif" font-size="13" lengthAdjust="spacing" textLength="297" x="527.5" y="509.6372">quickSort(importedList,low,high,leavingTime)</text><polygon fill="#181818" points="531.5,539.8359,521.5,543.8359,531.5,547.8359,527.5,543.8359" style="stroke:#181818;stroke-width:1.0;"/><line style="stroke:#181818;stroke-width:1.0;stroke-dasharray:2.0,2.0;" x1="525.5" x2="891" y1="543.8359" y2="543.8359"/><text fill="#000000" font-family="sans-serif" font-size="13" lengthAdjust="spacing" textLength="117" x="537.5" y="538.77">orderedOutputList</text><polygon fill="#181818" points="144.5,568.9688,134.5,572.9688,144.5,576.9688,140.5,572.9688" style="stroke:#181818;stroke-width:1.0;"/><line style="stroke:#181818;stroke-width:1.0;stroke-dasharray:2.0,2.0;" x1="138.5" x2="514.5" y1="572.9688" y2="572.9688"/><text fill="#000000" font-family="sans-serif" font-size="13" lengthAdjust="spacing" textLength="117" x="150.5" y="567.9028">orderedOutputList</text><!--MD5=[19318b39077458c16dd6fd3015676c46]
@startuml

participant ":ImportLegacySystemDataUI" as UI
participant ":ImportLegacySystemDataController" as CTRL
participant "BubbleSort" as BS
participant "QuickStort" as QS


activate UI
alt order = arrivalDateTime and algorithm=BubbleSort
UI -> CTRL: orderedOutputList = sortByArrivalTime(sortingOrder)
activate CTRL
CTRL -> BS: bubbleSort(importedList,arrivalTime)
activate BS
BS - -> CTRL : orderedOutputList
deactivate BS
CTRL - -> UI : orderedOutputList
deactivate CTRL
else order = arrivalDateTime and algorithm=QuickSort
UI -> CTRL: orderedOutputList = sortByArrivalTime(sortingOrder))
activate CTRL
CTRL -> QS: quickSort(importedList,low,high,arrivalTime)
activate QS
QS - -> CTRL : orderedOutputList
deactivate QS
CTRL - -> UI : orderedOutputList
deactivate CTRL

else order = leavingDateTime and algorithm=BubbleSort
UI -> CTRL: orderedOutputList = sortByLeavingTime(sortingOrder))
activate CTRL
CTRL -> BS: bubbleSort(importedList,leavingTime)
activate BS
BS - -> CTRL : orderedOutputList
deactivate BS
CTRL - -> UI : orderedOutputList
deactivate CTRL

else order = leavingDateTime and algorithm=QuickSort
UI -> CTRL: orderedOutputList = sortByLeavingTime(sortingOrder)
activate CTRL
CTRL -> QS: quickSort(importedList,low,high,leavingTime)
activate QS
QS - -> CTRL : orderedOutputList
deactivate QS
CTRL - -> UI: orderedOutputList
deactivate CTRL

deactivate CTRL
end

@enduml

PlantUML version 1.2022.5(Sat Apr 30 11:55:52 WEST 2022)
(GPL source distribution)
Java Runtime: OpenJDK Runtime Environment
JVM: OpenJDK 64-Bit Server VM
Default Encoding: UTF-8
Language: en
Country: US
--></g></svg>