<?xml version="1.0" encoding="UTF-8" standalone="no"?><svg xmlns="http://www.w3.org/2000/svg" xmlns:xlink="http://www.w3.org/1999/xlink" contentStyleType="text/css" height="748px" preserveAspectRatio="none" style="width:1605px;height:748px;background:#FFFFFF;" version="1.1" viewBox="0 0 1605 748" width="1605px" zoomAndPan="magnify"><defs/><g><!--MD5=[02e4b9b7573f1156f41e60aa5b4e25a4]
class Company--><g id="elem_Company"><rect codeLine="5" fill="#F1F1F1" height="56.2969" id="Company" rx="2.5" ry="2.5" style="stroke:#181818;stroke-width:0.5;" width="100" x="7" y="250.5659"/><ellipse cx="22" cy="266.5659" fill="#ADD1B2" rx="11" ry="11" style="stroke:#181818;stroke-width:1.0;"/><path d="M24.4688,272.4409 Q23.8906,272.7534 23.25,272.9097 Q22.6094,273.0659 21.9063,273.0659 Q19.4063,273.0659 18.0781,271.394 Q16.7656,269.7222 16.7656,266.5659 Q16.7656,263.4097 18.0781,261.7378 Q19.4063,260.0659 21.9063,260.0659 Q22.6094,260.0659 23.25,260.2222 Q23.9063,260.3784 24.4688,260.6909 L24.4688,263.4878 Q23.8438,262.9253 23.25,262.6597 Q22.6563,262.3784 22.0313,262.3784 Q20.6875,262.3784 20,263.4409 Q19.3125,264.5034 19.3125,266.5659 Q19.3125,268.644 20,269.7065 Q20.6875,270.7534 22.0313,270.7534 Q22.6563,270.7534 23.25,270.4878 Q23.8438,270.2222 24.4688,269.644 L24.4688,272.4409 Z " fill="#000000"/><text fill="#000000" font-family="sans-serif" font-size="14" lengthAdjust="spacing" textLength="68" x="36" y="271.4126">Company</text><line style="stroke:#181818;stroke-width:0.5;" x1="8" x2="106" y1="282.5659" y2="282.5659"/><text fill="#000000" font-family="sans-serif" font-size="14" lengthAdjust="spacing" textLength="88" x="13" y="299.561">-designation</text></g><!--MD5=[72be06cc7ae02ccc98efe28a50e62246]
class SNSUser--><g id="elem_SNSUser"><rect codeLine="9" fill="#F1F1F1" height="170.375" id="SNSUser" rx="2.5" ry="2.5" style="stroke:#181818;stroke-width:0.5;" width="119" x="1206" y="171.5659"/><ellipse cx="1233.15" cy="187.5659" fill="#ADD1B2" rx="11" ry="11" style="stroke:#181818;stroke-width:1.0;"/><path d="M1235.6188,193.4409 Q1235.0406,193.7534 1234.4,193.9097 Q1233.7594,194.0659 1233.0563,194.0659 Q1230.5563,194.0659 1229.2281,192.394 Q1227.9156,190.7222 1227.9156,187.5659 Q1227.9156,184.4097 1229.2281,182.7378 Q1230.5563,181.0659 1233.0563,181.0659 Q1233.7594,181.0659 1234.4,181.2222 Q1235.0563,181.3784 1235.6188,181.6909 L1235.6188,184.4878 Q1234.9938,183.9253 1234.4,183.6597 Q1233.8063,183.3784 1233.1813,183.3784 Q1231.8375,183.3784 1231.15,184.4409 Q1230.4625,185.5034 1230.4625,187.5659 Q1230.4625,189.644 1231.15,190.7065 Q1231.8375,191.7534 1233.1813,191.7534 Q1233.8063,191.7534 1234.4,191.4878 Q1234.9938,191.2222 1235.6188,190.644 L1235.6188,193.4409 Z " fill="#000000"/><text fill="#000000" font-family="sans-serif" font-size="14" lengthAdjust="spacing" textLength="60" x="1249.85" y="192.4126">SNSUser</text><line style="stroke:#181818;stroke-width:0.5;" x1="1207" x2="1324" y1="203.5659" y2="203.5659"/><text fill="#000000" font-family="sans-serif" font-size="14" lengthAdjust="spacing" textLength="46" x="1212" y="220.561">-name</text><text fill="#000000" font-family="sans-serif" font-size="14" lengthAdjust="spacing" textLength="61" x="1212" y="236.8579">-address</text><text fill="#000000" font-family="sans-serif" font-size="14" lengthAdjust="spacing" textLength="29" x="1212" y="253.1548">-sex</text><text fill="#000000" font-family="sans-serif" font-size="14" lengthAdjust="spacing" textLength="107" x="1212" y="269.4517">-phoneNumber</text><text fill="#000000" font-family="sans-serif" font-size="14" lengthAdjust="spacing" textLength="45" x="1212" y="285.7485">-email</text><text fill="#000000" font-family="sans-serif" font-size="14" lengthAdjust="spacing" textLength="72" x="1212" y="302.0454">-birthDate</text><text fill="#000000" font-family="sans-serif" font-size="14" lengthAdjust="spacing" textLength="85" x="1212" y="318.3423">-snsNumber</text><text fill="#000000" font-family="sans-serif" font-size="14" lengthAdjust="spacing" textLength="85" x="1212" y="334.6392">-citizenCard</text></g><!--MD5=[c508b5b6bbe276ff5e2700b6641f837f]
class Appointment--><g id="elem_Appointment"><rect codeLine="20" fill="#F1F1F1" height="72.5938" id="Appointment" rx="2.5" ry="2.5" style="stroke:#181818;stroke-width:0.5;" width="124" x="565.5" y="349.0659"/><ellipse cx="580.5" cy="365.0659" fill="#ADD1B2" rx="11" ry="11" style="stroke:#181818;stroke-width:1.0;"/><path d="M582.9688,370.9409 Q582.3906,371.2534 581.75,371.4097 Q581.1094,371.5659 580.4063,371.5659 Q577.9063,371.5659 576.5781,369.894 Q575.2656,368.2222 575.2656,365.0659 Q575.2656,361.9097 576.5781,360.2378 Q577.9063,358.5659 580.4063,358.5659 Q581.1094,358.5659 581.75,358.7222 Q582.4063,358.8784 582.9688,359.1909 L582.9688,361.9878 Q582.3438,361.4253 581.75,361.1597 Q581.1563,360.8784 580.5313,360.8784 Q579.1875,360.8784 578.5,361.9409 Q577.8125,363.0034 577.8125,365.0659 Q577.8125,367.144 578.5,368.2065 Q579.1875,369.2534 580.5313,369.2534 Q581.1563,369.2534 581.75,368.9878 Q582.3438,368.7222 582.9688,368.144 L582.9688,370.9409 Z " fill="#000000"/><text fill="#000000" font-family="sans-serif" font-size="14" lengthAdjust="spacing" textLength="92" x="594.5" y="369.9126">Appointment</text><line style="stroke:#181818;stroke-width:0.5;" x1="566.5" x2="688.5" y1="381.0659" y2="381.0659"/><text fill="#000000" font-family="sans-serif" font-size="14" lengthAdjust="spacing" textLength="37" x="571.5" y="398.061">-date</text><text fill="#000000" font-family="sans-serif" font-size="14" lengthAdjust="spacing" textLength="37" x="571.5" y="414.3579">-time</text></g><!--MD5=[531738926630841faced5b36d0124f7f]
class DaySchedule--><g id="elem_DaySchedule"><rect codeLine="25" fill="#F1F1F1" height="72.5938" id="DaySchedule" rx="2.5" ry="2.5" style="stroke:#181818;stroke-width:0.5;" width="126" x="564.5" y="165.0659"/><ellipse cx="579.5" cy="181.0659" fill="#ADD1B2" rx="11" ry="11" style="stroke:#181818;stroke-width:1.0;"/><path d="M581.9688,186.9409 Q581.3906,187.2534 580.75,187.4097 Q580.1094,187.5659 579.4063,187.5659 Q576.9063,187.5659 575.5781,185.894 Q574.2656,184.2222 574.2656,181.0659 Q574.2656,177.9097 575.5781,176.2378 Q576.9063,174.5659 579.4063,174.5659 Q580.1094,174.5659 580.75,174.7222 Q581.4063,174.8784 581.9688,175.1909 L581.9688,177.9878 Q581.3438,177.4253 580.75,177.1597 Q580.1563,176.8784 579.5313,176.8784 Q578.1875,176.8784 577.5,177.9409 Q576.8125,179.0034 576.8125,181.0659 Q576.8125,183.144 577.5,184.2065 Q578.1875,185.2534 579.5313,185.2534 Q580.1563,185.2534 580.75,184.9878 Q581.3438,184.7222 581.9688,184.144 L581.9688,186.9409 Z " fill="#000000"/><text fill="#000000" font-family="sans-serif" font-size="14" lengthAdjust="spacing" textLength="94" x="593.5" y="185.9126">DaySchedule</text><line style="stroke:#181818;stroke-width:0.5;" x1="565.5" x2="689.5" y1="197.0659" y2="197.0659"/><text fill="#000000" font-family="sans-serif" font-size="14" lengthAdjust="spacing" textLength="98" x="570.5" y="214.061">-openingHour</text><text fill="#000000" font-family="sans-serif" font-size="14" lengthAdjust="spacing" textLength="90" x="570.5" y="230.3579">-closingHour</text></g><!--MD5=[45c6380d22fb72521f5065026b277fb9]
class Slot--><g id="elem_Slot"><rect codeLine="30" fill="#F1F1F1" height="72.5938" id="Slot" rx="2.5" ry="2.5" style="stroke:#181818;stroke-width:0.5;" width="187" x="887" y="165.0659"/><ellipse cx="962.75" cy="181.0659" fill="#ADD1B2" rx="11" ry="11" style="stroke:#181818;stroke-width:1.0;"/><path d="M965.2188,186.9409 Q964.6406,187.2534 964,187.4097 Q963.3594,187.5659 962.6563,187.5659 Q960.1563,187.5659 958.8281,185.894 Q957.5156,184.2222 957.5156,181.0659 Q957.5156,177.9097 958.8281,176.2378 Q960.1563,174.5659 962.6563,174.5659 Q963.3594,174.5659 964,174.7222 Q964.6563,174.8784 965.2188,175.1909 L965.2188,177.9878 Q964.5938,177.4253 964,177.1597 Q963.4063,176.8784 962.7813,176.8784 Q961.4375,176.8784 960.75,177.9409 Q960.0625,179.0034 960.0625,181.0659 Q960.0625,183.144 960.75,184.2065 Q961.4375,185.2534 962.7813,185.2534 Q963.4063,185.2534 964,184.9878 Q964.5938,184.7222 965.2188,184.144 L965.2188,186.9409 Z " fill="#000000"/><text fill="#000000" font-family="sans-serif" font-size="14" lengthAdjust="spacing" textLength="27" x="983.25" y="185.9126">Slot</text><line style="stroke:#181818;stroke-width:0.5;" x1="888" x2="1073" y1="197.0659" y2="197.0659"/><text fill="#000000" font-family="sans-serif" font-size="14" lengthAdjust="spacing" textLength="175" x="893" y="214.061">-numberOfVaccinesSlots</text><text fill="#000000" font-family="sans-serif" font-size="14" lengthAdjust="spacing" textLength="65" x="893" y="230.3579">-duration</text></g><!--MD5=[17d776304760d17bcc13ba401441cbdd]
class SMSNotification--><g id="elem_SMSNotification"><rect codeLine="35" fill="#F1F1F1" height="40" id="SMSNotification" rx="2.5" ry="2.5" style="stroke:#181818;stroke-width:0.5;" width="143" x="1455" y="72.5659"/><ellipse cx="1470" cy="88.5659" fill="#ADD1B2" rx="11" ry="11" style="stroke:#181818;stroke-width:1.0;"/><path d="M1472.4688,94.4409 Q1471.8906,94.7534 1471.25,94.9097 Q1470.6094,95.0659 1469.9063,95.0659 Q1467.4063,95.0659 1466.0781,93.394 Q1464.7656,91.7222 1464.7656,88.5659 Q1464.7656,85.4097 1466.0781,83.7378 Q1467.4063,82.0659 1469.9063,82.0659 Q1470.6094,82.0659 1471.25,82.2222 Q1471.9063,82.3784 1472.4688,82.6909 L1472.4688,85.4878 Q1471.8438,84.9253 1471.25,84.6597 Q1470.6563,84.3784 1470.0313,84.3784 Q1468.6875,84.3784 1468,85.4409 Q1467.3125,86.5034 1467.3125,88.5659 Q1467.3125,90.644 1468,91.7065 Q1468.6875,92.7534 1470.0313,92.7534 Q1470.6563,92.7534 1471.25,92.4878 Q1471.8438,92.2222 1472.4688,91.644 L1472.4688,94.4409 Z " fill="#000000"/><text fill="#000000" font-family="sans-serif" font-size="14" lengthAdjust="spacing" textLength="111" x="1484" y="93.4126">SMSNotification</text><line style="stroke:#181818;stroke-width:0.5;" x1="1456" x2="1597" y1="104.5659" y2="104.5659"/></g><!--MD5=[0e501da62322464167c8ec4d233a6b7e]
class VaccineType--><g id="elem_VaccineType"><rect codeLine="38" fill="#F1F1F1" height="88.8906" id="VaccineType" rx="2.5" ry="2.5" style="stroke:#181818;stroke-width:0.5;" width="155" x="903" y="429.0659"/><ellipse cx="931.95" cy="445.0659" fill="#ADD1B2" rx="11" ry="11" style="stroke:#181818;stroke-width:1.0;"/><path d="M934.4188,450.9409 Q933.8406,451.2534 933.2,451.4097 Q932.5594,451.5659 931.8563,451.5659 Q929.3563,451.5659 928.0281,449.894 Q926.7156,448.2222 926.7156,445.0659 Q926.7156,441.9097 928.0281,440.2378 Q929.3563,438.5659 931.8563,438.5659 Q932.5594,438.5659 933.2,438.7222 Q933.8563,438.8784 934.4188,439.1909 L934.4188,441.9878 Q933.7938,441.4253 933.2,441.1597 Q932.6063,440.8784 931.9813,440.8784 Q930.6375,440.8784 929.95,441.9409 Q929.2625,443.0034 929.2625,445.0659 Q929.2625,447.144 929.95,448.2065 Q930.6375,449.2534 931.9813,449.2534 Q932.6063,449.2534 933.2,448.9878 Q933.7938,448.7222 934.4188,448.144 L934.4188,450.9409 Z " fill="#000000"/><text fill="#000000" font-family="sans-serif" font-size="14" lengthAdjust="spacing" textLength="92" x="949.05" y="449.9126">VaccineType</text><line style="stroke:#181818;stroke-width:0.5;" x1="904" x2="1057" y1="461.0659" y2="461.0659"/><text fill="#000000" font-family="sans-serif" font-size="14" lengthAdjust="spacing" textLength="40" x="909" y="478.061">-code</text><text fill="#000000" font-family="sans-serif" font-size="14" lengthAdjust="spacing" textLength="84" x="909" y="494.3579">-description</text><text fill="#000000" font-family="sans-serif" font-size="14" lengthAdjust="spacing" textLength="143" x="909" y="510.6548">-vaccineTechnology</text></g><!--MD5=[de60e6d4f424ae4d0522096f76a59010]
class VaccinationCenter--><g id="elem_VaccinationCenter"><rect codeLine="44" fill="#F1F1F1" height="137.7813" id="VaccinationCenter" rx="2.5" ry="2.5" style="stroke:#181818;stroke-width:0.5;" width="164" x="242" y="209.5659"/><ellipse cx="257" cy="225.5659" fill="#ADD1B2" rx="11" ry="11" style="stroke:#181818;stroke-width:1.0;"/><path d="M259.4688,231.4409 Q258.8906,231.7534 258.25,231.9097 Q257.6094,232.0659 256.9063,232.0659 Q254.4063,232.0659 253.0781,230.394 Q251.7656,228.7222 251.7656,225.5659 Q251.7656,222.4097 253.0781,220.7378 Q254.4063,219.0659 256.9063,219.0659 Q257.6094,219.0659 258.25,219.2222 Q258.9063,219.3784 259.4688,219.6909 L259.4688,222.4878 Q258.8438,221.9253 258.25,221.6597 Q257.6563,221.3784 257.0313,221.3784 Q255.6875,221.3784 255,222.4409 Q254.3125,223.5034 254.3125,225.5659 Q254.3125,227.644 255,228.7065 Q255.6875,229.7534 257.0313,229.7534 Q257.6563,229.7534 258.25,229.4878 Q258.8438,229.2222 259.4688,228.644 L259.4688,231.4409 Z " fill="#000000"/><text fill="#000000" font-family="sans-serif" font-size="14" lengthAdjust="spacing" textLength="132" x="271" y="230.4126">VaccinationCenter</text><line style="stroke:#181818;stroke-width:0.5;" x1="243" x2="405" y1="241.5659" y2="241.5659"/><text fill="#000000" font-family="sans-serif" font-size="14" lengthAdjust="spacing" textLength="46" x="248" y="258.561">-name</text><text fill="#000000" font-family="sans-serif" font-size="14" lengthAdjust="spacing" textLength="61" x="248" y="274.8579">-address</text><text fill="#000000" font-family="sans-serif" font-size="14" lengthAdjust="spacing" textLength="107" x="248" y="291.1548">-phoneNumber</text><text fill="#000000" font-family="sans-serif" font-size="14" lengthAdjust="spacing" textLength="93" x="248" y="307.4517">-emailAdress</text><text fill="#000000" font-family="sans-serif" font-size="14" lengthAdjust="spacing" textLength="84" x="248" y="323.7485">-faxNumber</text><text fill="#000000" font-family="sans-serif" font-size="14" lengthAdjust="spacing" textLength="116" x="248" y="340.0454">-websiteAddress</text></g><!--MD5=[03960189e81aa2c066c762ffabbee709]
class Receptionist--><g id="elem_Receptionist"><rect codeLine="53" fill="#F1F1F1" height="40" id="Receptionist" rx="2.5" ry="2.5" style="stroke:#181818;stroke-width:0.5;" width="120" x="920.5" y="553.5659"/><ellipse cx="935.5" cy="569.5659" fill="#ADD1B2" rx="11" ry="11" style="stroke:#181818;stroke-width:1.0;"/><path d="M937.9688,575.4409 Q937.3906,575.7534 936.75,575.9097 Q936.1094,576.0659 935.4063,576.0659 Q932.9063,576.0659 931.5781,574.394 Q930.2656,572.7222 930.2656,569.5659 Q930.2656,566.4097 931.5781,564.7378 Q932.9063,563.0659 935.4063,563.0659 Q936.1094,563.0659 936.75,563.2222 Q937.4063,563.3784 937.9688,563.6909 L937.9688,566.4878 Q937.3438,565.9253 936.75,565.6597 Q936.1563,565.3784 935.5313,565.3784 Q934.1875,565.3784 933.5,566.4409 Q932.8125,567.5034 932.8125,569.5659 Q932.8125,571.644 933.5,572.7065 Q934.1875,573.7534 935.5313,573.7534 Q936.1563,573.7534 936.75,573.4878 Q937.3438,573.2222 937.9688,572.644 L937.9688,575.4409 Z " fill="#000000"/><text fill="#000000" font-family="sans-serif" font-size="14" lengthAdjust="spacing" textLength="88" x="949.5" y="574.4126">Receptionist</text><line style="stroke:#181818;stroke-width:0.5;" x1="921.5" x2="1039.5" y1="585.5659" y2="585.5659"/></g><!--MD5=[7421f545a0d8420c5bec41e74b387d9c]
class Employee--><g id="elem_Employee"><rect codeLine="55" fill="#F1F1F1" height="137.7813" id="Employee" rx="2.5" ry="2.5" style="stroke:#181818;stroke-width:0.5;" width="119" x="264.5" y="603.5659"/><ellipse cx="286.7" cy="619.5659" fill="#ADD1B2" rx="11" ry="11" style="stroke:#181818;stroke-width:1.0;"/><path d="M289.1688,625.4409 Q288.5906,625.7534 287.95,625.9097 Q287.3094,626.0659 286.6063,626.0659 Q284.1063,626.0659 282.7781,624.394 Q281.4656,622.7222 281.4656,619.5659 Q281.4656,616.4097 282.7781,614.7378 Q284.1063,613.0659 286.6063,613.0659 Q287.3094,613.0659 287.95,613.2222 Q288.6063,613.3784 289.1688,613.6909 L289.1688,616.4878 Q288.5438,615.9253 287.95,615.6597 Q287.3563,615.3784 286.7313,615.3784 Q285.3875,615.3784 284.7,616.4409 Q284.0125,617.5034 284.0125,619.5659 Q284.0125,621.644 284.7,622.7065 Q285.3875,623.7534 286.7313,623.7534 Q287.3563,623.7534 287.95,623.4878 Q288.5438,623.2222 289.1688,622.644 L289.1688,625.4409 Z " fill="#000000"/><text fill="#000000" font-family="sans-serif" font-size="14" lengthAdjust="spacing" textLength="71" x="302.3" y="624.4126">Employee</text><line style="stroke:#181818;stroke-width:0.5;" x1="265.5" x2="382.5" y1="635.5659" y2="635.5659"/><text fill="#000000" font-family="sans-serif" font-size="14" lengthAdjust="spacing" textLength="46" x="270.5" y="652.561">-name</text><text fill="#000000" font-family="sans-serif" font-size="14" lengthAdjust="spacing" textLength="93" x="270.5" y="668.8579">-emailAdress</text><text fill="#000000" font-family="sans-serif" font-size="14" lengthAdjust="spacing" textLength="89" x="270.5" y="685.1548">-employeeId</text><text fill="#000000" font-family="sans-serif" font-size="14" lengthAdjust="spacing" textLength="61" x="270.5" y="701.4517">-address</text><text fill="#000000" font-family="sans-serif" font-size="14" lengthAdjust="spacing" textLength="107" x="270.5" y="717.7485">-phoneNumber</text><text fill="#000000" font-family="sans-serif" font-size="14" lengthAdjust="spacing" textLength="78" x="270.5" y="734.0454">-ccNumber</text></g><!--MD5=[a3638c1e5b65d287ecad7f06f5c0f212]
class Role--><g id="elem_Role"><rect codeLine="64" fill="#F1F1F1" height="72.5938" id="Role" rx="2.5" ry="2.5" style="stroke:#181818;stroke-width:0.5;" width="100" x="7" y="636.0659"/><ellipse cx="38.2" cy="652.0659" fill="#ADD1B2" rx="11" ry="11" style="stroke:#181818;stroke-width:1.0;"/><path d="M40.6688,657.9409 Q40.0906,658.2534 39.45,658.4097 Q38.8094,658.5659 38.1063,658.5659 Q35.6063,658.5659 34.2781,656.894 Q32.9656,655.2222 32.9656,652.0659 Q32.9656,648.9097 34.2781,647.2378 Q35.6063,645.5659 38.1063,645.5659 Q38.8094,645.5659 39.45,645.7222 Q40.1063,645.8784 40.6688,646.1909 L40.6688,648.9878 Q40.0438,648.4253 39.45,648.1597 Q38.8563,647.8784 38.2313,647.8784 Q36.8875,647.8784 36.2,648.9409 Q35.5125,650.0034 35.5125,652.0659 Q35.5125,654.144 36.2,655.2065 Q36.8875,656.2534 38.2313,656.2534 Q38.8563,656.2534 39.45,655.9878 Q40.0438,655.7222 40.6688,655.144 L40.6688,657.9409 Z " fill="#000000"/><text fill="#000000" font-family="sans-serif" font-size="14" lengthAdjust="spacing" textLength="32" x="55.8" y="656.9126">Role</text><line style="stroke:#181818;stroke-width:0.5;" x1="8" x2="106" y1="668.0659" y2="668.0659"/><text fill="#000000" font-family="sans-serif" font-size="14" lengthAdjust="spacing" textLength="88" x="13" y="685.061">-designation</text><text fill="#000000" font-family="sans-serif" font-size="14" lengthAdjust="spacing" textLength="46" x="13" y="701.3579">-roleId</text></g><!--MD5=[76480a6701b5d2883bc606a2560c3cfe]
class MassVaccinationCenter--><g id="elem_MassVaccinationCenter"><rect codeLine="69" fill="#F1F1F1" height="40" id="MassVaccinationCenter" rx="2.5" ry="2.5" style="stroke:#181818;stroke-width:0.5;" width="199" x="528" y="273.5659"/><ellipse cx="543" cy="289.5659" fill="#ADD1B2" rx="11" ry="11" style="stroke:#181818;stroke-width:1.0;"/><path d="M545.4688,295.4409 Q544.8906,295.7534 544.25,295.9097 Q543.6094,296.0659 542.9063,296.0659 Q540.4063,296.0659 539.0781,294.394 Q537.7656,292.7222 537.7656,289.5659 Q537.7656,286.4097 539.0781,284.7378 Q540.4063,283.0659 542.9063,283.0659 Q543.6094,283.0659 544.25,283.2222 Q544.9063,283.3784 545.4688,283.6909 L545.4688,286.4878 Q544.8438,285.9253 544.25,285.6597 Q543.6563,285.3784 543.0313,285.3784 Q541.6875,285.3784 541,286.4409 Q540.3125,287.5034 540.3125,289.5659 Q540.3125,291.644 541,292.7065 Q541.6875,293.7534 543.0313,293.7534 Q543.6563,293.7534 544.25,293.4878 Q544.8438,293.2222 545.4688,292.644 L545.4688,295.4409 Z " fill="#000000"/><text fill="#000000" font-family="sans-serif" font-size="14" lengthAdjust="spacing" textLength="167" x="557" y="294.4126">MassVaccinationCenter</text><line style="stroke:#181818;stroke-width:0.5;" x1="529" x2="726" y1="305.5659" y2="305.5659"/></g><!--MD5=[0b1ce5251ebf137e6b3550dd84e6af65]
class HealthcareCenter--><g id="elem_HealthcareCenter"><rect codeLine="71" fill="#F1F1F1" height="40" id="HealthcareCenter" rx="2.5" ry="2.5" style="stroke:#181818;stroke-width:0.5;" width="159" x="548" y="457.5659"/><ellipse cx="563" cy="473.5659" fill="#ADD1B2" rx="11" ry="11" style="stroke:#181818;stroke-width:1.0;"/><path d="M565.4688,479.4409 Q564.8906,479.7534 564.25,479.9097 Q563.6094,480.0659 562.9063,480.0659 Q560.4063,480.0659 559.0781,478.394 Q557.7656,476.7222 557.7656,473.5659 Q557.7656,470.4097 559.0781,468.7378 Q560.4063,467.0659 562.9063,467.0659 Q563.6094,467.0659 564.25,467.2222 Q564.9063,467.3784 565.4688,467.6909 L565.4688,470.4878 Q564.8438,469.9253 564.25,469.6597 Q563.6563,469.3784 563.0313,469.3784 Q561.6875,469.3784 561,470.4409 Q560.3125,471.5034 560.3125,473.5659 Q560.3125,475.644 561,476.7065 Q561.6875,477.7534 563.0313,477.7534 Q563.6563,477.7534 564.25,477.4878 Q564.8438,477.2222 565.4688,476.644 L565.4688,479.4409 Z " fill="#000000"/><text fill="#000000" font-family="sans-serif" font-size="14" lengthAdjust="spacing" textLength="127" x="577" y="478.4126">HealthcareCenter</text><line style="stroke:#181818;stroke-width:0.5;" x1="549" x2="706" y1="489.5659" y2="489.5659"/></g><!--MD5=[f44bde12c85835f4e3e4c64f18a8c09c]
class ARS--><g id="elem_ARS"><rect codeLine="73" fill="#F1F1F1" height="40" id="ARS" rx="2.5" ry="2.5" style="stroke:#181818;stroke-width:0.5;" width="61" x="293.5" y="457.5659"/><ellipse cx="308.5" cy="473.5659" fill="#ADD1B2" rx="11" ry="11" style="stroke:#181818;stroke-width:1.0;"/><path d="M310.9688,479.4409 Q310.3906,479.7534 309.75,479.9097 Q309.1094,480.0659 308.4063,480.0659 Q305.9063,480.0659 304.5781,478.394 Q303.2656,476.7222 303.2656,473.5659 Q303.2656,470.4097 304.5781,468.7378 Q305.9063,467.0659 308.4063,467.0659 Q309.1094,467.0659 309.75,467.2222 Q310.4063,467.3784 310.9688,467.6909 L310.9688,470.4878 Q310.3438,469.9253 309.75,469.6597 Q309.1563,469.3784 308.5313,469.3784 Q307.1875,469.3784 306.5,470.4409 Q305.8125,471.5034 305.8125,473.5659 Q305.8125,475.644 306.5,476.7065 Q307.1875,477.7534 308.5313,477.7534 Q309.1563,477.7534 309.75,477.4878 Q310.3438,477.2222 310.9688,476.644 L310.9688,479.4409 Z " fill="#000000"/><text fill="#000000" font-family="sans-serif" font-size="14" lengthAdjust="spacing" textLength="29" x="322.5" y="478.4126">ARS</text><line style="stroke:#181818;stroke-width:0.5;" x1="294.5" x2="353.5" y1="489.5659" y2="489.5659"/></g><!--MD5=[f82bce4b1ca59a5351fb9c30bdff39e8]
class ACES--><g id="elem_ACES"><rect codeLine="75" fill="#F1F1F1" height="40" id="ACES" rx="2.5" ry="2.5" style="stroke:#181818;stroke-width:0.5;" width="70" x="289" y="382.5659"/><ellipse cx="304" cy="398.5659" fill="#ADD1B2" rx="11" ry="11" style="stroke:#181818;stroke-width:1.0;"/><path d="M306.4688,404.4409 Q305.8906,404.7534 305.25,404.9097 Q304.6094,405.0659 303.9063,405.0659 Q301.4063,405.0659 300.0781,403.394 Q298.7656,401.7222 298.7656,398.5659 Q298.7656,395.4097 300.0781,393.7378 Q301.4063,392.0659 303.9063,392.0659 Q304.6094,392.0659 305.25,392.2222 Q305.9063,392.3784 306.4688,392.6909 L306.4688,395.4878 Q305.8438,394.9253 305.25,394.6597 Q304.6563,394.3784 304.0313,394.3784 Q302.6875,394.3784 302,395.4409 Q301.3125,396.5034 301.3125,398.5659 Q301.3125,400.644 302,401.7065 Q302.6875,402.7534 304.0313,402.7534 Q304.6563,402.7534 305.25,402.4878 Q305.8438,402.2222 306.4688,401.644 L306.4688,404.4409 Z " fill="#000000"/><text fill="#000000" font-family="sans-serif" font-size="14" lengthAdjust="spacing" textLength="38" x="318" y="403.4126">ACES</text><line style="stroke:#181818;stroke-width:0.5;" x1="290" x2="358" y1="414.5659" y2="414.5659"/></g><!--MD5=[bfff716514ca687b645fe473c6e098a4]
reverse link Employee to Receptionist--><g id="link_Employee_Receptionist"><path d="M403.79,660.6459 C536.57,640.5659 801.99,600.4159 920.27,582.5259 " fill="none" id="Employee-backto-Receptionist" style="stroke:#181818;stroke-width:1.0;"/><polygon fill="none" points="404.48,667.6259,383.66,663.6959,402.39,653.7759,404.48,667.6259" style="stroke:#181818;stroke-width:1.0;"/></g><!--MD5=[a09fc339ad85d4e67aa3195beeccb7d9]
reverse link VaccinationCenter to MassVaccinationCenter--><g id="link_VaccinationCenter_MassVaccinationCenter"><path d="M426.58,283.6159 C459.29,285.2459 495.47,287.0459 527.96,288.6659 " fill="none" id="VaccinationCenter-backto-MassVaccinationCenter" style="stroke:#181818;stroke-width:1.0;"/><polygon fill="none" points="425.82,290.5859,406.19,282.6059,426.52,276.6059,425.82,290.5859" style="stroke:#181818;stroke-width:1.0;"/></g><!--MD5=[860a319d9f073c66a49856aa2bd7c3ed]
reverse link VaccinationCenter to HealthcareCenter--><g id="link_VaccinationCenter_HealthcareCenter"><path d="M422.62,344.5959 C448.02,363.2759 474.76,384.3259 498,405.5659 C512.87,419.1659 511.46,428.0559 528,439.5659 C538.08,446.5859 549.63,452.5259 561.19,457.4859 " fill="none" id="VaccinationCenter-backto-HealthcareCenter" style="stroke:#181818;stroke-width:1.0;"/><polygon fill="none" points="418.26,350.0859,406.17,332.6859,426.47,338.7459,418.26,350.0859" style="stroke:#181818;stroke-width:1.0;"/></g><!--MD5=[05986564e1c13a00611587b35563d868]
link Company to VaccineType--><g id="link_Company_VaccineType"><path codeLine="77" d="M69.72,306.9359 C93.28,359.6859 151.94,471.4659 242,515.5659 C461.56,623.0659 763.06,547.1859 902.73,501.4159 " fill="none" id="Company-VaccineType" style="stroke:#181818;stroke-width:1.0;"/><polygon fill="#000000" points="445.8691,559.2691,437.729,554.3507,436.3927,560.0746,445.8691,559.2691" style="stroke:#000000;stroke-width:1.0;"/><text fill="#000000" font-family="sans-serif" font-size="13" lengthAdjust="spacing" textLength="47" x="450" y="562.6328">applies</text><text fill="#000000" font-family="sans-serif" font-size="13" lengthAdjust="spacing" textLength="8" x="63.6275" y="326.8314">1</text><text fill="#000000" font-family="sans-serif" font-size="13" lengthAdjust="spacing" textLength="7" x="887.984" y="516.8637">*</text></g><!--MD5=[eebe9b198877275d05dd12630ed9e401]
link Company to VaccinationCenter--><g id="link_Company_VaccinationCenter"><path codeLine="78" d="M107.22,278.5659 C144.94,278.5659 197.8,278.5659 241.76,278.5659 " fill="none" id="Company-VaccinationCenter" style="stroke:#181818;stroke-width:1.0;"/><polygon fill="#000000" points="147,270.1323,137.9549,267.1934,137.9549,273.0713,147,270.1323" style="stroke:#000000;stroke-width:1.0;"/><text fill="#000000" font-family="sans-serif" font-size="13" lengthAdjust="spacing" textLength="60" x="151" y="274.6328">manages</text><text fill="#000000" font-family="sans-serif" font-size="13" lengthAdjust="spacing" textLength="8" x="114.8447" y="291.676">1</text><text fill="#000000" font-family="sans-serif" font-size="13" lengthAdjust="spacing" textLength="7" x="227.1238" y="291.3164">*</text></g><!--MD5=[0206201934089beebc55d52d0c92e6cc]
link VaccinationCenter to DaySchedule--><g id="link_VaccinationCenter_DaySchedule"><path codeLine="79" d="M406.19,257.8259 C455.9,245.1359 518.53,229.1359 564.3,217.4559 " fill="none" id="VaccinationCenter-DaySchedule" style="stroke:#181818;stroke-width:1.0;"/><polygon fill="#000000" points="457.8446,225.8954,448.3536,225.2855,449.8077,230.9806,457.8446,225.8954" style="stroke:#000000;stroke-width:1.0;"/><text fill="#000000" font-family="sans-serif" font-size="13" lengthAdjust="spacing" textLength="23" x="462" y="231.6328">has</text><text fill="#000000" font-family="sans-serif" font-size="13" lengthAdjust="spacing" textLength="23" x="413.9487" y="268.8109">1..*</text><text fill="#000000" font-family="sans-serif" font-size="13" lengthAdjust="spacing" textLength="8" x="548.53" y="232.2584">1</text></g><!--MD5=[150ef71d13b6dde556209defa5dfd620]
link DaySchedule to Slot--><g id="link_DaySchedule_Slot"><path codeLine="80" d="M690.85,201.5659 C745.22,201.5659 824.85,201.5659 886.71,201.5659 " fill="none" id="DaySchedule-Slot" style="stroke:#181818;stroke-width:1.0;"/><polygon fill="#000000" points="798,193.1323,788.9549,190.1934,788.9549,196.0713,798,193.1323" style="stroke:#000000;stroke-width:1.0;"/><text fill="#000000" font-family="sans-serif" font-size="13" lengthAdjust="spacing" textLength="23" x="802" y="197.6328">has</text><text fill="#000000" font-family="sans-serif" font-size="13" lengthAdjust="spacing" textLength="15" x="698.5992" y="214.4826">1*</text><text fill="#000000" font-family="sans-serif" font-size="13" lengthAdjust="spacing" textLength="23" x="855.9778" y="214.2034">1..*</text></g><!--MD5=[f17e71def2e220f6a6398972244b7dbb]
link VaccinationCenter to Appointment--><g id="link_VaccinationCenter_Appointment"><path codeLine="81" d="M406.19,307.3759 C456.25,325.1459 519.41,347.5659 565.26,363.8359 " fill="none" id="VaccinationCenter-Appointment" style="stroke:#181818;stroke-width:1.0;"/><polygon fill="#000000" points="448.212,311.8048,440.671,306.0096,438.7049,311.5489,448.212,311.8048" style="stroke:#000000;stroke-width:1.0;"/><text fill="#000000" font-family="sans-serif" font-size="13" lengthAdjust="spacing" textLength="42" x="452.5" y="314.6328">knows</text><text fill="#000000" font-family="sans-serif" font-size="13" lengthAdjust="spacing" textLength="8" x="413.8663" y="322.6923">1</text><text fill="#000000" font-family="sans-serif" font-size="13" lengthAdjust="spacing" textLength="7" x="550.6588" y="374.2886">*</text></g><!--MD5=[97a02de57101d59f46a9b59224ebbfbb]
link Company to SMSNotification--><g id="link_Company_SMSNotification"><path codeLine="82" d="M67.45,250.3659 C79.43,218.0059 102.75,164.8759 137,129.5659 C203.25,61.2659 227.85,23.5659 323,23.5659 C323,23.5659 323,23.5659 1266.5,23.5659 C1343.05,23.5659 1428.16,52.0559 1479.23,72.4259 " fill="none" id="Company-SMSNotification" style="stroke:#181818;stroke-width:1.0;"/><polygon fill="#000000" points="790.4608,14.5071,781.1192,12.7223,781.8542,18.554,790.4608,14.5071" style="stroke:#000000;stroke-width:1.0;"/><text fill="#000000" font-family="sans-serif" font-size="13" lengthAdjust="spacing" textLength="38" x="794.5" y="19.6328">sends</text><text fill="#000000" font-family="sans-serif" font-size="13" lengthAdjust="spacing" textLength="8" x="60.8609" y="239.6055">1</text><text fill="#000000" font-family="sans-serif" font-size="13" lengthAdjust="spacing" textLength="7" x="1457.3163" y="61.3931">*</text></g><!--MD5=[015c196d7fe5aee017e6155a02cecdd2]
link SNSUser to SMSNotification--><g id="link_SNSUser_SMSNotification"><path codeLine="83" d="M1325.27,219.3559 C1377.51,186.2759 1451.89,139.1759 1493.74,112.6759 " fill="none" id="SNSUser-SMSNotification" style="stroke:#181818;stroke-width:1.0;"/><polygon fill="#000000" points="1364.2243,149.4574,1355.0102,151.8134,1358.1548,156.7794,1364.2243,149.4574" style="stroke:#000000;stroke-width:1.0;"/><text fill="#000000" font-family="sans-serif" font-size="13" lengthAdjust="spacing" textLength="55" x="1369" y="156.6328">receives</text><text fill="#000000" font-family="sans-serif" font-size="13" lengthAdjust="spacing" textLength="8" x="1333.042" y="227.7871">1</text><text fill="#000000" font-family="sans-serif" font-size="13" lengthAdjust="spacing" textLength="7" x="1476.5419" y="132.5268">*</text></g><!--MD5=[1a8aa2b864b87f860d28abceaa28b7a5]
link Company to SNSUser--><g id="link_Company_SNSUser"><path codeLine="84" d="M78.92,250.2159 C119.67,198.6059 215.18,94.5659 323,94.5659 C323,94.5659 323,94.5659 981.5,94.5659 C1068.12,94.5659 1152.29,152.4359 1205.99,198.9959 " fill="none" id="Company-SNSUser" style="stroke:#181818;stroke-width:1.0;"/><polygon fill="#000000" points="608.9948,85.9053,599.8257,83.3801,600.0925,89.2519,608.9948,85.9053" style="stroke:#000000;stroke-width:1.0;"/><text fill="#000000" font-family="sans-serif" font-size="13" lengthAdjust="spacing" textLength="42" x="613" y="90.6328">knows</text><text fill="#000000" font-family="sans-serif" font-size="13" lengthAdjust="spacing" textLength="8" x="74.84" y="239.4227">1</text><text fill="#000000" font-family="sans-serif" font-size="13" lengthAdjust="spacing" textLength="7" x="1190.9168" y="204.6321">*</text></g><!--MD5=[621e86b706bec9720bc9ed1d445091d9]
link MassVaccinationCenter to VaccineType--><g id="link_MassVaccinationCenter_VaccineType"><path codeLine="85" d="M680.97,313.5959 C695.87,319.3459 712.09,325.6559 727,331.5659 C785,354.5759 802.48,354.2259 857,384.5659 C879.97,397.3459 903.69,413.7259 924.06,428.9359 " fill="none" id="MassVaccinationCenter-VaccineType" style="stroke:#181818;stroke-width:1.0;"/><polygon fill="#000000" points="770.5173,336.2757,763.6052,329.7431,761.0856,335.0535,770.5173,336.2757" style="stroke:#000000;stroke-width:1.0;"/><text fill="#000000" font-family="sans-serif" font-size="13" lengthAdjust="spacing" textLength="77" x="775" y="338.6328">administers</text><text fill="#000000" font-family="sans-serif" font-size="13" lengthAdjust="spacing" textLength="7" x="688.6487" y="333.7693">*</text><text fill="#000000" font-family="sans-serif" font-size="13" lengthAdjust="spacing" textLength="8" x="906.8051" y="418.0389">1</text></g><!--MD5=[fadf3c4cc459913b8138733d6e23cb41]
link HealthcareCenter to VaccineType--><g id="link_HealthcareCenter_VaccineType"><path codeLine="86" d="M707.27,476.6659 C765.68,476.0059 844.89,475.0959 902.8,474.4359 " fill="none" id="HealthcareCenter-VaccineType" style="stroke:#181818;stroke-width:1.0;"/><polygon fill="#000000" points="770.9997,466.0753,761.9217,463.2397,761.9887,469.1172,770.9997,466.0753" style="stroke:#000000;stroke-width:1.0;"/><text fill="#000000" font-family="sans-serif" font-size="13" lengthAdjust="spacing" textLength="77" x="775" y="470.6328">administers</text><text fill="#000000" font-family="sans-serif" font-size="13" lengthAdjust="spacing" textLength="23" x="715.1135" y="489.3057">1..*</text><text fill="#000000" font-family="sans-serif" font-size="13" lengthAdjust="spacing" textLength="7" x="888.0606" y="487.3121">*</text></g><!--MD5=[9c838218c931b2367de41d26315e4de2]
link ACES to HealthcareCenter--><g id="link_ACES_HealthcareCenter"><path codeLine="87" d="M359.29,411.0959 C404.82,422.4259 486.59,442.7659 547.73,457.9659 " fill="none" id="ACES-HealthcareCenter" style="stroke:#181818;stroke-width:1.0;"/><polygon fill="#000000" points="452.3522,423.3392,444.2839,418.3039,442.8651,424.008,452.3522,423.3392" style="stroke:#000000;stroke-width:1.0;"/><text fill="#000000" font-family="sans-serif" font-size="13" lengthAdjust="spacing" textLength="34" x="456.5" y="426.6328">owns</text><text fill="#000000" font-family="sans-serif" font-size="13" lengthAdjust="spacing" textLength="8" x="367.0252" y="426.3318">1</text><text fill="#000000" font-family="sans-serif" font-size="13" lengthAdjust="spacing" textLength="23" x="516.8865" y="468.9987">1..*</text></g><!--MD5=[fa857053713b0be6454ddfc395ad942a]
link ARS to HealthcareCenter--><g id="link_ARS_HealthcareCenter"><path codeLine="88" d="M354.73,477.5659 C399.23,477.5659 484.66,477.5659 547.91,477.5659 " fill="none" id="ARS-HealthcareCenter" style="stroke:#181818;stroke-width:1.0;"/><polygon fill="#000000" points="452.5,469.1323,443.4549,466.1934,443.4549,472.0713,452.5,469.1323" style="stroke:#000000;stroke-width:1.0;"/><text fill="#000000" font-family="sans-serif" font-size="13" lengthAdjust="spacing" textLength="34" x="456.5" y="473.6328">owns</text><text fill="#000000" font-family="sans-serif" font-size="13" lengthAdjust="spacing" textLength="8" x="362.3272" y="491.288">1</text><text fill="#000000" font-family="sans-serif" font-size="13" lengthAdjust="spacing" textLength="23" x="517.082" y="490.2831">1..*</text></g><!--MD5=[19ab43ca298c1d9fd9821023da273d0e]
link Appointment to SNSUser--><g id="link_Appointment_SNSUser"><path codeLine="89" d="M689.77,373.1359 C812.12,348.3259 1085.26,292.9159 1205.62,268.5059 " fill="none" id="Appointment-SNSUser" style="stroke:#181818;stroke-width:1.0;"/><polygon fill="#000000" points="940.4002,286.1384,930.9514,285.0561,932.1198,290.8167,940.4002,286.1384" style="stroke:#000000;stroke-width:1.0;"/><text fill="#000000" font-family="sans-serif" font-size="13" lengthAdjust="spacing" textLength="85" x="944.5" y="291.6328">requested by</text><text fill="#000000" font-family="sans-serif" font-size="13" lengthAdjust="spacing" textLength="8" x="697.4325" y="384.6639">1</text><text fill="#000000" font-family="sans-serif" font-size="13" lengthAdjust="spacing" textLength="8" x="1189.8346" y="282.9273">1</text></g><!--MD5=[e30c801b3ac7b558e113223f2c8633df]
link Appointment to Receptionist--><g id="link_Appointment_Receptionist"><path codeLine="90" d="M689.56,396.0859 C748.68,407.3959 832.83,426.8559 857,449.5659 C886.51,477.2859 859.16,506.1759 887,535.5659 C896.07,545.1459 907.91,552.3859 920.07,557.8359 " fill="none" id="Appointment-Receptionist" style="stroke:#181818;stroke-width:1.0;"/><polygon fill="#000000" points="766.0929,405.0043,760.3769,397.4031,757.0007,402.2146,766.0929,405.0043" style="stroke:#000000;stroke-width:1.0;"/><text fill="#000000" font-family="sans-serif" font-size="13" lengthAdjust="spacing" textLength="85" x="771" y="406.6328">requested by</text><text fill="#000000" font-family="sans-serif" font-size="13" lengthAdjust="spacing" textLength="8" x="697.6111" y="410.3818">1</text><text fill="#000000" font-family="sans-serif" font-size="13" lengthAdjust="spacing" textLength="8" x="904.6203" y="568.9589">1</text></g><!--MD5=[21051870a2f63926e19d08a0f7a407b9]
link Role to Employee--><g id="link_Role_Employee"><path codeLine="91" d="M107.22,672.5659 C151.68,672.5659 217.17,672.5659 264.33,672.5659 " fill="none" id="Role-Employee" style="stroke:#181818;stroke-width:1.0;"/><polygon fill="#000000" points="155.5,664.1323,164.5451,667.0713,164.5451,661.1934,155.5,664.1323" style="stroke:#000000;stroke-width:1.0;"/><text fill="#000000" font-family="sans-serif" font-size="13" lengthAdjust="spacing" textLength="23" x="169.5" y="668.6328">has</text><text fill="#000000" font-family="sans-serif" font-size="13" lengthAdjust="spacing" textLength="8" x="114.8447" y="685.7254">1</text><text fill="#000000" font-family="sans-serif" font-size="13" lengthAdjust="spacing" textLength="7" x="249.6312" y="685.5683">*</text></g><!--MD5=[09366576ee87d48d594df10cacc83f45]
link Company to Employee--><g id="link_Company_Employee"><path codeLine="92" d="M57.16,306.6859 C56.87,366.6859 64.45,508.7159 137,593.5659 C169.38,631.4259 223.06,651.5959 264.46,662.0459 " fill="none" id="Company-Employee" style="stroke:#181818;stroke-width:1.0;"/><polygon fill="#000000" points="150.0194,589.4512,148.0003,580.1574,142.9232,583.1192,150.0194,589.4512" style="stroke:#000000;stroke-width:1.0;"/><text fill="#000000" font-family="sans-serif" font-size="13" lengthAdjust="spacing" textLength="49" x="156.5" y="589.6328">employ</text><text fill="#000000" font-family="sans-serif" font-size="13" lengthAdjust="spacing" textLength="8" x="48.272" y="326.971">1</text><text fill="#000000" font-family="sans-serif" font-size="13" lengthAdjust="spacing" textLength="7" x="249.383" y="656.8265">*</text></g><!--MD5=[7690a4971bd8576b261a40a0340b8203]
link Receptionist to SNSUser--><g id="link_Receptionist_SNSUser"><path codeLine="93" d="M1040.82,554.7259 C1052.45,549.5459 1064.1,543.1959 1074,535.5659 C1140.42,484.3559 1192.08,403.3059 1224.74,341.7259 " fill="none" id="Receptionist-SNSUser" style="stroke:#181818;stroke-width:1.0;"/><polygon fill="#000000" points="1112.2677,414.3479,1104.1319,419.2732,1108.5808,423.1147,1112.2677,414.3479" style="stroke:#000000;stroke-width:1.0;"/><text fill="#000000" font-family="sans-serif" font-size="13" lengthAdjust="spacing" textLength="57" x="1118" y="422.6328">registers</text><text fill="#000000" font-family="sans-serif" font-size="13" lengthAdjust="spacing" textLength="8" x="1048.659" y="565.4188">1</text><text fill="#000000" font-family="sans-serif" font-size="13" lengthAdjust="spacing" textLength="7" x="1213.7981" y="362.0346">*</text></g><!--MD5=[c1efdb5e3f06b8db70b04d67af163a65]
@startuml
hide methods
left to right direction
skinparam classAttributeIconSize 0

class Company {
 -designation
}

class SNSUser {
-name
-address
-sex
-phoneNumber
-email
-birthDate
-snsNumber
-citizenCard
}

class Appointment{
-date
-time
}

class DaySchedule{
-openingHour
-closingHour
}

class Slot{
-numberOfVaccinesSlots
-duration
}

class SMSNotification {
}

class VaccineType {
  -code
  -description
  -vaccineTechnology
}

class VaccinationCenter{
-name
-address
-phoneNumber
-emailAdress
-faxNumber
-websiteAddress
}

class Receptionist extends Employee{}

class Employee {
-name
-emailAdress
-employeeId
-address
-phoneNumber
-ccNumber
}

class Role{
-designation
-roleId
}

class MassVaccinationCenter extends VaccinationCenter{}

class HealthcareCenter extends VaccinationCenter{}

class ARS{}

class ACES{}

Company "1" - - "*" VaccineType: applies >
Company "1" - - "*" VaccinationCenter: manages >
VaccinationCenter "1..*"  - - "1" DaySchedule: has >
DaySchedule "1*" - - "1..*" Slot: has >
VaccinationCenter"1" - - "*"Appointment: knows >
Company "1" - - "*" SMSNotification: sends >
SNSUser "1" - - "*" SMSNotification: receives >
Company "1" - - "*" SNSUser: knows >
MassVaccinationCenter "*" - - "1" VaccineType : administers >
HealthcareCenter "1..*" - - "*" VaccineType : administers >
ACES"1" - - "1..*" HealthcareCenter :owns >
ARS"1" - - "1..*" HealthcareCenter : owns >
Appointment "1"- -"1" SNSUser : requested by >
Appointment "1"- -"1" Receptionist : requested by >
Role"1" - - "*"Employee : has <
Company "1" - -"*" Employee : employ >
Receptionist "1" - - "*" SNSUser : registers >

@enduml

PlantUML version 1.2022.5(Sat Apr 30 11:55:52 WEST 2022)
(GPL source distribution)
Java Runtime: OpenJDK Runtime Environment
JVM: OpenJDK 64-Bit Server VM
Default Encoding: UTF-8
Language: en
Country: US
--></g></svg>