<?xml version="1.0" encoding="UTF-8" standalone="no"?><svg xmlns="http://www.w3.org/2000/svg" xmlns:xlink="http://www.w3.org/1999/xlink" contentStyleType="text/css" height="497px" preserveAspectRatio="none" style="width:1176px;height:497px;background:#FFFFFF;" version="1.1" viewBox="0 0 1176 497" width="1176px" zoomAndPan="magnify"><defs/><g><rect fill="#FFFFFF" height="352.5547" style="stroke:#181818;stroke-width:1.0;" width="10" x="503" y="77.4297"/><rect fill="#FFFFFF" height="28" style="stroke:#181818;stroke-width:1.0;" width="10" x="508" y="294.5547"/><rect fill="#FFFFFF" height="30" style="stroke:#181818;stroke-width:1.0;" width="10" x="1069.5" y="179.1563"/><rect fill="#FFFFFF" height="30" style="stroke:#181818;stroke-width:1.0;" width="10" x="1069.5" y="399.9844"/><rect height="220.8281" style="stroke:#000000;stroke-width:1.5;fill:none;" width="747.5" x="422.5" y="224.1563"/><rect height="189.6953" style="stroke:#000000;stroke-width:1.5;fill:none;" width="727.5" x="432.5" y="248.2891"/><line style="stroke:#181818;stroke-width:0.5;fill:none;stroke-dasharray:5.0,5.0;" x1="507.5" x2="507.5" y1="36.2969" y2="461.9844"/><line style="stroke:#181818;stroke-width:0.5;fill:none;stroke-dasharray:5.0,5.0;" x1="958" x2="958" y1="368.2031" y2="461.9844"/><line style="stroke:#181818;stroke-width:0.5;fill:none;stroke-dasharray:5.0,5.0;" x1="1074" x2="1074" y1="106.0781" y2="461.9844"/><rect fill="#E2E2F0" height="30.2969" rx="2.5" ry="2.5" style="stroke:#181818;stroke-width:0.5;" width="131" x="442.5" y="5"/><text fill="#000000" font-family="sans-serif" font-size="14" lengthAdjust="spacing" textLength="117" x="449.5" y="24.9951">lSL: DailySlotList</text><rect fill="#E2E2F0" height="30.2969" rx="2.5" ry="2.5" style="stroke:#181818;stroke-width:0.5;" width="131" x="442.5" y="460.9844"/><text fill="#000000" font-family="sans-serif" font-size="14" lengthAdjust="spacing" textLength="117" x="449.5" y="480.9795">lSL: DailySlotList</text><rect fill="#E2E2F0" height="30.2969" rx="2.5" ry="2.5" style="stroke:#181818;stroke-width:0.5;" width="61" x="928" y="460.9844"/><text fill="#000000" font-family="sans-serif" font-size="14" lengthAdjust="spacing" textLength="47" x="935" y="480.9795">sl: Slot</text><rect fill="#E2E2F0" height="30.2969" rx="2.5" ry="2.5" style="stroke:#181818;stroke-width:0.5;" width="151" x="999" y="460.9844"/><text fill="#000000" font-family="sans-serif" font-size="14" lengthAdjust="spacing" textLength="137" x="1006" y="480.9795">slotList : List&lt;Slot&gt;</text><rect fill="#FFFFFF" height="352.5547" style="stroke:#181818;stroke-width:1.0;" width="10" x="503" y="77.4297"/><rect fill="#FFFFFF" height="28" style="stroke:#181818;stroke-width:1.0;" width="10" x="508" y="294.5547"/><rect fill="#FFFFFF" height="30" style="stroke:#181818;stroke-width:1.0;" width="10" x="1069.5" y="179.1563"/><rect fill="#FFFFFF" height="30" style="stroke:#181818;stroke-width:1.0;" width="10" x="1069.5" y="399.9844"/><ellipse cx="7.5" cy="66.6797" fill="none" rx="4" ry="4" style="stroke:#181818;stroke-width:1.5;"/><polygon fill="#181818" points="496,63.4297,506,67.4297,496,71.4297,500,67.4297" style="stroke:#181818;stroke-width:1.0;"/><line style="stroke:#181818;stroke-width:1.0;stroke-dasharray:2.0,2.0;" x1="12" x2="502" y1="67.4297" y2="67.4297"/><text fill="#000000" font-family="sans-serif" font-size="13" font-weight="bold" lengthAdjust="spacing" textLength="9" x="15" y="62.3638">1</text><text fill="#000000" font-family="sans-serif" font-size="13" lengthAdjust="spacing" textLength="463" x="28" y="62.3638">create(openingHour, closingHour, slotDuration, numberOfVaccinesSlot)</text><polygon fill="#181818" points="987,92.5625,997,96.5625,987,100.5625,991,96.5625" style="stroke:#181818;stroke-width:1.0;"/><line style="stroke:#181818;stroke-width:1.0;stroke-dasharray:2.0,2.0;" x1="513" x2="993" y1="96.5625" y2="96.5625"/><text fill="#000000" font-family="sans-serif" font-size="13" font-weight="bold" lengthAdjust="spacing" textLength="9" x="520" y="91.4966">2</text><text fill="#000000" font-family="sans-serif" font-size="13" lengthAdjust="spacing" textLength="51" x="533" y="91.4966">create()</text><rect fill="#E2E2F0" height="30.2969" rx="2.5" ry="2.5" style="stroke:#181818;stroke-width:0.5;" width="151" x="999" y="75.4297"/><text fill="#000000" font-family="sans-serif" font-size="14" lengthAdjust="spacing" textLength="137" x="1006" y="95.4248">slotList : List&lt;Slot&gt;</text><polygon fill="#181818" points="916,133.8594,926,137.8594,916,141.8594,920,137.8594" style="stroke:#181818;stroke-width:1.0;"/><line style="stroke:#181818;stroke-width:1.0;stroke-dasharray:2.0,2.0;" x1="513" x2="922" y1="137.8594" y2="137.8594"/><text fill="#000000" font-family="sans-serif" font-size="13" font-weight="bold" lengthAdjust="spacing" textLength="9" x="520" y="132.7935">3</text><text fill="#000000" font-family="sans-serif" font-size="13" lengthAdjust="spacing" textLength="378" x="533" y="132.7935">create(openingHour, slotDuration, numberOfVaccinesSlot)</text><rect fill="#E2E2F0" height="30.2969" rx="2.5" ry="2.5" style="stroke:#181818;stroke-width:0.5;" width="61" x="928" y="116.7266"/><text fill="#000000" font-family="sans-serif" font-size="14" lengthAdjust="spacing" textLength="47" x="935" y="136.7217">sl: Slot</text><polygon fill="#181818" points="1057.5,175.1563,1067.5,179.1563,1057.5,183.1563,1061.5,179.1563" style="stroke:#181818;stroke-width:1.0;"/><line style="stroke:#181818;stroke-width:1.0;" x1="513" x2="1063.5" y1="179.1563" y2="179.1563"/><text fill="#000000" font-family="sans-serif" font-size="13" font-weight="bold" lengthAdjust="spacing" textLength="9" x="520" y="174.0903">4</text><text fill="#000000" font-family="sans-serif" font-size="13" lengthAdjust="spacing" textLength="70" x="533" y="174.0903">addSlot(sl)</text><path d="M422.5,224.1563 L498.5,224.1563 L498.5,231.2891 L488.5,241.2891 L422.5,241.2891 L422.5,224.1563 " fill="#EEEEEE" style="stroke:#000000;stroke-width:1.5;"/><rect fill="none" height="220.8281" style="stroke:#000000;stroke-width:1.5;" width="747.5" x="422.5" y="224.1563"/><text fill="#000000" font-family="sans-serif" font-size="13" font-weight="bold" lengthAdjust="spacing" textLength="31" x="437.5" y="237.2231">loop</text><text fill="#000000" font-family="sans-serif" font-size="11" font-weight="bold" lengthAdjust="spacing" textLength="131" x="513.5" y="236.3667">[populating Slot list]</text><path d="M432.5,248.2891 L496.5,248.2891 L496.5,255.4219 L486.5,265.4219 L432.5,265.4219 L432.5,248.2891 " fill="#EEEEEE" style="stroke:#000000;stroke-width:1.5;"/><rect fill="none" height="189.6953" style="stroke:#000000;stroke-width:1.5;" width="727.5" x="432.5" y="248.2891"/><text fill="#000000" font-family="sans-serif" font-size="13" font-weight="bold" lengthAdjust="spacing" textLength="19" x="447.5" y="261.356">alt</text><text fill="#000000" font-family="sans-serif" font-size="11" font-weight="bold" lengthAdjust="spacing" textLength="176" x="511.5" y="260.4995">[If startTime&gt;=closingHour]</text><line style="stroke:#181818;stroke-width:1.0;" x1="518" x2="560" y1="286.5547" y2="286.5547"/><line style="stroke:#181818;stroke-width:1.0;" x1="560" x2="560" y1="286.5547" y2="299.5547"/><line style="stroke:#181818;stroke-width:1.0;" x1="519" x2="560" y1="299.5547" y2="299.5547"/><polygon fill="#181818" points="529,295.5547,519,299.5547,529,303.5547,525,299.5547" style="stroke:#181818;stroke-width:1.0;"/><text fill="#000000" font-family="sans-serif" font-size="13" font-weight="bold" lengthAdjust="spacing" textLength="9" x="525" y="281.4888">5</text><text fill="#000000" font-family="sans-serif" font-size="13" lengthAdjust="spacing" textLength="282" x="538" y="281.4888">startTime = calculateNextSlotStartTime(sl)</text><polygon fill="#181818" points="916,354.6875,926,358.6875,916,362.6875,920,358.6875" style="stroke:#181818;stroke-width:1.0;"/><line style="stroke:#181818;stroke-width:1.0;stroke-dasharray:2.0,2.0;" x1="513" x2="922" y1="358.6875" y2="358.6875"/><text fill="#000000" font-family="sans-serif" font-size="13" font-weight="bold" lengthAdjust="spacing" textLength="9" x="520" y="353.6216">6</text><text fill="#000000" font-family="sans-serif" font-size="13" lengthAdjust="spacing" textLength="358" x="533" y="353.6216">create(startTime, slotDuration, numberOfVaccinesSlot)</text><rect fill="#E2E2F0" height="30.2969" rx="2.5" ry="2.5" style="stroke:#181818;stroke-width:0.5;" width="61" x="928" y="337.5547"/><text fill="#000000" font-family="sans-serif" font-size="14" lengthAdjust="spacing" textLength="47" x="935" y="357.5498">sl: Slot</text><polygon fill="#181818" points="1057.5,395.9844,1067.5,399.9844,1057.5,403.9844,1061.5,399.9844" style="stroke:#181818;stroke-width:1.0;"/><line style="stroke:#181818;stroke-width:1.0;" x1="513" x2="1063.5" y1="399.9844" y2="399.9844"/><text fill="#000000" font-family="sans-serif" font-size="13" font-weight="bold" lengthAdjust="spacing" textLength="9" x="520" y="394.9185">7</text><text fill="#000000" font-family="sans-serif" font-size="13" lengthAdjust="spacing" textLength="70" x="533" y="394.9185">addSlot(sl)</text><!--MD5=[f8d43b5cb7ff8c06e9c8ae4804d8f48b]
@startuml

autonumber
participant "lSL: DailySlotList" as LIST_SL
participant "sl: Slot" as SL
participant "slotList : List<Slot>" as SLOT_LIST

[o- -> LIST_SL**: create(openingHour, closingHour, slotDuration, numberOfVaccinesSlot)

activate LIST_SL
LIST_SL - -> SLOT_LIST**:create()
LIST_SL - -> SL**: create(openingHour, slotDuration, numberOfVaccinesSlot)
LIST_SL -> SLOT_LIST: addSlot(sl)
activate SLOT_LIST
deactivate SLOT_LIST
loop populating Slot list
alt If startTime>=closingHour
LIST_SL -> LIST_SL: startTime = calculateNextSlotStartTime(sl)
activate LIST_SL
deactivate LIST_SL
LIST_SL - -> SL**: create(startTime, slotDuration, numberOfVaccinesSlot)
LIST_SL -> SLOT_LIST: addSlot(sl)
activate SLOT_LIST
deactivate SLOT_LIST
deactivate LIST_SL
end
end loop
@enduml

PlantUML version 1.2022.4(Sat Apr 09 14:29:17 WEST 2022)
(GPL source distribution)
Java Runtime: OpenJDK Runtime Environment
JVM: OpenJDK 64-Bit Server VM
Default Encoding: UTF-8
Language: en
Country: US
--></g></svg>