<?xml version="1.0" encoding="UTF-8" standalone="no"?><svg xmlns="http://www.w3.org/2000/svg" xmlns:xlink="http://www.w3.org/1999/xlink" contentStyleType="text/css" height="1279px" preserveAspectRatio="none" style="width:2602px;height:1279px;background:#FFFFFF;" version="1.1" viewBox="0 0 2602 1279" width="2602px" zoomAndPan="magnify"><defs/><g><rect fill="#FFFFFF" height="1095.8984" style="stroke:#181818;stroke-width:1.0;" width="10" x="42" y="92.6094"/><rect fill="#FFFFFF" height="30.3516" style="stroke:#181818;stroke-width:1.0;" width="10" x="643" y="114.9609"/><rect fill="#FFFFFF" height="671.0313" style="stroke:#181818;stroke-width:1.0;" width="10" x="643" y="175.6641"/><rect fill="#FFFFFF" height="302.4609" style="stroke:#181818;stroke-width:1.0;" width="10" x="643" y="877.0469"/><rect fill="#FFFFFF" height="610.3281" style="stroke:#181818;stroke-width:1.0;" width="10" x="1001" y="206.0156"/><rect fill="#FFFFFF" height="241.7578" style="stroke:#181818;stroke-width:1.0;" width="10" x="1001" y="907.3984"/><rect fill="#FFFFFF" height="30" style="stroke:#181818;stroke-width:1.0;" width="10" x="1235" y="236.3672"/><rect fill="#FFFFFF" height="123.4063" style="stroke:#181818;stroke-width:1.0;" width="10" x="1387.5" y="296.7188"/><rect fill="#FFFFFF" height="123.4063" style="stroke:#181818;stroke-width:1.0;" width="10" x="1387.5" y="296.7188"/><rect fill="#FFFFFF" height="30.3516" style="stroke:#181818;stroke-width:1.0;" width="10" x="1608.5" y="352.4219"/><rect fill="#FFFFFF" height="258.7188" style="stroke:#181818;stroke-width:1.0;" width="10" x="1608.5" y="450.4766"/><rect fill="#FFFFFF" height="30" style="stroke:#181818;stroke-width:1.0;" width="10" x="1608.5" y="937.75"/><rect fill="#FFFFFF" height="76.7969" style="stroke:#181818;stroke-width:1.0;" width="10" x="1755.5" y="739.5469"/><rect fill="#FFFFFF" height="30" style="stroke:#181818;stroke-width:1.0;" width="10" x="1886.5" y="1058.8047"/><rect fill="#FFFFFF" height="30" style="stroke:#181818;stroke-width:1.0;" width="10" x="1886.5" y="1119.1563"/><rect fill="#FFFFFF" height="198.0156" style="stroke:#181818;stroke-width:1.0;" width="10" x="2122.5" y="480.8281"/><rect fill="#FFFFFF" height="30.3516" style="stroke:#181818;stroke-width:1.0;" width="10" x="2122.5" y="998.1016"/><rect fill="#FFFFFF" height="30" style="stroke:#181818;stroke-width:1.0;" width="10" x="2440.5" y="604.4922"/><rect height="79.0547" style="stroke:#000000;stroke-width:1.5;fill:none;" width="515" x="1279" y="311.7188"/><rect height="111.0547" style="stroke:#000000;stroke-width:1.5;fill:none;" width="666" x="1930" y="538.4375"/><rect height="78.7031" style="stroke:#000000;stroke-width:1.5;fill:none;" width="646" x="1940" y="563.7891"/><line style="stroke:#181818;stroke-width:0.5;fill:none;stroke-dasharray:5.0,5.0;" x1="47" x2="47" y1="82.6094" y2="1197.5078"/><line style="stroke:#181818;stroke-width:0.5;fill:none;stroke-dasharray:5.0,5.0;" x1="647.5" x2="647.5" y1="82.6094" y2="1197.5078"/><line style="stroke:#181818;stroke-width:0.5;fill:none;stroke-dasharray:5.0,5.0;" x1="1005.5" x2="1005.5" y1="82.6094" y2="1197.5078"/><line style="stroke:#181818;stroke-width:0.5;fill:none;stroke-dasharray:5.0,5.0;" x1="1240" x2="1240" y1="82.6094" y2="1197.5078"/><line style="stroke:#181818;stroke-width:0.5;fill:none;stroke-dasharray:5.0,5.0;" x1="1387" x2="1387" y1="82.6094" y2="1197.5078"/><line style="stroke:#181818;stroke-width:0.5;fill:none;stroke-dasharray:5.0,5.0;" x1="1613" x2="1613" y1="82.6094" y2="1197.5078"/><line style="stroke:#181818;stroke-width:0.5;fill:none;stroke-dasharray:5.0,5.0;" x1="1760" x2="1760" y1="82.6094" y2="1197.5078"/><line style="stroke:#181818;stroke-width:0.5;fill:none;stroke-dasharray:5.0,5.0;" x1="1891" x2="1891" y1="82.6094" y2="1197.5078"/><line style="stroke:#181818;stroke-width:0.5;fill:none;stroke-dasharray:5.0,5.0;" x1="2127" x2="2127" y1="82.6094" y2="1197.5078"/><line style="stroke:#181818;stroke-width:0.5;fill:none;stroke-dasharray:5.0,5.0;" x1="2445" x2="2445" y1="520.1328" y2="1197.5078"/><text fill="#000000" font-family="sans-serif" font-size="14" lengthAdjust="spacing" textLength="78" x="5" y="79.5332">Receptionist</text><ellipse cx="47" cy="13.5" fill="#E2E2F0" rx="8" ry="8" style="stroke:#181818;stroke-width:0.5;"/><path d="M47,21.5 L47,48.5 M34,29.5 L60,29.5 M47,48.5 L34,63.5 M47,48.5 L60,63.5 " fill="none" style="stroke:#181818;stroke-width:0.5;"/><text fill="#000000" font-family="sans-serif" font-size="14" lengthAdjust="spacing" textLength="78" x="5" y="1211.041">Receptionist</text><ellipse cx="47" cy="1222.6172" fill="#E2E2F0" rx="8" ry="8" style="stroke:#181818;stroke-width:0.5;"/><path d="M47,1230.6172 L47,1257.6172 M34,1238.6172 L60,1238.6172 M47,1257.6172 L34,1272.6172 M47,1257.6172 L60,1272.6172 " fill="none" style="stroke:#181818;stroke-width:0.5;"/><rect fill="#E2E2F0" height="31.6094" rx="2.5" ry="2.5" style="stroke:#181818;stroke-width:0.5;" width="179" x="558.5" y="50"/><text fill="#000000" font-family="sans-serif" font-size="14" lengthAdjust="spacing" textLength="165" x="565.5" y="71.5332">:RegisterSNSUserArrivalUI</text><rect fill="#E2E2F0" height="31.6094" rx="2.5" ry="2.5" style="stroke:#181818;stroke-width:0.5;" width="179" x="558.5" y="1196.5078"/><text fill="#000000" font-family="sans-serif" font-size="14" lengthAdjust="spacing" textLength="165" x="565.5" y="1218.041">:RegisterSNSUserArrivalUI</text><rect fill="#E2E2F0" height="31.6094" rx="2.5" ry="2.5" style="stroke:#181818;stroke-width:0.5;" width="229" x="891.5" y="50"/><text fill="#000000" font-family="sans-serif" font-size="14" lengthAdjust="spacing" textLength="215" x="898.5" y="71.5332">:RegisterSNSUserArrivalController</text><rect fill="#E2E2F0" height="31.6094" rx="2.5" ry="2.5" style="stroke:#181818;stroke-width:0.5;" width="229" x="891.5" y="1196.5078"/><text fill="#000000" font-family="sans-serif" font-size="14" lengthAdjust="spacing" textLength="215" x="898.5" y="1218.041">:RegisterSNSUserArrivalController</text><rect fill="#E2E2F0" height="31.6094" rx="2.5" ry="2.5" style="stroke:#181818;stroke-width:0.5;" width="78" x="1201" y="50"/><text fill="#000000" font-family="sans-serif" font-size="14" lengthAdjust="spacing" textLength="64" x="1208" y="71.5332">:Company</text><rect fill="#E2E2F0" height="31.6094" rx="2.5" ry="2.5" style="stroke:#181818;stroke-width:0.5;" width="78" x="1201" y="1196.5078"/><text fill="#000000" font-family="sans-serif" font-size="14" lengthAdjust="spacing" textLength="64" x="1208" y="1218.041">:Company</text><rect fill="#E2E2F0" height="31.6094" rx="2.5" ry="2.5" style="stroke:#181818;stroke-width:0.5;" width="197" x="1289" y="50"/><text fill="#000000" font-family="sans-serif" font-size="14" lengthAdjust="spacing" textLength="183" x="1296" y="71.5332">snsUserStore: SNSUserStore</text><rect fill="#E2E2F0" height="31.6094" rx="2.5" ry="2.5" style="stroke:#181818;stroke-width:0.5;" width="197" x="1289" y="1196.5078"/><text fill="#000000" font-family="sans-serif" font-size="14" lengthAdjust="spacing" textLength="183" x="1296" y="1218.041">snsUserStore: SNSUserStore</text><rect fill="#E2E2F0" height="31.6094" rx="2.5" ry="2.5" style="stroke:#181818;stroke-width:0.5;" width="129" x="1549" y="50"/><text fill="#000000" font-family="sans-serif" font-size="14" lengthAdjust="spacing" textLength="115" x="1556" y="71.5332">snsUser: SNSUser</text><rect fill="#E2E2F0" height="31.6094" rx="2.5" ry="2.5" style="stroke:#181818;stroke-width:0.5;" width="129" x="1549" y="1196.5078"/><text fill="#000000" font-family="sans-serif" font-size="14" lengthAdjust="spacing" textLength="115" x="1556" y="1218.041">snsUser: SNSUser</text><rect fill="#E2E2F0" height="31.6094" rx="2.5" ry="2.5" style="stroke:#181818;stroke-width:0.5;" width="145" x="1688" y="50"/><text fill="#000000" font-family="sans-serif" font-size="14" lengthAdjust="spacing" textLength="131" x="1695" y="71.5332">:AppointmentMapper</text><rect fill="#E2E2F0" height="31.6094" rx="2.5" ry="2.5" style="stroke:#181818;stroke-width:0.5;" width="145" x="1688" y="1196.5078"/><text fill="#000000" font-family="sans-serif" font-size="14" lengthAdjust="spacing" textLength="131" x="1695" y="1218.041">:AppointmentMapper</text><rect fill="#E2E2F0" height="31.6094" rx="2.5" ry="2.5" style="stroke:#181818;stroke-width:0.5;" width="97" x="1843" y="50"/><text fill="#000000" font-family="sans-serif" font-size="14" lengthAdjust="spacing" textLength="83" x="1850" y="71.5332">:Appointment</text><rect fill="#E2E2F0" height="31.6094" rx="2.5" ry="2.5" style="stroke:#181818;stroke-width:0.5;" width="97" x="1843" y="1196.5078"/><text fill="#000000" font-family="sans-serif" font-size="14" lengthAdjust="spacing" textLength="83" x="1850" y="1218.041">:Appointment</text><rect fill="#E2E2F0" height="31.6094" rx="2.5" ry="2.5" style="stroke:#181818;stroke-width:0.5;" width="355" x="1950" y="50"/><text fill="#000000" font-family="sans-serif" font-size="14" lengthAdjust="spacing" textLength="341" x="1957" y="71.5332">snsUserAppointmentStore: SNSUserAppointmentStore</text><rect fill="#E2E2F0" height="31.6094" rx="2.5" ry="2.5" style="stroke:#181818;stroke-width:0.5;" width="355" x="1950" y="1196.5078"/><text fill="#000000" font-family="sans-serif" font-size="14" lengthAdjust="spacing" textLength="341" x="1957" y="1218.041">snsUserAppointmentStore: SNSUserAppointmentStore</text><rect fill="#E2E2F0" height="31.6094" rx="2.5" ry="2.5" style="stroke:#181818;stroke-width:0.5;" width="261" x="2315" y="1196.5078"/><text fill="#000000" font-family="sans-serif" font-size="14" lengthAdjust="spacing" textLength="247" x="2322" y="1218.041">lTodayAppointment :List&lt;Appointment&gt;</text><rect fill="#FFFFFF" height="1095.8984" style="stroke:#181818;stroke-width:1.0;" width="10" x="42" y="92.6094"/><rect fill="#FFFFFF" height="30.3516" style="stroke:#181818;stroke-width:1.0;" width="10" x="643" y="114.9609"/><rect fill="#FFFFFF" height="671.0313" style="stroke:#181818;stroke-width:1.0;" width="10" x="643" y="175.6641"/><rect fill="#FFFFFF" height="302.4609" style="stroke:#181818;stroke-width:1.0;" width="10" x="643" y="877.0469"/><rect fill="#FFFFFF" height="610.3281" style="stroke:#181818;stroke-width:1.0;" width="10" x="1001" y="206.0156"/><rect fill="#FFFFFF" height="241.7578" style="stroke:#181818;stroke-width:1.0;" width="10" x="1001" y="907.3984"/><rect fill="#FFFFFF" height="30" style="stroke:#181818;stroke-width:1.0;" width="10" x="1235" y="236.3672"/><rect fill="#FFFFFF" height="123.4063" style="stroke:#181818;stroke-width:1.0;" width="10" x="1387.5" y="296.7188"/><rect fill="#FFFFFF" height="123.4063" style="stroke:#181818;stroke-width:1.0;" width="10" x="1387.5" y="296.7188"/><rect fill="#FFFFFF" height="30.3516" style="stroke:#181818;stroke-width:1.0;" width="10" x="1608.5" y="352.4219"/><rect fill="#FFFFFF" height="258.7188" style="stroke:#181818;stroke-width:1.0;" width="10" x="1608.5" y="450.4766"/><rect fill="#FFFFFF" height="30" style="stroke:#181818;stroke-width:1.0;" width="10" x="1608.5" y="937.75"/><rect fill="#FFFFFF" height="76.7969" style="stroke:#181818;stroke-width:1.0;" width="10" x="1755.5" y="739.5469"/><rect fill="#FFFFFF" height="30" style="stroke:#181818;stroke-width:1.0;" width="10" x="1886.5" y="1058.8047"/><rect fill="#FFFFFF" height="30" style="stroke:#181818;stroke-width:1.0;" width="10" x="1886.5" y="1119.1563"/><rect fill="#FFFFFF" height="198.0156" style="stroke:#181818;stroke-width:1.0;" width="10" x="2122.5" y="480.8281"/><rect fill="#FFFFFF" height="30.3516" style="stroke:#181818;stroke-width:1.0;" width="10" x="2122.5" y="998.1016"/><rect fill="#FFFFFF" height="30" style="stroke:#181818;stroke-width:1.0;" width="10" x="2440.5" y="604.4922"/><polygon fill="#181818" points="631,110.9609,641,114.9609,631,118.9609,635,114.9609" style="stroke:#181818;stroke-width:1.0;"/><line style="stroke:#181818;stroke-width:1.0;" x1="52" x2="637" y1="114.9609" y2="114.9609"/><text fill="#000000" font-family="sans-serif" font-size="13" font-weight="bold" lengthAdjust="spacing" textLength="7" x="59" y="110.1045">1</text><text fill="#000000" font-family="sans-serif" font-size="13" lengthAdjust="spacing" textLength="354" x="70" y="110.1045">asks to register the arrival of an SNS user to take the vaccine</text><polygon fill="#181818" points="63,141.3125,53,145.3125,63,149.3125,59,145.3125" style="stroke:#181818;stroke-width:1.0;"/><line style="stroke:#181818;stroke-width:1.0;stroke-dasharray:2.0,2.0;" x1="57" x2="647" y1="145.3125" y2="145.3125"/><text fill="#000000" font-family="sans-serif" font-size="13" font-weight="bold" lengthAdjust="spacing" textLength="7" x="69" y="140.4561">2</text><text fill="#000000" font-family="sans-serif" font-size="13" lengthAdjust="spacing" textLength="179" x="80" y="140.4561">requests the SNS user number</text><polygon fill="#181818" points="631,171.6641,641,175.6641,631,179.6641,635,175.6641" style="stroke:#181818;stroke-width:1.0;"/><line style="stroke:#181818;stroke-width:1.0;" x1="52" x2="637" y1="175.6641" y2="175.6641"/><text fill="#000000" font-family="sans-serif" font-size="13" font-weight="bold" lengthAdjust="spacing" textLength="7" x="59" y="170.8076">3</text><text fill="#000000" font-family="sans-serif" font-size="13" lengthAdjust="spacing" textLength="122" x="70" y="170.8076">types requested data</text><polygon fill="#181818" points="989,202.0156,999,206.0156,989,210.0156,993,206.0156" style="stroke:#181818;stroke-width:1.0;"/><line style="stroke:#181818;stroke-width:1.0;" x1="653" x2="995" y1="206.0156" y2="206.0156"/><text fill="#000000" font-family="sans-serif" font-size="13" font-weight="bold" lengthAdjust="spacing" textLength="7" x="660" y="201.1592">4</text><text fill="#000000" font-family="sans-serif" font-size="13" lengthAdjust="spacing" textLength="318" x="671" y="201.1592">AppointmentDto = checkSNSAppointment(snsNumber)</text><polygon fill="#181818" points="1223,232.3672,1233,236.3672,1223,240.3672,1227,236.3672" style="stroke:#181818;stroke-width:1.0;"/><line style="stroke:#181818;stroke-width:1.0;" x1="1011" x2="1229" y1="236.3672" y2="236.3672"/><text fill="#000000" font-family="sans-serif" font-size="13" font-weight="bold" lengthAdjust="spacing" textLength="7" x="1018" y="231.5107">5</text><text fill="#000000" font-family="sans-serif" font-size="13" lengthAdjust="spacing" textLength="194" x="1029" y="231.5107">snsUserStore=getSnsUserStore()</text><polygon fill="#181818" points="1375.5,292.7188,1385.5,296.7188,1375.5,300.7188,1379.5,296.7188" style="stroke:#181818;stroke-width:1.0;"/><line style="stroke:#181818;stroke-width:1.0;" x1="1011" x2="1381.5" y1="296.7188" y2="296.7188"/><text fill="#000000" font-family="sans-serif" font-size="13" font-weight="bold" lengthAdjust="spacing" textLength="7" x="1018" y="291.8623">6</text><text fill="#000000" font-family="sans-serif" font-size="13" lengthAdjust="spacing" textLength="205" x="1029" y="291.8623">findSnsUserByNumber(snsNumber)</text><path d="M1279,311.7188 L1352,311.7188 L1352,320.0703 L1342,330.0703 L1279,330.0703 L1279,311.7188 " fill="#EEEEEE" style="stroke:#000000;stroke-width:1.5;"/><rect fill="none" height="79.0547" style="stroke:#000000;stroke-width:1.5;" width="515" x="1279" y="311.7188"/><text fill="#000000" font-family="sans-serif" font-size="13" font-weight="bold" lengthAdjust="spacing" textLength="28" x="1294" y="326.2139">loop</text><text fill="#000000" font-family="sans-serif" font-size="11" font-weight="bold" lengthAdjust="spacing" textLength="422" x="1367" y="325.1377">[For each user in SnsUserStore until checkUserNumber(snsNumber) is true]</text><polygon fill="#181818" points="1596.5,348.4219,1606.5,352.4219,1596.5,356.4219,1600.5,352.4219" style="stroke:#181818;stroke-width:1.0;"/><line style="stroke:#181818;stroke-width:1.0;" x1="1397.5" x2="1602.5" y1="352.4219" y2="352.4219"/><text fill="#000000" font-family="sans-serif" font-size="13" font-weight="bold" lengthAdjust="spacing" textLength="7" x="1404.5" y="347.5654">7</text><text fill="#000000" font-family="sans-serif" font-size="13" lengthAdjust="spacing" textLength="181" x="1415.5" y="347.5654">checkUserNumber(snsNumber)</text><polygon fill="#181818" points="1408.5,378.7734,1398.5,382.7734,1408.5,386.7734,1404.5,382.7734" style="stroke:#181818;stroke-width:1.0;"/><line style="stroke:#181818;stroke-width:1.0;stroke-dasharray:2.0,2.0;" x1="1402.5" x2="1612.5" y1="382.7734" y2="382.7734"/><text fill="#000000" font-family="sans-serif" font-size="13" font-weight="bold" lengthAdjust="spacing" textLength="7" x="1414.5" y="377.917">8</text><text fill="#000000" font-family="sans-serif" font-size="13" lengthAdjust="spacing" textLength="53" x="1425.5" y="377.917">true/false</text><polygon fill="#181818" points="1022,416.125,1012,420.125,1022,424.125,1018,420.125" style="stroke:#181818;stroke-width:1.0;"/><line style="stroke:#181818;stroke-width:1.0;stroke-dasharray:2.0,2.0;" x1="1016" x2="1386.5" y1="420.125" y2="420.125"/><text fill="#000000" font-family="sans-serif" font-size="13" font-weight="bold" lengthAdjust="spacing" textLength="7" x="1028" y="415.2686">9</text><text fill="#000000" font-family="sans-serif" font-size="13" lengthAdjust="spacing" textLength="48" x="1039" y="415.2686">snsUser</text><polygon fill="#181818" points="1596.5,446.4766,1606.5,450.4766,1596.5,454.4766,1600.5,450.4766" style="stroke:#181818;stroke-width:1.0;"/><line style="stroke:#181818;stroke-width:1.0;" x1="1011" x2="1602.5" y1="450.4766" y2="450.4766"/><text fill="#000000" font-family="sans-serif" font-size="13" font-weight="bold" lengthAdjust="spacing" textLength="14" x="1018" y="445.6201">10</text><text fill="#000000" font-family="sans-serif" font-size="13" lengthAdjust="spacing" textLength="134" x="1036" y="445.6201">getTodayAppointment()</text><polygon fill="#181818" points="2110.5,476.8281,2120.5,480.8281,2110.5,484.8281,2114.5,480.8281" style="stroke:#181818;stroke-width:1.0;"/><line style="stroke:#181818;stroke-width:1.0;" x1="1618.5" x2="2116.5" y1="480.8281" y2="480.8281"/><text fill="#000000" font-family="sans-serif" font-size="13" font-weight="bold" lengthAdjust="spacing" textLength="14" x="1625.5" y="475.9717">11</text><text fill="#000000" font-family="sans-serif" font-size="13" lengthAdjust="spacing" textLength="134" x="1643.5" y="475.9717">getTodayAppointment()</text><polygon fill="#181818" points="2303,507.1797,2313,511.1797,2303,515.1797,2307,511.1797" style="stroke:#181818;stroke-width:1.0;"/><line style="stroke:#181818;stroke-width:1.0;stroke-dasharray:2.0,2.0;" x1="2132.5" x2="2309" y1="511.1797" y2="511.1797"/><text fill="#000000" font-family="sans-serif" font-size="13" font-weight="bold" lengthAdjust="spacing" textLength="14" x="2139.5" y="506.3232">12</text><text fill="#000000" font-family="sans-serif" font-size="13" lengthAdjust="spacing" textLength="44" x="2157.5" y="506.3232">create()</text><rect fill="#E2E2F0" height="31.6094" rx="2.5" ry="2.5" style="stroke:#181818;stroke-width:0.5;" width="261" x="2315" y="488.8281"/><text fill="#000000" font-family="sans-serif" font-size="14" lengthAdjust="spacing" textLength="247" x="2322" y="510.3613">lTodayAppointment :List&lt;Appointment&gt;</text><path d="M1930,538.4375 L2003,538.4375 L2003,546.7891 L1993,556.7891 L1930,556.7891 L1930,538.4375 " fill="#EEEEEE" style="stroke:#000000;stroke-width:1.5;"/><rect fill="none" height="111.0547" style="stroke:#000000;stroke-width:1.5;" width="666" x="1930" y="538.4375"/><text fill="#000000" font-family="sans-serif" font-size="13" font-weight="bold" lengthAdjust="spacing" textLength="28" x="1945" y="552.9326">loop</text><text fill="#000000" font-family="sans-serif" font-size="11" font-weight="bold" lengthAdjust="spacing" textLength="291" x="2018" y="551.8564">[for each appointment in snsUserAppointmentStore]</text><path d="M1940,563.7891 L2005,563.7891 L2005,572.1406 L1995,582.1406 L1940,582.1406 L1940,563.7891 " fill="#EEEEEE" style="stroke:#000000;stroke-width:1.5;"/><rect fill="none" height="78.7031" style="stroke:#000000;stroke-width:1.5;" width="646" x="1940" y="563.7891"/><text fill="#000000" font-family="sans-serif" font-size="13" font-weight="bold" lengthAdjust="spacing" textLength="20" x="1955" y="578.2842">opt</text><text fill="#000000" font-family="sans-serif" font-size="11" font-weight="bold" lengthAdjust="spacing" textLength="276" x="2020" y="577.208">[if checkStateToDo==true and checkIfToday==true]</text><polygon fill="#181818" points="2428.5,600.4922,2438.5,604.4922,2428.5,608.4922,2432.5,604.4922" style="stroke:#181818;stroke-width:1.0;"/><line style="stroke:#181818;stroke-width:1.0;" x1="2132.5" x2="2434.5" y1="604.4922" y2="604.4922"/><text fill="#000000" font-family="sans-serif" font-size="13" font-weight="bold" lengthAdjust="spacing" textLength="14" x="2139.5" y="599.6357">13</text><text fill="#000000" font-family="sans-serif" font-size="13" lengthAdjust="spacing" textLength="100" x="2157.5" y="599.6357">add(appointment)</text><polygon fill="#181818" points="1629.5,674.8438,1619.5,678.8438,1629.5,682.8438,1625.5,678.8438" style="stroke:#181818;stroke-width:1.0;"/><line style="stroke:#181818;stroke-width:1.0;stroke-dasharray:2.0,2.0;" x1="1623.5" x2="2126.5" y1="678.8438" y2="678.8438"/><text fill="#000000" font-family="sans-serif" font-size="13" font-weight="bold" lengthAdjust="spacing" textLength="14" x="1635.5" y="673.9873">14</text><text fill="#000000" font-family="sans-serif" font-size="13" lengthAdjust="spacing" textLength="111" x="1653.5" y="673.9873">lTodayAppointment</text><polygon fill="#181818" points="1022,705.1953,1012,709.1953,1022,713.1953,1018,709.1953" style="stroke:#181818;stroke-width:1.0;"/><line style="stroke:#181818;stroke-width:1.0;stroke-dasharray:2.0,2.0;" x1="1016" x2="1612.5" y1="709.1953" y2="709.1953"/><text fill="#000000" font-family="sans-serif" font-size="13" font-weight="bold" lengthAdjust="spacing" textLength="14" x="1028" y="704.3389">15</text><text fill="#000000" font-family="sans-serif" font-size="13" lengthAdjust="spacing" textLength="111" x="1046" y="704.3389">lTodayAppointment</text><polygon fill="#181818" points="1743.5,735.5469,1753.5,739.5469,1743.5,743.5469,1747.5,739.5469" style="stroke:#181818;stroke-width:1.0;"/><line style="stroke:#181818;stroke-width:1.0;" x1="1011" x2="1749.5" y1="739.5469" y2="739.5469"/><text fill="#000000" font-family="sans-serif" font-size="13" font-weight="bold" lengthAdjust="spacing" textLength="14" x="1018" y="734.6904">16</text><text fill="#000000" font-family="sans-serif" font-size="13" lengthAdjust="spacing" textLength="156" x="1036" y="734.6904">toDTO(lTodayAppointment)</text><a href="US004_SD_appointmentMapper_toDto.puml" target="_top" title="US004_SD_appointmentMapper_toDto.puml" xlink:actuate="onRequest" xlink:href="US004_SD_appointmentMapper_toDto.puml" xlink:show="new" xlink:title="US004_SD_appointmentMapper_toDto.puml" xlink:type="simple"><rect height="41.4453" style="stroke:#000000;stroke-width:1.5;fill:none;" width="223" x="1685" y="747.5469"/><path d="M1685,747.5469 L1747,747.5469 L1747,755.5469 L1737,765.5469 L1685,765.5469 L1685,747.5469 " fill="#EEEEEE" style="stroke:#000000;stroke-width:2.0;"/><text fill="#000000" font-family="sans-serif" font-size="13" font-weight="bold" lengthAdjust="spacing" textLength="17" x="1698" y="763.042">ref</text><text fill="#000000" font-family="sans-serif" font-size="12" lengthAdjust="spacing" textLength="215" x="1689" y="782.0039">US004_SD_appointmentMapper_toDto</text></a><polygon fill="#181818" points="1017,812.3438,1007,816.3438,1017,820.3438,1013,816.3438" style="stroke:#181818;stroke-width:1.0;"/><line style="stroke:#181818;stroke-width:1.0;stroke-dasharray:2.0,2.0;" x1="1011" x2="1759.5" y1="816.3438" y2="816.3438"/><text fill="#000000" font-family="sans-serif" font-size="13" font-weight="bold" lengthAdjust="spacing" textLength="14" x="1023" y="811.4873">17</text><text fill="#000000" font-family="sans-serif" font-size="13" lengthAdjust="spacing" textLength="96" x="1041" y="811.4873">lAppointmentDto</text><polygon fill="#181818" points="63,842.6953,53,846.6953,63,850.6953,59,846.6953" style="stroke:#181818;stroke-width:1.0;"/><line style="stroke:#181818;stroke-width:1.0;stroke-dasharray:2.0,2.0;" x1="57" x2="647" y1="846.6953" y2="846.6953"/><text fill="#000000" font-family="sans-serif" font-size="13" font-weight="bold" lengthAdjust="spacing" textLength="14" x="69" y="841.8389">18</text><text fill="#000000" font-family="sans-serif" font-size="13" lengthAdjust="spacing" textLength="549" x="87" y="841.8389">shows the SNS user appointments and asks to confirm the arrival of one of those appointments</text><polygon fill="#181818" points="631,873.0469,641,877.0469,631,881.0469,635,877.0469" style="stroke:#181818;stroke-width:1.0;"/><line style="stroke:#181818;stroke-width:1.0;" x1="52" x2="637" y1="877.0469" y2="877.0469"/><text fill="#000000" font-family="sans-serif" font-size="13" font-weight="bold" lengthAdjust="spacing" textLength="14" x="59" y="872.1904">19</text><text fill="#000000" font-family="sans-serif" font-size="13" lengthAdjust="spacing" textLength="139" x="77" y="872.1904">choose the appointment</text><polygon fill="#181818" points="989,903.3984,999,907.3984,989,911.3984,993,907.3984" style="stroke:#181818;stroke-width:1.0;"/><line style="stroke:#181818;stroke-width:1.0;" x1="653" x2="995" y1="907.3984" y2="907.3984"/><text fill="#000000" font-family="sans-serif" font-size="13" font-weight="bold" lengthAdjust="spacing" textLength="14" x="660" y="902.542">20</text><text fill="#000000" font-family="sans-serif" font-size="13" lengthAdjust="spacing" textLength="303" x="678" y="902.542">changeAppointmentStateToWaiting(appointmentDto)</text><polygon fill="#181818" points="1596.5,933.75,1606.5,937.75,1596.5,941.75,1600.5,937.75" style="stroke:#181818;stroke-width:1.0;"/><line style="stroke:#181818;stroke-width:1.0;" x1="1011" x2="1602.5" y1="937.75" y2="937.75"/><text fill="#000000" font-family="sans-serif" font-size="13" font-weight="bold" lengthAdjust="spacing" textLength="14" x="1018" y="932.8936">21</text><text fill="#000000" font-family="sans-serif" font-size="13" lengthAdjust="spacing" textLength="180" x="1036" y="932.8936">getSnsUserAppointmentStore()</text><polygon fill="#181818" points="2110.5,994.1016,2120.5,998.1016,2110.5,1002.1016,2114.5,998.1016" style="stroke:#181818;stroke-width:1.0;"/><line style="stroke:#181818;stroke-width:1.0;" x1="1011" x2="2116.5" y1="998.1016" y2="998.1016"/><text fill="#000000" font-family="sans-serif" font-size="13" font-weight="bold" lengthAdjust="spacing" textLength="14" x="1018" y="993.2451">22</text><text fill="#000000" font-family="sans-serif" font-size="13" lengthAdjust="spacing" textLength="192" x="1036" y="993.2451">findAppointment(appointmentDto)</text><polygon fill="#181818" points="1022,1024.4531,1012,1028.4531,1022,1032.4531,1018,1028.4531" style="stroke:#181818;stroke-width:1.0;"/><line style="stroke:#181818;stroke-width:1.0;stroke-dasharray:2.0,2.0;" x1="1016" x2="2126.5" y1="1028.4531" y2="1028.4531"/><text fill="#000000" font-family="sans-serif" font-size="13" font-weight="bold" lengthAdjust="spacing" textLength="14" x="1028" y="1023.5967">23</text><text fill="#000000" font-family="sans-serif" font-size="13" lengthAdjust="spacing" textLength="71" x="1046" y="1023.5967">appointment</text><polygon fill="#181818" points="1874.5,1054.8047,1884.5,1058.8047,1874.5,1062.8047,1878.5,1058.8047" style="stroke:#181818;stroke-width:1.0;"/><line style="stroke:#181818;stroke-width:1.0;" x1="1011" x2="1880.5" y1="1058.8047" y2="1058.8047"/><text fill="#000000" font-family="sans-serif" font-size="13" font-weight="bold" lengthAdjust="spacing" textLength="14" x="1018" y="1053.9482">24</text><text fill="#000000" font-family="sans-serif" font-size="13" lengthAdjust="spacing" textLength="101" x="1036" y="1053.9482">setStateWaiting()</text><polygon fill="#181818" points="1874.5,1115.1563,1884.5,1119.1563,1874.5,1123.1563,1878.5,1119.1563" style="stroke:#181818;stroke-width:1.0;"/><line style="stroke:#181818;stroke-width:1.0;" x1="1011" x2="1880.5" y1="1119.1563" y2="1119.1563"/><text fill="#000000" font-family="sans-serif" font-size="13" font-weight="bold" lengthAdjust="spacing" textLength="14" x="1018" y="1114.2998">25</text><text fill="#000000" font-family="sans-serif" font-size="13" lengthAdjust="spacing" textLength="232" x="1036" y="1114.2998">setSNSTimeOfArrival(SNSTimeOfArrival)</text><polygon fill="#181818" points="63,1175.5078,53,1179.5078,63,1183.5078,59,1179.5078" style="stroke:#181818;stroke-width:1.0;"/><line style="stroke:#181818;stroke-width:1.0;stroke-dasharray:2.0,2.0;" x1="57" x2="647" y1="1179.5078" y2="1179.5078"/><text fill="#000000" font-family="sans-serif" font-size="13" font-weight="bold" lengthAdjust="spacing" textLength="14" x="69" y="1174.6514">26</text><text fill="#000000" font-family="sans-serif" font-size="13" lengthAdjust="spacing" textLength="152" x="87" y="1174.6514">informs operation success</text><!--MD5=[1709e1ee3d08037eb0866faf547673c6]
@startuml
autonumber
'hide footbox
actor "Receptionist" as RECEP

participant ":RegisterSNSUserArrivalUI" as UI
participant ":RegisterSNSUserArrivalController" as CTRL
participant ":Company" as COMP
participant "snsUserStore: SNSUserStore" as SNSUSERSTORE
participant "snsUser: SNSUser" as SNSUSER
participant ":AppointmentMapper" as APPOINTMAPPER
participant ":Appointment" as APOINT
participant "snsUserAppointmentStore: SNSUserAppointmentStore" as SNSUSERAPPSTORE
participant "lTodayAppointment :List<Appointment>" as LAPPOINTMENT

activate RECEP
RECEP -> UI : asks to register the arrival of an SNS user to take the vaccine
activate UI

UI - -> RECEP : requests the SNS user number
deactivate UI

RECEP -> UI : types requested data
activate UI
UI -> CTRL : AppointmentDto = checkSNSAppointment(snsNumber)
activate CTRL
CTRL -> COMP : snsUserStore=getSnsUserStore()
activate COMP
deactivate COMP
CTRL -> SNSUSERSTORE : findSnsUserByNumber(snsNumber)
activate SNSUSERSTORE
activate SNSUSERSTORE
loop For each user in SnsUserStore until checkUserNumber(snsNumber) is true
SNSUSERSTORE-> SNSUSER:checkUserNumber(snsNumber)

activate SNSUSER
SNSUSER - -> SNSUSERSTORE:true/false

deactivate SNSUSER

end loop

SNSUSERSTORE- -> CTRL: snsUser
deactivate SNSUSERSTORE
deactivate SNSUSERSTORE
CTRL -> SNSUSER : getTodayAppointment()
deactivate COMP
activate SNSUSER
SNSUSER -> SNSUSERAPPSTORE : getTodayAppointment()
activate SNSUSERAPPSTORE
SNSUSERAPPSTORE- -> LAPPOINTMENT**: create()
loop for each appointment in snsUserAppointmentStore
opt if checkStateToDo==true and checkIfToday==true
SNSUSERAPPSTORE -> LAPPOINTMENT : add(appointment)
activate LAPPOINTMENT
deactivate LAPPOINTMENT
end
end loop
SNSUSERAPPSTORE - -> SNSUSER : lTodayAppointment
deactivate SNSUSERAPPSTORE
SNSUSER - -> CTRL : lTodayAppointment
deactivate SNSUSER
CTRL -> APPOINTMAPPER : toDTO(lTodayAppointment)
activate APPOINTMAPPER
ref over APPOINTMAPPER [[US004_SD_appointmentMapper_toDto.puml]] : US004_SD_appointmentMapper_toDto
APPOINTMAPPER - -> CTRL : lAppointmentDto
deactivate APPOINTMAPPER
deactivate CTRL
deactivate APOINT
UI - -> RECEP : shows the SNS user appointments and asks to confirm the arrival of one of those appointments
deactivate UI

RECEP -> UI : choose the appointment
activate UI
UI -> CTRL : changeAppointmentStateToWaiting(appointmentDto)
activate CTRL
CTRL -> SNSUSER : getSnsUserAppointmentStore()
activate SNSUSER
deactivate SNSUSER
CTRL -> SNSUSERAPPSTORE : findAppointment(appointmentDto)
activate SNSUSERAPPSTORE
SNSUSERAPPSTORE - -> CTRL : appointment
deactivate SNSUSERAPPSTORE
CTRL -> APOINT : setStateWaiting()
activate APOINT
deactivate APOINT
CTRL -> APOINT : setSNSTimeOfArrival(SNSTimeOfArrival)
activate APOINT
deactivate APOINT
deactivate CTRL
UI - -> RECEP : informs operation success
deactivate UI



@enduml

@startuml
autonumber
actor "Receptionist" as RECEP

participant ":RegisterSNSUserArrivalUI" as UI
participant ":RegisterSNSUserArrivalController" as CTRL
participant ":Company" as COMP
participant "snsUserStore: SNSUserStore" as SNSUSERSTORE
participant "snsUser: SNSUser" as SNSUSER
participant ":AppointmentMapper" as APPOINTMAPPER
participant ":Appointment" as APOINT
participant "snsUserAppointmentStore: SNSUserAppointmentStore" as SNSUSERAPPSTORE
participant "lTodayAppointment :List<Appointment>" as LAPPOINTMENT

activate RECEP
RECEP -> UI : asks to register the arrival of an SNS user to take the vaccine
activate UI

UI - -> RECEP : requests the SNS user number
deactivate UI

RECEP -> UI : types requested data
activate UI
UI -> CTRL : AppointmentDto = checkSNSAppointment(snsNumber)
activate CTRL
CTRL -> COMP : snsUserStore=getSnsUserStore()
activate COMP
deactivate COMP
CTRL -> SNSUSERSTORE : findSnsUserByNumber(snsNumber)
activate SNSUSERSTORE
activate SNSUSERSTORE
loop For each user in SnsUserStore until checkUserNumber(snsNumber) is true
SNSUSERSTORE-> SNSUSER:checkUserNumber(snsNumber)

activate SNSUSER
SNSUSER - -> SNSUSERSTORE:true/false

deactivate SNSUSER

end loop

SNSUSERSTORE- -> CTRL: snsUser
deactivate SNSUSERSTORE
deactivate SNSUSERSTORE
CTRL -> SNSUSER : getTodayAppointment()
deactivate COMP
activate SNSUSER
SNSUSER -> SNSUSERAPPSTORE : getTodayAppointment()
activate SNSUSERAPPSTORE
SNSUSERAPPSTORE- -> LAPPOINTMENT**: create()
loop for each appointment in snsUserAppointmentStore
opt if checkStateToDo==true and checkIfToday==true
SNSUSERAPPSTORE -> LAPPOINTMENT : add(appointment)
activate LAPPOINTMENT
deactivate LAPPOINTMENT
end
end loop
SNSUSERAPPSTORE - -> SNSUSER : lTodayAppointment
deactivate SNSUSERAPPSTORE
SNSUSER - -> CTRL : lTodayAppointment
deactivate SNSUSER
CTRL -> APPOINTMAPPER : toDTO(lTodayAppointment)
activate APPOINTMAPPER
ref over APPOINTMAPPER [[US004_SD_appointmentMapper_toDto.puml]] : US004_SD_appointmentMapper_toDto
APPOINTMAPPER - -> CTRL : lAppointmentDto
deactivate APPOINTMAPPER
deactivate CTRL
deactivate APOINT
UI - -> RECEP : shows the SNS user appointments and asks to confirm the arrival of one of those appointments
deactivate UI

RECEP -> UI : choose the appointment
activate UI
UI -> CTRL : changeAppointmentStateToWaiting(appointmentDto)
activate CTRL
CTRL -> SNSUSER : getSnsUserAppointmentStore()
activate SNSUSER
deactivate SNSUSER
CTRL -> SNSUSERAPPSTORE : findAppointment(appointmentDto)
activate SNSUSERAPPSTORE
SNSUSERAPPSTORE - -> CTRL : appointment
deactivate SNSUSERAPPSTORE
CTRL -> APOINT : setStateWaiting()
activate APOINT
deactivate APOINT
CTRL -> APOINT : setSNSTimeOfArrival(SNSTimeOfArrival)
activate APOINT
deactivate APOINT
deactivate CTRL
UI - -> RECEP : informs operation success
deactivate UI



@enduml

PlantUML version 1.2022.5(Sat Apr 30 11:55:52 BST 2022)
(GPL source distribution)
Java Runtime: OpenJDK Runtime Environment
JVM: OpenJDK 64-Bit Server VM
Default Encoding: Cp1252
Language: en
Country: US
--></g></svg>