<?xml version="1.0" encoding="UTF-8" standalone="no"?><svg xmlns="http://www.w3.org/2000/svg" xmlns:xlink="http://www.w3.org/1999/xlink" contentStyleType="text/css" height="858px" preserveAspectRatio="none" style="width:1044px;height:858px;background:#FFFFFF;" version="1.1" viewBox="0 0 1044 858" width="1044px" zoomAndPan="magnify"><defs/><g><rect fill="#FFFFFF" height="699.1953" style="stroke:#181818;stroke-width:1.0;" width="10" x="153" y="87.5703"/><rect fill="#FFFFFF" height="30" style="stroke:#181818;stroke-width:1.0;" width="10" x="373" y="203.4922"/><rect fill="#FFFFFF" height="30" style="stroke:#181818;stroke-width:1.0;" width="10" x="373" y="370.9922"/><rect fill="#FFFFFF" height="30" style="stroke:#181818;stroke-width:1.0;" width="10" x="373" y="538.4922"/><rect fill="#FFFFFF" height="30" style="stroke:#181818;stroke-width:1.0;" width="10" x="373" y="598.8438"/><rect fill="#FFFFFF" height="76.7969" style="stroke:#181818;stroke-width:1.0;" width="10" x="505.5" y="263.8438"/><rect fill="#FFFFFF" height="76.7969" style="stroke:#181818;stroke-width:1.0;" width="10" x="650.5" y="431.3438"/><rect fill="#FFFFFF" height="30" style="stroke:#181818;stroke-width:1.0;" width="10" x="941" y="719.4141"/><rect height="594.625" style="stroke:#000000;stroke-width:1.5;fill:none;" width="963" x="75.5" y="162.7891"/><line style="stroke:#181818;stroke-width:0.5;fill:none;stroke-dasharray:5.0,5.0;" x1="157.5" x2="157.5" y1="55.2188" y2="804.7656"/><line style="stroke:#181818;stroke-width:0.5;fill:none;stroke-dasharray:5.0,5.0;" x1="377.5" x2="377.5" y1="55.2188" y2="804.7656"/><line style="stroke:#181818;stroke-width:0.5;fill:none;stroke-dasharray:5.0,5.0;" x1="510.5" x2="510.5" y1="55.2188" y2="804.7656"/><line style="stroke:#181818;stroke-width:0.5;fill:none;stroke-dasharray:5.0,5.0;" x1="655.5" x2="655.5" y1="55.2188" y2="804.7656"/><line style="stroke:#181818;stroke-width:0.5;fill:none;stroke-dasharray:5.0,5.0;" x1="789.5" x2="789.5" y1="676.9531" y2="804.7656"/><line style="stroke:#181818;stroke-width:0.5;fill:none;stroke-dasharray:5.0,5.0;" x1="945.5" x2="945.5" y1="55.2188" y2="804.7656"/><rect fill="#E2E2F0" height="31.6094" rx="2.5" ry="2.5" style="stroke:#181818;stroke-width:0.5;" width="145" x="85.5" y="22.6094"/><text fill="#000000" font-family="sans-serif" font-size="14" lengthAdjust="spacing" textLength="131" x="92.5" y="44.1426">:AppointmentMapper</text><rect fill="#E2E2F0" height="31.6094" rx="2.5" ry="2.5" style="stroke:#181818;stroke-width:0.5;" width="145" x="85.5" y="803.7656"/><text fill="#000000" font-family="sans-serif" font-size="14" lengthAdjust="spacing" textLength="131" x="92.5" y="825.2988">:AppointmentMapper</text><rect fill="#E2E2F0" height="49.2188" rx="2.5" ry="2.5" style="stroke:#181818;stroke-width:0.5;" width="97" x="329.5" y="5"/><text fill="#000000" font-family="sans-serif" font-size="14" lengthAdjust="spacing" textLength="78" x="339" y="26.5332">appointment</text><text fill="#000000" font-family="sans-serif" font-size="14" lengthAdjust="spacing" textLength="83" x="336.5" y="44.1426">:Appointment</text><rect fill="#E2E2F0" height="49.2188" rx="2.5" ry="2.5" style="stroke:#181818;stroke-width:0.5;" width="97" x="329.5" y="803.7656"/><text fill="#000000" font-family="sans-serif" font-size="14" lengthAdjust="spacing" textLength="78" x="339" y="825.2988">appointment</text><text fill="#000000" font-family="sans-serif" font-size="14" lengthAdjust="spacing" textLength="83" x="336.5" y="842.9082">:Appointment</text><rect fill="#E2E2F0" height="31.6094" rx="2.5" ry="2.5" style="stroke:#181818;stroke-width:0.5;" width="148" x="436.5" y="22.6094"/><text fill="#000000" font-family="sans-serif" font-size="14" lengthAdjust="spacing" textLength="134" x="443.5" y="44.1426">:VaccineTypeMapper</text><rect fill="#E2E2F0" height="31.6094" rx="2.5" ry="2.5" style="stroke:#181818;stroke-width:0.5;" width="148" x="436.5" y="803.7656"/><text fill="#000000" font-family="sans-serif" font-size="14" lengthAdjust="spacing" textLength="134" x="443.5" y="825.2988">:VaccineTypeMapper</text><rect fill="#E2E2F0" height="31.6094" rx="2.5" ry="2.5" style="stroke:#181818;stroke-width:0.5;" width="122" x="594.5" y="22.6094"/><text fill="#000000" font-family="sans-serif" font-size="14" lengthAdjust="spacing" textLength="108" x="601.5" y="44.1426">:SNSUserMapper</text><rect fill="#E2E2F0" height="31.6094" rx="2.5" ry="2.5" style="stroke:#181818;stroke-width:0.5;" width="122" x="594.5" y="803.7656"/><text fill="#000000" font-family="sans-serif" font-size="14" lengthAdjust="spacing" textLength="108" x="601.5" y="825.2988">:SNSUserMapper</text><rect fill="#E2E2F0" height="49.2188" rx="2.5" ry="2.5" style="stroke:#181818;stroke-width:0.5;" width="127" x="726.5" y="803.7656"/><text fill="#000000" font-family="sans-serif" font-size="14" lengthAdjust="spacing" textLength="108" x="736" y="825.2988">appointmentDTO</text><text fill="#000000" font-family="sans-serif" font-size="14" lengthAdjust="spacing" textLength="113" x="733.5" y="842.9082">:AppointmentDTO</text><rect fill="#E2E2F0" height="49.2188" rx="2.5" ry="2.5" style="stroke:#181818;stroke-width:0.5;" width="165" x="863.5" y="5"/><text fill="#000000" font-family="sans-serif" font-size="14" lengthAdjust="spacing" textLength="112" x="890" y="26.5332">lAppointmentDTO</text><text fill="#000000" font-family="sans-serif" font-size="14" lengthAdjust="spacing" textLength="151" x="870.5" y="44.1426">:List&lt;AppointmentDTO&gt;</text><rect fill="#E2E2F0" height="49.2188" rx="2.5" ry="2.5" style="stroke:#181818;stroke-width:0.5;" width="165" x="863.5" y="803.7656"/><text fill="#000000" font-family="sans-serif" font-size="14" lengthAdjust="spacing" textLength="112" x="890" y="825.2988">lAppointmentDTO</text><text fill="#000000" font-family="sans-serif" font-size="14" lengthAdjust="spacing" textLength="151" x="870.5" y="842.9082">:List&lt;AppointmentDTO&gt;</text><rect fill="#FFFFFF" height="699.1953" style="stroke:#181818;stroke-width:1.0;" width="10" x="153" y="87.5703"/><rect fill="#FFFFFF" height="30" style="stroke:#181818;stroke-width:1.0;" width="10" x="373" y="203.4922"/><rect fill="#FFFFFF" height="30" style="stroke:#181818;stroke-width:1.0;" width="10" x="373" y="370.9922"/><rect fill="#FFFFFF" height="30" style="stroke:#181818;stroke-width:1.0;" width="10" x="373" y="538.4922"/><rect fill="#FFFFFF" height="30" style="stroke:#181818;stroke-width:1.0;" width="10" x="373" y="598.8438"/><rect fill="#FFFFFF" height="76.7969" style="stroke:#181818;stroke-width:1.0;" width="10" x="505.5" y="263.8438"/><rect fill="#FFFFFF" height="76.7969" style="stroke:#181818;stroke-width:1.0;" width="10" x="650.5" y="431.3438"/><rect fill="#FFFFFF" height="30" style="stroke:#181818;stroke-width:1.0;" width="10" x="941" y="719.4141"/><ellipse cx="7.5" cy="86.8203" fill="none" rx="4" ry="4" style="stroke:#181818;stroke-width:1.5;"/><polygon fill="#181818" points="141,83.5703,151,87.5703,141,91.5703,145,87.5703" style="stroke:#181818;stroke-width:1.0;"/><line style="stroke:#181818;stroke-width:1.0;" x1="12" x2="147" y1="87.5703" y2="87.5703"/><text fill="#000000" font-family="sans-serif" font-size="13" font-weight="bold" lengthAdjust="spacing" textLength="7" x="15" y="82.7139">1</text><text fill="#000000" font-family="sans-serif" font-size="13" lengthAdjust="spacing" textLength="115" x="26" y="82.7139">toDto(lAppointment)</text><polygon fill="#181818" points="714.5,113.9219,724.5,117.9219,714.5,121.9219,718.5,117.9219" style="stroke:#181818;stroke-width:1.0;"/><line style="stroke:#181818;stroke-width:1.0;stroke-dasharray:2.0,2.0;" x1="163" x2="720.5" y1="117.9219" y2="117.9219"/><text fill="#000000" font-family="sans-serif" font-size="13" font-weight="bold" lengthAdjust="spacing" textLength="7" x="170" y="113.0654">2</text><text fill="#000000" font-family="sans-serif" font-size="13" lengthAdjust="spacing" textLength="44" x="181" y="113.0654">create()</text><rect fill="#E2E2F0" height="49.2188" rx="2.5" ry="2.5" style="stroke:#181818;stroke-width:0.5;" width="127" x="726.5" y="95.5703"/><text fill="#000000" font-family="sans-serif" font-size="14" lengthAdjust="spacing" textLength="108" x="736" y="117.1035">appointmentDTO</text><text fill="#000000" font-family="sans-serif" font-size="14" lengthAdjust="spacing" textLength="113" x="733.5" y="134.7129">:AppointmentDTO</text><path d="M75.5,162.7891 L148.5,162.7891 L148.5,171.1406 L138.5,181.1406 L75.5,181.1406 L75.5,162.7891 " fill="#EEEEEE" style="stroke:#000000;stroke-width:1.5;"/><rect fill="none" height="594.625" style="stroke:#000000;stroke-width:1.5;" width="963" x="75.5" y="162.7891"/><text fill="#000000" font-family="sans-serif" font-size="13" font-weight="bold" lengthAdjust="spacing" textLength="28" x="90.5" y="177.2842">loop</text><text fill="#000000" font-family="sans-serif" font-size="11" font-weight="bold" lengthAdjust="spacing" textLength="203" x="163.5" y="176.208">[for each appointment in waitingList]</text><polygon fill="#181818" points="361,199.4922,371,203.4922,361,207.4922,365,203.4922" style="stroke:#181818;stroke-width:1.0;"/><line style="stroke:#181818;stroke-width:1.0;" x1="163" x2="367" y1="203.4922" y2="203.4922"/><text fill="#000000" font-family="sans-serif" font-size="13" font-weight="bold" lengthAdjust="spacing" textLength="7" x="170" y="198.6357">3</text><text fill="#000000" font-family="sans-serif" font-size="13" lengthAdjust="spacing" textLength="180" x="181" y="198.6357">vaccineType=getVaccineType()</text><polygon fill="#181818" points="493.5,259.8438,503.5,263.8438,493.5,267.8438,497.5,263.8438" style="stroke:#181818;stroke-width:1.0;"/><line style="stroke:#181818;stroke-width:1.0;" x1="163" x2="499.5" y1="263.8438" y2="263.8438"/><text fill="#000000" font-family="sans-serif" font-size="13" font-weight="bold" lengthAdjust="spacing" textLength="7" x="170" y="258.9873">4</text><text fill="#000000" font-family="sans-serif" font-size="13" lengthAdjust="spacing" textLength="215" x="181" y="258.9873">vaccineTypeDTO=toDto(vaccineType)</text><a href="US004_SD_vtMapper_ToDto.puml" target="_top" title="US004_SD_vtMapper_ToDto.puml" xlink:actuate="onRequest" xlink:href="US004_SD_vtMapper_ToDto.puml" xlink:show="new" xlink:title="US004_SD_vtMapper_ToDto.puml" xlink:type="simple"><rect height="41.4453" style="stroke:#000000;stroke-width:1.5;fill:none;" width="166" x="433.5" y="271.8438"/><path d="M433.5,271.8438 L495.5,271.8438 L495.5,279.8438 L485.5,289.8438 L433.5,289.8438 L433.5,271.8438 " fill="#EEEEEE" style="stroke:#000000;stroke-width:2.0;"/><text fill="#000000" font-family="sans-serif" font-size="13" font-weight="bold" lengthAdjust="spacing" textLength="17" x="446.5" y="287.3389">ref</text><text fill="#000000" font-family="sans-serif" font-size="12" lengthAdjust="spacing" textLength="158" x="437.5" y="306.3008">US004_SD_vtMapper_ToDto</text></a><polygon fill="#181818" points="174,336.6406,164,340.6406,174,344.6406,170,340.6406" style="stroke:#181818;stroke-width:1.0;"/><line style="stroke:#181818;stroke-width:1.0;stroke-dasharray:2.0,2.0;" x1="168" x2="509.5" y1="340.6406" y2="340.6406"/><text fill="#000000" font-family="sans-serif" font-size="13" font-weight="bold" lengthAdjust="spacing" textLength="7" x="180" y="335.7842">5</text><text fill="#000000" font-family="sans-serif" font-size="13" lengthAdjust="spacing" textLength="97" x="191" y="335.7842">vaccineTypeDTO</text><polygon fill="#181818" points="361,366.9922,371,370.9922,361,374.9922,365,370.9922" style="stroke:#181818;stroke-width:1.0;"/><line style="stroke:#181818;stroke-width:1.0;" x1="163" x2="367" y1="370.9922" y2="370.9922"/><text fill="#000000" font-family="sans-serif" font-size="13" font-weight="bold" lengthAdjust="spacing" textLength="7" x="170" y="366.1357">6</text><text fill="#000000" font-family="sans-serif" font-size="13" lengthAdjust="spacing" textLength="136" x="181" y="366.1357">snsUser=getSNSUser()</text><polygon fill="#181818" points="638.5,427.3438,648.5,431.3438,638.5,435.3438,642.5,431.3438" style="stroke:#181818;stroke-width:1.0;"/><line style="stroke:#181818;stroke-width:1.0;" x1="163" x2="644.5" y1="431.3438" y2="431.3438"/><text fill="#000000" font-family="sans-serif" font-size="13" font-weight="bold" lengthAdjust="spacing" textLength="7" x="170" y="426.4873">7</text><text fill="#000000" font-family="sans-serif" font-size="13" lengthAdjust="spacing" textLength="169" x="181" y="426.4873">snsUserDTO=toDto(snsUser)</text><a href="US004_SD_snsUserMapper_ToDto.puml" target="_top" title="US004_SD_snsUserMapper_ToDto.puml" xlink:actuate="onRequest" xlink:href="US004_SD_snsUserMapper_ToDto.puml" xlink:show="new" xlink:title="US004_SD_snsUserMapper_ToDto.puml" xlink:type="simple"><rect height="41.4453" style="stroke:#000000;stroke-width:1.5;fill:none;" width="206" x="591.5" y="439.3438"/><path d="M591.5,439.3438 L653.5,439.3438 L653.5,447.3438 L643.5,457.3438 L591.5,457.3438 L591.5,439.3438 " fill="#EEEEEE" style="stroke:#000000;stroke-width:2.0;"/><text fill="#000000" font-family="sans-serif" font-size="13" font-weight="bold" lengthAdjust="spacing" textLength="17" x="604.5" y="454.8389">ref</text><text fill="#000000" font-family="sans-serif" font-size="12" lengthAdjust="spacing" textLength="198" x="595.5" y="473.8008">US004_SD_snsUserMapper_ToDto</text></a><polygon fill="#181818" points="174,504.1406,164,508.1406,174,512.1406,170,508.1406" style="stroke:#181818;stroke-width:1.0;"/><line style="stroke:#181818;stroke-width:1.0;stroke-dasharray:2.0,2.0;" x1="168" x2="654.5" y1="508.1406" y2="508.1406"/><text fill="#000000" font-family="sans-serif" font-size="13" font-weight="bold" lengthAdjust="spacing" textLength="7" x="180" y="503.2842">8</text><text fill="#000000" font-family="sans-serif" font-size="13" lengthAdjust="spacing" textLength="74" x="191" y="503.2842">snsUserDTO</text><polygon fill="#181818" points="361,534.4922,371,538.4922,361,542.4922,365,538.4922" style="stroke:#181818;stroke-width:1.0;"/><line style="stroke:#181818;stroke-width:1.0;" x1="163" x2="367" y1="538.4922" y2="538.4922"/><text fill="#000000" font-family="sans-serif" font-size="13" font-weight="bold" lengthAdjust="spacing" textLength="7" x="170" y="533.6357">9</text><text fill="#000000" font-family="sans-serif" font-size="13" lengthAdjust="spacing" textLength="87" x="181" y="533.6357">time=getTime()</text><polygon fill="#181818" points="361,594.8438,371,598.8438,361,602.8438,365,598.8438" style="stroke:#181818;stroke-width:1.0;"/><line style="stroke:#181818;stroke-width:1.0;" x1="163" x2="367" y1="598.8438" y2="598.8438"/><text fill="#000000" font-family="sans-serif" font-size="13" font-weight="bold" lengthAdjust="spacing" textLength="14" x="170" y="593.9873">10</text><text fill="#000000" font-family="sans-serif" font-size="13" lengthAdjust="spacing" textLength="86" x="188" y="593.9873">date=getDate()</text><polygon fill="#181818" points="714.5,655.1953,724.5,659.1953,714.5,663.1953,718.5,659.1953" style="stroke:#181818;stroke-width:1.0;"/><line style="stroke:#181818;stroke-width:1.0;stroke-dasharray:2.0,2.0;" x1="163" x2="720.5" y1="659.1953" y2="659.1953"/><text fill="#000000" font-family="sans-serif" font-size="13" font-weight="bold" lengthAdjust="spacing" textLength="14" x="170" y="654.3389">11</text><text fill="#000000" font-family="sans-serif" font-size="13" lengthAdjust="spacing" textLength="289" x="188" y="654.3389">create(vaccineTypeDTO, snsUserDTO, date, time)</text><rect fill="#E2E2F0" height="49.2188" rx="2.5" ry="2.5" style="stroke:#181818;stroke-width:0.5;" width="127" x="726.5" y="636.8438"/><text fill="#000000" font-family="sans-serif" font-size="14" lengthAdjust="spacing" textLength="108" x="736" y="658.377">appointmentDTO</text><text fill="#000000" font-family="sans-serif" font-size="14" lengthAdjust="spacing" textLength="113" x="733.5" y="675.9863">:AppointmentDTO</text><polygon fill="#181818" points="929,715.4141,939,719.4141,929,723.4141,933,719.4141" style="stroke:#181818;stroke-width:1.0;"/><line style="stroke:#181818;stroke-width:1.0;" x1="163" x2="935" y1="719.4141" y2="719.4141"/><text fill="#000000" font-family="sans-serif" font-size="13" font-weight="bold" lengthAdjust="spacing" textLength="14" x="170" y="714.5576">12</text><text fill="#000000" font-family="sans-serif" font-size="13" lengthAdjust="spacing" textLength="126" x="188" y="714.5576">add(appointmentDTO)</text><polygon fill="#181818" points="11,782.7656,1,786.7656,11,790.7656,7,786.7656" style="stroke:#181818;stroke-width:1.0;"/><line style="stroke:#181818;stroke-width:1.0;" x1="5" x2="157" y1="786.7656" y2="786.7656"/><text fill="#000000" font-family="sans-serif" font-size="13" font-weight="bold" lengthAdjust="spacing" textLength="14" x="17" y="781.9092">13</text><text fill="#000000" font-family="sans-serif" font-size="13" lengthAdjust="spacing" textLength="102" x="35" y="781.9092">lAppointmentDTO</text><!--MD5=[c3c759afeb0352bd5444d2e593d7451f]
@startuml
autonumber
participant ":AppointmentMapper" as appointmentMapper
participant "appointment\n:Appointment" as appointment
participant ":VaccineTypeMapper" as vaccineTypeMapper
participant ":SNSUserMapper" as snsUserMapper
participant "appointmentDTO\n:AppointmentDTO" as appointmentDTO
participant "lAppointmentDTO\n:List<AppointmentDTO>" as lAppointment


[o-> appointmentMapper : toDto(lAppointment)
activate appointmentMapper

appointmentMapper - -> appointmentDTO ** : create()

loop for each appointment in waitingList

appointmentMapper -> appointment : vaccineType=getVaccineType()
activate appointment
deactivate appointment

appointmentMapper -> vaccineTypeMapper : vaccineTypeDTO=toDto(vaccineType)
activate vaccineTypeMapper
ref over vaccineTypeMapper [[US004_SD_vtMapper_ToDto.puml]] : US004_SD_vtMapper_ToDto
vaccineTypeMapper - -> appointmentMapper : vaccineTypeDTO
deactivate vaccineTypeMapper

appointmentMapper -> appointment : snsUser=getSNSUser()
activate appointment
deactivate appointment

appointmentMapper -> snsUserMapper : snsUserDTO=toDto(snsUser)
activate snsUserMapper
ref over snsUserMapper [[US004_SD_snsUserMapper_ToDto.puml]] : US004_SD_snsUserMapper_ToDto
snsUserMapper - -> appointmentMapper : snsUserDTO
deactivate snsUserMapper

appointmentMapper -> appointment : time=getTime()
activate appointment
deactivate appointment

appointmentMapper -> appointment : date=getDate()
activate appointment
deactivate appointment

appointmentMapper - -> appointmentDTO ** : create(vaccineTypeDTO, snsUserDTO, date, time)

appointmentMapper -> lAppointment : add(appointmentDTO)
activate lAppointment
deactivate lAppointment

end

<- appointmentMapper : lAppointmentDTO
deactivate appointmentMapper
@enduml

PlantUML version 1.2022.5(Sat Apr 30 11:55:52 BST 2022)
(GPL source distribution)
Java Runtime: OpenJDK Runtime Environment
JVM: OpenJDK 64-Bit Server VM
Default Encoding: Cp1252
Language: en
Country: US
--></g></svg>