<?xml version="1.0" encoding="UTF-8" standalone="no"?><svg xmlns="http://www.w3.org/2000/svg" xmlns:xlink="http://www.w3.org/1999/xlink" contentStyleType="text/css" height="891.5px" preserveAspectRatio="none" style="width:1906px;height:891px;background:#FFFFFF;" version="1.1" viewBox="0 0 1906 891" width="1906.5px" zoomAndPan="magnify"><defs/><g><rect fill="#FFFFFF" height="796.8711" style="stroke:#181818;stroke-width:0.5;" width="5" x="25.75" y="45.6484"/><rect fill="#FFFFFF" height="22.1328" style="stroke:#181818;stroke-width:0.5;" width="5" x="344.75" y="56.2148"/><rect fill="#FFFFFF" height="377.8945" style="stroke:#181818;stroke-width:0.5;" width="5" x="344.75" y="92.9141"/><rect fill="#FFFFFF" height="226.7461" style="stroke:#181818;stroke-width:0.5;" width="5" x="344.75" y="485.375"/><rect fill="#FFFFFF" height="115.832" style="stroke:#181818;stroke-width:0.5;" width="5" x="344.75" y="726.6875"/><rect fill="#FFFFFF" height="223.8789" style="stroke:#181818;stroke-width:0.5;" width="5" x="470.25" y="107.4805"/><rect fill="#FFFFFF" height="110.3164" style="stroke:#181818;stroke-width:0.5;" width="5" x="470.25" y="345.9258"/><rect fill="#FFFFFF" height="197.6133" style="stroke:#181818;stroke-width:0.5;" width="5" x="470.25" y="499.9414"/><rect fill="#FFFFFF" height="83.1992" style="stroke:#181818;stroke-width:0.5;" width="5" x="470.25" y="741.2539"/><rect fill="#FFFFFF" height="15" style="stroke:#181818;stroke-width:0.5;" width="5" x="595.75" y="137.0469"/><rect fill="#FFFFFF" height="15" style="stroke:#181818;stroke-width:0.5;" width="5" x="595.75" y="360.4922"/><rect fill="#FFFFFF" height="129.0977" style="stroke:#181818;stroke-width:0.5;" width="5" x="673.25" y="166.6133"/><rect fill="#FFFFFF" height="15" style="stroke:#181818;stroke-width:0.5;" width="5" x="673.25" y="316.3594"/><rect fill="#FFFFFF" height="68.6328" style="stroke:#181818;stroke-width:0.5;" width="5" x="673.25" y="755.8203"/><rect fill="#FFFFFF" height="14" style="stroke:#181818;stroke-width:0.5;" width="5" x="675.75" y="774.3867"/><rect fill="#FFFFFF" height="14" style="stroke:#181818;stroke-width:0.5;" width="5" x="675.75" y="810.4531"/><rect fill="#FFFFFF" height="114.5313" style="stroke:#181818;stroke-width:0.5;" width="5" x="773.25" y="181.1797"/><rect fill="#FFFFFF" height="37.6992" style="stroke:#181818;stroke-width:0.5;" width="5" x="1062.5" y="243.4453"/><rect fill="#FFFFFF" height="15" style="stroke:#181818;stroke-width:0.5;" width="5" x="1159.25" y="667.9883"/><rect fill="#FFFFFF" height="15" style="stroke:#181818;stroke-width:0.5;" width="5" x="1270.25" y="390.0586"/><rect fill="#FFFFFF" height="15" style="stroke:#181818;stroke-width:0.5;" width="5" x="1270.25" y="638.4219"/><rect fill="#FFFFFF" height="36.6172" style="stroke:#181818;stroke-width:0.5;" width="5" x="1385.25" y="419.625"/><rect fill="#FFFFFF" height="103.2656" style="stroke:#181818;stroke-width:0.5;" width="5" x="1385.25" y="514.5078"/><rect fill="#FFFFFF" height="15" style="stroke:#181818;stroke-width:0.5;" width="5" x="1561.25" y="529.0742"/><rect fill="#FFFFFF" height="15" style="stroke:#181818;stroke-width:0.5;" width="5" x="1561.25" y="558.6406"/><rect fill="#FFFFFF" height="15" style="stroke:#181818;stroke-width:0.5;" width="5" x="1561.25" y="588.207"/><line style="stroke:#181818;stroke-width:0.25;stroke-dasharray:5.0,5.0;" x1="28" x2="28" y1="40.6484" y2="851.5195"/><line style="stroke:#181818;stroke-width:0.25;stroke-dasharray:5.0,5.0;" x1="347" x2="347" y1="40.6484" y2="851.5195"/><line style="stroke:#181818;stroke-width:0.25;stroke-dasharray:5.0,5.0;" x1="472.75" x2="472.75" y1="40.6484" y2="851.5195"/><line style="stroke:#181818;stroke-width:0.25;stroke-dasharray:5.0,5.0;" x1="598" x2="598" y1="40.6484" y2="851.5195"/><line style="stroke:#181818;stroke-width:0.25;stroke-dasharray:5.0,5.0;" x1="675.5" x2="675.5" y1="40.6484" y2="851.5195"/><line style="stroke:#181818;stroke-width:0.25;stroke-dasharray:5.0,5.0;" x1="775.75" x2="775.75" y1="40.6484" y2="851.5195"/><line style="stroke:#181818;stroke-width:0.25;stroke-dasharray:5.0,5.0;" x1="848.75" x2="848.75" y1="40.6484" y2="851.5195"/><line style="stroke:#181818;stroke-width:0.25;stroke-dasharray:5.0,5.0;" x1="933.25" x2="933.25" y1="222.5547" y2="851.5195"/><line style="stroke:#181818;stroke-width:0.25;stroke-dasharray:5.0,5.0;" x1="1064.75" x2="1064.75" y1="243.2031" y2="851.5195"/><line style="stroke:#181818;stroke-width:0.25;stroke-dasharray:5.0,5.0;" x1="1161.75" x2="1161.75" y1="300.4688" y2="851.5195"/><line style="stroke:#181818;stroke-width:0.25;stroke-dasharray:5.0,5.0;" x1="1272.75" x2="1272.75" y1="40.6484" y2="851.5195"/><line style="stroke:#181818;stroke-width:0.25;stroke-dasharray:5.0,5.0;" x1="1387.75" x2="1387.75" y1="40.6484" y2="851.5195"/><line style="stroke:#181818;stroke-width:0.25;stroke-dasharray:5.0,5.0;" x1="1563.75" x2="1563.75" y1="40.6484" y2="851.5195"/><line style="stroke:#181818;stroke-width:0.25;stroke-dasharray:5.0,5.0;" x1="1634.75" x2="1634.75" y1="622.5313" y2="851.5195"/><line style="stroke:#181818;stroke-width:0.25;stroke-dasharray:5.0,5.0;" x1="1722.25" x2="1722.25" y1="40.6484" y2="851.5195"/><line style="stroke:#181818;stroke-width:0.25;stroke-dasharray:5.0,5.0;" x1="1840.75" x2="1840.75" y1="40.6484" y2="851.5195"/><text fill="#000000" font-family="sans-serif" font-size="7" lengthAdjust="spacing" textLength="48.5" x="2.5" y="38.9976">Administrator</text><ellipse cx="28.25" cy="6.75" fill="#E2E2F0" rx="4" ry="4" style="stroke:#181818;stroke-width:0.25;"/><path d="M28.25,10.75 L28.25,24.25 M21.75,14.75 L34.75,14.75 M28.25,24.25 L21.75,31.75 M28.25,24.25 L34.75,31.75 " fill="none" style="stroke:#181818;stroke-width:0.25;"/><text fill="#000000" font-family="sans-serif" font-size="7" lengthAdjust="spacing" textLength="48.5" x="2.5" y="857.5171">Administrator</text><ellipse cx="28.25" cy="863.418" fill="#E2E2F0" rx="4" ry="4" style="stroke:#181818;stroke-width:0.25;"/><path d="M28.25,867.418 L28.25,880.918 M21.75,871.418 L34.75,871.418 M28.25,880.918 L21.75,888.418 M28.25,880.918 L34.75,888.418 " fill="none" style="stroke:#181818;stroke-width:0.25;"/><rect fill="#E2E2F0" height="15.1484" rx="1.25" ry="1.25" style="stroke:#181818;stroke-width:0.25;" width="75.5" x="309.5" y="25"/><text fill="#000000" font-family="sans-serif" font-size="7" lengthAdjust="spacing" textLength="68.5" x="313" y="34.9976">:CreateMVCenterUI</text><rect fill="#E2E2F0" height="15.1484" rx="1.25" ry="1.25" style="stroke:#181818;stroke-width:0.25;" width="75.5" x="309.5" y="851.0195"/><text fill="#000000" font-family="sans-serif" font-size="7" lengthAdjust="spacing" textLength="68.5" x="313" y="861.0171">:CreateMVCenterUI</text><rect fill="#E2E2F0" height="15.1484" rx="1.25" ry="1.25" style="stroke:#181818;stroke-width:0.25;" width="106" x="419.75" y="25"/><text fill="#000000" font-family="sans-serif" font-size="7" lengthAdjust="spacing" textLength="99" x="423.25" y="34.9976">: CreateMVCenterController</text><rect fill="#E2E2F0" height="15.1484" rx="1.25" ry="1.25" style="stroke:#181818;stroke-width:0.25;" width="106" x="419.75" y="851.0195"/><text fill="#000000" font-family="sans-serif" font-size="7" lengthAdjust="spacing" textLength="99" x="423.25" y="861.0171">: CreateMVCenterController</text><rect fill="#E2E2F0" height="15.1484" rx="1.25" ry="1.25" style="stroke:#181818;stroke-width:0.25;" width="45.5" x="575.5" y="25"/><text fill="#000000" font-family="sans-serif" font-size="7" lengthAdjust="spacing" textLength="38.5" x="579" y="34.9976">: Company</text><rect fill="#E2E2F0" height="15.1484" rx="1.25" ry="1.25" style="stroke:#181818;stroke-width:0.25;" width="45.5" x="575.5" y="851.0195"/><text fill="#000000" font-family="sans-serif" font-size="7" lengthAdjust="spacing" textLength="38.5" x="579" y="861.0171">: Company</text><rect fill="#E2E2F0" height="15.1484" rx="1.25" ry="1.25" style="stroke:#181818;stroke-width:0.25;" width="99.5" x="626" y="25"/><text fill="#000000" font-family="sans-serif" font-size="7" lengthAdjust="spacing" textLength="92.5" x="629.5" y="34.9976">mvcStore: MVCenterStore</text><rect fill="#E2E2F0" height="15.1484" rx="1.25" ry="1.25" style="stroke:#181818;stroke-width:0.25;" width="99.5" x="626" y="851.0195"/><text fill="#000000" font-family="sans-serif" font-size="7" lengthAdjust="spacing" textLength="92.5" x="629.5" y="861.0171">mvcStore: MVCenterStore</text><rect fill="#E2E2F0" height="15.1484" rx="1.25" ry="1.25" style="stroke:#181818;stroke-width:0.25;" width="69" x="741.25" y="25"/><text fill="#000000" font-family="sans-serif" font-size="7" lengthAdjust="spacing" textLength="62" x="744.75" y="34.9976">MVCenterMapper</text><rect fill="#E2E2F0" height="15.1484" rx="1.25" ry="1.25" style="stroke:#181818;stroke-width:0.25;" width="69" x="741.25" y="851.0195"/><text fill="#000000" font-family="sans-serif" font-size="7" lengthAdjust="spacing" textLength="62" x="744.75" y="861.0171">MVCenterMapper</text><rect fill="#E2E2F0" height="15.1484" rx="1.25" ry="1.25" style="stroke:#181818;stroke-width:0.25;" width="67.5" x="815.25" y="25"/><text fill="#000000" font-family="sans-serif" font-size="7" lengthAdjust="spacing" textLength="60.5" x="818.75" y="34.9976">mvcDto: MVCDto</text><rect fill="#E2E2F0" height="15.1484" rx="1.25" ry="1.25" style="stroke:#181818;stroke-width:0.25;" width="67.5" x="815.25" y="851.0195"/><text fill="#000000" font-family="sans-serif" font-size="7" lengthAdjust="spacing" textLength="60.5" x="818.75" y="861.0171">mvcDto: MVCDto</text><rect fill="#E2E2F0" height="15.1484" rx="1.25" ry="1.25" style="stroke:#181818;stroke-width:0.25;" width="54.5" x="906.25" y="851.0195"/><text fill="#000000" font-family="sans-serif" font-size="7" lengthAdjust="spacing" textLength="47.5" x="909.75" y="861.0171">:sc: Schedule</text><rect fill="#E2E2F0" height="15.1484" rx="1.25" ry="1.25" style="stroke:#181818;stroke-width:0.25;" width="73.5" x="1028.25" y="851.0195"/><text fill="#000000" font-family="sans-serif" font-size="7" lengthAdjust="spacing" textLength="66.5" x="1031.75" y="861.0171">listSL: DailySlotList</text><rect fill="#E2E2F0" height="15.1484" rx="1.25" ry="1.25" style="stroke:#181818;stroke-width:0.25;" width="110" x="1106.75" y="851.0195"/><text fill="#000000" font-family="sans-serif" font-size="7" lengthAdjust="spacing" textLength="103" x="1110.25" y="861.0171">mvc: MassVaccinationCenter</text><rect fill="#E2E2F0" height="15.1484" rx="1.25" ry="1.25" style="stroke:#181818;stroke-width:0.25;" width="102" x="1221.75" y="25"/><text fill="#000000" font-family="sans-serif" font-size="7" lengthAdjust="spacing" textLength="95" x="1225.25" y="34.9976">vtStore: VaccineTypeStore</text><rect fill="#E2E2F0" height="15.1484" rx="1.25" ry="1.25" style="stroke:#181818;stroke-width:0.25;" width="102" x="1221.75" y="851.0195"/><text fill="#000000" font-family="sans-serif" font-size="7" lengthAdjust="spacing" textLength="95" x="1225.25" y="861.0171">vtStore: VaccineTypeStore</text><rect fill="#E2E2F0" height="15.1484" rx="1.25" ry="1.25" style="stroke:#181818;stroke-width:0.25;" width="118" x="1328.75" y="25"/><text fill="#000000" font-family="sans-serif" font-size="7" lengthAdjust="spacing" textLength="111" x="1332.25" y="34.9976">vtMapper: VaccineTypeMapper</text><rect fill="#E2E2F0" height="15.1484" rx="1.25" ry="1.25" style="stroke:#181818;stroke-width:0.25;" width="118" x="1328.75" y="851.0195"/><text fill="#000000" font-family="sans-serif" font-size="7" lengthAdjust="spacing" textLength="111" x="1332.25" y="861.0171">vtMapper: VaccineTypeMapper</text><rect fill="#E2E2F0" height="23.2969" rx="1.25" ry="1.25" style="stroke:#181818;stroke-width:0.25;" width="68" x="1529.75" y="16.8516"/><text fill="#000000" font-family="sans-serif" font-size="7" lengthAdjust="spacing" textLength="19" x="1554.25" y="26.8491">vtDto</text><text fill="#000000" font-family="sans-serif" font-size="7" lengthAdjust="spacing" textLength="61" x="1533.25" y="34.9976">:VaccineTypeDto</text><rect fill="#E2E2F0" height="23.2969" rx="1.25" ry="1.25" style="stroke:#181818;stroke-width:0.25;" width="68" x="1529.75" y="851.0195"/><text fill="#000000" font-family="sans-serif" font-size="7" lengthAdjust="spacing" textLength="19" x="1554.25" y="861.0171">vtDto</text><text fill="#000000" font-family="sans-serif" font-size="7" lengthAdjust="spacing" textLength="61" x="1533.25" y="869.1655">:VaccineTypeDto</text><rect fill="#E2E2F0" height="15.1484" rx="1.25" ry="1.25" style="stroke:#181818;stroke-width:0.25;" width="64" x="1602.75" y="851.0195"/><text fill="#000000" font-family="sans-serif" font-size="7" lengthAdjust="spacing" textLength="57" x="1606.25" y="861.0171">vt: VaccineType</text><rect fill="#E2E2F0" height="15.1484" rx="1.25" ry="1.25" style="stroke:#181818;stroke-width:0.25;" width="101" x="1671.75" y="25"/><text fill="#000000" font-family="sans-serif" font-size="7" lengthAdjust="spacing" textLength="94" x="1675.25" y="34.9976">listVT: List&lt;VaccineType&gt;</text><rect fill="#E2E2F0" height="15.1484" rx="1.25" ry="1.25" style="stroke:#181818;stroke-width:0.25;" width="101" x="1671.75" y="851.0195"/><text fill="#000000" font-family="sans-serif" font-size="7" lengthAdjust="spacing" textLength="94" x="1675.25" y="861.0171">listVT: List&lt;VaccineType&gt;</text><rect fill="#E2E2F0" height="15.1484" rx="1.25" ry="1.25" style="stroke:#181818;stroke-width:0.25;" width="126" x="1777.75" y="25"/><text fill="#000000" font-family="sans-serif" font-size="7" lengthAdjust="spacing" textLength="119" x="1781.25" y="34.9976">listVTDto: List&lt;VaccineTypeDto&gt;</text><rect fill="#E2E2F0" height="15.1484" rx="1.25" ry="1.25" style="stroke:#181818;stroke-width:0.25;" width="126" x="1777.75" y="851.0195"/><text fill="#000000" font-family="sans-serif" font-size="7" lengthAdjust="spacing" textLength="119" x="1781.25" y="861.0171">listVTDto: List&lt;VaccineTypeDto&gt;</text><rect fill="#FFFFFF" height="796.8711" style="stroke:#181818;stroke-width:0.5;" width="5" x="25.75" y="45.6484"/><rect fill="#FFFFFF" height="22.1328" style="stroke:#181818;stroke-width:0.5;" width="5" x="344.75" y="56.2148"/><rect fill="#FFFFFF" height="377.8945" style="stroke:#181818;stroke-width:0.5;" width="5" x="344.75" y="92.9141"/><rect fill="#FFFFFF" height="226.7461" style="stroke:#181818;stroke-width:0.5;" width="5" x="344.75" y="485.375"/><rect fill="#FFFFFF" height="115.832" style="stroke:#181818;stroke-width:0.5;" width="5" x="344.75" y="726.6875"/><rect fill="#FFFFFF" height="223.8789" style="stroke:#181818;stroke-width:0.5;" width="5" x="470.25" y="107.4805"/><rect fill="#FFFFFF" height="110.3164" style="stroke:#181818;stroke-width:0.5;" width="5" x="470.25" y="345.9258"/><rect fill="#FFFFFF" height="197.6133" style="stroke:#181818;stroke-width:0.5;" width="5" x="470.25" y="499.9414"/><rect fill="#FFFFFF" height="83.1992" style="stroke:#181818;stroke-width:0.5;" width="5" x="470.25" y="741.2539"/><rect fill="#FFFFFF" height="15" style="stroke:#181818;stroke-width:0.5;" width="5" x="595.75" y="137.0469"/><rect fill="#FFFFFF" height="15" style="stroke:#181818;stroke-width:0.5;" width="5" x="595.75" y="360.4922"/><rect fill="#FFFFFF" height="129.0977" style="stroke:#181818;stroke-width:0.5;" width="5" x="673.25" y="166.6133"/><rect fill="#FFFFFF" height="15" style="stroke:#181818;stroke-width:0.5;" width="5" x="673.25" y="316.3594"/><rect fill="#FFFFFF" height="68.6328" style="stroke:#181818;stroke-width:0.5;" width="5" x="673.25" y="755.8203"/><rect fill="#FFFFFF" height="14" style="stroke:#181818;stroke-width:0.5;" width="5" x="675.75" y="774.3867"/><rect fill="#FFFFFF" height="14" style="stroke:#181818;stroke-width:0.5;" width="5" x="675.75" y="810.4531"/><rect fill="#FFFFFF" height="114.5313" style="stroke:#181818;stroke-width:0.5;" width="5" x="773.25" y="181.1797"/><rect fill="#FFFFFF" height="37.6992" style="stroke:#181818;stroke-width:0.5;" width="5" x="1062.5" y="243.4453"/><rect fill="#FFFFFF" height="15" style="stroke:#181818;stroke-width:0.5;" width="5" x="1159.25" y="667.9883"/><rect fill="#FFFFFF" height="15" style="stroke:#181818;stroke-width:0.5;" width="5" x="1270.25" y="390.0586"/><rect fill="#FFFFFF" height="15" style="stroke:#181818;stroke-width:0.5;" width="5" x="1270.25" y="638.4219"/><rect fill="#FFFFFF" height="36.6172" style="stroke:#181818;stroke-width:0.5;" width="5" x="1385.25" y="419.625"/><rect fill="#FFFFFF" height="103.2656" style="stroke:#181818;stroke-width:0.5;" width="5" x="1385.25" y="514.5078"/><rect fill="#FFFFFF" height="15" style="stroke:#181818;stroke-width:0.5;" width="5" x="1561.25" y="529.0742"/><rect fill="#FFFFFF" height="15" style="stroke:#181818;stroke-width:0.5;" width="5" x="1561.25" y="558.6406"/><rect fill="#FFFFFF" height="15" style="stroke:#181818;stroke-width:0.5;" width="5" x="1561.25" y="588.207"/><polygon fill="#181818" points="338.75,54.2148,343.75,56.2148,338.75,58.2148,340.75,56.2148" style="stroke:#181818;stroke-width:0.5;"/><line style="stroke:#181818;stroke-width:0.5;" x1="30.75" x2="341.75" y1="56.2148" y2="56.2148"/><text fill="#000000" font-family="sans-serif" font-size="6.5" font-weight="bold" lengthAdjust="spacing" textLength="4.5" x="34.25" y="53.6819">1</text><text fill="#000000" font-family="sans-serif" font-size="6.5" lengthAdjust="spacing" textLength="152.5" x="40.75" y="53.6819">starts registering new mass vaccination center</text><polygon fill="#181818" points="36.25,76.3477,31.25,78.3477,36.25,80.3477,34.25,78.3477" style="stroke:#181818;stroke-width:0.5;"/><line style="stroke:#181818;stroke-width:0.5;stroke-dasharray:2.0,2.0;" x1="33.25" x2="346.75" y1="78.3477" y2="78.3477"/><text fill="#000000" font-family="sans-serif" font-size="6.5" font-weight="bold" lengthAdjust="spacing" textLength="4.5" x="39.25" y="72.0315">2</text><text fill="#000000" font-family="sans-serif" font-size="6.5" lengthAdjust="spacing" textLength="293.5" x="45.75" y="68.2483">requests data (name, address, phoneNumber, emailAddress, faxNumber, websiteAddress,</text><text fill="#000000" font-family="sans-serif" font-size="6.5" lengthAdjust="spacing" textLength="208.5" x="47.75" y="75.8147">openingHour, closingHour, slotDuration, numberOfVaccinesSlot)</text><polygon fill="#181818" points="338.75,90.9141,343.75,92.9141,338.75,94.9141,340.75,92.9141" style="stroke:#181818;stroke-width:0.5;"/><line style="stroke:#181818;stroke-width:0.5;" x1="30.75" x2="341.75" y1="92.9141" y2="92.9141"/><text fill="#000000" font-family="sans-serif" font-size="6.5" font-weight="bold" lengthAdjust="spacing" textLength="4.5" x="34.25" y="90.3811">3</text><text fill="#000000" font-family="sans-serif" font-size="6.5" lengthAdjust="spacing" textLength="69" x="40.75" y="90.3811">types requested data</text><polygon fill="#181818" points="464.25,105.4805,469.25,107.4805,464.25,109.4805,466.25,107.4805" style="stroke:#181818;stroke-width:0.5;"/><line style="stroke:#181818;stroke-width:0.5;" x1="349.75" x2="467.25" y1="107.4805" y2="107.4805"/><text fill="#000000" font-family="sans-serif" font-size="6.5" font-weight="bold" lengthAdjust="spacing" textLength="4.5" x="353.25" y="104.9475">4</text><text fill="#000000" font-family="sans-serif" font-size="6.5" lengthAdjust="spacing" textLength="82.5" x="359.75" y="104.9475">createMVCenter(mvcDto)</text><polygon fill="#181818" points="589.75,135.0469,594.75,137.0469,589.75,139.0469,591.75,137.0469" style="stroke:#181818;stroke-width:0.5;"/><line style="stroke:#181818;stroke-width:0.5;" x1="475.25" x2="592.75" y1="137.0469" y2="137.0469"/><text fill="#000000" font-family="sans-serif" font-size="6.5" font-weight="bold" lengthAdjust="spacing" textLength="4.5" x="478.75" y="134.5139">5</text><text fill="#000000" font-family="sans-serif" font-size="6.5" lengthAdjust="spacing" textLength="104.5" x="485.25" y="134.5139">mvcStore = getMVCenterStore()</text><polygon fill="#181818" points="667.25,164.6133,672.25,166.6133,667.25,168.6133,669.25,166.6133" style="stroke:#181818;stroke-width:0.5;"/><line style="stroke:#181818;stroke-width:0.5;" x1="475.25" x2="670.25" y1="166.6133" y2="166.6133"/><text fill="#000000" font-family="sans-serif" font-size="6.5" font-weight="bold" lengthAdjust="spacing" textLength="4.5" x="478.75" y="164.0803">6</text><text fill="#000000" font-family="sans-serif" font-size="6.5" lengthAdjust="spacing" textLength="106" x="485.25" y="164.0803">mvc = createMVCenter(mvcDto)</text><polygon fill="#181818" points="767.25,179.1797,772.25,181.1797,767.25,183.1797,769.25,181.1797" style="stroke:#181818;stroke-width:0.5;"/><line style="stroke:#181818;stroke-width:0.5;" x1="678.25" x2="770.25" y1="181.1797" y2="181.1797"/><text fill="#000000" font-family="sans-serif" font-size="6.5" font-weight="bold" lengthAdjust="spacing" textLength="4.5" x="681.75" y="178.6467">7</text><text fill="#000000" font-family="sans-serif" font-size="6.5" lengthAdjust="spacing" textLength="56.5" x="688.25" y="178.6467">toModel(mvcDto)</text><a href="US009_SD_MVCenterMapper_MVCDto.puml" target="_top" title="US009_SD_MVCenterMapper_MVCDto.puml" xlink:actuate="onRequest" xlink:href="US009_SD_MVCenterMapper_MVCDto.puml" xlink:show="new" xlink:title="US009_SD_MVCenterMapper_MVCDto.puml" xlink:type="simple"><rect height="19.5508" style="stroke:#000000;stroke-width:0.75;fill:none;" width="144.5" x="739.75" y="185.1797"/><path d="M739.75,185.1797 L772.75,185.1797 L772.75,188.6797 L767.75,193.6797 L739.75,193.6797 L739.75,185.1797 " fill="#EEEEEE" style="stroke:#000000;stroke-width:1.0;"/><text fill="#000000" font-family="sans-serif" font-size="6.5" font-weight="bold" lengthAdjust="spacing" textLength="10.5" x="746.25" y="192.2131">ref</text><text fill="#000000" font-family="sans-serif" font-size="6" lengthAdjust="spacing" textLength="113" x="755.5" y="201.249">US009_SD_MVCenterMapper_MVCDto</text></a><polygon fill="#181818" points="900.25,215.7969,905.25,217.7969,900.25,219.7969,902.25,217.7969" style="stroke:#181818;stroke-width:0.5;"/><line style="stroke:#181818;stroke-width:0.5;stroke-dasharray:2.0,2.0;" x1="778.25" x2="903.25" y1="217.7969" y2="217.7969"/><text fill="#000000" font-family="sans-serif" font-size="6.5" font-weight="bold" lengthAdjust="spacing" textLength="4.5" x="781.75" y="215.2639">8</text><text fill="#000000" font-family="sans-serif" font-size="6.5" lengthAdjust="spacing" textLength="109.5" x="788.25" y="215.2639">create(openingHour, closingHour)</text><rect fill="#E2E2F0" height="15.1484" rx="1.25" ry="1.25" style="stroke:#181818;stroke-width:0.25;" width="54.5" x="906.25" y="207.2305"/><text fill="#000000" font-family="sans-serif" font-size="7" lengthAdjust="spacing" textLength="47.5" x="909.75" y="217.228">:sc: Schedule</text><polygon fill="#181818" points="1022.25,236.4453,1027.25,238.4453,1022.25,240.4453,1024.25,238.4453" style="stroke:#181818;stroke-width:0.5;"/><line style="stroke:#181818;stroke-width:0.5;stroke-dasharray:2.0,2.0;" x1="778.25" x2="1025.25" y1="238.4453" y2="238.4453"/><text fill="#000000" font-family="sans-serif" font-size="6.5" font-weight="bold" lengthAdjust="spacing" textLength="4.5" x="781.75" y="235.9124">9</text><text fill="#000000" font-family="sans-serif" font-size="6.5" lengthAdjust="spacing" textLength="231.5" x="788.25" y="235.9124">create(openingHour, closingHour, slotDuration, numberOfVaccinesSlot)</text><rect fill="#E2E2F0" height="15.1484" rx="1.25" ry="1.25" style="stroke:#181818;stroke-width:0.25;" width="73.5" x="1028.25" y="227.8789"/><text fill="#000000" font-family="sans-serif" font-size="7" lengthAdjust="spacing" textLength="66.5" x="1031.75" y="237.8765">listSL: DailySlotList</text><a href="US009_SD_DailySlotList_sl.puml" target="_top" title="US009_SD_DailySlotList_sl.puml" xlink:actuate="onRequest" xlink:href="US009_SD_DailySlotList_sl.puml" xlink:show="new" xlink:title="US009_SD_DailySlotList_sl.puml" xlink:type="simple"><rect height="19.5508" style="stroke:#000000;stroke-width:0.75;fill:none;" width="83" x="1026.75" y="248.5273"/><path d="M1026.75,248.5273 L1059.75,248.5273 L1059.75,252.0273 L1054.75,257.0273 L1026.75,257.0273 L1026.75,248.5273 " fill="#EEEEEE" style="stroke:#000000;stroke-width:1.0;"/><text fill="#000000" font-family="sans-serif" font-size="6.5" font-weight="bold" lengthAdjust="spacing" textLength="10.5" x="1033.25" y="255.5608">ref</text><text fill="#000000" font-family="sans-serif" font-size="6" lengthAdjust="spacing" textLength="79" x="1028.75" y="264.5967">US009_SD_DailySlotList_sl</text></a><polygon fill="#181818" points="783.75,279.1445,778.75,281.1445,783.75,283.1445,781.75,281.1445" style="stroke:#181818;stroke-width:0.5;"/><line style="stroke:#181818;stroke-width:0.5;stroke-dasharray:2.0,2.0;" x1="780.75" x2="1064.5" y1="281.1445" y2="281.1445"/><text fill="#000000" font-family="sans-serif" font-size="6.5" font-weight="bold" lengthAdjust="spacing" textLength="9" x="786.75" y="278.6116">10</text><text fill="#000000" font-family="sans-serif" font-size="6.5" lengthAdjust="spacing" textLength="9.5" x="797.75" y="278.6116">lSL</text><polygon fill="#181818" points="1100.75,293.7109,1105.75,295.7109,1100.75,297.7109,1102.75,295.7109" style="stroke:#181818;stroke-width:0.5;"/><line style="stroke:#181818;stroke-width:0.5;stroke-dasharray:2.0,2.0;" x1="775.75" x2="1103.75" y1="295.7109" y2="295.7109"/><text fill="#000000" font-family="sans-serif" font-size="6.5" font-weight="bold" lengthAdjust="spacing" textLength="9" x="779.25" y="293.178">11</text><text fill="#000000" font-family="sans-serif" font-size="6.5" lengthAdjust="spacing" textLength="292.5" x="790.25" y="293.178">create(name, address, phoneNumber, emailAddress, faxNumber, websiteAddress, sc, lSL)</text><rect fill="#E2E2F0" height="15.1484" rx="1.25" ry="1.25" style="stroke:#181818;stroke-width:0.25;" width="110" x="1106.75" y="285.1445"/><text fill="#000000" font-family="sans-serif" font-size="7" lengthAdjust="spacing" textLength="103" x="1110.25" y="295.1421">mvc: MassVaccinationCenter</text><polygon fill="#181818" points="667.25,314.3594,672.25,316.3594,667.25,318.3594,669.25,316.3594" style="stroke:#181818;stroke-width:0.5;"/><line style="stroke:#181818;stroke-width:0.5;" x1="475.25" x2="670.25" y1="316.3594" y2="316.3594"/><text fill="#000000" font-family="sans-serif" font-size="6.5" font-weight="bold" lengthAdjust="spacing" textLength="9" x="478.75" y="313.8264">12</text><text fill="#000000" font-family="sans-serif" font-size="6.5" lengthAdjust="spacing" textLength="77" x="489.75" y="313.8264">validateMVCenter(mvc)</text><polygon fill="#181818" points="464.25,343.9258,469.25,345.9258,464.25,347.9258,466.25,345.9258" style="stroke:#181818;stroke-width:0.5;"/><line style="stroke:#181818;stroke-width:0.5;" x1="349.75" x2="467.25" y1="345.9258" y2="345.9258"/><text fill="#000000" font-family="sans-serif" font-size="6.5" font-weight="bold" lengthAdjust="spacing" textLength="9" x="353.25" y="343.3928">13</text><text fill="#000000" font-family="sans-serif" font-size="6.5" lengthAdjust="spacing" textLength="100" x="364.25" y="343.3928">listVTDto = getVaccineTypes()</text><polygon fill="#181818" points="589.75,358.4922,594.75,360.4922,589.75,362.4922,591.75,360.4922" style="stroke:#181818;stroke-width:0.5;"/><line style="stroke:#181818;stroke-width:0.5;" x1="475.25" x2="592.75" y1="360.4922" y2="360.4922"/><text fill="#000000" font-family="sans-serif" font-size="6.5" font-weight="bold" lengthAdjust="spacing" textLength="9" x="478.75" y="357.9592">14</text><text fill="#000000" font-family="sans-serif" font-size="6.5" lengthAdjust="spacing" textLength="74" x="489.75" y="357.9592">vtStore = getVTStore()</text><polygon fill="#181818" points="1264.25,388.0586,1269.25,390.0586,1264.25,392.0586,1266.25,390.0586" style="stroke:#181818;stroke-width:0.5;"/><line style="stroke:#181818;stroke-width:0.5;" x1="475.25" x2="1267.25" y1="390.0586" y2="390.0586"/><text fill="#000000" font-family="sans-serif" font-size="6.5" font-weight="bold" lengthAdjust="spacing" textLength="9" x="478.75" y="387.5256">15</text><text fill="#000000" font-family="sans-serif" font-size="6.5" lengthAdjust="spacing" textLength="88.5" x="489.75" y="387.5256">listVT = getVaccineTypes()</text><polygon fill="#181818" points="1379.25,417.625,1384.25,419.625,1379.25,421.625,1381.25,419.625" style="stroke:#181818;stroke-width:0.5;"/><line style="stroke:#181818;stroke-width:0.5;" x1="475.25" x2="1382.25" y1="419.625" y2="419.625"/><text fill="#000000" font-family="sans-serif" font-size="6.5" font-weight="bold" lengthAdjust="spacing" textLength="9" x="478.75" y="417.092">16</text><text fill="#000000" font-family="sans-serif" font-size="6.5" lengthAdjust="spacing" textLength="81" x="489.75" y="417.092">listVTDto = toDto(listVT)</text><a href="US009_SD_vtMapper_listVTDto.puml" target="_top" title="US009_SD_vtMapper_listVTDto.puml" xlink:actuate="onRequest" xlink:href="US009_SD_vtMapper_listVTDto.puml" xlink:show="new" xlink:title="US009_SD_vtMapper_listVTDto.puml" xlink:type="simple"><rect height="19.5508" style="stroke:#000000;stroke-width:0.75;fill:none;" width="272" x="1327.25" y="423.625"/><path d="M1327.25,423.625 L1360.25,423.625 L1360.25,427.125 L1355.25,432.125 L1327.25,432.125 L1327.25,423.625 " fill="#EEEEEE" style="stroke:#000000;stroke-width:1.0;"/><text fill="#000000" font-family="sans-serif" font-size="6.5" font-weight="bold" lengthAdjust="spacing" textLength="10.5" x="1333.75" y="430.6584">ref</text><text fill="#000000" font-family="sans-serif" font-size="6" lengthAdjust="spacing" textLength="93" x="1416.75" y="439.6943">US009_SD_vtMapper_listVTDto</text></a><polygon fill="#181818" points="478.25,454.2422,473.25,456.2422,478.25,458.2422,476.25,456.2422" style="stroke:#181818;stroke-width:0.5;"/><line style="stroke:#181818;stroke-width:0.5;stroke-dasharray:2.0,2.0;" x1="475.25" x2="1387.25" y1="456.2422" y2="456.2422"/><text fill="#000000" font-family="sans-serif" font-size="6.5" font-weight="bold" lengthAdjust="spacing" textLength="9" x="481.25" y="453.7092">17</text><text fill="#000000" font-family="sans-serif" font-size="6.5" lengthAdjust="spacing" textLength="30" x="492.25" y="453.7092">listVTDto</text><polygon fill="#181818" points="36.25,468.8086,31.25,470.8086,36.25,472.8086,34.25,470.8086" style="stroke:#181818;stroke-width:0.5;"/><line style="stroke:#181818;stroke-width:0.5;stroke-dasharray:2.0,2.0;" x1="33.25" x2="346.75" y1="470.8086" y2="470.8086"/><text fill="#000000" font-family="sans-serif" font-size="6.5" font-weight="bold" lengthAdjust="spacing" textLength="9" x="39.25" y="468.2756">18</text><text fill="#000000" font-family="sans-serif" font-size="6.5" lengthAdjust="spacing" textLength="115.5" x="50.25" y="468.2756">shows vaccine types to be selected</text><polygon fill="#181818" points="338.75,483.375,343.75,485.375,338.75,487.375,340.75,485.375" style="stroke:#181818;stroke-width:0.5;"/><line style="stroke:#181818;stroke-width:0.5;" x1="30.75" x2="341.75" y1="485.375" y2="485.375"/><text fill="#000000" font-family="sans-serif" font-size="6.5" font-weight="bold" lengthAdjust="spacing" textLength="9" x="34.25" y="482.842">19</text><text fill="#000000" font-family="sans-serif" font-size="6.5" lengthAdjust="spacing" textLength="80.5" x="45.25" y="482.842">selects one vaccine type</text><polygon fill="#181818" points="464.25,497.9414,469.25,499.9414,464.25,501.9414,466.25,499.9414" style="stroke:#181818;stroke-width:0.5;"/><line style="stroke:#181818;stroke-width:0.5;" x1="349.75" x2="467.25" y1="499.9414" y2="499.9414"/><text fill="#000000" font-family="sans-serif" font-size="6.5" font-weight="bold" lengthAdjust="spacing" textLength="9" x="353.25" y="497.4084">20</text><text fill="#000000" font-family="sans-serif" font-size="6.5" lengthAdjust="spacing" textLength="95.5" x="364.25" y="497.4084">associateVaccineType(vtDto)</text><polygon fill="#181818" points="1379.25,512.5078,1384.25,514.5078,1379.25,516.5078,1381.25,514.5078" style="stroke:#181818;stroke-width:0.5;"/><line style="stroke:#181818;stroke-width:0.5;" x1="475.25" x2="1382.25" y1="514.5078" y2="514.5078"/><text fill="#000000" font-family="sans-serif" font-size="6.5" font-weight="bold" lengthAdjust="spacing" textLength="9" x="478.75" y="511.9749">21</text><text fill="#000000" font-family="sans-serif" font-size="6.5" lengthAdjust="spacing" textLength="65" x="489.75" y="511.9749">vt = toModel(vtDto)</text><polygon fill="#181818" points="1555.25,527.0742,1560.25,529.0742,1555.25,531.0742,1557.25,529.0742" style="stroke:#181818;stroke-width:0.5;"/><line style="stroke:#181818;stroke-width:0.5;" x1="1390.25" x2="1558.25" y1="529.0742" y2="529.0742"/><text fill="#000000" font-family="sans-serif" font-size="6.5" font-weight="bold" lengthAdjust="spacing" textLength="9" x="1393.75" y="526.5413">22</text><text fill="#000000" font-family="sans-serif" font-size="6.5" lengthAdjust="spacing" textLength="57" x="1404.75" y="526.5413">code = getCode()</text><polygon fill="#181818" points="1555.25,556.6406,1560.25,558.6406,1555.25,560.6406,1557.25,558.6406" style="stroke:#181818;stroke-width:0.5;"/><line style="stroke:#181818;stroke-width:0.5;" x1="1390.25" x2="1558.25" y1="558.6406" y2="558.6406"/><text fill="#000000" font-family="sans-serif" font-size="6.5" font-weight="bold" lengthAdjust="spacing" textLength="9" x="1393.75" y="556.1077">23</text><text fill="#000000" font-family="sans-serif" font-size="6.5" lengthAdjust="spacing" textLength="98" x="1404.75" y="556.1077">description = getDescription()</text><polygon fill="#181818" points="1555.25,586.207,1560.25,588.207,1555.25,590.207,1557.25,588.207" style="stroke:#181818;stroke-width:0.5;"/><line style="stroke:#181818;stroke-width:0.5;" x1="1390.25" x2="1558.25" y1="588.207" y2="588.207"/><text fill="#000000" font-family="sans-serif" font-size="6.5" font-weight="bold" lengthAdjust="spacing" textLength="9" x="1393.75" y="585.6741">24</text><text fill="#000000" font-family="sans-serif" font-size="6.5" lengthAdjust="spacing" textLength="150.5" x="1404.75" y="585.6741">vaccineTechnology = getVaccineTechnology()</text><polygon fill="#181818" points="1596.75,615.7734,1601.75,617.7734,1596.75,619.7734,1598.75,617.7734" style="stroke:#181818;stroke-width:0.5;"/><line style="stroke:#181818;stroke-width:0.5;stroke-dasharray:2.0,2.0;" x1="1387.75" x2="1599.75" y1="617.7734" y2="617.7734"/><text fill="#000000" font-family="sans-serif" font-size="6.5" font-weight="bold" lengthAdjust="spacing" textLength="9" x="1391.25" y="615.2405">25</text><text fill="#000000" font-family="sans-serif" font-size="6.5" lengthAdjust="spacing" textLength="148" x="1402.25" y="615.2405">create(code, description, VaccineTechnology)</text><rect fill="#E2E2F0" height="15.1484" rx="1.25" ry="1.25" style="stroke:#181818;stroke-width:0.25;" width="64" x="1602.75" y="607.207"/><text fill="#000000" font-family="sans-serif" font-size="7" lengthAdjust="spacing" textLength="57" x="1606.25" y="617.2046">vt: VaccineType</text><polygon fill="#181818" points="1264.25,636.4219,1269.25,638.4219,1264.25,640.4219,1266.25,638.4219" style="stroke:#181818;stroke-width:0.5;"/><line style="stroke:#181818;stroke-width:0.5;" x1="475.25" x2="1267.25" y1="638.4219" y2="638.4219"/><text fill="#000000" font-family="sans-serif" font-size="6.5" font-weight="bold" lengthAdjust="spacing" textLength="9" x="478.75" y="635.8889">26</text><text fill="#000000" font-family="sans-serif" font-size="6.5" lengthAdjust="spacing" textLength="56" x="489.75" y="635.8889">mvcVT = find(vt)</text><polygon fill="#181818" points="1153.25,665.9883,1158.25,667.9883,1153.25,669.9883,1155.25,667.9883" style="stroke:#181818;stroke-width:0.5;"/><line style="stroke:#181818;stroke-width:0.5;" x1="475.25" x2="1156.25" y1="667.9883" y2="667.9883"/><text fill="#000000" font-family="sans-serif" font-size="6.5" font-weight="bold" lengthAdjust="spacing" textLength="9" x="478.75" y="665.4553">27</text><text fill="#000000" font-family="sans-serif" font-size="6.5" lengthAdjust="spacing" textLength="79" x="489.75" y="665.4553">setVaccineType(mvcVT)</text><polygon fill="#181818" points="355.25,695.5547,350.25,697.5547,355.25,699.5547,353.25,697.5547" style="stroke:#181818;stroke-width:0.5;"/><line style="stroke:#181818;stroke-width:0.5;stroke-dasharray:2.0,2.0;" x1="352.25" x2="472.25" y1="697.5547" y2="697.5547"/><text fill="#000000" font-family="sans-serif" font-size="6.5" font-weight="bold" lengthAdjust="spacing" textLength="9" x="358.25" y="695.0217">28</text><text fill="#000000" font-family="sans-serif" font-size="6.5" lengthAdjust="spacing" textLength="8" x="369.25" y="695.0217">ok</text><polygon fill="#181818" points="36.25,710.1211,31.25,712.1211,36.25,714.1211,34.25,712.1211" style="stroke:#181818;stroke-width:0.5;"/><line style="stroke:#181818;stroke-width:0.5;stroke-dasharray:2.0,2.0;" x1="33.25" x2="346.75" y1="712.1211" y2="712.1211"/><text fill="#000000" font-family="sans-serif" font-size="6.5" font-weight="bold" lengthAdjust="spacing" textLength="9" x="39.25" y="709.5881">29</text><text fill="#000000" font-family="sans-serif" font-size="6.5" lengthAdjust="spacing" textLength="143" x="50.25" y="709.5881">shows the data and requests a confirmation</text><polygon fill="#181818" points="338.75,724.6875,343.75,726.6875,338.75,728.6875,340.75,726.6875" style="stroke:#181818;stroke-width:0.5;"/><line style="stroke:#181818;stroke-width:0.5;" x1="30.75" x2="341.75" y1="726.6875" y2="726.6875"/><text fill="#000000" font-family="sans-serif" font-size="6.5" font-weight="bold" lengthAdjust="spacing" textLength="9" x="34.25" y="724.1545">30</text><text fill="#000000" font-family="sans-serif" font-size="6.5" lengthAdjust="spacing" textLength="57.5" x="45.25" y="724.1545">confirms the data</text><polygon fill="#181818" points="464.25,739.2539,469.25,741.2539,464.25,743.2539,466.25,741.2539" style="stroke:#181818;stroke-width:0.5;"/><line style="stroke:#181818;stroke-width:0.5;" x1="349.75" x2="467.25" y1="741.2539" y2="741.2539"/><text fill="#000000" font-family="sans-serif" font-size="6.5" font-weight="bold" lengthAdjust="spacing" textLength="9" x="353.25" y="738.7209">31</text><text fill="#000000" font-family="sans-serif" font-size="6.5" lengthAdjust="spacing" textLength="52" x="364.25" y="738.7209">saveMVCenter()</text><polygon fill="#181818" points="667.25,753.8203,672.25,755.8203,667.25,757.8203,669.25,755.8203" style="stroke:#181818;stroke-width:0.5;"/><line style="stroke:#181818;stroke-width:0.5;" x1="475.25" x2="670.25" y1="755.8203" y2="755.8203"/><text fill="#000000" font-family="sans-serif" font-size="6.5" font-weight="bold" lengthAdjust="spacing" textLength="9" x="478.75" y="753.2874">32</text><text fill="#000000" font-family="sans-serif" font-size="6.5" lengthAdjust="spacing" textLength="66" x="489.75" y="753.2874">saveMVCenter(mvc)</text><line style="stroke:#181818;stroke-width:0.5;" x1="680.75" x2="701.75" y1="770.3867" y2="770.3867"/><line style="stroke:#181818;stroke-width:0.5;" x1="701.75" x2="701.75" y1="770.3867" y2="776.8867"/><line style="stroke:#181818;stroke-width:0.5;" x1="681.25" x2="701.75" y1="776.8867" y2="776.8867"/><polygon fill="#181818" points="686.25,774.8867,681.25,776.8867,686.25,778.8867,684.25,776.8867" style="stroke:#181818;stroke-width:0.5;"/><text fill="#000000" font-family="sans-serif" font-size="6.5" font-weight="bold" lengthAdjust="spacing" textLength="9" x="684.25" y="767.8538">33</text><text fill="#000000" font-family="sans-serif" font-size="6.5" lengthAdjust="spacing" textLength="77" x="695.25" y="767.8538">validateMVCenter(mvc)</text><line style="stroke:#181818;stroke-width:0.5;" x1="680.75" x2="701.75" y1="806.4531" y2="806.4531"/><line style="stroke:#181818;stroke-width:0.5;" x1="701.75" x2="701.75" y1="806.4531" y2="812.9531"/><line style="stroke:#181818;stroke-width:0.5;" x1="681.25" x2="701.75" y1="812.9531" y2="812.9531"/><polygon fill="#181818" points="686.25,810.9531,681.25,812.9531,686.25,814.9531,684.25,812.9531" style="stroke:#181818;stroke-width:0.5;"/><text fill="#000000" font-family="sans-serif" font-size="6.5" font-weight="bold" lengthAdjust="spacing" textLength="9" x="684.25" y="803.9202">34</text><text fill="#000000" font-family="sans-serif" font-size="6.5" lengthAdjust="spacing" textLength="62.5" x="695.25" y="803.9202">addMVCenter(mvc)</text><polygon fill="#181818" points="33.75,840.5195,28.75,842.5195,33.75,844.5195,31.75,842.5195" style="stroke:#181818;stroke-width:0.5;"/><line style="stroke:#181818;stroke-width:0.5;stroke-dasharray:2.0,2.0;" x1="30.75" x2="346.75" y1="842.5195" y2="842.5195"/><text fill="#000000" font-family="sans-serif" font-size="6.5" font-weight="bold" lengthAdjust="spacing" textLength="9" x="36.75" y="839.9866">35</text><text fill="#000000" font-family="sans-serif" font-size="6.5" lengthAdjust="spacing" textLength="85.5" x="47.75" y="839.9866">informs operation success</text><!--MD5=[8a0253267835a901e5ba76e799c24369]
@startuml

autonumber
actor "Administrator" as ADM
participant ":CreateMVCenterUI" as UI
participant ": CreateMVCenterController" as CTRL
participant ": Company" as COMP
participant "mvcStore: MVCenterStore" as STORE
participant "MVCenterMapper" as MVC_MP
participant "mvcDto: MVCDto" as MVC_DTO
participant ":sc: Schedule" as SC
participant "listSL: DailySlotList" as LIST_SL
participant "mvc: MassVaccinationCenter" as MVC
participant "vtStore: VaccineTypeStore" as STORE_VT
participant "vtMapper: VaccineTypeMapper" as MP
participant "vtDto\n:VaccineTypeDto" as vtDto
participant "vt: VaccineType" as VT
participant "listVT: List<VaccineType>" as LIST_VT
participant "listVTDto: List<VaccineTypeDto>" as LIST_VT_DTO

activate ADM
ADM -> UI : starts registering new mass vaccination center
activate UI
UI - -> ADM : requests data (name, address, phoneNumber, emailAddress, faxNumber, websiteAddress, \n openingHour, closingHour, slotDuration, numberOfVaccinesSlot)
deactivate UI
ADM -> UI : types requested data
activate UI
UI -> CTRL : createMVCenter(mvcDto)
activate CTRL
deactivate COMP
CTRL -> COMP : mvcStore = getMVCenterStore()
activate COMP
deactivate COMP
CTRL -> STORE : mvc = createMVCenter(mvcDto)
activate STORE
STORE -> MVC_MP : toModel(mvcDto)
activate MVC_MP
ref over MVC_MP, MVC_DTO [[US009_SD_MVCenterMapper_MVCDto.puml]] : US009_SD_MVCenterMapper_MVCDto
MVC_MP - -> SC**: create(openingHour, closingHour)
MVC_MP - -> LIST_SL**: create(openingHour, closingHour, slotDuration, numberOfVaccinesSlot)
ref over LIST_SL [[US009_SD_DailySlotList_sl.puml]] : US009_SD_DailySlotList_sl
activate LIST_SL
LIST_SL - -> MVC_MP : lSL
deactivate LIST_SL
MVC_MP - -> MVC**: create(name, address, phoneNumber, emailAddress, faxNumber, websiteAddress, sc, lSL)
deactivate MVC_MP
deactivate STORE
CTRL -> STORE: validateMVCenter(mvc)
activate STORE
deactivate STORE
deactivate CTRL
UI -> CTRL : listVTDto = getVaccineTypes()
activate CTRL
CTRL -> COMP : vtStore = getVTStore()
activate COMP
deactivate COMP
CTRL -> STORE_VT : listVT = getVaccineTypes()
activate STORE_VT
deactivate STORE_VT
CTRL -> MP : listVTDto = toDto(listVT)
activate MP
ref over MP, vtDto [[US009_SD_vtMapper_listVTDto.puml]] : US009_SD_vtMapper_listVTDto
MP - -> CTRL : listVTDto
deactivate MP
deactivate CTRL
UI - -> ADM : shows vaccine types to be selected
deactivate UI
ADM -> UI : selects one vaccine type
activate UI
UI -> CTRL : associateVaccineType(vtDto)
activate CTRL
CTRL -> MP : vt = toModel(vtDto)
activate MP
MP -> vtDto : code = getCode()
activate vtDto
deactivate vtDto
MP -> vtDto : description = getDescription()
activate vtDto
deactivate vtDto
MP -> vtDto : vaccineTechnology = getVaccineTechnology()
activate vtDto
deactivate vtDto
MP - -> VT **: create(code, description, VaccineTechnology)
deactivate MP
CTRL -> STORE_VT : mvcVT = find(vt)
activate STORE_VT
deactivate STORE_VT
CTRL -> MVC : setVaccineType(mvcVT)
activate MVC
deactivate MVC
CTRL - -> UI : ok
deactivate CTRL
UI - -> ADM : shows the data and requests a confirmation
deactivate UI
ADM -> UI : confirms the data
activate UI
UI -> CTRL : saveMVCenter()
activate CTRL
CTRL ->STORE :saveMVCenter(mvc)
activate STORE
STORE -> STORE: validateMVCenter(mvc)
activate STORE
deactivate STORE
STORE -> STORE: addMVCenter(mvc)
activate STORE
deactivate STORE
deactivate STORE
deactivate CTRL
UI - -> ADM : informs operation success
deactivate UI
deactivate ADM

@enduml

PlantUML version 1.2022.4(Sat Apr 09 14:29:17 WEST 2022)
(GPL source distribution)
Java Runtime: OpenJDK Runtime Environment
JVM: OpenJDK 64-Bit Server VM
Default Encoding: UTF-8
Language: en
Country: US
--></g></svg>