<?xml version="1.0" encoding="UTF-8" standalone="no"?><svg xmlns="http://www.w3.org/2000/svg" xmlns:xlink="http://www.w3.org/1999/xlink" contentStyleType="text/css" height="717px" preserveAspectRatio="none" style="width:573px;height:717px;background:#FFFFFF;" version="1.1" viewBox="0 0 573 717" width="573px" zoomAndPan="magnify"><defs/><g><!--MD5=[02e4b9b7573f1156f41e60aa5b4e25a4]
class Company--><g id="elem_Company"><rect codeLine="5" fill="#F1F1F1" height="56.2969" id="Company" rx="2.5" ry="2.5" style="stroke:#181818;stroke-width:0.5;" width="100" x="192" y="7"/><ellipse cx="207" cy="23" fill="#ADD1B2" rx="11" ry="11" style="stroke:#181818;stroke-width:1.0;"/><path d="M209.4688,28.875 Q208.8906,29.1875 208.25,29.3438 Q207.6094,29.5 206.9063,29.5 Q204.4063,29.5 203.0781,27.8281 Q201.7656,26.1563 201.7656,23 Q201.7656,19.8438 203.0781,18.1719 Q204.4063,16.5 206.9063,16.5 Q207.6094,16.5 208.25,16.6563 Q208.9063,16.8125 209.4688,17.125 L209.4688,19.9219 Q208.8438,19.3594 208.25,19.0938 Q207.6563,18.8125 207.0313,18.8125 Q205.6875,18.8125 205,19.875 Q204.3125,20.9375 204.3125,23 Q204.3125,25.0781 205,26.1406 Q205.6875,27.1875 207.0313,27.1875 Q207.6563,27.1875 208.25,26.9219 Q208.8438,26.6563 209.4688,26.0781 L209.4688,28.875 Z " fill="#000000"/><text fill="#000000" font-family="sans-serif" font-size="14" lengthAdjust="spacing" textLength="68" x="221" y="27.8467">Company</text><line style="stroke:#181818;stroke-width:0.5;" x1="193" x2="291" y1="39" y2="39"/><text fill="#000000" font-family="sans-serif" font-size="14" lengthAdjust="spacing" textLength="88" x="198" y="55.9951">-designation</text></g><!--MD5=[c680266cf9e454ca06c2d1bb8b683e6b]
class Schedule--><g id="elem_Schedule"><rect codeLine="10" fill="#F1F1F1" height="72.5938" id="Schedule" rx="2.5" ry="2.5" style="stroke:#181818;stroke-width:0.5;" width="110" x="7" y="472"/><ellipse cx="27.4" cy="488" fill="#ADD1B2" rx="11" ry="11" style="stroke:#181818;stroke-width:1.0;"/><path d="M29.8688,493.875 Q29.2906,494.1875 28.65,494.3438 Q28.0094,494.5 27.3063,494.5 Q24.8063,494.5 23.4781,492.8281 Q22.1656,491.1563 22.1656,488 Q22.1656,484.8438 23.4781,483.1719 Q24.8063,481.5 27.3063,481.5 Q28.0094,481.5 28.65,481.6563 Q29.3063,481.8125 29.8688,482.125 L29.8688,484.9219 Q29.2438,484.3594 28.65,484.0938 Q28.0563,483.8125 27.4313,483.8125 Q26.0875,483.8125 25.4,484.875 Q24.7125,485.9375 24.7125,488 Q24.7125,490.0781 25.4,491.1406 Q26.0875,492.1875 27.4313,492.1875 Q28.0563,492.1875 28.65,491.9219 Q29.2438,491.6563 29.8688,491.0781 L29.8688,493.875 Z " fill="#000000"/><text fill="#000000" font-family="sans-serif" font-size="14" lengthAdjust="spacing" textLength="66" x="42.6" y="492.8467">Schedule</text><line style="stroke:#181818;stroke-width:0.5;" x1="8" x2="116" y1="504" y2="504"/><text fill="#000000" font-family="sans-serif" font-size="14" lengthAdjust="spacing" textLength="98" x="13" y="520.9951">-openingHour</text><text fill="#000000" font-family="sans-serif" font-size="14" lengthAdjust="spacing" textLength="90" x="13" y="537.292">-closingHour</text></g><!--MD5=[de60e6d4f424ae4d0522096f76a59010]
class VaccinationCenter--><g id="elem_VaccinationCenter"><rect codeLine="14" fill="#F1F1F1" height="137.7813" id="VaccinationCenter" rx="2.5" ry="2.5" style="stroke:#181818;stroke-width:0.5;" width="164" x="160" y="257"/><ellipse cx="175" cy="273" fill="#ADD1B2" rx="11" ry="11" style="stroke:#181818;stroke-width:1.0;"/><path d="M177.4688,278.875 Q176.8906,279.1875 176.25,279.3438 Q175.6094,279.5 174.9063,279.5 Q172.4063,279.5 171.0781,277.8281 Q169.7656,276.1563 169.7656,273 Q169.7656,269.8438 171.0781,268.1719 Q172.4063,266.5 174.9063,266.5 Q175.6094,266.5 176.25,266.6563 Q176.9063,266.8125 177.4688,267.125 L177.4688,269.9219 Q176.8438,269.3594 176.25,269.0938 Q175.6563,268.8125 175.0313,268.8125 Q173.6875,268.8125 173,269.875 Q172.3125,270.9375 172.3125,273 Q172.3125,275.0781 173,276.1406 Q173.6875,277.1875 175.0313,277.1875 Q175.6563,277.1875 176.25,276.9219 Q176.8438,276.6563 177.4688,276.0781 L177.4688,278.875 Z " fill="#000000"/><text fill="#000000" font-family="sans-serif" font-size="14" lengthAdjust="spacing" textLength="132" x="189" y="277.8467">VaccinationCenter</text><line style="stroke:#181818;stroke-width:0.5;" x1="161" x2="323" y1="289" y2="289"/><text fill="#000000" font-family="sans-serif" font-size="14" lengthAdjust="spacing" textLength="46" x="166" y="305.9951">-name</text><text fill="#000000" font-family="sans-serif" font-size="14" lengthAdjust="spacing" textLength="61" x="166" y="322.292">-address</text><text fill="#000000" font-family="sans-serif" font-size="14" lengthAdjust="spacing" textLength="107" x="166" y="338.5889">-phoneNumber</text><text fill="#000000" font-family="sans-serif" font-size="14" lengthAdjust="spacing" textLength="93" x="166" y="354.8857">-emailAdress</text><text fill="#000000" font-family="sans-serif" font-size="14" lengthAdjust="spacing" textLength="84" x="166" y="371.1826">-faxNumber</text><text fill="#000000" font-family="sans-serif" font-size="14" lengthAdjust="spacing" textLength="116" x="166" y="387.4795">-websiteAddress</text></g><!--MD5=[45c6380d22fb72521f5065026b277fb9]
class Slot--><g id="elem_Slot"><rect codeLine="22" fill="#F1F1F1" height="72.5938" id="Slot" rx="2.5" ry="2.5" style="stroke:#181818;stroke-width:0.5;" width="180" x="152" y="472"/><ellipse cx="224.25" cy="488" fill="#ADD1B2" rx="11" ry="11" style="stroke:#181818;stroke-width:1.0;"/><path d="M226.7188,493.875 Q226.1406,494.1875 225.5,494.3438 Q224.8594,494.5 224.1563,494.5 Q221.6563,494.5 220.3281,492.8281 Q219.0156,491.1563 219.0156,488 Q219.0156,484.8438 220.3281,483.1719 Q221.6563,481.5 224.1563,481.5 Q224.8594,481.5 225.5,481.6563 Q226.1563,481.8125 226.7188,482.125 L226.7188,484.9219 Q226.0938,484.3594 225.5,484.0938 Q224.9063,483.8125 224.2813,483.8125 Q222.9375,483.8125 222.25,484.875 Q221.5625,485.9375 221.5625,488 Q221.5625,490.0781 222.25,491.1406 Q222.9375,492.1875 224.2813,492.1875 Q224.9063,492.1875 225.5,491.9219 Q226.0938,491.6563 226.7188,491.0781 L226.7188,493.875 Z " fill="#000000"/><text fill="#000000" font-family="sans-serif" font-size="14" lengthAdjust="spacing" textLength="27" x="244.75" y="492.8467">Slot</text><line style="stroke:#181818;stroke-width:0.5;" x1="153" x2="331" y1="504" y2="504"/><text fill="#000000" font-family="sans-serif" font-size="14" lengthAdjust="spacing" textLength="168" x="158" y="520.9951">-numberOfVaccinesSlot</text><text fill="#000000" font-family="sans-serif" font-size="14" lengthAdjust="spacing" textLength="65" x="158" y="537.292">-duration</text></g><!--MD5=[76480a6701b5d2883bc606a2560c3cfe]
class MassVaccinationCenter--><g id="elem_MassVaccinationCenter"><rect codeLine="27" fill="#F1F1F1" height="40" id="MassVaccinationCenter" rx="2.5" ry="2.5" style="stroke:#181818;stroke-width:0.5;" width="199" x="367.5" y="488.5"/><ellipse cx="382.5" cy="504.5" fill="#ADD1B2" rx="11" ry="11" style="stroke:#181818;stroke-width:1.0;"/><path d="M384.9688,510.375 Q384.3906,510.6875 383.75,510.8438 Q383.1094,511 382.4063,511 Q379.9063,511 378.5781,509.3281 Q377.2656,507.6563 377.2656,504.5 Q377.2656,501.3438 378.5781,499.6719 Q379.9063,498 382.4063,498 Q383.1094,498 383.75,498.1563 Q384.4063,498.3125 384.9688,498.625 L384.9688,501.4219 Q384.3438,500.8594 383.75,500.5938 Q383.1563,500.3125 382.5313,500.3125 Q381.1875,500.3125 380.5,501.375 Q379.8125,502.4375 379.8125,504.5 Q379.8125,506.5781 380.5,507.6406 Q381.1875,508.6875 382.5313,508.6875 Q383.1563,508.6875 383.75,508.4219 Q384.3438,508.1563 384.9688,507.5781 L384.9688,510.375 Z " fill="#000000"/><text fill="#000000" font-family="sans-serif" font-size="14" lengthAdjust="spacing" textLength="167" x="396.5" y="509.3467">MassVaccinationCenter</text><line style="stroke:#181818;stroke-width:0.5;" x1="368.5" x2="565.5" y1="520.5" y2="520.5"/></g><!--MD5=[da547346deef918ea16944ba046651ef]
class Administrator--><g id="elem_Administrator"><rect codeLine="30" fill="#F1F1F1" height="40" id="Administrator" rx="2.5" ry="2.5" style="stroke:#181818;stroke-width:0.5;" width="129" x="323.5" y="140"/><ellipse cx="338.5" cy="156" fill="#ADD1B2" rx="11" ry="11" style="stroke:#181818;stroke-width:1.0;"/><path d="M340.9688,161.875 Q340.3906,162.1875 339.75,162.3438 Q339.1094,162.5 338.4063,162.5 Q335.9063,162.5 334.5781,160.8281 Q333.2656,159.1563 333.2656,156 Q333.2656,152.8438 334.5781,151.1719 Q335.9063,149.5 338.4063,149.5 Q339.1094,149.5 339.75,149.6563 Q340.4063,149.8125 340.9688,150.125 L340.9688,152.9219 Q340.3438,152.3594 339.75,152.0938 Q339.1563,151.8125 338.5313,151.8125 Q337.1875,151.8125 336.5,152.875 Q335.8125,153.9375 335.8125,156 Q335.8125,158.0781 336.5,159.1406 Q337.1875,160.1875 338.5313,160.1875 Q339.1563,160.1875 339.75,159.9219 Q340.3438,159.6563 340.9688,159.0781 L340.9688,161.875 Z " fill="#000000"/><text fill="#000000" font-family="sans-serif" font-size="14" lengthAdjust="spacing" textLength="97" x="352.5" y="160.8467">Administrator</text><line style="stroke:#181818;stroke-width:0.5;" x1="324.5" x2="451.5" y1="172" y2="172"/></g><!--MD5=[0e501da62322464167c8ec4d233a6b7e]
class VaccineType--><g id="elem_VaccineType"><rect codeLine="33" fill="#F1F1F1" height="88.8906" id="VaccineType" rx="2.5" ry="2.5" style="stroke:#181818;stroke-width:0.5;" width="155" x="389.5" y="622"/><ellipse cx="418.45" cy="638" fill="#ADD1B2" rx="11" ry="11" style="stroke:#181818;stroke-width:1.0;"/><path d="M420.9188,643.875 Q420.3406,644.1875 419.7,644.3438 Q419.0594,644.5 418.3563,644.5 Q415.8563,644.5 414.5281,642.8281 Q413.2156,641.1563 413.2156,638 Q413.2156,634.8438 414.5281,633.1719 Q415.8563,631.5 418.3563,631.5 Q419.0594,631.5 419.7,631.6563 Q420.3563,631.8125 420.9188,632.125 L420.9188,634.9219 Q420.2938,634.3594 419.7,634.0938 Q419.1063,633.8125 418.4813,633.8125 Q417.1375,633.8125 416.45,634.875 Q415.7625,635.9375 415.7625,638 Q415.7625,640.0781 416.45,641.1406 Q417.1375,642.1875 418.4813,642.1875 Q419.1063,642.1875 419.7,641.9219 Q420.2938,641.6563 420.9188,641.0781 L420.9188,643.875 Z " fill="#000000"/><text fill="#000000" font-family="sans-serif" font-size="14" lengthAdjust="spacing" textLength="92" x="435.55" y="642.8467">VaccineType</text><line style="stroke:#181818;stroke-width:0.5;" x1="390.5" x2="543.5" y1="654" y2="654"/><text fill="#000000" font-family="sans-serif" font-size="14" lengthAdjust="spacing" textLength="40" x="395.5" y="670.9951">-code</text><text fill="#000000" font-family="sans-serif" font-size="14" lengthAdjust="spacing" textLength="84" x="395.5" y="687.292">-description</text><text fill="#000000" font-family="sans-serif" font-size="14" lengthAdjust="spacing" textLength="143" x="395.5" y="703.5889">-vaccineTechnology</text></g><!--MD5=[a09fc339ad85d4e67aa3195beeccb7d9]
reverse link VaccinationCenter to MassVaccinationCenter--><g id="link_VaccinationCenter_MassVaccinationCenter"><path d="M339.99,405.61 C377.95,436.06 418.16,468.32 442.93,488.19 " fill="none" id="VaccinationCenter-backto-MassVaccinationCenter" style="stroke:#181818;stroke-width:1.0;"/><polygon fill="none" points="335.41,410.91,324.19,392.93,344.17,399.99,335.41,410.91" style="stroke:#181818;stroke-width:1.0;"/></g><!--MD5=[eaea43e34e45c5b9d20b595fc78f1f20]
link Company to Administrator--><g id="link_Company_Administrator"><path codeLine="39" d="M274.4,63.3 C301.96,86.51 340.83,119.26 365.21,139.8 " fill="none" id="Company-Administrator" style="stroke:#181818;stroke-width:1.0;"/><polygon fill="#000000" points="336.824,104.7878,331.7998,96.7126,328.0129,101.2079,336.824,104.7878" style="stroke:#000000;stroke-width:1.0;"/><text fill="#000000" font-family="sans-serif" font-size="13" lengthAdjust="spacing" textLength="42" x="342" y="106.0669">knows</text><text fill="#000000" font-family="sans-serif" font-size="13" lengthAdjust="spacing" textLength="8" x="272.6125" y="83.1802">1</text><text fill="#000000" font-family="sans-serif" font-size="13" lengthAdjust="spacing" textLength="7" x="350.8159" y="129.0949">*</text></g><!--MD5=[eebe9b198877275d05dd12630ed9e401]
link Company to VaccinationCenter--><g id="link_Company_VaccinationCenter"><path codeLine="40" d="M238.32,63.31 C235.69,84.25 232.38,113.89 231,140 C228.96,178.72 231.28,221.97 234.3,256.92 " fill="none" id="Company-VaccinationCenter" style="stroke:#181818;stroke-width:1.0;"/><polygon fill="#000000" points="235.8962,165.0653,239.0223,156.0832,233.1457,155.9612,235.8962,165.0653" style="stroke:#000000;stroke-width:1.0;"/><text fill="#000000" font-family="sans-serif" font-size="13" lengthAdjust="spacing" textLength="60" x="245" y="164.5669">manages</text><text fill="#000000" font-family="sans-serif" font-size="13" lengthAdjust="spacing" textLength="8" x="228.64" y="83.1924">1</text><text fill="#000000" font-family="sans-serif" font-size="13" lengthAdjust="spacing" textLength="7" x="226.145" y="246.1077">*</text></g><!--MD5=[d497e8607f1e7b3d570c70d67196006d]
link Administrator to VaccinationCenter--><g id="link_Administrator_VaccinationCenter"><path codeLine="41" d="M370.97,180.13 C354.19,198.98 327.56,228.89 302.85,256.65 " fill="none" id="Administrator-VaccinationCenter" style="stroke:#181818;stroke-width:1.0;"/><polygon fill="#000000" points="341.6754,222.301,349.8848,217.4992,345.4945,213.5909,341.6754,222.301" style="stroke:#000000;stroke-width:1.0;"/><text fill="#000000" font-family="sans-serif" font-size="13" lengthAdjust="spacing" textLength="57" x="354" y="223.0669">registers</text><text fill="#000000" font-family="sans-serif" font-size="13" lengthAdjust="spacing" textLength="23" x="339.9459" y="199.9865">1..*</text><text fill="#000000" font-family="sans-serif" font-size="13" lengthAdjust="spacing" textLength="7" x="301.7642" y="245.8099">*</text></g><!--MD5=[b649bef0048cf03271726558ee7073ed]
link VaccinationCenter to Slot--><g id="link_VaccinationCenter_Slot"><path codeLine="42" d="M242,395.24 C242,421.3 242,449.96 242,471.8 " fill="none" id="VaccinationCenter-Slot" style="stroke:#181818;stroke-width:1.0;"/><polygon fill="#000000" points="247,438.5664,249.9389,429.5213,244.0611,429.5213,247,438.5664" style="stroke:#000000;stroke-width:1.0;"/><text fill="#000000" font-family="sans-serif" font-size="13" lengthAdjust="spacing" textLength="23" x="256" y="438.0669">has</text><text fill="#000000" font-family="sans-serif" font-size="13" lengthAdjust="spacing" textLength="8" x="233.6063" y="414.8783">1</text><text fill="#000000" font-family="sans-serif" font-size="13" lengthAdjust="spacing" textLength="7" x="234.3766" y="461.0418">*</text></g><!--MD5=[1193d9a41cfc992aadf4af1ed7f7a253]
link VaccinationCenter to Schedule--><g id="link_VaccinationCenter_Schedule"><path codeLine="43" d="M173.95,395.24 C147.97,421.3 119.38,449.96 97.6,471.8 " fill="none" id="VaccinationCenter-Schedule" style="stroke:#181818;stroke-width:1.0;"/><polygon fill="#000000" points="143.4693,437.1068,151.9374,432.7775,147.7754,428.6269,143.4693,437.1068" style="stroke:#000000;stroke-width:1.0;"/><text fill="#000000" font-family="sans-serif" font-size="13" lengthAdjust="spacing" textLength="23" x="156" y="438.0669">has</text><text fill="#000000" font-family="sans-serif" font-size="13" lengthAdjust="spacing" textLength="8" x="158.8576" y="414.8783">1</text><text fill="#000000" font-family="sans-serif" font-size="13" lengthAdjust="spacing" textLength="8" x="95.2287" y="461.0418">1</text></g><!--MD5=[621e86b706bec9720bc9ed1d445091d9]
link MassVaccinationCenter to VaccineType--><g id="link_MassVaccinationCenter_VaccineType"><path codeLine="44" d="M467,528.63 C467,551.73 467,591.32 467,621.99 " fill="none" id="MassVaccinationCenter-VaccineType" style="stroke:#181818;stroke-width:1.0;"/><polygon fill="#000000" points="472,588.5664,474.9389,579.5213,469.0611,579.5213,472,588.5664" style="stroke:#000000;stroke-width:1.0;"/><text fill="#000000" font-family="sans-serif" font-size="13" lengthAdjust="spacing" textLength="77" x="481" y="588.0669">administers</text><text fill="#000000" font-family="sans-serif" font-size="13" lengthAdjust="spacing" textLength="7" x="459.0156" y="548.4865">*</text><text fill="#000000" font-family="sans-serif" font-size="13" lengthAdjust="spacing" textLength="8" x="458.3625" y="610.7871">1</text></g><!--MD5=[16a05e4206df5437cf51ea6d752b3e4b]
@startuml
hide methods
top to bottom direction
skinparam classAttributeIconSize 0

class Company
{
  -designation
}

class Schedule{
-openingHour
-closingHour
}
class VaccinationCenter{
-name
-address
-phoneNumber
-emailAdress
-faxNumber
-websiteAddress
}
class Slot{
-numberOfVaccinesSlot
-duration
}

class MassVaccinationCenter extends VaccinationCenter{}


class Administrator {
}

class VaccineType {
-code
-description
-vaccineTechnology
}

Company "1" - - "*" Administrator : > knows
Company "1" - - "*" VaccinationCenter : > manages
Administrator "1..*" - - "*" VaccinationCenter : > registers
VaccinationCenter "1" - - "*" Slot : > has
VaccinationCenter "1" - - "1" Schedule : > has
MassVaccinationCenter "*" - - "1" VaccineType : administers >



@enduml

PlantUML version 1.2022.4(Sat Apr 09 14:29:17 WEST 2022)
(GPL source distribution)
Java Runtime: OpenJDK Runtime Environment
JVM: OpenJDK 64-Bit Server VM
Default Encoding: UTF-8
Language: en
Country: US
--></g></svg>