<?xml version="1.0" encoding="UTF-8" standalone="no"?><svg xmlns="http://www.w3.org/2000/svg" xmlns:xlink="http://www.w3.org/1999/xlink" contentStyleType="text/css" height="1200px" preserveAspectRatio="none" style="width:1774px;height:1200px;background:#FFFFFF;" version="1.1" viewBox="0 0 1774 1200" width="1774px" zoomAndPan="magnify"><defs/><g><!--MD5=[7b0cfd9e7522513355bc4d2674f12d2a]
class AnalyseCenterPerformanceUI--><g id="elem_AnalyseCenterPerformanceUI"><rect codeLine="2" fill="#F1F1F1" height="48" id="AnalyseCenterPerformanceUI" rx="2.5" ry="2.5" style="stroke:#181818;stroke-width:0.5;" width="218" x="1149" y="7"/><ellipse cx="1164" cy="23" fill="#ADD1B2" rx="11" ry="11" style="stroke:#181818;stroke-width:1.0;"/><path d="M1166,19.5 Q1166.2031,19 1166.4375,18.75 Q1166.6719,18.5 1166.9375,18.5 Q1167.4063,18.5 1167.7031,18.7813 Q1168,19.0625 1168,19.7188 L1168,21.2813 Q1168,21.9375 1167.7188,22.2188 Q1167.4375,22.5 1167,22.5 Q1166.6094,22.5 1166.3594,22.3281 Q1166.1094,22.1563 1166,21.7031 Q1165.9531,21.3906 1165.7813,21.2188 Q1165.4688,20.8906 1164.9063,20.7031 Q1164.3438,20.5 1163.7813,20.5 Q1163.0781,20.5 1162.4844,20.7813 Q1161.9063,21.0625 1161.4531,21.6875 Q1161,22.3125 1161,23.1719 L1161,24.0938 Q1161,25.125 1161.8438,25.8125 Q1162.6875,26.5 1164.1875,26.5 Q1165.0781,26.5 1165.7031,26.2969 Q1166.0625,26.1875 1166.4688,25.8281 Q1166.7344,25.625 1166.875,25.5625 Q1167.0156,25.5 1167.1875,25.5 Q1167.5156,25.5 1167.75,25.7656 Q1168,26.0156 1168,26.375 Q1168,26.7188 1167.6563,27.125 Q1167.1563,27.7188 1166.3594,28.0469 Q1165.3125,28.5 1164.0313,28.5 Q1162.5313,28.5 1161.3281,27.9063 Q1160.3594,27.4375 1159.6719,26.4219 Q1159,25.4063 1159,24.2031 L1159,23.1094 Q1159,21.8594 1159.5938,20.7656 Q1160.2031,19.6719 1161.25,19.0938 Q1162.3125,18.5 1163.5,18.5 Q1164.2188,18.5 1164.8438,18.75 Q1165.4688,19 1166,19.5 Z " fill="#000000"/><text fill="#000000" font-family="sans-serif" font-size="14" lengthAdjust="spacing" textLength="186" x="1178" y="28.7285">AnalyseCenterPerformanceUI</text><line style="stroke:#181818;stroke-width:0.5;" x1="1150" x2="1366" y1="39" y2="39"/><line style="stroke:#181818;stroke-width:0.5;" x1="1150" x2="1366" y1="47" y2="47"/></g><!--MD5=[ad586fe025efc8307d6b66bf6c839593]
class AnalyseCenterPerformanceController--><g id="elem_AnalyseCenterPerformanceController"><rect codeLine="4" fill="#F1F1F1" height="136.0469" id="AnalyseCenterPerformanceController" rx="2.5" ry="2.5" style="stroke:#181818;stroke-width:0.5;" width="414" x="1051" y="116"/><ellipse cx="1135.75" cy="132" fill="#ADD1B2" rx="11" ry="11" style="stroke:#181818;stroke-width:1.0;"/><path d="M1137.75,128.5 Q1137.9531,128 1138.1875,127.75 Q1138.4219,127.5 1138.6875,127.5 Q1139.1563,127.5 1139.4531,127.7813 Q1139.75,128.0625 1139.75,128.7188 L1139.75,130.2813 Q1139.75,130.9375 1139.4688,131.2188 Q1139.1875,131.5 1138.75,131.5 Q1138.3594,131.5 1138.1094,131.3281 Q1137.8594,131.1563 1137.75,130.7031 Q1137.7031,130.3906 1137.5313,130.2188 Q1137.2188,129.8906 1136.6563,129.7031 Q1136.0938,129.5 1135.5313,129.5 Q1134.8281,129.5 1134.2344,129.7813 Q1133.6563,130.0625 1133.2031,130.6875 Q1132.75,131.3125 1132.75,132.1719 L1132.75,133.0938 Q1132.75,134.125 1133.5938,134.8125 Q1134.4375,135.5 1135.9375,135.5 Q1136.8281,135.5 1137.4531,135.2969 Q1137.8125,135.1875 1138.2188,134.8281 Q1138.4844,134.625 1138.625,134.5625 Q1138.7656,134.5 1138.9375,134.5 Q1139.2656,134.5 1139.5,134.7656 Q1139.75,135.0156 1139.75,135.375 Q1139.75,135.7188 1139.4063,136.125 Q1138.9063,136.7188 1138.1094,137.0469 Q1137.0625,137.5 1135.7813,137.5 Q1134.2813,137.5 1133.0781,136.9063 Q1132.1094,136.4375 1131.4219,135.4219 Q1130.75,134.4063 1130.75,133.2031 L1130.75,132.1094 Q1130.75,130.8594 1131.3438,129.7656 Q1131.9531,128.6719 1133,128.0938 Q1134.0625,127.5 1135.25,127.5 Q1135.9688,127.5 1136.5938,127.75 Q1137.2188,128 1137.75,128.5 Z " fill="#000000"/><text fill="#000000" font-family="sans-serif" font-size="14" lengthAdjust="spacing" textLength="236" x="1156.25" y="137.7285">AnalyseCenterPerformanceController</text><line style="stroke:#181818;stroke-width:0.5;" x1="1052" x2="1464" y1="148" y2="148"/><line style="stroke:#181818;stroke-width:0.5;" x1="1052" x2="1464" y1="156" y2="156"/><ellipse cx="1062" cy="167" fill="#84BE84" rx="3" ry="3" style="stroke:#038048;stroke-width:1.0;"/><text fill="#000000" font-family="sans-serif" font-size="14" lengthAdjust="spacing" textLength="294" x="1071" y="174.5332">getCCVaccinationCenter() : VaccinationCenter</text><ellipse cx="1062" cy="184.6094" fill="#84BE84" rx="3" ry="3" style="stroke:#038048;stroke-width:1.0;"/><text fill="#000000" font-family="sans-serif" font-size="14" lengthAdjust="spacing" textLength="268" x="1071" y="192.1426">setTimeInterval(timeInterval : int) : boolean</text><ellipse cx="1062" cy="202.2188" fill="#84BE84" rx="3" ry="3" style="stroke:#038048;stroke-width:1.0;"/><text fill="#000000" font-family="sans-serif" font-size="14" lengthAdjust="spacing" textLength="388" x="1071" y="209.752">getArrivaNumberList(dayToCheck : LocalDate) : List&lt;Integer&gt;</text><ellipse cx="1062" cy="219.8281" fill="#84BE84" rx="3" ry="3" style="stroke:#038048;stroke-width:1.0;"/><text fill="#000000" font-family="sans-serif" font-size="14" lengthAdjust="spacing" textLength="219" x="1071" y="227.3613">getMaxSumSublist() : List&lt;Integer&gt;</text><ellipse cx="1062" cy="237.4375" fill="#84BE84" rx="3" ry="3" style="stroke:#038048;stroke-width:1.0;"/><text fill="#000000" font-family="sans-serif" font-size="14" lengthAdjust="spacing" textLength="270" x="1071" y="244.9707">findMaxSumSublistIndexes() : List&lt;Integer&gt;</text></g><!--MD5=[de60e6d4f424ae4d0522096f76a59010]
class VaccinationCenter--><g id="elem_VaccinationCenter"><rect codeLine="12" fill="#F1F1F1" height="65.6094" id="VaccinationCenter" rx="2.5" ry="2.5" style="stroke:#181818;stroke-width:0.5;" width="294" x="7" y="1128"/><ellipse cx="91.75" cy="1144" fill="#ADD1B2" rx="11" ry="11" style="stroke:#181818;stroke-width:1.0;"/><path d="M93.75,1140.5 Q93.9531,1140 94.1875,1139.75 Q94.4219,1139.5 94.6875,1139.5 Q95.1563,1139.5 95.4531,1139.7813 Q95.75,1140.0625 95.75,1140.7188 L95.75,1142.2813 Q95.75,1142.9375 95.4688,1143.2188 Q95.1875,1143.5 94.75,1143.5 Q94.3594,1143.5 94.1094,1143.3281 Q93.8594,1143.1563 93.75,1142.7031 Q93.7031,1142.3906 93.5313,1142.2188 Q93.2188,1141.8906 92.6563,1141.7031 Q92.0938,1141.5 91.5313,1141.5 Q90.8281,1141.5 90.2344,1141.7813 Q89.6563,1142.0625 89.2031,1142.6875 Q88.75,1143.3125 88.75,1144.1719 L88.75,1145.0938 Q88.75,1146.125 89.5938,1146.8125 Q90.4375,1147.5 91.9375,1147.5 Q92.8281,1147.5 93.4531,1147.2969 Q93.8125,1147.1875 94.2188,1146.8281 Q94.4844,1146.625 94.625,1146.5625 Q94.7656,1146.5 94.9375,1146.5 Q95.2656,1146.5 95.5,1146.7656 Q95.75,1147.0156 95.75,1147.375 Q95.75,1147.7188 95.4063,1148.125 Q94.9063,1148.7188 94.1094,1149.0469 Q93.0625,1149.5 91.7813,1149.5 Q90.2813,1149.5 89.0781,1148.9063 Q88.1094,1148.4375 87.4219,1147.4219 Q86.75,1146.4063 86.75,1145.2031 L86.75,1144.1094 Q86.75,1142.8594 87.3438,1141.7656 Q87.9531,1140.6719 89,1140.0938 Q90.0625,1139.5 91.25,1139.5 Q91.9688,1139.5 92.5938,1139.75 Q93.2188,1140 93.75,1140.5 Z " fill="#000000"/><text fill="#000000" font-family="sans-serif" font-size="14" lengthAdjust="spacing" textLength="116" x="112.25" y="1149.7285">VaccinationCenter</text><line style="stroke:#181818;stroke-width:0.5;" x1="8" x2="300" y1="1160" y2="1160"/><line style="stroke:#181818;stroke-width:0.5;" x1="8" x2="300" y1="1168" y2="1168"/><ellipse cx="18" cy="1179" fill="#84BE84" rx="3" ry="3" style="stroke:#038048;stroke-width:1.0;"/><text fill="#000000" font-family="sans-serif" font-size="14" lengthAdjust="spacing" textLength="268" x="27" y="1186.5332">getAppointmentStore() : AppointmentStore</text></g><!--MD5=[3b05b00339990c8bac96769c0a2fc94b]
class AppointmentStore--><g id="elem_AppointmentStore"><rect codeLine="16" fill="#F1F1F1" height="100.8281" id="AppointmentStore" rx="2.5" ry="2.5" style="stroke:#181818;stroke-width:0.5;" width="544" x="811" y="474"/><ellipse cx="1022.25" cy="490" fill="#ADD1B2" rx="11" ry="11" style="stroke:#181818;stroke-width:1.0;"/><path d="M1024.25,486.5 Q1024.4531,486 1024.6875,485.75 Q1024.9219,485.5 1025.1875,485.5 Q1025.6563,485.5 1025.9531,485.7813 Q1026.25,486.0625 1026.25,486.7188 L1026.25,488.2813 Q1026.25,488.9375 1025.9688,489.2188 Q1025.6875,489.5 1025.25,489.5 Q1024.8594,489.5 1024.6094,489.3281 Q1024.3594,489.1563 1024.25,488.7031 Q1024.2031,488.3906 1024.0313,488.2188 Q1023.7188,487.8906 1023.1563,487.7031 Q1022.5938,487.5 1022.0313,487.5 Q1021.3281,487.5 1020.7344,487.7813 Q1020.1563,488.0625 1019.7031,488.6875 Q1019.25,489.3125 1019.25,490.1719 L1019.25,491.0938 Q1019.25,492.125 1020.0938,492.8125 Q1020.9375,493.5 1022.4375,493.5 Q1023.3281,493.5 1023.9531,493.2969 Q1024.3125,493.1875 1024.7188,492.8281 Q1024.9844,492.625 1025.125,492.5625 Q1025.2656,492.5 1025.4375,492.5 Q1025.7656,492.5 1026,492.7656 Q1026.25,493.0156 1026.25,493.375 Q1026.25,493.7188 1025.9063,494.125 Q1025.4063,494.7188 1024.6094,495.0469 Q1023.5625,495.5 1022.2813,495.5 Q1020.7813,495.5 1019.5781,494.9063 Q1018.6094,494.4375 1017.9219,493.4219 Q1017.25,492.4063 1017.25,491.2031 L1017.25,490.1094 Q1017.25,488.8594 1017.8438,487.7656 Q1018.4531,486.6719 1019.5,486.0938 Q1020.5625,485.5 1021.75,485.5 Q1022.4688,485.5 1023.0938,485.75 Q1023.7188,486 1024.25,486.5 Z " fill="#000000"/><text fill="#000000" font-family="sans-serif" font-size="14" lengthAdjust="spacing" textLength="113" x="1042.75" y="495.7285">AppointmentStore</text><line style="stroke:#181818;stroke-width:0.5;" x1="812" x2="1354" y1="506" y2="506"/><rect fill="none" height="6" style="stroke:#C82930;stroke-width:1.0;" width="6" x="819" y="514"/><text fill="#000000" font-family="sans-serif" font-size="14" lengthAdjust="spacing" textLength="225" x="831" y="524.5332">listAppointment : List&lt;Appointment&gt;</text><line style="stroke:#181818;stroke-width:0.5;" x1="812" x2="1354" y1="531.6094" y2="531.6094"/><ellipse cx="822" cy="542.6094" fill="#84BE84" rx="3" ry="3" style="stroke:#038048;stroke-width:1.0;"/><text fill="#000000" font-family="sans-serif" font-size="14" lengthAdjust="spacing" textLength="298" x="831" y="550.1426">validateTimeInterval(timeInterval : int) : boolean</text><ellipse cx="822" cy="560.2188" fill="#84BE84" rx="3" ry="3" style="stroke:#038048;stroke-width:1.0;"/><text fill="#000000" font-family="sans-serif" font-size="14" lengthAdjust="spacing" textLength="518" x="831" y="567.752">getArrivalNumberList((dayToCheck : LocalDate), (timeInterval : int)) : List&lt;Integer&gt;</text></g><!--MD5=[c508b5b6bbe276ff5e2700b6641f837f]
class Appointment--><g id="elem_Appointment"><rect codeLine="22" fill="#F1F1F1" height="224.0938" id="Appointment" rx="2.5" ry="2.5" style="stroke:#181818;stroke-width:0.5;" width="267" x="949.5" y="653"/><ellipse cx="1039.25" cy="669" fill="#ADD1B2" rx="11" ry="11" style="stroke:#181818;stroke-width:1.0;"/><path d="M1041.25,665.5 Q1041.4531,665 1041.6875,664.75 Q1041.9219,664.5 1042.1875,664.5 Q1042.6563,664.5 1042.9531,664.7813 Q1043.25,665.0625 1043.25,665.7188 L1043.25,667.2813 Q1043.25,667.9375 1042.9688,668.2188 Q1042.6875,668.5 1042.25,668.5 Q1041.8594,668.5 1041.6094,668.3281 Q1041.3594,668.1563 1041.25,667.7031 Q1041.2031,667.3906 1041.0313,667.2188 Q1040.7188,666.8906 1040.1563,666.7031 Q1039.5938,666.5 1039.0313,666.5 Q1038.3281,666.5 1037.7344,666.7813 Q1037.1563,667.0625 1036.7031,667.6875 Q1036.25,668.3125 1036.25,669.1719 L1036.25,670.0938 Q1036.25,671.125 1037.0938,671.8125 Q1037.9375,672.5 1039.4375,672.5 Q1040.3281,672.5 1040.9531,672.2969 Q1041.3125,672.1875 1041.7188,671.8281 Q1041.9844,671.625 1042.125,671.5625 Q1042.2656,671.5 1042.4375,671.5 Q1042.7656,671.5 1043,671.7656 Q1043.25,672.0156 1043.25,672.375 Q1043.25,672.7188 1042.9063,673.125 Q1042.4063,673.7188 1041.6094,674.0469 Q1040.5625,674.5 1039.2813,674.5 Q1037.7813,674.5 1036.5781,673.9063 Q1035.6094,673.4375 1034.9219,672.4219 Q1034.25,671.4063 1034.25,670.2031 L1034.25,669.1094 Q1034.25,667.8594 1034.8438,666.7656 Q1035.4531,665.6719 1036.5,665.0938 Q1037.5625,664.5 1038.75,664.5 Q1039.4688,664.5 1040.0938,664.75 Q1040.7188,665 1041.25,665.5 Z " fill="#000000"/><text fill="#000000" font-family="sans-serif" font-size="14" lengthAdjust="spacing" textLength="79" x="1059.75" y="674.7285">Appointment</text><line style="stroke:#181818;stroke-width:0.5;" x1="950.5" x2="1215.5" y1="685" y2="685"/><rect fill="none" height="6" style="stroke:#C82930;stroke-width:1.0;" width="6" x="957.5" y="693"/><text fill="#000000" font-family="sans-serif" font-size="14" lengthAdjust="spacing" textLength="76" x="969.5" y="703.5332">state : State</text><rect fill="none" height="6" style="stroke:#C82930;stroke-width:1.0;" width="6" x="957.5" y="710.6094"/><text fill="#000000" font-family="sans-serif" font-size="14" lengthAdjust="spacing" textLength="199" x="969.5" y="721.1426">snsUserArrivalTime : LocalTime</text><rect fill="none" height="6" style="stroke:#C82930;stroke-width:1.0;" width="6" x="957.5" y="728.2188"/><text fill="#000000" font-family="sans-serif" font-size="14" lengthAdjust="spacing" textLength="205" x="969.5" y="738.752">snsUserLeavingTime  LocalTime</text><rect fill="none" height="6" style="stroke:#C82930;stroke-width:1.0;" width="6" x="957.5" y="745.8281"/><text fill="#000000" font-family="sans-serif" font-size="14" lengthAdjust="spacing" textLength="104" x="969.5" y="756.3613">date : LocalDate</text><line style="stroke:#181818;stroke-width:0.5;" x1="950.5" x2="1215.5" y1="763.4375" y2="763.4375"/><ellipse cx="960.5" cy="774.4375" fill="#84BE84" rx="3" ry="3" style="stroke:#038048;stroke-width:1.0;"/><text fill="#000000" font-family="sans-serif" font-size="14" lengthAdjust="spacing" textLength="177" x="969.5" y="781.9707">checkStateDone() : boolean</text><ellipse cx="960.5" cy="792.0469" fill="#84BE84" rx="3" ry="3" style="stroke:#038048;stroke-width:1.0;"/><text fill="#000000" font-family="sans-serif" font-size="14" lengthAdjust="spacing" textLength="178" x="969.5" y="799.5801">checkStateToDo() : boolean</text><ellipse cx="960.5" cy="809.6563" fill="#84BE84" rx="3" ry="3" style="stroke:#038048;stroke-width:1.0;"/><text fill="#000000" font-family="sans-serif" font-size="14" lengthAdjust="spacing" textLength="190" x="969.5" y="817.1895">checkStateWaiting() : boolean</text><ellipse cx="960.5" cy="827.2656" fill="#84BE84" rx="3" ry="3" style="stroke:#038048;stroke-width:1.0;"/><text fill="#000000" font-family="sans-serif" font-size="14" lengthAdjust="spacing" textLength="231" x="969.5" y="834.7988">getSnsUserArrivalTime() : LocalTime</text><ellipse cx="960.5" cy="844.875" fill="#84BE84" rx="3" ry="3" style="stroke:#038048;stroke-width:1.0;"/><text fill="#000000" font-family="sans-serif" font-size="14" lengthAdjust="spacing" textLength="241" x="969.5" y="852.4082">getSnsUserLeavingTime() : LocalTime</text><ellipse cx="960.5" cy="862.4844" fill="#84BE84" rx="3" ry="3" style="stroke:#038048;stroke-width:1.0;"/><text fill="#000000" font-family="sans-serif" font-size="14" lengthAdjust="spacing" textLength="136" x="969.5" y="870.0176">getDate() : LocalDate</text></g><!--MD5=[60d6b92408f98aed8df94d5c6e04aa63]
class State--><g id="elem_State"><rect codeLine="35" fill="#F1F1F1" height="111.5313" id="State" rx="2.5" ry="2.5" style="stroke:#181818;stroke-width:0.5;" width="112" x="1027" y="938"/><ellipse cx="1042" cy="959.3516" fill="#ADD1B2" rx="11" ry="11" style="stroke:#181818;stroke-width:1.0;"/><path d="M1044,955.8516 Q1044.2031,955.3516 1044.4375,955.1016 Q1044.6719,954.8516 1044.9375,954.8516 Q1045.4063,954.8516 1045.7031,955.1328 Q1046,955.4141 1046,956.0703 L1046,957.6328 Q1046,958.2891 1045.7188,958.5703 Q1045.4375,958.8516 1045,958.8516 Q1044.6094,958.8516 1044.3594,958.6797 Q1044.1094,958.5078 1044,958.0547 Q1043.9531,957.7422 1043.7813,957.5703 Q1043.4688,957.2422 1042.9063,957.0547 Q1042.3438,956.8516 1041.7813,956.8516 Q1041.0781,956.8516 1040.4844,957.1328 Q1039.9063,957.4141 1039.4531,958.0391 Q1039,958.6641 1039,959.5234 L1039,960.4453 Q1039,961.4766 1039.8438,962.1641 Q1040.6875,962.8516 1042.1875,962.8516 Q1043.0781,962.8516 1043.7031,962.6484 Q1044.0625,962.5391 1044.4688,962.1797 Q1044.7344,961.9766 1044.875,961.9141 Q1045.0156,961.8516 1045.1875,961.8516 Q1045.5156,961.8516 1045.75,962.1172 Q1046,962.3672 1046,962.7266 Q1046,963.0703 1045.6563,963.4766 Q1045.1563,964.0703 1044.3594,964.3984 Q1043.3125,964.8516 1042.0313,964.8516 Q1040.5313,964.8516 1039.3281,964.2578 Q1038.3594,963.7891 1037.6719,962.7734 Q1037,961.7578 1037,960.5547 L1037,959.4609 Q1037,958.2109 1037.5938,957.1172 Q1038.2031,956.0234 1039.25,955.4453 Q1040.3125,954.8516 1041.5,954.8516 Q1042.2188,954.8516 1042.8438,955.1016 Q1043.4688,955.3516 1044,955.8516 Z " fill="#000000"/><text fill="#000000" font-family="sans-serif" font-size="12" font-style="italic" lengthAdjust="spacing" textLength="84" x="1054" y="955.457">«enumeration»</text><text fill="#000000" font-family="sans-serif" font-size="14" lengthAdjust="spacing" textLength="33" x="1079.5" y="972.627">State</text><line style="stroke:#181818;stroke-width:0.5;" x1="1028" x2="1138" y1="980.7031" y2="980.7031"/><rect fill="none" height="6" style="stroke:#C82930;stroke-width:1.0;" width="6" x="1035" y="988.7031"/><text fill="#000000" font-family="sans-serif" font-size="14" lengthAdjust="spacing" textLength="41" x="1047" y="999.2363">TODO</text><rect fill="none" height="6" style="stroke:#C82930;stroke-width:1.0;" width="6" x="1035" y="1006.3125"/><text fill="#000000" font-family="sans-serif" font-size="14" lengthAdjust="spacing" textLength="57" x="1047" y="1016.8457">WAITING</text><rect fill="none" height="6" style="stroke:#C82930;stroke-width:1.0;" width="6" x="1035" y="1023.9219"/><text fill="#000000" font-family="sans-serif" font-size="14" lengthAdjust="spacing" textLength="39" x="1047" y="1034.4551">DONE</text><line style="stroke:#181818;stroke-width:0.5;" x1="1028" x2="1138" y1="1041.5313" y2="1041.5313"/></g><!--MD5=[a7b5dea336b186cdec6444ee37587832]
class MaximumSum--><g id="elem_MaximumSum"><rect codeLine="41" fill="#F1F1F1" height="83.2188" id="MaximumSum" rx="2.5" ry="2.5" style="stroke:#181818;stroke-width:0.5;" width="717" x="487.5" y="313"/><ellipse cx="798.75" cy="329" fill="#ADD1B2" rx="11" ry="11" style="stroke:#181818;stroke-width:1.0;"/><path d="M800.75,325.5 Q800.9531,325 801.1875,324.75 Q801.4219,324.5 801.6875,324.5 Q802.1563,324.5 802.4531,324.7813 Q802.75,325.0625 802.75,325.7188 L802.75,327.2813 Q802.75,327.9375 802.4688,328.2188 Q802.1875,328.5 801.75,328.5 Q801.3594,328.5 801.1094,328.3281 Q800.8594,328.1563 800.75,327.7031 Q800.7031,327.3906 800.5313,327.2188 Q800.2188,326.8906 799.6563,326.7031 Q799.0938,326.5 798.5313,326.5 Q797.8281,326.5 797.2344,326.7813 Q796.6563,327.0625 796.2031,327.6875 Q795.75,328.3125 795.75,329.1719 L795.75,330.0938 Q795.75,331.125 796.5938,331.8125 Q797.4375,332.5 798.9375,332.5 Q799.8281,332.5 800.4531,332.2969 Q800.8125,332.1875 801.2188,331.8281 Q801.4844,331.625 801.625,331.5625 Q801.7656,331.5 801.9375,331.5 Q802.2656,331.5 802.5,331.7656 Q802.75,332.0156 802.75,332.375 Q802.75,332.7188 802.4063,333.125 Q801.9063,333.7188 801.1094,334.0469 Q800.0625,334.5 798.7813,334.5 Q797.2813,334.5 796.0781,333.9063 Q795.1094,333.4375 794.4219,332.4219 Q793.75,331.4063 793.75,330.2031 L793.75,329.1094 Q793.75,327.8594 794.3438,326.7656 Q794.9531,325.6719 796,325.0938 Q797.0625,324.5 798.25,324.5 Q798.9688,324.5 799.5938,324.75 Q800.2188,325 800.75,325.5 Z " fill="#000000"/><text fill="#000000" font-family="sans-serif" font-size="14" lengthAdjust="spacing" textLength="86" x="819.25" y="334.7285">MaximumSum</text><line style="stroke:#181818;stroke-width:0.5;" x1="488.5" x2="1203.5" y1="345" y2="345"/><line style="stroke:#181818;stroke-width:0.5;" x1="488.5" x2="1203.5" y1="353" y2="353"/><ellipse cx="498.5" cy="364" fill="#84BE84" rx="3" ry="3" style="stroke:#038048;stroke-width:1.0;"/><text fill="#000000" font-family="sans-serif" font-size="14" lengthAdjust="spacing" textLength="423" x="507.5" y="371.5332">getMaxSumSublist(arrivalNumberList : List&lt;Integer&gt;) : List&lt;Integer&gt;</text><ellipse cx="498.5" cy="381.6094" fill="#84BE84" rx="3" ry="3" style="stroke:#038048;stroke-width:1.0;"/><text fill="#000000" font-family="sans-serif" font-size="14" lengthAdjust="spacing" textLength="691" x="507.5" y="389.1426">findMaxSumSublistIndexes((arrivalNumberList : List&lt;Integer&gt;), (maxSumSublist : List&lt;Integer&gt;)) : List&lt;Integer&gt;</text></g><!--MD5=[a9d1bcd58ad070c449c7ed3707156698]
class APP--><g id="elem_APP"><rect codeLine="46" fill="#F1F1F1" height="83.2188" id="APP" rx="2.5" ry="2.5" style="stroke:#181818;stroke-width:0.5;" width="274" x="178" y="313"/><ellipse cx="297.25" cy="329" fill="#ADD1B2" rx="11" ry="11" style="stroke:#181818;stroke-width:1.0;"/><path d="M299.25,325.5 Q299.4531,325 299.6875,324.75 Q299.9219,324.5 300.1875,324.5 Q300.6563,324.5 300.9531,324.7813 Q301.25,325.0625 301.25,325.7188 L301.25,327.2813 Q301.25,327.9375 300.9688,328.2188 Q300.6875,328.5 300.25,328.5 Q299.8594,328.5 299.6094,328.3281 Q299.3594,328.1563 299.25,327.7031 Q299.2031,327.3906 299.0313,327.2188 Q298.7188,326.8906 298.1563,326.7031 Q297.5938,326.5 297.0313,326.5 Q296.3281,326.5 295.7344,326.7813 Q295.1563,327.0625 294.7031,327.6875 Q294.25,328.3125 294.25,329.1719 L294.25,330.0938 Q294.25,331.125 295.0938,331.8125 Q295.9375,332.5 297.4375,332.5 Q298.3281,332.5 298.9531,332.2969 Q299.3125,332.1875 299.7188,331.8281 Q299.9844,331.625 300.125,331.5625 Q300.2656,331.5 300.4375,331.5 Q300.7656,331.5 301,331.7656 Q301.25,332.0156 301.25,332.375 Q301.25,332.7188 300.9063,333.125 Q300.4063,333.7188 299.6094,334.0469 Q298.5625,334.5 297.2813,334.5 Q295.7813,334.5 294.5781,333.9063 Q293.6094,333.4375 292.9219,332.4219 Q292.25,331.4063 292.25,330.2031 L292.25,329.1094 Q292.25,327.8594 292.8438,326.7656 Q293.4531,325.6719 294.5,325.0938 Q295.5625,324.5 296.75,324.5 Q297.4688,324.5 298.0938,324.75 Q298.7188,325 299.25,325.5 Z " fill="#000000"/><text fill="#000000" font-family="sans-serif" font-size="14" lengthAdjust="spacing" textLength="27" x="317.75" y="334.7285">APP</text><line style="stroke:#181818;stroke-width:0.5;" x1="179" x2="451" y1="345" y2="345"/><line style="stroke:#181818;stroke-width:0.5;" x1="179" x2="451" y1="353" y2="353"/><ellipse cx="189" cy="364" fill="#84BE84" rx="3" ry="3" style="stroke:#038048;stroke-width:1.0;"/><text fill="#000000" font-family="sans-serif" font-size="14" lengthAdjust="spacing" textLength="122" x="198" y="371.5332">getInstance() : APP</text><ellipse cx="189" cy="381.6094" fill="#84BE84" rx="3" ry="3" style="stroke:#038048;stroke-width:1.0;"/><text fill="#000000" font-family="sans-serif" font-size="14" lengthAdjust="spacing" textLength="248" x="198" y="389.1426">getCurrentUserSession() : UserSession</text></g><!--MD5=[c5b08e60048ef1bcd788d24cf324082e]
class UserSession--><g id="elem_UserSession"><rect codeLine="51" fill="#F1F1F1" height="65.6094" id="UserSession" rx="2.5" ry="2.5" style="stroke:#181818;stroke-width:0.5;" width="144" x="243" y="491.5"/><ellipse cx="272.85" cy="507.5" fill="#ADD1B2" rx="11" ry="11" style="stroke:#181818;stroke-width:1.0;"/><path d="M274.85,504 Q275.0531,503.5 275.2875,503.25 Q275.5219,503 275.7875,503 Q276.2563,503 276.5531,503.2813 Q276.85,503.5625 276.85,504.2188 L276.85,505.7813 Q276.85,506.4375 276.5688,506.7188 Q276.2875,507 275.85,507 Q275.4594,507 275.2094,506.8281 Q274.9594,506.6563 274.85,506.2031 Q274.8031,505.8906 274.6313,505.7188 Q274.3188,505.3906 273.7563,505.2031 Q273.1938,505 272.6313,505 Q271.9281,505 271.3344,505.2813 Q270.7563,505.5625 270.3031,506.1875 Q269.85,506.8125 269.85,507.6719 L269.85,508.5938 Q269.85,509.625 270.6938,510.3125 Q271.5375,511 273.0375,511 Q273.9281,511 274.5531,510.7969 Q274.9125,510.6875 275.3188,510.3281 Q275.5844,510.125 275.725,510.0625 Q275.8656,510 276.0375,510 Q276.3656,510 276.6,510.2656 Q276.85,510.5156 276.85,510.875 Q276.85,511.2188 276.5063,511.625 Q276.0063,512.2188 275.2094,512.5469 Q274.1625,513 272.8813,513 Q271.3813,513 270.1781,512.4063 Q269.2094,511.9375 268.5219,510.9219 Q267.85,509.9063 267.85,508.7031 L267.85,507.6094 Q267.85,506.3594 268.4438,505.2656 Q269.0531,504.1719 270.1,503.5938 Q271.1625,503 272.35,503 Q273.0688,503 273.6938,503.25 Q274.3188,503.5 274.85,504 Z " fill="#000000"/><text fill="#000000" font-family="sans-serif" font-size="14" lengthAdjust="spacing" textLength="79" x="290.15" y="513.2285">UserSession</text><line style="stroke:#181818;stroke-width:0.5;" x1="244" x2="386" y1="523.5" y2="523.5"/><line style="stroke:#181818;stroke-width:0.5;" x1="244" x2="386" y1="531.5" y2="531.5"/><ellipse cx="254" cy="542.5" fill="#84BE84" rx="3" ry="3" style="stroke:#038048;stroke-width:1.0;"/><text fill="#000000" font-family="sans-serif" font-size="14" lengthAdjust="spacing" textLength="118" x="263" y="550.0332">getUserID() : Email</text></g><!--MD5=[02e4b9b7573f1156f41e60aa5b4e25a4]
class Company--><g id="elem_Company"><rect codeLine="55" fill="#F1F1F1" height="65.6094" id="Company" rx="2.5" ry="2.5" style="stroke:#181818;stroke-width:0.5;" width="260" x="1311" y="321.5"/><ellipse cx="1406.75" cy="337.5" fill="#ADD1B2" rx="11" ry="11" style="stroke:#181818;stroke-width:1.0;"/><path d="M1408.75,334 Q1408.9531,333.5 1409.1875,333.25 Q1409.4219,333 1409.6875,333 Q1410.1563,333 1410.4531,333.2813 Q1410.75,333.5625 1410.75,334.2188 L1410.75,335.7813 Q1410.75,336.4375 1410.4688,336.7188 Q1410.1875,337 1409.75,337 Q1409.3594,337 1409.1094,336.8281 Q1408.8594,336.6563 1408.75,336.2031 Q1408.7031,335.8906 1408.5313,335.7188 Q1408.2188,335.3906 1407.6563,335.2031 Q1407.0938,335 1406.5313,335 Q1405.8281,335 1405.2344,335.2813 Q1404.6563,335.5625 1404.2031,336.1875 Q1403.75,336.8125 1403.75,337.6719 L1403.75,338.5938 Q1403.75,339.625 1404.5938,340.3125 Q1405.4375,341 1406.9375,341 Q1407.8281,341 1408.4531,340.7969 Q1408.8125,340.6875 1409.2188,340.3281 Q1409.4844,340.125 1409.625,340.0625 Q1409.7656,340 1409.9375,340 Q1410.2656,340 1410.5,340.2656 Q1410.75,340.5156 1410.75,340.875 Q1410.75,341.2188 1410.4063,341.625 Q1409.9063,342.2188 1409.1094,342.5469 Q1408.0625,343 1406.7813,343 Q1405.2813,343 1404.0781,342.4063 Q1403.1094,341.9375 1402.4219,340.9219 Q1401.75,339.9063 1401.75,338.7031 L1401.75,337.6094 Q1401.75,336.3594 1402.3438,335.2656 Q1402.9531,334.1719 1404,333.5938 Q1405.0625,333 1406.25,333 Q1406.9688,333 1407.5938,333.25 Q1408.2188,333.5 1408.75,334 Z " fill="#000000"/><text fill="#000000" font-family="sans-serif" font-size="14" lengthAdjust="spacing" textLength="60" x="1427.25" y="343.2285">Company</text><line style="stroke:#181818;stroke-width:0.5;" x1="1312" x2="1570" y1="353.5" y2="353.5"/><line style="stroke:#181818;stroke-width:0.5;" x1="1312" x2="1570" y1="361.5" y2="361.5"/><ellipse cx="1322" cy="372.5" fill="#84BE84" rx="3" ry="3" style="stroke:#038048;stroke-width:1.0;"/><text fill="#000000" font-family="sans-serif" font-size="14" lengthAdjust="spacing" textLength="234" x="1331" y="380.0332">getEmployeeStore() : EmployeeStore</text></g><!--MD5=[829fb52c07ade3ad64ef85b99d1fca10]
class EmployeeStore--><g id="elem_EmployeeStore"><rect codeLine="59" fill="#F1F1F1" height="83.2188" id="EmployeeStore" rx="2.5" ry="2.5" style="stroke:#181818;stroke-width:0.5;" width="324" x="1390" y="483"/><ellipse cx="1499.75" cy="499" fill="#ADD1B2" rx="11" ry="11" style="stroke:#181818;stroke-width:1.0;"/><path d="M1501.75,495.5 Q1501.9531,495 1502.1875,494.75 Q1502.4219,494.5 1502.6875,494.5 Q1503.1563,494.5 1503.4531,494.7813 Q1503.75,495.0625 1503.75,495.7188 L1503.75,497.2813 Q1503.75,497.9375 1503.4688,498.2188 Q1503.1875,498.5 1502.75,498.5 Q1502.3594,498.5 1502.1094,498.3281 Q1501.8594,498.1563 1501.75,497.7031 Q1501.7031,497.3906 1501.5313,497.2188 Q1501.2188,496.8906 1500.6563,496.7031 Q1500.0938,496.5 1499.5313,496.5 Q1498.8281,496.5 1498.2344,496.7813 Q1497.6563,497.0625 1497.2031,497.6875 Q1496.75,498.3125 1496.75,499.1719 L1496.75,500.0938 Q1496.75,501.125 1497.5938,501.8125 Q1498.4375,502.5 1499.9375,502.5 Q1500.8281,502.5 1501.4531,502.2969 Q1501.8125,502.1875 1502.2188,501.8281 Q1502.4844,501.625 1502.625,501.5625 Q1502.7656,501.5 1502.9375,501.5 Q1503.2656,501.5 1503.5,501.7656 Q1503.75,502.0156 1503.75,502.375 Q1503.75,502.7188 1503.4063,503.125 Q1502.9063,503.7188 1502.1094,504.0469 Q1501.0625,504.5 1499.7813,504.5 Q1498.2813,504.5 1497.0781,503.9063 Q1496.1094,503.4375 1495.4219,502.4219 Q1494.75,501.4063 1494.75,500.2031 L1494.75,499.1094 Q1494.75,497.8594 1495.3438,496.7656 Q1495.9531,495.6719 1497,495.0938 Q1498.0625,494.5 1499.25,494.5 Q1499.9688,494.5 1500.5938,494.75 Q1501.2188,495 1501.75,495.5 Z " fill="#000000"/><text fill="#000000" font-family="sans-serif" font-size="14" lengthAdjust="spacing" textLength="96" x="1520.25" y="504.7285">EmployeeStore</text><line style="stroke:#181818;stroke-width:0.5;" x1="1391" x2="1713" y1="515" y2="515"/><rect fill="none" height="6" style="stroke:#C82930;stroke-width:1.0;" width="6" x="1398" y="523"/><text fill="#000000" font-family="sans-serif" font-size="14" lengthAdjust="spacing" textLength="195" x="1410" y="533.5332">employeeList : List&lt;Employee&gt;</text><line style="stroke:#181818;stroke-width:0.5;" x1="1391" x2="1713" y1="540.6094" y2="540.6094"/><ellipse cx="1401" cy="551.6094" fill="#84BE84" rx="3" ry="3" style="stroke:#038048;stroke-width:1.0;"/><text fill="#000000" font-family="sans-serif" font-size="14" lengthAdjust="spacing" textLength="298" x="1410" y="559.1426">findEmployeeByEmail(email : Email) : Employee</text></g><!--MD5=[2d935fd2dd068a13da1ae531f9857c4f]
class CenterCoordinator--><g id="elem_CenterCoordinator"><rect codeLine="64" fill="#F1F1F1" height="65.6094" id="CenterCoordinator" rx="2.5" ry="2.5" style="stroke:#181818;stroke-width:0.5;" width="297" x="1403.5" y="961"/><ellipse cx="1488.75" cy="977" fill="#ADD1B2" rx="11" ry="11" style="stroke:#181818;stroke-width:1.0;"/><path d="M1490.75,973.5 Q1490.9531,973 1491.1875,972.75 Q1491.4219,972.5 1491.6875,972.5 Q1492.1563,972.5 1492.4531,972.7813 Q1492.75,973.0625 1492.75,973.7188 L1492.75,975.2813 Q1492.75,975.9375 1492.4688,976.2188 Q1492.1875,976.5 1491.75,976.5 Q1491.3594,976.5 1491.1094,976.3281 Q1490.8594,976.1563 1490.75,975.7031 Q1490.7031,975.3906 1490.5313,975.2188 Q1490.2188,974.8906 1489.6563,974.7031 Q1489.0938,974.5 1488.5313,974.5 Q1487.8281,974.5 1487.2344,974.7813 Q1486.6563,975.0625 1486.2031,975.6875 Q1485.75,976.3125 1485.75,977.1719 L1485.75,978.0938 Q1485.75,979.125 1486.5938,979.8125 Q1487.4375,980.5 1488.9375,980.5 Q1489.8281,980.5 1490.4531,980.2969 Q1490.8125,980.1875 1491.2188,979.8281 Q1491.4844,979.625 1491.625,979.5625 Q1491.7656,979.5 1491.9375,979.5 Q1492.2656,979.5 1492.5,979.7656 Q1492.75,980.0156 1492.75,980.375 Q1492.75,980.7188 1492.4063,981.125 Q1491.9063,981.7188 1491.1094,982.0469 Q1490.0625,982.5 1488.7813,982.5 Q1487.2813,982.5 1486.0781,981.9063 Q1485.1094,981.4375 1484.4219,980.4219 Q1483.75,979.4063 1483.75,978.2031 L1483.75,977.1094 Q1483.75,975.8594 1484.3438,974.7656 Q1484.9531,973.6719 1486,973.0938 Q1487.0625,972.5 1488.25,972.5 Q1488.9688,972.5 1489.5938,972.75 Q1490.2188,973 1490.75,973.5 Z " fill="#000000"/><text fill="#000000" font-family="sans-serif" font-size="14" lengthAdjust="spacing" textLength="118" x="1509.25" y="982.7285">CenterCoordinator</text><line style="stroke:#181818;stroke-width:0.5;" x1="1404.5" x2="1699.5" y1="993" y2="993"/><line style="stroke:#181818;stroke-width:0.5;" x1="1404.5" x2="1699.5" y1="1001" y2="1001"/><ellipse cx="1414.5" cy="1012" fill="#84BE84" rx="3" ry="3" style="stroke:#038048;stroke-width:1.0;"/><text fill="#000000" font-family="sans-serif" font-size="14" lengthAdjust="spacing" textLength="271" x="1423.5" y="1019.5332">getVaccinationcenter() : VaccinationCenter</text></g><!--MD5=[7421f545a0d8420c5bec41e74b387d9c]
class Employee--><g id="elem_Employee"><rect codeLine="68" fill="#F1F1F1" height="48" id="Employee" rx="2.5" ry="2.5" style="stroke:#181818;stroke-width:0.5;" width="94" x="1505" y="741"/><ellipse cx="1520" cy="757" fill="#ADD1B2" rx="11" ry="11" style="stroke:#181818;stroke-width:1.0;"/><path d="M1522,753.5 Q1522.2031,753 1522.4375,752.75 Q1522.6719,752.5 1522.9375,752.5 Q1523.4063,752.5 1523.7031,752.7813 Q1524,753.0625 1524,753.7188 L1524,755.2813 Q1524,755.9375 1523.7188,756.2188 Q1523.4375,756.5 1523,756.5 Q1522.6094,756.5 1522.3594,756.3281 Q1522.1094,756.1563 1522,755.7031 Q1521.9531,755.3906 1521.7813,755.2188 Q1521.4688,754.8906 1520.9063,754.7031 Q1520.3438,754.5 1519.7813,754.5 Q1519.0781,754.5 1518.4844,754.7813 Q1517.9063,755.0625 1517.4531,755.6875 Q1517,756.3125 1517,757.1719 L1517,758.0938 Q1517,759.125 1517.8438,759.8125 Q1518.6875,760.5 1520.1875,760.5 Q1521.0781,760.5 1521.7031,760.2969 Q1522.0625,760.1875 1522.4688,759.8281 Q1522.7344,759.625 1522.875,759.5625 Q1523.0156,759.5 1523.1875,759.5 Q1523.5156,759.5 1523.75,759.7656 Q1524,760.0156 1524,760.375 Q1524,760.7188 1523.6563,761.125 Q1523.1563,761.7188 1522.3594,762.0469 Q1521.3125,762.5 1520.0313,762.5 Q1518.5313,762.5 1517.3281,761.9063 Q1516.3594,761.4375 1515.6719,760.4219 Q1515,759.4063 1515,758.2031 L1515,757.1094 Q1515,755.8594 1515.5938,754.7656 Q1516.2031,753.6719 1517.25,753.0938 Q1518.3125,752.5 1519.5,752.5 Q1520.2188,752.5 1520.8438,752.75 Q1521.4688,753 1522,753.5 Z " fill="#000000"/><text fill="#000000" font-family="sans-serif" font-size="14" lengthAdjust="spacing" textLength="62" x="1534" y="762.7285">Employee</text><line style="stroke:#181818;stroke-width:0.5;" x1="1506" x2="1598" y1="773" y2="773"/><line style="stroke:#181818;stroke-width:0.5;" x1="1506" x2="1598" y1="781" y2="781"/></g><!--MD5=[98f7f3dc8d9719d04ad14614c4ea123f]
reverse link Employee to CenterCoordinator--><g id="link_Employee_CenterCoordinator"><path d="M1552,809.17 C1552,853.39 1552,921.13 1552,960.86 " fill="none" id="Employee-backto-CenterCoordinator" style="stroke:#181818;stroke-width:1.0;"/><polygon fill="none" points="1545,809.02,1552,789.02,1559,809.02,1545,809.02" style="stroke:#181818;stroke-width:1.0;"/></g><!--MD5=[1d13de5e760cdeae93ca6db6fe28e2cb]
link AnalyseCenterPerformanceUI to AnalyseCenterPerformanceController--><g id="link_AnalyseCenterPerformanceUI_AnalyseCenterPerformanceController"><path codeLine="70" d="M1258,55.26 C1258,70.29 1258,90.72 1258,110.84 " fill="none" id="AnalyseCenterPerformanceUI-to-AnalyseCenterPerformanceController" style="stroke:#181818;stroke-width:1.0;stroke-dasharray:7.0,7.0;"/><polygon fill="#181818" points="1258,115.95,1262,106.95,1258,110.95,1254,106.95,1258,115.95" style="stroke:#181818;stroke-width:1.0;"/></g><!--MD5=[071814246eb2b3e98806f8552a20e036]
link AnalyseCenterPerformanceController to APP--><g id="link_AnalyseCenterPerformanceController_APP"><path codeLine="71" d="M1050.86,213.18 C891.36,236.2 665.78,271.62 470,313 C465.79,313.89 461.53,314.82 457.24,315.78 " fill="none" id="AnalyseCenterPerformanceController-to-APP" style="stroke:#181818;stroke-width:1.0;stroke-dasharray:7.0,7.0;"/><polygon fill="#181818" points="452.18,316.92,461.8388,318.8455,457.0579,315.8218,460.0816,311.0409,452.18,316.92" style="stroke:#181818;stroke-width:1.0;"/></g><!--MD5=[5d9cbe4c40a0e31535acea639b04f123]
link APP to UserSession--><g id="link_APP_UserSession"><path codeLine="72" d="M315,396.17 C315,423.57 315,459.45 315,486.13 " fill="none" id="APP-to-UserSession" style="stroke:#181818;stroke-width:1.0;stroke-dasharray:7.0,7.0;"/><polygon fill="#181818" points="315,491.34,319,482.34,315,486.34,311,482.34,315,491.34" style="stroke:#181818;stroke-width:1.0;"/></g><!--MD5=[cc56671b7038e21fc613037a00d35007]
link AnalyseCenterPerformanceController to Company--><g id="link_AnalyseCenterPerformanceController_Company"><path codeLine="73" d="M1330.85,252.08 C1355.25,274.54 1381.49,298.71 1402.24,317.81 " fill="none" id="AnalyseCenterPerformanceController-to-Company" style="stroke:#181818;stroke-width:1.0;stroke-dasharray:7.0,7.0;"/><polygon fill="#181818" points="1406.05,321.32,1402.1455,312.2782,1402.3743,317.9304,1396.7221,318.1592,1406.05,321.32" style="stroke:#181818;stroke-width:1.0;"/></g><!--MD5=[8f66ee11f8cbee5b5be0c7b5a354bc2e]
link AnalyseCenterPerformanceController to EmployeeStore--><g id="link_AnalyseCenterPerformanceController_EmployeeStore"><path codeLine="74" d="M1465.42,222.72 C1513.77,241.69 1559.65,270.18 1589,313 C1622.77,362.27 1599.44,432.8 1577.47,478.38 " fill="none" id="AnalyseCenterPerformanceController-to-EmployeeStore" style="stroke:#181818;stroke-width:1.0;stroke-dasharray:7.0,7.0;"/><polygon fill="#181818" points="1575.21,482.99,1582.7644,476.6709,1577.4117,478.5008,1575.5817,473.1482,1575.21,482.99" style="stroke:#181818;stroke-width:1.0;"/></g><!--MD5=[20d542767e4e576dcbf1ed21d1f736b6]
link AnalyseCenterPerformanceController to CenterCoordinator--><g id="link_AnalyseCenterPerformanceController_CenterCoordinator"><path codeLine="75" d="M1465.03,215.05 C1605.95,241.54 1767,286.48 1767,353.5 C1767,353.5 1767,353.5 1767,766 C1767,853.2 1682.34,920.35 1619.27,958.27 " fill="none" id="AnalyseCenterPerformanceController-to-CenterCoordinator" style="stroke:#181818;stroke-width:1.0;stroke-dasharray:7.0,7.0;"/><polygon fill="#181818" points="1614.76,960.95,1624.54,959.7878,1619.0575,958.3943,1620.451,952.9118,1614.76,960.95" style="stroke:#181818;stroke-width:1.0;"/></g><!--MD5=[7d0123f51dbf86da34d5f2ae14f849e2]
link AnalyseCenterPerformanceController to VaccinationCenter--><g id="link_AnalyseCenterPerformanceController_VaccinationCenter"><path codeLine="76" d="M1050.85,191.37 C776.54,202.81 309.93,233.59 160,313 C138.98,324.14 125,329.71 125,353.5 C125,353.5 125,353.5 125,995 C125,1039.31 135.27,1089.32 143.59,1122.55 " fill="none" id="AnalyseCenterPerformanceController-to-VaccinationCenter" style="stroke:#181818;stroke-width:1.0;stroke-dasharray:7.0,7.0;"/><polygon fill="#181818" points="144.9,1127.73,146.5641,1118.0227,143.6705,1122.8835,138.8097,1119.9899,144.9,1127.73" style="stroke:#181818;stroke-width:1.0;"/></g><!--MD5=[3be9ddd97987399a19060719c876a38b]
link AnalyseCenterPerformanceController to AppointmentStore--><g id="link_AnalyseCenterPerformanceController_AppointmentStore"><path codeLine="77" d="M1257.56,252.33 C1254.7,295.68 1246,351.94 1222,396 C1206.46,424.53 1182.1,450.09 1158.08,470.7 " fill="none" id="AnalyseCenterPerformanceController-to-AppointmentStore" style="stroke:#181818;stroke-width:1.0;stroke-dasharray:7.0,7.0;"/><polygon fill="#181818" points="1154.23,473.97,1163.6838,471.2085,1158.0464,470.7396,1158.5152,465.1023,1154.23,473.97" style="stroke:#181818;stroke-width:1.0;"/></g><!--MD5=[7a8faafe3258e0fa2b0ceec1191bd836]
link AnalyseCenterPerformanceController to MaximumSum--><g id="link_AnalyseCenterPerformanceController_MaximumSum"><path codeLine="78" d="M1093.98,252.08 C1045.38,271.96 993.51,293.17 949.85,311.03 " fill="none" id="AnalyseCenterPerformanceController-to-MaximumSum" style="stroke:#181818;stroke-width:1.0;stroke-dasharray:7.0,7.0;"/><polygon fill="#181818" points="945.11,312.97,954.9548,313.2527,949.7355,311.0713,951.9168,305.8519,945.11,312.97" style="stroke:#181818;stroke-width:1.0;"/></g><!--MD5=[7e4d1c1f89ef7b23edc77e66714a226e]
link AppointmentStore to Appointment--><g id="link_AppointmentStore_Appointment"><path codeLine="79" d="M1083,575.21 C1083,596.45 1083,622.23 1083,647.81 " fill="none" id="AppointmentStore-to-Appointment" style="stroke:#181818;stroke-width:1.0;"/><polygon fill="#181818" points="1083,652.92,1087,643.92,1083,647.92,1079,643.92,1083,652.92" style="stroke:#181818;stroke-width:1.0;"/><text fill="#000000" font-family="sans-serif" font-size="13" lengthAdjust="spacing" textLength="36" x="1084" y="619.4951">stores</text><text fill="#000000" font-family="sans-serif" font-size="13" lengthAdjust="spacing" textLength="7" x="1075.5516" y="596.2609">1</text><text fill="#000000" font-family="sans-serif" font-size="13" lengthAdjust="spacing" textLength="5" x="1077.8242" y="641.9811">*</text></g><!--MD5=[2756b4ce8db32edf1063097460f23988]
link Appointment to State--><g id="link_Appointment_State"><path codeLine="80" d="M1083,877.17 C1083,896.31 1083,915.54 1083,932.68 " fill="none" id="Appointment-to-State" style="stroke:#181818;stroke-width:1.0;stroke-dasharray:7.0,7.0;"/><polygon fill="#181818" points="1083,937.93,1087,928.93,1083,932.93,1079,928.93,1083,937.93" style="stroke:#181818;stroke-width:1.0;"/></g><!--MD5=[5e8565967da52dd71c74b831840db16e]
link Company to AppointmentStore--><g id="link_Company_AppointmentStore"><path codeLine="81" d="M1388.19,387.66 C1358.17,405.33 1319.59,427.03 1284,444 C1263.77,453.65 1242.03,463.12 1220.6,471.98 " fill="none" id="Company-to-AppointmentStore" style="stroke:#181818;stroke-width:1.0;"/><polygon fill="#181818" points="1215.74,473.98,1225.5851,474.252,1220.3634,472.0763,1222.5391,466.8545,1215.74,473.98" style="stroke:#181818;stroke-width:1.0;"/><text fill="#000000" font-family="sans-serif" font-size="13" lengthAdjust="spacing" textLength="28" x="1320" y="440.4951">uses</text><text fill="#000000" font-family="sans-serif" font-size="13" lengthAdjust="spacing" textLength="7" x="1371.1598" y="408.5528">1</text><text fill="#000000" font-family="sans-serif" font-size="13" lengthAdjust="spacing" textLength="7" x="1226.9144" y="463.2825">1</text></g><!--MD5=[ce859576cba61219b3cb4d2d23fdcd81]
link Company to EmployeeStore--><g id="link_Company_EmployeeStore"><path codeLine="82" d="M1462.4,387.89 C1479.38,413.6 1503.32,449.83 1522.18,478.37 " fill="none" id="Company-to-EmployeeStore" style="stroke:#181818;stroke-width:1.0;"/><polygon fill="#181818" points="1525.17,482.89,1523.5444,473.1762,1522.413,478.7188,1516.8704,477.5874,1525.17,482.89" style="stroke:#181818;stroke-width:1.0;"/><text fill="#000000" font-family="sans-serif" font-size="13" lengthAdjust="spacing" textLength="28" x="1497" y="440.4951">uses</text><text fill="#000000" font-family="sans-serif" font-size="13" lengthAdjust="spacing" textLength="7" x="1458.4766" y="408.5628">1</text><text fill="#000000" font-family="sans-serif" font-size="13" lengthAdjust="spacing" textLength="7" x="1513.1466" y="472.1795">1</text></g><!--MD5=[2f3bac1bdf76f0b867b8cadb6fadb6bc]
link EmployeeStore to Employee--><g id="link_EmployeeStore_Employee"><path codeLine="83" d="M1552,566.23 C1552,614.46 1552,693.53 1552,735.6 " fill="none" id="EmployeeStore-to-Employee" style="stroke:#181818;stroke-width:1.0;"/><polygon fill="#181818" points="1552,740.78,1556.0257,731.7915,1552.0143,735.78,1548.0257,731.7686,1552,740.78" style="stroke:#181818;stroke-width:1.0;"/><text fill="#000000" font-family="sans-serif" font-size="13" lengthAdjust="spacing" textLength="36" x="1553" y="619.4951">stores</text><text fill="#000000" font-family="sans-serif" font-size="13" lengthAdjust="spacing" textLength="7" x="1544.4422" y="587.6614">1</text><text fill="#000000" font-family="sans-serif" font-size="13" lengthAdjust="spacing" textLength="5" x="1546.3594" y="730.0638">*</text></g><!--MD5=[d5cf03d886352995267197dc535618ec]
link CenterCoordinator to VaccinationCenter--><g id="link_CenterCoordinator_VaccinationCenter"><path codeLine="84" d="M1403.49,1016.72 C1329.48,1027.28 1238.59,1039.85 1157,1050 C855.89,1087.47 503.07,1124.59 306.36,1144.68 " fill="none" id="CenterCoordinator-to-VaccinationCenter" style="stroke:#181818;stroke-width:1.0;"/><polygon fill="#181818" points="301.17,1145.21,310.5251,1148.2893,306.1449,1144.7097,309.7245,1140.3294,301.17,1145.21" style="stroke:#181818;stroke-width:1.0;"/><text fill="#000000" font-family="sans-serif" font-size="13" lengthAdjust="spacing" textLength="52" x="882" y="1094.4951">works for</text><text fill="#000000" font-family="sans-serif" font-size="13" lengthAdjust="spacing" textLength="7" x="1388.652" y="1014.9933">1</text><text fill="#000000" font-family="sans-serif" font-size="13" lengthAdjust="spacing" textLength="7" x="308.9389" y="1141.4976">1</text></g><!--MD5=[146f9e6ec48f8263c073168fea08bea6]
@startuml

class AnalyseCenterPerformanceUI

class AnalyseCenterPerformanceController {
+getCCVaccinationCenter() : VaccinationCenter
+setTimeInterval(timeInterval : int) : boolean
+getArrivaNumberList(dayToCheck : LocalDate) : List<Integer>
+getMaxSumSublist() : List<Integer>
+findMaxSumSublistIndexes() : List<Integer>
}

class VaccinationCenter {
+getAppointmentStore() : AppointmentStore
}

class AppointmentStore {
-listAppointment : List<Appointment>
+validateTimeInterval(timeInterval : int) : boolean
+getArrivalNumberList((dayToCheck : LocalDate), (timeInterval : int)) : List<Integer>
}

class Appointment {
-state : State
-snsUserArrivalTime : LocalTime
-snsUserLeavingTime  LocalTime
-date : LocalDate
+checkStateDone() : boolean
+checkStateToDo() : boolean
+checkStateWaiting() : boolean
+getSnsUserArrivalTime() : LocalTime
+getSnsUserLeavingTime() : LocalTime
+getDate() : LocalDate
}

class State <<enumeration>> {
-TODO
-WAITING
-DONE
}

class MaximumSum {
+getMaxSumSublist(arrivalNumberList : List<Integer>) : List<Integer>
+findMaxSumSublistIndexes((arrivalNumberList : List<Integer>), (maxSumSublist : List<Integer>)) : List<Integer>
}

class APP {
+getInstance() : APP
+getCurrentUserSession() : UserSession
}

class UserSession {
+getUserID() : Email
}

class Company {
+getEmployeeStore() : EmployeeStore
}

class EmployeeStore {
-employeeList : List<Employee>
+findEmployeeByEmail(email : Email) : Employee
}

class CenterCoordinator extends Employee {
+getVaccinationcenter() : VaccinationCenter
}

class Employee

AnalyseCenterPerformanceUI ..> AnalyseCenterPerformanceController
AnalyseCenterPerformanceController ..> APP
APP ..> UserSession
AnalyseCenterPerformanceController ..> Company
AnalyseCenterPerformanceController ..> EmployeeStore
AnalyseCenterPerformanceController ..> CenterCoordinator
AnalyseCenterPerformanceController ..> VaccinationCenter
AnalyseCenterPerformanceController ..> AppointmentStore
AnalyseCenterPerformanceController ..> MaximumSum
AppointmentStore "1" - -> "*" Appointment : stores
Appointment ..> State
Company "1" - -> "1" AppointmentStore : uses
Company "1" - -> "1" EmployeeStore : uses
EmployeeStore "1" - -> "*" Employee : stores
CenterCoordinator "1" - -> "1" VaccinationCenter : works for

@enduml

PlantUML version 1.2022.5(Sat Apr 30 11:55:52 BST 2022)
(GPL source distribution)
Java Runtime: OpenJDK Runtime Environment
JVM: OpenJDK 64-Bit Server VM
Default Encoding: Cp1252
Language: pt
Country: PT
--></g></svg>