<?xml version="1.0" encoding="UTF-8" standalone="no"?><svg xmlns="http://www.w3.org/2000/svg" xmlns:xlink="http://www.w3.org/1999/xlink" contentStyleType="text/css" height="442px" preserveAspectRatio="none" style="width:871px;height:442px;background:#FFFFFF;" version="1.1" viewBox="0 0 871 442" width="871px" zoomAndPan="magnify"><defs/><g><rect fill="#FFFFFF" height="283.1641" style="stroke:#181818;stroke-width:1.0;" width="10" x="310" y="87.5703"/><rect height="238.8125" style="stroke:#000000;stroke-width:1.5;fill:none;" width="656" x="209.5" y="102.5703"/><rect height="176.1094" style="stroke:#000000;stroke-width:1.5;fill:none;" width="532" x="219.5" y="127.9219"/><rect height="143.7578" style="stroke:#000000;stroke-width:1.5;fill:none;" width="512" x="229.5" y="153.2734"/><rect height="48.7031" style="stroke:#000000;stroke-width:1.5;fill:none;" width="463" x="239.5" y="178.625"/><rect height="48.7031" style="stroke:#000000;stroke-width:1.5;fill:none;" width="492" x="239.5" y="241.3281"/><line style="stroke:#181818;stroke-width:0.5;fill:none;stroke-dasharray:5.0,5.0;" x1="314.5" x2="314.5" y1="55.2188" y2="388.7344"/><line style="stroke:#181818;stroke-width:0.5;fill:none;stroke-dasharray:5.0,5.0;" x1="438.5" x2="438.5" y1="55.2188" y2="388.7344"/><line style="stroke:#181818;stroke-width:0.5;fill:none;stroke-dasharray:5.0,5.0;" x1="552.5" x2="552.5" y1="55.2188" y2="388.7344"/><line style="stroke:#181818;stroke-width:0.5;fill:none;stroke-dasharray:5.0,5.0;" x1="669.5" x2="669.5" y1="55.2188" y2="388.7344"/><line style="stroke:#181818;stroke-width:0.5;fill:none;stroke-dasharray:5.0,5.0;" x1="793.5" x2="793.5" y1="55.2188" y2="388.7344"/><rect fill="#E2E2F0" height="49.2188" rx="2.5" ry="2.5" style="stroke:#181818;stroke-width:0.5;" width="131" x="249.5" y="5"/><text fill="#000000" font-family="sans-serif" font-size="14" lengthAdjust="spacing" textLength="112" x="259" y="26.5332">appointmentStore</text><text fill="#000000" font-family="sans-serif" font-size="14" lengthAdjust="spacing" textLength="117" x="256.5" y="44.1426">:AppointmentStore</text><rect fill="#E2E2F0" height="49.2188" rx="2.5" ry="2.5" style="stroke:#181818;stroke-width:0.5;" width="131" x="249.5" y="387.7344"/><text fill="#000000" font-family="sans-serif" font-size="14" lengthAdjust="spacing" textLength="112" x="259" y="409.2676">appointmentStore</text><text fill="#000000" font-family="sans-serif" font-size="14" lengthAdjust="spacing" textLength="117" x="256.5" y="426.877">:AppointmentStore</text><rect fill="#E2E2F0" height="49.2188" rx="2.5" ry="2.5" style="stroke:#181818;stroke-width:0.5;" width="97" x="390.5" y="5"/><text fill="#000000" font-family="sans-serif" font-size="14" lengthAdjust="spacing" textLength="78" x="400" y="26.5332">appointment</text><text fill="#000000" font-family="sans-serif" font-size="14" lengthAdjust="spacing" textLength="83" x="397.5" y="44.1426">:Appointment</text><rect fill="#E2E2F0" height="49.2188" rx="2.5" ry="2.5" style="stroke:#181818;stroke-width:0.5;" width="97" x="390.5" y="387.7344"/><text fill="#000000" font-family="sans-serif" font-size="14" lengthAdjust="spacing" textLength="78" x="400" y="409.2676">appointment</text><text fill="#000000" font-family="sans-serif" font-size="14" lengthAdjust="spacing" textLength="83" x="397.5" y="426.877">:Appointment</text><rect fill="#E2E2F0" height="49.2188" rx="2.5" ry="2.5" style="stroke:#181818;stroke-width:0.5;" width="110" x="497.5" y="5"/><text fill="#000000" font-family="sans-serif" font-size="14" lengthAdjust="spacing" textLength="96" x="504.5" y="26.5332">leavingCounter</text><text fill="#000000" font-family="sans-serif" font-size="14" lengthAdjust="spacing" textLength="48" x="528.5" y="44.1426">:Integer</text><rect fill="#E2E2F0" height="49.2188" rx="2.5" ry="2.5" style="stroke:#181818;stroke-width:0.5;" width="110" x="497.5" y="387.7344"/><text fill="#000000" font-family="sans-serif" font-size="14" lengthAdjust="spacing" textLength="96" x="504.5" y="409.2676">leavingCounter</text><text fill="#000000" font-family="sans-serif" font-size="14" lengthAdjust="spacing" textLength="48" x="528.5" y="426.877">:Integer</text><rect fill="#E2E2F0" height="49.2188" rx="2.5" ry="2.5" style="stroke:#181818;stroke-width:0.5;" width="104" x="617.5" y="5"/><text fill="#000000" font-family="sans-serif" font-size="14" lengthAdjust="spacing" textLength="90" x="624.5" y="26.5332">arrivalCounter</text><text fill="#000000" font-family="sans-serif" font-size="14" lengthAdjust="spacing" textLength="48" x="645.5" y="44.1426">:Integer</text><rect fill="#E2E2F0" height="49.2188" rx="2.5" ry="2.5" style="stroke:#181818;stroke-width:0.5;" width="104" x="617.5" y="387.7344"/><text fill="#000000" font-family="sans-serif" font-size="14" lengthAdjust="spacing" textLength="90" x="624.5" y="409.2676">arrivalCounter</text><text fill="#000000" font-family="sans-serif" font-size="14" lengthAdjust="spacing" textLength="48" x="645.5" y="426.877">:Integer</text><rect fill="#E2E2F0" height="49.2188" rx="2.5" ry="2.5" style="stroke:#181818;stroke-width:0.5;" width="124" x="731.5" y="5"/><text fill="#000000" font-family="sans-serif" font-size="14" lengthAdjust="spacing" textLength="110" x="738.5" y="26.5332">arrivalNumberList</text><text fill="#000000" font-family="sans-serif" font-size="14" lengthAdjust="spacing" textLength="86" x="750.5" y="44.1426">:List&lt;Integer&gt;</text><rect fill="#E2E2F0" height="49.2188" rx="2.5" ry="2.5" style="stroke:#181818;stroke-width:0.5;" width="124" x="731.5" y="387.7344"/><text fill="#000000" font-family="sans-serif" font-size="14" lengthAdjust="spacing" textLength="110" x="738.5" y="409.2676">arrivalNumberList</text><text fill="#000000" font-family="sans-serif" font-size="14" lengthAdjust="spacing" textLength="86" x="750.5" y="426.877">:List&lt;Integer&gt;</text><rect fill="#FFFFFF" height="283.1641" style="stroke:#181818;stroke-width:1.0;" width="10" x="310" y="87.5703"/><ellipse cx="7.5" cy="86.8203" fill="none" rx="4" ry="4" style="stroke:#181818;stroke-width:1.5;"/><polygon fill="#181818" points="298,83.5703,308,87.5703,298,91.5703,302,87.5703" style="stroke:#181818;stroke-width:1.0;"/><line style="stroke:#181818;stroke-width:1.0;" x1="12" x2="304" y1="87.5703" y2="87.5703"/><text fill="#000000" font-family="sans-serif" font-size="13" font-weight="bold" lengthAdjust="spacing" textLength="7" x="15" y="82.7139">1</text><text fill="#000000" font-family="sans-serif" font-size="13" lengthAdjust="spacing" textLength="272" x="26" y="82.7139">getArrivalNumberList(dayToCheck, timeInterval)</text><path d="M209.5,102.5703 L282.5,102.5703 L282.5,110.9219 L272.5,120.9219 L209.5,120.9219 L209.5,102.5703 " fill="#EEEEEE" style="stroke:#000000;stroke-width:1.5;"/><rect fill="none" height="238.8125" style="stroke:#000000;stroke-width:1.5;" width="656" x="209.5" y="102.5703"/><text fill="#000000" font-family="sans-serif" font-size="13" font-weight="bold" lengthAdjust="spacing" textLength="28" x="224.5" y="117.0654">loop</text><text fill="#000000" font-family="sans-serif" font-size="11" font-weight="bold" lengthAdjust="spacing" textLength="225" x="297.5" y="115.9893">[for each timeInterval from 8 am to 8 pm]</text><path d="M219.5,127.9219 L292.5,127.9219 L292.5,136.2734 L282.5,146.2734 L219.5,146.2734 L219.5,127.9219 " fill="#EEEEEE" style="stroke:#000000;stroke-width:1.5;"/><rect fill="none" height="176.1094" style="stroke:#000000;stroke-width:1.5;" width="532" x="219.5" y="127.9219"/><text fill="#000000" font-family="sans-serif" font-size="13" font-weight="bold" lengthAdjust="spacing" textLength="28" x="234.5" y="142.417">loop</text><text fill="#000000" font-family="sans-serif" font-size="11" font-weight="bold" lengthAdjust="spacing" textLength="242" x="307.5" y="141.3408">[for each appointment in appointmentStore]</text><path d="M229.5,153.2734 L294.5,153.2734 L294.5,161.625 L284.5,171.625 L229.5,171.625 L229.5,153.2734 " fill="#EEEEEE" style="stroke:#000000;stroke-width:1.5;"/><rect fill="none" height="143.7578" style="stroke:#000000;stroke-width:1.5;" width="512" x="229.5" y="153.2734"/><text fill="#000000" font-family="sans-serif" font-size="13" font-weight="bold" lengthAdjust="spacing" textLength="20" x="244.5" y="167.7686">opt</text><text fill="#000000" font-family="sans-serif" font-size="11" font-weight="bold" lengthAdjust="spacing" textLength="158" x="309.5" y="166.6924">[if date.equals(dayToCheck)]</text><path d="M239.5,178.625 L304.5,178.625 L304.5,186.9766 L294.5,196.9766 L239.5,196.9766 L239.5,178.625 " fill="#EEEEEE" style="stroke:#000000;stroke-width:1.5;"/><rect fill="none" height="48.7031" style="stroke:#000000;stroke-width:1.5;" width="463" x="239.5" y="178.625"/><text fill="#000000" font-family="sans-serif" font-size="13" font-weight="bold" lengthAdjust="spacing" textLength="20" x="254.5" y="193.1201">opt</text><text fill="#000000" font-family="sans-serif" font-size="11" font-weight="bold" lengthAdjust="spacing" textLength="378" x="319.5" y="192.0439">[if checkStateDone=true and snsUserLeavingTime is in time interval]</text><polygon fill="#181818" points="540.5,215.3281,550.5,219.3281,540.5,223.3281,544.5,219.3281" style="stroke:#181818;stroke-width:1.0;"/><line style="stroke:#181818;stroke-width:1.0;" x1="320" x2="546.5" y1="219.3281" y2="219.3281"/><text fill="#000000" font-family="sans-serif" font-size="13" font-weight="bold" lengthAdjust="spacing" textLength="7" x="327" y="214.4717">2</text><text fill="#000000" font-family="sans-serif" font-size="13" lengthAdjust="spacing" textLength="65" x="338" y="214.4717">increment()</text><path d="M239.5,241.3281 L304.5,241.3281 L304.5,249.6797 L294.5,259.6797 L239.5,259.6797 L239.5,241.3281 " fill="#EEEEEE" style="stroke:#000000;stroke-width:1.5;"/><rect fill="none" height="48.7031" style="stroke:#000000;stroke-width:1.5;" width="492" x="239.5" y="241.3281"/><text fill="#000000" font-family="sans-serif" font-size="13" font-weight="bold" lengthAdjust="spacing" textLength="20" x="254.5" y="255.8232">opt</text><text fill="#000000" font-family="sans-serif" font-size="11" font-weight="bold" lengthAdjust="spacing" textLength="375" x="319.5" y="254.7471">[if checkStateToDo=false and snsUserArrivalTime is in time interval]</text><polygon fill="#181818" points="657.5,278.0313,667.5,282.0313,657.5,286.0313,661.5,282.0313" style="stroke:#181818;stroke-width:1.0;"/><line style="stroke:#181818;stroke-width:1.0;" x1="320" x2="663.5" y1="282.0313" y2="282.0313"/><text fill="#000000" font-family="sans-serif" font-size="13" font-weight="bold" lengthAdjust="spacing" textLength="7" x="327" y="277.1748">3</text><text fill="#000000" font-family="sans-serif" font-size="13" lengthAdjust="spacing" textLength="65" x="338" y="277.1748">increment()</text><polygon fill="#181818" points="781.5,329.3828,791.5,333.3828,781.5,337.3828,785.5,333.3828" style="stroke:#181818;stroke-width:1.0;"/><line style="stroke:#181818;stroke-width:1.0;" x1="320" x2="787.5" y1="333.3828" y2="333.3828"/><text fill="#000000" font-family="sans-serif" font-size="13" font-weight="bold" lengthAdjust="spacing" textLength="7" x="327" y="328.5264">4</text><text fill="#000000" font-family="sans-serif" font-size="13" lengthAdjust="spacing" textLength="203" x="338" y="328.5264">add(arrivalCounter - leavingCounter)</text><polygon fill="#181818" points="11,366.7344,1,370.7344,11,374.7344,7,370.7344" style="stroke:#181818;stroke-width:1.0;"/><line style="stroke:#181818;stroke-width:1.0;stroke-dasharray:2.0,2.0;" x1="5" x2="314" y1="370.7344" y2="370.7344"/><text fill="#000000" font-family="sans-serif" font-size="13" font-weight="bold" lengthAdjust="spacing" textLength="7" x="17" y="365.8779">5</text><text fill="#000000" font-family="sans-serif" font-size="13" lengthAdjust="spacing" textLength="99" x="28" y="365.8779">arrivalNumberList</text><!--MD5=[29955cc567fc97b3b9b70a4e51b9d24f]
@startuml
autonumber

participant "appointmentStore\n:AppointmentStore" as appStore
participant "appointment\n:Appointment" as appointment
participant "leavingCounter\n:Integer" as leavingCounter
participant "arrivalCounter\n:Integer" as arrivalCounter
participant "arrivalNumberList\n:List<Integer>" as differenceList

[o-> appStore : getArrivalNumberList(dayToCheck, timeInterval)

activate appStore

loop for each timeInterval from 8 am to 8 pm

loop for each appointment in appointmentStore

opt if date.equals(dayToCheck)

opt if checkStateDone=true and snsUserLeavingTime is in time interval

appStore -> leavingCounter : increment()

end

opt if checkStateToDo=false and snsUserArrivalTime is in time interval

appStore -> arrivalCounter : increment()

end


end


end loop

appStore -> differenceList : add(arrivalCounter - leavingCounter)

end loop

[<- - appStore : arrivalNumberList
deactivate appStore

@enduml

PlantUML version 1.2022.5(Sat Apr 30 11:55:52 BST 2022)
(GPL source distribution)
Java Runtime: OpenJDK Runtime Environment
JVM: OpenJDK 64-Bit Server VM
Default Encoding: Cp1252
Language: pt
Country: PT
--></g></svg>