<?xml version="1.0" encoding="UTF-8" standalone="no"?><svg xmlns="http://www.w3.org/2000/svg" xmlns:xlink="http://www.w3.org/1999/xlink" contentStyleType="text/css" height="585px" preserveAspectRatio="none" style="width:529px;height:585px;background:#FFFFFF;" version="1.1" viewBox="0 0 529 585" width="529px" zoomAndPan="magnify"><defs/><g><!--MD5=[7421f545a0d8420c5bec41e74b387d9c]
class Employee--><g id="elem_Employee"><rect codeLine="4" fill="#F1F1F1" height="40" id="Employee" rx="2.5" ry="2.5" style="stroke:#181818;stroke-width:0.5;" width="94" x="248.5" y="7"/><ellipse cx="263.5" cy="23" fill="#ADD1B2" rx="11" ry="11" style="stroke:#181818;stroke-width:1.0;"/><path d="M265.5,19.5 Q265.7031,19 265.9375,18.75 Q266.1719,18.5 266.4375,18.5 Q266.9063,18.5 267.2031,18.7813 Q267.5,19.0625 267.5,19.7188 L267.5,21.2813 Q267.5,21.9375 267.2188,22.2188 Q266.9375,22.5 266.5,22.5 Q266.1094,22.5 265.8594,22.3281 Q265.6094,22.1563 265.5,21.7031 Q265.4531,21.3906 265.2813,21.2188 Q264.9688,20.8906 264.4063,20.7031 Q263.8438,20.5 263.2813,20.5 Q262.5781,20.5 261.9844,20.7813 Q261.4063,21.0625 260.9531,21.6875 Q260.5,22.3125 260.5,23.1719 L260.5,24.0938 Q260.5,25.125 261.3438,25.8125 Q262.1875,26.5 263.6875,26.5 Q264.5781,26.5 265.2031,26.2969 Q265.5625,26.1875 265.9688,25.8281 Q266.2344,25.625 266.375,25.5625 Q266.5156,25.5 266.6875,25.5 Q267.0156,25.5 267.25,25.7656 Q267.5,26.0156 267.5,26.375 Q267.5,26.7188 267.1563,27.125 Q266.6563,27.7188 265.8594,28.0469 Q264.8125,28.5 263.5313,28.5 Q262.0313,28.5 260.8281,27.9063 Q259.8594,27.4375 259.1719,26.4219 Q258.5,25.4063 258.5,24.2031 L258.5,23.1094 Q258.5,21.8594 259.0938,20.7656 Q259.7031,19.6719 260.75,19.0938 Q261.8125,18.5 263,18.5 Q263.7188,18.5 264.3438,18.75 Q264.9688,19 265.5,19.5 Z " fill="#000000"/><text fill="#000000" font-family="sans-serif" font-size="14" lengthAdjust="spacing" textLength="62" x="277.5" y="28.7285">Employee</text><line style="stroke:#181818;stroke-width:0.5;" x1="249.5" x2="341.5" y1="39" y2="39"/></g><!--MD5=[2d935fd2dd068a13da1ae531f9857c4f]
class CenterCoordinator--><g id="elem_CenterCoordinator"><rect codeLine="6" fill="#F1F1F1" height="40" id="CenterCoordinator" rx="2.5" ry="2.5" style="stroke:#181818;stroke-width:0.5;" width="150" x="148.5" y="108"/><ellipse cx="163.5" cy="124" fill="#ADD1B2" rx="11" ry="11" style="stroke:#181818;stroke-width:1.0;"/><path d="M165.5,120.5 Q165.7031,120 165.9375,119.75 Q166.1719,119.5 166.4375,119.5 Q166.9063,119.5 167.2031,119.7813 Q167.5,120.0625 167.5,120.7188 L167.5,122.2813 Q167.5,122.9375 167.2188,123.2188 Q166.9375,123.5 166.5,123.5 Q166.1094,123.5 165.8594,123.3281 Q165.6094,123.1563 165.5,122.7031 Q165.4531,122.3906 165.2813,122.2188 Q164.9688,121.8906 164.4063,121.7031 Q163.8438,121.5 163.2813,121.5 Q162.5781,121.5 161.9844,121.7813 Q161.4063,122.0625 160.9531,122.6875 Q160.5,123.3125 160.5,124.1719 L160.5,125.0938 Q160.5,126.125 161.3438,126.8125 Q162.1875,127.5 163.6875,127.5 Q164.5781,127.5 165.2031,127.2969 Q165.5625,127.1875 165.9688,126.8281 Q166.2344,126.625 166.375,126.5625 Q166.5156,126.5 166.6875,126.5 Q167.0156,126.5 167.25,126.7656 Q167.5,127.0156 167.5,127.375 Q167.5,127.7188 167.1563,128.125 Q166.6563,128.7188 165.8594,129.0469 Q164.8125,129.5 163.5313,129.5 Q162.0313,129.5 160.8281,128.9063 Q159.8594,128.4375 159.1719,127.4219 Q158.5,126.4063 158.5,125.2031 L158.5,124.1094 Q158.5,122.8594 159.0938,121.7656 Q159.7031,120.6719 160.75,120.0938 Q161.8125,119.5 163,119.5 Q163.7188,119.5 164.3438,119.75 Q164.9688,120 165.5,120.5 Z " fill="#000000"/><text fill="#000000" font-family="sans-serif" font-size="14" lengthAdjust="spacing" textLength="118" x="177.5" y="129.7285">CenterCoordinator</text><line style="stroke:#181818;stroke-width:0.5;" x1="149.5" x2="297.5" y1="140" y2="140"/></g><!--MD5=[de60e6d4f424ae4d0522096f76a59010]
class VaccinationCenter--><g id="elem_VaccinationCenter"><rect codeLine="8" fill="#F1F1F1" height="145.6563" id="VaccinationCenter" rx="2.5" ry="2.5" style="stroke:#181818;stroke-width:0.5;" width="148" x="222.5" y="226"/><ellipse cx="237.5" cy="242" fill="#ADD1B2" rx="11" ry="11" style="stroke:#181818;stroke-width:1.0;"/><path d="M239.5,238.5 Q239.7031,238 239.9375,237.75 Q240.1719,237.5 240.4375,237.5 Q240.9063,237.5 241.2031,237.7813 Q241.5,238.0625 241.5,238.7188 L241.5,240.2813 Q241.5,240.9375 241.2188,241.2188 Q240.9375,241.5 240.5,241.5 Q240.1094,241.5 239.8594,241.3281 Q239.6094,241.1563 239.5,240.7031 Q239.4531,240.3906 239.2813,240.2188 Q238.9688,239.8906 238.4063,239.7031 Q237.8438,239.5 237.2813,239.5 Q236.5781,239.5 235.9844,239.7813 Q235.4063,240.0625 234.9531,240.6875 Q234.5,241.3125 234.5,242.1719 L234.5,243.0938 Q234.5,244.125 235.3438,244.8125 Q236.1875,245.5 237.6875,245.5 Q238.5781,245.5 239.2031,245.2969 Q239.5625,245.1875 239.9688,244.8281 Q240.2344,244.625 240.375,244.5625 Q240.5156,244.5 240.6875,244.5 Q241.0156,244.5 241.25,244.7656 Q241.5,245.0156 241.5,245.375 Q241.5,245.7188 241.1563,246.125 Q240.6563,246.7188 239.8594,247.0469 Q238.8125,247.5 237.5313,247.5 Q236.0313,247.5 234.8281,246.9063 Q233.8594,246.4375 233.1719,245.4219 Q232.5,244.4063 232.5,243.2031 L232.5,242.1094 Q232.5,240.8594 233.0938,239.7656 Q233.7031,238.6719 234.75,238.0938 Q235.8125,237.5 237,237.5 Q237.7188,237.5 238.3438,237.75 Q238.9688,238 239.5,238.5 Z " fill="#000000"/><text fill="#000000" font-family="sans-serif" font-size="14" lengthAdjust="spacing" textLength="116" x="251.5" y="247.7285">VaccinationCenter</text><line style="stroke:#181818;stroke-width:0.5;" x1="223.5" x2="369.5" y1="258" y2="258"/><text fill="#000000" font-family="sans-serif" font-size="14" lengthAdjust="spacing" textLength="40" x="228.5" y="276.5332">-name</text><text fill="#000000" font-family="sans-serif" font-size="14" lengthAdjust="spacing" textLength="56" x="228.5" y="294.1426">-address</text><text fill="#000000" font-family="sans-serif" font-size="14" lengthAdjust="spacing" textLength="94" x="228.5" y="311.752">-phoneNumber</text><text fill="#000000" font-family="sans-serif" font-size="14" lengthAdjust="spacing" textLength="38" x="228.5" y="329.3613">-email</text><text fill="#000000" font-family="sans-serif" font-size="14" lengthAdjust="spacing" textLength="72" x="228.5" y="346.9707">-faxNumber</text><text fill="#000000" font-family="sans-serif" font-size="14" lengthAdjust="spacing" textLength="104" x="228.5" y="364.5801">-websiteAddress</text></g><!--MD5=[76480a6701b5d2883bc606a2560c3cfe]
class MassVaccinationCenter--><g id="elem_MassVaccinationCenter"><rect codeLine="17" fill="#F1F1F1" height="40" id="MassVaccinationCenter" rx="2.5" ry="2.5" style="stroke:#181818;stroke-width:0.5;" width="181" x="7" y="494"/><ellipse cx="22" cy="510" fill="#ADD1B2" rx="11" ry="11" style="stroke:#181818;stroke-width:1.0;"/><path d="M24,506.5 Q24.2031,506 24.4375,505.75 Q24.6719,505.5 24.9375,505.5 Q25.4063,505.5 25.7031,505.7813 Q26,506.0625 26,506.7188 L26,508.2813 Q26,508.9375 25.7188,509.2188 Q25.4375,509.5 25,509.5 Q24.6094,509.5 24.3594,509.3281 Q24.1094,509.1563 24,508.7031 Q23.9531,508.3906 23.7813,508.2188 Q23.4688,507.8906 22.9063,507.7031 Q22.3438,507.5 21.7813,507.5 Q21.0781,507.5 20.4844,507.7813 Q19.9063,508.0625 19.4531,508.6875 Q19,509.3125 19,510.1719 L19,511.0938 Q19,512.125 19.8438,512.8125 Q20.6875,513.5 22.1875,513.5 Q23.0781,513.5 23.7031,513.2969 Q24.0625,513.1875 24.4688,512.8281 Q24.7344,512.625 24.875,512.5625 Q25.0156,512.5 25.1875,512.5 Q25.5156,512.5 25.75,512.7656 Q26,513.0156 26,513.375 Q26,513.7188 25.6563,514.125 Q25.1563,514.7188 24.3594,515.0469 Q23.3125,515.5 22.0313,515.5 Q20.5313,515.5 19.3281,514.9063 Q18.3594,514.4375 17.6719,513.4219 Q17,512.4063 17,511.2031 L17,510.1094 Q17,508.8594 17.5938,507.7656 Q18.2031,506.6719 19.25,506.0938 Q20.3125,505.5 21.5,505.5 Q22.2188,505.5 22.8438,505.75 Q23.4688,506 24,506.5 Z " fill="#000000"/><text fill="#000000" font-family="sans-serif" font-size="14" lengthAdjust="spacing" textLength="149" x="36" y="515.7285">MassVaccinationCenter</text><line style="stroke:#181818;stroke-width:0.5;" x1="8" x2="187" y1="526" y2="526"/></g><!--MD5=[1db03e903fe0a044a2ca0dcbef10799a]
class HealthCareCenter--><g id="elem_HealthCareCenter"><rect codeLine="20" fill="#F1F1F1" height="40" id="HealthCareCenter" rx="2.5" ry="2.5" style="stroke:#181818;stroke-width:0.5;" width="146" x="223.5" y="494"/><ellipse cx="238.5" cy="510" fill="#ADD1B2" rx="11" ry="11" style="stroke:#181818;stroke-width:1.0;"/><path d="M240.5,506.5 Q240.7031,506 240.9375,505.75 Q241.1719,505.5 241.4375,505.5 Q241.9063,505.5 242.2031,505.7813 Q242.5,506.0625 242.5,506.7188 L242.5,508.2813 Q242.5,508.9375 242.2188,509.2188 Q241.9375,509.5 241.5,509.5 Q241.1094,509.5 240.8594,509.3281 Q240.6094,509.1563 240.5,508.7031 Q240.4531,508.3906 240.2813,508.2188 Q239.9688,507.8906 239.4063,507.7031 Q238.8438,507.5 238.2813,507.5 Q237.5781,507.5 236.9844,507.7813 Q236.4063,508.0625 235.9531,508.6875 Q235.5,509.3125 235.5,510.1719 L235.5,511.0938 Q235.5,512.125 236.3438,512.8125 Q237.1875,513.5 238.6875,513.5 Q239.5781,513.5 240.2031,513.2969 Q240.5625,513.1875 240.9688,512.8281 Q241.2344,512.625 241.375,512.5625 Q241.5156,512.5 241.6875,512.5 Q242.0156,512.5 242.25,512.7656 Q242.5,513.0156 242.5,513.375 Q242.5,513.7188 242.1563,514.125 Q241.6563,514.7188 240.8594,515.0469 Q239.8125,515.5 238.5313,515.5 Q237.0313,515.5 235.8281,514.9063 Q234.8594,514.4375 234.1719,513.4219 Q233.5,512.4063 233.5,511.2031 L233.5,510.1094 Q233.5,508.8594 234.0938,507.7656 Q234.7031,506.6719 235.75,506.0938 Q236.8125,505.5 238,505.5 Q238.7188,505.5 239.3438,505.75 Q239.9688,506 240.5,506.5 Z " fill="#000000"/><text fill="#000000" font-family="sans-serif" font-size="14" lengthAdjust="spacing" textLength="114" x="252.5" y="515.7285">HealthCareCenter</text><line style="stroke:#181818;stroke-width:0.5;" x1="224.5" x2="368.5" y1="526" y2="526"/></g><!--MD5=[26c86a3324b017a4ed4402c870fd9ef6]
class Appointments--><g id="elem_Appointments"><rect codeLine="22" fill="#F1F1F1" height="128.0469" id="Appointments" rx="2.5" ry="2.5" style="stroke:#181818;stroke-width:0.5;" width="118" x="404.5" y="450"/><ellipse cx="419.5" cy="466" fill="#ADD1B2" rx="11" ry="11" style="stroke:#181818;stroke-width:1.0;"/><path d="M421.5,462.5 Q421.7031,462 421.9375,461.75 Q422.1719,461.5 422.4375,461.5 Q422.9063,461.5 423.2031,461.7813 Q423.5,462.0625 423.5,462.7188 L423.5,464.2813 Q423.5,464.9375 423.2188,465.2188 Q422.9375,465.5 422.5,465.5 Q422.1094,465.5 421.8594,465.3281 Q421.6094,465.1563 421.5,464.7031 Q421.4531,464.3906 421.2813,464.2188 Q420.9688,463.8906 420.4063,463.7031 Q419.8438,463.5 419.2813,463.5 Q418.5781,463.5 417.9844,463.7813 Q417.4063,464.0625 416.9531,464.6875 Q416.5,465.3125 416.5,466.1719 L416.5,467.0938 Q416.5,468.125 417.3438,468.8125 Q418.1875,469.5 419.6875,469.5 Q420.5781,469.5 421.2031,469.2969 Q421.5625,469.1875 421.9688,468.8281 Q422.2344,468.625 422.375,468.5625 Q422.5156,468.5 422.6875,468.5 Q423.0156,468.5 423.25,468.7656 Q423.5,469.0156 423.5,469.375 Q423.5,469.7188 423.1563,470.125 Q422.6563,470.7188 421.8594,471.0469 Q420.8125,471.5 419.5313,471.5 Q418.0313,471.5 416.8281,470.9063 Q415.8594,470.4375 415.1719,469.4219 Q414.5,468.4063 414.5,467.2031 L414.5,466.1094 Q414.5,464.8594 415.0938,463.7656 Q415.7031,462.6719 416.75,462.0938 Q417.8125,461.5 419,461.5 Q419.7188,461.5 420.3438,461.75 Q420.9688,462 421.5,462.5 Z " fill="#000000"/><text fill="#000000" font-family="sans-serif" font-size="14" lengthAdjust="spacing" textLength="86" x="433.5" y="471.7285">Appointments</text><line style="stroke:#181818;stroke-width:0.5;" x1="405.5" x2="521.5" y1="482" y2="482"/><text fill="#000000" font-family="sans-serif" font-size="14" lengthAdjust="spacing" textLength="33" x="410.5" y="500.5332">-date</text><text fill="#000000" font-family="sans-serif" font-size="14" lengthAdjust="spacing" textLength="31" x="410.5" y="518.1426">-time</text><text fill="#000000" font-family="sans-serif" font-size="14" lengthAdjust="spacing" textLength="36" x="410.5" y="535.752">-state</text><text fill="#000000" font-family="sans-serif" font-size="14" lengthAdjust="spacing" textLength="75" x="410.5" y="553.3613">-arrivalTime</text><text fill="#000000" font-family="sans-serif" font-size="14" lengthAdjust="spacing" textLength="81" x="410.5" y="570.9707">-leavingTime</text></g><!--MD5=[98f7f3dc8d9719d04ad14614c4ea123f]
reverse link Employee to CenterCoordinator--><g id="link_Employee_CenterCoordinator"><path d="M269.7,63.48 C258.78,78.49 246.49,95.38 237.34,107.97 " fill="none" id="Employee-backto-CenterCoordinator" style="stroke:#181818;stroke-width:1.0;"/><polygon fill="none" points="264.19,59.15,281.62,47.09,275.52,67.38,264.19,59.15" style="stroke:#181818;stroke-width:1.0;"/></g><!--MD5=[a09fc339ad85d4e67aa3195beeccb7d9]
reverse link VaccinationCenter to MassVaccinationCenter--><g id="link_VaccinationCenter_MassVaccinationCenter"><path d="M215.47,386.73 C178.59,426.21 138.19,469.45 115.53,493.7 " fill="none" id="VaccinationCenter-backto-MassVaccinationCenter" style="stroke:#181818;stroke-width:1.0;"/><polygon fill="none" points="210.36,381.95,229.13,372.11,220.59,391.51,210.36,381.95" style="stroke:#181818;stroke-width:1.0;"/></g><!--MD5=[4d7f47162e377c4884c583baac9698b3]
reverse link VaccinationCenter to HealthCareCenter--><g id="link_VaccinationCenter_HealthCareCenter"><path d="M296.5,392.22 C296.5,430.16 296.5,470.57 296.5,493.7 " fill="none" id="VaccinationCenter-backto-HealthCareCenter" style="stroke:#181818;stroke-width:1.0;"/><polygon fill="none" points="289.5,392.11,296.5,372.11,303.5,392.11,289.5,392.11" style="stroke:#181818;stroke-width:1.0;"/></g><!--MD5=[d5cf03d886352995267197dc535618ec]
link CenterCoordinator to VaccinationCenter--><g id="link_CenterCoordinator_VaccinationCenter"><path codeLine="30" d="M231.73,148.06 C239.94,167.05 253.05,197.4 265.33,225.85 " fill="none" id="CenterCoordinator-VaccinationCenter" style="stroke:#181818;stroke-width:1.0;"/><polygon fill="#000000" points="258.4826,191.7659,257.594,182.2969,252.198,184.6277,258.4826,191.7659" style="stroke:#000000;stroke-width:1.0;"/><text fill="#000000" font-family="sans-serif" font-size="13" lengthAdjust="spacing" textLength="52" x="265.5" y="192.4951">works for</text><text fill="#000000" font-family="sans-serif" font-size="13" lengthAdjust="spacing" textLength="7" x="226.0603" y="169.4964">1</text><text fill="#000000" font-family="sans-serif" font-size="13" lengthAdjust="spacing" textLength="7" x="254.7547" y="215.0124">1</text></g><!--MD5=[7454cd36f47ee2c1597ee5b79ae5e9ce]
link Employee to VaccinationCenter--><g id="link_Employee_VaccinationCenter"><path codeLine="31" d="M303.14,47.07 C314.65,78.14 334.32,141.69 326.5,196 C325.09,205.77 322.96,215.92 320.47,225.85 " fill="none" id="Employee-VaccinationCenter" style="stroke:#181818;stroke-width:1.0;"/><polygon fill="#000000" points="332.9824,133.1525,335.0349,123.866,329.1845,124.4331,332.9824,133.1525" style="stroke:#000000;stroke-width:1.0;"/><text fill="#000000" font-family="sans-serif" font-size="13" lengthAdjust="spacing" textLength="90" x="341.5" y="133.4951">associated with</text><text fill="#000000" font-family="sans-serif" font-size="13" lengthAdjust="spacing" textLength="5" x="299.5856" y="68.5092">*</text><text fill="#000000" font-family="sans-serif" font-size="13" lengthAdjust="spacing" textLength="7" x="315.581" y="215.0124">1</text></g><!--MD5=[0d118ce5cf76665edfb8164764db93e8]
link VaccinationCenter to Appointments--><g id="link_VaccinationCenter_Appointments"><path codeLine="32" d="M353.04,372.11 C372.82,397.34 394.85,425.44 414.01,449.88 " fill="none" id="VaccinationCenter-Appointments" style="stroke:#181818;stroke-width:1.0;"/><polygon fill="#000000" points="398.5849,415.1107,395.3172,406.1791,390.6914,409.8056,398.5849,415.1107" style="stroke:#000000;stroke-width:1.0;"/><text fill="#000000" font-family="sans-serif" font-size="13" lengthAdjust="spacing" textLength="21" x="404.5" y="416.4951">has</text><text fill="#000000" font-family="sans-serif" font-size="13" lengthAdjust="spacing" textLength="7" x="350.9296" y="393.1145">1</text><text fill="#000000" font-family="sans-serif" font-size="13" lengthAdjust="spacing" textLength="5" x="402.9987" y="439.0539">*</text></g><!--MD5=[de1adebcb8df74b9d2db5aac4678e322]
@startuml
hide methods
skinparam classAttributeIconSize 0

class Employee

class CenterCoordinator extends Employee

class VaccinationCenter {
-name
-address
-phoneNumber
-email
-faxNumber
-websiteAddress
}

class MassVaccinationCenter extends VaccinationCenter {
}

class HealthCareCenter extends VaccinationCenter

class Appointments {
-date
-time
-state
-arrivalTime
-leavingTime
}

CenterCoordinator "1" - - "1" VaccinationCenter : works for >
Employee "*" - - "1" VaccinationCenter : associated with >
VaccinationCenter "1" - - "*" Appointments : has >




@enduml

PlantUML version 1.2022.5(Sat Apr 30 11:55:52 BST 2022)
(GPL source distribution)
Java Runtime: OpenJDK Runtime Environment
JVM: OpenJDK 64-Bit Server VM
Default Encoding: Cp1252
Language: pt
Country: PT
--></g></svg>