<?xml version="1.0" encoding="UTF-8" standalone="no"?><svg xmlns="http://www.w3.org/2000/svg" xmlns:xlink="http://www.w3.org/1999/xlink" contentStyleType="text/css" height="565px" preserveAspectRatio="none" style="width:903px;height:565px;background:#FFFFFF;" version="1.1" viewBox="0 0 903 565" width="903px" zoomAndPan="magnify"><defs/><g><rect fill="#FFFFFF" height="420.9844" style="stroke:#181818;stroke-width:1.0;" width="10" x="221" y="83.7266"/><rect fill="#FFFFFF" height="30" style="stroke:#181818;stroke-width:1.0;" width="10" x="574.5" y="429.5781"/><rect fill="#FFFFFF" height="30" style="stroke:#181818;stroke-width:1.0;" width="10" x="809" y="194.5859"/><rect fill="#FFFFFF" height="30" style="stroke:#181818;stroke-width:1.0;" width="10" x="809" y="253.7188"/><rect fill="#FFFFFF" height="30" style="stroke:#181818;stroke-width:1.0;" width="10" x="809" y="312.8516"/><rect height="311.2578" style="stroke:#000000;stroke-width:1.5;fill:none;" width="752" x="145" y="156.3203"/><line style="stroke:#181818;stroke-width:0.5;fill:none;stroke-dasharray:5.0,5.0;" x1="226" x2="226" y1="52.5938" y2="513.7109"/><line style="stroke:#181818;stroke-width:0.5;fill:none;stroke-dasharray:5.0,5.0;" x1="405" x2="405" y1="52.5938" y2="513.7109"/><line style="stroke:#181818;stroke-width:0.5;fill:none;stroke-dasharray:5.0,5.0;" x1="579" x2="579" y1="130.5234" y2="513.7109"/><line style="stroke:#181818;stroke-width:0.5;fill:none;stroke-dasharray:5.0,5.0;" x1="693" x2="693" y1="389.6484" y2="513.7109"/><line style="stroke:#181818;stroke-width:0.5;fill:none;stroke-dasharray:5.0,5.0;" x1="814" x2="814" y1="52.5938" y2="513.7109"/><rect fill="#E2E2F0" height="30.2969" rx="2.5" ry="2.5" style="stroke:#181818;stroke-width:0.5;" width="142" x="155" y="21.2969"/><text fill="#000000" font-family="sans-serif" font-size="14" lengthAdjust="spacing" textLength="128" x="162" y="41.292">:HCCenterMapper</text><rect fill="#E2E2F0" height="30.2969" rx="2.5" ry="2.5" style="stroke:#181818;stroke-width:0.5;" width="142" x="155" y="512.7109"/><text fill="#000000" font-family="sans-serif" font-size="14" lengthAdjust="spacing" textLength="128" x="162" y="532.7061">:HCCenterMapper</text><rect fill="#E2E2F0" height="46.5938" rx="2.5" ry="2.5" style="stroke:#181818;stroke-width:0.5;" width="196" x="307" y="5"/><text fill="#000000" font-family="sans-serif" font-size="14" lengthAdjust="spacing" textLength="149" x="330.5" y="24.9951">healthcareCenterList</text><text fill="#000000" font-family="sans-serif" font-size="14" lengthAdjust="spacing" textLength="182" x="314" y="41.292">:List&lt;HealthCareCenter&gt;</text><rect fill="#E2E2F0" height="46.5938" rx="2.5" ry="2.5" style="stroke:#181818;stroke-width:0.5;" width="196" x="307" y="512.7109"/><text fill="#000000" font-family="sans-serif" font-size="14" lengthAdjust="spacing" textLength="149" x="330.5" y="532.7061">healthcareCenterList</text><text fill="#000000" font-family="sans-serif" font-size="14" lengthAdjust="spacing" textLength="182" x="314" y="549.0029">:List&lt;HealthCareCenter&gt;</text><rect fill="#E2E2F0" height="46.5938" rx="2.5" ry="2.5" style="stroke:#181818;stroke-width:0.5;" width="133" x="513" y="512.7109"/><text fill="#000000" font-family="sans-serif" font-size="14" lengthAdjust="spacing" textLength="119" x="520" y="532.7061">hhcenterListDTO</text><text fill="#000000" font-family="sans-serif" font-size="14" lengthAdjust="spacing" textLength="105" x="527" y="549.0029">:list&lt;HCCDto&gt;</text><rect fill="#E2E2F0" height="46.5938" rx="2.5" ry="2.5" style="stroke:#181818;stroke-width:0.5;" width="75" x="656" y="512.7109"/><text fill="#000000" font-family="sans-serif" font-size="14" lengthAdjust="spacing" textLength="50" x="668.5" y="532.7061">hccDto</text><text fill="#000000" font-family="sans-serif" font-size="14" lengthAdjust="spacing" textLength="61" x="663" y="549.0029">:HCCDto</text><rect fill="#E2E2F0" height="30.2969" rx="2.5" ry="2.5" style="stroke:#181818;stroke-width:0.5;" width="146" x="741" y="21.2969"/><text fill="#000000" font-family="sans-serif" font-size="14" lengthAdjust="spacing" textLength="132" x="748" y="41.292">healthcareCenters</text><rect fill="#E2E2F0" height="30.2969" rx="2.5" ry="2.5" style="stroke:#181818;stroke-width:0.5;" width="146" x="741" y="512.7109"/><text fill="#000000" font-family="sans-serif" font-size="14" lengthAdjust="spacing" textLength="132" x="748" y="532.7061">healthcareCenters</text><rect fill="#FFFFFF" height="420.9844" style="stroke:#181818;stroke-width:1.0;" width="10" x="221" y="83.7266"/><rect fill="#FFFFFF" height="30" style="stroke:#181818;stroke-width:1.0;" width="10" x="574.5" y="429.5781"/><rect fill="#FFFFFF" height="30" style="stroke:#181818;stroke-width:1.0;" width="10" x="809" y="194.5859"/><rect fill="#FFFFFF" height="30" style="stroke:#181818;stroke-width:1.0;" width="10" x="809" y="253.7188"/><rect fill="#FFFFFF" height="30" style="stroke:#181818;stroke-width:1.0;" width="10" x="809" y="312.8516"/><ellipse cx="7.5" cy="82.9766" fill="none" rx="4" ry="4" style="stroke:#181818;stroke-width:1.5;"/><polygon fill="#181818" points="209,79.7266,219,83.7266,209,87.7266,213,83.7266" style="stroke:#181818;stroke-width:1.0;"/><line style="stroke:#181818;stroke-width:1.0;" x1="12" x2="215" y1="83.7266" y2="83.7266"/><text fill="#000000" font-family="sans-serif" font-size="13" font-weight="bold" lengthAdjust="spacing" textLength="9" x="15" y="78.6606">1</text><text fill="#000000" font-family="sans-serif" font-size="13" lengthAdjust="spacing" textLength="181" x="28" y="78.6606">toDto(healthcareCenterList)</text><polygon fill="#181818" points="501,108.8594,511,112.8594,501,116.8594,505,112.8594" style="stroke:#181818;stroke-width:1.0;"/><line style="stroke:#181818;stroke-width:1.0;stroke-dasharray:2.0,2.0;" x1="231" x2="507" y1="112.8594" y2="112.8594"/><text fill="#000000" font-family="sans-serif" font-size="13" font-weight="bold" lengthAdjust="spacing" textLength="9" x="238" y="107.7935">2</text><text fill="#000000" font-family="sans-serif" font-size="13" lengthAdjust="spacing" textLength="51" x="251" y="107.7935">create()</text><rect fill="#E2E2F0" height="46.5938" rx="2.5" ry="2.5" style="stroke:#181818;stroke-width:0.5;" width="133" x="513" y="91.7266"/><text fill="#000000" font-family="sans-serif" font-size="14" lengthAdjust="spacing" textLength="119" x="520" y="111.7217">hhcenterListDTO</text><text fill="#000000" font-family="sans-serif" font-size="14" lengthAdjust="spacing" textLength="105" x="527" y="128.0186">:list&lt;HCCDto&gt;</text><path d="M145,156.3203 L221,156.3203 L221,163.4531 L211,173.4531 L145,173.4531 L145,156.3203 " fill="#EEEEEE" style="stroke:#000000;stroke-width:1.5;"/><rect fill="none" height="311.2578" style="stroke:#000000;stroke-width:1.5;" width="752" x="145" y="156.3203"/><text fill="#000000" font-family="sans-serif" font-size="13" font-weight="bold" lengthAdjust="spacing" textLength="31" x="160" y="169.3872">loop</text><text fill="#000000" font-family="sans-serif" font-size="11" font-weight="bold" lengthAdjust="spacing" textLength="236" x="236" y="168.5308">[for each object in healthcareCenters]</text><polygon fill="#181818" points="797,190.5859,807,194.5859,797,198.5859,801,194.5859" style="stroke:#181818;stroke-width:1.0;"/><line style="stroke:#181818;stroke-width:1.0;" x1="231" x2="803" y1="194.5859" y2="194.5859"/><text fill="#000000" font-family="sans-serif" font-size="13" font-weight="bold" lengthAdjust="spacing" textLength="9" x="238" y="189.52">3</text><text fill="#000000" font-family="sans-serif" font-size="13" lengthAdjust="spacing" textLength="126" x="251" y="189.52">name = getName()</text><polygon fill="#181818" points="797,249.7188,807,253.7188,797,257.7188,801,253.7188" style="stroke:#181818;stroke-width:1.0;"/><line style="stroke:#181818;stroke-width:1.0;" x1="231" x2="803" y1="253.7188" y2="253.7188"/><text fill="#000000" font-family="sans-serif" font-size="13" font-weight="bold" lengthAdjust="spacing" textLength="9" x="238" y="248.6528">4</text><text fill="#000000" font-family="sans-serif" font-size="13" lengthAdjust="spacing" textLength="234" x="251" y="248.6528">phoneNumber = getPhoneNumber()</text><polygon fill="#181818" points="797,308.8516,807,312.8516,797,316.8516,801,312.8516" style="stroke:#181818;stroke-width:1.0;"/><line style="stroke:#181818;stroke-width:1.0;" x1="231" x2="803" y1="312.8516" y2="312.8516"/><text fill="#000000" font-family="sans-serif" font-size="13" font-weight="bold" lengthAdjust="spacing" textLength="9" x="238" y="307.7856">5</text><text fill="#000000" font-family="sans-serif" font-size="13" lengthAdjust="spacing" textLength="228" x="251" y="307.7856">emailAddress = getEmailAddress()</text><polygon fill="#181818" points="644,367.9844,654,371.9844,644,375.9844,648,371.9844" style="stroke:#181818;stroke-width:1.0;"/><line style="stroke:#181818;stroke-width:1.0;stroke-dasharray:2.0,2.0;" x1="231" x2="650" y1="371.9844" y2="371.9844"/><text fill="#000000" font-family="sans-serif" font-size="13" font-weight="bold" lengthAdjust="spacing" textLength="9" x="238" y="366.9185">6</text><text fill="#000000" font-family="sans-serif" font-size="13" lengthAdjust="spacing" textLength="285" x="251" y="366.9185">create(name, phoneNumber, emailAddress)</text><rect fill="#E2E2F0" height="46.5938" rx="2.5" ry="2.5" style="stroke:#181818;stroke-width:0.5;" width="75" x="656" y="350.8516"/><text fill="#000000" font-family="sans-serif" font-size="14" lengthAdjust="spacing" textLength="50" x="668.5" y="370.8467">hccDto</text><text fill="#000000" font-family="sans-serif" font-size="14" lengthAdjust="spacing" textLength="61" x="663" y="387.1436">:HCCDto</text><polygon fill="#181818" points="562.5,425.5781,572.5,429.5781,562.5,433.5781,566.5,429.5781" style="stroke:#181818;stroke-width:1.0;"/><line style="stroke:#181818;stroke-width:1.0;" x1="231" x2="568.5" y1="429.5781" y2="429.5781"/><text fill="#000000" font-family="sans-serif" font-size="13" font-weight="bold" lengthAdjust="spacing" textLength="9" x="238" y="424.5122">7</text><text fill="#000000" font-family="sans-serif" font-size="13" lengthAdjust="spacing" textLength="79" x="251" y="424.5122">add(hccDto)</text><polygon fill="#181818" points="11,491.7109,1,495.7109,11,499.7109,7,495.7109" style="stroke:#181818;stroke-width:1.0;"/><line style="stroke:#181818;stroke-width:1.0;stroke-dasharray:2.0,2.0;" x1="5" x2="220" y1="495.7109" y2="495.7109"/><text fill="#000000" font-family="sans-serif" font-size="13" font-weight="bold" lengthAdjust="spacing" textLength="9" x="17" y="490.645">8</text><text fill="#000000" font-family="sans-serif" font-size="13" lengthAdjust="spacing" textLength="107" x="30" y="490.645">hccenterListDTO</text><!--MD5=[d26e6ecdf18c9e66ff93599681cc9bc7]
@startuml
autonumber
participant ":HCCenterMapper" as vcMapper
participant "healthcareCenterList\n:List<HealthCareCenter>" as healthcareCenterList
participant "hhcenterListDTO\n:list<HCCDto>" as hhcenterListDTO
participant "hccDto\n:HCCDto" as HCCDto

[o->vcMapper : toDto(healthcareCenterList)
activate vcMapper

vcMapper - -> hhcenterListDTO **: create()

loop for each object in healthcareCenters

vcMapper -> healthcareCenters : name = getName()
activate healthcareCenters
deactivate healthcareCenters
vcMapper -> healthcareCenters : phoneNumber = getPhoneNumber()
activate healthcareCenters
deactivate healthcareCenters
vcMapper -> healthcareCenters : emailAddress = getEmailAddress()
activate healthcareCenters
deactivate healthcareCenters

vcMapper - -> HCCDto **: create(name, phoneNumber, emailAddress)

vcMapper -> hhcenterListDTO : add(hccDto)
activate hhcenterListDTO
deactivate hhcenterListDTO
end loop
[<- - vcMapper : hccenterListDTO

@enduml

PlantUML version 1.2022.5(Sat Apr 30 11:55:52 WEST 2022)
(GPL source distribution)
Java Runtime: OpenJDK Runtime Environment
JVM: OpenJDK 64-Bit Server VM
Default Encoding: UTF-8
Language: en
Country: US
--></g></svg>