<?xml version="1.0" encoding="UTF-8" standalone="no"?><svg xmlns="http://www.w3.org/2000/svg" xmlns:xlink="http://www.w3.org/1999/xlink" contentStyleType="text/css" height="652px" preserveAspectRatio="none" style="width:797px;height:652px;background:#FFFFFF;" version="1.1" viewBox="0 0 797 652" width="797px" zoomAndPan="magnify"><defs/><g><rect fill="#FFFFFF" height="470.125" style="stroke:#181818;stroke-width:1.0;" width="10" x="62" y="91.2969"/><rect fill="#FFFFFF" height="29.1328" style="stroke:#181818;stroke-width:1.0;" width="10" x="741" y="112.4297"/><rect fill="#FFFFFF" height="29.1328" style="stroke:#181818;stroke-width:1.0;" width="10" x="741" y="194.8281"/><rect fill="#FFFFFF" height="29.1328" style="stroke:#181818;stroke-width:1.0;" width="10" x="741" y="260.0938"/><rect fill="#FFFFFF" height="53.2656" style="stroke:#181818;stroke-width:1.0;" width="10" x="741" y="318.3594"/><rect fill="#FFFFFF" height="29.1328" style="stroke:#181818;stroke-width:1.0;" width="10" x="741" y="400.7578"/><rect fill="#FFFFFF" height="29.1328" style="stroke:#181818;stroke-width:1.0;" width="10" x="741" y="459.0234"/><rect fill="#FFFFFF" height="45.1328" style="stroke:#181818;stroke-width:1.0;" width="10" x="741" y="517.2891"/><rect height="75.3984" style="stroke:#000000;stroke-width:1.5;fill:none;" width="781.5" x="10" y="156.5625"/><rect height="221.0625" style="stroke:#000000;stroke-width:1.5;fill:none;" width="781.5" x="10" y="333.3594"/><line style="stroke:#181818;stroke-width:0.5;fill:none;stroke-dasharray:5.0,5.0;" x1="67" x2="67" y1="81.2969" y2="571.4219"/><line style="stroke:#181818;stroke-width:0.5;fill:none;stroke-dasharray:5.0,5.0;" x1="745.5" x2="745.5" y1="81.2969" y2="571.4219"/><text fill="#000000" font-family="sans-serif" font-size="14" lengthAdjust="spacing" textLength="88" x="20" y="77.9951">Receptionist</text><ellipse cx="67" cy="13.5" fill="#E2E2F0" rx="8" ry="8" style="stroke:#181818;stroke-width:0.5;"/><path d="M67,21.5 L67,48.5 M54,29.5 L80,29.5 M67,48.5 L54,63.5 M67,48.5 L80,63.5 " fill="none" style="stroke:#181818;stroke-width:0.5;"/><text fill="#000000" font-family="sans-serif" font-size="14" lengthAdjust="spacing" textLength="88" x="20" y="583.417">Receptionist</text><ellipse cx="67" cy="595.2188" fill="#E2E2F0" rx="8" ry="8" style="stroke:#181818;stroke-width:0.5;"/><path d="M67,603.2188 L67,630.2188 M54,611.2188 L80,611.2188 M67,630.2188 L54,645.2188 M67,630.2188 L80,645.2188 " fill="none" style="stroke:#181818;stroke-width:0.5;"/><rect fill="#E2E2F0" height="30.2969" rx="2.5" ry="2.5" style="stroke:#181818;stroke-width:0.5;" width="71" x="710.5" y="50"/><text fill="#000000" font-family="sans-serif" font-size="14" lengthAdjust="spacing" textLength="57" x="717.5" y="69.9951">:System</text><rect fill="#E2E2F0" height="30.2969" rx="2.5" ry="2.5" style="stroke:#181818;stroke-width:0.5;" width="71" x="710.5" y="570.4219"/><text fill="#000000" font-family="sans-serif" font-size="14" lengthAdjust="spacing" textLength="57" x="717.5" y="590.417">:System</text><rect fill="#FFFFFF" height="470.125" style="stroke:#181818;stroke-width:1.0;" width="10" x="62" y="91.2969"/><rect fill="#FFFFFF" height="29.1328" style="stroke:#181818;stroke-width:1.0;" width="10" x="741" y="112.4297"/><rect fill="#FFFFFF" height="29.1328" style="stroke:#181818;stroke-width:1.0;" width="10" x="741" y="194.8281"/><rect fill="#FFFFFF" height="29.1328" style="stroke:#181818;stroke-width:1.0;" width="10" x="741" y="260.0938"/><rect fill="#FFFFFF" height="53.2656" style="stroke:#181818;stroke-width:1.0;" width="10" x="741" y="318.3594"/><rect fill="#FFFFFF" height="29.1328" style="stroke:#181818;stroke-width:1.0;" width="10" x="741" y="400.7578"/><rect fill="#FFFFFF" height="29.1328" style="stroke:#181818;stroke-width:1.0;" width="10" x="741" y="459.0234"/><rect fill="#FFFFFF" height="45.1328" style="stroke:#181818;stroke-width:1.0;" width="10" x="741" y="517.2891"/><polygon fill="#181818" points="729,108.4297,739,112.4297,729,116.4297,733,112.4297" style="stroke:#181818;stroke-width:1.0;"/><line style="stroke:#181818;stroke-width:1.0;" x1="72" x2="735" y1="112.4297" y2="112.4297"/><text fill="#000000" font-family="sans-serif" font-size="13" font-weight="bold" lengthAdjust="spacing" textLength="9" x="79" y="107.3638">1</text><text fill="#000000" font-family="sans-serif" font-size="13" lengthAdjust="spacing" textLength="302" x="92" y="107.3638">asks to create a new Vaccination appointment</text><polygon fill="#181818" points="83,137.5625,73,141.5625,83,145.5625,79,141.5625" style="stroke:#181818;stroke-width:1.0;"/><line style="stroke:#181818;stroke-width:1.0;stroke-dasharray:2.0,2.0;" x1="77" x2="745" y1="141.5625" y2="141.5625"/><text fill="#000000" font-family="sans-serif" font-size="13" font-weight="bold" lengthAdjust="spacing" textLength="9" x="89" y="136.4966">2</text><text fill="#000000" font-family="sans-serif" font-size="13" lengthAdjust="spacing" textLength="355" x="102" y="136.4966">suggests vaccine Type according to ongoing outbreak)</text><path d="M10,156.5625 L74,156.5625 L74,163.6953 L64,173.6953 L10,173.6953 L10,156.5625 " fill="#EEEEEE" style="stroke:#000000;stroke-width:1.5;"/><rect fill="none" height="75.3984" style="stroke:#000000;stroke-width:1.5;" width="781.5" x="10" y="156.5625"/><text fill="#000000" font-family="sans-serif" font-size="13" font-weight="bold" lengthAdjust="spacing" textLength="19" x="25" y="169.6294">alt</text><text fill="#000000" font-family="sans-serif" font-size="11" font-weight="bold" lengthAdjust="spacing" textLength="257" x="89" y="168.7729">[if SNS user does not accept suggestion]</text><polygon fill="#181818" points="729,190.8281,739,194.8281,729,198.8281,733,194.8281" style="stroke:#181818;stroke-width:1.0;"/><line style="stroke:#181818;stroke-width:1.0;" x1="72" x2="735" y1="194.8281" y2="194.8281"/><text fill="#000000" font-family="sans-serif" font-size="13" font-weight="bold" lengthAdjust="spacing" textLength="9" x="79" y="189.7622">3</text><text fill="#000000" font-family="sans-serif" font-size="13" lengthAdjust="spacing" textLength="235" x="92" y="189.7622">asks for the available vaccine types</text><polygon fill="#181818" points="83,219.9609,73,223.9609,83,227.9609,79,223.9609" style="stroke:#181818;stroke-width:1.0;"/><line style="stroke:#181818;stroke-width:1.0;stroke-dasharray:2.0,2.0;" x1="77" x2="745" y1="223.9609" y2="223.9609"/><text fill="#000000" font-family="sans-serif" font-size="13" font-weight="bold" lengthAdjust="spacing" textLength="9" x="89" y="218.895">4</text><text fill="#000000" font-family="sans-serif" font-size="13" lengthAdjust="spacing" textLength="199" x="102" y="218.895">shows available vaccine types</text><polygon fill="#181818" points="729,256.0938,739,260.0938,729,264.0938,733,260.0938" style="stroke:#181818;stroke-width:1.0;"/><line style="stroke:#181818;stroke-width:1.0;" x1="72" x2="735" y1="260.0938" y2="260.0938"/><text fill="#000000" font-family="sans-serif" font-size="13" font-weight="bold" lengthAdjust="spacing" textLength="9" x="79" y="255.0278">5</text><text fill="#000000" font-family="sans-serif" font-size="13" lengthAdjust="spacing" textLength="133" x="92" y="255.0278">selects vaccine type</text><polygon fill="#181818" points="83,285.2266,73,289.2266,83,293.2266,79,289.2266" style="stroke:#181818;stroke-width:1.0;"/><line style="stroke:#181818;stroke-width:1.0;stroke-dasharray:2.0,2.0;" x1="77" x2="745" y1="289.2266" y2="289.2266"/><text fill="#000000" font-family="sans-serif" font-size="13" font-weight="bold" lengthAdjust="spacing" textLength="9" x="89" y="284.1606">6</text><text fill="#000000" font-family="sans-serif" font-size="13" lengthAdjust="spacing" textLength="211" x="102" y="284.1606">requests data(SNS user number)</text><polygon fill="#181818" points="729,314.3594,739,318.3594,729,322.3594,733,318.3594" style="stroke:#181818;stroke-width:1.0;"/><line style="stroke:#181818;stroke-width:1.0;" x1="72" x2="735" y1="318.3594" y2="318.3594"/><text fill="#000000" font-family="sans-serif" font-size="13" font-weight="bold" lengthAdjust="spacing" textLength="9" x="79" y="313.2935">7</text><text fill="#000000" font-family="sans-serif" font-size="13" lengthAdjust="spacing" textLength="138" x="92" y="313.2935">types requested data</text><path d="M10,333.3594 L74,333.3594 L74,340.4922 L64,350.4922 L10,350.4922 L10,333.3594 " fill="#EEEEEE" style="stroke:#000000;stroke-width:1.5;"/><rect fill="none" height="221.0625" style="stroke:#000000;stroke-width:1.5;" width="781.5" x="10" y="333.3594"/><text fill="#000000" font-family="sans-serif" font-size="13" font-weight="bold" lengthAdjust="spacing" textLength="19" x="25" y="346.4263">alt</text><text fill="#000000" font-family="sans-serif" font-size="11" font-weight="bold" lengthAdjust="spacing" textLength="268" x="89" y="345.5698">[if the user does not have an appointment]</text><polygon fill="#181818" points="83,367.625,73,371.625,83,375.625,79,371.625" style="stroke:#181818;stroke-width:1.0;"/><line style="stroke:#181818;stroke-width:1.0;stroke-dasharray:2.0,2.0;" x1="77" x2="745" y1="371.625" y2="371.625"/><text fill="#000000" font-family="sans-serif" font-size="13" font-weight="bold" lengthAdjust="spacing" textLength="9" x="89" y="366.5591">8</text><text fill="#000000" font-family="sans-serif" font-size="13" lengthAdjust="spacing" textLength="236" x="102" y="366.5591">shows available vaccination centers</text><polygon fill="#181818" points="729,396.7578,739,400.7578,729,404.7578,733,400.7578" style="stroke:#181818;stroke-width:1.0;"/><line style="stroke:#181818;stroke-width:1.0;" x1="72" x2="735" y1="400.7578" y2="400.7578"/><text fill="#000000" font-family="sans-serif" font-size="13" font-weight="bold" lengthAdjust="spacing" textLength="9" x="79" y="395.6919">9</text><text fill="#000000" font-family="sans-serif" font-size="13" lengthAdjust="spacing" textLength="170" x="92" y="395.6919">selects vaccination center</text><polygon fill="#181818" points="83,425.8906,73,429.8906,83,433.8906,79,429.8906" style="stroke:#181818;stroke-width:1.0;"/><line style="stroke:#181818;stroke-width:1.0;stroke-dasharray:2.0,2.0;" x1="77" x2="745" y1="429.8906" y2="429.8906"/><text fill="#000000" font-family="sans-serif" font-size="13" font-weight="bold" lengthAdjust="spacing" textLength="18" x="89" y="424.8247">10</text><text fill="#000000" font-family="sans-serif" font-size="13" lengthAdjust="spacing" textLength="359" x="111" y="424.8247">requests data(time of Vaccination, date of vaccination)</text><polygon fill="#181818" points="729,455.0234,739,459.0234,729,463.0234,733,459.0234" style="stroke:#181818;stroke-width:1.0;"/><line style="stroke:#181818;stroke-width:1.0;" x1="72" x2="735" y1="459.0234" y2="459.0234"/><text fill="#000000" font-family="sans-serif" font-size="13" font-weight="bold" lengthAdjust="spacing" textLength="18" x="79" y="453.9575">11</text><text fill="#000000" font-family="sans-serif" font-size="13" lengthAdjust="spacing" textLength="138" x="101" y="453.9575">types requested data</text><polygon fill="#181818" points="83,484.1563,73,488.1563,83,492.1563,79,488.1563" style="stroke:#181818;stroke-width:1.0;"/><line style="stroke:#181818;stroke-width:1.0;stroke-dasharray:2.0,2.0;" x1="77" x2="745" y1="488.1563" y2="488.1563"/><text fill="#000000" font-family="sans-serif" font-size="13" font-weight="bold" lengthAdjust="spacing" textLength="18" x="89" y="483.0903">12</text><text fill="#000000" font-family="sans-serif" font-size="13" lengthAdjust="spacing" textLength="202" x="111" y="483.0903">requests data(SMS permission)</text><polygon fill="#181818" points="729,513.2891,739,517.2891,729,521.2891,733,517.2891" style="stroke:#181818;stroke-width:1.0;"/><line style="stroke:#181818;stroke-width:1.0;" x1="72" x2="735" y1="517.2891" y2="517.2891"/><text fill="#000000" font-family="sans-serif" font-size="13" font-weight="bold" lengthAdjust="spacing" textLength="18" x="79" y="512.2231">13</text><text fill="#000000" font-family="sans-serif" font-size="13" lengthAdjust="spacing" textLength="138" x="101" y="512.2231">types requested data</text><polygon fill="#181818" points="83,542.4219,73,546.4219,83,550.4219,79,546.4219" style="stroke:#181818;stroke-width:1.0;"/><line style="stroke:#181818;stroke-width:1.0;stroke-dasharray:2.0,2.0;" x1="77" x2="740" y1="546.4219" y2="546.4219"/><text fill="#000000" font-family="sans-serif" font-size="13" font-weight="bold" lengthAdjust="spacing" textLength="18" x="89" y="541.356">14</text><text fill="#000000" font-family="sans-serif" font-size="13" lengthAdjust="spacing" textLength="623" x="111" y="541.356">informs operations success and shows selected vaccination center, the scheduled day and time</text><!--MD5=[8c8662aa739993bcd2f7d28294155149]
@startuml
autonumber
actor "Receptionist" as RP

activate RP
RP -> ":System" : asks to create a new Vaccination appointment
activate ":System"
":System" - -> RP : suggests vaccine Type according to ongoing outbreak)
deactivate ":System"
alt if SNS user does not accept suggestion
RP -> ":System":asks for the available vaccine types
activate ":System"
":System"- -> RP: shows available vaccine types
deactivate ":System"
end
RP -> ":System" : selects vaccine type
activate ":System"
":System"- -> RP : requests data(SNS user number)
deactivate ":System"

RP -> ":System": types requested data
activate ":System"


alt if the user does not have an appointment

":System"- -> RP : shows available vaccination centers

deactivate ":System"
RP -> ":System":selects vaccination center
activate ":System"
":System"- -> RP : requests data(time of Vaccination, date of vaccination)
deactivate ":System"
RP -> ":System":types requested data
activate ":System"
":System" - -> RP : requests data(SMS permission)
deactivate ":System"
RP -> ":System":types requested data
activate ":System"
":System"- -> RP : informs operations success and shows selected vaccination center, the scheduled day and time
end
deactivate RP

@enduml

PlantUML version 1.2022.5(Sat Apr 30 11:55:52 WEST 2022)
(GPL source distribution)
Java Runtime: OpenJDK Runtime Environment
JVM: OpenJDK 64-Bit Server VM
Default Encoding: UTF-8
Language: en
Country: US
--></g></svg>