<?xml version="1.0" encoding="UTF-8" standalone="no"?><svg xmlns="http://www.w3.org/2000/svg" xmlns:xlink="http://www.w3.org/1999/xlink" contentStyleType="text/css" height="624px" preserveAspectRatio="none" style="width:837px;height:624px;background:#FFFFFF;" version="1.1" viewBox="0 0 837 624" width="837px" zoomAndPan="magnify"><defs/><g><rect fill="#FFFFFF" height="480.1172" style="stroke:#181818;stroke-width:1.0;" width="10" x="181" y="83.7266"/><rect fill="#FFFFFF" height="30" style="stroke:#181818;stroke-width:1.0;" width="10" x="457" y="194.5859"/><rect fill="#FFFFFF" height="30" style="stroke:#181818;stroke-width:1.0;" width="10" x="457" y="253.7188"/><rect fill="#FFFFFF" height="30" style="stroke:#181818;stroke-width:1.0;" width="10" x="457" y="312.8516"/><rect fill="#FFFFFF" height="30" style="stroke:#181818;stroke-width:1.0;" width="10" x="457" y="371.9844"/><rect fill="#FFFFFF" height="30" style="stroke:#181818;stroke-width:1.0;" width="10" x="657" y="488.7109"/><rect height="370.3906" style="stroke:#000000;stroke-width:1.5;fill:none;" width="725.5" x="105.5" y="156.3203"/><line style="stroke:#181818;stroke-width:0.5;fill:none;stroke-dasharray:5.0,5.0;" x1="185.5" x2="185.5" y1="52.5938" y2="572.8438"/><line style="stroke:#181818;stroke-width:0.5;fill:none;stroke-dasharray:5.0,5.0;" x1="462" x2="462" y1="52.5938" y2="572.8438"/><line style="stroke:#181818;stroke-width:0.5;fill:none;stroke-dasharray:5.0,5.0;" x1="662" x2="662" y1="130.5234" y2="572.8438"/><line style="stroke:#181818;stroke-width:0.5;fill:none;stroke-dasharray:5.0,5.0;" x1="783" x2="783" y1="448.7813" y2="572.8438"/><rect fill="#E2E2F0" height="30.2969" rx="2.5" ry="2.5" style="stroke:#181818;stroke-width:0.5;" width="141" x="115.5" y="21.2969"/><text fill="#000000" font-family="sans-serif" font-size="14" lengthAdjust="spacing" textLength="127" x="122.5" y="41.292">:MVcenterMapper</text><rect fill="#E2E2F0" height="30.2969" rx="2.5" ry="2.5" style="stroke:#181818;stroke-width:0.5;" width="141" x="115.5" y="571.8438"/><text fill="#000000" font-family="sans-serif" font-size="14" lengthAdjust="spacing" textLength="127" x="122.5" y="591.8389">:MVcenterMapper</text><rect fill="#E2E2F0" height="46.5938" rx="2.5" ry="2.5" style="stroke:#181818;stroke-width:0.5;" width="234" x="345" y="5"/><text fill="#000000" font-family="sans-serif" font-size="14" lengthAdjust="spacing" textLength="101" x="411.5" y="24.9951">mvcWithVtList</text><text fill="#000000" font-family="sans-serif" font-size="14" lengthAdjust="spacing" textLength="220" x="352" y="41.292">:List&lt;MassVaccinationCenter&gt;</text><rect fill="#E2E2F0" height="46.5938" rx="2.5" ry="2.5" style="stroke:#181818;stroke-width:0.5;" width="234" x="345" y="571.8438"/><text fill="#000000" font-family="sans-serif" font-size="14" lengthAdjust="spacing" textLength="101" x="411.5" y="591.8389">mvcWithVtList</text><text fill="#000000" font-family="sans-serif" font-size="14" lengthAdjust="spacing" textLength="220" x="352" y="608.1357">:List&lt;MassVaccinationCenter&gt;</text><rect fill="#E2E2F0" height="46.5938" rx="2.5" ry="2.5" style="stroke:#181818;stroke-width:0.5;" width="146" x="589" y="571.8438"/><text fill="#000000" font-family="sans-serif" font-size="14" lengthAdjust="spacing" textLength="132" x="596" y="591.8389">mvcWithVtDTOList</text><text fill="#000000" font-family="sans-serif" font-size="14" lengthAdjust="spacing" textLength="106" x="609" y="608.1357">:list&lt;MVCDto&gt;</text><rect fill="#E2E2F0" height="46.5938" rx="2.5" ry="2.5" style="stroke:#181818;stroke-width:0.5;" width="76" x="745" y="571.8438"/><text fill="#000000" font-family="sans-serif" font-size="14" lengthAdjust="spacing" textLength="55" x="755.5" y="591.8389">mvcDto</text><text fill="#000000" font-family="sans-serif" font-size="14" lengthAdjust="spacing" textLength="62" x="752" y="608.1357">:MVCDto</text><rect fill="#FFFFFF" height="480.1172" style="stroke:#181818;stroke-width:1.0;" width="10" x="181" y="83.7266"/><rect fill="#FFFFFF" height="30" style="stroke:#181818;stroke-width:1.0;" width="10" x="457" y="194.5859"/><rect fill="#FFFFFF" height="30" style="stroke:#181818;stroke-width:1.0;" width="10" x="457" y="253.7188"/><rect fill="#FFFFFF" height="30" style="stroke:#181818;stroke-width:1.0;" width="10" x="457" y="312.8516"/><rect fill="#FFFFFF" height="30" style="stroke:#181818;stroke-width:1.0;" width="10" x="457" y="371.9844"/><rect fill="#FFFFFF" height="30" style="stroke:#181818;stroke-width:1.0;" width="10" x="657" y="488.7109"/><ellipse cx="7.5" cy="82.9766" fill="none" rx="4" ry="4" style="stroke:#181818;stroke-width:1.5;"/><polygon fill="#181818" points="169,79.7266,179,83.7266,169,87.7266,173,83.7266" style="stroke:#181818;stroke-width:1.0;"/><line style="stroke:#181818;stroke-width:1.0;" x1="12" x2="175" y1="83.7266" y2="83.7266"/><text fill="#000000" font-family="sans-serif" font-size="13" font-weight="bold" lengthAdjust="spacing" textLength="9" x="15" y="78.6606">1</text><text fill="#000000" font-family="sans-serif" font-size="13" lengthAdjust="spacing" textLength="141" x="28" y="78.6606">toDto(mvcWithVtList)</text><polygon fill="#181818" points="577,108.8594,587,112.8594,577,116.8594,581,112.8594" style="stroke:#181818;stroke-width:1.0;"/><line style="stroke:#181818;stroke-width:1.0;stroke-dasharray:2.0,2.0;" x1="191" x2="583" y1="112.8594" y2="112.8594"/><text fill="#000000" font-family="sans-serif" font-size="13" font-weight="bold" lengthAdjust="spacing" textLength="9" x="198" y="107.7935">2</text><text fill="#000000" font-family="sans-serif" font-size="13" lengthAdjust="spacing" textLength="51" x="211" y="107.7935">create()</text><rect fill="#E2E2F0" height="46.5938" rx="2.5" ry="2.5" style="stroke:#181818;stroke-width:0.5;" width="146" x="589" y="91.7266"/><text fill="#000000" font-family="sans-serif" font-size="14" lengthAdjust="spacing" textLength="132" x="596" y="111.7217">mvcWithVtDTOList</text><text fill="#000000" font-family="sans-serif" font-size="14" lengthAdjust="spacing" textLength="106" x="609" y="128.0186">:list&lt;MVCDto&gt;</text><path d="M105.5,156.3203 L181.5,156.3203 L181.5,163.4531 L171.5,173.4531 L105.5,173.4531 L105.5,156.3203 " fill="#EEEEEE" style="stroke:#000000;stroke-width:1.5;"/><rect fill="none" height="370.3906" style="stroke:#000000;stroke-width:1.5;" width="725.5" x="105.5" y="156.3203"/><text fill="#000000" font-family="sans-serif" font-size="13" font-weight="bold" lengthAdjust="spacing" textLength="31" x="120.5" y="169.3872">loop</text><text fill="#000000" font-family="sans-serif" font-size="11" font-weight="bold" lengthAdjust="spacing" textLength="215" x="196.5" y="168.5308">[for each object in mvcWithVtList]</text><polygon fill="#181818" points="445,190.5859,455,194.5859,445,198.5859,449,194.5859" style="stroke:#181818;stroke-width:1.0;"/><line style="stroke:#181818;stroke-width:1.0;" x1="191" x2="451" y1="194.5859" y2="194.5859"/><text fill="#000000" font-family="sans-serif" font-size="13" font-weight="bold" lengthAdjust="spacing" textLength="9" x="198" y="189.52">3</text><text fill="#000000" font-family="sans-serif" font-size="13" lengthAdjust="spacing" textLength="126" x="211" y="189.52">name = getName()</text><polygon fill="#181818" points="445,249.7188,455,253.7188,445,257.7188,449,253.7188" style="stroke:#181818;stroke-width:1.0;"/><line style="stroke:#181818;stroke-width:1.0;" x1="191" x2="451" y1="253.7188" y2="253.7188"/><text fill="#000000" font-family="sans-serif" font-size="13" font-weight="bold" lengthAdjust="spacing" textLength="9" x="198" y="248.6528">4</text><text fill="#000000" font-family="sans-serif" font-size="13" lengthAdjust="spacing" textLength="234" x="211" y="248.6528">phoneNumber = getPhoneNumber()</text><polygon fill="#181818" points="445,308.8516,455,312.8516,445,316.8516,449,312.8516" style="stroke:#181818;stroke-width:1.0;"/><line style="stroke:#181818;stroke-width:1.0;" x1="191" x2="451" y1="312.8516" y2="312.8516"/><text fill="#000000" font-family="sans-serif" font-size="13" font-weight="bold" lengthAdjust="spacing" textLength="9" x="198" y="307.7856">5</text><text fill="#000000" font-family="sans-serif" font-size="13" lengthAdjust="spacing" textLength="228" x="211" y="307.7856">emailAddress = getEmailAddress()</text><polygon fill="#181818" points="445,367.9844,455,371.9844,445,375.9844,449,371.9844" style="stroke:#181818;stroke-width:1.0;"/><line style="stroke:#181818;stroke-width:1.0;" x1="191" x2="451" y1="371.9844" y2="371.9844"/><text fill="#000000" font-family="sans-serif" font-size="13" font-weight="bold" lengthAdjust="spacing" textLength="9" x="198" y="366.9185">6</text><text fill="#000000" font-family="sans-serif" font-size="13" lengthAdjust="spacing" textLength="207" x="211" y="366.9185">vaccineType=getVaccineType()</text><polygon fill="#181818" points="733,427.1172,743,431.1172,733,435.1172,737,431.1172" style="stroke:#181818;stroke-width:1.0;"/><line style="stroke:#181818;stroke-width:1.0;stroke-dasharray:2.0,2.0;" x1="191" x2="739" y1="431.1172" y2="431.1172"/><text fill="#000000" font-family="sans-serif" font-size="13" font-weight="bold" lengthAdjust="spacing" textLength="9" x="198" y="426.0513">7</text><text fill="#000000" font-family="sans-serif" font-size="13" lengthAdjust="spacing" textLength="375" x="211" y="426.0513">create(name, phoneNumber, emailAddress, vaccineType)</text><rect fill="#E2E2F0" height="46.5938" rx="2.5" ry="2.5" style="stroke:#181818;stroke-width:0.5;" width="76" x="745" y="409.9844"/><text fill="#000000" font-family="sans-serif" font-size="14" lengthAdjust="spacing" textLength="55" x="755.5" y="429.9795">mvcDto</text><text fill="#000000" font-family="sans-serif" font-size="14" lengthAdjust="spacing" textLength="62" x="752" y="446.2764">:MVCDto</text><polygon fill="#181818" points="645,484.7109,655,488.7109,645,492.7109,649,488.7109" style="stroke:#181818;stroke-width:1.0;"/><line style="stroke:#181818;stroke-width:1.0;" x1="191" x2="651" y1="488.7109" y2="488.7109"/><text fill="#000000" font-family="sans-serif" font-size="13" font-weight="bold" lengthAdjust="spacing" textLength="9" x="198" y="483.645">8</text><text fill="#000000" font-family="sans-serif" font-size="13" lengthAdjust="spacing" textLength="85" x="211" y="483.645">add(mvcDto)</text><polygon fill="#181818" points="11,550.8438,1,554.8438,11,558.8438,7,554.8438" style="stroke:#181818;stroke-width:1.0;"/><line style="stroke:#181818;stroke-width:1.0;stroke-dasharray:2.0,2.0;" x1="5" x2="180" y1="554.8438" y2="554.8438"/><text fill="#000000" font-family="sans-serif" font-size="13" font-weight="bold" lengthAdjust="spacing" textLength="9" x="17" y="549.7778">9</text><text fill="#000000" font-family="sans-serif" font-size="13" lengthAdjust="spacing" textLength="123" x="30" y="549.7778">mvcWithVtDTOList</text><!--MD5=[b0b2a41635a8fda0d936d36a0ad21d78]
@startuml
autonumber
participant ":MVcenterMapper" as VcMapper
participant "mvcWithVtList\n:List<MassVaccinationCenter>" as mvcWithVtList
participant "mvcWithVtDTOList\n:list<MVCDto>" as mvcWithVtDtoList
participant "mvcDto\n:MVCDto" as MVCDto

[o->VcMapper : toDto(mvcWithVtList)
activate VcMapper

VcMapper - -> mvcWithVtDtoList **: create()

loop for each object in mvcWithVtList

VcMapper -> mvcWithVtList : name = getName()
activate mvcWithVtList
deactivate mvcWithVtList
VcMapper -> mvcWithVtList : phoneNumber = getPhoneNumber()
activate mvcWithVtList
deactivate mvcWithVtList
VcMapper -> mvcWithVtList : emailAddress = getEmailAddress()
activate mvcWithVtList
deactivate mvcWithVtList
VcMapper -> mvcWithVtList : vaccineType=getVaccineType()
activate mvcWithVtList
deactivate mvcWithVtList



VcMapper - -> MVCDto **: create(name, phoneNumber, emailAddress, vaccineType)

VcMapper -> mvcWithVtDtoList : add(mvcDto)
activate mvcWithVtDtoList
deactivate mvcWithVtDtoList
end loop
[<- - VcMapper : mvcWithVtDTOList

@enduml

PlantUML version 1.2022.5(Sat Apr 30 11:55:52 WEST 2022)
(GPL source distribution)
Java Runtime: OpenJDK Runtime Environment
JVM: OpenJDK 64-Bit Server VM
Default Encoding: UTF-8
Language: en
Country: US
--></g></svg>