<?xml version="1.0" encoding="UTF-8" standalone="no"?><svg xmlns="http://www.w3.org/2000/svg" xmlns:xlink="http://www.w3.org/1999/xlink" contentScriptType="application/ecmascript" contentStyleType="text/css" height="1603px" preserveAspectRatio="none" style="width:624px;height:1603px;background:#FFFFFF;" version="1.1" viewBox="0 0 624 1603" width="624px" zoomAndPan="magnify"><defs><filter height="300%" id="f1q8y11rd93pqs" width="300%" x="-1" y="-1"><feGaussianBlur result="blurOut" stdDeviation="2.0"/><feColorMatrix in="blurOut" result="blurOut2" type="matrix" values="0 0 0 0 0 0 0 0 0 0 0 0 0 0 0 0 0 0 .4 0"/><feOffset dx="4.0" dy="4.0" in="blurOut2" result="blurOut3"/><feBlend in="SourceGraphic" in2="blurOut3" mode="normal"/></filter></defs><g><!--MD5=[97ab183161fd5d1db7fba7485cf76add]
entity Admin--><ellipse cx="67" cy="1406.5" fill="#FEFECE" filter="url(#f1q8y11rd93pqs)" rx="8" ry="8" style="stroke:#A80036;stroke-width:1.5;"/><path d="M67,1414.5 L67,1441.5 M54,1422.5 L80,1422.5 M67,1441.5 L54,1456.5 M67,1441.5 L80,1456.5 " fill="none" filter="url(#f1q8y11rd93pqs)" style="stroke:#A80036;stroke-width:1.5;"/><text fill="#000000" font-family="sans-serif" font-size="14" lengthAdjust="spacing" textLength="83" x="25.5" y="1476.5332">Administrator</text><!--MD5=[36dc586d67e0f1d076b0ce70c9875d3e]
entity CC--><ellipse cx="67" cy="1045.5" fill="#FEFECE" filter="url(#f1q8y11rd93pqs)" rx="8" ry="8" style="stroke:#A80036;stroke-width:1.5;"/><path d="M67,1053.5 L67,1080.5 M54,1061.5 L80,1061.5 M67,1080.5 L54,1095.5 M67,1080.5 L80,1095.5 " fill="none" filter="url(#f1q8y11rd93pqs)" style="stroke:#A80036;stroke-width:1.5;"/><text fill="#000000" font-family="sans-serif" font-size="14" lengthAdjust="spacing" textLength="122" x="6" y="1115.5332">Center Coordinator</text><!--MD5=[7bbb50bb6a1a4a16f3de7991aea95734]
entity RP--><ellipse cx="67" cy="131.5" fill="#FEFECE" filter="url(#f1q8y11rd93pqs)" rx="8" ry="8" style="stroke:#A80036;stroke-width:1.5;"/><path d="M67,139.5 L67,166.5 M54,147.5 L80,147.5 M67,166.5 L54,181.5 M67,166.5 L80,181.5 " fill="none" filter="url(#f1q8y11rd93pqs)" style="stroke:#A80036;stroke-width:1.5;"/><text fill="#000000" font-family="sans-serif" font-size="14" lengthAdjust="spacing" textLength="78" x="28" y="201.5332">Receptionist</text><!--MD5=[61498962660899b120993277f4dd34dc]
entity NS--><ellipse cx="67" cy="557.5" fill="#FEFECE" filter="url(#f1q8y11rd93pqs)" rx="8" ry="8" style="stroke:#A80036;stroke-width:1.5;"/><path d="M67,565.5 L67,592.5 M54,573.5 L80,573.5 M67,592.5 L54,607.5 M67,592.5 L80,607.5 " fill="none" filter="url(#f1q8y11rd93pqs)" style="stroke:#A80036;stroke-width:1.5;"/><text fill="#000000" font-family="sans-serif" font-size="14" lengthAdjust="spacing" textLength="37" x="48.5" y="627.5332">Nurse</text><!--MD5=[fee662a292a0353a69bd162820bae93b]
entity User--><ellipse cx="67" cy="286.5" fill="#FEFECE" filter="url(#f1q8y11rd93pqs)" rx="8" ry="8" style="stroke:#A80036;stroke-width:1.5;"/><path d="M67,294.5 L67,321.5 M54,302.5 L80,302.5 M67,321.5 L54,336.5 M67,321.5 L80,336.5 " fill="none" filter="url(#f1q8y11rd93pqs)" style="stroke:#A80036;stroke-width:1.5;"/><text fill="#000000" font-family="sans-serif" font-size="14" lengthAdjust="spacing" textLength="60" x="37" y="356.5332">SNS User</text><ellipse cx="399.8511" cy="355.4702" fill="#FEFECE" filter="url(#f1q8y11rd93pqs)" rx="130.3511" ry="28.4702" style="stroke:#A80036;stroke-width:1.5;"/><text fill="#000000" font-family="sans-serif" font-size="14" lengthAdjust="spacing" textLength="227" x="286.3511" y="359.1987">UC1 - Obtain Vaccination Certificate</text><ellipse cx="399.7982" cy="267.2596" fill="#FEFECE" filter="url(#f1q8y11rd93pqs)" rx="106.7982" ry="23.7596" style="stroke:#A80036;stroke-width:1.5;"/><text fill="#000000" font-family="sans-serif" font-size="14" lengthAdjust="spacing" textLength="176" x="311.7982" y="270.9882">UC2 - Schedule Vaccination</text><ellipse cx="399.79" cy="447.658" fill="#FEFECE" filter="url(#f1q8y11rd93pqs)" rx="131.29" ry="28.658" style="stroke:#A80036;stroke-width:1.5;"/><text fill="#000000" font-family="sans-serif" font-size="14" lengthAdjust="spacing" textLength="229" x="285.29" y="451.3865">UC3- Check the SNS User Arrival list</text><ellipse cx="400.0083" cy="539.5017" fill="#FEFECE" filter="url(#f1q8y11rd93pqs)" rx="128.0083" ry="28.0017" style="stroke:#A80036;stroke-width:1.5;"/><text fill="#000000" font-family="sans-serif" font-size="14" lengthAdjust="spacing" textLength="218" x="289.0083" y="543.2302">UC4 - Check SNS User Information</text><ellipse cx="400.1116" cy="638.3223" fill="#FEFECE" filter="url(#f1q8y11rd93pqs)" rx="164.6116" ry="35.3223" style="stroke:#A80036;stroke-width:1.5;"/><text fill="#000000" font-family="sans-serif" font-size="14" lengthAdjust="spacing" textLength="299" x="250.6116" y="642.0508">UC5- Check Vaccine Administration Instructions</text><ellipse cx="399.982" cy="745.4964" fill="#FEFECE" filter="url(#f1q8y11rd93pqs)" rx="167.982" ry="35.9964" style="stroke:#A80036;stroke-width:1.5;"/><text fill="#000000" font-family="sans-serif" font-size="14" lengthAdjust="spacing" textLength="306" x="246.982" y="749.2249">UC6 - Register administered Vaccine Information</text><ellipse cx="400.2025" cy="842.6405" fill="#FEFECE" filter="url(#f1q8y11rd93pqs)" rx="118.7025" ry="26.1405" style="stroke:#A80036;stroke-width:1.5;"/><text fill="#000000" font-family="sans-serif" font-size="14" lengthAdjust="spacing" textLength="202" x="299.2025" y="846.369">UC7 - Record Adverse Reaction</text><ellipse cx="399.7727" cy="931.2545" fill="#FEFECE" filter="url(#f1q8y11rd93pqs)" rx="124.2727" ry="27.2545" style="stroke:#A80036;stroke-width:1.5;"/><text fill="#000000" font-family="sans-serif" font-size="14" lengthAdjust="spacing" textLength="214" x="292.7727" y="934.9831">UC8 - Check Statistics and Charts</text><ellipse cx="399.8751" cy="1030.575" fill="#FEFECE" filter="url(#f1q8y11rd93pqs)" rx="170.8751" ry="36.575" style="stroke:#A80036;stroke-width:1.5;"/><text fill="#000000" font-family="sans-serif" font-size="14" lengthAdjust="spacing" textLength="312" x="243.8751" y="1034.3035">UC9 - Evaluate Vaccination Process Performance</text><ellipse cx="400.0042" cy="1124.5008" fill="#FEFECE" filter="url(#f1q8y11rd93pqs)" rx="100.5042" ry="22.5008" style="stroke:#A80036;stroke-width:1.5;"/><text fill="#000000" font-family="sans-serif" font-size="14" lengthAdjust="spacing" textLength="162" x="319.0042" y="1128.2293">UC10 - Generate Reports</text><ellipse cx="400.0214" cy="1213.3043" fill="#FEFECE" filter="url(#f1q8y11rd93pqs)" rx="144.5214" ry="31.3043" style="stroke:#A80036;stroke-width:1.5;"/><text fill="#000000" font-family="sans-serif" font-size="14" lengthAdjust="spacing" textLength="257" x="271.5214" y="1217.0328">UC11 - Analyze Data from Other Centers</text><ellipse cx="400.0602" cy="44.412" fill="#FEFECE" filter="url(#f1q8y11rd93pqs)" rx="180.0602" ry="38.412" style="stroke:#A80036;stroke-width:1.5;"/><text fill="#000000" font-family="sans-serif" font-size="14" lengthAdjust="spacing" textLength="331" x="234.5602" y="48.1406">UC12 - Check Arriving SNS User's Vaccine Schedule</text><ellipse cx="400.1849" cy="163.337" fill="#FEFECE" filter="url(#f1q8y11rd93pqs)" rx="212.1849" ry="44.837" style="stroke:#A80036;stroke-width:1.5;"/><text fill="#000000" font-family="sans-serif" font-size="14" lengthAdjust="spacing" textLength="397" x="201.6849" y="167.0655">UC13 - Register SNS User as Ready for Vaccine Administration</text><ellipse cx="400.1999" cy="1309.44" fill="#FEFECE" filter="url(#f1q8y11rd93pqs)" rx="132.6999" ry="28.94" style="stroke:#A80036;stroke-width:1.5;"/><text fill="#000000" font-family="sans-serif" font-size="14" lengthAdjust="spacing" textLength="232" x="284.1999" y="1313.1685">UC14 - Register Vaccination Centers</text><ellipse cx="399.8935" cy="1397.5787" fill="#FEFECE" filter="url(#f1q8y11rd93pqs)" rx="105.8935" ry="23.5787" style="stroke:#A80036;stroke-width:1.5;"/><text fill="#000000" font-family="sans-serif" font-size="14" lengthAdjust="spacing" textLength="174" x="312.8935" y="1401.3072">UC15 - Register Employees</text><ellipse cx="399.9905" cy="1479.3981" fill="#FEFECE" filter="url(#f1q8y11rd93pqs)" rx="104.9905" ry="23.3981" style="stroke:#A80036;stroke-width:1.5;"/><text fill="#000000" font-family="sans-serif" font-size="14" lengthAdjust="spacing" textLength="172" x="313.9905" y="1483.1266">UC16 - Register SNS Users</text><ellipse cx="399.9823" cy="1564.6965" fill="#FEFECE" filter="url(#f1q8y11rd93pqs)" rx="121.4823" ry="26.6965" style="stroke:#A80036;stroke-width:1.5;"/><text fill="#000000" font-family="sans-serif" font-size="14" lengthAdjust="spacing" textLength="208" x="295.9823" y="1568.425">UC17 - Manage Core Information</text><!--MD5=[57bf3159251ba6d788e56222dd11fdd6]
link User to UC1--><path d="M97.08,321.75 C138.49,326.38 216.8,335.13 283.29,342.57 " fill="none" id="User-UC1" style="stroke:#A80036;stroke-width:1.0;"/><!--MD5=[06ebee4cbbe132cc9038a23578b440b9]
link User to UC2--><path d="M97.08,314.02 C144.49,306.71 240.25,291.96 311.27,281.02 " fill="none" id="User-UC2" style="stroke:#A80036;stroke-width:1.0;"/><!--MD5=[e5c7ddf601b8213443211475883b0865]
link NS to UC1--><path d="M83.34,547.78 C101.52,504.34 136.06,437.7 188,401.5 C214.15,383.28 246.19,372.09 277.33,365.26 " fill="none" id="NS-UC1" style="stroke:#A80036;stroke-width:1.0;"/><!--MD5=[bf6700ddb10065d1edfcbd4418945019]
link NS to UC3--><path d="M85.67,570.88 C107.57,548.94 147.06,513.01 188,493.5 C218.55,478.94 253.78,468.93 286.6,462.07 " fill="none" id="NS-UC3" style="stroke:#A80036;stroke-width:1.0;"/><!--MD5=[d43f4218f45bd3845919d3fa9610a510]
link NS to UC4--><path d="M85.8,586.81 C124.54,580.96 219.06,566.68 294.21,555.33 " fill="none" id="NS-UC4" style="stroke:#A80036;stroke-width:1.0;"/><!--MD5=[24b53d0fa8733db4e378477686c553df]
link NS to UC5--><path d="M85.8,592.13 C119.43,597.11 195.13,608.32 263.68,618.47 " fill="none" id="NS-UC5" style="stroke:#A80036;stroke-width:1.0;"/><!--MD5=[1f667926c299fc54ef1184cf4b18bfdf]
link NS to UC6--><path d="M85.55,609.07 C107.35,632.17 146.72,670.14 188,691.5 C213.44,704.66 242.3,714.77 270.32,722.46 " fill="none" id="NS-UC6" style="stroke:#A80036;stroke-width:1.0;"/><!--MD5=[0cd34458f748377b11765e1982bad2fa]
link NS to UC7--><path d="M80.33,631.12 C96.8,679.2 130.76,756.98 188,798.5 C215.94,818.77 251.15,830.14 284.75,836.4 " fill="none" id="NS-UC7" style="stroke:#A80036;stroke-width:1.0;"/><!--MD5=[5b2cab0b0d17293b5bf70e76435c1e80]
link CC to UC8--><path d="M107.15,1035.96 C129.04,1015.11 157.91,991.22 188,976.5 C219.38,961.15 255.89,951.02 289.64,944.33 " fill="none" id="CC-UC8" style="stroke:#A80036;stroke-width:1.0;"/><!--MD5=[632844f783d3519f32b62ad97a6e93be]
link CC to UC9--><path d="M128.33,1068.93 C164.41,1063.81 211.88,1057.07 256.97,1050.67 " fill="none" id="CC-UC9" style="stroke:#A80036;stroke-width:1.0;"/><!--MD5=[d6b96a0389f8f37ac27f8ede4c787e28]
link CC to UC10--><path d="M128.33,1086.07 C180.54,1093.48 256.59,1104.28 314.8,1112.54 " fill="none" id="CC-UC10" style="stroke:#A80036;stroke-width:1.0;"/><!--MD5=[cb4d4b74874b9d0fe9623886718e99f2]
link CC to UC11--><path d="M116.02,1119.11 C136.94,1135.37 162.48,1152.86 188,1164.5 C217.43,1177.92 250.9,1187.85 282.37,1195.12 " fill="none" id="CC-UC11" style="stroke:#A80036;stroke-width:1.0;"/><!--MD5=[beaabf0af3a11575d8e4c4bead497236]
link RP to UC2--><path d="M106.22,186.76 C129.2,199.84 159.45,215.51 188,225.5 C226.43,238.95 270.38,248.56 308.19,255.16 " fill="none" id="RP-UC2" style="stroke:#A80036;stroke-width:1.0;"/><!--MD5=[214dbc86708b52829132350ff4507fc1]
link RP to UC12--><path d="M106.15,140.66 C129.23,127.55 159.61,111.56 188,100.5 C215.72,89.7 246.28,80.26 275.34,72.36 " fill="none" id="RP-UC12" style="stroke:#A80036;stroke-width:1.0;"/><!--MD5=[bcab731a1a1a02340f066faf4b43b6db]
link RP to UC13--><path d="M106.29,163.5 C127.82,163.5 156.58,163.5 187.68,163.5 " fill="none" id="RP-UC13" style="stroke:#A80036;stroke-width:1.0;"/><!--MD5=[7485bff580af6ce309933348d15117e2]
link Admin to UC14--><path d="M108.73,1404.9 C130.95,1388.11 159.64,1368.8 188,1356.5 C219.85,1342.68 256.23,1332.72 289.71,1325.62 " fill="none" id="Admin-UC14" style="stroke:#A80036;stroke-width:1.0;"/><!--MD5=[10afefaecb7e8d7852a8ba98bd08c0bb]
link Admin to UC15--><path d="M108.59,1433.47 C157.7,1427.39 241.9,1416.96 307.03,1408.89 " fill="none" id="Admin-UC15" style="stroke:#A80036;stroke-width:1.0;"/><!--MD5=[8526d5f680335a2f8e1798763d2c362d]
link Admin to UC16--><path d="M108.59,1443.53 C157.87,1449.63 242.49,1460.11 307.72,1468.19 " fill="none" id="Admin-UC16" style="stroke:#A80036;stroke-width:1.0;"/><!--MD5=[c0c944efed30e14450a821e2cdda5a51]
link Admin to UC17--><path d="M108.66,1472.26 C130.86,1489.09 159.56,1508.39 188,1520.5 C221.48,1534.76 259.98,1544.53 294.84,1551.17 " fill="none" id="Admin-UC17" style="stroke:#A80036;stroke-width:1.0;"/><!--MD5=[5a8f2be1b68a7c9dc33173669629839b]
@startuml
'https://plantuml.com/use-case-diagram
left to right direction


:Administrator: as Admin
:Center Coordinator: as CC
:Receptionist: as RP
:Nurse: as NS
:SNS User: as User

(UC1 - Obtain Vaccination Certificate) as (UC1)
(UC2 - Schedule Vaccination) as (UC2)
(UC3- Check the SNS User Arrival list) as (UC3)
(UC4 - Check SNS User Information ) as (UC4)
(UC5- Check Vaccine Administration Instructions) as (UC5)
(UC6 - Register administered Vaccine Information) as (UC6)
(UC7 - Record Adverse Reaction) as (UC7)
(UC8 - Check Statistics and Charts) as (UC8)
(UC9 - Evaluate Vaccination Process Performance) as (UC9)
(UC10 - Generate Reports) as (UC10)
(UC11 - Analyze Data from Other Centers) as (UC11)
(UC12 - Check Arriving SNS User's Vaccine Schedule) as (UC12)
(UC13 - Register SNS User as Ready for Vaccine Administration) as (UC13)
(UC14 - Register Vaccination Centers) as (UC14)
(UC15 - Register Employees) as (UC15)
(UC16 - Register SNS Users) as (UC16)
(UC17 - Manage Core Information) as (UC17)



User - - (UC1)
User - - (UC2)

NS - - (UC1)
NS - - (UC3)
NS - - (UC4)
NS - - (UC5)
NS - - (UC6)
NS - - (UC7)

CC - - (UC8)
CC - - (UC9)
CC - - (UC10)
CC - - (UC11)

RP - - (UC2)
RP - - (UC12)
RP - - (UC13)

Admin - - (UC14)
Admin - - (UC15)
Admin - - (UC16)
Admin - - (UC17)
@enduml

@startuml
left to right direction


:Administrator: as Admin
:Center Coordinator: as CC
:Receptionist: as RP
:Nurse: as NS
:SNS User: as User

(UC1 - Obtain Vaccination Certificate) as (UC1)
(UC2 - Schedule Vaccination) as (UC2)
(UC3- Check the SNS User Arrival list) as (UC3)
(UC4 - Check SNS User Information ) as (UC4)
(UC5- Check Vaccine Administration Instructions) as (UC5)
(UC6 - Register administered Vaccine Information) as (UC6)
(UC7 - Record Adverse Reaction) as (UC7)
(UC8 - Check Statistics and Charts) as (UC8)
(UC9 - Evaluate Vaccination Process Performance) as (UC9)
(UC10 - Generate Reports) as (UC10)
(UC11 - Analyze Data from Other Centers) as (UC11)
(UC12 - Check Arriving SNS User's Vaccine Schedule) as (UC12)
(UC13 - Register SNS User as Ready for Vaccine Administration) as (UC13)
(UC14 - Register Vaccination Centers) as (UC14)
(UC15 - Register Employees) as (UC15)
(UC16 - Register SNS Users) as (UC16)
(UC17 - Manage Core Information) as (UC17)



User - - (UC1)
User - - (UC2)

NS - - (UC1)
NS - - (UC3)
NS - - (UC4)
NS - - (UC5)
NS - - (UC6)
NS - - (UC7)

CC - - (UC8)
CC - - (UC9)
CC - - (UC10)
CC - - (UC11)

RP - - (UC2)
RP - - (UC12)
RP - - (UC13)

Admin - - (UC14)
Admin - - (UC15)
Admin - - (UC16)
Admin - - (UC17)
@enduml

PlantUML version 1.2022.1(Tue Feb 01 18:19:58 GMT 2022)
(GPL source distribution)
Java Runtime: OpenJDK Runtime Environment
JVM: OpenJDK 64-Bit Server VM
Default Encoding: Cp1252
Language: pt
Country: PT
--></g></svg>