<?xml version="1.0" encoding="UTF-8" standalone="no"?><svg xmlns="http://www.w3.org/2000/svg" xmlns:xlink="http://www.w3.org/1999/xlink" contentStyleType="text/css" height="674px" preserveAspectRatio="none" style="width:706px;height:674px;background:#FFFFFF;" version="1.1" viewBox="0 0 706 674" width="706px" zoomAndPan="magnify"><defs/><g><rect fill="#FFFFFF" height="489.625" style="stroke:#181818;stroke-width:1.0;" width="10" x="47.5" y="92.6094"/><rect fill="#FFFFFF" height="30.3516" style="stroke:#181818;stroke-width:1.0;" width="10" x="653.5" y="114.9609"/><rect fill="#FFFFFF" height="30.3516" style="stroke:#181818;stroke-width:1.0;" width="10" x="653.5" y="201.0156"/><rect fill="#FFFFFF" height="30.3516" style="stroke:#181818;stroke-width:1.0;" width="10" x="653.5" y="268.7188"/><rect fill="#FFFFFF" height="55.7031" style="stroke:#181818;stroke-width:1.0;" width="10" x="653.5" y="329.4219"/><rect fill="#FFFFFF" height="30.3516" style="stroke:#181818;stroke-width:1.0;" width="10" x="653.5" y="415.4766"/><rect fill="#FFFFFF" height="30.3516" style="stroke:#181818;stroke-width:1.0;" width="10" x="653.5" y="476.1797"/><rect fill="#FFFFFF" height="46.3516" style="stroke:#181818;stroke-width:1.0;" width="10" x="653.5" y="536.8828"/><rect height="79.0547" style="stroke:#000000;stroke-width:1.5;fill:none;" width="690.5" x="10" y="160.3125"/><rect height="230.8125" style="stroke:#000000;stroke-width:1.5;fill:none;" width="690.5" x="10" y="344.4219"/><line style="stroke:#181818;stroke-width:0.5;fill:none;stroke-dasharray:5.0,5.0;" x1="52" x2="52" y1="82.6094" y2="592.2344"/><line style="stroke:#181818;stroke-width:0.5;fill:none;stroke-dasharray:5.0,5.0;" x1="658.5" x2="658.5" y1="82.6094" y2="592.2344"/><text fill="#000000" font-family="sans-serif" font-size="14" lengthAdjust="spacing" textLength="59" x="20" y="79.5332">SNS user</text><ellipse cx="52.5" cy="13.5" fill="#E2E2F0" rx="8" ry="8" style="stroke:#181818;stroke-width:0.5;"/><path d="M52.5,21.5 L52.5,48.5 M39.5,29.5 L65.5,29.5 M52.5,48.5 L39.5,63.5 M52.5,48.5 L65.5,63.5 " fill="none" style="stroke:#181818;stroke-width:0.5;"/><text fill="#000000" font-family="sans-serif" font-size="14" lengthAdjust="spacing" textLength="59" x="20" y="605.7676">SNS user</text><ellipse cx="52.5" cy="617.3438" fill="#E2E2F0" rx="8" ry="8" style="stroke:#181818;stroke-width:0.5;"/><path d="M52.5,625.3438 L52.5,652.3438 M39.5,633.3438 L65.5,633.3438 M52.5,652.3438 L39.5,667.3438 M52.5,652.3438 L65.5,667.3438 " fill="none" style="stroke:#181818;stroke-width:0.5;"/><rect fill="#E2E2F0" height="31.6094" rx="2.5" ry="2.5" style="stroke:#181818;stroke-width:0.5;" width="64" x="626.5" y="50"/><text fill="#000000" font-family="sans-serif" font-size="14" lengthAdjust="spacing" textLength="50" x="633.5" y="71.5332">:System</text><rect fill="#E2E2F0" height="31.6094" rx="2.5" ry="2.5" style="stroke:#181818;stroke-width:0.5;" width="64" x="626.5" y="591.2344"/><text fill="#000000" font-family="sans-serif" font-size="14" lengthAdjust="spacing" textLength="50" x="633.5" y="612.7676">:System</text><rect fill="#FFFFFF" height="489.625" style="stroke:#181818;stroke-width:1.0;" width="10" x="47.5" y="92.6094"/><rect fill="#FFFFFF" height="30.3516" style="stroke:#181818;stroke-width:1.0;" width="10" x="653.5" y="114.9609"/><rect fill="#FFFFFF" height="30.3516" style="stroke:#181818;stroke-width:1.0;" width="10" x="653.5" y="201.0156"/><rect fill="#FFFFFF" height="30.3516" style="stroke:#181818;stroke-width:1.0;" width="10" x="653.5" y="268.7188"/><rect fill="#FFFFFF" height="55.7031" style="stroke:#181818;stroke-width:1.0;" width="10" x="653.5" y="329.4219"/><rect fill="#FFFFFF" height="30.3516" style="stroke:#181818;stroke-width:1.0;" width="10" x="653.5" y="415.4766"/><rect fill="#FFFFFF" height="30.3516" style="stroke:#181818;stroke-width:1.0;" width="10" x="653.5" y="476.1797"/><rect fill="#FFFFFF" height="46.3516" style="stroke:#181818;stroke-width:1.0;" width="10" x="653.5" y="536.8828"/><polygon fill="#181818" points="641.5,110.9609,651.5,114.9609,641.5,118.9609,645.5,114.9609" style="stroke:#181818;stroke-width:1.0;"/><line style="stroke:#181818;stroke-width:1.0;" x1="57.5" x2="647.5" y1="114.9609" y2="114.9609"/><text fill="#000000" font-family="sans-serif" font-size="13" font-weight="bold" lengthAdjust="spacing" textLength="7" x="64.5" y="110.1045">1</text><text fill="#000000" font-family="sans-serif" font-size="13" lengthAdjust="spacing" textLength="268" x="75.5" y="110.1045">asks to create a new Vaccination appointment</text><polygon fill="#181818" points="68.5,141.3125,58.5,145.3125,68.5,149.3125,64.5,145.3125" style="stroke:#181818;stroke-width:1.0;"/><line style="stroke:#181818;stroke-width:1.0;stroke-dasharray:2.0,2.0;" x1="62.5" x2="657.5" y1="145.3125" y2="145.3125"/><text fill="#000000" font-family="sans-serif" font-size="13" font-weight="bold" lengthAdjust="spacing" textLength="7" x="74.5" y="140.4561">2</text><text fill="#000000" font-family="sans-serif" font-size="13" lengthAdjust="spacing" textLength="314" x="85.5" y="140.4561">suggests vaccine Type according to ongoing outbreak)</text><path d="M10,160.3125 L71,160.3125 L71,168.6641 L61,178.6641 L10,178.6641 L10,160.3125 " fill="#EEEEEE" style="stroke:#000000;stroke-width:1.5;"/><rect fill="none" height="79.0547" style="stroke:#000000;stroke-width:1.5;" width="690.5" x="10" y="160.3125"/><text fill="#000000" font-family="sans-serif" font-size="13" font-weight="bold" lengthAdjust="spacing" textLength="16" x="25" y="174.8076">alt</text><text fill="#000000" font-family="sans-serif" font-size="11" font-weight="bold" lengthAdjust="spacing" textLength="225" x="86" y="173.7314">[if SNS user does not accept suggestion]</text><polygon fill="#181818" points="641.5,197.0156,651.5,201.0156,641.5,205.0156,645.5,201.0156" style="stroke:#181818;stroke-width:1.0;"/><line style="stroke:#181818;stroke-width:1.0;" x1="57.5" x2="647.5" y1="201.0156" y2="201.0156"/><text fill="#000000" font-family="sans-serif" font-size="13" font-weight="bold" lengthAdjust="spacing" textLength="7" x="64.5" y="196.1592">3</text><text fill="#000000" font-family="sans-serif" font-size="13" lengthAdjust="spacing" textLength="204" x="75.5" y="196.1592">asks for the available vaccine types</text><polygon fill="#181818" points="68.5,227.3672,58.5,231.3672,68.5,235.3672,64.5,231.3672" style="stroke:#181818;stroke-width:1.0;"/><line style="stroke:#181818;stroke-width:1.0;stroke-dasharray:2.0,2.0;" x1="62.5" x2="657.5" y1="231.3672" y2="231.3672"/><text fill="#000000" font-family="sans-serif" font-size="13" font-weight="bold" lengthAdjust="spacing" textLength="7" x="74.5" y="226.5107">4</text><text fill="#000000" font-family="sans-serif" font-size="13" lengthAdjust="spacing" textLength="173" x="85.5" y="226.5107">shows available vaccine types</text><polygon fill="#181818" points="641.5,264.7188,651.5,268.7188,641.5,272.7188,645.5,268.7188" style="stroke:#181818;stroke-width:1.0;"/><line style="stroke:#181818;stroke-width:1.0;" x1="57.5" x2="647.5" y1="268.7188" y2="268.7188"/><text fill="#000000" font-family="sans-serif" font-size="13" font-weight="bold" lengthAdjust="spacing" textLength="7" x="64.5" y="263.8623">5</text><text fill="#000000" font-family="sans-serif" font-size="13" lengthAdjust="spacing" textLength="118" x="75.5" y="263.8623">selects vaccine type</text><polygon fill="#181818" points="68.5,295.0703,58.5,299.0703,68.5,303.0703,64.5,299.0703" style="stroke:#181818;stroke-width:1.0;"/><line style="stroke:#181818;stroke-width:1.0;stroke-dasharray:2.0,2.0;" x1="62.5" x2="657.5" y1="299.0703" y2="299.0703"/><text fill="#000000" font-family="sans-serif" font-size="13" font-weight="bold" lengthAdjust="spacing" textLength="7" x="74.5" y="294.2139">6</text><text fill="#000000" font-family="sans-serif" font-size="13" lengthAdjust="spacing" textLength="190" x="85.5" y="294.2139">requests data(SNS user number)</text><polygon fill="#181818" points="641.5,325.4219,651.5,329.4219,641.5,333.4219,645.5,329.4219" style="stroke:#181818;stroke-width:1.0;"/><line style="stroke:#181818;stroke-width:1.0;" x1="57.5" x2="647.5" y1="329.4219" y2="329.4219"/><text fill="#000000" font-family="sans-serif" font-size="13" font-weight="bold" lengthAdjust="spacing" textLength="7" x="64.5" y="324.5654">7</text><text fill="#000000" font-family="sans-serif" font-size="13" lengthAdjust="spacing" textLength="122" x="75.5" y="324.5654">types requested data</text><path d="M10,344.4219 L71,344.4219 L71,352.7734 L61,362.7734 L10,362.7734 L10,344.4219 " fill="#EEEEEE" style="stroke:#000000;stroke-width:1.5;"/><rect fill="none" height="230.8125" style="stroke:#000000;stroke-width:1.5;" width="690.5" x="10" y="344.4219"/><text fill="#000000" font-family="sans-serif" font-size="13" font-weight="bold" lengthAdjust="spacing" textLength="16" x="25" y="358.917">alt</text><text fill="#000000" font-family="sans-serif" font-size="11" font-weight="bold" lengthAdjust="spacing" textLength="235" x="86" y="357.8408">[if the user does not have an appointment]</text><polygon fill="#181818" points="68.5,381.125,58.5,385.125,68.5,389.125,64.5,385.125" style="stroke:#181818;stroke-width:1.0;"/><line style="stroke:#181818;stroke-width:1.0;stroke-dasharray:2.0,2.0;" x1="62.5" x2="657.5" y1="385.125" y2="385.125"/><text fill="#000000" font-family="sans-serif" font-size="13" font-weight="bold" lengthAdjust="spacing" textLength="7" x="74.5" y="380.2686">8</text><text fill="#000000" font-family="sans-serif" font-size="13" lengthAdjust="spacing" textLength="205" x="85.5" y="380.2686">shows available vaccination centers</text><polygon fill="#181818" points="641.5,411.4766,651.5,415.4766,641.5,419.4766,645.5,415.4766" style="stroke:#181818;stroke-width:1.0;"/><line style="stroke:#181818;stroke-width:1.0;" x1="57.5" x2="647.5" y1="415.4766" y2="415.4766"/><text fill="#000000" font-family="sans-serif" font-size="13" font-weight="bold" lengthAdjust="spacing" textLength="7" x="64.5" y="410.6201">9</text><text fill="#000000" font-family="sans-serif" font-size="13" lengthAdjust="spacing" textLength="150" x="75.5" y="410.6201">selects vaccination center</text><polygon fill="#181818" points="68.5,441.8281,58.5,445.8281,68.5,449.8281,64.5,445.8281" style="stroke:#181818;stroke-width:1.0;"/><line style="stroke:#181818;stroke-width:1.0;stroke-dasharray:2.0,2.0;" x1="62.5" x2="657.5" y1="445.8281" y2="445.8281"/><text fill="#000000" font-family="sans-serif" font-size="13" font-weight="bold" lengthAdjust="spacing" textLength="14" x="74.5" y="440.9717">10</text><text fill="#000000" font-family="sans-serif" font-size="13" lengthAdjust="spacing" textLength="313" x="92.5" y="440.9717">requests data(time of Vaccination, date of vaccination)</text><polygon fill="#181818" points="641.5,472.1797,651.5,476.1797,641.5,480.1797,645.5,476.1797" style="stroke:#181818;stroke-width:1.0;"/><line style="stroke:#181818;stroke-width:1.0;" x1="57.5" x2="647.5" y1="476.1797" y2="476.1797"/><text fill="#000000" font-family="sans-serif" font-size="13" font-weight="bold" lengthAdjust="spacing" textLength="14" x="64.5" y="471.3232">11</text><text fill="#000000" font-family="sans-serif" font-size="13" lengthAdjust="spacing" textLength="122" x="82.5" y="471.3232">types requested data</text><polygon fill="#181818" points="68.5,502.5313,58.5,506.5313,68.5,510.5313,64.5,506.5313" style="stroke:#181818;stroke-width:1.0;"/><line style="stroke:#181818;stroke-width:1.0;stroke-dasharray:2.0,2.0;" x1="62.5" x2="657.5" y1="506.5313" y2="506.5313"/><text fill="#000000" font-family="sans-serif" font-size="13" font-weight="bold" lengthAdjust="spacing" textLength="14" x="74.5" y="501.6748">12</text><text fill="#000000" font-family="sans-serif" font-size="13" lengthAdjust="spacing" textLength="183" x="92.5" y="501.6748">requests data(SMS permission)</text><polygon fill="#181818" points="641.5,532.8828,651.5,536.8828,641.5,540.8828,645.5,536.8828" style="stroke:#181818;stroke-width:1.0;"/><line style="stroke:#181818;stroke-width:1.0;" x1="57.5" x2="647.5" y1="536.8828" y2="536.8828"/><text fill="#000000" font-family="sans-serif" font-size="13" font-weight="bold" lengthAdjust="spacing" textLength="14" x="64.5" y="532.0264">13</text><text fill="#000000" font-family="sans-serif" font-size="13" lengthAdjust="spacing" textLength="122" x="82.5" y="532.0264">types requested data</text><polygon fill="#181818" points="68.5,563.2344,58.5,567.2344,68.5,571.2344,64.5,567.2344" style="stroke:#181818;stroke-width:1.0;"/><line style="stroke:#181818;stroke-width:1.0;stroke-dasharray:2.0,2.0;" x1="62.5" x2="652.5" y1="567.2344" y2="567.2344"/><text fill="#000000" font-family="sans-serif" font-size="13" font-weight="bold" lengthAdjust="spacing" textLength="14" x="74.5" y="562.3779">14</text><text fill="#000000" font-family="sans-serif" font-size="13" lengthAdjust="spacing" textLength="554" x="92.5" y="562.3779">informs operations success and shows selected vaccination center, the scheduled day and time</text><!--MD5=[f49bd6d18adc0698b8bb8e30dfcf9ad2]
@startuml
autonumber
actor "SNS user" as SNS

activate SNS
SNS -> ":System" : asks to create a new Vaccination appointment
activate ":System"
":System" - -> SNS : suggests vaccine Type according to ongoing outbreak)
deactivate ":System"
alt if SNS user does not accept suggestion
SNS -> ":System":asks for the available vaccine types
activate ":System"
":System"- -> SNS: shows available vaccine types
deactivate ":System"
end
SNS -> ":System" : selects vaccine type
activate ":System"
":System"- -> SNS : requests data(SNS user number)
deactivate ":System"

SNS -> ":System": types requested data
activate ":System"


alt if the user does not have an appointment

":System"- -> SNS : shows available vaccination centers

deactivate ":System"
SNS -> ":System":selects vaccination center
activate ":System"
":System"- -> SNS : requests data(time of Vaccination, date of vaccination)
deactivate ":System"
SNS -> ":System":types requested data
activate ":System"
":System" - -> SNS : requests data(SMS permission)
deactivate ":System"
SNS -> ":System":types requested data
activate ":System"
":System"- -> SNS : informs operations success and shows selected vaccination center, the scheduled day and time
end
deactivate SNS

@enduml

PlantUML version 1.2022.5(Sat Apr 30 11:55:52 BST 2022)
(GPL source distribution)
Java Runtime: OpenJDK Runtime Environment
JVM: OpenJDK 64-Bit Server VM
Default Encoding: Cp1252
Language: pt
Country: PT
--></g></svg>