<?xml version="1.0" encoding="UTF-8" standalone="no"?><svg xmlns="http://www.w3.org/2000/svg" xmlns:xlink="http://www.w3.org/1999/xlink" contentStyleType="text/css" height="712px" preserveAspectRatio="none" style="width:628px;height:712px;background:#FFFFFF;" version="1.1" viewBox="0 0 628 712" width="628px" zoomAndPan="magnify"><defs/><g><rect fill="#FFFFFF" height="600.3281" style="stroke:#181818;stroke-width:1.0;" width="10" x="153" y="67.4297"/><rect fill="#FFFFFF" height="30" style="stroke:#181818;stroke-width:1.0;" width="10" x="550" y="96.5625"/><rect fill="#FFFFFF" height="30" style="stroke:#181818;stroke-width:1.0;" width="10" x="550" y="155.6953"/><rect fill="#FFFFFF" height="30" style="stroke:#181818;stroke-width:1.0;" width="10" x="550" y="214.8281"/><rect fill="#FFFFFF" height="30" style="stroke:#181818;stroke-width:1.0;" width="10" x="550" y="273.9609"/><rect fill="#FFFFFF" height="30" style="stroke:#181818;stroke-width:1.0;" width="10" x="550" y="333.0938"/><rect fill="#FFFFFF" height="30" style="stroke:#181818;stroke-width:1.0;" width="10" x="550" y="392.2266"/><rect fill="#FFFFFF" height="30" style="stroke:#181818;stroke-width:1.0;" width="10" x="550" y="451.3594"/><rect fill="#FFFFFF" height="30" style="stroke:#181818;stroke-width:1.0;" width="10" x="550" y="510.4922"/><rect fill="#FFFFFF" height="30" style="stroke:#181818;stroke-width:1.0;" width="10" x="550" y="569.625"/><rect fill="#FFFFFF" height="30" style="stroke:#181818;stroke-width:1.0;" width="10" x="550" y="628.7578"/><line style="stroke:#181818;stroke-width:0.5;stroke-dasharray:5.0,5.0;" x1="158" x2="158" y1="36.2969" y2="676.7578"/><line style="stroke:#181818;stroke-width:0.5;stroke-dasharray:5.0,5.0;" x1="554.5" x2="554.5" y1="36.2969" y2="676.7578"/><rect fill="#E2E2F0" height="30.2969" rx="2.5" ry="2.5" style="stroke:#181818;stroke-width:0.5;" width="138" x="89" y="5"/><text fill="#000000" font-family="sans-serif" font-size="14" lengthAdjust="spacing" textLength="124" x="96" y="24.9951">MVCenterMapper</text><rect fill="#E2E2F0" height="30.2969" rx="2.5" ry="2.5" style="stroke:#181818;stroke-width:0.5;" width="138" x="89" y="675.7578"/><text fill="#000000" font-family="sans-serif" font-size="14" lengthAdjust="spacing" textLength="124" x="96" y="695.7529">MVCenterMapper</text><rect fill="#E2E2F0" height="30.2969" rx="2.5" ry="2.5" style="stroke:#181818;stroke-width:0.5;" width="135" x="487.5" y="5"/><text fill="#000000" font-family="sans-serif" font-size="14" lengthAdjust="spacing" textLength="121" x="494.5" y="24.9951">mvcDto: MVCDto</text><rect fill="#E2E2F0" height="30.2969" rx="2.5" ry="2.5" style="stroke:#181818;stroke-width:0.5;" width="135" x="487.5" y="675.7578"/><text fill="#000000" font-family="sans-serif" font-size="14" lengthAdjust="spacing" textLength="121" x="494.5" y="695.7529">mvcDto: MVCDto</text><rect fill="#FFFFFF" height="600.3281" style="stroke:#181818;stroke-width:1.0;" width="10" x="153" y="67.4297"/><rect fill="#FFFFFF" height="30" style="stroke:#181818;stroke-width:1.0;" width="10" x="550" y="96.5625"/><rect fill="#FFFFFF" height="30" style="stroke:#181818;stroke-width:1.0;" width="10" x="550" y="155.6953"/><rect fill="#FFFFFF" height="30" style="stroke:#181818;stroke-width:1.0;" width="10" x="550" y="214.8281"/><rect fill="#FFFFFF" height="30" style="stroke:#181818;stroke-width:1.0;" width="10" x="550" y="273.9609"/><rect fill="#FFFFFF" height="30" style="stroke:#181818;stroke-width:1.0;" width="10" x="550" y="333.0938"/><rect fill="#FFFFFF" height="30" style="stroke:#181818;stroke-width:1.0;" width="10" x="550" y="392.2266"/><rect fill="#FFFFFF" height="30" style="stroke:#181818;stroke-width:1.0;" width="10" x="550" y="451.3594"/><rect fill="#FFFFFF" height="30" style="stroke:#181818;stroke-width:1.0;" width="10" x="550" y="510.4922"/><rect fill="#FFFFFF" height="30" style="stroke:#181818;stroke-width:1.0;" width="10" x="550" y="569.625"/><rect fill="#FFFFFF" height="30" style="stroke:#181818;stroke-width:1.0;" width="10" x="550" y="628.7578"/><ellipse cx="7.5" cy="66.6797" fill="none" rx="4" ry="4" style="stroke:#181818;stroke-width:1.5;"/><polygon fill="#181818" points="141,63.4297,151,67.4297,141,71.4297,145,67.4297" style="stroke:#181818;stroke-width:1.0;"/><line style="stroke:#181818;stroke-width:1.0;" x1="12" x2="147" y1="67.4297" y2="67.4297"/><text fill="#000000" font-family="sans-serif" font-size="13" font-weight="bold" lengthAdjust="spacing" textLength="9" x="15" y="62.3638">1</text><text fill="#000000" font-family="sans-serif" font-size="13" lengthAdjust="spacing" textLength="113" x="28" y="62.3638">toModel(mvcDto)</text><polygon fill="#181818" points="538,92.5625,548,96.5625,538,100.5625,542,96.5625" style="stroke:#181818;stroke-width:1.0;"/><line style="stroke:#181818;stroke-width:1.0;" x1="163" x2="544" y1="96.5625" y2="96.5625"/><text fill="#000000" font-family="sans-serif" font-size="13" font-weight="bold" lengthAdjust="spacing" textLength="9" x="170" y="91.4966">2</text><text fill="#000000" font-family="sans-serif" font-size="13" lengthAdjust="spacing" textLength="126" x="183" y="91.4966">name = getName()</text><polygon fill="#181818" points="538,151.6953,548,155.6953,538,159.6953,542,155.6953" style="stroke:#181818;stroke-width:1.0;"/><line style="stroke:#181818;stroke-width:1.0;" x1="163" x2="544" y1="155.6953" y2="155.6953"/><text fill="#000000" font-family="sans-serif" font-size="13" font-weight="bold" lengthAdjust="spacing" textLength="9" x="170" y="150.6294">3</text><text fill="#000000" font-family="sans-serif" font-size="13" lengthAdjust="spacing" textLength="153" x="183" y="150.6294">address = getAddress()</text><polygon fill="#181818" points="538,210.8281,548,214.8281,538,218.8281,542,214.8281" style="stroke:#181818;stroke-width:1.0;"/><line style="stroke:#181818;stroke-width:1.0;" x1="163" x2="544" y1="214.8281" y2="214.8281"/><text fill="#000000" font-family="sans-serif" font-size="13" font-weight="bold" lengthAdjust="spacing" textLength="9" x="170" y="209.7622">4</text><text fill="#000000" font-family="sans-serif" font-size="13" lengthAdjust="spacing" textLength="234" x="183" y="209.7622">phoneNumber = getPhoneNumber()</text><polygon fill="#181818" points="538,269.9609,548,273.9609,538,277.9609,542,273.9609" style="stroke:#181818;stroke-width:1.0;"/><line style="stroke:#181818;stroke-width:1.0;" x1="163" x2="544" y1="273.9609" y2="273.9609"/><text fill="#000000" font-family="sans-serif" font-size="13" font-weight="bold" lengthAdjust="spacing" textLength="9" x="170" y="268.895">5</text><text fill="#000000" font-family="sans-serif" font-size="13" lengthAdjust="spacing" textLength="228" x="183" y="268.895">emailAddress = getEmailAddress()</text><polygon fill="#181818" points="538,329.0938,548,333.0938,538,337.0938,542,333.0938" style="stroke:#181818;stroke-width:1.0;"/><line style="stroke:#181818;stroke-width:1.0;" x1="163" x2="544" y1="333.0938" y2="333.0938"/><text fill="#000000" font-family="sans-serif" font-size="13" font-weight="bold" lengthAdjust="spacing" textLength="9" x="170" y="328.0278">6</text><text fill="#000000" font-family="sans-serif" font-size="13" lengthAdjust="spacing" textLength="198" x="183" y="328.0278">faxNumber = getFaxNumber()</text><polygon fill="#181818" points="538,388.2266,548,392.2266,538,396.2266,542,392.2266" style="stroke:#181818;stroke-width:1.0;"/><line style="stroke:#181818;stroke-width:1.0;" x1="163" x2="544" y1="392.2266" y2="392.2266"/><text fill="#000000" font-family="sans-serif" font-size="13" font-weight="bold" lengthAdjust="spacing" textLength="9" x="170" y="387.1606">7</text><text fill="#000000" font-family="sans-serif" font-size="13" lengthAdjust="spacing" textLength="258" x="183" y="387.1606">websiteAddress = getWebsiteAddress()</text><polygon fill="#181818" points="538,447.3594,548,451.3594,538,455.3594,542,451.3594" style="stroke:#181818;stroke-width:1.0;"/><line style="stroke:#181818;stroke-width:1.0;" x1="163" x2="544" y1="451.3594" y2="451.3594"/><text fill="#000000" font-family="sans-serif" font-size="13" font-weight="bold" lengthAdjust="spacing" textLength="9" x="170" y="446.2935">8</text><text fill="#000000" font-family="sans-serif" font-size="13" lengthAdjust="spacing" textLength="218" x="183" y="446.2935">openingHour = getOpeningHour()</text><polygon fill="#181818" points="538,506.4922,548,510.4922,538,514.4922,542,510.4922" style="stroke:#181818;stroke-width:1.0;"/><line style="stroke:#181818;stroke-width:1.0;" x1="163" x2="544" y1="510.4922" y2="510.4922"/><text fill="#000000" font-family="sans-serif" font-size="13" font-weight="bold" lengthAdjust="spacing" textLength="9" x="170" y="505.4263">9</text><text fill="#000000" font-family="sans-serif" font-size="13" lengthAdjust="spacing" textLength="206" x="183" y="505.4263">closingHour = getClosingHour()</text><polygon fill="#181818" points="538,565.625,548,569.625,538,573.625,542,569.625" style="stroke:#181818;stroke-width:1.0;"/><line style="stroke:#181818;stroke-width:1.0;" x1="163" x2="544" y1="569.625" y2="569.625"/><text fill="#000000" font-family="sans-serif" font-size="13" font-weight="bold" lengthAdjust="spacing" textLength="18" x="170" y="564.5591">10</text><text fill="#000000" font-family="sans-serif" font-size="13" lengthAdjust="spacing" textLength="206" x="192" y="564.5591">slotDuration = getSlotDuration)</text><polygon fill="#181818" points="538,624.7578,548,628.7578,538,632.7578,542,628.7578" style="stroke:#181818;stroke-width:1.0;"/><line style="stroke:#181818;stroke-width:1.0;" x1="163" x2="544" y1="628.7578" y2="628.7578"/><text fill="#000000" font-family="sans-serif" font-size="13" font-weight="bold" lengthAdjust="spacing" textLength="18" x="170" y="623.6919">11</text><text fill="#000000" font-family="sans-serif" font-size="13" lengthAdjust="spacing" textLength="346" x="192" y="623.6919">numberOfVaccinesSlot = getnumberOfVaccinesSlot()</text><!--MD5=[21bb1c20ba742f495db39eea24cc631f]
@startuml

autonumber
participant "MVCenterMapper" as MVC_MP
participant "mvcDto: MVCDto" as MVC_DTO

[o-> MVC_MP : toModel(mvcDto)
activate MVC_MP
MVC_MP -> MVC_DTO : name = getName()
activate MVC_DTO
deactivate MVC_DTO
MVC_MP -> MVC_DTO : address = getAddress()
activate MVC_DTO
deactivate MVC_DTO
MVC_MP -> MVC_DTO : phoneNumber = getPhoneNumber()
activate MVC_DTO
deactivate MVC_DTO
MVC_MP -> MVC_DTO : emailAddress = getEmailAddress()
activate MVC_DTO
deactivate MVC_DTO
MVC_MP -> MVC_DTO : faxNumber = getFaxNumber()
activate MVC_DTO
deactivate MVC_DTO
MVC_MP -> MVC_DTO : websiteAddress = getWebsiteAddress()
activate MVC_DTO
deactivate MVC_DTO
MVC_MP -> MVC_DTO : openingHour = getOpeningHour()
activate MVC_DTO
deactivate MVC_DTO
MVC_MP -> MVC_DTO : closingHour = getClosingHour()
activate MVC_DTO
deactivate MVC_DTO
MVC_MP -> MVC_DTO : slotDuration = getSlotDuration)
activate MVC_DTO
deactivate MVC_DTO
MVC_MP -> MVC_DTO : numberOfVaccinesSlot = getnumberOfVaccinesSlot()
activate MVC_DTO
deactivate MVC_DTO
@enduml

PlantUML version 1.2022.4(Sat Apr 09 14:29:17 WEST 2022)
(GPL source distribution)
Java Runtime: OpenJDK Runtime Environment
JVM: OpenJDK 64-Bit Server VM
Default Encoding: UTF-8
Language: en
Country: US
--></g></svg>