<?xml version="1.0" encoding="UTF-8" standalone="no"?><svg xmlns="http://www.w3.org/2000/svg" xmlns:xlink="http://www.w3.org/1999/xlink" contentStyleType="text/css" height="565px" preserveAspectRatio="none" style="width:894px;height:565px;background:#FFFFFF;" version="1.1" viewBox="0 0 894 565" width="894px" zoomAndPan="magnify"><defs/><g><rect fill="#FFFFFF" height="420.9844" style="stroke:#181818;stroke-width:1.0;" width="10" x="123" y="83.7266"/><rect fill="#FFFFFF" height="30" style="stroke:#181818;stroke-width:1.0;" width="10" x="458" y="194.5859"/><rect fill="#FFFFFF" height="30" style="stroke:#181818;stroke-width:1.0;" width="10" x="458" y="253.7188"/><rect fill="#FFFFFF" height="30" style="stroke:#181818;stroke-width:1.0;" width="10" x="458" y="312.8516"/><rect fill="#FFFFFF" height="30" style="stroke:#181818;stroke-width:1.0;" width="10" x="637.5" y="429.5781"/><rect height="311.2578" style="stroke:#000000;stroke-width:1.5;fill:none;" width="853" x="35.5" y="156.3203"/><line style="stroke:#181818;stroke-width:0.5;fill:none;stroke-dasharray:5.0,5.0;" x1="127.5" x2="127.5" y1="52.5938" y2="513.7109"/><line style="stroke:#181818;stroke-width:0.5;fill:none;stroke-dasharray:5.0,5.0;" x1="462.5" x2="462.5" y1="52.5938" y2="513.7109"/><line style="stroke:#181818;stroke-width:0.5;fill:none;stroke-dasharray:5.0,5.0;" x1="642.5" x2="642.5" y1="130.5234" y2="513.7109"/><line style="stroke:#181818;stroke-width:0.5;fill:none;stroke-dasharray:5.0,5.0;" x1="810.5" x2="810.5" y1="389.6484" y2="513.7109"/><rect fill="#E2E2F0" height="30.2969" rx="2.5" ry="2.5" style="stroke:#181818;stroke-width:0.5;" width="165" x="45.5" y="21.2969"/><text fill="#000000" font-family="sans-serif" font-size="14" lengthAdjust="spacing" textLength="151" x="52.5" y="41.292">:VaccineTypeMapper</text><rect fill="#E2E2F0" height="30.2969" rx="2.5" ry="2.5" style="stroke:#181818;stroke-width:0.5;" width="165" x="45.5" y="512.7109"/><text fill="#000000" font-family="sans-serif" font-size="14" lengthAdjust="spacing" textLength="151" x="52.5" y="532.7061">:VaccineTypeMapper</text><rect fill="#E2E2F0" height="46.5938" rx="2.5" ry="2.5" style="stroke:#181818;stroke-width:0.5;" width="159" x="383.5" y="5"/><text fill="#000000" font-family="sans-serif" font-size="14" lengthAdjust="spacing" textLength="39" x="443.5" y="24.9951">listVT</text><text fill="#000000" font-family="sans-serif" font-size="14" lengthAdjust="spacing" textLength="145" x="390.5" y="41.292">:List&lt;VaccineType&gt;</text><rect fill="#E2E2F0" height="46.5938" rx="2.5" ry="2.5" style="stroke:#181818;stroke-width:0.5;" width="159" x="383.5" y="512.7109"/><text fill="#000000" font-family="sans-serif" font-size="14" lengthAdjust="spacing" textLength="39" x="443.5" y="532.7061">listVT</text><text fill="#000000" font-family="sans-serif" font-size="14" lengthAdjust="spacing" textLength="145" x="390.5" y="549.0029">:List&lt;VaccineType&gt;</text><rect fill="#E2E2F0" height="46.5938" rx="2.5" ry="2.5" style="stroke:#181818;stroke-width:0.5;" width="180" x="552.5" y="512.7109"/><text fill="#000000" font-family="sans-serif" font-size="14" lengthAdjust="spacing" textLength="64" x="610.5" y="532.7061">listVTDto</text><text fill="#000000" font-family="sans-serif" font-size="14" lengthAdjust="spacing" textLength="166" x="559.5" y="549.0029">:list&lt;VaccineTypeDto&gt;</text><rect fill="#E2E2F0" height="46.5938" rx="2.5" ry="2.5" style="stroke:#181818;stroke-width:0.5;" width="136" x="742.5" y="512.7109"/><text fill="#000000" font-family="sans-serif" font-size="14" lengthAdjust="spacing" textLength="38" x="791.5" y="532.7061">vtDto</text><text fill="#000000" font-family="sans-serif" font-size="14" lengthAdjust="spacing" textLength="122" x="749.5" y="549.0029">:VaccineTypeDto</text><rect fill="#FFFFFF" height="420.9844" style="stroke:#181818;stroke-width:1.0;" width="10" x="123" y="83.7266"/><rect fill="#FFFFFF" height="30" style="stroke:#181818;stroke-width:1.0;" width="10" x="458" y="194.5859"/><rect fill="#FFFFFF" height="30" style="stroke:#181818;stroke-width:1.0;" width="10" x="458" y="253.7188"/><rect fill="#FFFFFF" height="30" style="stroke:#181818;stroke-width:1.0;" width="10" x="458" y="312.8516"/><rect fill="#FFFFFF" height="30" style="stroke:#181818;stroke-width:1.0;" width="10" x="637.5" y="429.5781"/><ellipse cx="7.5" cy="82.9766" fill="none" rx="4" ry="4" style="stroke:#181818;stroke-width:1.5;"/><polygon fill="#181818" points="111,79.7266,121,83.7266,111,87.7266,115,83.7266" style="stroke:#181818;stroke-width:1.0;"/><line style="stroke:#181818;stroke-width:1.0;" x1="12" x2="117" y1="83.7266" y2="83.7266"/><text fill="#000000" font-family="sans-serif" font-size="13" font-weight="bold" lengthAdjust="spacing" textLength="9" x="15" y="78.6606">1</text><text fill="#000000" font-family="sans-serif" font-size="13" lengthAdjust="spacing" textLength="83" x="28" y="78.6606">toDto(listVT)</text><polygon fill="#181818" points="540.5,108.8594,550.5,112.8594,540.5,116.8594,544.5,112.8594" style="stroke:#181818;stroke-width:1.0;"/><line style="stroke:#181818;stroke-width:1.0;stroke-dasharray:2.0,2.0;" x1="133" x2="546.5" y1="112.8594" y2="112.8594"/><text fill="#000000" font-family="sans-serif" font-size="13" font-weight="bold" lengthAdjust="spacing" textLength="9" x="140" y="107.7935">2</text><text fill="#000000" font-family="sans-serif" font-size="13" lengthAdjust="spacing" textLength="51" x="153" y="107.7935">create()</text><rect fill="#E2E2F0" height="46.5938" rx="2.5" ry="2.5" style="stroke:#181818;stroke-width:0.5;" width="180" x="552.5" y="91.7266"/><text fill="#000000" font-family="sans-serif" font-size="14" lengthAdjust="spacing" textLength="64" x="610.5" y="111.7217">listVTDto</text><text fill="#000000" font-family="sans-serif" font-size="14" lengthAdjust="spacing" textLength="166" x="559.5" y="128.0186">:list&lt;VaccineTypeDto&gt;</text><path d="M35.5,156.3203 L111.5,156.3203 L111.5,163.4531 L101.5,173.4531 L35.5,173.4531 L35.5,156.3203 " fill="#EEEEEE" style="stroke:#000000;stroke-width:1.5;"/><rect fill="none" height="311.2578" style="stroke:#000000;stroke-width:1.5;" width="853" x="35.5" y="156.3203"/><text fill="#000000" font-family="sans-serif" font-size="13" font-weight="bold" lengthAdjust="spacing" textLength="31" x="50.5" y="169.3872">loop</text><text fill="#000000" font-family="sans-serif" font-size="11" font-weight="bold" lengthAdjust="spacing" textLength="161" x="126.5" y="168.5308">[for each object in listVT]</text><polygon fill="#181818" points="446,190.5859,456,194.5859,446,198.5859,450,194.5859" style="stroke:#181818;stroke-width:1.0;"/><line style="stroke:#181818;stroke-width:1.0;" x1="133" x2="452" y1="194.5859" y2="194.5859"/><text fill="#000000" font-family="sans-serif" font-size="13" font-weight="bold" lengthAdjust="spacing" textLength="9" x="140" y="189.52">3</text><text fill="#000000" font-family="sans-serif" font-size="13" lengthAdjust="spacing" textLength="106" x="153" y="189.52">code=getCode()</text><polygon fill="#181818" points="446,249.7188,456,253.7188,446,257.7188,450,253.7188" style="stroke:#181818;stroke-width:1.0;"/><line style="stroke:#181818;stroke-width:1.0;" x1="133" x2="452" y1="253.7188" y2="253.7188"/><text fill="#000000" font-family="sans-serif" font-size="13" font-weight="bold" lengthAdjust="spacing" textLength="9" x="140" y="248.6528">4</text><text fill="#000000" font-family="sans-serif" font-size="13" lengthAdjust="spacing" textLength="188" x="153" y="248.6528">description=getDescription()</text><polygon fill="#181818" points="446,308.8516,456,312.8516,446,316.8516,450,312.8516" style="stroke:#181818;stroke-width:1.0;"/><line style="stroke:#181818;stroke-width:1.0;" x1="133" x2="452" y1="312.8516" y2="312.8516"/><text fill="#000000" font-family="sans-serif" font-size="13" font-weight="bold" lengthAdjust="spacing" textLength="9" x="140" y="307.7856">5</text><text fill="#000000" font-family="sans-serif" font-size="13" lengthAdjust="spacing" textLength="293" x="153" y="307.7856">vaccineTechnology=getVaccineTechnology()</text><polygon fill="#181818" points="730.5,367.9844,740.5,371.9844,730.5,375.9844,734.5,371.9844" style="stroke:#181818;stroke-width:1.0;"/><line style="stroke:#181818;stroke-width:1.0;stroke-dasharray:2.0,2.0;" x1="133" x2="736.5" y1="371.9844" y2="371.9844"/><text fill="#000000" font-family="sans-serif" font-size="13" font-weight="bold" lengthAdjust="spacing" textLength="9" x="140" y="366.9185">6</text><text fill="#000000" font-family="sans-serif" font-size="13" lengthAdjust="spacing" textLength="295" x="153" y="366.9185">create(code, description, vaccineTechnology)</text><rect fill="#E2E2F0" height="46.5938" rx="2.5" ry="2.5" style="stroke:#181818;stroke-width:0.5;" width="136" x="742.5" y="350.8516"/><text fill="#000000" font-family="sans-serif" font-size="14" lengthAdjust="spacing" textLength="38" x="791.5" y="370.8467">vtDto</text><text fill="#000000" font-family="sans-serif" font-size="14" lengthAdjust="spacing" textLength="122" x="749.5" y="387.1436">:VaccineTypeDto</text><polygon fill="#181818" points="625.5,425.5781,635.5,429.5781,625.5,433.5781,629.5,429.5781" style="stroke:#181818;stroke-width:1.0;"/><line style="stroke:#181818;stroke-width:1.0;" x1="133" x2="631.5" y1="429.5781" y2="429.5781"/><text fill="#000000" font-family="sans-serif" font-size="13" font-weight="bold" lengthAdjust="spacing" textLength="9" x="140" y="424.5122">7</text><text fill="#000000" font-family="sans-serif" font-size="13" lengthAdjust="spacing" textLength="70" x="153" y="424.5122">add(vtDto)</text><polygon fill="#181818" points="11,491.7109,1,495.7109,11,499.7109,7,495.7109" style="stroke:#181818;stroke-width:1.0;"/><line style="stroke:#181818;stroke-width:1.0;stroke-dasharray:2.0,2.0;" x1="5" x2="122" y1="495.7109" y2="495.7109"/><text fill="#000000" font-family="sans-serif" font-size="13" font-weight="bold" lengthAdjust="spacing" textLength="9" x="17" y="490.645">8</text><text fill="#000000" font-family="sans-serif" font-size="13" lengthAdjust="spacing" textLength="60" x="30" y="490.645">listVTDto</text><!--MD5=[707f3ea0ba2722d1b98e923e84afcc65]
@startuml

autonumber
participant ":VaccineTypeMapper" as vtMapper
participant "listVT\n:List<VaccineType>" as listVT
participant "listVTDto\n:list<VaccineTypeDto>" as listVTDto
participant "vtDto\n:VaccineTypeDto" as vtDto

[o->vtMapper : toDto(listVT)
activate vtMapper

vtMapper - -> listVTDto **: create()

loop for each object in listVT

vtMapper -> listVT : code=getCode()
activate listVT
deactivate listVT
vtMapper -> listVT : description=getDescription()
activate listVT
deactivate listVT
vtMapper -> listVT : vaccineTechnology=getVaccineTechnology()
activate listVT
deactivate listVT

vtMapper - -> vtDto **: create(code, description, vaccineTechnology)

vtMapper -> listVTDto : add(vtDto)
activate listVTDto
deactivate listVTDto
end loop
[<- - vtMapper : listVTDto
@enduml

PlantUML version 1.2022.4(Sat Apr 09 14:29:17 WEST 2022)
(GPL source distribution)
Java Runtime: OpenJDK Runtime Environment
JVM: OpenJDK 64-Bit Server VM
Default Encoding: UTF-8
Language: en
Country: US
--></g></svg>