<?xml version="1.0" encoding="UTF-8" standalone="no"?><svg xmlns="http://www.w3.org/2000/svg" xmlns:xlink="http://www.w3.org/1999/xlink" contentStyleType="text/css" height="376px" preserveAspectRatio="none" style="width:746px;height:376px;background:#FFFFFF;" version="1.1" viewBox="0 0 746 376" width="746px" zoomAndPan="magnify"><defs/><g><!--MD5=[02e4b9b7573f1156f41e60aa5b4e25a4]
class Company--><g id="elem_Company"><rect codeLine="5" fill="#F1F1F1" height="57.6094" id="Company" rx="2.5" ry="2.5" style="stroke:#181818;stroke-width:0.5;" width="92" x="7" y="101.5"/><ellipse cx="22" cy="117.5" fill="#ADD1B2" rx="11" ry="11" style="stroke:#181818;stroke-width:1.0;"/><path d="M24,114 Q24.2031,113.5 24.4375,113.25 Q24.6719,113 24.9375,113 Q25.4063,113 25.7031,113.2813 Q26,113.5625 26,114.2188 L26,115.7813 Q26,116.4375 25.7188,116.7188 Q25.4375,117 25,117 Q24.6094,117 24.3594,116.8281 Q24.1094,116.6563 24,116.2031 Q23.9531,115.8906 23.7813,115.7188 Q23.4688,115.3906 22.9063,115.2031 Q22.3438,115 21.7813,115 Q21.0781,115 20.4844,115.2813 Q19.9063,115.5625 19.4531,116.1875 Q19,116.8125 19,117.6719 L19,118.5938 Q19,119.625 19.8438,120.3125 Q20.6875,121 22.1875,121 Q23.0781,121 23.7031,120.7969 Q24.0625,120.6875 24.4688,120.3281 Q24.7344,120.125 24.875,120.0625 Q25.0156,120 25.1875,120 Q25.5156,120 25.75,120.2656 Q26,120.5156 26,120.875 Q26,121.2188 25.6563,121.625 Q25.1563,122.2188 24.3594,122.5469 Q23.3125,123 22.0313,123 Q20.5313,123 19.3281,122.4063 Q18.3594,121.9375 17.6719,120.9219 Q17,119.9063 17,118.7031 L17,117.6094 Q17,116.3594 17.5938,115.2656 Q18.2031,114.1719 19.25,113.5938 Q20.3125,113 21.5,113 Q22.2188,113 22.8438,113.25 Q23.4688,113.5 24,114 Z " fill="#000000"/><text fill="#000000" font-family="sans-serif" font-size="14" lengthAdjust="spacing" textLength="60" x="36" y="123.2285">Company</text><line style="stroke:#181818;stroke-width:0.5;" x1="8" x2="98" y1="133.5" y2="133.5"/><text fill="#000000" font-family="sans-serif" font-size="14" lengthAdjust="spacing" textLength="78" x="13" y="152.0332">-designation</text></g><!--MD5=[a3638c1e5b65d287ecad7f06f5c0f212]
class Role--><g id="elem_Role"><rect codeLine="8" fill="#F1F1F1" height="75.2188" id="Role" rx="2.5" ry="2.5" style="stroke:#181818;stroke-width:0.5;" width="90" x="445" y="7"/><ellipse cx="473.05" cy="23" fill="#ADD1B2" rx="11" ry="11" style="stroke:#181818;stroke-width:1.0;"/><path d="M475.05,19.5 Q475.2531,19 475.4875,18.75 Q475.7219,18.5 475.9875,18.5 Q476.4563,18.5 476.7531,18.7813 Q477.05,19.0625 477.05,19.7188 L477.05,21.2813 Q477.05,21.9375 476.7688,22.2188 Q476.4875,22.5 476.05,22.5 Q475.6594,22.5 475.4094,22.3281 Q475.1594,22.1563 475.05,21.7031 Q475.0031,21.3906 474.8313,21.2188 Q474.5188,20.8906 473.9563,20.7031 Q473.3938,20.5 472.8313,20.5 Q472.1281,20.5 471.5344,20.7813 Q470.9563,21.0625 470.5031,21.6875 Q470.05,22.3125 470.05,23.1719 L470.05,24.0938 Q470.05,25.125 470.8938,25.8125 Q471.7375,26.5 473.2375,26.5 Q474.1281,26.5 474.7531,26.2969 Q475.1125,26.1875 475.5188,25.8281 Q475.7844,25.625 475.925,25.5625 Q476.0656,25.5 476.2375,25.5 Q476.5656,25.5 476.8,25.7656 Q477.05,26.0156 477.05,26.375 Q477.05,26.7188 476.7063,27.125 Q476.2063,27.7188 475.4094,28.0469 Q474.3625,28.5 473.0813,28.5 Q471.5813,28.5 470.3781,27.9063 Q469.4094,27.4375 468.7219,26.4219 Q468.05,25.4063 468.05,24.2031 L468.05,23.1094 Q468.05,21.8594 468.6438,20.7656 Q469.2531,19.6719 470.3,19.0938 Q471.3625,18.5 472.55,18.5 Q473.2688,18.5 473.8938,18.75 Q474.5188,19 475.05,19.5 Z " fill="#000000"/><text fill="#000000" font-family="sans-serif" font-size="14" lengthAdjust="spacing" textLength="29" x="489.95" y="28.7285">Role</text><line style="stroke:#181818;stroke-width:0.5;" x1="446" x2="534" y1="39" y2="39"/><text fill="#000000" font-family="sans-serif" font-size="14" lengthAdjust="spacing" textLength="78" x="451" y="57.5332">-designation</text><text fill="#000000" font-family="sans-serif" font-size="14" lengthAdjust="spacing" textLength="40" x="451" y="75.1426">-roleId</text></g><!--MD5=[7421f545a0d8420c5bec41e74b387d9c]
class Employee--><g id="elem_Employee"><rect codeLine="14" fill="#F1F1F1" height="110.4375" id="Employee" rx="2.5" ry="2.5" style="stroke:#181818;stroke-width:0.5;" width="106" x="633" y="124.5"/><ellipse cx="653.4" cy="140.5" fill="#ADD1B2" rx="11" ry="11" style="stroke:#181818;stroke-width:1.0;"/><path d="M655.4,137 Q655.6031,136.5 655.8375,136.25 Q656.0719,136 656.3375,136 Q656.8063,136 657.1031,136.2813 Q657.4,136.5625 657.4,137.2188 L657.4,138.7813 Q657.4,139.4375 657.1188,139.7188 Q656.8375,140 656.4,140 Q656.0094,140 655.7594,139.8281 Q655.5094,139.6563 655.4,139.2031 Q655.3531,138.8906 655.1813,138.7188 Q654.8688,138.3906 654.3063,138.2031 Q653.7438,138 653.1813,138 Q652.4781,138 651.8844,138.2813 Q651.3063,138.5625 650.8531,139.1875 Q650.4,139.8125 650.4,140.6719 L650.4,141.5938 Q650.4,142.625 651.2438,143.3125 Q652.0875,144 653.5875,144 Q654.4781,144 655.1031,143.7969 Q655.4625,143.6875 655.8688,143.3281 Q656.1344,143.125 656.275,143.0625 Q656.4156,143 656.5875,143 Q656.9156,143 657.15,143.2656 Q657.4,143.5156 657.4,143.875 Q657.4,144.2188 657.0563,144.625 Q656.5563,145.2188 655.7594,145.5469 Q654.7125,146 653.4313,146 Q651.9313,146 650.7281,145.4063 Q649.7594,144.9375 649.0719,143.9219 Q648.4,142.9063 648.4,141.7031 L648.4,140.6094 Q648.4,139.3594 648.9938,138.2656 Q649.6031,137.1719 650.65,136.5938 Q651.7125,136 652.9,136 Q653.6188,136 654.2438,136.25 Q654.8688,136.5 655.4,137 Z " fill="#000000"/><text fill="#000000" font-family="sans-serif" font-size="14" lengthAdjust="spacing" textLength="62" x="668.6" y="146.2285">Employee</text><line style="stroke:#181818;stroke-width:0.5;" x1="634" x2="738" y1="156.5" y2="156.5"/><text fill="#000000" font-family="sans-serif" font-size="14" lengthAdjust="spacing" textLength="77" x="639" y="175.0332">-employeeId</text><text fill="#000000" font-family="sans-serif" font-size="14" lengthAdjust="spacing" textLength="94" x="639" y="192.6426">-phoneNumber</text><text fill="#000000" font-family="sans-serif" font-size="14" lengthAdjust="spacing" textLength="56" x="639" y="210.252">-address</text><text fill="#000000" font-family="sans-serif" font-size="14" lengthAdjust="spacing" textLength="68" x="639" y="227.8613">-ccNumber</text></g><!--MD5=[3fd616f346a44cd59a91eb10b19e157c]
class User--><g id="elem_User"><rect codeLine="23" fill="#F1F1F1" height="92.8281" id="User" rx="2.5" ry="2.5" style="stroke:#181818;stroke-width:0.5;" width="94" x="443" y="277"/><ellipse cx="472.85" cy="293" fill="#ADD1B2" rx="11" ry="11" style="stroke:#181818;stroke-width:1.0;"/><path d="M474.85,289.5 Q475.0531,289 475.2875,288.75 Q475.5219,288.5 475.7875,288.5 Q476.2563,288.5 476.5531,288.7813 Q476.85,289.0625 476.85,289.7188 L476.85,291.2813 Q476.85,291.9375 476.5688,292.2188 Q476.2875,292.5 475.85,292.5 Q475.4594,292.5 475.2094,292.3281 Q474.9594,292.1563 474.85,291.7031 Q474.8031,291.3906 474.6313,291.2188 Q474.3188,290.8906 473.7563,290.7031 Q473.1938,290.5 472.6313,290.5 Q471.9281,290.5 471.3344,290.7813 Q470.7563,291.0625 470.3031,291.6875 Q469.85,292.3125 469.85,293.1719 L469.85,294.0938 Q469.85,295.125 470.6938,295.8125 Q471.5375,296.5 473.0375,296.5 Q473.9281,296.5 474.5531,296.2969 Q474.9125,296.1875 475.3188,295.8281 Q475.5844,295.625 475.725,295.5625 Q475.8656,295.5 476.0375,295.5 Q476.3656,295.5 476.6,295.7656 Q476.85,296.0156 476.85,296.375 Q476.85,296.7188 476.5063,297.125 Q476.0063,297.7188 475.2094,298.0469 Q474.1625,298.5 472.8813,298.5 Q471.3813,298.5 470.1781,297.9063 Q469.2094,297.4375 468.5219,296.4219 Q467.85,295.4063 467.85,294.2031 L467.85,293.1094 Q467.85,291.8594 468.4438,290.7656 Q469.0531,289.6719 470.1,289.0938 Q471.1625,288.5 472.35,288.5 Q473.0688,288.5 473.6938,288.75 Q474.3188,289 474.85,289.5 Z " fill="#000000"/><text fill="#000000" font-family="sans-serif" font-size="14" lengthAdjust="spacing" textLength="29" x="490.15" y="298.7285">User</text><line style="stroke:#181818;stroke-width:0.5;" x1="444" x2="536" y1="309" y2="309"/><text fill="#000000" font-family="sans-serif" font-size="14" lengthAdjust="spacing" textLength="40" x="449" y="327.5332">-name</text><text fill="#000000" font-family="sans-serif" font-size="14" lengthAdjust="spacing" textLength="82" x="449" y="345.1426">-emailAdress</text><text fill="#000000" font-family="sans-serif" font-size="14" lengthAdjust="spacing" textLength="65" x="449" y="362.752">-password</text></g><!--MD5=[da547346deef918ea16944ba046651ef]
class Administrator--><g id="elem_Administrator"><rect codeLine="21" fill="#F1F1F1" height="40" id="Administrator" rx="2.5" ry="2.5" style="stroke:#181818;stroke-width:0.5;" width="115" x="211" y="110.5"/><ellipse cx="226" cy="126.5" fill="#ADD1B2" rx="11" ry="11" style="stroke:#181818;stroke-width:1.0;"/><path d="M228,123 Q228.2031,122.5 228.4375,122.25 Q228.6719,122 228.9375,122 Q229.4063,122 229.7031,122.2813 Q230,122.5625 230,123.2188 L230,124.7813 Q230,125.4375 229.7188,125.7188 Q229.4375,126 229,126 Q228.6094,126 228.3594,125.8281 Q228.1094,125.6563 228,125.2031 Q227.9531,124.8906 227.7813,124.7188 Q227.4688,124.3906 226.9063,124.2031 Q226.3438,124 225.7813,124 Q225.0781,124 224.4844,124.2813 Q223.9063,124.5625 223.4531,125.1875 Q223,125.8125 223,126.6719 L223,127.5938 Q223,128.625 223.8438,129.3125 Q224.6875,130 226.1875,130 Q227.0781,130 227.7031,129.7969 Q228.0625,129.6875 228.4688,129.3281 Q228.7344,129.125 228.875,129.0625 Q229.0156,129 229.1875,129 Q229.5156,129 229.75,129.2656 Q230,129.5156 230,129.875 Q230,130.2188 229.6563,130.625 Q229.1563,131.2188 228.3594,131.5469 Q227.3125,132 226.0313,132 Q224.5313,132 223.3281,131.4063 Q222.3594,130.9375 221.6719,129.9219 Q221,128.9063 221,127.7031 L221,126.6094 Q221,125.3594 221.5938,124.2656 Q222.2031,123.1719 223.25,122.5938 Q224.3125,122 225.5,122 Q226.2188,122 226.8438,122.25 Q227.4688,122.5 228,123 Z " fill="#000000"/><text fill="#000000" font-family="sans-serif" font-size="14" lengthAdjust="spacing" textLength="83" x="240" y="132.2285">Administrator</text><line style="stroke:#181818;stroke-width:0.5;" x1="212" x2="325" y1="142.5" y2="142.5"/></g><!--MD5=[1e9705534ea2f5f3045e58998aa20e5a]
reverse link User to Employee--><g id="link_User_Employee"><path d="M553.89,283.89 C570.16,273.12 587.47,261.19 603,249.5 C612.87,242.07 623.1,233.82 632.85,225.66 " fill="none" id="User-backto-Employee" style="stroke:#181818;stroke-width:1.0;"/><polygon fill="none" points="557.68,289.78,537.1,294.85,550.03,278.06,557.68,289.78" style="stroke:#181818;stroke-width:1.0;"/></g><!--MD5=[09366576ee87d48d594df10cacc83f45]
link Company to Employee--><g id="link_Company_Employee"><path codeLine="29" d="M99.21,144.11 C130.32,152.82 172.78,163.4 211,168.5 C363.17,188.79 545.19,185.35 632.81,181.99 " fill="none" id="Company-Employee" style="stroke:#181818;stroke-width:1.0;"/><polygon fill="#000000" points="365.9874,172.0298,357.1732,168.4578,356.757,174.3209,365.9874,172.0298" style="stroke:#000000;stroke-width:1.0;"/><text fill="#000000" font-family="sans-serif" font-size="13" lengthAdjust="spacing" textLength="42" x="370" y="176.9951">employ</text><text fill="#000000" font-family="sans-serif" font-size="13" lengthAdjust="spacing" textLength="7" x="107.1325" y="161.1084">1</text><text fill="#000000" font-family="sans-serif" font-size="13" lengthAdjust="spacing" textLength="5" x="619.9786" y="196.9542">*</text></g><!--MD5=[eaea43e34e45c5b9d20b595fc78f1f20]
link Company to Administrator--><g id="link_Company_Administrator"><path codeLine="30" d="M99.02,130.5 C131.56,130.5 175.76,130.5 210.73,130.5 " fill="none" id="Company-Administrator" style="stroke:#181818;stroke-width:1.0;"/><polygon fill="#000000" points="139,121.6758,129.9549,118.7369,129.9549,124.6147,139,121.6758" style="stroke:#000000;stroke-width:1.0;"/><text fill="#000000" font-family="sans-serif" font-size="13" lengthAdjust="spacing" textLength="37" x="143" y="126.9951">knows</text><text fill="#000000" font-family="sans-serif" font-size="13" lengthAdjust="spacing" textLength="7" x="106.9123" y="145.3293">1</text><text fill="#000000" font-family="sans-serif" font-size="13" lengthAdjust="spacing" textLength="5" x="198.0079" y="145.0426">*</text></g><!--MD5=[8f7dd94d56b58fc07b233ccd3dd98f8c]
link Administrator to Employee--><g id="link_Administrator_Employee"><path codeLine="31" d="M326.4,137.21 C407.3,146.75 554.42,164.1 632.71,173.33 " fill="none" id="Administrator-Employee" style="stroke:#181818;stroke-width:1.0;"/><polygon fill="#000000" points="473.9656,143.2613,465.3269,139.2834,464.6386,145.1208,473.9656,143.2613" style="stroke:#000000;stroke-width:1.0;"/><text fill="#000000" font-family="sans-serif" font-size="13" lengthAdjust="spacing" textLength="37" x="478" y="147.9951">knows</text><text fill="#000000" font-family="sans-serif" font-size="13" lengthAdjust="spacing" textLength="7" x="333.8831" y="152.5193">1</text><text fill="#000000" font-family="sans-serif" font-size="13" lengthAdjust="spacing" textLength="5" x="619.8645" y="168.8264">*</text></g><!--MD5=[cd331ae55148281aa750447c4ddc276b]
link Company to Role--><g id="link_Company_Role"><path codeLine="32" d="M99.31,113.7 C109.03,110.41 119.3,107.15 129,104.5 C228.3,77.36 254.25,74.13 356,58.5 C385.49,53.97 418.88,50.46 444.83,48.09 " fill="none" id="Company-Role" style="stroke:#181818;stroke-width:1.0;"/><polygon fill="#000000" points="252.4122,53.743,242.9777,52.5431,244.0742,58.3177,252.4122,53.743" style="stroke:#000000;stroke-width:1.0;"/><text fill="#000000" font-family="sans-serif" font-size="13" lengthAdjust="spacing" textLength="37" x="256.5" y="59.9951">knows</text><text fill="#000000" font-family="sans-serif" font-size="13" lengthAdjust="spacing" textLength="7" x="106.9372" y="125.9044">1</text><text fill="#000000" font-family="sans-serif" font-size="13" lengthAdjust="spacing" textLength="20" x="417.0717" y="63.2243">1..*</text></g><!--MD5=[956170db1c992375439d6e0ffa41a1bc]
link Administrator to Role--><g id="link_Administrator_Role"><path codeLine="34" d="M326.25,112.29 C352.84,103.36 384.8,92.05 413,80.5 C423.4,76.24 434.42,71.28 444.75,66.44 " fill="none" id="Administrator-Role" style="stroke:#181818;stroke-width:1.0;"/><polygon fill="#000000" points="368.1631,69.8715,358.6669,70.3945,360.788,75.8764,368.1631,69.8715" style="stroke:#000000;stroke-width:1.0;"/><text fill="#000000" font-family="sans-serif" font-size="13" lengthAdjust="spacing" textLength="37" x="372.5" y="76.9951">knows</text><text fill="#000000" font-family="sans-serif" font-size="13" lengthAdjust="spacing" textLength="5" x="333.9695" y="124.4995">*</text><text fill="#000000" font-family="sans-serif" font-size="13" lengthAdjust="spacing" textLength="20" x="416.9805" y="84.1548">1..*</text></g><!--MD5=[21051870a2f63926e19d08a0f7a407b9]
link Role to Employee--><g id="link_Role_Employee"><path codeLine="35" d="M535.22,67.73 C556.3,79.41 581.53,94.3 603,109.5 C612.93,116.53 623.1,124.51 632.76,132.49 " fill="none" id="Role-Employee" style="stroke:#181818;stroke-width:1.0;"/><polygon fill="#000000" points="567.8345,74.9102,573.7444,82.3616,576.9955,77.4648,567.8345,74.9102" style="stroke:#000000;stroke-width:1.0;"/><text fill="#000000" font-family="sans-serif" font-size="13" lengthAdjust="spacing" textLength="21" x="581" y="82.9951">has</text><text fill="#000000" font-family="sans-serif" font-size="13" lengthAdjust="spacing" textLength="7" x="542.9848" y="86.213">1</text><text fill="#000000" font-family="sans-serif" font-size="13" lengthAdjust="spacing" textLength="7" x="618.1356" y="140.7374">1</text></g><!--MD5=[6e3b76bd83670254ebb132bdfe3d45d7]
@startuml
hide methods
left to right direction
skinparam classAttributeIconSize 0

class Company {
  -designation
}
class Role {
-designation
-roleId
}


class Employee extends User {
  -employeeId
  -phoneNumber
  -address
  -ccNumber
}

class Administrator {
}
class User{
-name
-emailAdress
-password
}

Company "1" - -"*" Employee : employ >
Company "1" - - "*" Administrator : knows >
Administrator"1" - - "*" Employee : knows >
Company "1" - - "1..*" Role : knows >

Administrator "*" - - "1..*" Role : knows >
Role "1" - - "1" Employee: has <



@enduml

PlantUML version 1.2022.4(Sat Apr 09 14:29:17 BST 2022)
(GPL source distribution)
Java Runtime: OpenJDK Runtime Environment
JVM: OpenJDK 64-Bit Server VM
Default Encoding: Cp1252
Language: pt
Country: PT
--></g></svg>