<?xml version="1.0" encoding="UTF-8" standalone="no"?><svg xmlns="http://www.w3.org/2000/svg" xmlns:xlink="http://www.w3.org/1999/xlink" contentStyleType="text/css" height="900px" preserveAspectRatio="none" style="width:1223px;height:900px;background:#FFFFFF;" version="1.1" viewBox="0 0 1223 900" width="1223px" zoomAndPan="magnify"><defs/><g><!--MD5=[02e4b9b7573f1156f41e60aa5b4e25a4]
class Company--><g id="elem_Company"><rect codeLine="4" fill="#F1F1F1" height="80.5938" id="Company" rx="2.5" ry="2.5" style="stroke:#181818;stroke-width:0.5;" width="257" x="402" y="258"/><ellipse cx="492.25" cy="274" fill="#ADD1B2" rx="11" ry="11" style="stroke:#181818;stroke-width:1.0;"/><path d="M494.7188,279.875 Q494.1406,280.1875 493.5,280.3438 Q492.8594,280.5 492.1563,280.5 Q489.6563,280.5 488.3281,278.8281 Q487.0156,277.1563 487.0156,274 Q487.0156,270.8438 488.3281,269.1719 Q489.6563,267.5 492.1563,267.5 Q492.8594,267.5 493.5,267.6563 Q494.1563,267.8125 494.7188,268.125 L494.7188,270.9219 Q494.0938,270.3594 493.5,270.0938 Q492.9063,269.8125 492.2813,269.8125 Q490.9375,269.8125 490.25,270.875 Q489.5625,271.9375 489.5625,274 Q489.5625,276.0781 490.25,277.1406 Q490.9375,278.1875 492.2813,278.1875 Q492.9063,278.1875 493.5,277.9219 Q494.0938,277.6563 494.7188,277.0781 L494.7188,279.875 Z " fill="#000000"/><text fill="#000000" font-family="sans-serif" font-size="14" lengthAdjust="spacing" textLength="68" x="512.75" y="278.8467">Company</text><line style="stroke:#181818;stroke-width:0.5;" x1="403" x2="658" y1="290" y2="290"/><text fill="#000000" font-family="sans-serif" font-size="14" lengthAdjust="spacing" textLength="143" x="408" y="306.9951">-designation : String</text><line style="stroke:#181818;stroke-width:0.5;" x1="403" x2="658" y1="314.2969" y2="314.2969"/><text fill="#000000" font-family="sans-serif" font-size="14" lengthAdjust="spacing" textLength="245" x="408" y="331.292">+getVTStore() : VaccineTypeStore</text></g><!--MD5=[0e501da62322464167c8ec4d233a6b7e]
class VaccineType--><g id="elem_VaccineType"><rect codeLine="9" fill="#F1F1F1" height="113.1875" id="VaccineType" rx="2.5" ry="2.5" style="stroke:#181818;stroke-width:0.5;" width="559" x="7" y="755.5"/><ellipse cx="236.25" cy="771.5" fill="#ADD1B2" rx="11" ry="11" style="stroke:#181818;stroke-width:1.0;"/><path d="M238.7188,777.375 Q238.1406,777.6875 237.5,777.8438 Q236.8594,778 236.1563,778 Q233.6563,778 232.3281,776.3281 Q231.0156,774.6563 231.0156,771.5 Q231.0156,768.3438 232.3281,766.6719 Q233.6563,765 236.1563,765 Q236.8594,765 237.5,765.1563 Q238.1563,765.3125 238.7188,765.625 L238.7188,768.4219 Q238.0938,767.8594 237.5,767.5938 Q236.9063,767.3125 236.2813,767.3125 Q234.9375,767.3125 234.25,768.375 Q233.5625,769.4375 233.5625,771.5 Q233.5625,773.5781 234.25,774.6406 Q234.9375,775.6875 236.2813,775.6875 Q236.9063,775.6875 237.5,775.4219 Q238.0938,775.1563 238.7188,774.5781 L238.7188,777.375 Z " fill="#000000"/><text fill="#000000" font-family="sans-serif" font-size="14" lengthAdjust="spacing" textLength="92" x="256.75" y="776.3467">VaccineType</text><line style="stroke:#181818;stroke-width:0.5;" x1="8" x2="565" y1="787.5" y2="787.5"/><text fill="#000000" font-family="sans-serif" font-size="14" lengthAdjust="spacing" textLength="95" x="13" y="804.4951">-code : String</text><text fill="#000000" font-family="sans-serif" font-size="14" lengthAdjust="spacing" textLength="139" x="13" y="820.792">-description : String</text><text fill="#000000" font-family="sans-serif" font-size="14" lengthAdjust="spacing" textLength="198" x="13" y="837.0889">-vaccineTechnology : String</text><line style="stroke:#181818;stroke-width:0.5;" x1="8" x2="565" y1="844.3906" y2="844.3906"/><text fill="#000000" font-family="sans-serif" font-size="14" lengthAdjust="spacing" textLength="547" x="13" y="861.3857">+VaccineType(code : String, description : String, vaccineTechnology : String)</text></g><!--MD5=[d0d3f323c921ace052b18808f85f1ae6]
class VaccineTypeMapper--><g id="elem_VaccineTypeMapper"><rect codeLine="16" fill="#F1F1F1" height="64.2969" id="VaccineTypeMapper" rx="2.5" ry="2.5" style="stroke:#181818;stroke-width:0.5;" width="364" x="507.5" y="606"/><ellipse cx="612.25" cy="622" fill="#ADD1B2" rx="11" ry="11" style="stroke:#181818;stroke-width:1.0;"/><path d="M614.7188,627.875 Q614.1406,628.1875 613.5,628.3438 Q612.8594,628.5 612.1563,628.5 Q609.6563,628.5 608.3281,626.8281 Q607.0156,625.1563 607.0156,622 Q607.0156,618.8438 608.3281,617.1719 Q609.6563,615.5 612.1563,615.5 Q612.8594,615.5 613.5,615.6563 Q614.1563,615.8125 614.7188,616.125 L614.7188,618.9219 Q614.0938,618.3594 613.5,618.0938 Q612.9063,617.8125 612.2813,617.8125 Q610.9375,617.8125 610.25,618.875 Q609.5625,619.9375 609.5625,622 Q609.5625,624.0781 610.25,625.1406 Q610.9375,626.1875 612.2813,626.1875 Q612.9063,626.1875 613.5,625.9219 Q614.0938,625.6563 614.7188,625.0781 L614.7188,627.875 Z " fill="#000000"/><text fill="#000000" font-family="sans-serif" font-size="14" lengthAdjust="spacing" textLength="146" x="632.75" y="626.8467">VaccineTypeMapper</text><line style="stroke:#181818;stroke-width:0.5;" x1="508.5" x2="870.5" y1="638" y2="638"/><line style="stroke:#181818;stroke-width:0.5;" x1="508.5" x2="870.5" y1="646" y2="646"/><text fill="#000000" font-family="sans-serif" font-size="14" lengthAdjust="spacing" textLength="352" x="513.5" y="662.9951">+toModel(vtDto : VaccineTypeDto) : VaccineType</text></g><!--MD5=[9532c95099058dfe385d7270fd32fc0d]
class VaccineTypeStore--><g id="elem_VaccineTypeStore"><rect codeLine="20" fill="#F1F1F1" height="113.1875" id="VaccineTypeStore" rx="2.5" ry="2.5" style="stroke:#181818;stroke-width:0.5;" width="445" x="308" y="416"/><ellipse cx="461.25" cy="432" fill="#ADD1B2" rx="11" ry="11" style="stroke:#181818;stroke-width:1.0;"/><path d="M463.7188,437.875 Q463.1406,438.1875 462.5,438.3438 Q461.8594,438.5 461.1563,438.5 Q458.6563,438.5 457.3281,436.8281 Q456.0156,435.1563 456.0156,432 Q456.0156,428.8438 457.3281,427.1719 Q458.6563,425.5 461.1563,425.5 Q461.8594,425.5 462.5,425.6563 Q463.1563,425.8125 463.7188,426.125 L463.7188,428.9219 Q463.0938,428.3594 462.5,428.0938 Q461.9063,427.8125 461.2813,427.8125 Q459.9375,427.8125 459.25,428.875 Q458.5625,429.9375 458.5625,432 Q458.5625,434.0781 459.25,435.1406 Q459.9375,436.1875 461.2813,436.1875 Q461.9063,436.1875 462.5,435.9219 Q463.0938,435.6563 463.7188,435.0781 L463.7188,437.875 Z " fill="#000000"/><text fill="#000000" font-family="sans-serif" font-size="14" lengthAdjust="spacing" textLength="130" x="481.75" y="436.8467">VaccineTypeStore</text><line style="stroke:#181818;stroke-width:0.5;" x1="309" x2="752" y1="448" y2="448"/><line style="stroke:#181818;stroke-width:0.5;" x1="309" x2="752" y1="456" y2="456"/><text fill="#000000" font-family="sans-serif" font-size="14" lengthAdjust="spacing" textLength="433" x="314" y="472.9951">+createVaccineType(vtDto : VaccineTypeDto) : VaccineType</text><text fill="#000000" font-family="sans-serif" font-size="14" lengthAdjust="spacing" textLength="360" x="314" y="489.292">+validateVaccineType(vt : VaccineType) : boolean</text><text fill="#000000" font-family="sans-serif" font-size="14" lengthAdjust="spacing" textLength="308" x="314" y="505.5889">+saveVaccineType(vt : VaccineType) : void</text><text fill="#000000" font-family="sans-serif" font-size="14" lengthAdjust="spacing" textLength="302" x="314" y="521.8857">+addVaccineType(vt : VaccineType) : void</text></g><!--MD5=[4d1c177f39518ad8fa4c4fe2f14e9e7d]
class VaccineTypeDto--><g id="elem_VaccineTypeDto"><rect codeLine="27" fill="#F1F1F1" height="162.0781" id="VaccineTypeDto" rx="2.5" ry="2.5" style="stroke:#181818;stroke-width:0.5;" width="584" x="632.5" y="731"/><ellipse cx="861.75" cy="747" fill="#ADD1B2" rx="11" ry="11" style="stroke:#181818;stroke-width:1.0;"/><path d="M864.2188,752.875 Q863.6406,753.1875 863,753.3438 Q862.3594,753.5 861.6563,753.5 Q859.1563,753.5 857.8281,751.8281 Q856.5156,750.1563 856.5156,747 Q856.5156,743.8438 857.8281,742.1719 Q859.1563,740.5 861.6563,740.5 Q862.3594,740.5 863,740.6563 Q863.6563,740.8125 864.2188,741.125 L864.2188,743.9219 Q863.5938,743.3594 863,743.0938 Q862.4063,742.8125 861.7813,742.8125 Q860.4375,742.8125 859.75,743.875 Q859.0625,744.9375 859.0625,747 Q859.0625,749.0781 859.75,750.1406 Q860.4375,751.1875 861.7813,751.1875 Q862.4063,751.1875 863,750.9219 Q863.5938,750.6563 864.2188,750.0781 L864.2188,752.875 Z " fill="#000000"/><text fill="#000000" font-family="sans-serif" font-size="14" lengthAdjust="spacing" textLength="117" x="882.25" y="751.8467">VaccineTypeDto</text><line style="stroke:#181818;stroke-width:0.5;" x1="633.5" x2="1215.5" y1="763" y2="763"/><text fill="#000000" font-family="sans-serif" font-size="14" lengthAdjust="spacing" textLength="95" x="638.5" y="779.9951">-code : String</text><text fill="#000000" font-family="sans-serif" font-size="14" lengthAdjust="spacing" textLength="139" x="638.5" y="796.292">-description : String</text><text fill="#000000" font-family="sans-serif" font-size="14" lengthAdjust="spacing" textLength="198" x="638.5" y="812.5889">-vaccineTechnology : String</text><line style="stroke:#181818;stroke-width:0.5;" x1="633.5" x2="1215.5" y1="819.8906" y2="819.8906"/><text fill="#000000" font-family="sans-serif" font-size="14" lengthAdjust="spacing" textLength="572" x="638.5" y="836.8857">+VaccineTypeDto(code : String, description : String, vaccineTechnology : String)</text><text fill="#000000" font-family="sans-serif" font-size="14" lengthAdjust="spacing" textLength="137" x="638.5" y="853.1826">+getCode() : String</text><text fill="#000000" font-family="sans-serif" font-size="14" lengthAdjust="spacing" textLength="181" x="638.5" y="869.4795">+getDescription() : String</text><text fill="#000000" font-family="sans-serif" font-size="14" lengthAdjust="spacing" textLength="240" x="638.5" y="885.7764">+getVaccineTechnology() : String</text></g><!--MD5=[5d1d7a5288013f6c79538ea633b579ef]
class SpecifyNewVaccineTypeUI--><g id="elem_SpecifyNewVaccineTypeUI"><rect codeLine="37" fill="#F1F1F1" height="48" id="SpecifyNewVaccineTypeUI" rx="2.5" ry="2.5" style="stroke:#181818;stroke-width:0.5;" width="220" x="763.5" y="7"/><ellipse cx="778.5" cy="23" fill="#ADD1B2" rx="11" ry="11" style="stroke:#181818;stroke-width:1.0;"/><path d="M780.9688,28.875 Q780.3906,29.1875 779.75,29.3438 Q779.1094,29.5 778.4063,29.5 Q775.9063,29.5 774.5781,27.8281 Q773.2656,26.1563 773.2656,23 Q773.2656,19.8438 774.5781,18.1719 Q775.9063,16.5 778.4063,16.5 Q779.1094,16.5 779.75,16.6563 Q780.4063,16.8125 780.9688,17.125 L780.9688,19.9219 Q780.3438,19.3594 779.75,19.0938 Q779.1563,18.8125 778.5313,18.8125 Q777.1875,18.8125 776.5,19.875 Q775.8125,20.9375 775.8125,23 Q775.8125,25.0781 776.5,26.1406 Q777.1875,27.1875 778.5313,27.1875 Q779.1563,27.1875 779.75,26.9219 Q780.3438,26.6563 780.9688,26.0781 L780.9688,28.875 Z " fill="#000000"/><text fill="#000000" font-family="sans-serif" font-size="14" lengthAdjust="spacing" textLength="188" x="792.5" y="27.8467">SpecifyNewVaccineTypeUI</text><line style="stroke:#181818;stroke-width:0.5;" x1="764.5" x2="982.5" y1="39" y2="39"/><line style="stroke:#181818;stroke-width:0.5;" x1="764.5" x2="982.5" y1="47" y2="47"/></g><!--MD5=[654b6611eea81d902b04013993589538]
class SpecifyNewVaccineTypeController--><g id="elem_SpecifyNewVaccineTypeController"><rect codeLine="39" fill="#F1F1F1" height="80.5938" id="SpecifyNewVaccineTypeController" rx="2.5" ry="2.5" style="stroke:#181818;stroke-width:0.5;" width="383" x="549" y="116"/><ellipse cx="613.75" cy="132" fill="#ADD1B2" rx="11" ry="11" style="stroke:#181818;stroke-width:1.0;"/><path d="M616.2188,137.875 Q615.6406,138.1875 615,138.3438 Q614.3594,138.5 613.6563,138.5 Q611.1563,138.5 609.8281,136.8281 Q608.5156,135.1563 608.5156,132 Q608.5156,128.8438 609.8281,127.1719 Q611.1563,125.5 613.6563,125.5 Q614.3594,125.5 615,125.6563 Q615.6563,125.8125 616.2188,126.125 L616.2188,128.9219 Q615.5938,128.3594 615,128.0938 Q614.4063,127.8125 613.7813,127.8125 Q612.4375,127.8125 611.75,128.875 Q611.0625,129.9375 611.0625,132 Q611.0625,134.0781 611.75,135.1406 Q612.4375,136.1875 613.7813,136.1875 Q614.4063,136.1875 615,135.9219 Q615.5938,135.6563 616.2188,135.0781 L616.2188,137.875 Z " fill="#000000"/><text fill="#000000" font-family="sans-serif" font-size="14" lengthAdjust="spacing" textLength="245" x="634.25" y="136.8467">SpecifyNewVaccineTypeController</text><line style="stroke:#181818;stroke-width:0.5;" x1="550" x2="931" y1="148" y2="148"/><line style="stroke:#181818;stroke-width:0.5;" x1="550" x2="931" y1="156" y2="156"/><text fill="#000000" font-family="sans-serif" font-size="14" lengthAdjust="spacing" textLength="371" x="555" y="172.9951">+createVaccineType(vtDto : VaccineTypeDto) : void</text><text fill="#000000" font-family="sans-serif" font-size="14" lengthAdjust="spacing" textLength="190" x="555" y="189.292">+saveVaccineType() : void</text></g><!--MD5=[05986564e1c13a00611587b35563d868]
link Company to VaccineType--><g id="link_Company_VaccineType"><path codeLine="44" d="M401.84,334.29 C359.91,351.99 317.3,378.08 290.5,416 C220.27,515.39 245.49,666.8 267.57,750.35 " fill="none" id="Company-to-VaccineType" style="stroke:#181818;stroke-width:1.0;"/><polygon fill="#181818" points="268.88,755.26,270.4296,745.5338,267.5935,750.4284,262.6989,747.5923,268.88,755.26" style="stroke:#181818;stroke-width:1.0;"/><polygon fill="#000000" points="248.9644,572.3248,254.5392,564.6194,248.9454,562.8142,248.9644,572.3248" style="stroke:#000000;stroke-width:1.0;"/><text fill="#000000" font-family="sans-serif" font-size="13" lengthAdjust="spacing" textLength="161" x="259.5" y="572.0669">promotes administration</text><text fill="#000000" font-family="sans-serif" font-size="13" lengthAdjust="spacing" textLength="8" x="386.1706" y="333.008">1</text><text fill="#000000" font-family="sans-serif" font-size="13" lengthAdjust="spacing" textLength="7" x="259.306" y="744.4943">*</text></g><!--MD5=[7c1b650b482ee65a8aacccfe35e3842b]
link SpecifyNewVaccineTypeUI to SpecifyNewVaccineTypeController--><g id="link_SpecifyNewVaccineTypeUI_SpecifyNewVaccineTypeController"><path codeLine="45" d="M848.48,55.23 C831.2,71.28 807.69,93.11 787.02,112.3 " fill="none" id="SpecifyNewVaccineTypeUI-to-SpecifyNewVaccineTypeController" style="stroke:#181818;stroke-width:1.0;stroke-dasharray:7.0,7.0;"/><polygon fill="#181818" points="783.19,115.86,792.5112,112.6796,786.8585,112.4627,787.0755,106.81,783.19,115.86" style="stroke:#181818;stroke-width:1.0;"/></g><!--MD5=[2ecb384ece7ba683832533b79bd839c7]
link SpecifyNewVaccineTypeController to Company--><g id="link_SpecifyNewVaccineTypeController_Company"><path codeLine="46" d="M681.16,197.06 C654.11,215.09 622.03,236.48 594.44,254.87 " fill="none" id="SpecifyNewVaccineTypeController-to-Company" style="stroke:#181818;stroke-width:1.0;stroke-dasharray:7.0,7.0;"/><polygon fill="#181818" points="590.05,257.8,599.7573,256.1359,594.2103,255.0265,595.3197,249.4795,590.05,257.8" style="stroke:#181818;stroke-width:1.0;"/></g><!--MD5=[da9ecb8ca0785a59b02b4979cbf94715]
link SpecifyNewVaccineTypeController to VaccineType--><g id="link_SpecifyNewVaccineTypeController_VaccineType"><path codeLine="47" d="M548.81,169.6 C387.69,185.2 183.5,220.23 183.5,297.5 C183.5,297.5 183.5,297.5 183.5,639 C183.5,680.3 205.63,720.28 229.38,751.27 " fill="none" id="SpecifyNewVaccineTypeController-to-VaccineType" style="stroke:#181818;stroke-width:1.0;stroke-dasharray:7.0,7.0;"/><polygon fill="#181818" points="232.59,755.39,230.2315,745.8277,229.5242,751.4402,223.9118,750.7329,232.59,755.39" style="stroke:#181818;stroke-width:1.0;"/></g><!--MD5=[26b80dd60d3305f854b992ec0b603e2d]
link Company to VaccineTypeStore--><g id="link_Company_VaccineTypeStore"><path codeLine="48" d="M530.5,339.39 C530.5,360.61 530.5,387.14 530.5,410.85 " fill="none" id="Company-to-VaccineTypeStore" style="stroke:#181818;stroke-width:1.0;"/><polygon fill="#181818" points="530.5,415.86,534.5,406.86,530.5,410.86,526.5,406.86,530.5,415.86" style="stroke:#181818;stroke-width:1.0;"/><text fill="#000000" font-family="sans-serif" font-size="13" lengthAdjust="spacing" textLength="30" x="531.5" y="382.0669">uses</text><text fill="#000000" font-family="sans-serif" font-size="13" lengthAdjust="spacing" textLength="8" x="521.9125" y="358.6038">1</text><text fill="#000000" font-family="sans-serif" font-size="13" lengthAdjust="spacing" textLength="8" x="522.0125" y="405.1065">1</text></g><!--MD5=[d008df8d9f8e445f2ab98a1ffd9c1902]
link VaccineTypeStore to VaccineType--><g id="link_VaccineTypeStore_VaccineType"><path codeLine="49" d="M490.21,529.23 C445.9,590.51 374.99,688.6 329.6,751.38 " fill="none" id="VaccineTypeStore-to-VaccineType" style="stroke:#181818;stroke-width:1.0;"/><polygon fill="#181818" points="326.65,755.47,335.1609,750.5137,329.5764,751.4159,328.6742,745.8314,326.65,755.47" style="stroke:#181818;stroke-width:1.0;"/><text fill="#000000" font-family="sans-serif" font-size="13" lengthAdjust="spacing" textLength="23" x="434.5" y="642.5669">has</text><text fill="#000000" font-family="sans-serif" font-size="13" lengthAdjust="spacing" textLength="8" x="476.8122" y="549.1216">1</text><text fill="#000000" font-family="sans-serif" font-size="13" lengthAdjust="spacing" textLength="7" x="324.3458" y="744.3295">*</text></g><!--MD5=[dfee5884656726392466664acd3ad398]
link SpecifyNewVaccineTypeController to VaccineTypeMapper--><g id="link_SpecifyNewVaccineTypeController_VaccineTypeMapper"><path codeLine="50" d="M753.7,197.23 C774.57,266.56 809.07,413.29 770.5,529 C761.4,556.31 742.39,582.27 725.07,601.89 " fill="none" id="SpecifyNewVaccineTypeController-to-VaccineTypeMapper" style="stroke:#181818;stroke-width:1.0;stroke-dasharray:7.0,7.0;"/><polygon fill="#181818" points="721.63,605.73,730.6076,601.6799,724.9598,602.0001,724.6397,596.3523,721.63,605.73" style="stroke:#181818;stroke-width:1.0;"/></g><!--MD5=[8dcf336ea68730071de5768f14150cb4]
link VaccineTypeMapper to VaccineType--><g id="link_VaccineTypeMapper_VaccineType"><path codeLine="51" d="M616.52,670.15 C562.25,693.31 486.64,725.58 421.47,753.39 " fill="none" id="VaccineTypeMapper-to-VaccineType" style="stroke:#181818;stroke-width:1.0;stroke-dasharray:7.0,7.0;"/><polygon fill="#181818" points="416.8,755.39,426.6481,755.5102,421.3935,753.4152,423.4885,748.1606,416.8,755.39" style="stroke:#181818;stroke-width:1.0;"/></g><!--MD5=[8199222c38f08102b12952ba945173d9]
link SpecifyNewVaccineTypeUI to VaccineTypeDto--><g id="link_SpecifyNewVaccineTypeUI_VaccineTypeDto"><path codeLine="52" d="M919.62,55.15 C954.17,76.12 995.5,110.59 995.5,155.5 C995.5,155.5 995.5,155.5 995.5,639 C995.5,668.62 986.39,699.09 974.7,726 " fill="none" id="SpecifyNewVaccineTypeUI-to-VaccineTypeDto" style="stroke:#181818;stroke-width:1.0;stroke-dasharray:7.0,7.0;"/><polygon fill="#181818" points="972.64,730.63,979.9467,724.026,974.668,726.0598,972.6343,720.7811,972.64,730.63" style="stroke:#181818;stroke-width:1.0;"/></g><!--MD5=[f7aecccebae421356b79bc54ea50a32a]
link VaccineTypeMapper to VaccineTypeDto--><g id="link_VaccineTypeMapper_VaccineTypeDto"><path codeLine="53" d="M732.06,670.15 C754.31,686.43 782.71,707.22 810.82,727.8 " fill="none" id="VaccineTypeMapper-to-VaccineTypeDto" style="stroke:#181818;stroke-width:1.0;stroke-dasharray:7.0,7.0;"/><polygon fill="#181818" points="814.97,730.83,810.0818,722.2799,810.9393,727.8713,805.3479,728.7289,814.97,730.83" style="stroke:#181818;stroke-width:1.0;"/></g><!--MD5=[0c905c02b8b50943cf8f9f79e2c5bf28]
link SpecifyNewVaccineTypeController to VaccineTypeDto--><g id="link_SpecifyNewVaccineTypeController_VaccineTypeDto"><path codeLine="54" d="M848.33,197.14 C888.49,219.4 924.5,252.04 924.5,297.5 C924.5,297.5 924.5,297.5 924.5,639 C924.5,667.25 924.5,698.11 924.5,725.8 " fill="none" id="SpecifyNewVaccineTypeController-to-VaccineTypeDto" style="stroke:#181818;stroke-width:1.0;stroke-dasharray:7.0,7.0;"/><polygon fill="#181818" points="924.5,730.93,928.5,721.93,924.5,725.93,920.5,721.93,924.5,730.93" style="stroke:#181818;stroke-width:1.0;"/></g><!--MD5=[09d92d8960d4f74b3a351a289ae43cb9]
link SpecifyNewVaccineTypeController to VaccineTypeStore--><g id="link_SpecifyNewVaccineTypeController_VaccineTypeStore"><path codeLine="55" d="M732.47,197.23 C723.36,235.83 705.81,294.89 676.5,339 C658.43,366.2 633.55,391.53 609.45,412.6 " fill="none" id="SpecifyNewVaccineTypeController-to-VaccineTypeStore" style="stroke:#181818;stroke-width:1.0;stroke-dasharray:7.0,7.0;"/><polygon fill="#181818" points="605.59,415.94,615.0035,413.044,609.36,412.6556,609.7484,407.0121,605.59,415.94" style="stroke:#181818;stroke-width:1.0;"/></g><!--MD5=[6eb8d762415768c95d90f515c88cd916]
link VaccineTypeStore to VaccineTypeMapper--><g id="link_VaccineTypeStore_VaccineTypeMapper"><path codeLine="56" d="M584.77,529.31 C608.25,553.45 634.99,580.95 655.58,602.12 " fill="none" id="VaccineTypeStore-to-VaccineTypeMapper" style="stroke:#181818;stroke-width:1.0;stroke-dasharray:7.0,7.0;"/><polygon fill="#181818" points="659.09,605.73,655.6848,596.4885,655.6048,602.1448,649.9485,602.0648,659.09,605.73" style="stroke:#181818;stroke-width:1.0;"/></g><!--MD5=[442b3998a34b154d8c39e7197e287871]
@startuml
skinparam classAttributeIconSize 0
top to bottom direction

class Company {
-designation : String
+getVTStore() : VaccineTypeStore
}

class VaccineType {
-code : String
-description : String
-vaccineTechnology : String
+VaccineType(code : String, description : String, vaccineTechnology : String)
}

class VaccineTypeMapper{
+toModel(vtDto : VaccineTypeDto) : VaccineType
}

class VaccineTypeStore {
+createVaccineType(vtDto : VaccineTypeDto) : VaccineType
+validateVaccineType(vt : VaccineType) : boolean
+saveVaccineType(vt : VaccineType) : void
+addVaccineType(vt : VaccineType) : void
}

class VaccineTypeDto {
-code : String
-description : String
-vaccineTechnology : String
+VaccineTypeDto(code : String, description : String, vaccineTechnology : String)
+getCode() : String
+getDescription() : String
+getVaccineTechnology() : String
}

class SpecifyNewVaccineTypeUI {}

class SpecifyNewVaccineTypeController {
+createVaccineType(vtDto : VaccineTypeDto) : void
+saveVaccineType() : void
}

Company "1" - -> "*" VaccineType : > promotes administration
SpecifyNewVaccineTypeUI ..> SpecifyNewVaccineTypeController
SpecifyNewVaccineTypeController ..> Company
SpecifyNewVaccineTypeController ..> VaccineType
Company "1" - -> "1" VaccineTypeStore : uses
VaccineTypeStore "1" - -> "*" VaccineType : has
SpecifyNewVaccineTypeController ..> VaccineTypeMapper
VaccineTypeMapper ..> VaccineType
SpecifyNewVaccineTypeUI ..> VaccineTypeDto
VaccineTypeMapper ..> VaccineTypeDto
SpecifyNewVaccineTypeController ..> VaccineTypeDto
SpecifyNewVaccineTypeController ..> VaccineTypeStore
VaccineTypeStore ..> VaccineTypeMapper
@enduml

PlantUML version 1.2022.4(Sat Apr 09 14:29:17 WEST 2022)
(GPL source distribution)
Java Runtime: OpenJDK Runtime Environment
JVM: OpenJDK 64-Bit Server VM
Default Encoding: UTF-8
Language: en
Country: US
--></g></svg>