<?xml version="1.0" encoding="UTF-8" standalone="no"?><svg xmlns="http://www.w3.org/2000/svg" xmlns:xlink="http://www.w3.org/1999/xlink" contentStyleType="text/css" height="519px" preserveAspectRatio="none" style="width:433px;height:519px;background:#FFFFFF;" version="1.1" viewBox="0 0 433 519" width="433px" zoomAndPan="magnify"><defs/><g><!--MD5=[02e4b9b7573f1156f41e60aa5b4e25a4]
class Company--><g id="elem_Company"><rect codeLine="5" fill="#F1F1F1" height="56.2969" id="Company" rx="2.5" ry="2.5" style="stroke:#181818;stroke-width:0.5;" width="100" x="120.5" y="7"/><ellipse cx="135.5" cy="23" fill="#ADD1B2" rx="11" ry="11" style="stroke:#181818;stroke-width:1.0;"/><path d="M137.9688,28.875 Q137.3906,29.1875 136.75,29.3438 Q136.1094,29.5 135.4063,29.5 Q132.9063,29.5 131.5781,27.8281 Q130.2656,26.1563 130.2656,23 Q130.2656,19.8438 131.5781,18.1719 Q132.9063,16.5 135.4063,16.5 Q136.1094,16.5 136.75,16.6563 Q137.4063,16.8125 137.9688,17.125 L137.9688,19.9219 Q137.3438,19.3594 136.75,19.0938 Q136.1563,18.8125 135.5313,18.8125 Q134.1875,18.8125 133.5,19.875 Q132.8125,20.9375 132.8125,23 Q132.8125,25.0781 133.5,26.1406 Q134.1875,27.1875 135.5313,27.1875 Q136.1563,27.1875 136.75,26.9219 Q137.3438,26.6563 137.9688,26.0781 L137.9688,28.875 Z " fill="#000000"/><text fill="#000000" font-family="sans-serif" font-size="14" lengthAdjust="spacing" textLength="68" x="149.5" y="27.8467">Company</text><line style="stroke:#181818;stroke-width:0.5;" x1="121.5" x2="219.5" y1="39" y2="39"/><text fill="#000000" font-family="sans-serif" font-size="14" lengthAdjust="spacing" textLength="88" x="126.5" y="55.9951">-designation</text></g><!--MD5=[19e445fc4d3b48519cbe33da05496394]
class Vaccine--><g id="elem_Vaccine"><rect codeLine="10" fill="#F1F1F1" height="88.8906" id="Vaccine" rx="2.5" ry="2.5" style="stroke:#181818;stroke-width:0.5;" width="93" x="7" y="140"/><ellipse cx="23.8" cy="156" fill="#ADD1B2" rx="11" ry="11" style="stroke:#181818;stroke-width:1.0;"/><path d="M26.2688,161.875 Q25.6906,162.1875 25.05,162.3438 Q24.4094,162.5 23.7063,162.5 Q21.2063,162.5 19.8781,160.8281 Q18.5656,159.1563 18.5656,156 Q18.5656,152.8438 19.8781,151.1719 Q21.2063,149.5 23.7063,149.5 Q24.4094,149.5 25.05,149.6563 Q25.7063,149.8125 26.2688,150.125 L26.2688,152.9219 Q25.6438,152.3594 25.05,152.0938 Q24.4563,151.8125 23.8313,151.8125 Q22.4875,151.8125 21.8,152.875 Q21.1125,153.9375 21.1125,156 Q21.1125,158.0781 21.8,159.1406 Q22.4875,160.1875 23.8313,160.1875 Q24.4563,160.1875 25.05,159.9219 Q25.6438,159.6563 26.2688,159.0781 L26.2688,161.875 Z " fill="#000000"/><text fill="#000000" font-family="sans-serif" font-size="14" lengthAdjust="spacing" textLength="57" x="38.2" y="160.8467">Vaccine</text><line style="stroke:#181818;stroke-width:0.5;" x1="8" x2="99" y1="172" y2="172"/><text fill="#000000" font-family="sans-serif" font-size="14" lengthAdjust="spacing" textLength="81" x="13" y="188.9951">-vacccineId</text><text fill="#000000" font-family="sans-serif" font-size="14" lengthAdjust="spacing" textLength="46" x="13" y="205.292">-name</text><text fill="#000000" font-family="sans-serif" font-size="14" lengthAdjust="spacing" textLength="47" x="13" y="221.5889">-brand</text></g><!--MD5=[0e501da62322464167c8ec4d233a6b7e]
class VaccineType--><g id="elem_VaccineType"><rect codeLine="17" fill="#F1F1F1" height="88.8906" id="VaccineType" rx="2.5" ry="2.5" style="stroke:#181818;stroke-width:0.5;" width="155" x="93" y="306"/><ellipse cx="121.95" cy="322" fill="#ADD1B2" rx="11" ry="11" style="stroke:#181818;stroke-width:1.0;"/><path d="M124.4188,327.875 Q123.8406,328.1875 123.2,328.3438 Q122.5594,328.5 121.8563,328.5 Q119.3563,328.5 118.0281,326.8281 Q116.7156,325.1563 116.7156,322 Q116.7156,318.8438 118.0281,317.1719 Q119.3563,315.5 121.8563,315.5 Q122.5594,315.5 123.2,315.6563 Q123.8563,315.8125 124.4188,316.125 L124.4188,318.9219 Q123.7938,318.3594 123.2,318.0938 Q122.6063,317.8125 121.9813,317.8125 Q120.6375,317.8125 119.95,318.875 Q119.2625,319.9375 119.2625,322 Q119.2625,324.0781 119.95,325.1406 Q120.6375,326.1875 121.9813,326.1875 Q122.6063,326.1875 123.2,325.9219 Q123.7938,325.6563 124.4188,325.0781 L124.4188,327.875 Z " fill="#000000"/><text fill="#000000" font-family="sans-serif" font-size="14" lengthAdjust="spacing" textLength="92" x="139.05" y="326.8467">VaccineType</text><line style="stroke:#181818;stroke-width:0.5;" x1="94" x2="247" y1="338" y2="338"/><text fill="#000000" font-family="sans-serif" font-size="14" lengthAdjust="spacing" textLength="40" x="99" y="354.9951">-code</text><text fill="#000000" font-family="sans-serif" font-size="14" lengthAdjust="spacing" textLength="84" x="99" y="371.292">-description</text><text fill="#000000" font-family="sans-serif" font-size="14" lengthAdjust="spacing" textLength="143" x="99" y="387.5889">-vaccineTechnology</text></g><!--MD5=[da547346deef918ea16944ba046651ef]
class Administrator--><g id="elem_Administrator"><rect codeLine="23" fill="#F1F1F1" height="40" id="Administrator" rx="2.5" ry="2.5" style="stroke:#181818;stroke-width:0.5;" width="129" x="220" y="472"/><ellipse cx="235" cy="488" fill="#ADD1B2" rx="11" ry="11" style="stroke:#181818;stroke-width:1.0;"/><path d="M237.4688,493.875 Q236.8906,494.1875 236.25,494.3438 Q235.6094,494.5 234.9063,494.5 Q232.4063,494.5 231.0781,492.8281 Q229.7656,491.1563 229.7656,488 Q229.7656,484.8438 231.0781,483.1719 Q232.4063,481.5 234.9063,481.5 Q235.6094,481.5 236.25,481.6563 Q236.9063,481.8125 237.4688,482.125 L237.4688,484.9219 Q236.8438,484.3594 236.25,484.0938 Q235.6563,483.8125 235.0313,483.8125 Q233.6875,483.8125 233,484.875 Q232.3125,485.9375 232.3125,488 Q232.3125,490.0781 233,491.1406 Q233.6875,492.1875 235.0313,492.1875 Q235.6563,492.1875 236.25,491.9219 Q236.8438,491.6563 237.4688,491.0781 L237.4688,493.875 Z " fill="#000000"/><text fill="#000000" font-family="sans-serif" font-size="14" lengthAdjust="spacing" textLength="97" x="249" y="492.8467">Administrator</text><line style="stroke:#181818;stroke-width:0.5;" x1="221" x2="348" y1="504" y2="504"/></g><!--MD5=[c29c8d42883934cbaf5793c72a334947]
link Company to Vaccine--><g id="link_Company_Vaccine"><path codeLine="26" d="M120.5,60.12 C106.59,68.84 92.56,79.84 82.5,93 C72.17,106.5 65.46,123.78 61.13,139.62 " fill="none" id="Company-Vaccine" style="stroke:#181818;stroke-width:1.0;"/><polygon fill="#000000" points="84.5082,105.5726,92.2752,100.0839,87.5656,96.5668,84.5082,105.5726" style="stroke:#000000;stroke-width:1.0;"/><text fill="#000000" font-family="sans-serif" font-size="13" lengthAdjust="spacing" textLength="47" x="96.5" y="106.0669">applies</text><text fill="#000000" font-family="sans-serif" font-size="13" lengthAdjust="spacing" textLength="8" x="104.5688" y="59.7628">1</text><text fill="#000000" font-family="sans-serif" font-size="13" lengthAdjust="spacing" textLength="7" x="54.7366" y="129.0114">*</text></g><!--MD5=[05986564e1c13a00611587b35563d868]
link Company to VaccineType--><g id="link_Company_VaccineType"><path codeLine="27" d="M170.5,63 C170.5,117.29 170.5,240.07 170.5,305.89 " fill="none" id="Company-VaccineType" style="stroke:#181818;stroke-width:1.0;"/><polygon fill="#000000" points="175.5,189.5664,178.4389,180.5213,172.5611,180.5213,175.5,189.5664" style="stroke:#000000;stroke-width:1.0;"/><text fill="#000000" font-family="sans-serif" font-size="13" lengthAdjust="spacing" textLength="161" x="184.5" y="189.0669">promotes administration</text><text fill="#000000" font-family="sans-serif" font-size="13" lengthAdjust="spacing" textLength="8" x="161.575" y="83.2573">1</text><text fill="#000000" font-family="sans-serif" font-size="13" lengthAdjust="spacing" textLength="7" x="162.9641" y="294.9961">*</text></g><!--MD5=[eaea43e34e45c5b9d20b595fc78f1f20]
link Company to Administrator--><g id="link_Company_Administrator"><path codeLine="28" d="M220.86,48.99 C264.83,63.29 325.93,91.03 354.5,140 C381.91,186.99 372.52,364.8 335.5,442 C329.98,453.51 320.53,463.76 311.25,471.87 " fill="none" id="Company-Administrator" style="stroke:#181818;stroke-width:1.0;"/><polygon fill="#000000" points="375.5451,272.456,376.5285,262.9964,370.7805,264.225,375.5451,272.456" style="stroke:#000000;stroke-width:1.0;"/><text fill="#000000" font-family="sans-serif" font-size="13" lengthAdjust="spacing" textLength="42" x="383.5" y="272.0669">knows</text><text fill="#000000" font-family="sans-serif" font-size="13" lengthAdjust="spacing" textLength="8" x="228.5044" y="46.958">1</text><text fill="#000000" font-family="sans-serif" font-size="13" lengthAdjust="spacing" textLength="7" x="311.0797" y="460.8401">*</text></g><!--MD5=[f0553939d664499c8c3e148c02d4348e]
link VaccineType to Administrator--><g id="link_VaccineType_Administrator"><path codeLine="29" d="M206.26,395.26 C227.28,420.98 252.81,452.22 268.86,471.86 " fill="none" id="VaccineType-Administrator" style="stroke:#181818;stroke-width:1.0;"/><polygon fill="#000000" points="251.664,437.438,248.2159,428.5745,243.6646,432.294,251.664,437.438" style="stroke:#000000;stroke-width:1.0;"/><text fill="#000000" font-family="sans-serif" font-size="13" lengthAdjust="spacing" textLength="69" x="257.5" y="438.0669">created by</text><text fill="#000000" font-family="sans-serif" font-size="13" lengthAdjust="spacing" textLength="7" x="203.9982" y="415.0204">*</text><text fill="#000000" font-family="sans-serif" font-size="13" lengthAdjust="spacing" textLength="8" x="255.0908" y="460.8272">1</text></g><!--MD5=[3568623adf67b2630dce9e60c05bd02a]
link Vaccine to VaccineType--><g id="link_Vaccine_VaccineType"><path codeLine="30" d="M73.73,229.24 C81.57,244.56 91.16,261.53 101.5,276 C108.73,286.11 117.25,296.26 125.8,305.66 " fill="none" id="Vaccine-VaccineType" style="stroke:#181818;stroke-width:1.0;"/><polygon fill="#000000" points="109.3154,271.6984,106.651,262.5687,101.7936,265.8784,109.3154,271.6984" style="stroke:#000000;stroke-width:1.0;"/><text fill="#000000" font-family="sans-serif" font-size="13" lengthAdjust="spacing" textLength="28" x="115.5" y="272.0669">is of</text><text fill="#000000" font-family="sans-serif" font-size="13" lengthAdjust="spacing" textLength="7" x="69.1872" y="248.9974">*</text><text fill="#000000" font-family="sans-serif" font-size="13" lengthAdjust="spacing" textLength="8" x="110.6472" y="295.0572">1</text></g><!--MD5=[0ae8afe186f94b91bae678c039ea65df]
@startuml
hide methods
top to bottom direction
skinparam classAttributeIconSize 0

class Company
{
  -designation
}

class Vaccine
{
  -vacccineId
  -name
  -brand
}

class VaccineType {
-code
-description
-vaccineTechnology
}

class Administrator {
}

Company "1" - - "*" Vaccine : > applies
Company "1" - - "*" VaccineType : > promotes administration
Company "1" - - "*" Administrator : > knows
VaccineType "*" - - "1" Administrator : > created by
Vaccine "*" - - "1" VaccineType : > is of

@enduml

PlantUML version 1.2022.4(Sat Apr 09 14:29:17 WEST 2022)
(GPL source distribution)
Java Runtime: OpenJDK Runtime Environment
JVM: OpenJDK 64-Bit Server VM
Default Encoding: UTF-8
Language: en
Country: US
--></g></svg>