<?xml version="1.0" encoding="UTF-8" standalone="no"?><svg xmlns="http://www.w3.org/2000/svg" xmlns:xlink="http://www.w3.org/1999/xlink" contentStyleType="text/css" height="924px" preserveAspectRatio="none" style="width:1756px;height:924px;background:#FFFFFF;" version="1.1" viewBox="0 0 1756 924" width="1756px" zoomAndPan="magnify"><defs/><g><rect fill="#FFFFFF" height="734.5547" style="stroke:#181818;stroke-width:1.0;" width="10" x="51.5" y="91.2969"/><rect fill="#FFFFFF" height="29.1328" style="stroke:#181818;stroke-width:1.0;" width="10" x="449.5" y="112.4297"/><rect fill="#FFFFFF" height="394.3594" style="stroke:#181818;stroke-width:1.0;" width="10" x="449.5" y="170.6953"/><rect fill="#FFFFFF" height="231.6641" style="stroke:#181818;stroke-width:1.0;" width="10" x="449.5" y="594.1875"/><rect fill="#FFFFFF" height="336.0938" style="stroke:#181818;stroke-width:1.0;" width="10" x="695" y="199.8281"/><rect fill="#FFFFFF" height="211.5313" style="stroke:#181818;stroke-width:1.0;" width="10" x="695" y="623.3203"/><rect fill="#FFFFFF" height="30" style="stroke:#181818;stroke-width:1.0;" width="10" x="885" y="228.9609"/><rect fill="#FFFFFF" height="176.5313" style="stroke:#181818;stroke-width:1.0;" width="10" x="1038" y="288.0938"/><rect fill="#FFFFFF" height="30" style="stroke:#181818;stroke-width:1.0;" width="10" x="1038" y="505.9219"/><rect fill="#FFFFFF" height="137.2656" style="stroke:#181818;stroke-width:1.0;" width="10" x="1038" y="652.4531"/><rect fill="#FFFFFF" height="28" style="stroke:#181818;stroke-width:1.0;" width="10" x="1043" y="689.5859"/><rect fill="#FFFFFF" height="28" style="stroke:#181818;stroke-width:1.0;" width="10" x="1043" y="761.7188"/><rect fill="#FFFFFF" height="147.3984" style="stroke:#181818;stroke-width:1.0;" width="10" x="1268" y="317.2266"/><rect fill="#FFFFFF" height="30" style="stroke:#181818;stroke-width:1.0;" width="10" x="1506" y="346.3594"/><rect fill="#FFFFFF" height="30" style="stroke:#181818;stroke-width:1.0;" width="10" x="1506" y="405.4922"/><line style="stroke:#181818;stroke-width:0.5;stroke-dasharray:5.0,5.0;" x1="56" x2="56" y1="81.2969" y2="843.8516"/><line style="stroke:#181818;stroke-width:0.5;stroke-dasharray:5.0,5.0;" x1="454" x2="454" y1="81.2969" y2="843.8516"/><line style="stroke:#181818;stroke-width:0.5;stroke-dasharray:5.0,5.0;" x1="700" x2="700" y1="81.2969" y2="843.8516"/><line style="stroke:#181818;stroke-width:0.5;stroke-dasharray:5.0,5.0;" x1="890" x2="890" y1="81.2969" y2="843.8516"/><line style="stroke:#181818;stroke-width:0.5;stroke-dasharray:5.0,5.0;" x1="1043" x2="1043" y1="81.2969" y2="843.8516"/><line style="stroke:#181818;stroke-width:0.5;stroke-dasharray:5.0,5.0;" x1="1273" x2="1273" y1="81.2969" y2="843.8516"/><line style="stroke:#181818;stroke-width:0.5;stroke-dasharray:5.0,5.0;" x1="1511" x2="1511" y1="81.2969" y2="843.8516"/><line style="stroke:#181818;stroke-width:0.5;stroke-dasharray:5.0,5.0;" x1="1686" x2="1686" y1="474.1406" y2="843.8516"/><text fill="#000000" font-family="sans-serif" font-size="14" lengthAdjust="spacing" textLength="97" x="5" y="77.9951">Administrator</text><ellipse cx="56.5" cy="13.5" fill="#E2E2F0" rx="8" ry="8" style="stroke:#181818;stroke-width:0.5;"/><path d="M56.5,21.5 L56.5,48.5 M43.5,29.5 L69.5,29.5 M56.5,48.5 L43.5,63.5 M56.5,48.5 L69.5,63.5 " fill="none" style="stroke:#181818;stroke-width:0.5;"/><text fill="#000000" font-family="sans-serif" font-size="14" lengthAdjust="spacing" textLength="97" x="5" y="855.8467">Administrator</text><ellipse cx="56.5" cy="867.6484" fill="#E2E2F0" rx="8" ry="8" style="stroke:#181818;stroke-width:0.5;"/><path d="M56.5,875.6484 L56.5,902.6484 M43.5,883.6484 L69.5,883.6484 M56.5,902.6484 L43.5,917.6484 M56.5,902.6484 L69.5,917.6484 " fill="none" style="stroke:#181818;stroke-width:0.5;"/><rect fill="#E2E2F0" height="30.2969" rx="2.5" ry="2.5" style="stroke:#181818;stroke-width:0.5;" width="207" x="351" y="50"/><text fill="#000000" font-family="sans-serif" font-size="14" lengthAdjust="spacing" textLength="193" x="358" y="69.9951">:SpecifyNewVaccineTypeUI</text><rect fill="#E2E2F0" height="30.2969" rx="2.5" ry="2.5" style="stroke:#181818;stroke-width:0.5;" width="207" x="351" y="842.8516"/><text fill="#000000" font-family="sans-serif" font-size="14" lengthAdjust="spacing" textLength="193" x="358" y="862.8467">:SpecifyNewVaccineTypeUI</text><rect fill="#E2E2F0" height="30.2969" rx="2.5" ry="2.5" style="stroke:#181818;stroke-width:0.5;" width="264" x="568" y="50"/><text fill="#000000" font-family="sans-serif" font-size="14" lengthAdjust="spacing" textLength="250" x="575" y="69.9951">:SpecifyNewVaccineTypeController</text><rect fill="#E2E2F0" height="30.2969" rx="2.5" ry="2.5" style="stroke:#181818;stroke-width:0.5;" width="264" x="568" y="842.8516"/><text fill="#000000" font-family="sans-serif" font-size="14" lengthAdjust="spacing" textLength="250" x="575" y="862.8467">:SpecifyNewVaccineTypeController</text><rect fill="#E2E2F0" height="30.2969" rx="2.5" ry="2.5" style="stroke:#181818;stroke-width:0.5;" width="82" x="849" y="50"/><text fill="#000000" font-family="sans-serif" font-size="14" lengthAdjust="spacing" textLength="68" x="856" y="69.9951">Company</text><rect fill="#E2E2F0" height="30.2969" rx="2.5" ry="2.5" style="stroke:#181818;stroke-width:0.5;" width="82" x="849" y="842.8516"/><text fill="#000000" font-family="sans-serif" font-size="14" lengthAdjust="spacing" textLength="68" x="856" y="862.8467">Company</text><rect fill="#E2E2F0" height="30.2969" rx="2.5" ry="2.5" style="stroke:#181818;stroke-width:0.5;" width="204" x="941" y="50"/><text fill="#000000" font-family="sans-serif" font-size="14" lengthAdjust="spacing" textLength="190" x="948" y="69.9951">vtStore: VaccineTypeStore</text><rect fill="#E2E2F0" height="30.2969" rx="2.5" ry="2.5" style="stroke:#181818;stroke-width:0.5;" width="204" x="941" y="842.8516"/><text fill="#000000" font-family="sans-serif" font-size="14" lengthAdjust="spacing" textLength="190" x="948" y="862.8467">vtStore: VaccineTypeStore</text><rect fill="#E2E2F0" height="30.2969" rx="2.5" ry="2.5" style="stroke:#181818;stroke-width:0.5;" width="236" x="1155" y="50"/><text fill="#000000" font-family="sans-serif" font-size="14" lengthAdjust="spacing" textLength="222" x="1162" y="69.9951">vtMapper: VaccineTypeMapper</text><rect fill="#E2E2F0" height="30.2969" rx="2.5" ry="2.5" style="stroke:#181818;stroke-width:0.5;" width="236" x="1155" y="842.8516"/><text fill="#000000" font-family="sans-serif" font-size="14" lengthAdjust="spacing" textLength="222" x="1162" y="862.8467">vtMapper: VaccineTypeMapper</text><rect fill="#E2E2F0" height="30.2969" rx="2.5" ry="2.5" style="stroke:#181818;stroke-width:0.5;" width="178" x="1422" y="50"/><text fill="#000000" font-family="sans-serif" font-size="14" lengthAdjust="spacing" textLength="164" x="1429" y="69.9951">vtDto: VaccineTypeDto</text><rect fill="#E2E2F0" height="30.2969" rx="2.5" ry="2.5" style="stroke:#181818;stroke-width:0.5;" width="178" x="1422" y="842.8516"/><text fill="#000000" font-family="sans-serif" font-size="14" lengthAdjust="spacing" textLength="164" x="1429" y="862.8467">vtDto: VaccineTypeDto</text><rect fill="#E2E2F0" height="30.2969" rx="2.5" ry="2.5" style="stroke:#181818;stroke-width:0.5;" width="128" x="1622" y="842.8516"/><text fill="#000000" font-family="sans-serif" font-size="14" lengthAdjust="spacing" textLength="114" x="1629" y="862.8467">vt: VaccineType</text><rect fill="#FFFFFF" height="734.5547" style="stroke:#181818;stroke-width:1.0;" width="10" x="51.5" y="91.2969"/><rect fill="#FFFFFF" height="29.1328" style="stroke:#181818;stroke-width:1.0;" width="10" x="449.5" y="112.4297"/><rect fill="#FFFFFF" height="394.3594" style="stroke:#181818;stroke-width:1.0;" width="10" x="449.5" y="170.6953"/><rect fill="#FFFFFF" height="231.6641" style="stroke:#181818;stroke-width:1.0;" width="10" x="449.5" y="594.1875"/><rect fill="#FFFFFF" height="336.0938" style="stroke:#181818;stroke-width:1.0;" width="10" x="695" y="199.8281"/><rect fill="#FFFFFF" height="211.5313" style="stroke:#181818;stroke-width:1.0;" width="10" x="695" y="623.3203"/><rect fill="#FFFFFF" height="30" style="stroke:#181818;stroke-width:1.0;" width="10" x="885" y="228.9609"/><rect fill="#FFFFFF" height="176.5313" style="stroke:#181818;stroke-width:1.0;" width="10" x="1038" y="288.0938"/><rect fill="#FFFFFF" height="30" style="stroke:#181818;stroke-width:1.0;" width="10" x="1038" y="505.9219"/><rect fill="#FFFFFF" height="137.2656" style="stroke:#181818;stroke-width:1.0;" width="10" x="1038" y="652.4531"/><rect fill="#FFFFFF" height="28" style="stroke:#181818;stroke-width:1.0;" width="10" x="1043" y="689.5859"/><rect fill="#FFFFFF" height="28" style="stroke:#181818;stroke-width:1.0;" width="10" x="1043" y="761.7188"/><rect fill="#FFFFFF" height="147.3984" style="stroke:#181818;stroke-width:1.0;" width="10" x="1268" y="317.2266"/><rect fill="#FFFFFF" height="30" style="stroke:#181818;stroke-width:1.0;" width="10" x="1506" y="346.3594"/><rect fill="#FFFFFF" height="30" style="stroke:#181818;stroke-width:1.0;" width="10" x="1506" y="405.4922"/><polygon fill="#181818" points="437.5,108.4297,447.5,112.4297,437.5,116.4297,441.5,112.4297" style="stroke:#181818;stroke-width:1.0;"/><line style="stroke:#181818;stroke-width:1.0;" x1="61.5" x2="443.5" y1="112.4297" y2="112.4297"/><text fill="#000000" font-family="sans-serif" font-size="13" font-weight="bold" lengthAdjust="spacing" textLength="9" x="68.5" y="107.3638">1</text><text fill="#000000" font-family="sans-serif" font-size="13" lengthAdjust="spacing" textLength="238" x="81.5" y="107.3638">starts specifying a new vaccine type</text><polygon fill="#181818" points="72.5,137.5625,62.5,141.5625,72.5,145.5625,68.5,141.5625" style="stroke:#181818;stroke-width:1.0;"/><line style="stroke:#181818;stroke-width:1.0;stroke-dasharray:2.0,2.0;" x1="66.5" x2="453.5" y1="141.5625" y2="141.5625"/><text fill="#000000" font-family="sans-serif" font-size="13" font-weight="bold" lengthAdjust="spacing" textLength="9" x="78.5" y="136.4966">2</text><text fill="#000000" font-family="sans-serif" font-size="13" lengthAdjust="spacing" textLength="351" x="91.5" y="136.4966">requests data (code, designation, vaccineTechnology)</text><polygon fill="#181818" points="437.5,166.6953,447.5,170.6953,437.5,174.6953,441.5,170.6953" style="stroke:#181818;stroke-width:1.0;"/><line style="stroke:#181818;stroke-width:1.0;" x1="61.5" x2="443.5" y1="170.6953" y2="170.6953"/><text fill="#000000" font-family="sans-serif" font-size="13" font-weight="bold" lengthAdjust="spacing" textLength="9" x="68.5" y="165.6294">3</text><text fill="#000000" font-family="sans-serif" font-size="13" lengthAdjust="spacing" textLength="138" x="81.5" y="165.6294">types requested data</text><polygon fill="#181818" points="683,195.8281,693,199.8281,683,203.8281,687,199.8281" style="stroke:#181818;stroke-width:1.0;"/><line style="stroke:#181818;stroke-width:1.0;" x1="459.5" x2="689" y1="199.8281" y2="199.8281"/><text fill="#000000" font-family="sans-serif" font-size="13" font-weight="bold" lengthAdjust="spacing" textLength="9" x="466.5" y="194.7622">4</text><text fill="#000000" font-family="sans-serif" font-size="13" lengthAdjust="spacing" textLength="170" x="479.5" y="194.7622">createVaccineType(vtDto)</text><polygon fill="#181818" points="873,224.9609,883,228.9609,873,232.9609,877,228.9609" style="stroke:#181818;stroke-width:1.0;"/><line style="stroke:#181818;stroke-width:1.0;" x1="705" x2="879" y1="228.9609" y2="228.9609"/><text fill="#000000" font-family="sans-serif" font-size="13" font-weight="bold" lengthAdjust="spacing" textLength="9" x="712" y="223.895">5</text><text fill="#000000" font-family="sans-serif" font-size="13" lengthAdjust="spacing" textLength="148" x="725" y="223.895">vtStore = getVTStore()</text><polygon fill="#181818" points="1026,284.0938,1036,288.0938,1026,292.0938,1030,288.0938" style="stroke:#181818;stroke-width:1.0;"/><line style="stroke:#181818;stroke-width:1.0;" x1="705" x2="1032" y1="288.0938" y2="288.0938"/><text fill="#000000" font-family="sans-serif" font-size="13" font-weight="bold" lengthAdjust="spacing" textLength="9" x="712" y="283.0278">6</text><text fill="#000000" font-family="sans-serif" font-size="13" lengthAdjust="spacing" textLength="202" x="725" y="283.0278">vt = createVaccineType(vtDto)</text><polygon fill="#181818" points="1256,313.2266,1266,317.2266,1256,321.2266,1260,317.2266" style="stroke:#181818;stroke-width:1.0;"/><line style="stroke:#181818;stroke-width:1.0;" x1="1048" x2="1262" y1="317.2266" y2="317.2266"/><text fill="#000000" font-family="sans-serif" font-size="13" font-weight="bold" lengthAdjust="spacing" textLength="9" x="1055" y="312.1606">7</text><text fill="#000000" font-family="sans-serif" font-size="13" lengthAdjust="spacing" textLength="100" x="1068" y="312.1606">toModel(vtDtO)</text><polygon fill="#181818" points="1494,342.3594,1504,346.3594,1494,350.3594,1498,346.3594" style="stroke:#181818;stroke-width:1.0;"/><line style="stroke:#181818;stroke-width:1.0;" x1="1278" x2="1500" y1="346.3594" y2="346.3594"/><text fill="#000000" font-family="sans-serif" font-size="13" font-weight="bold" lengthAdjust="spacing" textLength="9" x="1285" y="341.2935">8</text><text fill="#000000" font-family="sans-serif" font-size="13" lengthAdjust="spacing" textLength="114" x="1298" y="341.2935">code = getCode()</text><polygon fill="#181818" points="1494,401.4922,1504,405.4922,1494,409.4922,1498,405.4922" style="stroke:#181818;stroke-width:1.0;"/><line style="stroke:#181818;stroke-width:1.0;" x1="1278" x2="1500" y1="405.4922" y2="405.4922"/><text fill="#000000" font-family="sans-serif" font-size="13" font-weight="bold" lengthAdjust="spacing" textLength="9" x="1285" y="400.4263">9</text><text fill="#000000" font-family="sans-serif" font-size="13" lengthAdjust="spacing" textLength="196" x="1298" y="400.4263">description = getDescription()</text><polygon fill="#181818" points="1610,460.625,1620,464.625,1610,468.625,1614,464.625" style="stroke:#181818;stroke-width:1.0;"/><line style="stroke:#181818;stroke-width:1.0;stroke-dasharray:2.0,2.0;" x1="1273" x2="1616" y1="464.625" y2="464.625"/><text fill="#000000" font-family="sans-serif" font-size="13" font-weight="bold" lengthAdjust="spacing" textLength="18" x="1280" y="459.5591">10</text><text fill="#000000" font-family="sans-serif" font-size="13" lengthAdjust="spacing" textLength="298" x="1302" y="459.5591">create(code, designation, vaccineDescription)</text><rect fill="#E2E2F0" height="30.2969" rx="2.5" ry="2.5" style="stroke:#181818;stroke-width:0.5;" width="128" x="1622" y="443.4922"/><text fill="#000000" font-family="sans-serif" font-size="14" lengthAdjust="spacing" textLength="114" x="1629" y="463.4873">vt: VaccineType</text><polygon fill="#181818" points="1026,501.9219,1036,505.9219,1026,509.9219,1030,505.9219" style="stroke:#181818;stroke-width:1.0;"/><line style="stroke:#181818;stroke-width:1.0;" x1="705" x2="1032" y1="505.9219" y2="505.9219"/><text fill="#000000" font-family="sans-serif" font-size="13" font-weight="bold" lengthAdjust="spacing" textLength="18" x="712" y="500.856">11</text><text fill="#000000" font-family="sans-serif" font-size="13" lengthAdjust="spacing" textLength="159" x="734" y="500.856">validateVaccineType(vt)</text><polygon fill="#181818" points="72.5,561.0547,62.5,565.0547,72.5,569.0547,68.5,565.0547" style="stroke:#181818;stroke-width:1.0;"/><line style="stroke:#181818;stroke-width:1.0;stroke-dasharray:2.0,2.0;" x1="66.5" x2="453.5" y1="565.0547" y2="565.0547"/><text fill="#000000" font-family="sans-serif" font-size="13" font-weight="bold" lengthAdjust="spacing" textLength="18" x="78.5" y="559.9888">12</text><text fill="#000000" font-family="sans-serif" font-size="13" lengthAdjust="spacing" textLength="286" x="100.5" y="559.9888">shows the data and requests a confirmation</text><polygon fill="#181818" points="437.5,590.1875,447.5,594.1875,437.5,598.1875,441.5,594.1875" style="stroke:#181818;stroke-width:1.0;"/><line style="stroke:#181818;stroke-width:1.0;" x1="61.5" x2="443.5" y1="594.1875" y2="594.1875"/><text fill="#000000" font-family="sans-serif" font-size="13" font-weight="bold" lengthAdjust="spacing" textLength="18" x="68.5" y="589.1216">13</text><text fill="#000000" font-family="sans-serif" font-size="13" lengthAdjust="spacing" textLength="115" x="90.5" y="589.1216">confirms the data</text><polygon fill="#181818" points="683,619.3203,693,623.3203,683,627.3203,687,623.3203" style="stroke:#181818;stroke-width:1.0;"/><line style="stroke:#181818;stroke-width:1.0;" x1="459.5" x2="689" y1="623.3203" y2="623.3203"/><text fill="#000000" font-family="sans-serif" font-size="13" font-weight="bold" lengthAdjust="spacing" textLength="18" x="466.5" y="618.2544">14</text><text fill="#000000" font-family="sans-serif" font-size="13" lengthAdjust="spacing" textLength="124" x="488.5" y="618.2544">saveVaccineType()</text><polygon fill="#181818" points="1026,648.4531,1036,652.4531,1026,656.4531,1030,652.4531" style="stroke:#181818;stroke-width:1.0;"/><line style="stroke:#181818;stroke-width:1.0;" x1="705" x2="1032" y1="652.4531" y2="652.4531"/><text fill="#000000" font-family="sans-serif" font-size="13" font-weight="bold" lengthAdjust="spacing" textLength="18" x="712" y="647.3872">15</text><text fill="#000000" font-family="sans-serif" font-size="13" lengthAdjust="spacing" textLength="137" x="734" y="647.3872">saveVaccineType(vt)</text><line style="stroke:#181818;stroke-width:1.0;" x1="1053" x2="1095" y1="681.5859" y2="681.5859"/><line style="stroke:#181818;stroke-width:1.0;" x1="1095" x2="1095" y1="681.5859" y2="694.5859"/><line style="stroke:#181818;stroke-width:1.0;" x1="1054" x2="1095" y1="694.5859" y2="694.5859"/><polygon fill="#181818" points="1064,690.5859,1054,694.5859,1064,698.5859,1060,694.5859" style="stroke:#181818;stroke-width:1.0;"/><text fill="#000000" font-family="sans-serif" font-size="13" font-weight="bold" lengthAdjust="spacing" textLength="18" x="1060" y="676.52">16</text><text fill="#000000" font-family="sans-serif" font-size="13" lengthAdjust="spacing" textLength="159" x="1082" y="676.52">validateVaccineType(vt)</text><line style="stroke:#181818;stroke-width:1.0;" x1="1053" x2="1095" y1="753.7188" y2="753.7188"/><line style="stroke:#181818;stroke-width:1.0;" x1="1095" x2="1095" y1="753.7188" y2="766.7188"/><line style="stroke:#181818;stroke-width:1.0;" x1="1054" x2="1095" y1="766.7188" y2="766.7188"/><polygon fill="#181818" points="1064,762.7188,1054,766.7188,1064,770.7188,1060,766.7188" style="stroke:#181818;stroke-width:1.0;"/><text fill="#000000" font-family="sans-serif" font-size="13" font-weight="bold" lengthAdjust="spacing" textLength="18" x="1060" y="748.6528">17</text><text fill="#000000" font-family="sans-serif" font-size="13" lengthAdjust="spacing" textLength="130" x="1082" y="748.6528">addVaccineType(vt)</text><polygon fill="#181818" points="67.5,821.8516,57.5,825.8516,67.5,829.8516,63.5,825.8516" style="stroke:#181818;stroke-width:1.0;"/><line style="stroke:#181818;stroke-width:1.0;stroke-dasharray:2.0,2.0;" x1="61.5" x2="453.5" y1="825.8516" y2="825.8516"/><text fill="#000000" font-family="sans-serif" font-size="13" font-weight="bold" lengthAdjust="spacing" textLength="18" x="73.5" y="820.7856">18</text><text fill="#000000" font-family="sans-serif" font-size="13" lengthAdjust="spacing" textLength="188" x="95.5" y="820.7856">informs of operation success</text><!--MD5=[176a4d860a207cffb5aa9b27ac73b43a]
@startuml
autonumber
'hide footbox
actor "Administrator" as ADM

participant ":SpecifyNewVaccineTypeUI" as UI
participant ":SpecifyNewVaccineTypeController" as CTRL
participant "Company" as CMP
participant "vtStore: VaccineTypeStore" as STORE_VT
participant "vtMapper: VaccineTypeMapper" as MP
participant "vtDto: VaccineTypeDto" as DTO
participant "vt: VaccineType" as VT

activate ADM
ADM -> UI : starts specifying a new vaccine type
activate UI
UI - -> ADM : requests data (code, designation, vaccineTechnology)
deactivate UI

ADM -> UI : types requested data
activate UI

UI -> CTRL : createVaccineType(vtDto)
activate CTRL
CTRL -> CMP : vtStore = getVTStore()
activate CMP
deactivate CMP

CTRL -> STORE_VT : vt = createVaccineType(vtDto)
activate STORE_VT
STORE_VT -> MP : toModel(vtDtO)
activate MP

MP -> DTO : code = getCode()
activate DTO
deactivate DTO
MP -> DTO : description = getDescription()
activate DTO
deactivate DTO
MP - -> VT** : create(code, designation, vaccineDescription)
deactivate MP
deactivate STORE_VT

CTRL -> STORE_VT : validateVaccineType(vt)
activate STORE_VT
deactivate STORE_VT
deactivate CTRL

UI - -> ADM : shows the data and requests a confirmation
deactivate UI

ADM -> UI : confirms the data
activate UI
UI -> CTRL : saveVaccineType()
activate CTRL
CTRL -> STORE_VT : saveVaccineType(vt)
activate STORE_VT
STORE_VT -> STORE_VT : validateVaccineType(vt)
activate STORE_VT
deactivate STORE_VT
STORE_VT -> STORE_VT : addVaccineType(vt)
activate STORE_VT
deactivate STORE_VT
deactivate STORE_VT
UI - -> ADM : informs of operation success
deactivate UI
deactivate ADM

@enduml

@startuml
autonumber
actor "Administrator" as ADM

participant ":SpecifyNewVaccineTypeUI" as UI
participant ":SpecifyNewVaccineTypeController" as CTRL
participant "Company" as CMP
participant "vtStore: VaccineTypeStore" as STORE_VT
participant "vtMapper: VaccineTypeMapper" as MP
participant "vtDto: VaccineTypeDto" as DTO
participant "vt: VaccineType" as VT

activate ADM
ADM -> UI : starts specifying a new vaccine type
activate UI
UI - -> ADM : requests data (code, designation, vaccineTechnology)
deactivate UI

ADM -> UI : types requested data
activate UI

UI -> CTRL : createVaccineType(vtDto)
activate CTRL
CTRL -> CMP : vtStore = getVTStore()
activate CMP
deactivate CMP

CTRL -> STORE_VT : vt = createVaccineType(vtDto)
activate STORE_VT
STORE_VT -> MP : toModel(vtDtO)
activate MP

MP -> DTO : code = getCode()
activate DTO
deactivate DTO
MP -> DTO : description = getDescription()
activate DTO
deactivate DTO
MP - -> VT** : create(code, designation, vaccineDescription)
deactivate MP
deactivate STORE_VT

CTRL -> STORE_VT : validateVaccineType(vt)
activate STORE_VT
deactivate STORE_VT
deactivate CTRL

UI - -> ADM : shows the data and requests a confirmation
deactivate UI

ADM -> UI : confirms the data
activate UI
UI -> CTRL : saveVaccineType()
activate CTRL
CTRL -> STORE_VT : saveVaccineType(vt)
activate STORE_VT
STORE_VT -> STORE_VT : validateVaccineType(vt)
activate STORE_VT
deactivate STORE_VT
STORE_VT -> STORE_VT : addVaccineType(vt)
activate STORE_VT
deactivate STORE_VT
deactivate STORE_VT
UI - -> ADM : informs of operation success
deactivate UI
deactivate ADM

@enduml

PlantUML version 1.2022.4(Sat Apr 09 14:29:17 WEST 2022)
(GPL source distribution)
Java Runtime: OpenJDK Runtime Environment
JVM: OpenJDK 64-Bit Server VM
Default Encoding: UTF-8
Language: en
Country: US
--></g></svg>