<?xml version="1.0" encoding="UTF-8" standalone="no"?><svg xmlns="http://www.w3.org/2000/svg" xmlns:xlink="http://www.w3.org/1999/xlink" contentStyleType="text/css" height="562px" preserveAspectRatio="none" style="width:611px;height:562px;background:#FFFFFF;" version="1.1" viewBox="0 0 611 562" width="611px" zoomAndPan="magnify"><defs/><g><!--MD5=[7421f545a0d8420c5bec41e74b387d9c]
class Employee--><g id="elem_Employee"><rect codeLine="4" fill="#F1F1F1" height="40" id="Employee" rx="2.5" ry="2.5" style="stroke:#181818;stroke-width:0.5;" width="94" x="292" y="7"/><ellipse cx="307" cy="23" fill="#ADD1B2" rx="11" ry="11" style="stroke:#181818;stroke-width:1.0;"/><path d="M309,19.5 Q309.2031,19 309.4375,18.75 Q309.6719,18.5 309.9375,18.5 Q310.4063,18.5 310.7031,18.7813 Q311,19.0625 311,19.7188 L311,21.2813 Q311,21.9375 310.7188,22.2188 Q310.4375,22.5 310,22.5 Q309.6094,22.5 309.3594,22.3281 Q309.1094,22.1563 309,21.7031 Q308.9531,21.3906 308.7813,21.2188 Q308.4688,20.8906 307.9063,20.7031 Q307.3438,20.5 306.7813,20.5 Q306.0781,20.5 305.4844,20.7813 Q304.9063,21.0625 304.4531,21.6875 Q304,22.3125 304,23.1719 L304,24.0938 Q304,25.125 304.8438,25.8125 Q305.6875,26.5 307.1875,26.5 Q308.0781,26.5 308.7031,26.2969 Q309.0625,26.1875 309.4688,25.8281 Q309.7344,25.625 309.875,25.5625 Q310.0156,25.5 310.1875,25.5 Q310.5156,25.5 310.75,25.7656 Q311,26.0156 311,26.375 Q311,26.7188 310.6563,27.125 Q310.1563,27.7188 309.3594,28.0469 Q308.3125,28.5 307.0313,28.5 Q305.5313,28.5 304.3281,27.9063 Q303.3594,27.4375 302.6719,26.4219 Q302,25.4063 302,24.2031 L302,23.1094 Q302,21.8594 302.5938,20.7656 Q303.2031,19.6719 304.25,19.0938 Q305.3125,18.5 306.5,18.5 Q307.2188,18.5 307.8438,18.75 Q308.4688,19 309,19.5 Z " fill="#000000"/><text fill="#000000" font-family="sans-serif" font-size="14" lengthAdjust="spacing" textLength="62" x="321" y="28.7285">Employee</text><line style="stroke:#181818;stroke-width:0.5;" x1="293" x2="385" y1="39" y2="39"/></g><!--MD5=[72be06cc7ae02ccc98efe28a50e62246]
class SNSUser--><g id="elem_SNSUser"><rect codeLine="7" fill="#F1F1F1" height="40" id="SNSUser" rx="2.5" ry="2.5" style="stroke:#181818;stroke-width:0.5;" width="88" x="7" y="515"/><ellipse cx="22" cy="531" fill="#ADD1B2" rx="11" ry="11" style="stroke:#181818;stroke-width:1.0;"/><path d="M24,527.5 Q24.2031,527 24.4375,526.75 Q24.6719,526.5 24.9375,526.5 Q25.4063,526.5 25.7031,526.7813 Q26,527.0625 26,527.7188 L26,529.2813 Q26,529.9375 25.7188,530.2188 Q25.4375,530.5 25,530.5 Q24.6094,530.5 24.3594,530.3281 Q24.1094,530.1563 24,529.7031 Q23.9531,529.3906 23.7813,529.2188 Q23.4688,528.8906 22.9063,528.7031 Q22.3438,528.5 21.7813,528.5 Q21.0781,528.5 20.4844,528.7813 Q19.9063,529.0625 19.4531,529.6875 Q19,530.3125 19,531.1719 L19,532.0938 Q19,533.125 19.8438,533.8125 Q20.6875,534.5 22.1875,534.5 Q23.0781,534.5 23.7031,534.2969 Q24.0625,534.1875 24.4688,533.8281 Q24.7344,533.625 24.875,533.5625 Q25.0156,533.5 25.1875,533.5 Q25.5156,533.5 25.75,533.7656 Q26,534.0156 26,534.375 Q26,534.7188 25.6563,535.125 Q25.1563,535.7188 24.3594,536.0469 Q23.3125,536.5 22.0313,536.5 Q20.5313,536.5 19.3281,535.9063 Q18.3594,535.4375 17.6719,534.4219 Q17,533.4063 17,532.2031 L17,531.1094 Q17,529.8594 17.5938,528.7656 Q18.2031,527.6719 19.25,527.0938 Q20.3125,526.5 21.5,526.5 Q22.2188,526.5 22.8438,526.75 Q23.4688,527 24,527.5 Z " fill="#000000"/><text fill="#000000" font-family="sans-serif" font-size="14" lengthAdjust="spacing" textLength="56" x="36" y="536.7285">SNSUser</text><line style="stroke:#181818;stroke-width:0.5;" x1="8" x2="94" y1="547" y2="547"/></g><!--MD5=[c508b5b6bbe276ff5e2700b6641f837f]
class Appointment--><g id="elem_Appointment"><rect codeLine="10" fill="#F1F1F1" height="92.8281" id="Appointment" rx="2.5" ry="2.5" style="stroke:#181818;stroke-width:0.5;" width="111" x="103.5" y="344"/><ellipse cx="118.5" cy="360" fill="#ADD1B2" rx="11" ry="11" style="stroke:#181818;stroke-width:1.0;"/><path d="M120.5,356.5 Q120.7031,356 120.9375,355.75 Q121.1719,355.5 121.4375,355.5 Q121.9063,355.5 122.2031,355.7813 Q122.5,356.0625 122.5,356.7188 L122.5,358.2813 Q122.5,358.9375 122.2188,359.2188 Q121.9375,359.5 121.5,359.5 Q121.1094,359.5 120.8594,359.3281 Q120.6094,359.1563 120.5,358.7031 Q120.4531,358.3906 120.2813,358.2188 Q119.9688,357.8906 119.4063,357.7031 Q118.8438,357.5 118.2813,357.5 Q117.5781,357.5 116.9844,357.7813 Q116.4063,358.0625 115.9531,358.6875 Q115.5,359.3125 115.5,360.1719 L115.5,361.0938 Q115.5,362.125 116.3438,362.8125 Q117.1875,363.5 118.6875,363.5 Q119.5781,363.5 120.2031,363.2969 Q120.5625,363.1875 120.9688,362.8281 Q121.2344,362.625 121.375,362.5625 Q121.5156,362.5 121.6875,362.5 Q122.0156,362.5 122.25,362.7656 Q122.5,363.0156 122.5,363.375 Q122.5,363.7188 122.1563,364.125 Q121.6563,364.7188 120.8594,365.0469 Q119.8125,365.5 118.5313,365.5 Q117.0313,365.5 115.8281,364.9063 Q114.8594,364.4375 114.1719,363.4219 Q113.5,362.4063 113.5,361.2031 L113.5,360.1094 Q113.5,358.8594 114.0938,357.7656 Q114.7031,356.6719 115.75,356.0938 Q116.8125,355.5 118,355.5 Q118.7188,355.5 119.3438,355.75 Q119.9688,356 120.5,356.5 Z " fill="#000000"/><text fill="#000000" font-family="sans-serif" font-size="14" lengthAdjust="spacing" textLength="79" x="132.5" y="365.7285">Appointment</text><line style="stroke:#181818;stroke-width:0.5;" x1="104.5" x2="213.5" y1="376" y2="376"/><text fill="#000000" font-family="sans-serif" font-size="14" lengthAdjust="spacing" textLength="33" x="109.5" y="394.5332">-date</text><text fill="#000000" font-family="sans-serif" font-size="14" lengthAdjust="spacing" textLength="31" x="109.5" y="412.1426">-time</text><text fill="#000000" font-family="sans-serif" font-size="14" lengthAdjust="spacing" textLength="36" x="109.5" y="429.752">-state</text></g><!--MD5=[a059576e163b46f56762f12600c49258]
class Nurse--><g id="elem_Nurse"><rect codeLine="16" fill="#F1F1F1" height="40" id="Nurse" rx="2.5" ry="2.5" style="stroke:#181818;stroke-width:0.5;" width="69" x="252.5" y="108"/><ellipse cx="267.5" cy="124" fill="#ADD1B2" rx="11" ry="11" style="stroke:#181818;stroke-width:1.0;"/><path d="M269.5,120.5 Q269.7031,120 269.9375,119.75 Q270.1719,119.5 270.4375,119.5 Q270.9063,119.5 271.2031,119.7813 Q271.5,120.0625 271.5,120.7188 L271.5,122.2813 Q271.5,122.9375 271.2188,123.2188 Q270.9375,123.5 270.5,123.5 Q270.1094,123.5 269.8594,123.3281 Q269.6094,123.1563 269.5,122.7031 Q269.4531,122.3906 269.2813,122.2188 Q268.9688,121.8906 268.4063,121.7031 Q267.8438,121.5 267.2813,121.5 Q266.5781,121.5 265.9844,121.7813 Q265.4063,122.0625 264.9531,122.6875 Q264.5,123.3125 264.5,124.1719 L264.5,125.0938 Q264.5,126.125 265.3438,126.8125 Q266.1875,127.5 267.6875,127.5 Q268.5781,127.5 269.2031,127.2969 Q269.5625,127.1875 269.9688,126.8281 Q270.2344,126.625 270.375,126.5625 Q270.5156,126.5 270.6875,126.5 Q271.0156,126.5 271.25,126.7656 Q271.5,127.0156 271.5,127.375 Q271.5,127.7188 271.1563,128.125 Q270.6563,128.7188 269.8594,129.0469 Q268.8125,129.5 267.5313,129.5 Q266.0313,129.5 264.8281,128.9063 Q263.8594,128.4375 263.1719,127.4219 Q262.5,126.4063 262.5,125.2031 L262.5,124.1094 Q262.5,122.8594 263.0938,121.7656 Q263.7031,120.6719 264.75,120.0938 Q265.8125,119.5 267,119.5 Q267.7188,119.5 268.3438,119.75 Q268.9688,120 269.5,120.5 Z " fill="#000000"/><text fill="#000000" font-family="sans-serif" font-size="14" lengthAdjust="spacing" textLength="37" x="281.5" y="129.7285">Nurse</text><line style="stroke:#181818;stroke-width:0.5;" x1="253.5" x2="320.5" y1="140" y2="140"/></g><!--MD5=[de60e6d4f424ae4d0522096f76a59010]
class VaccinationCenter--><g id="elem_VaccinationCenter"><rect codeLine="19" fill="#F1F1F1" height="40" id="VaccinationCenter" rx="2.5" ry="2.5" style="stroke:#181818;stroke-width:0.5;" width="148" x="266" y="226"/><ellipse cx="281" cy="242" fill="#ADD1B2" rx="11" ry="11" style="stroke:#181818;stroke-width:1.0;"/><path d="M283,238.5 Q283.2031,238 283.4375,237.75 Q283.6719,237.5 283.9375,237.5 Q284.4063,237.5 284.7031,237.7813 Q285,238.0625 285,238.7188 L285,240.2813 Q285,240.9375 284.7188,241.2188 Q284.4375,241.5 284,241.5 Q283.6094,241.5 283.3594,241.3281 Q283.1094,241.1563 283,240.7031 Q282.9531,240.3906 282.7813,240.2188 Q282.4688,239.8906 281.9063,239.7031 Q281.3438,239.5 280.7813,239.5 Q280.0781,239.5 279.4844,239.7813 Q278.9063,240.0625 278.4531,240.6875 Q278,241.3125 278,242.1719 L278,243.0938 Q278,244.125 278.8438,244.8125 Q279.6875,245.5 281.1875,245.5 Q282.0781,245.5 282.7031,245.2969 Q283.0625,245.1875 283.4688,244.8281 Q283.7344,244.625 283.875,244.5625 Q284.0156,244.5 284.1875,244.5 Q284.5156,244.5 284.75,244.7656 Q285,245.0156 285,245.375 Q285,245.7188 284.6563,246.125 Q284.1563,246.7188 283.3594,247.0469 Q282.3125,247.5 281.0313,247.5 Q279.5313,247.5 278.3281,246.9063 Q277.3594,246.4375 276.6719,245.4219 Q276,244.4063 276,243.2031 L276,242.1094 Q276,240.8594 276.5938,239.7656 Q277.2031,238.6719 278.25,238.0938 Q279.3125,237.5 280.5,237.5 Q281.2188,237.5 281.8438,237.75 Q282.4688,238 283,238.5 Z " fill="#000000"/><text fill="#000000" font-family="sans-serif" font-size="14" lengthAdjust="spacing" textLength="116" x="295" y="247.7285">VaccinationCenter</text><line style="stroke:#181818;stroke-width:0.5;" x1="267" x2="413" y1="258" y2="258"/></g><!--MD5=[76480a6701b5d2883bc606a2560c3cfe]
class MassVaccinationCenter--><g id="elem_MassVaccinationCenter"><rect codeLine="22" fill="#F1F1F1" height="40" id="MassVaccinationCenter" rx="2.5" ry="2.5" style="stroke:#181818;stroke-width:0.5;" width="181" x="249.5" y="370.5"/><ellipse cx="264.5" cy="386.5" fill="#ADD1B2" rx="11" ry="11" style="stroke:#181818;stroke-width:1.0;"/><path d="M266.5,383 Q266.7031,382.5 266.9375,382.25 Q267.1719,382 267.4375,382 Q267.9063,382 268.2031,382.2813 Q268.5,382.5625 268.5,383.2188 L268.5,384.7813 Q268.5,385.4375 268.2188,385.7188 Q267.9375,386 267.5,386 Q267.1094,386 266.8594,385.8281 Q266.6094,385.6563 266.5,385.2031 Q266.4531,384.8906 266.2813,384.7188 Q265.9688,384.3906 265.4063,384.2031 Q264.8438,384 264.2813,384 Q263.5781,384 262.9844,384.2813 Q262.4063,384.5625 261.9531,385.1875 Q261.5,385.8125 261.5,386.6719 L261.5,387.5938 Q261.5,388.625 262.3438,389.3125 Q263.1875,390 264.6875,390 Q265.5781,390 266.2031,389.7969 Q266.5625,389.6875 266.9688,389.3281 Q267.2344,389.125 267.375,389.0625 Q267.5156,389 267.6875,389 Q268.0156,389 268.25,389.2656 Q268.5,389.5156 268.5,389.875 Q268.5,390.2188 268.1563,390.625 Q267.6563,391.2188 266.8594,391.5469 Q265.8125,392 264.5313,392 Q263.0313,392 261.8281,391.4063 Q260.8594,390.9375 260.1719,389.9219 Q259.5,388.9063 259.5,387.7031 L259.5,386.6094 Q259.5,385.3594 260.0938,384.2656 Q260.7031,383.1719 261.75,382.5938 Q262.8125,382 264,382 Q264.7188,382 265.3438,382.25 Q265.9688,382.5 266.5,383 Z " fill="#000000"/><text fill="#000000" font-family="sans-serif" font-size="14" lengthAdjust="spacing" textLength="149" x="278.5" y="392.2285">MassVaccinationCenter</text><line style="stroke:#181818;stroke-width:0.5;" x1="250.5" x2="429.5" y1="402.5" y2="402.5"/></g><!--MD5=[7ba163b5644764a8faad5316256675c4]
class HealhcareCenter--><g id="elem_HealhcareCenter"><rect codeLine="25" fill="#F1F1F1" height="40" id="HealhcareCenter" rx="2.5" ry="2.5" style="stroke:#181818;stroke-width:0.5;" width="139" x="465.5" y="370.5"/><ellipse cx="480.5" cy="386.5" fill="#ADD1B2" rx="11" ry="11" style="stroke:#181818;stroke-width:1.0;"/><path d="M482.5,383 Q482.7031,382.5 482.9375,382.25 Q483.1719,382 483.4375,382 Q483.9063,382 484.2031,382.2813 Q484.5,382.5625 484.5,383.2188 L484.5,384.7813 Q484.5,385.4375 484.2188,385.7188 Q483.9375,386 483.5,386 Q483.1094,386 482.8594,385.8281 Q482.6094,385.6563 482.5,385.2031 Q482.4531,384.8906 482.2813,384.7188 Q481.9688,384.3906 481.4063,384.2031 Q480.8438,384 480.2813,384 Q479.5781,384 478.9844,384.2813 Q478.4063,384.5625 477.9531,385.1875 Q477.5,385.8125 477.5,386.6719 L477.5,387.5938 Q477.5,388.625 478.3438,389.3125 Q479.1875,390 480.6875,390 Q481.5781,390 482.2031,389.7969 Q482.5625,389.6875 482.9688,389.3281 Q483.2344,389.125 483.375,389.0625 Q483.5156,389 483.6875,389 Q484.0156,389 484.25,389.2656 Q484.5,389.5156 484.5,389.875 Q484.5,390.2188 484.1563,390.625 Q483.6563,391.2188 482.8594,391.5469 Q481.8125,392 480.5313,392 Q479.0313,392 477.8281,391.4063 Q476.8594,390.9375 476.1719,389.9219 Q475.5,388.9063 475.5,387.7031 L475.5,386.6094 Q475.5,385.3594 476.0938,384.2656 Q476.7031,383.1719 477.75,382.5938 Q478.8125,382 480,382 Q480.7188,382 481.3438,382.25 Q481.9688,382.5 482.5,383 Z " fill="#000000"/><text fill="#000000" font-family="sans-serif" font-size="14" lengthAdjust="spacing" textLength="107" x="494.5" y="392.2285">HealhcareCenter</text><line style="stroke:#181818;stroke-width:0.5;" x1="466.5" x2="603.5" y1="402.5" y2="402.5"/></g><!--MD5=[0e501da62322464167c8ec4d233a6b7e]
class VaccineType--><g id="elem_VaccineType"><rect codeLine="28" fill="#F1F1F1" height="40" id="VaccineType" rx="2.5" ry="2.5" style="stroke:#181818;stroke-width:0.5;" width="114" x="206" y="515"/><ellipse cx="221" cy="531" fill="#ADD1B2" rx="11" ry="11" style="stroke:#181818;stroke-width:1.0;"/><path d="M223,527.5 Q223.2031,527 223.4375,526.75 Q223.6719,526.5 223.9375,526.5 Q224.4063,526.5 224.7031,526.7813 Q225,527.0625 225,527.7188 L225,529.2813 Q225,529.9375 224.7188,530.2188 Q224.4375,530.5 224,530.5 Q223.6094,530.5 223.3594,530.3281 Q223.1094,530.1563 223,529.7031 Q222.9531,529.3906 222.7813,529.2188 Q222.4688,528.8906 221.9063,528.7031 Q221.3438,528.5 220.7813,528.5 Q220.0781,528.5 219.4844,528.7813 Q218.9063,529.0625 218.4531,529.6875 Q218,530.3125 218,531.1719 L218,532.0938 Q218,533.125 218.8438,533.8125 Q219.6875,534.5 221.1875,534.5 Q222.0781,534.5 222.7031,534.2969 Q223.0625,534.1875 223.4688,533.8281 Q223.7344,533.625 223.875,533.5625 Q224.0156,533.5 224.1875,533.5 Q224.5156,533.5 224.75,533.7656 Q225,534.0156 225,534.375 Q225,534.7188 224.6563,535.125 Q224.1563,535.7188 223.3594,536.0469 Q222.3125,536.5 221.0313,536.5 Q219.5313,536.5 218.3281,535.9063 Q217.3594,535.4375 216.6719,534.4219 Q216,533.4063 216,532.2031 L216,531.1094 Q216,529.8594 216.5938,528.7656 Q217.2031,527.6719 218.25,527.0938 Q219.3125,526.5 220.5,526.5 Q221.2188,526.5 221.8438,526.75 Q222.4688,527 223,527.5 Z " fill="#000000"/><text fill="#000000" font-family="sans-serif" font-size="14" lengthAdjust="spacing" textLength="82" x="235" y="536.7285">VaccineType</text><line style="stroke:#181818;stroke-width:0.5;" x1="207" x2="319" y1="547" y2="547"/></g><!--MD5=[6716344a46572fc99c27bf4e50ddbd3d]
reverse link Employee to Nurse--><g id="link_Employee_Nurse"><path d="M319.59,64.96 C311.9,79.59 303.39,95.79 297,107.97 " fill="none" id="Employee-backto-Nurse" style="stroke:#181818;stroke-width:1.0;"/><polygon fill="none" points="313.48,61.54,328.97,47.09,325.87,68.05,313.48,61.54" style="stroke:#181818;stroke-width:1.0;"/></g><!--MD5=[a09fc339ad85d4e67aa3195beeccb7d9]
reverse link VaccinationCenter to MassVaccinationCenter--><g id="link_VaccinationCenter_MassVaccinationCenter"><path d="M340,286.39 C340,313.63 340,348.71 340,370.13 " fill="none" id="VaccinationCenter-backto-MassVaccinationCenter" style="stroke:#181818;stroke-width:1.0;"/><polygon fill="none" points="333,286.22,340,266.22,347,286.22,333,286.22" style="stroke:#181818;stroke-width:1.0;"/></g><!--MD5=[9b3ce0d3565e9c95ef2f2596c52ef0a2]
reverse link VaccinationCenter to HealhcareCenter--><g id="link_VaccinationCenter_HealhcareCenter"><path d="M382.64,278.16 C421.12,306.28 476.49,346.75 508.81,370.36 " fill="none" id="VaccinationCenter-backto-HealhcareCenter" style="stroke:#181818;stroke-width:1.0;"/><polygon fill="none" points="378.32,283.67,366.3,266.22,386.58,272.37,378.32,283.67" style="stroke:#181818;stroke-width:1.0;"/></g><!--MD5=[19ab43ca298c1d9fd9821023da273d0e]
link Appointment to SNSUser--><g id="link_Appointment_SNSUser"><path codeLine="31" d="M103.43,428.2 C90.17,439.28 77.21,452.42 68,467 C58.84,481.51 54.61,500.71 52.66,514.84 " fill="none" id="Appointment-SNSUser" style="stroke:#181818;stroke-width:1.0;"/><polygon fill="#000000" points="70.4721,480.4897,77.5808,474.1716,72.5095,471.1999,70.4721,480.4897" style="stroke:#000000;stroke-width:1.0;"/><text fill="#000000" font-family="sans-serif" font-size="13" lengthAdjust="spacing" textLength="75" x="82" y="481.4951">requested by</text><text fill="#000000" font-family="sans-serif" font-size="13" lengthAdjust="spacing" textLength="5" x="90.6268" y="429.7212">*</text><text fill="#000000" font-family="sans-serif" font-size="13" lengthAdjust="spacing" textLength="7" x="45.1195" y="504.1148">1</text></g><!--MD5=[f17e71def2e220f6a6398972244b7dbb]
link VaccinationCenter to Appointment--><g id="link_VaccinationCenter_Appointment"><path codeLine="32" d="M315.59,266.22 C289.83,286.5 248.35,319.16 214.55,345.76 " fill="none" id="VaccinationCenter-Appointment" style="stroke:#181818;stroke-width:1.0;"/><polygon fill="#000000" points="278.0713,308.2685,286.9963,304.9829,283.3605,300.3644,278.0713,308.2685" style="stroke:#000000;stroke-width:1.0;"/><text fill="#000000" font-family="sans-serif" font-size="13" lengthAdjust="spacing" textLength="21" x="291" y="310.4951">has</text><text fill="#000000" font-family="sans-serif" font-size="13" lengthAdjust="spacing" textLength="7" x="301.0892" y="287.3465">1</text><text fill="#000000" font-family="sans-serif" font-size="13" lengthAdjust="spacing" textLength="5" x="222.3505" y="336.2033">*</text></g><!--MD5=[03efd8c9f90c050219bacdb83332548b]
link Nurse to VaccinationCenter--><g id="link_Nurse_VaccinationCenter"><path codeLine="33" d="M287.82,148.27 C289.02,162.11 291.95,180.9 299,196 C304.07,206.85 312.16,217.27 319.82,225.69 " fill="none" id="Nurse-VaccinationCenter" style="stroke:#181818;stroke-width:1.0;"/><polygon fill="#000000" points="305.9099,191.7966,305.1709,182.3148,299.7388,184.5601,305.9099,191.7966" style="stroke:#000000;stroke-width:1.0;"/><text fill="#000000" font-family="sans-serif" font-size="13" lengthAdjust="spacing" textLength="52" x="313" y="192.4951">works for</text><text fill="#000000" font-family="sans-serif" font-size="13" lengthAdjust="spacing" textLength="5" x="282.3685" y="169.4099">*</text><text fill="#000000" font-family="sans-serif" font-size="13" lengthAdjust="spacing" textLength="7" x="306.16" y="215.2724">1</text></g><!--MD5=[3af9b243ae086bf42bab31ca3fbd1ee2]
link VaccinationCenter to Employee--><g id="link_VaccinationCenter_Employee"><path codeLine="34" d="M355.24,225.67 C361.07,217.09 367.02,206.56 370,196 C384.92,143.05 361.94,78.62 348.15,47.16 " fill="none" id="VaccinationCenter-Employee" style="stroke:#181818;stroke-width:1.0;"/><polygon fill="#000000" points="380.1984,133.1718,382.7761,124.0172,376.9029,124.2505,380.1984,133.1718" style="stroke:#000000;stroke-width:1.0;"/><text fill="#000000" font-family="sans-serif" font-size="13" lengthAdjust="spacing" textLength="90" x="389" y="133.4951">associated with</text><text fill="#000000" font-family="sans-serif" font-size="13" lengthAdjust="spacing" textLength="7" x="351.5419" y="215.2467">1</text><text fill="#000000" font-family="sans-serif" font-size="13" lengthAdjust="spacing" textLength="5" x="345.0203" y="68.6246">*</text></g><!--MD5=[d63168792e55d79de1fe85cd885704ff]
link Appointment to VaccineType--><g id="link_Appointment_VaccineType"><path codeLine="35" d="M158.28,437.41 C160.01,453.66 164.35,471.29 174,485 C182.93,497.69 196.24,507.45 209.86,514.79 " fill="none" id="Appointment-VaccineType" style="stroke:#181818;stroke-width:1.0;"/><polygon fill="#000000" points="181.7733,480.3362,179.2018,471.1799,174.311,474.44,181.7733,480.3362" style="stroke:#000000;stroke-width:1.0;"/><text fill="#000000" font-family="sans-serif" font-size="13" lengthAdjust="spacing" textLength="104" x="188" y="481.4951">is associated with</text><text fill="#000000" font-family="sans-serif" font-size="13" lengthAdjust="spacing" textLength="5" x="152.8473" y="458.3188">*</text><text fill="#000000" font-family="sans-serif" font-size="13" lengthAdjust="spacing" textLength="7" x="191.178" y="506.5031">1</text></g><!--MD5=[621e86b706bec9720bc9ed1d445091d9]
link MassVaccinationCenter to VaccineType--><g id="link_MassVaccinationCenter_VaccineType"><path codeLine="36" d="M333.64,410.83 C326.86,430.24 315.16,460.68 301,485 C294.93,495.42 286.9,506.1 279.78,514.82 " fill="none" id="MassVaccinationCenter-VaccineType" style="stroke:#181818;stroke-width:1.0;"/><polygon fill="#000000" points="313.7005,480.6156,320.47,473.9355,315.2507,471.2322,313.7005,480.6156" style="stroke:#000000;stroke-width:1.0;"/><text fill="#000000" font-family="sans-serif" font-size="13" lengthAdjust="spacing" textLength="104" x="325" y="481.4951">is associated with</text><text fill="#000000" font-family="sans-serif" font-size="13" lengthAdjust="spacing" textLength="5" x="326.2589" y="431.986">*</text><text fill="#000000" font-family="sans-serif" font-size="13" lengthAdjust="spacing" textLength="7" x="276.681" y="504.0889">1</text></g><!--MD5=[a348c077e108f4afca7d687d06a6ff8b]
@startuml
hide methods
skinparam classAttributeIconSize 0

class Employee {
}

class SNSUser {
}

class Appointment {
-date
-time
-state
}

class Nurse extends Employee{
}

class VaccinationCenter {
}

class MassVaccinationCenter extends VaccinationCenter{
}

class HealhcareCenter extends VaccinationCenter{
}

class VaccineType {
}

Appointment "*" - - "1" SNSUser : requested by >
VaccinationCenter "1" - - "*" Appointment : has >
Nurse "*" - - "1" VaccinationCenter : works for >
VaccinationCenter "1" - - "*" Employee : associated with <
Appointment "*" - - "1" VaccineType : is associated with >
MassVaccinationCenter "*" - - "1" VaccineType : is associated with >

@enduml

PlantUML version 1.2022.5(Sat Apr 30 11:55:52 BST 2022)
(GPL source distribution)
Java Runtime: OpenJDK Runtime Environment
JVM: OpenJDK 64-Bit Server VM
Default Encoding: Cp1252
Language: pt
Country: PT
--></g></svg>