<?xml version="1.0" encoding="UTF-8" standalone="no"?><svg xmlns="http://www.w3.org/2000/svg" xmlns:xlink="http://www.w3.org/1999/xlink" contentStyleType="text/css" height="429px" preserveAspectRatio="none" style="width:592px;height:429px;background:#FFFFFF;" version="1.1" viewBox="0 0 592 429" width="592px" zoomAndPan="magnify"><defs/><g><rect fill="#FFFFFF" height="301.4609" style="stroke:#181818;stroke-width:1.0;" width="10" x="101.5" y="65.2188"/><rect fill="#FFFFFF" height="96.7031" style="stroke:#181818;stroke-width:1.0;" width="10" x="294.5" y="87.5703"/><rect fill="#FFFFFF" height="96.7031" style="stroke:#181818;stroke-width:1.0;" width="10" x="294.5" y="246.9766"/><rect fill="#FFFFFF" height="66.3516" style="stroke:#181818;stroke-width:1.0;" width="10" x="443.5" y="117.9219"/><rect fill="#FFFFFF" height="28" style="stroke:#181818;stroke-width:1.0;" width="10" x="448.5" y="156.2734"/><rect fill="#FFFFFF" height="66.3516" style="stroke:#181818;stroke-width:1.0;" width="10" x="443.5" y="277.3281"/><rect fill="#FFFFFF" height="28" style="stroke:#181818;stroke-width:1.0;" width="10" x="448.5" y="315.6797"/><rect height="152.4063" style="stroke:#000000;stroke-width:1.5;fill:none;" width="570.5" x="10" y="206.2734"/><line style="stroke:#181818;stroke-width:0.5;fill:none;stroke-dasharray:5.0,5.0;" x1="106" x2="106" y1="55.2188" y2="375.6797"/><line style="stroke:#181818;stroke-width:0.5;fill:none;stroke-dasharray:5.0,5.0;" x1="299" x2="299" y1="55.2188" y2="375.6797"/><line style="stroke:#181818;stroke-width:0.5;fill:none;stroke-dasharray:5.0,5.0;" x1="448" x2="448" y1="55.2188" y2="375.6797"/><rect fill="#E2E2F0" height="49.2188" rx="2.5" ry="2.5" style="stroke:#181818;stroke-width:0.5;" width="173" x="20" y="5"/><text fill="#000000" font-family="sans-serif" font-size="14" lengthAdjust="spacing" textLength="152" x="30.5" y="26.5332">createVaccineController</text><text fill="#000000" font-family="sans-serif" font-size="14" lengthAdjust="spacing" textLength="159" x="27" y="44.1426">:CreateVaccineController</text><rect fill="#E2E2F0" height="49.2188" rx="2.5" ry="2.5" style="stroke:#181818;stroke-width:0.5;" width="173" x="20" y="374.6797"/><text fill="#000000" font-family="sans-serif" font-size="14" lengthAdjust="spacing" textLength="152" x="30.5" y="396.2129">createVaccineController</text><text fill="#000000" font-family="sans-serif" font-size="14" lengthAdjust="spacing" textLength="159" x="27" y="413.8223">:CreateVaccineController</text><rect fill="#E2E2F0" height="31.6094" rx="2.5" ry="2.5" style="stroke:#181818;stroke-width:0.5;" width="193" x="203" y="22.6094"/><text fill="#000000" font-family="sans-serif" font-size="14" lengthAdjust="spacing" textLength="179" x="210" y="44.1426">admp:AdministrationProcess</text><rect fill="#E2E2F0" height="31.6094" rx="2.5" ry="2.5" style="stroke:#181818;stroke-width:0.5;" width="193" x="203" y="374.6797"/><text fill="#000000" font-family="sans-serif" font-size="14" lengthAdjust="spacing" textLength="179" x="210" y="396.2129">admp:AdministrationProcess</text><rect fill="#E2E2F0" height="49.2188" rx="2.5" ry="2.5" style="stroke:#181818;stroke-width:0.5;" width="85" x="406" y="5"/><text fill="#000000" font-family="sans-serif" font-size="14" lengthAdjust="spacing" textLength="65" x="416" y="26.5332">doseStore</text><text fill="#000000" font-family="sans-serif" font-size="14" lengthAdjust="spacing" textLength="71" x="413" y="44.1426">:DoseStore</text><rect fill="#E2E2F0" height="49.2188" rx="2.5" ry="2.5" style="stroke:#181818;stroke-width:0.5;" width="85" x="406" y="374.6797"/><text fill="#000000" font-family="sans-serif" font-size="14" lengthAdjust="spacing" textLength="65" x="416" y="396.2129">doseStore</text><text fill="#000000" font-family="sans-serif" font-size="14" lengthAdjust="spacing" textLength="71" x="413" y="413.8223">:DoseStore</text><rect fill="#FFFFFF" height="301.4609" style="stroke:#181818;stroke-width:1.0;" width="10" x="101.5" y="65.2188"/><rect fill="#FFFFFF" height="96.7031" style="stroke:#181818;stroke-width:1.0;" width="10" x="294.5" y="87.5703"/><rect fill="#FFFFFF" height="96.7031" style="stroke:#181818;stroke-width:1.0;" width="10" x="294.5" y="246.9766"/><rect fill="#FFFFFF" height="66.3516" style="stroke:#181818;stroke-width:1.0;" width="10" x="443.5" y="117.9219"/><rect fill="#FFFFFF" height="28" style="stroke:#181818;stroke-width:1.0;" width="10" x="448.5" y="156.2734"/><rect fill="#FFFFFF" height="66.3516" style="stroke:#181818;stroke-width:1.0;" width="10" x="443.5" y="277.3281"/><rect fill="#FFFFFF" height="28" style="stroke:#181818;stroke-width:1.0;" width="10" x="448.5" y="315.6797"/><polygon fill="#181818" points="282.5,83.5703,292.5,87.5703,282.5,91.5703,286.5,87.5703" style="stroke:#181818;stroke-width:1.0;"/><line style="stroke:#181818;stroke-width:1.0;" x1="111.5" x2="288.5" y1="87.5703" y2="87.5703"/><text fill="#000000" font-family="sans-serif" font-size="13" font-weight="bold" lengthAdjust="spacing" textLength="7" x="118.5" y="82.7139">1</text><text fill="#000000" font-family="sans-serif" font-size="13" lengthAdjust="spacing" textLength="109" x="129.5" y="82.7139">validateDose(dose)</text><polygon fill="#181818" points="431.5,113.9219,441.5,117.9219,431.5,121.9219,435.5,117.9219" style="stroke:#181818;stroke-width:1.0;"/><line style="stroke:#181818;stroke-width:1.0;" x1="304.5" x2="437.5" y1="117.9219" y2="117.9219"/><text fill="#000000" font-family="sans-serif" font-size="13" font-weight="bold" lengthAdjust="spacing" textLength="7" x="311.5" y="113.0654">2</text><text fill="#000000" font-family="sans-serif" font-size="13" lengthAdjust="spacing" textLength="109" x="322.5" y="113.0654">validateDose(dose)</text><line style="stroke:#181818;stroke-width:1.0;" x1="458.5" x2="500.5" y1="148.2734" y2="148.2734"/><line style="stroke:#181818;stroke-width:1.0;" x1="500.5" x2="500.5" y1="148.2734" y2="161.2734"/><line style="stroke:#181818;stroke-width:1.0;" x1="459.5" x2="500.5" y1="161.2734" y2="161.2734"/><polygon fill="#181818" points="469.5,157.2734,459.5,161.2734,469.5,165.2734,465.5,161.2734" style="stroke:#181818;stroke-width:1.0;"/><text fill="#000000" font-family="sans-serif" font-size="13" font-weight="bold" lengthAdjust="spacing" textLength="7" x="465.5" y="143.417">3</text><text fill="#000000" font-family="sans-serif" font-size="13" lengthAdjust="spacing" textLength="109" x="476.5" y="143.417">validateDose(dose)</text><path d="M10,206.2734 L71,206.2734 L71,214.625 L61,224.625 L10,224.625 L10,206.2734 " fill="#EEEEEE" style="stroke:#000000;stroke-width:1.5;"/><rect fill="none" height="152.4063" style="stroke:#000000;stroke-width:1.5;" width="570.5" x="10" y="206.2734"/><text fill="#000000" font-family="sans-serif" font-size="13" font-weight="bold" lengthAdjust="spacing" textLength="16" x="25" y="220.7686">alt</text><text fill="#000000" font-family="sans-serif" font-size="11" font-weight="bold" lengthAdjust="spacing" textLength="111" x="86" y="219.6924">[if dose is validated]</text><polygon fill="#181818" points="282.5,242.9766,292.5,246.9766,282.5,250.9766,286.5,246.9766" style="stroke:#181818;stroke-width:1.0;"/><line style="stroke:#181818;stroke-width:1.0;" x1="111.5" x2="288.5" y1="246.9766" y2="246.9766"/><text fill="#000000" font-family="sans-serif" font-size="13" font-weight="bold" lengthAdjust="spacing" textLength="7" x="118.5" y="242.1201">4</text><text fill="#000000" font-family="sans-serif" font-size="13" lengthAdjust="spacing" textLength="92" x="129.5" y="242.1201">saveDose(dose)</text><polygon fill="#181818" points="431.5,273.3281,441.5,277.3281,431.5,281.3281,435.5,277.3281" style="stroke:#181818;stroke-width:1.0;"/><line style="stroke:#181818;stroke-width:1.0;" x1="304.5" x2="437.5" y1="277.3281" y2="277.3281"/><text fill="#000000" font-family="sans-serif" font-size="13" font-weight="bold" lengthAdjust="spacing" textLength="7" x="311.5" y="272.4717">5</text><text fill="#000000" font-family="sans-serif" font-size="13" lengthAdjust="spacing" textLength="92" x="322.5" y="272.4717">saveDose(dose)</text><line style="stroke:#181818;stroke-width:1.0;" x1="458.5" x2="500.5" y1="307.6797" y2="307.6797"/><line style="stroke:#181818;stroke-width:1.0;" x1="500.5" x2="500.5" y1="307.6797" y2="320.6797"/><line style="stroke:#181818;stroke-width:1.0;" x1="459.5" x2="500.5" y1="320.6797" y2="320.6797"/><polygon fill="#181818" points="469.5,316.6797,459.5,320.6797,469.5,324.6797,465.5,320.6797" style="stroke:#181818;stroke-width:1.0;"/><text fill="#000000" font-family="sans-serif" font-size="13" font-weight="bold" lengthAdjust="spacing" textLength="7" x="465.5" y="302.8232">6</text><text fill="#000000" font-family="sans-serif" font-size="13" lengthAdjust="spacing" textLength="92" x="476.5" y="302.8232">saveDose(dose)</text><!--MD5=[4e8db72d200d8a7e088c9627dc4bdf6b]
@startuml
autonumber
participant "createVaccineController\n:CreateVaccineController" as Controller
participant "admp:AdministrationProcess" as admp
participant "doseStore\n:DoseStore" as doseStore

activate Controller
Controller -> admp : validateDose(dose)
activate admp
admp -> doseStore: validateDose(dose)
activate doseStore
doseStore -> doseStore : validateDose(dose)
activate doseStore
deactivate doseStore
deactivate doseStore
deactivate admp

alt if dose is validated
Controller -> admp : saveDose(dose)
activate admp

admp -> doseStore : saveDose(dose)
activate doseStore

doseStore -> doseStore : saveDose(dose)
activate doseStore
deactivate doseStore

deactivate doseStore

deactivate admp

end
@enduml

PlantUML version 1.2022.4(Sat Apr 09 14:29:17 BST 2022)
(GPL source distribution)
Java Runtime: OpenJDK Runtime Environment
JVM: OpenJDK 64-Bit Server VM
Default Encoding: Cp1252
Language: pt
Country: PT
--></g></svg>