<?xml version="1.0" encoding="UTF-8" standalone="no"?><svg xmlns="http://www.w3.org/2000/svg" xmlns:xlink="http://www.w3.org/1999/xlink" contentStyleType="text/css" height="429px" preserveAspectRatio="none" style="width:695px;height:429px;background:#FFFFFF;" version="1.1" viewBox="0 0 695 429" width="695px" zoomAndPan="magnify"><defs/><g><rect fill="#FFFFFF" height="301.4609" style="stroke:#181818;stroke-width:1.0;" width="10" x="101.5" y="65.2188"/><rect fill="#FFFFFF" height="96.7031" style="stroke:#181818;stroke-width:1.0;" width="10" x="299.5" y="87.5703"/><rect fill="#FFFFFF" height="96.7031" style="stroke:#181818;stroke-width:1.0;" width="10" x="299.5" y="246.9766"/><rect fill="#FFFFFF" height="66.3516" style="stroke:#181818;stroke-width:1.0;" width="10" x="497.5" y="117.9219"/><rect fill="#FFFFFF" height="28" style="stroke:#181818;stroke-width:1.0;" width="10" x="502.5" y="156.2734"/><rect fill="#FFFFFF" height="66.3516" style="stroke:#181818;stroke-width:1.0;" width="10" x="497.5" y="277.3281"/><rect fill="#FFFFFF" height="28" style="stroke:#181818;stroke-width:1.0;" width="10" x="502.5" y="315.6797"/><rect height="152.4063" style="stroke:#000000;stroke-width:1.5;fill:none;" width="673.5" x="10" y="206.2734"/><line style="stroke:#181818;stroke-width:0.5;fill:none;stroke-dasharray:5.0,5.0;" x1="106" x2="106" y1="55.2188" y2="375.6797"/><line style="stroke:#181818;stroke-width:0.5;fill:none;stroke-dasharray:5.0,5.0;" x1="304.5" x2="304.5" y1="55.2188" y2="375.6797"/><line style="stroke:#181818;stroke-width:0.5;fill:none;stroke-dasharray:5.0,5.0;" x1="502" x2="502" y1="55.2188" y2="375.6797"/><rect fill="#E2E2F0" height="49.2188" rx="2.5" ry="2.5" style="stroke:#181818;stroke-width:0.5;" width="173" x="20" y="5"/><text fill="#000000" font-family="sans-serif" font-size="14" lengthAdjust="spacing" textLength="152" x="30.5" y="26.5332">createVaccineController</text><text fill="#000000" font-family="sans-serif" font-size="14" lengthAdjust="spacing" textLength="159" x="27" y="44.1426">:CreateVaccineController</text><rect fill="#E2E2F0" height="49.2188" rx="2.5" ry="2.5" style="stroke:#181818;stroke-width:0.5;" width="173" x="20" y="374.6797"/><text fill="#000000" font-family="sans-serif" font-size="14" lengthAdjust="spacing" textLength="152" x="30.5" y="396.2129">createVaccineController</text><text fill="#000000" font-family="sans-serif" font-size="14" lengthAdjust="spacing" textLength="159" x="27" y="413.8223">:CreateVaccineController</text><rect fill="#E2E2F0" height="49.2188" rx="2.5" ry="2.5" style="stroke:#181818;stroke-width:0.5;" width="68" x="270.5" y="5"/><text fill="#000000" font-family="sans-serif" font-size="14" lengthAdjust="spacing" textLength="48" x="280.5" y="26.5332">vaccine</text><text fill="#000000" font-family="sans-serif" font-size="14" lengthAdjust="spacing" textLength="54" x="277.5" y="44.1426">:Vaccine</text><rect fill="#E2E2F0" height="49.2188" rx="2.5" ry="2.5" style="stroke:#181818;stroke-width:0.5;" width="68" x="270.5" y="374.6797"/><text fill="#000000" font-family="sans-serif" font-size="14" lengthAdjust="spacing" textLength="48" x="280.5" y="396.2129">vaccine</text><text fill="#000000" font-family="sans-serif" font-size="14" lengthAdjust="spacing" textLength="54" x="277.5" y="413.8223">:Vaccine</text><rect fill="#E2E2F0" height="49.2188" rx="2.5" ry="2.5" style="stroke:#181818;stroke-width:0.5;" width="131" x="437" y="5"/><text fill="#000000" font-family="sans-serif" font-size="14" lengthAdjust="spacing" textLength="69" x="468" y="26.5332">admpStore</text><text fill="#000000" font-family="sans-serif" font-size="14" lengthAdjust="spacing" textLength="117" x="444" y="44.1426">:AdmProcessStore</text><rect fill="#E2E2F0" height="49.2188" rx="2.5" ry="2.5" style="stroke:#181818;stroke-width:0.5;" width="131" x="437" y="374.6797"/><text fill="#000000" font-family="sans-serif" font-size="14" lengthAdjust="spacing" textLength="69" x="468" y="396.2129">admpStore</text><text fill="#000000" font-family="sans-serif" font-size="14" lengthAdjust="spacing" textLength="117" x="444" y="413.8223">:AdmProcessStore</text><rect fill="#FFFFFF" height="301.4609" style="stroke:#181818;stroke-width:1.0;" width="10" x="101.5" y="65.2188"/><rect fill="#FFFFFF" height="96.7031" style="stroke:#181818;stroke-width:1.0;" width="10" x="299.5" y="87.5703"/><rect fill="#FFFFFF" height="96.7031" style="stroke:#181818;stroke-width:1.0;" width="10" x="299.5" y="246.9766"/><rect fill="#FFFFFF" height="66.3516" style="stroke:#181818;stroke-width:1.0;" width="10" x="497.5" y="117.9219"/><rect fill="#FFFFFF" height="28" style="stroke:#181818;stroke-width:1.0;" width="10" x="502.5" y="156.2734"/><rect fill="#FFFFFF" height="66.3516" style="stroke:#181818;stroke-width:1.0;" width="10" x="497.5" y="277.3281"/><rect fill="#FFFFFF" height="28" style="stroke:#181818;stroke-width:1.0;" width="10" x="502.5" y="315.6797"/><polygon fill="#181818" points="287.5,83.5703,297.5,87.5703,287.5,91.5703,291.5,87.5703" style="stroke:#181818;stroke-width:1.0;"/><line style="stroke:#181818;stroke-width:1.0;" x1="111.5" x2="293.5" y1="87.5703" y2="87.5703"/><text fill="#000000" font-family="sans-serif" font-size="13" font-weight="bold" lengthAdjust="spacing" textLength="7" x="118.5" y="82.7139">1</text><text fill="#000000" font-family="sans-serif" font-size="13" lengthAdjust="spacing" textLength="158" x="129.5" y="82.7139">validateAdmProcess(admp)</text><polygon fill="#181818" points="485.5,113.9219,495.5,117.9219,485.5,121.9219,489.5,117.9219" style="stroke:#181818;stroke-width:1.0;"/><line style="stroke:#181818;stroke-width:1.0;" x1="309.5" x2="491.5" y1="117.9219" y2="117.9219"/><text fill="#000000" font-family="sans-serif" font-size="13" font-weight="bold" lengthAdjust="spacing" textLength="7" x="316.5" y="113.0654">2</text><text fill="#000000" font-family="sans-serif" font-size="13" lengthAdjust="spacing" textLength="158" x="327.5" y="113.0654">validateAdmProcess(admp)</text><line style="stroke:#181818;stroke-width:1.0;" x1="512.5" x2="554.5" y1="148.2734" y2="148.2734"/><line style="stroke:#181818;stroke-width:1.0;" x1="554.5" x2="554.5" y1="148.2734" y2="161.2734"/><line style="stroke:#181818;stroke-width:1.0;" x1="513.5" x2="554.5" y1="161.2734" y2="161.2734"/><polygon fill="#181818" points="523.5,157.2734,513.5,161.2734,523.5,165.2734,519.5,161.2734" style="stroke:#181818;stroke-width:1.0;"/><text fill="#000000" font-family="sans-serif" font-size="13" font-weight="bold" lengthAdjust="spacing" textLength="7" x="519.5" y="143.417">3</text><text fill="#000000" font-family="sans-serif" font-size="13" lengthAdjust="spacing" textLength="158" x="530.5" y="143.417">validateAdmProcess(admp)</text><path d="M10,206.2734 L71,206.2734 L71,214.625 L61,224.625 L10,224.625 L10,206.2734 " fill="#EEEEEE" style="stroke:#000000;stroke-width:1.5;"/><rect fill="none" height="152.4063" style="stroke:#000000;stroke-width:1.5;" width="673.5" x="10" y="206.2734"/><text fill="#000000" font-family="sans-serif" font-size="13" font-weight="bold" lengthAdjust="spacing" textLength="16" x="25" y="220.7686">alt</text><text fill="#000000" font-family="sans-serif" font-size="11" font-weight="bold" lengthAdjust="spacing" textLength="114" x="86" y="219.6924">[if admp is validated]</text><polygon fill="#181818" points="287.5,242.9766,297.5,246.9766,287.5,250.9766,291.5,246.9766" style="stroke:#181818;stroke-width:1.0;"/><line style="stroke:#181818;stroke-width:1.0;" x1="111.5" x2="293.5" y1="246.9766" y2="246.9766"/><text fill="#000000" font-family="sans-serif" font-size="13" font-weight="bold" lengthAdjust="spacing" textLength="7" x="118.5" y="242.1201">4</text><text fill="#000000" font-family="sans-serif" font-size="13" lengthAdjust="spacing" textLength="141" x="129.5" y="242.1201">saveAdmProcess(admp)</text><polygon fill="#181818" points="485.5,273.3281,495.5,277.3281,485.5,281.3281,489.5,277.3281" style="stroke:#181818;stroke-width:1.0;"/><line style="stroke:#181818;stroke-width:1.0;" x1="309.5" x2="491.5" y1="277.3281" y2="277.3281"/><text fill="#000000" font-family="sans-serif" font-size="13" font-weight="bold" lengthAdjust="spacing" textLength="7" x="316.5" y="272.4717">5</text><text fill="#000000" font-family="sans-serif" font-size="13" lengthAdjust="spacing" textLength="141" x="327.5" y="272.4717">saveAdmProcess(admp)</text><line style="stroke:#181818;stroke-width:1.0;" x1="512.5" x2="554.5" y1="307.6797" y2="307.6797"/><line style="stroke:#181818;stroke-width:1.0;" x1="554.5" x2="554.5" y1="307.6797" y2="320.6797"/><line style="stroke:#181818;stroke-width:1.0;" x1="513.5" x2="554.5" y1="320.6797" y2="320.6797"/><polygon fill="#181818" points="523.5,316.6797,513.5,320.6797,523.5,324.6797,519.5,320.6797" style="stroke:#181818;stroke-width:1.0;"/><text fill="#000000" font-family="sans-serif" font-size="13" font-weight="bold" lengthAdjust="spacing" textLength="7" x="519.5" y="302.8232">6</text><text fill="#000000" font-family="sans-serif" font-size="13" lengthAdjust="spacing" textLength="141" x="530.5" y="302.8232">saveAdmProcess(admp)</text><!--MD5=[f66c2fb27e7d9e5f336eea40f74bf1ad]
@startuml
autonumber
participant "createVaccineController\n:CreateVaccineController" as Controller
participant "vaccine\n:Vaccine" as vaccine
participant "admpStore\n:AdmProcessStore" as admpStore

activate Controller
Controller -> vaccine : validateAdmProcess(admp)
activate vaccine
vaccine -> admpStore: validateAdmProcess(admp)
activate admpStore
admpStore -> admpStore : validateAdmProcess(admp)
activate admpStore
deactivate admpStore
deactivate admpStore
deactivate vaccine

alt if admp is validated
Controller -> vaccine : saveAdmProcess(admp)
activate vaccine

vaccine -> admpStore : saveAdmProcess(admp)
activate admpStore

admpStore -> admpStore : saveAdmProcess(admp)
activate admpStore
deactivate admpStore

deactivate admpStore

deactivate vaccine

end


@enduml

PlantUML version 1.2022.4(Sat Apr 09 14:29:17 BST 2022)
(GPL source distribution)
Java Runtime: OpenJDK Runtime Environment
JVM: OpenJDK 64-Bit Server VM
Default Encoding: Cp1252
Language: pt
Country: PT
--></g></svg>