<?xml version="1.0" encoding="UTF-8" standalone="no"?><svg xmlns="http://www.w3.org/2000/svg" xmlns:xlink="http://www.w3.org/1999/xlink" contentStyleType="text/css" height="2195px" preserveAspectRatio="none" style="width:634px;height:2195px;background:#FFFFFF;" version="1.1" viewBox="0 0 634 2195" width="634px" zoomAndPan="magnify"><defs/><g><!--MD5=[97ab183161fd5d1db7fba7485cf76add]
entity Admin--><g id="elem_Admin"><ellipse cx="67" cy="1532.5" fill="#F1F1F1" rx="8" ry="8" style="stroke:#181818;stroke-width:0.5;"/><path d="M67,1540.5 L67,1567.5 M54,1548.5 L80,1548.5 M67,1567.5 L54,1582.5 M67,1567.5 L80,1582.5 " fill="none" style="stroke:#181818;stroke-width:0.5;"/><text fill="#000000" font-family="sans-serif" font-size="14" lengthAdjust="spacing" textLength="83" x="25.5" y="1598.5332">Administrator</text></g><!--MD5=[36dc586d67e0f1d076b0ce70c9875d3e]
entity CC--><g id="elem_CC"><ellipse cx="67" cy="983.5" fill="#F1F1F1" rx="8" ry="8" style="stroke:#181818;stroke-width:0.5;"/><path d="M67,991.5 L67,1018.5 M54,999.5 L80,999.5 M67,1018.5 L54,1033.5 M67,1018.5 L80,1033.5 " fill="none" style="stroke:#181818;stroke-width:0.5;"/><text fill="#000000" font-family="sans-serif" font-size="14" lengthAdjust="spacing" textLength="122" x="6" y="1049.5332">Center Coordinator</text></g><!--MD5=[7bbb50bb6a1a4a16f3de7991aea95734]
entity RP--><g id="elem_RP"><ellipse cx="67" cy="1974.5" fill="#F1F1F1" rx="8" ry="8" style="stroke:#181818;stroke-width:0.5;"/><path d="M67,1982.5 L67,2009.5 M54,1990.5 L80,1990.5 M67,2009.5 L54,2024.5 M67,2009.5 L80,2024.5 " fill="none" style="stroke:#181818;stroke-width:0.5;"/><text fill="#000000" font-family="sans-serif" font-size="14" lengthAdjust="spacing" textLength="78" x="28" y="2040.5332">Receptionist</text></g><!--MD5=[61498962660899b120993277f4dd34dc]
entity NS--><g id="elem_NS"><ellipse cx="67" cy="301.5" fill="#F1F1F1" rx="8" ry="8" style="stroke:#181818;stroke-width:0.5;"/><path d="M67,309.5 L67,336.5 M54,317.5 L80,317.5 M67,336.5 L54,351.5 M67,336.5 L80,351.5 " fill="none" style="stroke:#181818;stroke-width:0.5;"/><text fill="#000000" font-family="sans-serif" font-size="14" lengthAdjust="spacing" textLength="37" x="48.5" y="367.5332">Nurse</text></g><!--MD5=[fee662a292a0353a69bd162820bae93b]
entity User--><g id="elem_User"><ellipse cx="67" cy="660.5" fill="#F1F1F1" rx="8" ry="8" style="stroke:#181818;stroke-width:0.5;"/><path d="M67,668.5 L67,695.5 M54,676.5 L80,676.5 M67,695.5 L54,710.5 M67,695.5 L80,710.5 " fill="none" style="stroke:#181818;stroke-width:0.5;"/><text fill="#000000" font-family="sans-serif" font-size="14" lengthAdjust="spacing" textLength="60" x="37" y="726.5332">SNS User</text></g><g id="elem_UC01"><ellipse cx="407.8511" cy="646.9702" fill="#F1F1F1" rx="130.3511" ry="28.4702" style="stroke:#181818;stroke-width:0.5;"/><text fill="#000000" font-family="sans-serif" font-size="14" lengthAdjust="spacing" textLength="227" x="294.3511" y="650.6987">UC? - Obtain Vaccination Certificate</text></g><g id="elem_UC02"><ellipse cx="407.934" cy="734.9868" fill="#F1F1F1" rx="110.434" ry="24.4868" style="stroke:#181818;stroke-width:0.5;"/><text fill="#000000" font-family="sans-serif" font-size="14" lengthAdjust="spacing" textLength="184" x="315.934" y="738.7153">UC01 - Schedule Vaccination</text></g><g id="elem_UC025"><ellipse cx="407.934" cy="1952.9868" fill="#F1F1F1" rx="110.434" ry="24.4868" style="stroke:#181818;stroke-width:0.5;"/><text fill="#000000" font-family="sans-serif" font-size="14" lengthAdjust="spacing" textLength="184" x="315.934" y="1956.7153">UC02 - Schedule Vaccination</text></g><g id="elem_UC17"><ellipse cx="408.1703" cy="35.0341" fill="#F1F1F1" rx="133.1703" ry="29.0341" style="stroke:#181818;stroke-width:0.5;"/><text fill="#000000" font-family="sans-serif" font-size="14" lengthAdjust="spacing" textLength="233" x="291.6703" y="38.7626">UC? - Check the SNS User Arrival list</text></g><g id="elem_UC04"><ellipse cx="408.1384" cy="127.1277" fill="#F1F1F1" rx="126.1384" ry="27.6277" style="stroke:#181818;stroke-width:0.5;"/><text fill="#000000" font-family="sans-serif" font-size="14" lengthAdjust="spacing" textLength="218" x="299.1384" y="130.8562">UC? - Check SNS User Information</text></g><g id="elem_UC05"><ellipse cx="408.0369" cy="225.2074" fill="#F1F1F1" rx="166.5369" ry="35.7074" style="stroke:#181818;stroke-width:0.5;"/><text fill="#000000" font-family="sans-serif" font-size="14" lengthAdjust="spacing" textLength="303" x="256.5369" y="228.9359">UC? - Check Vaccine Administration Instructions</text></g><g id="elem_UC06"><ellipse cx="407.982" cy="331.9964" fill="#F1F1F1" rx="167.982" ry="35.9964" style="stroke:#181818;stroke-width:0.5;"/><text fill="#000000" font-family="sans-serif" font-size="14" lengthAdjust="spacing" textLength="306" x="254.982" y="335.7249">UC? - Register administered Vaccine Information</text></g><g id="elem_UC07"><ellipse cx="408.2025" cy="429.1405" fill="#F1F1F1" rx="118.7025" ry="26.1405" style="stroke:#181818;stroke-width:0.5;"/><text fill="#000000" font-family="sans-serif" font-size="14" lengthAdjust="spacing" textLength="202" x="307.2025" y="432.869">UC? - Record Adverse Reaction</text></g><g id="elem_UC08"><ellipse cx="407.7727" cy="821.7545" fill="#F1F1F1" rx="124.2727" ry="27.2545" style="stroke:#181818;stroke-width:0.5;"/><text fill="#000000" font-family="sans-serif" font-size="14" lengthAdjust="spacing" textLength="214" x="300.7727" y="825.4831">UC? - Check Statistics and Charts</text></g><g id="elem_UC18"><ellipse cx="407.8751" cy="921.075" fill="#F1F1F1" rx="170.8751" ry="36.575" style="stroke:#181818;stroke-width:0.5;"/><text fill="#000000" font-family="sans-serif" font-size="14" lengthAdjust="spacing" textLength="312" x="251.8751" y="924.8035">UC? - Evaluate Vaccination Process Performance</text></g><g id="elem_UC19"><ellipse cx="407.8753" cy="1014.1751" fill="#F1F1F1" rx="93.8753" ry="21.1751" style="stroke:#181818;stroke-width:0.5;"/><text fill="#000000" font-family="sans-serif" font-size="14" lengthAdjust="spacing" textLength="147" x="334.3753" y="1017.9036">UC? - Generate Report</text></g><g id="elem_UC20"><ellipse cx="408.2255" cy="1101.0451" fill="#F1F1F1" rx="140.7255" ry="30.5451" style="stroke:#181818;stroke-width:0.5;"/><text fill="#000000" font-family="sans-serif" font-size="14" lengthAdjust="spacing" textLength="249" x="283.7255" y="1104.7736">UC? - Analyze Data from Other Centers</text></g><g id="elem_UC22"><ellipse cx="407.7762" cy="2057.0552" fill="#F1F1F1" rx="208.2762" ry="44.0552" style="stroke:#181818;stroke-width:0.5;"/><text fill="#000000" font-family="sans-serif" font-size="14" lengthAdjust="spacing" textLength="389" x="213.2762" y="2060.7838">UC? - Register SNS User as Ready for Vaccine Administration</text></g><g id="elem_UC03"><ellipse cx="407.7512" cy="1868.8502" fill="#F1F1F1" rx="107.2512" ry="23.8502" style="stroke:#181818;stroke-width:0.5;"/><text fill="#000000" font-family="sans-serif" font-size="14" lengthAdjust="spacing" textLength="177" x="319.2512" y="1872.5788">UC03 - Register a SNS User</text></g><g id="elem_UC23"><ellipse cx="407.9823" cy="2163.1965" fill="#F1F1F1" rx="121.4823" ry="26.6965" style="stroke:#181818;stroke-width:0.5;"/><text fill="#000000" font-family="sans-serif" font-size="14" lengthAdjust="spacing" textLength="208" x="303.9823" y="2166.925">UC04 - Register SNS User arrival</text></g><g id="elem_UC21"><ellipse cx="408.0122" cy="536.9024" fill="#F1F1F1" rx="220.0122" ry="46.4024" style="stroke:#181818;stroke-width:0.5;"/><text fill="#000000" font-family="sans-serif" font-size="14" lengthAdjust="spacing" textLength="413" x="201.5122" y="540.631">UC05 - Consult the Users in the vaccination center´s waiting room</text></g><g id="elem_UC09"><ellipse cx="408.0728" cy="1280.8146" fill="#F1F1F1" rx="127.0728" ry="27.8146" style="stroke:#181818;stroke-width:0.5;"/><text fill="#000000" font-family="sans-serif" font-size="14" lengthAdjust="spacing" textLength="220" x="298.0728" y="1284.5431">UC09 - Register vaccination center</text></g><g id="elem_UC10"><ellipse cx="407.804" cy="1368.7608" fill="#F1F1F1" rx="111.804" ry="24.7608" style="stroke:#181818;stroke-width:0.5;"/><text fill="#000000" font-family="sans-serif" font-size="14" lengthAdjust="spacing" textLength="187" x="314.304" y="1372.4893">UC10 - Register an Employee</text></g><g id="elem_UC11"><ellipse cx="408.0002" cy="1464.9" fill="#F1F1F1" rx="167.5002" ry="35.9" style="stroke:#181818;stroke-width:0.5;"/><text fill="#000000" font-family="sans-serif" font-size="14" lengthAdjust="spacing" textLength="305" x="255.5002" y="1468.6286">UC11 - Obtain list of Employess with a given role</text></g><g id="elem_UC12"><ellipse cx="408.0545" cy="1563.0109" fill="#F1F1F1" rx="120.5545" ry="26.5109" style="stroke:#181818;stroke-width:0.5;"/><text fill="#000000" font-family="sans-serif" font-size="14" lengthAdjust="spacing" textLength="206" x="305.0545" y="1566.7394">UC12 - Specify new vaccine type</text></g><g id="elem_UC13"><ellipse cx="408.0464" cy="1666.9093" fill="#F1F1F1" rx="197.5464" ry="41.9093" style="stroke:#181818;stroke-width:0.5;"/><text fill="#000000" font-family="sans-serif" font-size="14" lengthAdjust="spacing" textLength="367" x="224.5464" y="1670.6378">UC13 - Specify new vaccine and its administration process</text></g><g id="elem_UC24"><ellipse cx="407.7585" cy="1776.8517" fill="#F1F1F1" rx="149.7585" ry="32.3517" style="stroke:#181818;stroke-width:0.5;"/><text fill="#000000" font-family="sans-serif" font-size="14" lengthAdjust="spacing" textLength="268" x="273.7585" y="1780.5802">UC14 - Load a set of users from a CSV file</text></g><g id="elem_UC25"><ellipse cx="407.8945" cy="1192.1789" fill="#F1F1F1" rx="116.3945" ry="25.6789" style="stroke:#181818;stroke-width:0.5;"/><text fill="#000000" font-family="sans-serif" font-size="14" lengthAdjust="spacing" textLength="197" x="309.3945" y="1195.9074">UC18 - Get a list of all vaccines</text></g><!--MD5=[f79a565702a02de5358fe89ce5060409]
link User to UC01--><g id="link_User_UC01"><path d="M97.2,687.21 C140.88,681.54 225.59,670.55 295.4,661.49 " fill="none" id="User-UC01" style="stroke:#181818;stroke-width:1.0;"/></g><!--MD5=[598648dd4dec80b8bf6014201273eb43]
link User to UC02--><g id="link_User_UC02"><path d="M97.2,694.79 C144.41,700.92 239.56,713.27 312.01,722.67 " fill="none" id="User-UC02" style="stroke:#181818;stroke-width:1.0;"/></g><!--MD5=[605b0af1a4d8377bffa6704fca502d3a]
link NS to UC01--><g id="link_NS_UC01"><path d="M74.04,371.29 C85.31,430.63 115.38,542.38 188,601 C214.07,622.05 247.44,634.13 280.22,640.91 " fill="none" id="NS-UC01" style="stroke:#181818;stroke-width:1.0;"/></g><!--MD5=[ee93f0f35b2a5237ab9cbfc59a36e9f2]
link NS to UC17--><g id="link_NS_UC17"><path d="M75.56,292.7 C88.43,236.88 120.12,135.48 188,82 C214.04,61.48 247.02,49.42 279.44,42.45 " fill="none" id="NS-UC17" style="stroke:#181818;stroke-width:1.0;"/></g><!--MD5=[6fc5f9a54b020de3c01ffc6a5afeca82]
link NS to UC04--><g id="link_NS_UC04"><path d="M85.62,294.96 C105.28,257.84 140.64,202.02 188,172 C217.67,153.19 253.73,142.06 287.96,135.52 " fill="none" id="NS-UC04" style="stroke:#181818;stroke-width:1.0;"/></g><!--MD5=[ae6126bc082cc9266cd560c7dfcf0ad5]
link NS to UC05--><g id="link_NS_UC05"><path d="M85.87,322.69 C108.95,310.97 150.61,290.81 188,278 C219.82,267.09 254.98,257.53 287.64,249.65 " fill="none" id="NS-UC05" style="stroke:#181818;stroke-width:1.0;"/></g><!--MD5=[d759005cc9b640972a160a10dfb158a0]
link NS to UC06--><g id="link_NS_UC06"><path d="M85.75,332 C115.38,332 177.81,332 239.82,332 " fill="none" id="NS-UC06" style="stroke:#181818;stroke-width:1.0;"/></g><!--MD5=[709e2e8784782fe8d865a0b5bf3badb1]
link NS to UC07--><g id="link_NS_UC07"><path d="M85.82,341.35 C108.84,353.07 150.44,373.09 188,385 C227.28,397.46 271.68,407.15 310.18,414.23 " fill="none" id="NS-UC07" style="stroke:#181818;stroke-width:1.0;"/></g><!--MD5=[23c4058daddb26f24c0c4bf2dd73d6f7]
link NS to UC21--><g id="link_NS_UC21"><path d="M85.53,361.02 C106.19,392.8 143.41,443.08 188,472 C207.97,484.95 230.6,495.4 253.56,503.81 " fill="none" id="NS-UC21" style="stroke:#181818;stroke-width:1.0;"/></g><!--MD5=[aec88ae8e4c2dd36f267a40a613885ec]
link CC to UC08--><g id="link_CC_UC08"><path d="M89.5,974.77 C110.22,940.82 144.74,893.19 188,867 C218.55,848.51 255.42,837.49 290.13,830.97 " fill="none" id="CC-UC08" style="stroke:#181818;stroke-width:1.0;"/></g><!--MD5=[c30ca61779951f3ff5b9a35a0e4b285f]
link CC to UC18--><g id="link_CC_UC18"><path d="M128.22,994.15 C147.26,988.08 168.45,981.55 188,976 C222.04,966.35 259.29,956.66 293.27,948.17 " fill="none" id="CC-UC18" style="stroke:#181818;stroke-width:1.0;"/></g><!--MD5=[cd980d8f41c2b8c8e337af88b4e73bad]
link CC to UC19--><g id="link_CC_UC19"><path d="M128.22,1014 C179.68,1014 254.58,1014 313.79,1014 " fill="none" id="CC-UC19" style="stroke:#181818;stroke-width:1.0;"/></g><!--MD5=[e1dc8fa09026dd37f6994cbc1c28eb04]
link CC to UC20--><g id="link_CC_UC20"><path d="M128.08,1034.81 C147.13,1041.06 168.34,1047.66 188,1053 C225.47,1063.17 266.99,1072.7 303.71,1080.55 " fill="none" id="CC-UC20" style="stroke:#181818;stroke-width:1.0;"/></g><!--MD5=[2c1fc882cc5ada721baec2f760a77c8a]
link CC to UC25--><g id="link_CC_UC25"><path d="M92.32,1053.2 C113.66,1084.17 147.57,1125.9 188,1149 C220.72,1167.69 260.18,1178.39 296.55,1184.46 " fill="none" id="CC-UC25" style="stroke:#181818;stroke-width:1.0;"/></g><!--MD5=[52c35563abaaaa07cf058624ebe49932]
link RP to UC025--><g id="link_RP_UC025"><path d="M106.23,1999.14 C156.88,1991.37 247.82,1977.42 316.49,1966.88 " fill="none" id="RP-UC025" style="stroke:#181818;stroke-width:1.0;"/></g><!--MD5=[3cdca0333493f775646433e28a549ffe]
link RP to UC22--><g id="link_RP_UC22"><path d="M106.23,2010.86 C139.13,2015.91 189.03,2023.57 238.78,2031.2 " fill="none" id="RP-UC22" style="stroke:#181818;stroke-width:1.0;"/></g><!--MD5=[21f5afca2bee06d9f14cd9393c7efee3]
link RP to UC03--><g id="link_RP_UC03"><path d="M106.19,1967.35 C128.34,1947.61 157.77,1924.75 188,1911 C225.35,1894.01 269.32,1883.88 308.02,1877.86 " fill="none" id="RP-UC03" style="stroke:#181818;stroke-width:1.0;"/></g><!--MD5=[61660101c8921a3f040c5fb8f26d542b]
link RP to UC23--><g id="link_RP_UC23"><path d="M99.03,2044.24 C121.15,2069.48 153.06,2100.86 188,2119 C220.87,2136.07 259.69,2146.53 295.45,2152.93 " fill="none" id="RP-UC23" style="stroke:#181818;stroke-width:1.0;"/></g><!--MD5=[5826cd4c03e0294b2a12290356b2d693]
link Admin to UC09--><g id="link_Admin_UC09"><path d="M76.78,1523.58 C90.77,1470.35 123.42,1376.48 188,1327 C215.45,1305.97 250.28,1294.01 284.05,1287.34 " fill="none" id="Admin-UC09" style="stroke:#181818;stroke-width:1.0;"/></g><!--MD5=[b415004d391d90f899bf2276a07af358]
link Admin to UC10--><g id="link_Admin_UC10"><path d="M88.39,1523.97 C108.8,1488.96 143.52,1439.06 188,1412 C221.1,1391.86 261.76,1380.89 299.02,1375.01 " fill="none" id="Admin-UC10" style="stroke:#181818;stroke-width:1.0;"/></g><!--MD5=[8f16c34dc1dc3f309d315c618429d717]
link Admin to UC11--><g id="link_Admin_UC11"><path d="M108.72,1546.81 C131.77,1537.96 161.26,1527.17 188,1519 C221.33,1508.81 257.95,1499.18 291.56,1490.95 " fill="none" id="Admin-UC11" style="stroke:#181818;stroke-width:1.0;"/></g><!--MD5=[c31037f15156d2a01222dbda8c8cc7ec]
link Admin to UC12--><g id="link_Admin_UC12"><path d="M108.55,1563 C152.58,1563 224.96,1563 287.42,1563 " fill="none" id="Admin-UC12" style="stroke:#181818;stroke-width:1.0;"/></g><!--MD5=[750c79e97c99d11e6ca2ade46fdfa057]
link Admin to UC13--><g id="link_Admin_UC13"><path d="M108.53,1578.82 C131.65,1587.61 161.26,1598.45 188,1607 C218.13,1616.63 250.9,1626.12 281.68,1634.61 " fill="none" id="Admin-UC13" style="stroke:#181818;stroke-width:1.0;"/></g><!--MD5=[c12eb2951d1424ed842dd5adffe9d1c3]
link Admin to UC03--><g id="link_Admin_UC03"><path d="M74.24,1602.22 C85.72,1660.8 116,1770.33 188,1827 C219.56,1851.84 261.51,1863.45 300.24,1868.46 " fill="none" id="Admin-UC03" style="stroke:#181818;stroke-width:1.0;"/></g><!--MD5=[f8d1b379c57c72f6886d55772d390904]
link Admin to UC24--><g id="link_Admin_UC24"><path d="M86.26,1602.16 C105.97,1640.02 140.99,1696.08 188,1727 C213.5,1743.77 243.87,1754.96 273.75,1762.41 " fill="none" id="Admin-UC24" style="stroke:#181818;stroke-width:1.0;"/></g><!--MD5=[34dcae4decbf0322bf99910e25ee6924]
@startuml
'https://plantuml.com/use-case-diagram
left to right direction


:Administrator: as Admin
:Center Coordinator: as CC
:Receptionist: as RP
:Nurse: as NS
:SNS User: as User

(UC? - Obtain Vaccination Certificate) as (UC01)
(UC01 - Schedule Vaccination) as (UC02)
(UC02 - Schedule Vaccination) as (UC025)
(UC? - Check the SNS User Arrival list) as (UC17)
(UC? - Check SNS User Information) as (UC04)
(UC? - Check Vaccine Administration Instructions) as (UC05)
(UC? - Register administered Vaccine Information) as (UC06)
(UC? - Record Adverse Reaction) as (UC07)
(UC? - Check Statistics and Charts) as (UC08)
(UC? - Evaluate Vaccination Process Performance) as (UC18)
(UC? - Generate Report) as (UC19)
(UC? - Analyze Data from Other Centers) as (UC20)
(UC? - Register SNS User as Ready for Vaccine Administration) as (UC22)
(UC03 - Register a SNS User) as (UC03)
(UC04 - Register SNS User arrival) as (UC23)
(UC05 - Consult the Users in the vaccination center´s waiting room) as (UC21)
(UC09 - Register vaccination center) as (UC09)
(UC10 - Register an Employee) as (UC10)
(UC11 - Obtain list of Employess with a given role) as (UC11)
(UC12 - Specify new vaccine type) as (UC12)
(UC13 - Specify new vaccine and its administration process) as (UC13)
(UC14 - Load a set of users from a CSV file) as (UC24)
(UC18 - Get a list of all vaccines) as (UC25)



User - - (UC01)
User - - (UC02)

NS - - (UC01)
NS - - (UC17)
NS - - (UC04)
NS - - (UC05)
NS - - (UC06)
NS - - (UC07)
NS - - (UC21)

CC - - (UC08)
CC - - (UC18)
CC - - (UC19)
CC - - (UC20)
CC - - (UC25)

RP - - (UC025)
RP - - (UC22)
RP - - (UC03)
RP - - (UC23)

Admin - - (UC09)
Admin - - (UC10)
Admin - - (UC11)
Admin - - (UC12)
Admin - - (UC13)
Admin - - (UC03)
Admin - - (UC24)


@enduml

@startuml
left to right direction


:Administrator: as Admin
:Center Coordinator: as CC
:Receptionist: as RP
:Nurse: as NS
:SNS User: as User

(UC? - Obtain Vaccination Certificate) as (UC01)
(UC01 - Schedule Vaccination) as (UC02)
(UC02 - Schedule Vaccination) as (UC025)
(UC? - Check the SNS User Arrival list) as (UC17)
(UC? - Check SNS User Information) as (UC04)
(UC? - Check Vaccine Administration Instructions) as (UC05)
(UC? - Register administered Vaccine Information) as (UC06)
(UC? - Record Adverse Reaction) as (UC07)
(UC? - Check Statistics and Charts) as (UC08)
(UC? - Evaluate Vaccination Process Performance) as (UC18)
(UC? - Generate Report) as (UC19)
(UC? - Analyze Data from Other Centers) as (UC20)
(UC? - Register SNS User as Ready for Vaccine Administration) as (UC22)
(UC03 - Register a SNS User) as (UC03)
(UC04 - Register SNS User arrival) as (UC23)
(UC05 - Consult the Users in the vaccination center´s waiting room) as (UC21)
(UC09 - Register vaccination center) as (UC09)
(UC10 - Register an Employee) as (UC10)
(UC11 - Obtain list of Employess with a given role) as (UC11)
(UC12 - Specify new vaccine type) as (UC12)
(UC13 - Specify new vaccine and its administration process) as (UC13)
(UC14 - Load a set of users from a CSV file) as (UC24)
(UC18 - Get a list of all vaccines) as (UC25)



User - - (UC01)
User - - (UC02)

NS - - (UC01)
NS - - (UC17)
NS - - (UC04)
NS - - (UC05)
NS - - (UC06)
NS - - (UC07)
NS - - (UC21)

CC - - (UC08)
CC - - (UC18)
CC - - (UC19)
CC - - (UC20)
CC - - (UC25)

RP - - (UC025)
RP - - (UC22)
RP - - (UC03)
RP - - (UC23)

Admin - - (UC09)
Admin - - (UC10)
Admin - - (UC11)
Admin - - (UC12)
Admin - - (UC13)
Admin - - (UC03)
Admin - - (UC24)


@enduml

PlantUML version 1.2022.4(Sat Apr 09 14:29:17 BST 2022)
(GPL source distribution)
Java Runtime: OpenJDK Runtime Environment
JVM: OpenJDK 64-Bit Server VM
Default Encoding: Cp1252
Language: pt
Country: PT
--></g></svg>