<?xml version="1.0" encoding="UTF-8" standalone="no"?><svg xmlns="http://www.w3.org/2000/svg" xmlns:xlink="http://www.w3.org/1999/xlink" contentStyleType="text/css" height="619px" preserveAspectRatio="none" style="width:436px;height:619px;background:#FFFFFF;" version="1.1" viewBox="0 0 436 619" width="436px" zoomAndPan="magnify"><defs/><g><!--MD5=[02e4b9b7573f1156f41e60aa5b4e25a4]
class Company--><g id="elem_Company"><rect codeLine="4" fill="#F1F1F1" height="57.6094" id="Company" rx="2.5" ry="2.5" style="stroke:#181818;stroke-width:0.5;" width="92" x="21.36" y="24.5"/><ellipse cx="36.36" cy="40.5" fill="#ADD1B2" rx="11" ry="11" style="stroke:#181818;stroke-width:1.0;"/><path d="M38.36,37 Q38.5631,36.5 38.7975,36.25 Q39.0319,36 39.2975,36 Q39.7663,36 40.0631,36.2813 Q40.36,36.5625 40.36,37.2188 L40.36,38.7813 Q40.36,39.4375 40.0788,39.7188 Q39.7975,40 39.36,40 Q38.9694,40 38.7194,39.8281 Q38.4694,39.6563 38.36,39.2031 Q38.3131,38.8906 38.1413,38.7188 Q37.8288,38.3906 37.2663,38.2031 Q36.7038,38 36.1413,38 Q35.4381,38 34.8444,38.2813 Q34.2663,38.5625 33.8131,39.1875 Q33.36,39.8125 33.36,40.6719 L33.36,41.5938 Q33.36,42.625 34.2038,43.3125 Q35.0475,44 36.5475,44 Q37.4381,44 38.0631,43.7969 Q38.4225,43.6875 38.8288,43.3281 Q39.0944,43.125 39.235,43.0625 Q39.3756,43 39.5475,43 Q39.8756,43 40.11,43.2656 Q40.36,43.5156 40.36,43.875 Q40.36,44.2188 40.0163,44.625 Q39.5163,45.2188 38.7194,45.5469 Q37.6725,46 36.3913,46 Q34.8913,46 33.6881,45.4063 Q32.7194,44.9375 32.0319,43.9219 Q31.36,42.9063 31.36,41.7031 L31.36,40.6094 Q31.36,39.3594 31.9538,38.2656 Q32.5631,37.1719 33.61,36.5938 Q34.6725,36 35.86,36 Q36.5788,36 37.2038,36.25 Q37.8288,36.5 38.36,37 Z " fill="#000000"/><text fill="#000000" font-family="sans-serif" font-size="14" lengthAdjust="spacing" textLength="60" x="50.36" y="46.2285">Company</text><line style="stroke:#181818;stroke-width:0.5;" x1="22.36" x2="112.36" y1="56.5" y2="56.5"/><text fill="#000000" font-family="sans-serif" font-size="14" lengthAdjust="spacing" textLength="78" x="27.36" y="75.0332">-designation</text></g><!--MD5=[19e445fc4d3b48519cbe33da05496394]
class Vaccine--><g id="elem_Vaccine"><rect codeLine="8" fill="#F1F1F1" height="92.8281" id="Vaccine" rx="2.5" ry="2.5" style="stroke:#181818;stroke-width:0.5;" width="82" x="123.36" y="349"/><ellipse cx="138.36" cy="365" fill="#ADD1B2" rx="11" ry="11" style="stroke:#181818;stroke-width:1.0;"/><path d="M140.36,361.5 Q140.5631,361 140.7975,360.75 Q141.0319,360.5 141.2975,360.5 Q141.7663,360.5 142.0631,360.7813 Q142.36,361.0625 142.36,361.7188 L142.36,363.2813 Q142.36,363.9375 142.0788,364.2188 Q141.7975,364.5 141.36,364.5 Q140.9694,364.5 140.7194,364.3281 Q140.4694,364.1563 140.36,363.7031 Q140.3131,363.3906 140.1413,363.2188 Q139.8288,362.8906 139.2663,362.7031 Q138.7038,362.5 138.1413,362.5 Q137.4381,362.5 136.8444,362.7813 Q136.2663,363.0625 135.8131,363.6875 Q135.36,364.3125 135.36,365.1719 L135.36,366.0938 Q135.36,367.125 136.2038,367.8125 Q137.0475,368.5 138.5475,368.5 Q139.4381,368.5 140.0631,368.2969 Q140.4225,368.1875 140.8288,367.8281 Q141.0944,367.625 141.235,367.5625 Q141.3756,367.5 141.5475,367.5 Q141.8756,367.5 142.11,367.7656 Q142.36,368.0156 142.36,368.375 Q142.36,368.7188 142.0163,369.125 Q141.5163,369.7188 140.7194,370.0469 Q139.6725,370.5 138.3913,370.5 Q136.8913,370.5 135.6881,369.9063 Q134.7194,369.4375 134.0319,368.4219 Q133.36,367.4063 133.36,366.2031 L133.36,365.1094 Q133.36,363.8594 133.9538,362.7656 Q134.5631,361.6719 135.61,361.0938 Q136.6725,360.5 137.86,360.5 Q138.5788,360.5 139.2038,360.75 Q139.8288,361 140.36,361.5 Z " fill="#000000"/><text fill="#000000" font-family="sans-serif" font-size="14" lengthAdjust="spacing" textLength="50" x="152.36" y="370.7285">Vaccine</text><line style="stroke:#181818;stroke-width:0.5;" x1="124.36" x2="204.36" y1="381" y2="381"/><text fill="#000000" font-family="sans-serif" font-size="14" lengthAdjust="spacing" textLength="64" x="129.36" y="399.5332">-vaccineId</text><text fill="#000000" font-family="sans-serif" font-size="14" lengthAdjust="spacing" textLength="40" x="129.36" y="417.1426">-name</text><text fill="#000000" font-family="sans-serif" font-size="14" lengthAdjust="spacing" textLength="42" x="129.36" y="434.752">-brand</text></g><!--MD5=[a2530d24bafc45bb45314d96545aa194]
class AdministrationProcess--><g id="elem_AdministrationProcess"><rect codeLine="14" fill="#F1F1F1" height="92.8281" id="AdministrationProcess" rx="2.5" ry="2.5" style="stroke:#181818;stroke-width:0.5;" width="172" x="257.36" y="178"/><ellipse cx="272.36" cy="194" fill="#ADD1B2" rx="11" ry="11" style="stroke:#181818;stroke-width:1.0;"/><path d="M274.36,190.5 Q274.5631,190 274.7975,189.75 Q275.0319,189.5 275.2975,189.5 Q275.7663,189.5 276.0631,189.7813 Q276.36,190.0625 276.36,190.7188 L276.36,192.2813 Q276.36,192.9375 276.0788,193.2188 Q275.7975,193.5 275.36,193.5 Q274.9694,193.5 274.7194,193.3281 Q274.4694,193.1563 274.36,192.7031 Q274.3131,192.3906 274.1413,192.2188 Q273.8288,191.8906 273.2663,191.7031 Q272.7038,191.5 272.1413,191.5 Q271.4381,191.5 270.8444,191.7813 Q270.2663,192.0625 269.8131,192.6875 Q269.36,193.3125 269.36,194.1719 L269.36,195.0938 Q269.36,196.125 270.2038,196.8125 Q271.0475,197.5 272.5475,197.5 Q273.4381,197.5 274.0631,197.2969 Q274.4225,197.1875 274.8288,196.8281 Q275.0944,196.625 275.235,196.5625 Q275.3756,196.5 275.5475,196.5 Q275.8756,196.5 276.11,196.7656 Q276.36,197.0156 276.36,197.375 Q276.36,197.7188 276.0163,198.125 Q275.5163,198.7188 274.7194,199.0469 Q273.6725,199.5 272.3913,199.5 Q270.8913,199.5 269.6881,198.9063 Q268.7194,198.4375 268.0319,197.4219 Q267.36,196.4063 267.36,195.2031 L267.36,194.1094 Q267.36,192.8594 267.9538,191.7656 Q268.5631,190.6719 269.61,190.0938 Q270.6725,189.5 271.86,189.5 Q272.5788,189.5 273.2038,189.75 Q273.8288,190 274.36,190.5 Z " fill="#000000"/><text fill="#000000" font-family="sans-serif" font-size="14" lengthAdjust="spacing" textLength="140" x="286.36" y="199.7285">AdministrationProcess</text><line style="stroke:#181818;stroke-width:0.5;" x1="258.36" x2="428.36" y1="210" y2="210"/><text fill="#000000" font-family="sans-serif" font-size="14" lengthAdjust="spacing" textLength="108" x="263.36" y="228.5332">-numberOfDoses</text><text fill="#000000" font-family="sans-serif" font-size="14" lengthAdjust="spacing" textLength="88" x="263.36" y="246.1426">-maximumAge</text><text fill="#000000" font-family="sans-serif" font-size="14" lengthAdjust="spacing" textLength="90" x="263.36" y="263.752">-minumumAge</text></g><!--MD5=[da547346deef918ea16944ba046651ef]
class Administrator--><g id="elem_Administrator"><rect codeLine="20" fill="#F1F1F1" height="40" id="Administrator" rx="2.5" ry="2.5" style="stroke:#181818;stroke-width:0.5;" width="115" x="106.86" y="204.5"/><ellipse cx="121.86" cy="220.5" fill="#ADD1B2" rx="11" ry="11" style="stroke:#181818;stroke-width:1.0;"/><path d="M123.86,217 Q124.0631,216.5 124.2975,216.25 Q124.5319,216 124.7975,216 Q125.2663,216 125.5631,216.2813 Q125.86,216.5625 125.86,217.2188 L125.86,218.7813 Q125.86,219.4375 125.5788,219.7188 Q125.2975,220 124.86,220 Q124.4694,220 124.2194,219.8281 Q123.9694,219.6563 123.86,219.2031 Q123.8131,218.8906 123.6413,218.7188 Q123.3288,218.3906 122.7663,218.2031 Q122.2038,218 121.6413,218 Q120.9381,218 120.3444,218.2813 Q119.7663,218.5625 119.3131,219.1875 Q118.86,219.8125 118.86,220.6719 L118.86,221.5938 Q118.86,222.625 119.7038,223.3125 Q120.5475,224 122.0475,224 Q122.9381,224 123.5631,223.7969 Q123.9225,223.6875 124.3288,223.3281 Q124.5944,223.125 124.735,223.0625 Q124.8756,223 125.0475,223 Q125.3756,223 125.61,223.2656 Q125.86,223.5156 125.86,223.875 Q125.86,224.2188 125.5163,224.625 Q125.0163,225.2188 124.2194,225.5469 Q123.1725,226 121.8913,226 Q120.3913,226 119.1881,225.4063 Q118.2194,224.9375 117.5319,223.9219 Q116.86,222.9063 116.86,221.7031 L116.86,220.6094 Q116.86,219.3594 117.4538,218.2656 Q118.0631,217.1719 119.11,216.5938 Q120.1725,216 121.36,216 Q122.0788,216 122.7038,216.25 Q123.3288,216.5 123.86,217 Z " fill="#000000"/><text fill="#000000" font-family="sans-serif" font-size="14" lengthAdjust="spacing" textLength="83" x="135.86" y="226.2285">Administrator</text><line style="stroke:#181818;stroke-width:0.5;" x1="107.86" x2="220.86" y1="236.5" y2="236.5"/></g><!--MD5=[03e3bb7aef77bf14822eb3fb6d15ab17]
class Dose--><g id="elem_Dose"><rect codeLine="22" fill="#F1F1F1" height="92.8281" id="Dose" rx="2.5" ry="2.5" style="stroke:#181818;stroke-width:0.5;" width="137" x="274.86" y="7"/><ellipse cx="322.61" cy="23" fill="#ADD1B2" rx="11" ry="11" style="stroke:#181818;stroke-width:1.0;"/><path d="M324.61,19.5 Q324.8131,19 325.0475,18.75 Q325.2819,18.5 325.5475,18.5 Q326.0163,18.5 326.3131,18.7813 Q326.61,19.0625 326.61,19.7188 L326.61,21.2813 Q326.61,21.9375 326.3288,22.2188 Q326.0475,22.5 325.61,22.5 Q325.2194,22.5 324.9694,22.3281 Q324.7194,22.1563 324.61,21.7031 Q324.5631,21.3906 324.3913,21.2188 Q324.0788,20.8906 323.5163,20.7031 Q322.9538,20.5 322.3913,20.5 Q321.6881,20.5 321.0944,20.7813 Q320.5163,21.0625 320.0631,21.6875 Q319.61,22.3125 319.61,23.1719 L319.61,24.0938 Q319.61,25.125 320.4538,25.8125 Q321.2975,26.5 322.7975,26.5 Q323.6881,26.5 324.3131,26.2969 Q324.6725,26.1875 325.0788,25.8281 Q325.3444,25.625 325.485,25.5625 Q325.6256,25.5 325.7975,25.5 Q326.1256,25.5 326.36,25.7656 Q326.61,26.0156 326.61,26.375 Q326.61,26.7188 326.2663,27.125 Q325.7663,27.7188 324.9694,28.0469 Q323.9225,28.5 322.6413,28.5 Q321.1413,28.5 319.9381,27.9063 Q318.9694,27.4375 318.2819,26.4219 Q317.61,25.4063 317.61,24.2031 L317.61,23.1094 Q317.61,21.8594 318.2038,20.7656 Q318.8131,19.6719 319.86,19.0938 Q320.9225,18.5 322.11,18.5 Q322.8288,18.5 323.4538,18.75 Q324.0788,19 324.61,19.5 Z " fill="#000000"/><text fill="#000000" font-family="sans-serif" font-size="14" lengthAdjust="spacing" textLength="33" x="343.11" y="28.7285">Dose</text><line style="stroke:#181818;stroke-width:0.5;" x1="275.86" x2="410.86" y1="39" y2="39"/><text fill="#000000" font-family="sans-serif" font-size="14" lengthAdjust="spacing" textLength="85" x="280.86" y="57.5332">-doseNumber</text><text fill="#000000" font-family="sans-serif" font-size="14" lengthAdjust="spacing" textLength="52" x="280.86" y="75.1426">-dosage</text><text fill="#000000" font-family="sans-serif" font-size="14" lengthAdjust="spacing" textLength="125" x="280.86" y="92.752">-timeBetweenDoses</text></g><!--MD5=[0e501da62322464167c8ec4d233a6b7e]
class VaccineType--><g id="elem_VaccineType"><rect codeLine="29" fill="#F1F1F1" height="92.8281" id="VaccineType" rx="2.5" ry="2.5" style="stroke:#181818;stroke-width:0.5;" width="139" x="94.86" y="520"/><ellipse cx="121.11" cy="536" fill="#ADD1B2" rx="11" ry="11" style="stroke:#181818;stroke-width:1.0;"/><path d="M123.11,532.5 Q123.3131,532 123.5475,531.75 Q123.7819,531.5 124.0475,531.5 Q124.5163,531.5 124.8131,531.7813 Q125.11,532.0625 125.11,532.7188 L125.11,534.2813 Q125.11,534.9375 124.8288,535.2188 Q124.5475,535.5 124.11,535.5 Q123.7194,535.5 123.4694,535.3281 Q123.2194,535.1563 123.11,534.7031 Q123.0631,534.3906 122.8913,534.2188 Q122.5788,533.8906 122.0163,533.7031 Q121.4538,533.5 120.8913,533.5 Q120.1881,533.5 119.5944,533.7813 Q119.0163,534.0625 118.5631,534.6875 Q118.11,535.3125 118.11,536.1719 L118.11,537.0938 Q118.11,538.125 118.9538,538.8125 Q119.7975,539.5 121.2975,539.5 Q122.1881,539.5 122.8131,539.2969 Q123.1725,539.1875 123.5788,538.8281 Q123.8444,538.625 123.985,538.5625 Q124.1256,538.5 124.2975,538.5 Q124.6256,538.5 124.86,538.7656 Q125.11,539.0156 125.11,539.375 Q125.11,539.7188 124.7663,540.125 Q124.2663,540.7188 123.4694,541.0469 Q122.4225,541.5 121.1413,541.5 Q119.6413,541.5 118.4381,540.9063 Q117.4694,540.4375 116.7819,539.4219 Q116.11,538.4063 116.11,537.2031 L116.11,536.1094 Q116.11,534.8594 116.7038,533.7656 Q117.3131,532.6719 118.36,532.0938 Q119.4225,531.5 120.61,531.5 Q121.3288,531.5 121.9538,531.75 Q122.5788,532 123.11,532.5 Z " fill="#000000"/><text fill="#000000" font-family="sans-serif" font-size="14" lengthAdjust="spacing" textLength="82" x="137.61" y="541.7285">VaccineType</text><line style="stroke:#181818;stroke-width:0.5;" x1="95.86" x2="232.86" y1="552" y2="552"/><text fill="#000000" font-family="sans-serif" font-size="14" lengthAdjust="spacing" textLength="36" x="100.86" y="570.5332">-code</text><text fill="#000000" font-family="sans-serif" font-size="14" lengthAdjust="spacing" textLength="74" x="100.86" y="588.1426">-description</text><text fill="#000000" font-family="sans-serif" font-size="14" lengthAdjust="spacing" textLength="127" x="100.86" y="605.752">-vaccineTechnology</text></g><!--MD5=[c29c8d42883934cbaf5793c72a334947]
link Company to Vaccine--><g id="link_Company_Vaccine"><path codeLine="35" d="M53.45,82.73 C34.52,125.27 6,207.6 33.36,271 C51.57,313.19 92.06,347.65 123.24,369.34 " fill="none" id="Company-Vaccine" style="stroke:#181818;stroke-width:1.0;"/><polygon fill="#000000" points="39.5429,229.5338,40.2585,220.0502,34.5475,221.4409,39.5429,229.5338" style="stroke:#000000;stroke-width:1.0;"/><text fill="#000000" font-family="sans-serif" font-size="13" lengthAdjust="spacing" textLength="41" x="47.36" y="229.9951">applies</text><text fill="#000000" font-family="sans-serif" font-size="13" lengthAdjust="spacing" textLength="7" x="43.0224" y="103.6278">1</text><text fill="#000000" font-family="sans-serif" font-size="13" lengthAdjust="spacing" textLength="20" x="95.4123" y="361.6444">1..*</text></g><!--MD5=[eaea43e34e45c5b9d20b595fc78f1f20]
link Company to Administrator--><g id="link_Company_Administrator"><path codeLine="36" d="M83.6,82.79 C103.33,117.18 136.12,174.31 153.22,204.09 " fill="none" id="Company-Administrator" style="stroke:#181818;stroke-width:1.0;"/><polygon fill="#000000" points="125.8489,143.5123,123.8953,134.2045,118.7975,137.1304,125.8489,143.5123" style="stroke:#000000;stroke-width:1.0;"/><text fill="#000000" font-family="sans-serif" font-size="13" lengthAdjust="spacing" textLength="37" x="132.36" y="144.4951">knows</text><text fill="#000000" font-family="sans-serif" font-size="13" lengthAdjust="spacing" textLength="7" x="79.1082" y="103.6996">1</text><text fill="#000000" font-family="sans-serif" font-size="13" lengthAdjust="spacing" textLength="5" x="144.3838" y="193.6442">*</text></g><!--MD5=[0e439f75a3d966f965fe5f237a1bacbe]
link Administrator to Vaccine--><g id="link_Administrator_Vaccine"><path codeLine="37" d="M164.36,244.56 C164.36,269.68 164.36,314.68 164.36,348.85 " fill="none" id="Administrator-Vaccine" style="stroke:#181818;stroke-width:1.0;"/><polygon fill="#000000" points="169.36,315.1758,172.2989,306.1307,166.4211,306.1307,169.36,315.1758" style="stroke:#000000;stroke-width:1.0;"/><text fill="#000000" font-family="sans-serif" font-size="13" lengthAdjust="spacing" textLength="50" x="178.36" y="315.4951">registers</text><text fill="#000000" font-family="sans-serif" font-size="13" lengthAdjust="spacing" textLength="20" x="141.5475" y="265.9964">1..*</text><text fill="#000000" font-family="sans-serif" font-size="13" lengthAdjust="spacing" textLength="5" x="158.9772" y="338.0169">*</text></g><!--MD5=[3568623adf67b2630dce9e60c05bd02a]
link Vaccine to VaccineType--><g id="link_Vaccine_VaccineType"><path codeLine="38" d="M164.36,442.23 C164.36,466.28 164.36,495.68 164.36,519.73 " fill="none" id="Vaccine-VaccineType" style="stroke:#181818;stroke-width:1.0;"/><polygon fill="#000000" points="169.36,486.1758,172.2989,477.1307,166.4211,477.1307,169.36,486.1758" style="stroke:#000000;stroke-width:1.0;"/><text fill="#000000" font-family="sans-serif" font-size="13" lengthAdjust="spacing" textLength="24" x="178.36" y="486.4951">is of</text><text fill="#000000" font-family="sans-serif" font-size="13" lengthAdjust="spacing" textLength="20" x="142.9538" y="463.4583">1..*</text><text fill="#000000" font-family="sans-serif" font-size="13" lengthAdjust="spacing" textLength="7" x="156.8459" y="509.2192">1</text></g><!--MD5=[ffb370db50a907c235422904daa744f4]
link AdministrationProcess to Vaccine--><g id="link_AdministrationProcess_Vaccine"><path codeLine="39" d="M294.92,271.23 C266.96,297.63 232.19,330.46 205.55,355.61 " fill="none" id="AdministrationProcess-Vaccine" style="stroke:#181818;stroke-width:1.0;"/><polygon fill="#000000" points="266.9956,306.7432,258.4011,310.8159,262.4364,315.0897,266.9956,306.7432" style="stroke:#000000;stroke-width:1.0;"/><text fill="#000000" font-family="sans-serif" font-size="13" lengthAdjust="spacing" textLength="21" x="272.36" y="315.4951">has</text><text fill="#000000" font-family="sans-serif" font-size="13" lengthAdjust="spacing" textLength="20" x="266.7019" y="292.4583">1..*</text><text fill="#000000" font-family="sans-serif" font-size="13" lengthAdjust="spacing" textLength="7" x="213.2311" y="344.919">1</text></g><!--MD5=[3cda8cb5cd46471c93796da6937f76e1]
link Dose to AdministrationProcess--><g id="link_Dose_AdministrationProcess"><path codeLine="40" d="M343.36,100.23 C343.36,124.28 343.36,153.68 343.36,177.73 " fill="none" id="Dose-AdministrationProcess" style="stroke:#181818;stroke-width:1.0;"/><polygon fill="#000000" points="348.36,134.1758,345.4211,143.2209,351.2989,143.2209,348.36,134.1758" style="stroke:#000000;stroke-width:1.0;"/><text fill="#000000" font-family="sans-serif" font-size="13" lengthAdjust="spacing" textLength="21" x="357.36" y="144.4951">has</text><text fill="#000000" font-family="sans-serif" font-size="13" lengthAdjust="spacing" textLength="20" x="321.9538" y="121.4583">1..*</text><text fill="#000000" font-family="sans-serif" font-size="13" lengthAdjust="spacing" textLength="7" x="335.8459" y="167.2192">1</text></g><!--MD5=[37666b6ed52d924792369c9aac18defb]
@startuml
hide methods
skinparam classAttributeIconSize 0

class Company {
-designation
}

class Vaccine {
-vaccineId
-name
-brand
}

class AdministrationProcess {
-numberOfDoses
-maximumAge
-minumumAge
}

class Administrator {}

class Dose {
-doseNumber
-dosage
-timeBetweenDoses
}


class VaccineType {
-code
-description
-vaccineTechnology
}

Company "1" - - "1..*" Vaccine : applies >
Company "1" - - "*" Administrator : knows >
Administrator "1..*" - - "*" Vaccine : registers >
Vaccine "1..*" - - "1" VaccineType : is of >
AdministrationProcess "1..*" - - "1" Vaccine : has <
Dose "1..*" - - "1" AdministrationProcess : has <


@enduml

PlantUML version 1.2022.4(Sat Apr 09 14:29:17 BST 2022)
(GPL source distribution)
Java Runtime: OpenJDK Runtime Environment
JVM: OpenJDK 64-Bit Server VM
Default Encoding: Cp1252
Language: pt
Country: PT
--></g></svg>