<?xml version="1.0" encoding="UTF-8" standalone="no"?><svg xmlns="http://www.w3.org/2000/svg" xmlns:xlink="http://www.w3.org/1999/xlink" contentStyleType="text/css" height="726.33px" preserveAspectRatio="none" style="width:1209px;height:726px;background:#FFFFFF;" version="1.1" viewBox="0 0 1209 726" width="1209.31px" zoomAndPan="magnify"><defs/><g><!--MD5=[eaecac35bfcc867594b40553749164d3]
class CreateVaccineUI--><g id="elem_CreateVaccineUI"><rect codeLine="3" fill="#F1F1F1" height="14.88" id="CreateVaccineUI" rx="0.775" ry="0.775" style="stroke:#181818;stroke-width:0.155;" width="42.47" x="649.295" y="2.17"/><ellipse cx="653.945" cy="7.13" fill="#ADD1B2" rx="3.41" ry="3.41" style="stroke:#181818;stroke-width:0.31;"/><path d="M654.565,6.045 Q654.628,5.89 654.7006,5.8125 Q654.7733,5.735 654.8556,5.735 Q655.0009,5.735 655.093,5.8222 Q655.185,5.9094 655.185,6.1128 L655.185,6.5972 Q655.185,6.8006 655.0978,6.8878 Q655.0106,6.975 654.875,6.975 Q654.7539,6.975 654.6764,6.9217 Q654.5989,6.8684 654.565,6.728 Q654.5505,6.6311 654.4972,6.5778 Q654.4003,6.4761 654.2259,6.418 Q654.0516,6.355 653.8772,6.355 Q653.6592,6.355 653.4752,6.4422 Q653.2959,6.5294 653.1555,6.7231 Q653.015,6.9169 653.015,7.1833 L653.015,7.4691 Q653.015,7.7888 653.2766,8.0019 Q653.5381,8.215 654.0031,8.215 Q654.2792,8.215 654.473,8.152 Q654.5844,8.1181 654.7103,8.0067 Q654.7927,7.9438 654.8363,7.9244 Q654.8798,7.905 654.9331,7.905 Q655.0348,7.905 655.1075,7.9873 Q655.185,8.0648 655.185,8.1763 Q655.185,8.2828 655.0784,8.4088 Q654.9234,8.5928 654.6764,8.6945 Q654.3519,8.835 653.9547,8.835 Q653.4897,8.835 653.1167,8.6509 Q652.8164,8.5056 652.6033,8.1908 Q652.395,7.8759 652.395,7.503 L652.395,7.1639 Q652.395,6.7764 652.5791,6.4373 Q652.768,6.0983 653.0925,5.9191 Q653.4219,5.735 653.79,5.735 Q654.0128,5.735 654.2066,5.8125 Q654.4003,5.89 654.565,6.045 Z " fill="#000000"/><text fill="#000000" font-family="sans-serif" font-size="4.34" lengthAdjust="spacing" textLength="32.55" x="658.285" y="8.9058">CreateVaccineUI</text><line style="stroke:#181818;stroke-width:0.155;" x1="649.605" x2="691.455" y1="12.09" y2="12.09"/><line style="stroke:#181818;stroke-width:0.155;" x1="649.605" x2="691.455" y1="14.57" y2="14.57"/></g><!--MD5=[e3fe9ca45d675002756d7970c4653999]
class CreateVaccineController--><g id="elem_CreateVaccineController"><rect codeLine="5" fill="#F1F1F1" height="42.1745" id="CreateVaccineController" rx="0.775" ry="0.775" style="stroke:#181818;stroke-width:0.155;" width="155.31" x="592.875" y="35.96"/><ellipse cx="645.1875" cy="40.92" fill="#ADD1B2" rx="3.41" ry="3.41" style="stroke:#181818;stroke-width:0.31;"/><path d="M645.8075,39.835 Q645.8705,39.68 645.9431,39.6025 Q646.0158,39.525 646.0981,39.525 Q646.2434,39.525 646.3355,39.6122 Q646.4275,39.6994 646.4275,39.9028 L646.4275,40.3872 Q646.4275,40.5906 646.3403,40.6778 Q646.2531,40.765 646.1175,40.765 Q645.9964,40.765 645.9189,40.7117 Q645.8414,40.6584 645.8075,40.518 Q645.793,40.4211 645.7397,40.3678 Q645.6428,40.2661 645.4684,40.208 Q645.2941,40.145 645.1197,40.145 Q644.9017,40.145 644.7177,40.2322 Q644.5384,40.3194 644.398,40.5131 Q644.2575,40.7069 644.2575,40.9733 L644.2575,41.2591 Q644.2575,41.5788 644.5191,41.7919 Q644.7806,42.005 645.2456,42.005 Q645.5217,42.005 645.7155,41.942 Q645.8269,41.9081 645.9528,41.7967 Q646.0352,41.7338 646.0788,41.7144 Q646.1223,41.695 646.1756,41.695 Q646.2773,41.695 646.35,41.7773 Q646.4275,41.8548 646.4275,41.9663 Q646.4275,42.0728 646.3209,42.1988 Q646.1659,42.3828 645.9189,42.4845 Q645.5944,42.625 645.1972,42.625 Q644.7322,42.625 644.3592,42.4409 Q644.0589,42.2956 643.8458,41.9808 Q643.6375,41.6659 643.6375,41.293 L643.6375,40.9539 Q643.6375,40.5664 643.8216,40.2273 Q644.0105,39.8883 644.335,39.7091 Q644.6644,39.525 645.0325,39.525 Q645.2553,39.525 645.4491,39.6025 Q645.6428,39.68 645.8075,39.835 Z " fill="#000000"/><text fill="#000000" font-family="sans-serif" font-size="4.34" lengthAdjust="spacing" textLength="48.05" x="651.5425" y="42.6958">CreateVaccineController</text><line style="stroke:#181818;stroke-width:0.155;" x1="593.185" x2="747.875" y1="45.88" y2="45.88"/><line style="stroke:#181818;stroke-width:0.155;" x1="593.185" x2="747.875" y1="48.36" y2="48.36"/><text fill="#000000" font-family="sans-serif" font-size="4.34" lengthAdjust="spacing" textLength="98.58" x="594.735" y="54.1053">+getListOfVaccineTypes() : List&lt;VaccineTypeDto&gt;</text><text fill="#000000" font-family="sans-serif" font-size="4.34" lengthAdjust="spacing" textLength="100.75" x="594.735" y="59.5642">+createVaccine(vaccineDto : VaccineDto) : boolean</text><text fill="#000000" font-family="sans-serif" font-size="4.34" lengthAdjust="spacing" textLength="114.7" x="594.735" y="65.0231">+createAdmProcess(admpDto : AdmProcessDto) : boolean</text><text fill="#000000" font-family="sans-serif" font-size="4.34" lengthAdjust="spacing" textLength="151.59" x="594.735" y="70.482">+createDose((admp : AdministrationProcess), (doseDto : DoseDto)) : boolean</text><text fill="#000000" font-family="sans-serif" font-size="4.34" lengthAdjust="spacing" textLength="49.91" x="594.735" y="75.9409">+saveVaccine() : boolean</text></g><!--MD5=[02e4b9b7573f1156f41e60aa5b4e25a4]
class Company--><g id="elem_Company"><rect codeLine="13" fill="#F1F1F1" height="42.1745" id="Company" rx="0.775" ry="0.775" style="stroke:#181818;stroke-width:0.155;" width="128.96" x="606.05" y="97.03"/><ellipse cx="659.9125" cy="101.99" fill="#ADD1B2" rx="3.41" ry="3.41" style="stroke:#181818;stroke-width:0.31;"/><path d="M660.5325,100.905 Q660.5955,100.75 660.6681,100.6725 Q660.7408,100.595 660.8231,100.595 Q660.9684,100.595 661.0605,100.6822 Q661.1525,100.7694 661.1525,100.9728 L661.1525,101.4572 Q661.1525,101.6606 661.0653,101.7478 Q660.9781,101.835 660.8425,101.835 Q660.7214,101.835 660.6439,101.7817 Q660.5664,101.7284 660.5325,101.588 Q660.518,101.4911 660.4647,101.4378 Q660.3678,101.3361 660.1934,101.278 Q660.0191,101.215 659.8447,101.215 Q659.6267,101.215 659.4427,101.3022 Q659.2634,101.3894 659.123,101.5831 Q658.9825,101.7769 658.9825,102.0433 L658.9825,102.3291 Q658.9825,102.6487 659.2441,102.8619 Q659.5056,103.075 659.9706,103.075 Q660.2467,103.075 660.4405,103.012 Q660.5519,102.9781 660.6778,102.8667 Q660.7602,102.8038 660.8038,102.7844 Q660.8473,102.765 660.9006,102.765 Q661.0023,102.765 661.075,102.8473 Q661.1525,102.9248 661.1525,103.0363 Q661.1525,103.1428 661.0459,103.2688 Q660.8909,103.4528 660.6439,103.5545 Q660.3194,103.695 659.9222,103.695 Q659.4572,103.695 659.0842,103.5109 Q658.7839,103.3656 658.5708,103.0508 Q658.3625,102.7359 658.3625,102.363 L658.3625,102.0239 Q658.3625,101.6364 658.5466,101.2973 Q658.7355,100.9583 659.06,100.7791 Q659.3894,100.595 659.7575,100.595 Q659.9803,100.595 660.1741,100.6725 Q660.3678,100.75 660.5325,100.905 Z " fill="#000000"/><text fill="#000000" font-family="sans-serif" font-size="4.34" lengthAdjust="spacing" textLength="18.6" x="666.2675" y="103.7658">Company</text><line style="stroke:#181818;stroke-width:0.155;" x1="606.36" x2="734.7" y1="106.95" y2="106.95"/><text fill="#000000" font-family="sans-serif" font-size="4.34" lengthAdjust="spacing" textLength="51.15" x="607.91" y="112.6953">-designation : Designation</text><line style="stroke:#181818;stroke-width:0.155;" x1="606.36" x2="734.7" y1="114.8889" y2="114.8889"/><text fill="#000000" font-family="sans-serif" font-size="4.34" lengthAdjust="spacing" textLength="67.58" x="607.91" y="120.6342">+getVTStore() : VaccineTypeStore</text><text fill="#000000" font-family="sans-serif" font-size="4.34" lengthAdjust="spacing" textLength="100.44" x="607.91" y="126.0931">+createVaccine(vaccineDto : VaccineDto) : Vaccine</text><text fill="#000000" font-family="sans-serif" font-size="4.34" lengthAdjust="spacing" textLength="89.9" x="607.91" y="131.552">+validateVaccine(vaccine : Vaccine) : boolean</text><text fill="#000000" font-family="sans-serif" font-size="4.34" lengthAdjust="spacing" textLength="125.24" x="607.91" y="137.0109">+saveVaccine((vaccine : Vaccine), (vt : VaccineType)) : boolean</text></g><!--MD5=[9532c95099058dfe385d7270fd32fc0d]
class VaccineTypeStore--><g id="elem_VaccineTypeStore"><rect codeLine="21" fill="#F1F1F1" height="36.7156" id="VaccineTypeStore" rx="0.775" ry="0.775" style="stroke:#181818;stroke-width:0.155;" width="130.51" x="523.745" y="171.585"/><ellipse cx="569.7025" cy="176.545" fill="#ADD1B2" rx="3.41" ry="3.41" style="stroke:#181818;stroke-width:0.31;"/><path d="M570.3225,175.46 Q570.3855,175.305 570.4581,175.2275 Q570.5308,175.15 570.6131,175.15 Q570.7584,175.15 570.8505,175.2372 Q570.9425,175.3244 570.9425,175.5278 L570.9425,176.0122 Q570.9425,176.2156 570.8553,176.3028 Q570.7681,176.39 570.6325,176.39 Q570.5114,176.39 570.4339,176.3367 Q570.3564,176.2834 570.3225,176.143 Q570.308,176.0461 570.2547,175.9928 Q570.1578,175.8911 569.9834,175.833 Q569.8091,175.77 569.6347,175.77 Q569.4167,175.77 569.2327,175.8572 Q569.0534,175.9444 568.913,176.1381 Q568.7725,176.3319 568.7725,176.5983 L568.7725,176.8841 Q568.7725,177.2037 569.0341,177.4169 Q569.2956,177.63 569.7606,177.63 Q570.0367,177.63 570.2305,177.567 Q570.3419,177.5331 570.4678,177.4217 Q570.5502,177.3588 570.5938,177.3394 Q570.6373,177.32 570.6906,177.32 Q570.7923,177.32 570.865,177.4023 Q570.9425,177.4798 570.9425,177.5913 Q570.9425,177.6978 570.8359,177.8238 Q570.6809,178.0078 570.4339,178.1095 Q570.1094,178.25 569.7122,178.25 Q569.2472,178.25 568.8742,178.0659 Q568.5739,177.9206 568.3608,177.6058 Q568.1525,177.2909 568.1525,176.918 L568.1525,176.5789 Q568.1525,176.1914 568.3366,175.8523 Q568.5255,175.5133 568.85,175.3341 Q569.1794,175.15 569.5475,175.15 Q569.7703,175.15 569.9641,175.2275 Q570.1578,175.305 570.3225,175.46 Z " fill="#000000"/><text fill="#000000" font-family="sans-serif" font-size="4.34" lengthAdjust="spacing" textLength="35.96" x="576.0575" y="178.3208">VaccineTypeStore</text><line style="stroke:#181818;stroke-width:0.155;" x1="524.055" x2="653.945" y1="181.505" y2="181.505"/><text fill="#000000" font-family="sans-serif" font-size="4.34" lengthAdjust="spacing" textLength="53.32" x="525.605" y="187.2503">-listVT : List&lt;VaccineType&gt;</text><line style="stroke:#181818;stroke-width:0.155;" x1="524.055" x2="653.945" y1="189.4439" y2="189.4439"/><text fill="#000000" font-family="sans-serif" font-size="4.34" lengthAdjust="spacing" textLength="80.29" x="525.605" y="195.1892">+getVaccineTypes() : List&lt;VaccineType&gt;</text><text fill="#000000" font-family="sans-serif" font-size="4.34" lengthAdjust="spacing" textLength="74.4" x="525.605" y="200.6481">+find(vt : VaccineType) : VaccineType</text><text fill="#000000" font-family="sans-serif" font-size="4.34" lengthAdjust="spacing" textLength="126.79" x="525.605" y="206.107">+saveVaccine((vaccine : Vaccine), (vt : VaccineType))) : boolean</text></g><!--MD5=[d0d3f323c921ace052b18808f85f1ae6]
class VaccineTypeMapper--><g id="elem_VaccineTypeMapper"><rect codeLine="28" fill="#F1F1F1" height="25.7978" id="VaccineTypeMapper" rx="0.775" ry="0.775" style="stroke:#181818;stroke-width:0.155;" width="119.35" x="1041.135" y="105.245"/><ellipse cx="1079.3425" cy="110.205" fill="#ADD1B2" rx="3.41" ry="3.41" style="stroke:#181818;stroke-width:0.31;"/><path d="M1079.9625,109.12 Q1080.0255,108.965 1080.0981,108.8875 Q1080.1708,108.81 1080.2531,108.81 Q1080.3984,108.81 1080.4905,108.8972 Q1080.5825,108.9844 1080.5825,109.1878 L1080.5825,109.6722 Q1080.5825,109.8756 1080.4953,109.9628 Q1080.4081,110.05 1080.2725,110.05 Q1080.1514,110.05 1080.0739,109.9967 Q1079.9964,109.9434 1079.9625,109.803 Q1079.948,109.7061 1079.8947,109.6528 Q1079.7978,109.5511 1079.6234,109.493 Q1079.4491,109.43 1079.2747,109.43 Q1079.0567,109.43 1078.8727,109.5172 Q1078.6934,109.6044 1078.553,109.7981 Q1078.4125,109.9919 1078.4125,110.2583 L1078.4125,110.5441 Q1078.4125,110.8638 1078.6741,111.0769 Q1078.9356,111.29 1079.4006,111.29 Q1079.6767,111.29 1079.8705,111.227 Q1079.9819,111.1931 1080.1078,111.0817 Q1080.1902,111.0188 1080.2338,110.9994 Q1080.2773,110.98 1080.3306,110.98 Q1080.4323,110.98 1080.505,111.0623 Q1080.5825,111.1398 1080.5825,111.2513 Q1080.5825,111.3578 1080.4759,111.4838 Q1080.3209,111.6678 1080.0739,111.7695 Q1079.7494,111.91 1079.3522,111.91 Q1078.8872,111.91 1078.5142,111.7259 Q1078.2139,111.5806 1078.0008,111.2658 Q1077.7925,110.9509 1077.7925,110.578 L1077.7925,110.2389 Q1077.7925,109.8514 1077.9766,109.5123 Q1078.1655,109.1733 1078.49,108.9941 Q1078.8194,108.81 1079.1875,108.81 Q1079.4103,108.81 1079.6041,108.8875 Q1079.7978,108.965 1079.9625,109.12 Z " fill="#000000"/><text fill="#000000" font-family="sans-serif" font-size="4.34" lengthAdjust="spacing" textLength="40.3" x="1085.6975" y="111.9808">VaccineTypeMapper</text><line style="stroke:#181818;stroke-width:0.155;" x1="1041.445" x2="1160.175" y1="115.165" y2="115.165"/><line style="stroke:#181818;stroke-width:0.155;" x1="1041.445" x2="1160.175" y1="117.645" y2="117.645"/><text fill="#000000" font-family="sans-serif" font-size="4.34" lengthAdjust="spacing" textLength="115.63" x="1042.995" y="123.3903">+toDto(listVT : List&lt;VaccineType&gt;) : List&lt;VaccineTypeDto&gt;</text><text fill="#000000" font-family="sans-serif" font-size="4.34" lengthAdjust="spacing" textLength="96.41" x="1042.995" y="128.8492">+toModel(vtDto : VaccineTypeDto) : VaccineType</text></g><!--MD5=[16e898dea44373438d7a6991ca77efa0]
class VaccineStore--><g id="elem_VaccineStore"><rect codeLine="33" fill="#F1F1F1" height="36.7156" id="VaccineStore" rx="0.775" ry="0.775" style="stroke:#181818;stroke-width:0.155;" width="207.7" x="387.81" y="325.965"/><ellipse cx="477.3225" cy="330.925" fill="#ADD1B2" rx="3.41" ry="3.41" style="stroke:#181818;stroke-width:0.31;"/><path d="M477.9425,329.84 Q478.0055,329.685 478.0781,329.6075 Q478.1508,329.53 478.2331,329.53 Q478.3784,329.53 478.4705,329.6172 Q478.5625,329.7044 478.5625,329.9078 L478.5625,330.3922 Q478.5625,330.5956 478.4753,330.6828 Q478.3881,330.77 478.2525,330.77 Q478.1314,330.77 478.0539,330.7167 Q477.9764,330.6634 477.9425,330.523 Q477.928,330.4261 477.8747,330.3728 Q477.7778,330.2711 477.6034,330.213 Q477.4291,330.15 477.2547,330.15 Q477.0367,330.15 476.8527,330.2372 Q476.6734,330.3244 476.533,330.5181 Q476.3925,330.7119 476.3925,330.9783 L476.3925,331.2641 Q476.3925,331.5838 476.6541,331.7969 Q476.9156,332.01 477.3806,332.01 Q477.6567,332.01 477.8505,331.947 Q477.9619,331.9131 478.0878,331.8017 Q478.1702,331.7388 478.2138,331.7194 Q478.2573,331.7 478.3106,331.7 Q478.4123,331.7 478.485,331.7823 Q478.5625,331.8598 478.5625,331.9713 Q478.5625,332.0778 478.4559,332.2038 Q478.3009,332.3878 478.0539,332.4895 Q477.7294,332.63 477.3322,332.63 Q476.8672,332.63 476.4942,332.4459 Q476.1939,332.3006 475.9808,331.9858 Q475.7725,331.6709 475.7725,331.298 L475.7725,330.9589 Q475.7725,330.5714 475.9566,330.2323 Q476.1455,329.8933 476.47,329.7141 Q476.7994,329.53 477.1675,329.53 Q477.3903,329.53 477.5841,329.6075 Q477.7778,329.685 477.9425,329.84 Z " fill="#000000"/><text fill="#000000" font-family="sans-serif" font-size="4.34" lengthAdjust="spacing" textLength="26.04" x="483.6775" y="332.7008">VaccineStore</text><line style="stroke:#181818;stroke-width:0.155;" x1="388.12" x2="595.2" y1="335.885" y2="335.885"/><text fill="#000000" font-family="sans-serif" font-size="4.34" lengthAdjust="spacing" textLength="53.32" x="389.67" y="341.6303">-listVaccine : List&lt;Vaccine&gt;</text><line style="stroke:#181818;stroke-width:0.155;" x1="388.12" x2="595.2" y1="343.8239" y2="343.8239"/><text fill="#000000" font-family="sans-serif" font-size="4.34" lengthAdjust="spacing" textLength="89.9" x="389.67" y="349.5692">+validateVaccine(vaccine : Vaccine) : boolean</text><text fill="#000000" font-family="sans-serif" font-size="4.34" lengthAdjust="spacing" textLength="84.01" x="389.67" y="355.0281">+saveVaccine(vaccine : Vaccine) : boolean</text><text fill="#000000" font-family="sans-serif" font-size="4.34" lengthAdjust="spacing" textLength="203.98" x="389.67" y="360.487">+createVaccine((id : String), (name : String), (brand : String), (admpStore : AdmProcessStore)) : Vaccine</text></g><!--MD5=[7e9fe1443897cf6de07471b480b9f968]
class AdmProcessMapper--><g id="elem_AdmProcessMapper"><rect codeLine="40" fill="#F1F1F1" height="20.3389" id="AdmProcessMapper" rx="0.775" ry="0.775" style="stroke:#181818;stroke-width:0.155;" width="191.58" x="137.33" y="334.025"/><ellipse cx="212.1175" cy="338.985" fill="#ADD1B2" rx="3.41" ry="3.41" style="stroke:#181818;stroke-width:0.31;"/><path d="M212.7375,337.9 Q212.8005,337.745 212.8731,337.6675 Q212.9458,337.59 213.0281,337.59 Q213.1734,337.59 213.2655,337.6772 Q213.3575,337.7644 213.3575,337.9678 L213.3575,338.4522 Q213.3575,338.6556 213.2703,338.7428 Q213.1831,338.83 213.0475,338.83 Q212.9264,338.83 212.8489,338.7767 Q212.7714,338.7234 212.7375,338.583 Q212.723,338.4861 212.6697,338.4328 Q212.5728,338.3311 212.3984,338.273 Q212.2241,338.21 212.0497,338.21 Q211.8317,338.21 211.6477,338.2972 Q211.4684,338.3844 211.328,338.5781 Q211.1875,338.7719 211.1875,339.0383 L211.1875,339.3241 Q211.1875,339.6438 211.4491,339.8569 Q211.7106,340.07 212.1756,340.07 Q212.4517,340.07 212.6455,340.007 Q212.7569,339.9731 212.8828,339.8617 Q212.9652,339.7988 213.0088,339.7794 Q213.0523,339.76 213.1056,339.76 Q213.2073,339.76 213.28,339.8423 Q213.3575,339.9198 213.3575,340.0313 Q213.3575,340.1378 213.2509,340.2638 Q213.0959,340.4478 212.8489,340.5495 Q212.5244,340.69 212.1272,340.69 Q211.6622,340.69 211.2892,340.5059 Q210.9889,340.3606 210.7758,340.0458 Q210.5675,339.7309 210.5675,339.358 L210.5675,339.0189 Q210.5675,338.6314 210.7516,338.2923 Q210.9405,337.9533 211.265,337.7741 Q211.5944,337.59 211.9625,337.59 Q212.1853,337.59 212.3791,337.6675 Q212.5728,337.745 212.7375,337.9 Z " fill="#000000"/><text fill="#000000" font-family="sans-serif" font-size="4.34" lengthAdjust="spacing" textLength="39.37" x="218.4725" y="340.7608">AdmProcessMapper</text><line style="stroke:#181818;stroke-width:0.155;" x1="137.64" x2="328.6" y1="343.945" y2="343.945"/><line style="stroke:#181818;stroke-width:0.155;" x1="137.64" x2="328.6" y1="346.425" y2="346.425"/><text fill="#000000" font-family="sans-serif" font-size="4.34" lengthAdjust="spacing" textLength="187.86" x="139.19" y="352.1703">+createAdmProcess((vaccine : Vaccine), (admpDto : AdmProcessDto)) : AdministrationProcessA</text></g><!--MD5=[19e445fc4d3b48519cbe33da05496394]
class Vaccine--><g id="elem_Vaccine"><rect codeLine="44" fill="#F1F1F1" height="58.5513" id="Vaccine" rx="0.775" ry="0.775" style="stroke:#181818;stroke-width:0.155;" width="265.36" x="330.15" y="394.94"/><ellipse cx="453.7625" cy="399.9" fill="#ADD1B2" rx="3.41" ry="3.41" style="stroke:#181818;stroke-width:0.31;"/><path d="M454.3825,398.815 Q454.4455,398.66 454.5181,398.5825 Q454.5908,398.505 454.6731,398.505 Q454.8184,398.505 454.9105,398.5922 Q455.0025,398.6794 455.0025,398.8828 L455.0025,399.3672 Q455.0025,399.5706 454.9153,399.6578 Q454.8281,399.745 454.6925,399.745 Q454.5714,399.745 454.4939,399.6917 Q454.4164,399.6384 454.3825,399.498 Q454.368,399.4011 454.3147,399.3478 Q454.2178,399.2461 454.0434,399.188 Q453.8691,399.125 453.6947,399.125 Q453.4767,399.125 453.2927,399.2122 Q453.1134,399.2994 452.973,399.4931 Q452.8325,399.6869 452.8325,399.9533 L452.8325,400.2391 Q452.8325,400.5588 453.0941,400.7719 Q453.3556,400.985 453.8206,400.985 Q454.0967,400.985 454.2905,400.922 Q454.4019,400.8881 454.5278,400.7767 Q454.6102,400.7138 454.6538,400.6944 Q454.6973,400.675 454.7506,400.675 Q454.8523,400.675 454.925,400.7573 Q455.0025,400.8348 455.0025,400.9463 Q455.0025,401.0528 454.8959,401.1788 Q454.7409,401.3628 454.4939,401.4645 Q454.1694,401.605 453.7722,401.605 Q453.3072,401.605 452.9342,401.4209 Q452.6339,401.2756 452.4208,400.9608 Q452.2125,400.6459 452.2125,400.273 L452.2125,399.9339 Q452.2125,399.5464 452.3966,399.2073 Q452.5855,398.8683 452.91,398.6891 Q453.2394,398.505 453.6075,398.505 Q453.8303,398.505 454.0241,398.5825 Q454.2178,398.66 454.3825,398.815 Z " fill="#000000"/><text fill="#000000" font-family="sans-serif" font-size="4.34" lengthAdjust="spacing" textLength="15.5" x="460.1175" y="401.6758">Vaccine</text><line style="stroke:#181818;stroke-width:0.155;" x1="330.46" x2="595.2" y1="404.86" y2="404.86"/><text fill="#000000" font-family="sans-serif" font-size="4.34" lengthAdjust="spacing" textLength="20.15" x="332.01" y="410.6053">-id : String</text><text fill="#000000" font-family="sans-serif" font-size="4.34" lengthAdjust="spacing" textLength="27.59" x="332.01" y="416.0642">-name : String</text><text fill="#000000" font-family="sans-serif" font-size="4.34" lengthAdjust="spacing" textLength="28.21" x="332.01" y="421.5231">-brand : String</text><line style="stroke:#181818;stroke-width:0.155;" x1="330.46" x2="595.2" y1="423.7167" y2="423.7167"/><text fill="#000000" font-family="sans-serif" font-size="4.34" lengthAdjust="spacing" textLength="180.42" x="332.01" y="429.462">+Vaccine((id : String),(name : String),(brand : String),(admpStore : AdmProcessStore)) : void</text><text fill="#000000" font-family="sans-serif" font-size="4.34" lengthAdjust="spacing" textLength="85.56" x="332.01" y="434.9209">+getAdmProcessStore() : AdmProcessStore</text><text fill="#000000" font-family="sans-serif" font-size="4.34" lengthAdjust="spacing" textLength="122.76" x="332.01" y="440.3798">+validateAdmProcess(admp : AdministrationProcess) : boolean</text><text fill="#000000" font-family="sans-serif" font-size="4.34" lengthAdjust="spacing" textLength="116.87" x="332.01" y="445.8387">+saveAdmProcess(admp : AdministrationProcess) : boolean</text><text fill="#000000" font-family="sans-serif" font-size="4.34" lengthAdjust="spacing" textLength="261.64" x="332.01" y="451.2976">+createAdmProcess((doseStore : DoseStore), (numberOfDoses : int), (maximumAge : int), (minimumAge : int)) : AdministrationProcess</text></g><!--MD5=[fecff495633dcf66d40f11bfad4c8608]
class AdmProcessStore--><g id="elem_AdmProcessStore"><rect codeLine="55" fill="#F1F1F1" height="42.1745" id="AdmProcessStore" rx="0.775" ry="0.775" style="stroke:#181818;stroke-width:0.155;" width="265.36" x="479.26" y="477.71"/><ellipse cx="593.1075" cy="482.67" fill="#ADD1B2" rx="3.41" ry="3.41" style="stroke:#181818;stroke-width:0.31;"/><path d="M593.7275,481.585 Q593.7905,481.43 593.8631,481.3525 Q593.9358,481.275 594.0181,481.275 Q594.1634,481.275 594.2555,481.3622 Q594.3475,481.4494 594.3475,481.6528 L594.3475,482.1372 Q594.3475,482.3406 594.2603,482.4278 Q594.1731,482.515 594.0375,482.515 Q593.9164,482.515 593.8389,482.4617 Q593.7614,482.4084 593.7275,482.268 Q593.713,482.1711 593.6597,482.1178 Q593.5628,482.0161 593.3884,481.958 Q593.2141,481.895 593.0397,481.895 Q592.8217,481.895 592.6377,481.9822 Q592.4584,482.0694 592.318,482.2631 Q592.1775,482.4569 592.1775,482.7233 L592.1775,483.0091 Q592.1775,483.3288 592.4391,483.5419 Q592.7006,483.755 593.1656,483.755 Q593.4417,483.755 593.6355,483.692 Q593.7469,483.6581 593.8728,483.5467 Q593.9552,483.4838 593.9988,483.4644 Q594.0423,483.445 594.0956,483.445 Q594.1973,483.445 594.27,483.5273 Q594.3475,483.6048 594.3475,483.7163 Q594.3475,483.8228 594.2409,483.9488 Q594.0859,484.1328 593.8389,484.2345 Q593.5144,484.375 593.1172,484.375 Q592.6522,484.375 592.2792,484.1909 Q591.9789,484.0456 591.7658,483.7308 Q591.5575,483.4159 591.5575,483.043 L591.5575,482.7039 Q591.5575,482.3164 591.7416,481.9773 Q591.9305,481.6383 592.255,481.4591 Q592.5844,481.275 592.9525,481.275 Q593.1753,481.275 593.3691,481.3525 Q593.5628,481.43 593.7275,481.585 Z " fill="#000000"/><text fill="#000000" font-family="sans-serif" font-size="4.34" lengthAdjust="spacing" textLength="35.03" x="599.4625" y="484.4458">AdmProcessStore</text><line style="stroke:#181818;stroke-width:0.155;" x1="479.57" x2="744.31" y1="487.63" y2="487.63"/><text fill="#000000" font-family="sans-serif" font-size="4.34" lengthAdjust="spacing" textLength="76.88" x="481.12" y="493.3753">-listAdmp : List&lt;AdministrationProcess&gt;</text><line style="stroke:#181818;stroke-width:0.155;" x1="479.57" x2="744.31" y1="495.5689" y2="495.5689"/><text fill="#000000" font-family="sans-serif" font-size="4.34" lengthAdjust="spacing" textLength="52.39" x="481.12" y="501.3142">+AdmProcessStore() : void</text><text fill="#000000" font-family="sans-serif" font-size="4.34" lengthAdjust="spacing" textLength="122.76" x="481.12" y="506.7731">+validateAdmProcess(admp : AdministrationProcess) : boolean</text><text fill="#000000" font-family="sans-serif" font-size="4.34" lengthAdjust="spacing" textLength="116.87" x="481.12" y="512.232">+saveAdmProcess(admp : AdministrationProcess) : boolean</text><text fill="#000000" font-family="sans-serif" font-size="4.34" lengthAdjust="spacing" textLength="261.64" x="481.12" y="517.6909">+createAdmProcess((doseStore : DoseStore), (numberOfDoses : int), (maximumAge : int), (minimumAge : int)) : AdministrationProcess</text></g><!--MD5=[2e45e0d339273db50965ed6ba7212841]
class DoseMapper--><g id="elem_DoseMapper"><rect codeLine="63" fill="#F1F1F1" height="20.3389" id="DoseMapper" rx="0.775" ry="0.775" style="stroke:#181818;stroke-width:0.155;" width="149.73" x="749.735" y="107.88"/><ellipse cx="810.7275" cy="112.84" fill="#ADD1B2" rx="3.41" ry="3.41" style="stroke:#181818;stroke-width:0.31;"/><path d="M811.3475,111.755 Q811.4105,111.6 811.4831,111.5225 Q811.5558,111.445 811.6381,111.445 Q811.7834,111.445 811.8755,111.5322 Q811.9675,111.6194 811.9675,111.8228 L811.9675,112.3072 Q811.9675,112.5106 811.8803,112.5978 Q811.7931,112.685 811.6575,112.685 Q811.5364,112.685 811.4589,112.6317 Q811.3814,112.5784 811.3475,112.438 Q811.333,112.3411 811.2797,112.2878 Q811.1828,112.1861 811.0084,112.128 Q810.8341,112.065 810.6597,112.065 Q810.4417,112.065 810.2577,112.1522 Q810.0784,112.2394 809.938,112.4331 Q809.7975,112.6269 809.7975,112.8933 L809.7975,113.1791 Q809.7975,113.4988 810.0591,113.7119 Q810.3206,113.925 810.7856,113.925 Q811.0617,113.925 811.2555,113.862 Q811.3669,113.8281 811.4928,113.7167 Q811.5752,113.6538 811.6188,113.6344 Q811.6623,113.615 811.7156,113.615 Q811.8173,113.615 811.89,113.6973 Q811.9675,113.7748 811.9675,113.8863 Q811.9675,113.9928 811.8609,114.1188 Q811.7059,114.3028 811.4589,114.4045 Q811.1344,114.545 810.7372,114.545 Q810.2722,114.545 809.8992,114.3609 Q809.5989,114.2156 809.3858,113.9008 Q809.1775,113.5859 809.1775,113.213 L809.1775,112.8739 Q809.1775,112.4864 809.3616,112.1473 Q809.5505,111.8083 809.875,111.6291 Q810.2044,111.445 810.5725,111.445 Q810.7953,111.445 810.9891,111.5225 Q811.1828,111.6 811.3475,111.755 Z " fill="#000000"/><text fill="#000000" font-family="sans-serif" font-size="4.34" lengthAdjust="spacing" textLength="25.11" x="817.0825" y="114.6158">DoseMapper</text><line style="stroke:#181818;stroke-width:0.155;" x1="750.045" x2="899.155" y1="117.8" y2="117.8"/><line style="stroke:#181818;stroke-width:0.155;" x1="750.045" x2="899.155" y1="120.28" y2="120.28"/><text fill="#000000" font-family="sans-serif" font-size="4.34" lengthAdjust="spacing" textLength="146.01" x="751.595" y="126.0253">+createDose((admp : AdministrationProcess), (doseDto : DoseDto)) : Dose</text></g><!--MD5=[a2530d24bafc45bb45314d96545aa194]
class AdministrationProcess--><g id="elem_AdministrationProcess"><rect codeLine="67" fill="#F1F1F1" height="53.0923" id="AdministrationProcess" rx="0.775" ry="0.775" style="stroke:#181818;stroke-width:0.155;" width="236.53" x="657.045" y="544.05"/><ellipse cx="752.2925" cy="549.01" fill="#ADD1B2" rx="3.41" ry="3.41" style="stroke:#181818;stroke-width:0.31;"/><path d="M752.9125,547.925 Q752.9755,547.77 753.0481,547.6925 Q753.1208,547.615 753.2031,547.615 Q753.3484,547.615 753.4405,547.7022 Q753.5325,547.7894 753.5325,547.9928 L753.5325,548.4772 Q753.5325,548.6806 753.4453,548.7678 Q753.3581,548.855 753.2225,548.855 Q753.1014,548.855 753.0239,548.8017 Q752.9464,548.7484 752.9125,548.608 Q752.898,548.5111 752.8447,548.4578 Q752.7478,548.3561 752.5734,548.298 Q752.3991,548.235 752.2247,548.235 Q752.0067,548.235 751.8227,548.3222 Q751.6434,548.4094 751.503,548.6031 Q751.3625,548.7969 751.3625,549.0633 L751.3625,549.3491 Q751.3625,549.6688 751.6241,549.8819 Q751.8856,550.095 752.3506,550.095 Q752.6267,550.095 752.8205,550.032 Q752.9319,549.9981 753.0578,549.8867 Q753.1402,549.8238 753.1838,549.8044 Q753.2273,549.785 753.2806,549.785 Q753.3823,549.785 753.455,549.8673 Q753.5325,549.9448 753.5325,550.0563 Q753.5325,550.1628 753.4259,550.2888 Q753.2709,550.4728 753.0239,550.5745 Q752.6994,550.715 752.3022,550.715 Q751.8372,550.715 751.4642,550.5309 Q751.1639,550.3856 750.9508,550.0708 Q750.7425,549.7559 750.7425,549.383 L750.7425,549.0439 Q750.7425,548.6564 750.9266,548.3173 Q751.1155,547.9783 751.44,547.7991 Q751.7694,547.615 752.1375,547.615 Q752.3603,547.615 752.5541,547.6925 Q752.7478,547.77 752.9125,547.925 Z " fill="#000000"/><text fill="#000000" font-family="sans-serif" font-size="4.34" lengthAdjust="spacing" textLength="43.4" x="758.6475" y="550.7858">AdministrationProcess</text><line style="stroke:#181818;stroke-width:0.155;" x1="657.355" x2="893.265" y1="553.97" y2="553.97"/><text fill="#000000" font-family="sans-serif" font-size="4.34" lengthAdjust="spacing" textLength="41.85" x="658.905" y="559.7153">-numberOfDoses : int</text><text fill="#000000" font-family="sans-serif" font-size="4.34" lengthAdjust="spacing" textLength="35.65" x="658.905" y="565.1742">-maximumAge : int</text><text fill="#000000" font-family="sans-serif" font-size="4.34" lengthAdjust="spacing" textLength="34.72" x="658.905" y="570.6331">-minimumAge : int</text><line style="stroke:#181818;stroke-width:0.155;" x1="657.355" x2="893.265" y1="572.8267" y2="572.8267"/><text fill="#000000" font-family="sans-serif" font-size="4.34" lengthAdjust="spacing" textLength="232.81" x="658.905" y="578.572">+AdministrationProcess((doseStore : DoseStore), (numberOfDoses : int), (maximumAge : int), (minimumAge : int)) : void</text><text fill="#000000" font-family="sans-serif" font-size="4.34" lengthAdjust="spacing" textLength="166.78" x="658.905" y="584.0309">+createDose((doseNumber : int), (dosage : double), (timeBetweenDoses : int)) : Dose</text><text fill="#000000" font-family="sans-serif" font-size="4.34" lengthAdjust="spacing" textLength="74.09" x="658.905" y="589.4898">+validateDose(dose : Dose) : boolean</text><text fill="#000000" font-family="sans-serif" font-size="4.34" lengthAdjust="spacing" textLength="68.2" x="658.905" y="594.9487">+saveDose(dose : Dose) : boolean</text></g><!--MD5=[abc0fe96d163894c4a6f0dcb185cc836]
class DoseStore--><g id="elem_DoseStore"><rect codeLine="77" fill="#F1F1F1" height="42.1745" id="DoseStore" rx="0.775" ry="0.775" style="stroke:#181818;stroke-width:0.155;" width="170.5" x="2.17" y="621.24"/><ellipse cx="75.7175" cy="626.2" fill="#ADD1B2" rx="3.41" ry="3.41" style="stroke:#181818;stroke-width:0.31;"/><path d="M76.3375,625.115 Q76.4005,624.96 76.4731,624.8825 Q76.5458,624.805 76.6281,624.805 Q76.7734,624.805 76.8655,624.8922 Q76.9575,624.9794 76.9575,625.1828 L76.9575,625.6672 Q76.9575,625.8706 76.8703,625.9578 Q76.7831,626.045 76.6475,626.045 Q76.5264,626.045 76.4489,625.9917 Q76.3714,625.9384 76.3375,625.798 Q76.323,625.7011 76.2697,625.6478 Q76.1728,625.5461 75.9984,625.488 Q75.8241,625.425 75.6497,625.425 Q75.4317,625.425 75.2477,625.5122 Q75.0684,625.5994 74.928,625.7931 Q74.7875,625.9869 74.7875,626.2533 L74.7875,626.5391 Q74.7875,626.8588 75.0491,627.0719 Q75.3106,627.285 75.7756,627.285 Q76.0517,627.285 76.2455,627.222 Q76.3569,627.1881 76.4828,627.0767 Q76.5652,627.0138 76.6088,626.9944 Q76.6523,626.975 76.7056,626.975 Q76.8073,626.975 76.88,627.0573 Q76.9575,627.1348 76.9575,627.2463 Q76.9575,627.3528 76.8509,627.4788 Q76.6959,627.6628 76.4489,627.7645 Q76.1244,627.905 75.7272,627.905 Q75.2622,627.905 74.8892,627.7209 Q74.5889,627.5756 74.3758,627.2608 Q74.1675,626.9459 74.1675,626.573 L74.1675,626.2339 Q74.1675,625.8464 74.3516,625.5073 Q74.5405,625.1683 74.865,624.9891 Q75.1944,624.805 75.5625,624.805 Q75.7853,624.805 75.9791,624.8825 Q76.1728,624.96 76.3375,625.115 Z " fill="#000000"/><text fill="#000000" font-family="sans-serif" font-size="4.34" lengthAdjust="spacing" textLength="20.77" x="82.0725" y="627.9758">DoseStore</text><line style="stroke:#181818;stroke-width:0.155;" x1="2.48" x2="172.36" y1="631.16" y2="631.16"/><text fill="#000000" font-family="sans-serif" font-size="4.34" lengthAdjust="spacing" textLength="44.95" x="4.03" y="636.9053">-listDoses : List&lt;Dose&gt;</text><line style="stroke:#181818;stroke-width:0.155;" x1="2.48" x2="172.36" y1="639.0989" y2="639.0989"/><text fill="#000000" font-family="sans-serif" font-size="4.34" lengthAdjust="spacing" textLength="38.13" x="4.03" y="644.8442">+DoseStore() : void</text><text fill="#000000" font-family="sans-serif" font-size="4.34" lengthAdjust="spacing" textLength="74.09" x="4.03" y="650.3031">+validateDose(dose : Dose) : boolean</text><text fill="#000000" font-family="sans-serif" font-size="4.34" lengthAdjust="spacing" textLength="68.2" x="4.03" y="655.762">+saveDose(dose : Dose) : boolean</text><text fill="#000000" font-family="sans-serif" font-size="4.34" lengthAdjust="spacing" textLength="166.78" x="4.03" y="661.2209">+createDose((doseNumber : int), (dosage : double), (timeBetweenDoses : int)) : Dose</text></g><!--MD5=[0e501da62322464167c8ec4d233a6b7e]
class VaccineType--><g id="elem_VaccineType"><rect codeLine="85" fill="#F1F1F1" height="53.0923" id="VaccineType" rx="0.775" ry="0.775" style="stroke:#181818;stroke-width:0.155;" width="175.15" x="404.085" y="240.56"/><ellipse cx="477.6325" cy="245.52" fill="#ADD1B2" rx="3.41" ry="3.41" style="stroke:#181818;stroke-width:0.31;"/><path d="M478.2525,244.435 Q478.3155,244.28 478.3881,244.2025 Q478.4608,244.125 478.5431,244.125 Q478.6884,244.125 478.7805,244.2122 Q478.8725,244.2994 478.8725,244.5028 L478.8725,244.9872 Q478.8725,245.1906 478.7853,245.2778 Q478.6981,245.365 478.5625,245.365 Q478.4414,245.365 478.3639,245.3117 Q478.2864,245.2584 478.2525,245.118 Q478.238,245.0211 478.1847,244.9678 Q478.0878,244.8661 477.9134,244.808 Q477.7391,244.745 477.5647,244.745 Q477.3467,244.745 477.1627,244.8322 Q476.9834,244.9194 476.843,245.1131 Q476.7025,245.3069 476.7025,245.5733 L476.7025,245.8591 Q476.7025,246.1788 476.9641,246.3919 Q477.2256,246.605 477.6906,246.605 Q477.9667,246.605 478.1605,246.542 Q478.2719,246.5081 478.3978,246.3967 Q478.4802,246.3338 478.5238,246.3144 Q478.5673,246.295 478.6206,246.295 Q478.7223,246.295 478.795,246.3773 Q478.8725,246.4548 478.8725,246.5663 Q478.8725,246.6728 478.7659,246.7987 Q478.6109,246.9828 478.3639,247.0845 Q478.0394,247.225 477.6422,247.225 Q477.1772,247.225 476.8042,247.0409 Q476.5039,246.8956 476.2908,246.5808 Q476.0825,246.2659 476.0825,245.893 L476.0825,245.5539 Q476.0825,245.1664 476.2666,244.8273 Q476.4555,244.4883 476.78,244.3091 Q477.1094,244.125 477.4775,244.125 Q477.7003,244.125 477.8941,244.2025 Q478.0878,244.28 478.2525,244.435 Z " fill="#000000"/><text fill="#000000" font-family="sans-serif" font-size="4.34" lengthAdjust="spacing" textLength="25.42" x="483.9875" y="247.2958">VaccineType</text><line style="stroke:#181818;stroke-width:0.155;" x1="404.395" x2="578.925" y1="250.48" y2="250.48"/><text fill="#000000" font-family="sans-serif" font-size="4.34" lengthAdjust="spacing" textLength="26.35" x="405.945" y="256.2253">-code : String</text><text fill="#000000" font-family="sans-serif" font-size="4.34" lengthAdjust="spacing" textLength="38.13" x="405.945" y="261.6842">-description : String</text><text fill="#000000" font-family="sans-serif" font-size="4.34" lengthAdjust="spacing" textLength="54.56" x="405.945" y="267.1431">-vaccineTechnology : String</text><line style="stroke:#181818;stroke-width:0.155;" x1="404.395" x2="578.925" y1="269.3367" y2="269.3367"/><text fill="#000000" font-family="sans-serif" font-size="4.34" lengthAdjust="spacing" textLength="171.43" x="405.945" y="275.082">+VaccineType((code : String), (description : String), (vaccineTechnology : String)) : void</text><text fill="#000000" font-family="sans-serif" font-size="4.34" lengthAdjust="spacing" textLength="37.51" x="405.945" y="280.5409">+getCode() : String</text><text fill="#000000" font-family="sans-serif" font-size="4.34" lengthAdjust="spacing" textLength="48.98" x="405.945" y="285.9998">+getDescription() : String</text><text fill="#000000" font-family="sans-serif" font-size="4.34" lengthAdjust="spacing" textLength="62.93" x="405.945" y="291.4587">+getVaccineTechology() : String</text></g><!--MD5=[4d1c177f39518ad8fa4c4fe2f14e9e7d]
class VaccineTypeDto--><g id="elem_VaccineTypeDto"><rect codeLine="95" fill="#F1F1F1" height="53.0923" id="VaccineTypeDto" rx="0.775" ry="0.775" style="stroke:#181818;stroke-width:0.155;" width="181.97" x="1025.325" y="163.37"/><ellipse cx="1098.8725" cy="168.33" fill="#ADD1B2" rx="3.41" ry="3.41" style="stroke:#181818;stroke-width:0.31;"/><path d="M1099.4925,167.245 Q1099.5555,167.09 1099.6281,167.0125 Q1099.7008,166.935 1099.7831,166.935 Q1099.9284,166.935 1100.0205,167.0222 Q1100.1125,167.1094 1100.1125,167.3128 L1100.1125,167.7972 Q1100.1125,168.0006 1100.0253,168.0878 Q1099.9381,168.175 1099.8025,168.175 Q1099.6814,168.175 1099.6039,168.1217 Q1099.5264,168.0684 1099.4925,167.928 Q1099.478,167.8311 1099.4247,167.7778 Q1099.3278,167.6761 1099.1534,167.618 Q1098.9791,167.555 1098.8047,167.555 Q1098.5867,167.555 1098.4027,167.6422 Q1098.2234,167.7294 1098.083,167.9231 Q1097.9425,168.1169 1097.9425,168.3833 L1097.9425,168.6691 Q1097.9425,168.9888 1098.2041,169.2019 Q1098.4656,169.415 1098.9306,169.415 Q1099.2067,169.415 1099.4005,169.352 Q1099.5119,169.3181 1099.6378,169.2067 Q1099.7202,169.1438 1099.7638,169.1244 Q1099.8073,169.105 1099.8606,169.105 Q1099.9623,169.105 1100.035,169.1873 Q1100.1125,169.2648 1100.1125,169.3763 Q1100.1125,169.4828 1100.0059,169.6088 Q1099.8509,169.7928 1099.6039,169.8945 Q1099.2794,170.035 1098.8822,170.035 Q1098.4172,170.035 1098.0442,169.8509 Q1097.7439,169.7056 1097.5308,169.3908 Q1097.3225,169.0759 1097.3225,168.703 L1097.3225,168.3639 Q1097.3225,167.9764 1097.5066,167.6373 Q1097.6955,167.2983 1098.02,167.1191 Q1098.3494,166.935 1098.7175,166.935 Q1098.9403,166.935 1099.1341,167.0125 Q1099.3278,167.09 1099.4925,167.245 Z " fill="#000000"/><text fill="#000000" font-family="sans-serif" font-size="4.34" lengthAdjust="spacing" textLength="32.24" x="1105.2275" y="170.1058">VaccineTypeDto</text><line style="stroke:#181818;stroke-width:0.155;" x1="1025.635" x2="1206.985" y1="173.29" y2="173.29"/><text fill="#000000" font-family="sans-serif" font-size="4.34" lengthAdjust="spacing" textLength="26.35" x="1027.185" y="179.0353">-code : String</text><text fill="#000000" font-family="sans-serif" font-size="4.34" lengthAdjust="spacing" textLength="38.13" x="1027.185" y="184.4942">-description : String</text><text fill="#000000" font-family="sans-serif" font-size="4.34" lengthAdjust="spacing" textLength="54.56" x="1027.185" y="189.9531">-vaccineTechnology : String</text><line style="stroke:#181818;stroke-width:0.155;" x1="1025.635" x2="1206.985" y1="192.1467" y2="192.1467"/><text fill="#000000" font-family="sans-serif" font-size="4.34" lengthAdjust="spacing" textLength="178.25" x="1027.185" y="197.892">+VaccineTypeDto((code : String), (description : String), (vaccineTechnology : String)) : void</text><text fill="#000000" font-family="sans-serif" font-size="4.34" lengthAdjust="spacing" textLength="37.51" x="1027.185" y="203.3509">+getCode() : String</text><text fill="#000000" font-family="sans-serif" font-size="4.34" lengthAdjust="spacing" textLength="48.98" x="1027.185" y="208.8098">+getDescription() : String</text><text fill="#000000" font-family="sans-serif" font-size="4.34" lengthAdjust="spacing" textLength="62.93" x="1027.185" y="214.2687">+getVaccineTechology() : String</text></g><!--MD5=[283909458dde26c2c2c334f82dd48b88]
class VaccineDto--><g id="elem_VaccineDto"><rect codeLine="105" fill="#F1F1F1" height="53.0923" id="VaccineDto" rx="0.775" ry="0.775" style="stroke:#181818;stroke-width:0.155;" width="190.96" x="628.37" y="317.75"/><ellipse cx="711.3725" cy="322.71" fill="#ADD1B2" rx="3.41" ry="3.41" style="stroke:#181818;stroke-width:0.31;"/><path d="M711.9925,321.625 Q712.0555,321.47 712.1281,321.3925 Q712.2008,321.315 712.2831,321.315 Q712.4284,321.315 712.5205,321.4022 Q712.6125,321.4894 712.6125,321.6928 L712.6125,322.1772 Q712.6125,322.3806 712.5253,322.4678 Q712.4381,322.555 712.3025,322.555 Q712.1814,322.555 712.1039,322.5017 Q712.0264,322.4484 711.9925,322.308 Q711.978,322.2111 711.9247,322.1578 Q711.8278,322.0561 711.6534,321.998 Q711.4791,321.935 711.3047,321.935 Q711.0867,321.935 710.9027,322.0222 Q710.7234,322.1094 710.583,322.3031 Q710.4425,322.4969 710.4425,322.7633 L710.4425,323.0491 Q710.4425,323.3688 710.7041,323.5819 Q710.9656,323.795 711.4306,323.795 Q711.7067,323.795 711.9005,323.732 Q712.0119,323.6981 712.1378,323.5867 Q712.2202,323.5238 712.2638,323.5044 Q712.3073,323.485 712.3606,323.485 Q712.4623,323.485 712.535,323.5673 Q712.6125,323.6448 712.6125,323.7563 Q712.6125,323.8628 712.5059,323.9888 Q712.3509,324.1728 712.1039,324.2745 Q711.7794,324.415 711.3822,324.415 Q710.9172,324.415 710.5442,324.2309 Q710.2439,324.0856 710.0308,323.7708 Q709.8225,323.4559 709.8225,323.083 L709.8225,322.7439 Q709.8225,322.3564 710.0066,322.0173 Q710.1955,321.6783 710.52,321.4991 Q710.8494,321.315 711.2175,321.315 Q711.4403,321.315 711.6341,321.3925 Q711.8278,321.47 711.9925,321.625 Z " fill="#000000"/><text fill="#000000" font-family="sans-serif" font-size="4.34" lengthAdjust="spacing" textLength="22.32" x="717.7275" y="324.4858">VaccineDto</text><line style="stroke:#181818;stroke-width:0.155;" x1="628.68" x2="819.02" y1="327.67" y2="327.67"/><text fill="#000000" font-family="sans-serif" font-size="4.34" lengthAdjust="spacing" textLength="20.15" x="630.23" y="333.4153">-id : String</text><text fill="#000000" font-family="sans-serif" font-size="4.34" lengthAdjust="spacing" textLength="27.59" x="630.23" y="338.8742">-name : String</text><text fill="#000000" font-family="sans-serif" font-size="4.34" lengthAdjust="spacing" textLength="28.21" x="630.23" y="344.3331">-brand : String</text><line style="stroke:#181818;stroke-width:0.155;" x1="628.68" x2="819.02" y1="346.5267" y2="346.5267"/><text fill="#000000" font-family="sans-serif" font-size="4.34" lengthAdjust="spacing" textLength="187.24" x="630.23" y="352.272">+VaccineDto((id : String),(name : String),(brand : String),(admpStore : AdmProcessStore)) : void</text><text fill="#000000" font-family="sans-serif" font-size="4.34" lengthAdjust="spacing" textLength="30.38" x="630.23" y="357.7309">+getId() : String</text><text fill="#000000" font-family="sans-serif" font-size="4.34" lengthAdjust="spacing" textLength="38.13" x="630.23" y="363.1898">+getName() : String</text><text fill="#000000" font-family="sans-serif" font-size="4.34" lengthAdjust="spacing" textLength="38.75" x="630.23" y="368.6487">+getBrand() : String</text></g><!--MD5=[9c7b75a82c767e41b11326b2fcd2ffcc]
class VaccineMapper--><g id="elem_VaccineMapper"><rect codeLine="115" fill="#F1F1F1" height="20.3389" id="VaccineMapper" rx="0.775" ry="0.775" style="stroke:#181818;stroke-width:0.155;" width="161.51" x="590.085" y="256.835"/><ellipse cx="654.3325" cy="261.795" fill="#ADD1B2" rx="3.41" ry="3.41" style="stroke:#181818;stroke-width:0.31;"/><path d="M654.9525,260.71 Q655.0155,260.555 655.0881,260.4775 Q655.1608,260.4 655.2431,260.4 Q655.3884,260.4 655.4805,260.4872 Q655.5725,260.5744 655.5725,260.7778 L655.5725,261.2622 Q655.5725,261.4656 655.4853,261.5528 Q655.3981,261.64 655.2625,261.64 Q655.1414,261.64 655.0639,261.5867 Q654.9864,261.5334 654.9525,261.393 Q654.938,261.2961 654.8847,261.2428 Q654.7878,261.1411 654.6134,261.083 Q654.4391,261.02 654.2647,261.02 Q654.0467,261.02 653.8627,261.1072 Q653.6834,261.1944 653.543,261.3881 Q653.4025,261.5819 653.4025,261.8483 L653.4025,262.1341 Q653.4025,262.4538 653.6641,262.6669 Q653.9256,262.88 654.3906,262.88 Q654.6667,262.88 654.8605,262.817 Q654.9719,262.7831 655.0978,262.6717 Q655.1802,262.6088 655.2238,262.5894 Q655.2673,262.57 655.3206,262.57 Q655.4223,262.57 655.495,262.6523 Q655.5725,262.7298 655.5725,262.8413 Q655.5725,262.9478 655.4659,263.0738 Q655.3109,263.2578 655.0639,263.3595 Q654.7394,263.5 654.3422,263.5 Q653.8772,263.5 653.5042,263.3159 Q653.2039,263.1706 652.9908,262.8558 Q652.7825,262.5409 652.7825,262.168 L652.7825,261.8289 Q652.7825,261.4414 652.9666,261.1023 Q653.1555,260.7633 653.48,260.5841 Q653.8094,260.4 654.1775,260.4 Q654.4003,260.4 654.5941,260.4775 Q654.7878,260.555 654.9525,260.71 Z " fill="#000000"/><text fill="#000000" font-family="sans-serif" font-size="4.34" lengthAdjust="spacing" textLength="30.38" x="660.6875" y="263.5708">VaccineMapper</text><line style="stroke:#181818;stroke-width:0.155;" x1="590.395" x2="751.285" y1="266.755" y2="266.755"/><line style="stroke:#181818;stroke-width:0.155;" x1="590.395" x2="751.285" y1="269.235" y2="269.235"/><text fill="#000000" font-family="sans-serif" font-size="4.34" lengthAdjust="spacing" textLength="157.79" x="591.945" y="274.9803">+createVaccine((vaccineDto : VaccineDto), (vaccStore : VaccineStore)) : vaccine</text></g><!--MD5=[ed7809a4798ffa08abd279b85415bce7]
class DoseDto--><g id="elem_DoseDto"><rect codeLine="119" fill="#F1F1F1" height="53.0923" id="DoseDto" rx="0.775" ry="0.775" style="stroke:#181818;stroke-width:0.155;" width="150.97" x="841.185" y="163.37"/><ellipse cx="906.8275" cy="168.33" fill="#ADD1B2" rx="3.41" ry="3.41" style="stroke:#181818;stroke-width:0.31;"/><path d="M907.4475,167.245 Q907.5105,167.09 907.5831,167.0125 Q907.6558,166.935 907.7381,166.935 Q907.8834,166.935 907.9755,167.0222 Q908.0675,167.1094 908.0675,167.3128 L908.0675,167.7972 Q908.0675,168.0006 907.9803,168.0878 Q907.8931,168.175 907.7575,168.175 Q907.6364,168.175 907.5589,168.1217 Q907.4814,168.0684 907.4475,167.928 Q907.433,167.8311 907.3797,167.7778 Q907.2828,167.6761 907.1084,167.618 Q906.9341,167.555 906.7597,167.555 Q906.5417,167.555 906.3577,167.6422 Q906.1784,167.7294 906.038,167.9231 Q905.8975,168.1169 905.8975,168.3833 L905.8975,168.6691 Q905.8975,168.9888 906.1591,169.2019 Q906.4206,169.415 906.8856,169.415 Q907.1617,169.415 907.3555,169.352 Q907.4669,169.3181 907.5928,169.2067 Q907.6752,169.1438 907.7188,169.1244 Q907.7623,169.105 907.8156,169.105 Q907.9173,169.105 907.99,169.1873 Q908.0675,169.2648 908.0675,169.3763 Q908.0675,169.4828 907.9609,169.6088 Q907.8059,169.7928 907.5589,169.8945 Q907.2344,170.035 906.8372,170.035 Q906.3722,170.035 905.9992,169.8509 Q905.6989,169.7056 905.4858,169.3908 Q905.2775,169.0759 905.2775,168.703 L905.2775,168.3639 Q905.2775,167.9764 905.4616,167.6373 Q905.6505,167.2983 905.975,167.1191 Q906.3044,166.935 906.6725,166.935 Q906.8953,166.935 907.0891,167.0125 Q907.2828,167.09 907.4475,167.245 Z " fill="#000000"/><text fill="#000000" font-family="sans-serif" font-size="4.34" lengthAdjust="spacing" textLength="17.05" x="913.1825" y="170.1058">DoseDto</text><line style="stroke:#181818;stroke-width:0.155;" x1="841.495" x2="991.845" y1="173.29" y2="173.29"/><text fill="#000000" font-family="sans-serif" font-size="4.34" lengthAdjust="spacing" textLength="34.72" x="843.045" y="179.0353">-doseNumber : int</text><text fill="#000000" font-family="sans-serif" font-size="4.34" lengthAdjust="spacing" textLength="33.17" x="843.045" y="184.4942">-dosage : double</text><text fill="#000000" font-family="sans-serif" font-size="4.34" lengthAdjust="spacing" textLength="47.12" x="843.045" y="189.9531">-timeBetweenDoses : int</text><line style="stroke:#181818;stroke-width:0.155;" x1="841.495" x2="991.845" y1="192.1467" y2="192.1467"/><text fill="#000000" font-family="sans-serif" font-size="4.34" lengthAdjust="spacing" textLength="147.25" x="843.045" y="197.892">+DoseDto((doseNumber : int), (dosage : double), (timeBetweenDoses : int))</text><text fill="#000000" font-family="sans-serif" font-size="4.34" lengthAdjust="spacing" textLength="45.57" x="843.045" y="203.3509">+getDoseNumber() : int</text><text fill="#000000" font-family="sans-serif" font-size="4.34" lengthAdjust="spacing" textLength="44.02" x="843.045" y="208.8098">+getDosage() : double</text><text fill="#000000" font-family="sans-serif" font-size="4.34" lengthAdjust="spacing" textLength="58.9" x="843.045" y="214.2687">+getTimeBetweenDoses() : int</text></g><!--MD5=[03e3bb7aef77bf14822eb3fb6d15ab17]
class Dose--><g id="elem_Dose"><rect codeLine="129" fill="#F1F1F1" height="36.7156" id="Dose" rx="0.775" ry="0.775" style="stroke:#181818;stroke-width:0.155;" width="144.15" x="15.345" y="687.58"/><ellipse cx="80.9875" cy="692.54" fill="#ADD1B2" rx="3.41" ry="3.41" style="stroke:#181818;stroke-width:0.31;"/><path d="M81.6075,691.455 Q81.6705,691.3 81.7431,691.2225 Q81.8158,691.145 81.8981,691.145 Q82.0434,691.145 82.1355,691.2322 Q82.2275,691.3194 82.2275,691.5228 L82.2275,692.0072 Q82.2275,692.2106 82.1403,692.2978 Q82.0531,692.385 81.9175,692.385 Q81.7964,692.385 81.7189,692.3317 Q81.6414,692.2784 81.6075,692.138 Q81.593,692.0411 81.5397,691.9878 Q81.4428,691.8861 81.2684,691.828 Q81.0941,691.765 80.9197,691.765 Q80.7017,691.765 80.5177,691.8522 Q80.3384,691.9394 80.198,692.1331 Q80.0575,692.3269 80.0575,692.5933 L80.0575,692.8791 Q80.0575,693.1988 80.3191,693.4119 Q80.5806,693.625 81.0456,693.625 Q81.3217,693.625 81.5155,693.562 Q81.6269,693.5281 81.7528,693.4167 Q81.8352,693.3538 81.8788,693.3344 Q81.9223,693.315 81.9756,693.315 Q82.0773,693.315 82.15,693.3973 Q82.2275,693.4748 82.2275,693.5863 Q82.2275,693.6928 82.1209,693.8188 Q81.9659,694.0028 81.7189,694.1045 Q81.3944,694.245 80.9972,694.245 Q80.5322,694.245 80.1592,694.0609 Q79.8589,693.9156 79.6458,693.6008 Q79.4375,693.2859 79.4375,692.913 L79.4375,692.5739 Q79.4375,692.1864 79.6216,691.8473 Q79.8105,691.5083 80.135,691.3291 Q80.4644,691.145 80.8325,691.145 Q81.0553,691.145 81.2491,691.2225 Q81.4428,691.3 81.6075,691.455 Z " fill="#000000"/><text fill="#000000" font-family="sans-serif" font-size="4.34" lengthAdjust="spacing" textLength="10.23" x="87.3425" y="694.3158">Dose</text><line style="stroke:#181818;stroke-width:0.155;" x1="15.655" x2="159.185" y1="697.5" y2="697.5"/><text fill="#000000" font-family="sans-serif" font-size="4.34" lengthAdjust="spacing" textLength="34.72" x="17.205" y="703.2453">-doseNumber : int</text><text fill="#000000" font-family="sans-serif" font-size="4.34" lengthAdjust="spacing" textLength="33.17" x="17.205" y="708.7042">-dosage : double</text><text fill="#000000" font-family="sans-serif" font-size="4.34" lengthAdjust="spacing" textLength="47.12" x="17.205" y="714.1631">-timeBetweenDoses : int</text><line style="stroke:#181818;stroke-width:0.155;" x1="15.655" x2="159.185" y1="716.3567" y2="716.3567"/><text fill="#000000" font-family="sans-serif" font-size="4.34" lengthAdjust="spacing" textLength="140.43" x="17.205" y="722.102">+Dose((doseNumber : int), (dosage : double), (timeBetweenDoses : int))</text></g><!--MD5=[53ea8646bea55a3a30bf36c67f05a38b]
class AdmProcessDto--><g id="elem_AdmProcessDto"><rect codeLine="136" fill="#F1F1F1" height="53.0923" id="AdmProcessDto" rx="0.775" ry="0.775" style="stroke:#181818;stroke-width:0.155;" width="224.44" x="94.86" y="397.73"/><ellipse cx="190.1075" cy="402.69" fill="#ADD1B2" rx="3.41" ry="3.41" style="stroke:#181818;stroke-width:0.31;"/><path d="M190.7275,401.605 Q190.7905,401.45 190.8631,401.3725 Q190.9358,401.295 191.0181,401.295 Q191.1634,401.295 191.2555,401.3822 Q191.3475,401.4694 191.3475,401.6728 L191.3475,402.1572 Q191.3475,402.3606 191.2603,402.4478 Q191.1731,402.535 191.0375,402.535 Q190.9164,402.535 190.8389,402.4817 Q190.7614,402.4284 190.7275,402.288 Q190.713,402.1911 190.6597,402.1378 Q190.5628,402.0361 190.3884,401.978 Q190.2141,401.915 190.0397,401.915 Q189.8217,401.915 189.6377,402.0022 Q189.4584,402.0894 189.318,402.2831 Q189.1775,402.4769 189.1775,402.7433 L189.1775,403.0291 Q189.1775,403.3488 189.4391,403.5619 Q189.7006,403.775 190.1656,403.775 Q190.4417,403.775 190.6355,403.712 Q190.7469,403.6781 190.8728,403.5667 Q190.9552,403.5038 190.9988,403.4844 Q191.0423,403.465 191.0956,403.465 Q191.1973,403.465 191.27,403.5473 Q191.3475,403.6248 191.3475,403.7363 Q191.3475,403.8428 191.2409,403.9688 Q191.0859,404.1528 190.8389,404.2545 Q190.5144,404.395 190.1172,404.395 Q189.6522,404.395 189.2792,404.2109 Q188.9789,404.0656 188.7658,403.7508 Q188.5575,403.4359 188.5575,403.063 L188.5575,402.7239 Q188.5575,402.3364 188.7416,401.9973 Q188.9305,401.6583 189.255,401.4791 Q189.5844,401.295 189.9525,401.295 Q190.1753,401.295 190.3691,401.3725 Q190.5628,401.45 190.7275,401.605 Z " fill="#000000"/><text fill="#000000" font-family="sans-serif" font-size="4.34" lengthAdjust="spacing" textLength="31.31" x="196.4625" y="404.4658">AdmProcessDto</text><line style="stroke:#181818;stroke-width:0.155;" x1="95.17" x2="318.99" y1="407.65" y2="407.65"/><text fill="#000000" font-family="sans-serif" font-size="4.34" lengthAdjust="spacing" textLength="41.85" x="96.72" y="413.3953">-numberOfDoses : int</text><text fill="#000000" font-family="sans-serif" font-size="4.34" lengthAdjust="spacing" textLength="35.65" x="96.72" y="418.8542">-maximumAge : int</text><text fill="#000000" font-family="sans-serif" font-size="4.34" lengthAdjust="spacing" textLength="34.72" x="96.72" y="424.3131">-minimumAge : int</text><line style="stroke:#181818;stroke-width:0.155;" x1="95.17" x2="318.99" y1="426.5067" y2="426.5067"/><text fill="#000000" font-family="sans-serif" font-size="4.34" lengthAdjust="spacing" textLength="220.72" x="96.72" y="432.252">+AdmProcessDto((doseStore : DoseStore), (numberOfDoses : int), (maximumAge : int), (minimumAge : int)) : void</text><text fill="#000000" font-family="sans-serif" font-size="4.34" lengthAdjust="spacing" textLength="52.39" x="96.72" y="437.7109">+getNumberOfDoses() : int</text><text fill="#000000" font-family="sans-serif" font-size="4.34" lengthAdjust="spacing" textLength="45.88" x="96.72" y="443.1698">+getMaximumAge() : int</text><text fill="#000000" font-family="sans-serif" font-size="4.34" lengthAdjust="spacing" textLength="44.95" x="96.72" y="448.6287">+getMinimumAge() : int</text></g><!--MD5=[02600b383214ea09f6f5438791a5eae7]
link CreateVaccineUI to CreateVaccineController--><g id="link_CreateVaccineUI_CreateVaccineController"><path codeLine="146" d="M670.53,17.1306 C670.53,21.7899 670.53,28.1232 670.53,34.3604 " fill="none" id="CreateVaccineUI-to-CreateVaccineController" style="stroke:#181818;stroke-width:0.31;stroke-dasharray:7.0,7.0;"/><polygon fill="#181818" points="670.53,35.9445,671.77,33.1545,670.53,34.3945,669.29,33.1545,670.53,35.9445" style="stroke:#181818;stroke-width:0.31;"/></g><!--MD5=[42307e333d6c68ea7829be91a170847b]
link CreateVaccineController to Company--><g id="link_CreateVaccineController_Company"><path codeLine="147" d="M670.53,78.1541 C670.53,83.7093 670.53,89.7388 670.53,95.3777 " fill="none" id="CreateVaccineController-to-Company" style="stroke:#181818;stroke-width:0.31;stroke-dasharray:7.0,7.0;"/><polygon fill="#181818" points="670.53,96.9587,671.77,94.1687,670.53,95.4087,669.29,94.1687,670.53,96.9587" style="stroke:#181818;stroke-width:0.31;"/></g><!--MD5=[af843e749ac4b58c51f05d94dd0db764]
link CreateVaccineController to VaccineTypeStore--><g id="link_CreateVaccineController_VaccineTypeStore"><path codeLine="148" d="M619.9845,78.1603 C612.4143,83.297 605.4827,89.5342 600.47,97.03 C585.9403,118.7579 585.1777,149.8881 586.5944,169.9172 " fill="none" id="CreateVaccineController-to-VaccineTypeStore" style="stroke:#181818;stroke-width:0.31;stroke-dasharray:7.0,7.0;"/><polygon fill="#181818" points="586.7184,171.5788,587.7477,168.7044,586.6032,170.0331,585.2746,168.8886,586.7184,171.5788" style="stroke:#181818;stroke-width:0.31;"/></g><!--MD5=[26b80dd60d3305f854b992ec0b603e2d]
link Company to VaccineTypeStore--><g id="link_Company_VaccineTypeStore"><path codeLine="149" d="M646.6197,139.2861 C635.3295,149.1348 621.9499,160.8125 610.9263,170.4318 " fill="none" id="Company-to-VaccineTypeStore" style="stroke:#181818;stroke-width:0.31;"/><polygon fill="#181818" points="609.7297,171.4765,612.6479,170.5787,610.8984,170.4583,611.0188,168.7088,609.7297,171.4765" style="stroke:#181818;stroke-width:0.31;"/><text fill="#000000" font-family="sans-serif" font-size="4.03" lengthAdjust="spacing" textLength="8.68" x="635.19" y="152.9835">uses</text><text fill="#000000" font-family="sans-serif" font-size="4.03" lengthAdjust="spacing" textLength="2.17" x="641.8721" y="145.914">1</text><text fill="#000000" font-family="sans-serif" font-size="4.03" lengthAdjust="spacing" textLength="2.17" x="609.8311" y="168.2844">1</text></g><!--MD5=[d008df8d9f8e445f2ab98a1ffd9c1902]
link VaccineTypeStore to VaccineType--><g id="link_VaccineTypeStore_VaccineType"><path codeLine="150" d="M566.0538,208.2332 C554.2118,217.5487 539.5178,229.1086 526.3242,239.4874 " fill="none" id="VaccineTypeStore-to-VaccineType" style="stroke:#181818;stroke-width:0.31;"/><polygon fill="#181818" points="525.0501,240.4887,528.0085,239.7338,526.2669,239.5285,526.4722,237.787,525.0501,240.4887" style="stroke:#181818;stroke-width:0.31;"/><text fill="#000000" font-family="sans-serif" font-size="4.03" lengthAdjust="spacing" textLength="10.23" x="543.74" y="230.1735">saves</text><text fill="#000000" font-family="sans-serif" font-size="4.03" lengthAdjust="spacing" textLength="2.17" x="560.955" y="214.9547">1</text><text fill="#000000" font-family="sans-serif" font-size="4.03" lengthAdjust="spacing" textLength="1.55" x="526.303" y="237.2163">*</text></g><!--MD5=[aad769526a4e9d557113a841fa98952c]
link CreateVaccineController to VaccineTypeMapper--><g id="link_CreateVaccineController_VaccineTypeMapper"><path codeLine="151" d="M748.2439,58.342 C819.0014,60.5988 925.9731,67.4126 1016.8,87.42 C1035.0311,91.4345 1054.6913,98.3909 1070.4052,104.6343 " fill="none" id="CreateVaccineController-to-VaccineTypeMapper" style="stroke:#181818;stroke-width:0.31;stroke-dasharray:7.0,7.0;"/><polygon fill="#181818" points="1071.9118,105.2357,1069.7819,103.0482,1070.4727,104.66,1068.8608,105.3508,1071.9118,105.2357" style="stroke:#181818;stroke-width:0.31;"/></g><!--MD5=[f7aecccebae421356b79bc54ea50a32a]
link VaccineTypeMapper to VaccineTypeDto--><g id="link_VaccineTypeMapper_VaccineTypeDto"><path codeLine="152" d="M1103.5442,130.975 C1105.4011,139.4938 1107.9276,151.094 1110.2464,161.727 " fill="none" id="VaccineTypeMapper-to-VaccineTypeDto" style="stroke:#181818;stroke-width:0.31;stroke-dasharray:7.0,7.0;"/><polygon fill="#181818" points="1110.5843,163.2894,1111.2062,160.3003,1110.2565,161.7745,1108.7823,160.8247,1110.5843,163.2894" style="stroke:#181818;stroke-width:0.31;"/></g><!--MD5=[ac68fd67fa8daf9c0f59011202d8fcda]
link Company to VaccineMapper--><g id="link_Company_VaccineMapper"><path codeLine="153" d="M670.5734,139.2024 C670.6385,170.8782 670.7625,230.1936 670.8152,255.1827 " fill="none" id="Company-to-VaccineMapper" style="stroke:#181818;stroke-width:0.31;stroke-dasharray:7.0,7.0;"/><polygon fill="#181818" points="670.8183,256.7792,672.0503,253.9857,670.8139,255.2292,669.5703,253.9928,670.8183,256.7792" style="stroke:#181818;stroke-width:0.31;"/></g><!--MD5=[2932d746175c7c587cc8dcdf89ee5f56]
link VaccineMapper to VaccineDto--><g id="link_VaccineMapper_VaccineDto"><path codeLine="154" d="M677.7158,277.3074 C684.5544,287.184 695.361,302.7925 704.7943,316.4201 " fill="none" id="VaccineMapper-to-VaccineDto" style="stroke:#181818;stroke-width:0.31;stroke-dasharray:7.0,7.0;"/><polygon fill="#181818" points="705.7026,317.7345,705.1367,314.7343,704.8215,316.4593,703.0964,316.144,705.7026,317.7345" style="stroke:#181818;stroke-width:0.31;"/></g><!--MD5=[b3efa217a305eaf85babf5eb60143a21]
link VaccineMapper to AdmProcessStore--><g id="link_VaccineMapper_AdmProcessStore"><path codeLine="155" d="M657.014,277.3136 C645.5874,286.4028 630.1029,300.9635 622.79,317.75 C599.7198,370.7073 604.1807,440.7642 608.5331,476.0825 " fill="none" id="VaccineMapper-to-AdmProcessStore" style="stroke:#181818;stroke-width:0.31;stroke-dasharray:7.0,7.0;"/><polygon fill="#181818" points="608.7284,477.6356,609.6159,474.7143,608.5378,476.0974,607.1547,475.0193,608.7284,477.6356" style="stroke:#181818;stroke-width:0.31;"/></g><!--MD5=[76fab2bf9bf0dde84ab006e9b6e3109d]
link VaccineMapper to VaccineStore--><g id="link_VaccineMapper_VaccineStore"><path codeLine="156" d="M647.5993,277.3074 C619.2312,289.4284 570.6666,310.1829 535.2584,325.314 " fill="none" id="VaccineMapper-to-VaccineStore" style="stroke:#181818;stroke-width:0.31;stroke-dasharray:7.0,7.0;"/><polygon fill="#181818" points="533.7921,325.9402,536.845,325.9775,535.2161,325.328,535.8655,323.6991,533.7921,325.9402" style="stroke:#181818;stroke-width:0.31;"/></g><!--MD5=[89791a9cd8c9c78fd39f4b892a053799]
link VaccineStore to Vaccine--><g id="link_VaccineStore_Vaccine"><path codeLine="157" d="M485.119,362.5729 C481.8082,371.6838 477.7007,382.9926 473.9156,393.4086 " fill="none" id="VaccineStore-to-Vaccine" style="stroke:#181818;stroke-width:0.31;"/><polygon fill="#181818" points="473.3607,394.9369,475.4757,392.735,473.8879,393.4793,473.1436,391.8915,473.3607,394.9369" style="stroke:#181818;stroke-width:0.31;"/><text fill="#000000" font-family="sans-serif" font-size="4.03" lengthAdjust="spacing" textLength="10.23" x="478.64" y="384.5535">saves</text><text fill="#000000" font-family="sans-serif" font-size="4.03" lengthAdjust="spacing" textLength="2.17" x="482.0196" y="369.2895">1</text><text fill="#000000" font-family="sans-serif" font-size="4.03" lengthAdjust="spacing" textLength="1.55" x="472.6186" y="391.5349">*</text></g><!--MD5=[2998d753de328feff99b0ab400166f43]
link VaccineType to VaccineStore--><g id="link_VaccineType_VaccineStore"><path codeLine="158" d="M491.66,293.6196 C491.66,303.6853 491.66,314.991 491.66,324.3313 " fill="none" id="VaccineType-to-VaccineStore" style="stroke:#181818;stroke-width:0.31;"/><polygon fill="#181818" points="491.66,325.9309,492.9,323.1409,491.66,324.3809,490.42,323.1409,491.66,325.9309" style="stroke:#181818;stroke-width:0.31;"/><text fill="#000000" font-family="sans-serif" font-size="4.03" lengthAdjust="spacing" textLength="8.68" x="491.97" y="307.3635">uses</text><text fill="#000000" font-family="sans-serif" font-size="4.03" lengthAdjust="spacing" textLength="2.17" x="489.3968" y="300.2994">1</text><text fill="#000000" font-family="sans-serif" font-size="4.03" lengthAdjust="spacing" textLength="2.17" x="489.3578" y="322.6173">1</text></g><!--MD5=[5ca9a83bdeaaa922d2f9b4a49a70684d]
link CreateVaccineController to AdmProcessMapper--><g id="link_CreateVaccineController_AdmProcessMapper"><path codeLine="159" d="M592.8192,61.6187 C478.4943,68.9595 278.38,86.3071 278.38,117.8 C278.38,117.8 278.38,117.8 278.38,267.375 C278.38,293.6599 258.3695,318.8412 244.962,332.7664 " fill="none" id="CreateVaccineController-to-AdmProcessMapper" style="stroke:#181818;stroke-width:0.31;stroke-dasharray:7.0,7.0;"/><polygon fill="#181818" points="243.846,333.9165,246.6799,332.7803,244.9264,332.8051,244.9016,331.0516,243.846,333.9165" style="stroke:#181818;stroke-width:0.31;"/></g><!--MD5=[1621577c17dcc240be1d8f35c9f34667]
link AdmProcessMapper to AdmProcessDto--><g id="link_AdmProcessMapper_AdmProcessDto"><path codeLine="160" d="M229.8495,354.5346 C226.4333,364.9382 220.9277,381.7185 216.1878,396.1707 " fill="none" id="AdmProcessMapper-to-AdmProcessDto" style="stroke:#181818;stroke-width:0.31;stroke-dasharray:7.0,7.0;"/><polygon fill="#181818" points="215.7011,397.6525,217.7536,395.3922,216.1873,396.1807,215.3988,394.6144,215.7011,397.6525" style="stroke:#181818;stroke-width:0.31;"/></g><!--MD5=[e626c64d2850376e5166fdb4fafed3cb]
link AdmProcessMapper to DoseStore--><g id="link_AdmProcessMapper_DoseStore"><path codeLine="161" d="M158.72,354.5129 C119.0927,364.4546 78.43,384.3101 78.43,423.925 C78.43,423.925 78.43,423.925 78.43,570.865 C78.43,587.2888 80.817,605.678 83.1327,619.6435 " fill="none" id="AdmProcessMapper-to-DoseStore" style="stroke:#181818;stroke-width:0.31;stroke-dasharray:7.0,7.0;"/><polygon fill="#181818" points="83.3993,621.24,84.161,618.2834,83.143,619.7113,81.7151,618.6934,83.3993,621.24" style="stroke:#181818;stroke-width:0.31;"/></g><!--MD5=[949ab6b81ff729b1ce126c692f0a53aa]
link AdmProcessMapper to Vaccine--><g id="link_AdmProcessMapper_Vaccine"><path codeLine="162" d="M261.8632,354.4943 C290.7459,364.4732 336.6879,380.3452 377.3599,394.3975 " fill="none" id="AdmProcessMapper-to-Vaccine" style="stroke:#181818;stroke-width:0.31;stroke-dasharray:7.0,7.0;"/><polygon fill="#181818" points="378.9254,394.9369,376.6913,392.856,377.4599,394.4322,375.8837,395.2008,378.9254,394.9369" style="stroke:#181818;stroke-width:0.31;"/></g><!--MD5=[ed97e844fa7af447b50dec7b96e9559b]
link Vaccine to AdmProcessStore--><g id="link_Vaccine_AdmProcessStore"><path codeLine="163" d="M521.3332,453.5548 C537.0626,461.3544 553.7933,469.6469 568.54,476.9598 " fill="none" id="Vaccine-to-AdmProcessStore" style="stroke:#181818;stroke-width:0.31;"/><polygon fill="#181818" points="569.9598,477.6635,568.0129,475.3116,568.5717,476.9739,566.9095,477.5326,569.9598,477.6635" style="stroke:#181818;stroke-width:0.31;"/><text fill="#000000" font-family="sans-serif" font-size="4.03" lengthAdjust="spacing" textLength="8.68" x="551.18" y="467.3235">uses</text><text fill="#000000" font-family="sans-serif" font-size="4.03" lengthAdjust="spacing" textLength="2.17" x="523.5593" y="460.1786">1</text><text fill="#000000" font-family="sans-serif" font-size="4.03" lengthAdjust="spacing" textLength="2.17" x="563.0795" y="474.3102">1</text></g><!--MD5=[618871c037b5e596261eb1cef10b31c8]
link AdmProcessStore to AdministrationProcess--><g id="link_AdmProcessStore_AdministrationProcess"><path codeLine="164" d="M659.742,519.9165 C676.5967,527.2573 695.7857,535.6149 713.6231,543.3804 " fill="none" id="AdmProcessStore-to-AdministrationProcess" style="stroke:#181818;stroke-width:0.31;"/><polygon fill="#181818" points="715.1235,544.0345,713.0619,541.7825,713.7027,543.4149,712.0704,544.0557,715.1235,544.0345" style="stroke:#181818;stroke-width:0.31;"/><text fill="#000000" font-family="sans-serif" font-size="4.03" lengthAdjust="spacing" textLength="10.23" x="694.09" y="533.6635">saves</text><text fill="#000000" font-family="sans-serif" font-size="4.03" lengthAdjust="spacing" textLength="2.17" x="662.3897" y="526.5393">1</text><text fill="#000000" font-family="sans-serif" font-size="4.03" lengthAdjust="spacing" textLength="1.55" x="708.1441" y="540.6763">*</text></g><!--MD5=[46874d05b1541bae1342b0655e477eb9]
link CreateVaccineController to Vaccine--><g id="link_CreateVaccineController_Vaccine"><path codeLine="165" d="M592.8099,57.9545 C504.1747,60.8034 371.38,72.6144 371.38,117.8 C371.38,117.8 371.38,117.8 371.38,344.565 C371.38,365.0529 384.6356,381.4426 401.0501,393.886 " fill="none" id="CreateVaccineController-to-Vaccine" style="stroke:#181818;stroke-width:0.31;stroke-dasharray:7.0,7.0;"/><polygon fill="#181818" points="402.3397,394.8501,400.8517,392.1841,401.0997,393.9201,399.3637,394.1681,402.3397,394.8501" style="stroke:#181818;stroke-width:0.31;"/></g><!--MD5=[2adabaf927d2c640b55d8ae76abbc866]
link CreateVaccineController to DoseMapper--><g id="link_CreateVaccineController_DoseMapper"><path codeLine="166" d="M723.5524,78.1541 C748.5849,87.9749 777.3777,99.2713 797.8098,107.2879 " fill="none" id="CreateVaccineController-to-DoseMapper" style="stroke:#181818;stroke-width:0.31;stroke-dasharray:7.0,7.0;"/><polygon fill="#181818" points="799.2668,107.8614,797.123,105.6875,797.824,107.2949,796.2166,107.9959,799.2668,107.8614" style="stroke:#181818;stroke-width:0.31;"/></g><!--MD5=[556d2dccf2a4010dc5e1ccbe9f7026b0]
link DoseMapper to DoseDto--><g id="link_DoseMapper_DoseDto"><path codeLine="167" d="M837.4991,128.3865 C848.8823,137.1843 866.0191,150.4244 881.4416,162.3408 " fill="none" id="DoseMapper-to-DoseDto" style="stroke:#181818;stroke-width:0.31;stroke-dasharray:7.0,7.0;"/><polygon fill="#181818" points="882.7374,163.3452,881.2876,160.6582,881.5108,162.3976,879.7714,162.6208,882.7374,163.3452" style="stroke:#181818;stroke-width:0.31;"/></g><!--MD5=[4dea9c353df619f9483c45e4cc31aa22]
link DoseMapper to AdministrationProcess--><g id="link_DoseMapper_AdministrationProcess"><path codeLine="168" d="M825.3223,128.3679 C827.7961,163.2522 835.76,283.2904 835.76,382.54 C835.76,382.54 835.76,382.54 835.76,499.1 C835.76,516.0973 825.6168,531.1075 813.6384,542.9061 " fill="none" id="DoseMapper-to-AdministrationProcess" style="stroke:#181818;stroke-width:0.31;stroke-dasharray:7.0,7.0;"/><polygon fill="#181818" points="812.4759,544.0376,815.3408,542.982,813.5873,542.9572,813.6121,541.2037,812.4759,544.0376" style="stroke:#181818;stroke-width:0.31;"/></g><!--MD5=[0125d347600b61bbc0956608d8cd82cd]
link AdministrationProcess to DoseStore--><g id="link_AdministrationProcess_DoseStore"><path codeLine="169" d="M656.9582,583.1069 C519.6902,597.3018 296.6452,620.372 174.3905,633.0138 " fill="none" id="AdministrationProcess-to-DoseStore" style="stroke:#181818;stroke-width:0.31;"/><polygon fill="#181818" points="172.7785,633.1812,175.6813,634.1275,174.3203,633.0217,175.4261,631.6607,172.7785,633.1812" style="stroke:#181818;stroke-width:0.31;"/><text fill="#000000" font-family="sans-serif" font-size="4.03" lengthAdjust="spacing" textLength="8.68" x="431.83" y="610.8535">uses</text><text fill="#000000" font-family="sans-serif" font-size="4.03" lengthAdjust="spacing" textLength="2.17" x="652.3621" y="582.5352">1</text><text fill="#000000" font-family="sans-serif" font-size="4.03" lengthAdjust="spacing" textLength="2.17" x="175.0747" y="632.0973">1</text></g><!--MD5=[e4e48972fcb7936db45f0a25f62e7afd]
link DoseStore to Dose--><g id="link_DoseStore_Dose"><path codeLine="170" d="M87.42,663.4093 C87.42,670.6664 87.42,678.7822 87.42,685.9401 " fill="none" id="DoseStore-to-Dose" style="stroke:#181818;stroke-width:0.31;"/><polygon fill="#181818" points="87.42,687.5459,88.66,684.7559,87.42,685.9959,86.18,684.7559,87.42,687.5459" style="stroke:#181818;stroke-width:0.31;"/><text fill="#000000" font-family="sans-serif" font-size="4.03" lengthAdjust="spacing" textLength="10.23" x="87.73" y="677.1935">saves</text><text fill="#000000" font-family="sans-serif" font-size="4.03" lengthAdjust="spacing" textLength="2.17" x="85.1381" y="670.0282">1</text><text fill="#000000" font-family="sans-serif" font-size="4.03" lengthAdjust="spacing" textLength="1.55" x="85.7755" y="684.2323">*</text></g><!--MD5=[081bca56a2b7da10d09f3ce0bc96b285]
link CreateVaccineController to AdministrationProcess--><g id="link_CreateVaccineController_AdministrationProcess"><path codeLine="171" d="M748.2284,63.612 C848.0887,72.7322 1008.74,91.4903 1008.74,117.8 C1008.74,117.8 1008.74,117.8 1008.74,499.1 C1008.74,525.7259 952.4626,543.3587 895.1746,554.4071 " fill="none" id="CreateVaccineController-to-AdministrationProcess" style="stroke:#181818;stroke-width:0.31;stroke-dasharray:7.0,7.0;"/><polygon fill="#181818" points="893.6494,554.7016,896.6234,555.3921,895.1715,554.4087,896.1548,552.9568,893.6494,554.7016" style="stroke:#181818;stroke-width:0.31;"/></g><!--MD5=[417a2ead042d2f0c4b0dea3e62299468]
@startuml
skinparam classAttributeIconSize 0

class CreateVaccineUI {}

class CreateVaccineController {
+getListOfVaccineTypes() : List<VaccineTypeDto>
+createVaccine(vaccineDto : VaccineDto) : boolean
+createAdmProcess(admpDto : AdmProcessDto) : boolean
+createDose((admp : AdministrationProcess), (doseDto : DoseDto)) : boolean
+saveVaccine() : boolean
}

class Company {
-designation : Designation
+getVTStore() : VaccineTypeStore
+createVaccine(vaccineDto : VaccineDto) : Vaccine
+validateVaccine(vaccine : Vaccine) : boolean
+saveVaccine((vaccine : Vaccine), (vt : VaccineType)) : boolean
}

class VaccineTypeStore {
-listVT : List<VaccineType>
+getVaccineTypes() : List<VaccineType>
+find(vt : VaccineType) : VaccineType
+saveVaccine((vaccine : Vaccine), (vt : VaccineType))) : boolean
}

class VaccineTypeMapper {
+toDto(listVT : List<VaccineType>) : List<VaccineTypeDto>
+toModel(vtDto : VaccineTypeDto) : VaccineType
}

class VaccineStore {
-listVaccine : List<Vaccine>
+validateVaccine(vaccine : Vaccine) : boolean
+saveVaccine(vaccine : Vaccine) : boolean
+createVaccine((id : String), (name : String), (brand : String), (admpStore : AdmProcessStore)) : Vaccine
}

class AdmProcessMapper {
+createAdmProcess((vaccine : Vaccine), (admpDto : AdmProcessDto)) : AdministrationProcessA
}

class Vaccine {
-id : String
-name : String
-brand : String
+Vaccine((id : String),(name : String),(brand : String),(admpStore : AdmProcessStore)) : void
+getAdmProcessStore() : AdmProcessStore
+validateAdmProcess(admp : AdministrationProcess) : boolean
+saveAdmProcess(admp : AdministrationProcess) : boolean
+createAdmProcess((doseStore : DoseStore), (numberOfDoses : int), (maximumAge : int), (minimumAge : int)) : AdministrationProcess
}

class AdmProcessStore {
-listAdmp : List<AdministrationProcess>
+AdmProcessStore() : void
+validateAdmProcess(admp : AdministrationProcess) : boolean
+saveAdmProcess(admp : AdministrationProcess) : boolean
+createAdmProcess((doseStore : DoseStore), (numberOfDoses : int), (maximumAge : int), (minimumAge : int)) : AdministrationProcess
}

class DoseMapper {
+createDose((admp : AdministrationProcess), (doseDto : DoseDto)) : Dose
}

class AdministrationProcess {
-numberOfDoses : int
-maximumAge : int
-minimumAge : int
+AdministrationProcess((doseStore : DoseStore), (numberOfDoses : int), (maximumAge : int), (minimumAge : int)) : void
+createDose((doseNumber : int), (dosage : double), (timeBetweenDoses : int)) : Dose
+validateDose(dose : Dose) : boolean
+saveDose(dose : Dose) : boolean
}

class DoseStore {
-listDoses : List<Dose>
+DoseStore() : void
+validateDose(dose : Dose) : boolean
+saveDose(dose : Dose) : boolean
+createDose((doseNumber : int), (dosage : double), (timeBetweenDoses : int)) : Dose
}

class VaccineType {
-code : String
-description : String
-vaccineTechnology : String
+VaccineType((code : String), (description : String), (vaccineTechnology : String)) : void
+getCode() : String
+getDescription() : String
+getVaccineTechology() : String
}

class VaccineTypeDto {
-code : String
-description : String
-vaccineTechnology : String
+VaccineTypeDto((code : String), (description : String), (vaccineTechnology : String)) : void
+getCode() : String
+getDescription() : String
+getVaccineTechology() : String
}

class VaccineDto {
-id : String
-name : String
-brand : String
+VaccineDto((id : String),(name : String),(brand : String),(admpStore : AdmProcessStore)) : void
+getId() : String
+getName() : String
+getBrand() : String
}

class VaccineMapper {
+createVaccine((vaccineDto : VaccineDto), (vaccStore : VaccineStore)) : vaccine
}

class DoseDto {
-doseNumber : int
-dosage : double
-timeBetweenDoses : int
+DoseDto((doseNumber : int), (dosage : double), (timeBetweenDoses : int))
+getDoseNumber() : int
+getDosage() : double
+getTimeBetweenDoses() : int
}

class Dose {
-doseNumber : int
-dosage : double
-timeBetweenDoses : int
+Dose((doseNumber : int), (dosage : double), (timeBetweenDoses : int))
}

class AdmProcessDto {
-numberOfDoses : int
-maximumAge : int
-minimumAge : int
+AdmProcessDto((doseStore : DoseStore), (numberOfDoses : int), (maximumAge : int), (minimumAge : int)) : void
+getNumberOfDoses() : int
+getMaximumAge() : int
+getMinimumAge() : int
}

CreateVaccineUI ..> CreateVaccineController
CreateVaccineController ..> Company
CreateVaccineController ..> VaccineTypeStore
Company "1" - -> "1" VaccineTypeStore : uses
VaccineTypeStore "1" - -> "*" VaccineType : saves
CreateVaccineController ..> VaccineTypeMapper
VaccineTypeMapper ..> VaccineTypeDto
Company ..> VaccineMapper
VaccineMapper ..> VaccineDto
VaccineMapper ..> AdmProcessStore
VaccineMapper ..> VaccineStore
VaccineStore "1" - -> "*" Vaccine : saves
VaccineType "1" - -> "1" VaccineStore : uses
CreateVaccineController ..> AdmProcessMapper
AdmProcessMapper ..> AdmProcessDto
AdmProcessMapper ..> DoseStore
AdmProcessMapper ..> Vaccine
Vaccine "1" - -> "1" AdmProcessStore : uses
AdmProcessStore "1" - -> "*" AdministrationProcess: saves
CreateVaccineController ..> Vaccine
CreateVaccineController ..> DoseMapper
DoseMapper ..> DoseDto
DoseMapper ..> AdministrationProcess
AdministrationProcess "1" - -> "1" DoseStore : uses
DoseStore "1" - -> "*" Dose : saves
CreateVaccineController ..> AdministrationProcess


@enduml

PlantUML version 1.2022.4(Sat Apr 09 14:29:17 BST 2022)
(GPL source distribution)
Java Runtime: OpenJDK Runtime Environment
JVM: OpenJDK 64-Bit Server VM
Default Encoding: Cp1252
Language: pt
Country: PT
--></g></svg>