<?xml version="1.0" encoding="UTF-8" standalone="no"?><svg xmlns="http://www.w3.org/2000/svg" xmlns:xlink="http://www.w3.org/1999/xlink" contentStyleType="text/css" height="936px" preserveAspectRatio="none" style="width:2109px;height:936px;background:#FFFFFF;" version="1.1" viewBox="0 0 2109 936" width="2109px" zoomAndPan="magnify"><defs/><g><!--MD5=[02e4b9b7573f1156f41e60aa5b4e25a4]
class Company--><g id="elem_Company"><rect codeLine="3" fill="#F1F1F1" height="100.8281" id="Company" rx="2.5" ry="2.5" style="stroke:#181818;stroke-width:0.5;" width="250" x="1271" y="260"/><ellipse cx="1361.75" cy="276" fill="#ADD1B2" rx="11" ry="11" style="stroke:#181818;stroke-width:1.0;"/><path d="M1363.75,272.5 Q1363.9531,272 1364.1875,271.75 Q1364.4219,271.5 1364.6875,271.5 Q1365.1563,271.5 1365.4531,271.7813 Q1365.75,272.0625 1365.75,272.7188 L1365.75,274.2813 Q1365.75,274.9375 1365.4688,275.2188 Q1365.1875,275.5 1364.75,275.5 Q1364.3594,275.5 1364.1094,275.3281 Q1363.8594,275.1563 1363.75,274.7031 Q1363.7031,274.3906 1363.5313,274.2188 Q1363.2188,273.8906 1362.6563,273.7031 Q1362.0938,273.5 1361.5313,273.5 Q1360.8281,273.5 1360.2344,273.7813 Q1359.6563,274.0625 1359.2031,274.6875 Q1358.75,275.3125 1358.75,276.1719 L1358.75,277.0938 Q1358.75,278.125 1359.5938,278.8125 Q1360.4375,279.5 1361.9375,279.5 Q1362.8281,279.5 1363.4531,279.2969 Q1363.8125,279.1875 1364.2188,278.8281 Q1364.4844,278.625 1364.625,278.5625 Q1364.7656,278.5 1364.9375,278.5 Q1365.2656,278.5 1365.5,278.7656 Q1365.75,279.0156 1365.75,279.375 Q1365.75,279.7188 1365.4063,280.125 Q1364.9063,280.7188 1364.1094,281.0469 Q1363.0625,281.5 1361.7813,281.5 Q1360.2813,281.5 1359.0781,280.9063 Q1358.1094,280.4375 1357.4219,279.4219 Q1356.75,278.4063 1356.75,277.2031 L1356.75,276.1094 Q1356.75,274.8594 1357.3438,273.7656 Q1357.9531,272.6719 1359,272.0938 Q1360.0625,271.5 1361.25,271.5 Q1361.9688,271.5 1362.5938,271.75 Q1363.2188,272 1363.75,272.5 Z " fill="#000000"/><text fill="#000000" font-family="sans-serif" font-size="14" lengthAdjust="spacing" textLength="60" x="1382.25" y="281.7285">Company</text><line style="stroke:#181818;stroke-width:0.5;" x1="1272" x2="1520" y1="292" y2="292"/><text fill="#000000" font-family="sans-serif" font-size="14" lengthAdjust="spacing" textLength="119" x="1277" y="310.5332">-String designation</text><line style="stroke:#181818;stroke-width:0.5;" x1="1272" x2="1520" y1="317.6094" y2="317.6094"/><text fill="#000000" font-family="sans-serif" font-size="14" lengthAdjust="spacing" textLength="176" x="1277" y="336.1426">+getRoleStore() : RoleStore</text><text fill="#000000" font-family="sans-serif" font-size="14" lengthAdjust="spacing" textLength="238" x="1277" y="353.752">+getEmployeeStore(): EmployeeStore</text></g><!--MD5=[5e0ed98d5fac2708b831b2008fc177ae]
class GetListController--><g id="elem_GetListController"><rect codeLine="9" fill="#F1F1F1" height="83.2188" id="GetListController" rx="2.5" ry="2.5" style="stroke:#181818;stroke-width:0.5;" width="462" x="1165" y="116"/><ellipse cx="1338.25" cy="132" fill="#ADD1B2" rx="11" ry="11" style="stroke:#181818;stroke-width:1.0;"/><path d="M1340.25,128.5 Q1340.4531,128 1340.6875,127.75 Q1340.9219,127.5 1341.1875,127.5 Q1341.6563,127.5 1341.9531,127.7813 Q1342.25,128.0625 1342.25,128.7188 L1342.25,130.2813 Q1342.25,130.9375 1341.9688,131.2188 Q1341.6875,131.5 1341.25,131.5 Q1340.8594,131.5 1340.6094,131.3281 Q1340.3594,131.1563 1340.25,130.7031 Q1340.2031,130.3906 1340.0313,130.2188 Q1339.7188,129.8906 1339.1563,129.7031 Q1338.5938,129.5 1338.0313,129.5 Q1337.3281,129.5 1336.7344,129.7813 Q1336.1563,130.0625 1335.7031,130.6875 Q1335.25,131.3125 1335.25,132.1719 L1335.25,133.0938 Q1335.25,134.125 1336.0938,134.8125 Q1336.9375,135.5 1338.4375,135.5 Q1339.3281,135.5 1339.9531,135.2969 Q1340.3125,135.1875 1340.7188,134.8281 Q1340.9844,134.625 1341.125,134.5625 Q1341.2656,134.5 1341.4375,134.5 Q1341.7656,134.5 1342,134.7656 Q1342.25,135.0156 1342.25,135.375 Q1342.25,135.7188 1341.9063,136.125 Q1341.4063,136.7188 1340.6094,137.0469 Q1339.5625,137.5 1338.2813,137.5 Q1336.7813,137.5 1335.5781,136.9063 Q1334.6094,136.4375 1333.9219,135.4219 Q1333.25,134.4063 1333.25,133.2031 L1333.25,132.1094 Q1333.25,130.8594 1333.8438,129.7656 Q1334.4531,128.6719 1335.5,128.0938 Q1336.5625,127.5 1337.75,127.5 Q1338.4688,127.5 1339.0938,127.75 Q1339.7188,128 1340.25,128.5 Z " fill="#000000"/><text fill="#000000" font-family="sans-serif" font-size="14" lengthAdjust="spacing" textLength="107" x="1358.75" y="137.7285">GetListController</text><line style="stroke:#181818;stroke-width:0.5;" x1="1166" x2="1626" y1="148" y2="148"/><line style="stroke:#181818;stroke-width:0.5;" x1="1166" x2="1626" y1="156" y2="156"/><text fill="#000000" font-family="sans-serif" font-size="14" lengthAdjust="spacing" textLength="198" x="1171" y="174.5332">+getRoleList() : List&lt;RoleDTO&gt;</text><text fill="#000000" font-family="sans-serif" font-size="14" lengthAdjust="spacing" textLength="450" x="1171" y="192.1426">+getListOfEmployeesByRole(selectedRole:Role) : List &lt;EmployeeDTO&gt;</text></g><!--MD5=[6a035c5e80f74f2cad5f3d5a1d24dc86]
class GetListUI--><g id="elem_GetListUI"><rect codeLine="13" fill="#F1F1F1" height="48" id="GetListUI" rx="2.5" ry="2.5" style="stroke:#181818;stroke-width:0.5;" width="89" x="1351.5" y="7"/><ellipse cx="1366.5" cy="23" fill="#ADD1B2" rx="11" ry="11" style="stroke:#181818;stroke-width:1.0;"/><path d="M1368.5,19.5 Q1368.7031,19 1368.9375,18.75 Q1369.1719,18.5 1369.4375,18.5 Q1369.9063,18.5 1370.2031,18.7813 Q1370.5,19.0625 1370.5,19.7188 L1370.5,21.2813 Q1370.5,21.9375 1370.2188,22.2188 Q1369.9375,22.5 1369.5,22.5 Q1369.1094,22.5 1368.8594,22.3281 Q1368.6094,22.1563 1368.5,21.7031 Q1368.4531,21.3906 1368.2813,21.2188 Q1367.9688,20.8906 1367.4063,20.7031 Q1366.8438,20.5 1366.2813,20.5 Q1365.5781,20.5 1364.9844,20.7813 Q1364.4063,21.0625 1363.9531,21.6875 Q1363.5,22.3125 1363.5,23.1719 L1363.5,24.0938 Q1363.5,25.125 1364.3438,25.8125 Q1365.1875,26.5 1366.6875,26.5 Q1367.5781,26.5 1368.2031,26.2969 Q1368.5625,26.1875 1368.9688,25.8281 Q1369.2344,25.625 1369.375,25.5625 Q1369.5156,25.5 1369.6875,25.5 Q1370.0156,25.5 1370.25,25.7656 Q1370.5,26.0156 1370.5,26.375 Q1370.5,26.7188 1370.1563,27.125 Q1369.6563,27.7188 1368.8594,28.0469 Q1367.8125,28.5 1366.5313,28.5 Q1365.0313,28.5 1363.8281,27.9063 Q1362.8594,27.4375 1362.1719,26.4219 Q1361.5,25.4063 1361.5,24.2031 L1361.5,23.1094 Q1361.5,21.8594 1362.0938,20.7656 Q1362.7031,19.6719 1363.75,19.0938 Q1364.8125,18.5 1366,18.5 Q1366.7188,18.5 1367.3438,18.75 Q1367.9688,19 1368.5,19.5 Z " fill="#000000"/><text fill="#000000" font-family="sans-serif" font-size="14" lengthAdjust="spacing" textLength="57" x="1380.5" y="28.7285">GetListUI</text><line style="stroke:#181818;stroke-width:0.5;" x1="1352.5" x2="1439.5" y1="39" y2="39"/><line style="stroke:#181818;stroke-width:0.5;" x1="1352.5" x2="1439.5" y1="47" y2="47"/></g><!--MD5=[7421f545a0d8420c5bec41e74b387d9c]
class Employee--><g id="elem_Employee"><rect codeLine="16" fill="#F1F1F1" height="241.7031" id="Employee" rx="2.5" ry="2.5" style="stroke:#181818;stroke-width:0.5;" width="185" x="1053.5" y="688"/><ellipse cx="1110.75" cy="704" fill="#ADD1B2" rx="11" ry="11" style="stroke:#181818;stroke-width:1.0;"/><path d="M1112.75,700.5 Q1112.9531,700 1113.1875,699.75 Q1113.4219,699.5 1113.6875,699.5 Q1114.1563,699.5 1114.4531,699.7813 Q1114.75,700.0625 1114.75,700.7188 L1114.75,702.2813 Q1114.75,702.9375 1114.4688,703.2188 Q1114.1875,703.5 1113.75,703.5 Q1113.3594,703.5 1113.1094,703.3281 Q1112.8594,703.1563 1112.75,702.7031 Q1112.7031,702.3906 1112.5313,702.2188 Q1112.2188,701.8906 1111.6563,701.7031 Q1111.0938,701.5 1110.5313,701.5 Q1109.8281,701.5 1109.2344,701.7813 Q1108.6563,702.0625 1108.2031,702.6875 Q1107.75,703.3125 1107.75,704.1719 L1107.75,705.0938 Q1107.75,706.125 1108.5938,706.8125 Q1109.4375,707.5 1110.9375,707.5 Q1111.8281,707.5 1112.4531,707.2969 Q1112.8125,707.1875 1113.2188,706.8281 Q1113.4844,706.625 1113.625,706.5625 Q1113.7656,706.5 1113.9375,706.5 Q1114.2656,706.5 1114.5,706.7656 Q1114.75,707.0156 1114.75,707.375 Q1114.75,707.7188 1114.4063,708.125 Q1113.9063,708.7188 1113.1094,709.0469 Q1112.0625,709.5 1110.7813,709.5 Q1109.2813,709.5 1108.0781,708.9063 Q1107.1094,708.4375 1106.4219,707.4219 Q1105.75,706.4063 1105.75,705.2031 L1105.75,704.1094 Q1105.75,702.8594 1106.3438,701.7656 Q1106.9531,700.6719 1108,700.0938 Q1109.0625,699.5 1110.25,699.5 Q1110.9688,699.5 1111.5938,699.75 Q1112.2188,700 1112.75,700.5 Z " fill="#000000"/><text fill="#000000" font-family="sans-serif" font-size="14" lengthAdjust="spacing" textLength="62" x="1131.25" y="709.7285">Employee</text><line style="stroke:#181818;stroke-width:0.5;" x1="1054.5" x2="1237.5" y1="720" y2="720"/><text fill="#000000" font-family="sans-serif" font-size="14" lengthAdjust="spacing" textLength="126" x="1059.5" y="738.5332">-employeeId : String</text><text fill="#000000" font-family="sans-serif" font-size="14" lengthAdjust="spacing" textLength="105" x="1059.5" y="756.1426">-address : String</text><text fill="#000000" font-family="sans-serif" font-size="14" lengthAdjust="spacing" textLength="143" x="1059.5" y="773.752">-phoneNumber : String</text><text fill="#000000" font-family="sans-serif" font-size="14" lengthAdjust="spacing" textLength="117" x="1059.5" y="791.3613">-ccNumber : String</text><line style="stroke:#181818;stroke-width:0.5;" x1="1054.5" x2="1237.5" y1="798.4375" y2="798.4375"/><text fill="#000000" font-family="sans-serif" font-size="14" lengthAdjust="spacing" textLength="104" x="1059.5" y="816.9707">+getRole(): Role</text><text fill="#000000" font-family="sans-serif" font-size="14" lengthAdjust="spacing" textLength="119" x="1059.5" y="834.5801">+getName(): String</text><text fill="#000000" font-family="sans-serif" font-size="14" lengthAdjust="spacing" textLength="156" x="1059.5" y="852.1895">+getEmployeeId(): String</text><text fill="#000000" font-family="sans-serif" font-size="14" lengthAdjust="spacing" textLength="91" x="1059.5" y="869.7988">+getId(): Email</text><text fill="#000000" font-family="sans-serif" font-size="14" lengthAdjust="spacing" textLength="135" x="1059.5" y="887.4082">+getAddress(): String</text><text fill="#000000" font-family="sans-serif" font-size="14" lengthAdjust="spacing" textLength="173" x="1059.5" y="905.0176">+getPhoneNumber(): String</text><text fill="#000000" font-family="sans-serif" font-size="14" lengthAdjust="spacing" textLength="149" x="1059.5" y="922.627">+getCcNumber(): String</text></g><!--MD5=[3fd616f346a44cd59a91eb10b19e157c]
class User--><g id="elem_User"><rect codeLine="71" fill="#F1F1F1" height="136.0469" id="User" rx="2.5" ry="2.5" style="stroke:#181818;stroke-width:0.5;" width="150" x="995" y="456.5"/><ellipse cx="1051.25" cy="472.5" fill="#ADD1B2" rx="11" ry="11" style="stroke:#181818;stroke-width:1.0;"/><path d="M1053.25,469 Q1053.4531,468.5 1053.6875,468.25 Q1053.9219,468 1054.1875,468 Q1054.6563,468 1054.9531,468.2813 Q1055.25,468.5625 1055.25,469.2188 L1055.25,470.7813 Q1055.25,471.4375 1054.9688,471.7188 Q1054.6875,472 1054.25,472 Q1053.8594,472 1053.6094,471.8281 Q1053.3594,471.6563 1053.25,471.2031 Q1053.2031,470.8906 1053.0313,470.7188 Q1052.7188,470.3906 1052.1563,470.2031 Q1051.5938,470 1051.0313,470 Q1050.3281,470 1049.7344,470.2813 Q1049.1563,470.5625 1048.7031,471.1875 Q1048.25,471.8125 1048.25,472.6719 L1048.25,473.5938 Q1048.25,474.625 1049.0938,475.3125 Q1049.9375,476 1051.4375,476 Q1052.3281,476 1052.9531,475.7969 Q1053.3125,475.6875 1053.7188,475.3281 Q1053.9844,475.125 1054.125,475.0625 Q1054.2656,475 1054.4375,475 Q1054.7656,475 1055,475.2656 Q1055.25,475.5156 1055.25,475.875 Q1055.25,476.2188 1054.9063,476.625 Q1054.4063,477.2188 1053.6094,477.5469 Q1052.5625,478 1051.2813,478 Q1049.7813,478 1048.5781,477.4063 Q1047.6094,476.9375 1046.9219,475.9219 Q1046.25,474.9063 1046.25,473.7031 L1046.25,472.6094 Q1046.25,471.3594 1046.8438,470.2656 Q1047.4531,469.1719 1048.5,468.5938 Q1049.5625,468 1050.75,468 Q1051.4688,468 1052.0938,468.25 Q1052.7188,468.5 1053.25,469 Z " fill="#000000"/><text fill="#000000" font-family="sans-serif" font-size="14" lengthAdjust="spacing" textLength="29" x="1071.75" y="478.2285">User</text><line style="stroke:#181818;stroke-width:0.5;" x1="996" x2="1144" y1="488.5" y2="488.5"/><text fill="#000000" font-family="sans-serif" font-size="14" lengthAdjust="spacing" textLength="89" x="1001" y="507.0332">-name : String</text><text fill="#000000" font-family="sans-serif" font-size="14" lengthAdjust="spacing" textLength="128" x="1001" y="524.6426">-emailAdress : Email</text><text fill="#000000" font-family="sans-serif" font-size="14" lengthAdjust="spacing" textLength="138" x="1001" y="542.252">-password : Password</text><line style="stroke:#181818;stroke-width:0.5;" x1="996" x2="1144" y1="549.3281" y2="549.3281"/><text fill="#000000" font-family="sans-serif" font-size="14" lengthAdjust="spacing" textLength="95" x="1001" y="567.8613">+getId() : Email</text><text fill="#000000" font-family="sans-serif" font-size="14" lengthAdjust="spacing" textLength="123" x="1001" y="585.4707">+getName() : String</text></g><!--MD5=[4543091c387f147fceabade6c180ba98]
class EmployeeMapper--><g id="elem_EmployeeMapper"><rect codeLine="31" fill="#F1F1F1" height="65.6094" id="EmployeeMapper" rx="2.5" ry="2.5" style="stroke:#181818;stroke-width:0.5;" width="619" x="545.5" y="277.5"/><ellipse cx="795.75" cy="293.5" fill="#ADD1B2" rx="11" ry="11" style="stroke:#181818;stroke-width:1.0;"/><path d="M797.75,290 Q797.9531,289.5 798.1875,289.25 Q798.4219,289 798.6875,289 Q799.1563,289 799.4531,289.2813 Q799.75,289.5625 799.75,290.2188 L799.75,291.7813 Q799.75,292.4375 799.4688,292.7188 Q799.1875,293 798.75,293 Q798.3594,293 798.1094,292.8281 Q797.8594,292.6563 797.75,292.2031 Q797.7031,291.8906 797.5313,291.7188 Q797.2188,291.3906 796.6563,291.2031 Q796.0938,291 795.5313,291 Q794.8281,291 794.2344,291.2813 Q793.6563,291.5625 793.2031,292.1875 Q792.75,292.8125 792.75,293.6719 L792.75,294.5938 Q792.75,295.625 793.5938,296.3125 Q794.4375,297 795.9375,297 Q796.8281,297 797.4531,296.7969 Q797.8125,296.6875 798.2188,296.3281 Q798.4844,296.125 798.625,296.0625 Q798.7656,296 798.9375,296 Q799.2656,296 799.5,296.2656 Q799.75,296.5156 799.75,296.875 Q799.75,297.2188 799.4063,297.625 Q798.9063,298.2188 798.1094,298.5469 Q797.0625,299 795.7813,299 Q794.2813,299 793.0781,298.4063 Q792.1094,297.9375 791.4219,296.9219 Q790.75,295.9063 790.75,294.7031 L790.75,293.6094 Q790.75,292.3594 791.3438,291.2656 Q791.9531,290.1719 793,289.5938 Q794.0625,289 795.25,289 Q795.9688,289 796.5938,289.25 Q797.2188,289.5 797.75,290 Z " fill="#000000"/><text fill="#000000" font-family="sans-serif" font-size="14" lengthAdjust="spacing" textLength="110" x="816.25" y="299.2285">EmployeeMapper</text><line style="stroke:#181818;stroke-width:0.5;" x1="546.5" x2="1163.5" y1="309.5" y2="309.5"/><line style="stroke:#181818;stroke-width:0.5;" x1="546.5" x2="1163.5" y1="317.5" y2="317.5"/><text fill="#000000" font-family="sans-serif" font-size="14" lengthAdjust="spacing" textLength="607" x="551.5" y="336.0332">+listOfEmployeeToDTO(listEmployee:List &lt;Employee&gt;,selectedRole:Role): List &lt;EmployeeDTO&gt;</text></g><!--MD5=[00f5a8d890e3e1ee187254d4d2c6b7cb]
class EmployeeDTO--><g id="elem_EmployeeDTO"><rect codeLine="34" fill="#F1F1F1" height="171.2656" id="EmployeeDTO" rx="2.5" ry="2.5" style="stroke:#181818;stroke-width:0.5;" width="882" x="7" y="439"/><ellipse cx="397.75" cy="455" fill="#ADD1B2" rx="11" ry="11" style="stroke:#181818;stroke-width:1.0;"/><path d="M399.75,451.5 Q399.9531,451 400.1875,450.75 Q400.4219,450.5 400.6875,450.5 Q401.1563,450.5 401.4531,450.7813 Q401.75,451.0625 401.75,451.7188 L401.75,453.2813 Q401.75,453.9375 401.4688,454.2188 Q401.1875,454.5 400.75,454.5 Q400.3594,454.5 400.1094,454.3281 Q399.8594,454.1563 399.75,453.7031 Q399.7031,453.3906 399.5313,453.2188 Q399.2188,452.8906 398.6563,452.7031 Q398.0938,452.5 397.5313,452.5 Q396.8281,452.5 396.2344,452.7813 Q395.6563,453.0625 395.2031,453.6875 Q394.75,454.3125 394.75,455.1719 L394.75,456.0938 Q394.75,457.125 395.5938,457.8125 Q396.4375,458.5 397.9375,458.5 Q398.8281,458.5 399.4531,458.2969 Q399.8125,458.1875 400.2188,457.8281 Q400.4844,457.625 400.625,457.5625 Q400.7656,457.5 400.9375,457.5 Q401.2656,457.5 401.5,457.7656 Q401.75,458.0156 401.75,458.375 Q401.75,458.7188 401.4063,459.125 Q400.9063,459.7188 400.1094,460.0469 Q399.0625,460.5 397.7813,460.5 Q396.2813,460.5 395.0781,459.9063 Q394.1094,459.4375 393.4219,458.4219 Q392.75,457.4063 392.75,456.2031 L392.75,455.1094 Q392.75,453.8594 393.3438,452.7656 Q393.9531,451.6719 395,451.0938 Q396.0625,450.5 397.25,450.5 Q397.9688,450.5 398.5938,450.75 Q399.2188,451 399.75,451.5 Z " fill="#000000"/><text fill="#000000" font-family="sans-serif" font-size="14" lengthAdjust="spacing" textLength="92" x="418.25" y="460.7285">EmployeeDTO</text><line style="stroke:#181818;stroke-width:0.5;" x1="8" x2="888" y1="471" y2="471"/><text fill="#000000" font-family="sans-serif" font-size="14" lengthAdjust="spacing" textLength="89" x="13" y="489.5332">-name : String</text><text fill="#000000" font-family="sans-serif" font-size="14" lengthAdjust="spacing" textLength="126" x="13" y="507.1426">-employeeId : String</text><text fill="#000000" font-family="sans-serif" font-size="14" lengthAdjust="spacing" textLength="105" x="13" y="524.752">-address : String</text><text fill="#000000" font-family="sans-serif" font-size="14" lengthAdjust="spacing" textLength="143" x="13" y="542.3613">-phoneNumber : String</text><text fill="#000000" font-family="sans-serif" font-size="14" lengthAdjust="spacing" textLength="128" x="13" y="559.9707">-emailAdress : Email</text><text fill="#000000" font-family="sans-serif" font-size="14" lengthAdjust="spacing" textLength="117" x="13" y="577.5801">-ccNumber : String</text><line style="stroke:#181818;stroke-width:0.5;" x1="8" x2="888" y1="584.6563" y2="584.6563"/><text fill="#000000" font-family="sans-serif" font-size="14" lengthAdjust="spacing" textLength="870" x="13" y="603.1895">+EmployeeDTO(name : String, id : String, address : String, phoneNumber : String, emailAdress : Email, ccNumber : String, role : RoleDTO)</text></g><!--MD5=[b64d607bedbea291fc734da8fa2f1bc3]
class RoleMapper--><g id="elem_RoleMapper"><rect codeLine="44" fill="#F1F1F1" height="65.6094" id="RoleMapper" rx="2.5" ry="2.5" style="stroke:#181818;stroke-width:0.5;" width="289" x="1627.5" y="277.5"/><ellipse cx="1729.25" cy="293.5" fill="#ADD1B2" rx="11" ry="11" style="stroke:#181818;stroke-width:1.0;"/><path d="M1731.25,290 Q1731.4531,289.5 1731.6875,289.25 Q1731.9219,289 1732.1875,289 Q1732.6563,289 1732.9531,289.2813 Q1733.25,289.5625 1733.25,290.2188 L1733.25,291.7813 Q1733.25,292.4375 1732.9688,292.7188 Q1732.6875,293 1732.25,293 Q1731.8594,293 1731.6094,292.8281 Q1731.3594,292.6563 1731.25,292.2031 Q1731.2031,291.8906 1731.0313,291.7188 Q1730.7188,291.3906 1730.1563,291.2031 Q1729.5938,291 1729.0313,291 Q1728.3281,291 1727.7344,291.2813 Q1727.1563,291.5625 1726.7031,292.1875 Q1726.25,292.8125 1726.25,293.6719 L1726.25,294.5938 Q1726.25,295.625 1727.0938,296.3125 Q1727.9375,297 1729.4375,297 Q1730.3281,297 1730.9531,296.7969 Q1731.3125,296.6875 1731.7188,296.3281 Q1731.9844,296.125 1732.125,296.0625 Q1732.2656,296 1732.4375,296 Q1732.7656,296 1733,296.2656 Q1733.25,296.5156 1733.25,296.875 Q1733.25,297.2188 1732.9063,297.625 Q1732.4063,298.2188 1731.6094,298.5469 Q1730.5625,299 1729.2813,299 Q1727.7813,299 1726.5781,298.4063 Q1725.6094,297.9375 1724.9219,296.9219 Q1724.25,295.9063 1724.25,294.7031 L1724.25,293.6094 Q1724.25,292.3594 1724.8438,291.2656 Q1725.4531,290.1719 1726.5,289.5938 Q1727.5625,289 1728.75,289 Q1729.4688,289 1730.0938,289.25 Q1730.7188,289.5 1731.25,290 Z " fill="#000000"/><text fill="#000000" font-family="sans-serif" font-size="14" lengthAdjust="spacing" textLength="77" x="1749.75" y="299.2285">RoleMapper</text><line style="stroke:#181818;stroke-width:0.5;" x1="1628.5" x2="1915.5" y1="309.5" y2="309.5"/><line style="stroke:#181818;stroke-width:0.5;" x1="1628.5" x2="1915.5" y1="317.5" y2="317.5"/><text fill="#000000" font-family="sans-serif" font-size="14" lengthAdjust="spacing" textLength="277" x="1633.5" y="336.0332">+roleToDTO(lr:List&lt;Role&gt;) : List&lt;RoleDTO&gt;</text></g><!--MD5=[829fb52c07ade3ad64ef85b99d1fca10]
class EmployeeStore--><g id="elem_EmployeeStore"><rect codeLine="48" fill="#F1F1F1" height="83.2188" id="EmployeeStore" rx="2.5" ry="2.5" style="stroke:#181818;stroke-width:0.5;" width="268" x="1180" y="483"/><ellipse cx="1261.75" cy="499" fill="#ADD1B2" rx="11" ry="11" style="stroke:#181818;stroke-width:1.0;"/><path d="M1263.75,495.5 Q1263.9531,495 1264.1875,494.75 Q1264.4219,494.5 1264.6875,494.5 Q1265.1563,494.5 1265.4531,494.7813 Q1265.75,495.0625 1265.75,495.7188 L1265.75,497.2813 Q1265.75,497.9375 1265.4688,498.2188 Q1265.1875,498.5 1264.75,498.5 Q1264.3594,498.5 1264.1094,498.3281 Q1263.8594,498.1563 1263.75,497.7031 Q1263.7031,497.3906 1263.5313,497.2188 Q1263.2188,496.8906 1262.6563,496.7031 Q1262.0938,496.5 1261.5313,496.5 Q1260.8281,496.5 1260.2344,496.7813 Q1259.6563,497.0625 1259.2031,497.6875 Q1258.75,498.3125 1258.75,499.1719 L1258.75,500.0938 Q1258.75,501.125 1259.5938,501.8125 Q1260.4375,502.5 1261.9375,502.5 Q1262.8281,502.5 1263.4531,502.2969 Q1263.8125,502.1875 1264.2188,501.8281 Q1264.4844,501.625 1264.625,501.5625 Q1264.7656,501.5 1264.9375,501.5 Q1265.2656,501.5 1265.5,501.7656 Q1265.75,502.0156 1265.75,502.375 Q1265.75,502.7188 1265.4063,503.125 Q1264.9063,503.7188 1264.1094,504.0469 Q1263.0625,504.5 1261.7813,504.5 Q1260.2813,504.5 1259.0781,503.9063 Q1258.1094,503.4375 1257.4219,502.4219 Q1256.75,501.4063 1256.75,500.2031 L1256.75,499.1094 Q1256.75,497.8594 1257.3438,496.7656 Q1257.9531,495.6719 1259,495.0938 Q1260.0625,494.5 1261.25,494.5 Q1261.9688,494.5 1262.5938,494.75 Q1263.2188,495 1263.75,495.5 Z " fill="#000000"/><text fill="#000000" font-family="sans-serif" font-size="14" lengthAdjust="spacing" textLength="96" x="1282.25" y="504.7285">EmployeeStore</text><line style="stroke:#181818;stroke-width:0.5;" x1="1181" x2="1447" y1="515" y2="515"/><text fill="#000000" font-family="sans-serif" font-size="14" lengthAdjust="spacing" textLength="186" x="1186" y="533.5332">-lEmployee : List &lt;Employee&gt;</text><line style="stroke:#181818;stroke-width:0.5;" x1="1181" x2="1447" y1="540.6094" y2="540.6094"/><text fill="#000000" font-family="sans-serif" font-size="14" lengthAdjust="spacing" textLength="256" x="1186" y="559.1426">+getListOfEmployees() :List &lt;Employee&gt;</text></g><!--MD5=[d827703b7ab2a2b5bcf5c96cc8e8b968]
class RoleStore--><g id="elem_RoleStore"><rect codeLine="54" fill="#F1F1F1" height="83.2188" id="RoleStore" rx="2.5" ry="2.5" style="stroke:#181818;stroke-width:0.5;" width="191" x="1483.5" y="483"/><ellipse cx="1543.25" cy="499" fill="#ADD1B2" rx="11" ry="11" style="stroke:#181818;stroke-width:1.0;"/><path d="M1545.25,495.5 Q1545.4531,495 1545.6875,494.75 Q1545.9219,494.5 1546.1875,494.5 Q1546.6563,494.5 1546.9531,494.7813 Q1547.25,495.0625 1547.25,495.7188 L1547.25,497.2813 Q1547.25,497.9375 1546.9688,498.2188 Q1546.6875,498.5 1546.25,498.5 Q1545.8594,498.5 1545.6094,498.3281 Q1545.3594,498.1563 1545.25,497.7031 Q1545.2031,497.3906 1545.0313,497.2188 Q1544.7188,496.8906 1544.1563,496.7031 Q1543.5938,496.5 1543.0313,496.5 Q1542.3281,496.5 1541.7344,496.7813 Q1541.1563,497.0625 1540.7031,497.6875 Q1540.25,498.3125 1540.25,499.1719 L1540.25,500.0938 Q1540.25,501.125 1541.0938,501.8125 Q1541.9375,502.5 1543.4375,502.5 Q1544.3281,502.5 1544.9531,502.2969 Q1545.3125,502.1875 1545.7188,501.8281 Q1545.9844,501.625 1546.125,501.5625 Q1546.2656,501.5 1546.4375,501.5 Q1546.7656,501.5 1547,501.7656 Q1547.25,502.0156 1547.25,502.375 Q1547.25,502.7188 1546.9063,503.125 Q1546.4063,503.7188 1545.6094,504.0469 Q1544.5625,504.5 1543.2813,504.5 Q1541.7813,504.5 1540.5781,503.9063 Q1539.6094,503.4375 1538.9219,502.4219 Q1538.25,501.4063 1538.25,500.2031 L1538.25,499.1094 Q1538.25,497.8594 1538.8438,496.7656 Q1539.4531,495.6719 1540.5,495.0938 Q1541.5625,494.5 1542.75,494.5 Q1543.4688,494.5 1544.0938,494.75 Q1544.7188,495 1545.25,495.5 Z " fill="#000000"/><text fill="#000000" font-family="sans-serif" font-size="14" lengthAdjust="spacing" textLength="63" x="1563.75" y="504.7285">RoleStore</text><line style="stroke:#181818;stroke-width:0.5;" x1="1484.5" x2="1673.5" y1="515" y2="515"/><text fill="#000000" font-family="sans-serif" font-size="14" lengthAdjust="spacing" textLength="92" x="1489.5" y="533.5332">-lr : List&lt;Role&gt;</text><line style="stroke:#181818;stroke-width:0.5;" x1="1484.5" x2="1673.5" y1="540.6094" y2="540.6094"/><text fill="#000000" font-family="sans-serif" font-size="14" lengthAdjust="spacing" textLength="179" x="1489.5" y="559.1426">+getListOfRole() :List&lt;Role&gt;</text></g><!--MD5=[55c9fff7b2ef8c8cda97062974bd2787]
class RoleDTO--><g id="elem_RoleDTO"><rect codeLine="61" fill="#F1F1F1" height="100.8281" id="RoleDTO" rx="2.5" ry="2.5" style="stroke:#181818;stroke-width:0.5;" width="303" x="1799.5" y="474"/><ellipse cx="1917.25" cy="490" fill="#ADD1B2" rx="11" ry="11" style="stroke:#181818;stroke-width:1.0;"/><path d="M1919.25,486.5 Q1919.4531,486 1919.6875,485.75 Q1919.9219,485.5 1920.1875,485.5 Q1920.6563,485.5 1920.9531,485.7813 Q1921.25,486.0625 1921.25,486.7188 L1921.25,488.2813 Q1921.25,488.9375 1920.9688,489.2188 Q1920.6875,489.5 1920.25,489.5 Q1919.8594,489.5 1919.6094,489.3281 Q1919.3594,489.1563 1919.25,488.7031 Q1919.2031,488.3906 1919.0313,488.2188 Q1918.7188,487.8906 1918.1563,487.7031 Q1917.5938,487.5 1917.0313,487.5 Q1916.3281,487.5 1915.7344,487.7813 Q1915.1563,488.0625 1914.7031,488.6875 Q1914.25,489.3125 1914.25,490.1719 L1914.25,491.0938 Q1914.25,492.125 1915.0938,492.8125 Q1915.9375,493.5 1917.4375,493.5 Q1918.3281,493.5 1918.9531,493.2969 Q1919.3125,493.1875 1919.7188,492.8281 Q1919.9844,492.625 1920.125,492.5625 Q1920.2656,492.5 1920.4375,492.5 Q1920.7656,492.5 1921,492.7656 Q1921.25,493.0156 1921.25,493.375 Q1921.25,493.7188 1920.9063,494.125 Q1920.4063,494.7188 1919.6094,495.0469 Q1918.5625,495.5 1917.2813,495.5 Q1915.7813,495.5 1914.5781,494.9063 Q1913.6094,494.4375 1912.9219,493.4219 Q1912.25,492.4063 1912.25,491.2031 L1912.25,490.1094 Q1912.25,488.8594 1912.8438,487.7656 Q1913.4531,486.6719 1914.5,486.0938 Q1915.5625,485.5 1916.75,485.5 Q1917.4688,485.5 1918.0938,485.75 Q1918.7188,486 1919.25,486.5 Z " fill="#000000"/><text fill="#000000" font-family="sans-serif" font-size="14" lengthAdjust="spacing" textLength="59" x="1937.75" y="495.7285">RoleDTO</text><line style="stroke:#181818;stroke-width:0.5;" x1="1800.5" x2="2101.5" y1="506" y2="506"/><text fill="#000000" font-family="sans-serif" font-size="14" lengthAdjust="spacing" textLength="127" x="1805.5" y="524.5332">-designation : String</text><text fill="#000000" font-family="sans-serif" font-size="14" lengthAdjust="spacing" textLength="89" x="1805.5" y="542.1426">-roleId : String</text><line style="stroke:#181818;stroke-width:0.5;" x1="1800.5" x2="2101.5" y1="549.2188" y2="549.2188"/><text fill="#000000" font-family="sans-serif" font-size="14" lengthAdjust="spacing" textLength="291" x="1805.5" y="567.752">+RoleDTO(designation : String, roleId : String)</text></g><!--MD5=[a3638c1e5b65d287ecad7f06f5c0f212]
class Role--><g id="elem_Role"><rect codeLine="66" fill="#F1F1F1" height="83.2188" id="Role" rx="2.5" ry="2.5" style="stroke:#181818;stroke-width:0.5;" width="139" x="1509.5" y="767.5"/><ellipse cx="1560.25" cy="783.5" fill="#ADD1B2" rx="11" ry="11" style="stroke:#181818;stroke-width:1.0;"/><path d="M1562.25,780 Q1562.4531,779.5 1562.6875,779.25 Q1562.9219,779 1563.1875,779 Q1563.6563,779 1563.9531,779.2813 Q1564.25,779.5625 1564.25,780.2188 L1564.25,781.7813 Q1564.25,782.4375 1563.9688,782.7188 Q1563.6875,783 1563.25,783 Q1562.8594,783 1562.6094,782.8281 Q1562.3594,782.6563 1562.25,782.2031 Q1562.2031,781.8906 1562.0313,781.7188 Q1561.7188,781.3906 1561.1563,781.2031 Q1560.5938,781 1560.0313,781 Q1559.3281,781 1558.7344,781.2813 Q1558.1563,781.5625 1557.7031,782.1875 Q1557.25,782.8125 1557.25,783.6719 L1557.25,784.5938 Q1557.25,785.625 1558.0938,786.3125 Q1558.9375,787 1560.4375,787 Q1561.3281,787 1561.9531,786.7969 Q1562.3125,786.6875 1562.7188,786.3281 Q1562.9844,786.125 1563.125,786.0625 Q1563.2656,786 1563.4375,786 Q1563.7656,786 1564,786.2656 Q1564.25,786.5156 1564.25,786.875 Q1564.25,787.2188 1563.9063,787.625 Q1563.4063,788.2188 1562.6094,788.5469 Q1561.5625,789 1560.2813,789 Q1558.7813,789 1557.5781,788.4063 Q1556.6094,787.9375 1555.9219,786.9219 Q1555.25,785.9063 1555.25,784.7031 L1555.25,783.6094 Q1555.25,782.3594 1555.8438,781.2656 Q1556.4531,780.1719 1557.5,779.5938 Q1558.5625,779 1559.75,779 Q1560.4688,779 1561.0938,779.25 Q1561.7188,779.5 1562.25,780 Z " fill="#000000"/><text fill="#000000" font-family="sans-serif" font-size="14" lengthAdjust="spacing" textLength="29" x="1580.75" y="789.2285">Role</text><line style="stroke:#181818;stroke-width:0.5;" x1="1510.5" x2="1647.5" y1="799.5" y2="799.5"/><text fill="#000000" font-family="sans-serif" font-size="14" lengthAdjust="spacing" textLength="127" x="1515.5" y="818.0332">-designation : String</text><text fill="#000000" font-family="sans-serif" font-size="14" lengthAdjust="spacing" textLength="89" x="1515.5" y="835.6426">-roleId : String</text><line style="stroke:#181818;stroke-width:0.5;" x1="1510.5" x2="1647.5" y1="842.7188" y2="842.7188"/></g><!--MD5=[1e9705534ea2f5f3045e58998aa20e5a]
reverse link User to Employee--><g id="link_User_Employee"><path d="M1093.33,612.22 C1099.76,636.11 1106.85,662.46 1113.68,687.88 " fill="none" id="User-backto-Employee" style="stroke:#181818;stroke-width:1.0;"/><polygon fill="none" points="1086.54,613.94,1088.11,592.81,1100.06,610.3,1086.54,613.94" style="stroke:#181818;stroke-width:1.0;"/></g><!--MD5=[ae7c669cf36e493e47df5ef74524a03a]
link GetListUI to GetListController--><g id="link_GetListUI_GetListController"><path codeLine="80" d="M1396,55.13 C1396,70.68 1396,91.72 1396,110.6 " fill="none" id="GetListUI-to-GetListController" style="stroke:#181818;stroke-width:1.0;stroke-dasharray:7.0,7.0;"/><polygon fill="#181818" points="1396,115.86,1400,106.86,1396,110.86,1392,106.86,1396,115.86" style="stroke:#181818;stroke-width:1.0;"/></g><!--MD5=[32edfa95c9f223a7860793ec79d9066d]
link GetListUI to RoleDTO--><g id="link_GetListUI_RoleDTO"><path codeLine="81" d="M1440.73,34.32 C1552.74,42.77 1845.83,81.73 1979,260 C2018.99,313.53 2012.17,343.5 1999,409 C1994.91,429.36 1987.1,450.61 1978.95,469.2 " fill="none" id="GetListUI-to-RoleDTO" style="stroke:#181818;stroke-width:1.0;stroke-dasharray:7.0,7.0;"/><polygon fill="#181818" points="1976.87,473.86,1984.1939,467.2751,1978.91,469.2951,1976.89,464.0112,1976.87,473.86" style="stroke:#181818;stroke-width:1.0;"/></g><!--MD5=[a22b636956d6940b8ae5ae0aa3946d23]
link GetListUI to EmployeeDTO--><g id="link_GetListUI_EmployeeDTO"><path codeLine="82" d="M1351.28,36.1 C1181.24,52.65 578.41,120.49 459,260 C418.83,306.93 417.95,377.59 426.1,433.93 " fill="none" id="GetListUI-to-EmployeeDTO" style="stroke:#181818;stroke-width:1.0;stroke-dasharray:7.0,7.0;"/><polygon fill="#181818" points="426.86,438.99,429.4553,429.4892,426.1051,434.0473,421.547,430.6971,426.86,438.99" style="stroke:#181818;stroke-width:1.0;"/></g><!--MD5=[f2bad895ce39af48a3aed8bebe37afa0]
link GetListController to Company--><g id="link_GetListController_Company"><path codeLine="83" d="M1396,199.36 C1396,216.45 1396,236.55 1396,254.88 " fill="none" id="GetListController-to-Company" style="stroke:#181818;stroke-width:1.0;stroke-dasharray:7.0,7.0;"/><polygon fill="#181818" points="1396,260,1400,251,1396,255,1392,251,1396,260" style="stroke:#181818;stroke-width:1.0;"/></g><!--MD5=[46294fc52f486b757550eab39d30769e]
link GetListController to RoleStore--><g id="link_GetListController_RoleStore"><path codeLine="84" d="M1476.54,199.22 C1500.23,215.05 1523.83,235.37 1539,260 C1580.38,327.17 1584.38,421.75 1582.44,477.43 " fill="none" id="GetListController-to-RoleStore" style="stroke:#181818;stroke-width:1.0;stroke-dasharray:7.0,7.0;"/><polygon fill="#181818" points="1582.24,482.7,1586.5965,473.8671,1582.4398,477.704,1578.6029,473.5473,1582.24,482.7" style="stroke:#181818;stroke-width:1.0;"/></g><!--MD5=[59587a77e61b2b488dcf9e2275bba98f]
link GetListController to RoleMapper--><g id="link_GetListController_RoleMapper"><path codeLine="85" d="M1520.02,199.03 C1546.6,208.36 1574.39,218.62 1600,229 C1634.51,242.99 1672.05,260.31 1703.23,275.29 " fill="none" id="GetListController-to-RoleMapper" style="stroke:#181818;stroke-width:1.0;stroke-dasharray:7.0,7.0;"/><polygon fill="#181818" points="1707.78,277.48,1701.4127,269.9662,1703.2769,275.3071,1697.936,277.1712,1707.78,277.48" style="stroke:#181818;stroke-width:1.0;"/></g><!--MD5=[9d370a7434a1adcaf7af98c21c811577]
link GetListController to EmployeeStore--><g id="link_GetListController_EmployeeStore"><path codeLine="86" d="M1312.28,199.07 C1289.16,214.69 1266.89,234.94 1254,260 C1217.47,331.02 1256.04,424.09 1286,478.49 " fill="none" id="GetListController-to-EmployeeStore" style="stroke:#181818;stroke-width:1.0;stroke-dasharray:7.0,7.0;"/><polygon fill="#181818" points="1288.5,482.98,1287.6014,473.1722,1286.0609,478.6153,1280.6178,477.0748,1288.5,482.98" style="stroke:#181818;stroke-width:1.0;"/></g><!--MD5=[23ebb063a95ccd3ae296b2ecc935506f]
link GetListController to EmployeeMapper--><g id="link_GetListController_EmployeeMapper"><path codeLine="87" d="M1250.67,199.06 C1164.28,223.17 1056.06,253.38 974.64,276.11 " fill="none" id="GetListController-to-EmployeeMapper" style="stroke:#181818;stroke-width:1.0;stroke-dasharray:7.0,7.0;"/><polygon fill="#181818" points="969.8,277.46,979.5438,278.8948,974.6162,276.1166,977.3944,271.189,969.8,277.46" style="stroke:#181818;stroke-width:1.0;"/></g><!--MD5=[168afd80cc70753849d0c9575d4737ad]
link GetListController to RoleDTO--><g id="link_GetListController_RoleDTO"><path codeLine="88" d="M1627.12,174.24 C1753.63,188.03 1892.86,213.51 1934,260 C1984.06,316.57 1976.72,409.48 1965.13,468.52 " fill="none" id="GetListController-to-RoleDTO" style="stroke:#181818;stroke-width:1.0;stroke-dasharray:7.0,7.0;"/><polygon fill="#181818" points="1964.07,473.77,1969.7619,465.7324,1965.0533,468.8676,1961.9181,464.1591,1964.07,473.77" style="stroke:#181818;stroke-width:1.0;"/></g><!--MD5=[698d4fd171d9dd232be9d288ef974815]
link GetListController to EmployeeDTO--><g id="link_GetListController_EmployeeDTO"><path codeLine="89" d="M1164.78,172.53 C924.3,189.16 576.13,219.77 528,260 C477.53,302.19 458.2,375.15 451.12,433.61 " fill="none" id="GetListController-to-EmployeeDTO" style="stroke:#181818;stroke-width:1.0;stroke-dasharray:7.0,7.0;"/><polygon fill="#181818" points="450.51,438.87,455.5143,430.3873,451.0826,433.9029,447.567,429.4711,450.51,438.87" style="stroke:#181818;stroke-width:1.0;"/></g><!--MD5=[ce859576cba61219b3cb4d2d23fdcd81]
link Company to EmployeeStore--><g id="link_Company_EmployeeStore"><path codeLine="91" d="M1376.77,361.2 C1363.1,396.55 1344.88,443.66 1331.59,478.01 " fill="none" id="Company-to-EmployeeStore" style="stroke:#181818;stroke-width:1.0;"/><polygon fill="#181818" points="1329.67,482.99,1336.6385,476.0301,1331.4678,478.3244,1329.1735,473.1537,1329.67,482.99" style="stroke:#181818;stroke-width:1.0;"/><text fill="#000000" font-family="sans-serif" font-size="13" lengthAdjust="spacing" textLength="37" x="1365" y="405.4951">knows</text><text fill="#000000" font-family="sans-serif" font-size="13" lengthAdjust="spacing" textLength="7" x="1366.8577" y="382.2496">1</text><text fill="#000000" font-family="sans-serif" font-size="13" lengthAdjust="spacing" textLength="7" x="1324.6857" y="472.296">1</text></g><!--MD5=[2f3bac1bdf76f0b867b8cadb6fadb6bc]
link EmployeeStore to Employee--><g id="link_EmployeeStore_Employee"><path codeLine="92" d="M1289.75,566.28 C1271.39,597.15 1245.13,641.3 1220.07,683.45 " fill="none" id="EmployeeStore-to-Employee" style="stroke:#181818;stroke-width:1.0;"/><polygon fill="#181818" points="1217.49,687.78,1225.5282,682.089,1220.0457,683.4825,1218.6522,678,1217.49,687.78" style="stroke:#181818;stroke-width:1.0;"/><text fill="#000000" font-family="sans-serif" font-size="13" lengthAdjust="spacing" textLength="33" x="1246" y="654.4951">saves</text><text fill="#000000" font-family="sans-serif" font-size="13" lengthAdjust="spacing" textLength="7" x="1278.3273" y="587.7194">1</text><text fill="#000000" font-family="sans-serif" font-size="13" lengthAdjust="spacing" textLength="20" x="1201.4292" y="677.0177">1..*</text></g><!--MD5=[fd8ffc04d4afc122615efe43c0262458]
link Company to RoleStore--><g id="link_Company_RoleStore"><path codeLine="93" d="M1438.91,361.2 C1469.66,396.84 1510.75,444.43 1540.46,478.85 " fill="none" id="Company-to-RoleStore" style="stroke:#181818;stroke-width:1.0;"/><polygon fill="#181818" points="1544.03,482.99,1541.1923,473.5588,1540.769,479.1998,1535.128,478.7764,1544.03,482.99" style="stroke:#181818;stroke-width:1.0;"/><text fill="#000000" font-family="sans-serif" font-size="13" lengthAdjust="spacing" textLength="37" x="1477" y="405.4951">knows</text><text fill="#000000" font-family="sans-serif" font-size="13" lengthAdjust="spacing" textLength="7" x="1436.9594" y="382.2496">1</text><text fill="#000000" font-family="sans-serif" font-size="13" lengthAdjust="spacing" textLength="7" x="1530.6584" y="472.296">1</text></g><!--MD5=[dcd3ca93c399fbb3dc051bf70af25ebc]
link RoleStore to Role--><g id="link_RoleStore_Role"><path codeLine="94" d="M1579,566.28 C1579,618.23 1579,707.79 1579,762.09 " fill="none" id="RoleStore-to-Role" style="stroke:#181818;stroke-width:1.0;"/><polygon fill="#181818" points="1579,767.24,1583,758.24,1579,762.24,1575,758.24,1579,767.24" style="stroke:#181818;stroke-width:1.0;"/><text fill="#000000" font-family="sans-serif" font-size="13" lengthAdjust="spacing" textLength="33" x="1580" y="654.4951">saves</text><text fill="#000000" font-family="sans-serif" font-size="13" lengthAdjust="spacing" textLength="7" x="1571.4422" y="587.7194">1</text><text fill="#000000" font-family="sans-serif" font-size="13" lengthAdjust="spacing" textLength="20" x="1557.3438" y="756.5046">1..*</text></g><!--MD5=[5f26196e5b5c3c1fd118965e43e7bb40]
reverse link Employee to Role--><g id="link_Employee_Role"><path codeLine="95" d="M1251.74,809 C1331.86,809 1439.69,809 1509.28,809 " fill="none" id="Employee-backto-Role" style="stroke:#181818;stroke-width:1.0;"/><polygon fill="none" points="1238.62,809,1244.62,813,1250.62,809,1244.62,805,1238.62,809" style="stroke:#181818;stroke-width:1.0;"/><text fill="#000000" font-family="sans-serif" font-size="13" lengthAdjust="spacing" textLength="21" x="1363.5" y="802.4951">has</text><text fill="#000000" font-family="sans-serif" font-size="13" lengthAdjust="spacing" textLength="7" x="1246.5799" y="805.8595">1</text><text fill="#000000" font-family="sans-serif" font-size="13" lengthAdjust="spacing" textLength="7" x="1494.2716" y="805.6274">1</text></g><!--MD5=[232dddeb8ed1c921ef01022c786a20ff]
link EmployeeMapper to Employee--><g id="link_EmployeeMapper_Employee"><path codeLine="96" d="M867.79,343.58 C897.58,418.17 969.63,597.9 977,610 C997.71,643.98 1024.16,678.01 1049.96,708.03 " fill="none" id="EmployeeMapper-to-Employee" style="stroke:#181818;stroke-width:1.0;stroke-dasharray:7.0,7.0;"/><polygon fill="#181818" points="1053.43,712.05,1050.5719,702.625,1050.1608,708.2668,1044.5189,707.8557,1053.43,712.05" style="stroke:#181818;stroke-width:1.0;"/></g><!--MD5=[2e39c3bf018ac6b10d6c9e84ca4ab967]
link EmployeeMapper to EmployeeDTO--><g id="link_EmployeeMapper_EmployeeDTO"><path codeLine="97" d="M793.19,343.7 C745.73,368.41 677.88,403.76 614.87,436.58 " fill="none" id="EmployeeMapper-to-EmployeeDTO" style="stroke:#181818;stroke-width:1.0;stroke-dasharray:7.0,7.0;"/><polygon fill="#181818" points="610.34,438.94,620.1691,438.3167,614.7714,436.6242,616.4639,431.2265,610.34,438.94" style="stroke:#181818;stroke-width:1.0;"/></g><!--MD5=[c3eb7a19dfb46248f3507f74a2b95192]
link RoleMapper to Role--><g id="link_RoleMapper_Role"><path codeLine="99" d="M1766.19,343.75 C1755.53,399.46 1730.37,516.72 1692,610 C1669.36,665.05 1634.32,723.75 1609.27,762.81 " fill="none" id="RoleMapper-to-Role" style="stroke:#181818;stroke-width:1.0;stroke-dasharray:7.0,7.0;"/><polygon fill="#181818" points="1606.26,767.48,1614.4915,762.0724,1608.9638,763.2741,1607.7621,757.7464,1606.26,767.48" style="stroke:#181818;stroke-width:1.0;"/></g><!--MD5=[5cddf6d249f20486c351e0a5a8646da7]
link RoleMapper to RoleDTO--><g id="link_RoleMapper_RoleDTO"><path codeLine="100" d="M1799.19,343.7 C1827.31,377 1871.72,429.6 1905.26,469.33 " fill="none" id="RoleMapper-to-RoleDTO" style="stroke:#181818;stroke-width:1.0;stroke-dasharray:7.0,7.0;"/><polygon fill="#181818" points="1908.88,473.62,1906.1392,464.1602,1905.658,469.7966,1900.0216,469.3154,1908.88,473.62" style="stroke:#181818;stroke-width:1.0;"/></g><!--MD5=[ad96730da73cecb20f5c3234d88e9e91]
reverse link EmployeeDTO to RoleDTO--><g id="link_EmployeeDTO_RoleDTO"><path codeLine="101" d="M781.17,436.15 C851.15,421.11 924.86,407.83 994.5,400 C1158.8,381.52 1578.94,356.7 1738.5,400 C1791.94,414.5 1845.69,446.19 1885.76,473.97 " fill="none" id="EmployeeDTO-backto-RoleDTO" style="stroke:#181818;stroke-width:1.0;"/><polygon fill="none" points="768.15,438.98,774.8614,441.6176,779.8774,436.4369,773.166,433.7993,768.15,438.98" style="stroke:#181818;stroke-width:1.0;"/><text fill="#000000" font-family="sans-serif" font-size="13" lengthAdjust="spacing" textLength="7" x="789.3516" y="428.1498">1</text><text fill="#000000" font-family="sans-serif" font-size="13" lengthAdjust="spacing" textLength="7" x="1869.0934" y="463.2711">1</text></g><!--MD5=[e71dfd1e8c7931e7ce1c3f7105fa4274]
@startuml
skinparam classAttributeIconSize 0

class Company {
  - String designation
 + getRoleStore() : RoleStore
  +getEmployeeStore(): EmployeeStore

}
class GetListController {
+ getRoleList() : List<RoleDTO>
+ getListOfEmployeesByRole(selectedRole:Role) : List <EmployeeDTO>
}
class GetListUI {
}

class Employee extends User{

-employeeId : String
-address : String
-phoneNumber : String
-ccNumber : String

+getRole(): Role
+getName(): String
+getEmployeeId(): String
+getId(): Email
+getAddress(): String
+getPhoneNumber(): String
+getCcNumber(): String
}
class EmployeeMapper{
+ listOfEmployeeToDTO(listEmployee:List <Employee>,selectedRole:Role): List <EmployeeDTO>
}
class EmployeeDTO{
-name : String
-employeeId : String
-address : String
-phoneNumber : String
-emailAdress : Email
-ccNumber : String
+EmployeeDTO(name : String, id : String, address : String, phoneNumber : String, emailAdress : Email, ccNumber : String, role : RoleDTO)

}
class RoleMapper{

+roleToDTO(lr:List<Role>) : List<RoleDTO>
}
class EmployeeStore{
- lEmployee : List <Employee>
+getListOfEmployees() :List <Employee>
}


class RoleStore{
-lr : List<Role>
+getListOfRole() :List<Role>

}


class RoleDTO{
-designation : String
-roleId : String
+ RoleDTO(designation : String, roleId : String)
}
class Role {
-designation : String
-roleId : String
}

class User{
- name : String
-emailAdress : Email
-password : Password
+ getId() : Email
+getName() : String
}


GetListUI ..> GetListController
GetListUI ..> RoleDTO
GetListUI ..> EmployeeDTO
GetListController ..> Company
GetListController ..> RoleStore
GetListController ..> RoleMapper
GetListController ..> EmployeeStore
GetListController ..> EmployeeMapper
GetListController ..> RoleDTO
GetListController ..> EmployeeDTO

Company "1"- -> "1" EmployeeStore : knows
EmployeeStore "1" - -> "1..*" Employee : saves
Company "1" - -> "1" RoleStore: knows
RoleStore "1" - -> "1..*" Role : saves
Employee "1" o- "1" Role : has
EmployeeMapper ..> Employee
EmployeeMapper ..> EmployeeDTO

RoleMapper ..> Role
RoleMapper ..> RoleDTO
EmployeeDTO "1" o- "1" RoleDTO




@enduml

PlantUML version 1.2022.4(Sat Apr 09 14:29:17 BST 2022)
(GPL source distribution)
Java Runtime: OpenJDK Runtime Environment
JVM: OpenJDK 64-Bit Server VM
Default Encoding: Cp1252
Language: pt
Country: PT
--></g></svg>