<?xml version="1.0" encoding="UTF-8" standalone="no"?><svg xmlns="http://www.w3.org/2000/svg" xmlns:xlink="http://www.w3.org/1999/xlink" contentStyleType="text/css" height="484px" preserveAspectRatio="none" style="width:763px;height:484px;background:#FFFFFF;" version="1.1" viewBox="0 0 763 484" width="763px" zoomAndPan="magnify"><defs/><g><rect fill="#FFFFFF" height="389.3281" style="stroke:#181818;stroke-width:1.0;" width="10" x="119" y="69.9609"/><rect fill="#FFFFFF" height="30" style="stroke:#181818;stroke-width:1.0;" width="10" x="258" y="168.2734"/><rect fill="#FFFFFF" height="30" style="stroke:#181818;stroke-width:1.0;" width="10" x="436" y="391.9375"/><rect fill="#FFFFFF" height="30" style="stroke:#181818;stroke-width:1.0;" width="10" x="583.5" y="228.625"/><rect fill="#FFFFFF" height="30" style="stroke:#181818;stroke-width:1.0;" width="10" x="583.5" y="288.9766"/><rect height="302.3672" style="stroke:#000000;stroke-width:1.5;fill:none;" width="694" x="63" y="127.5703"/><line style="stroke:#181818;stroke-width:0.5;fill:none;stroke-dasharray:5.0,5.0;" x1="124" x2="124" y1="37.6094" y2="477.2891"/><line style="stroke:#181818;stroke-width:0.5;fill:none;stroke-dasharray:5.0,5.0;" x1="263" x2="263" y1="37.6094" y2="477.2891"/><line style="stroke:#181818;stroke-width:0.5;fill:none;stroke-dasharray:5.0,5.0;" x1="441" x2="441" y1="109.2656" y2="477.2891"/><line style="stroke:#181818;stroke-width:0.5;fill:none;stroke-dasharray:5.0,5.0;" x1="588" x2="588" y1="37.6094" y2="477.2891"/><line style="stroke:#181818;stroke-width:0.5;fill:none;stroke-dasharray:5.0,5.0;" x1="696" x2="696" y1="358.2813" y2="477.2891"/><rect fill="#E2E2F0" height="31.6094" rx="2.5" ry="2.5" style="stroke:#181818;stroke-width:0.5;" width="102" x="73" y="5"/><text fill="#000000" font-family="sans-serif" font-size="14" lengthAdjust="spacing" textLength="88" x="80" y="26.5332">:RolesMapper</text><rect fill="#E2E2F0" height="31.6094" rx="2.5" ry="2.5" style="stroke:#181818;stroke-width:0.5;" width="156" x="185" y="5"/><text fill="#000000" font-family="sans-serif" font-size="14" lengthAdjust="spacing" textLength="142" x="192" y="26.5332">lRoles : List&lt;OrgRole&gt;</text><rect fill="#E2E2F0" height="31.6094" rx="2.5" ry="2.5" style="stroke:#181818;stroke-width:0.5;" width="95" x="541" y="5"/><text fill="#000000" font-family="sans-serif" font-size="14" lengthAdjust="spacing" textLength="81" x="548" y="26.5332">role:OrgRole</text><rect fill="#FFFFFF" height="389.3281" style="stroke:#181818;stroke-width:1.0;" width="10" x="119" y="69.9609"/><rect fill="#FFFFFF" height="30" style="stroke:#181818;stroke-width:1.0;" width="10" x="258" y="168.2734"/><rect fill="#FFFFFF" height="30" style="stroke:#181818;stroke-width:1.0;" width="10" x="436" y="391.9375"/><rect fill="#FFFFFF" height="30" style="stroke:#181818;stroke-width:1.0;" width="10" x="583.5" y="228.625"/><rect fill="#FFFFFF" height="30" style="stroke:#181818;stroke-width:1.0;" width="10" x="583.5" y="288.9766"/><ellipse cx="7.5" cy="69.2109" fill="none" rx="4" ry="4" style="stroke:#181818;stroke-width:1.5;"/><polygon fill="#181818" points="107,65.9609,117,69.9609,107,73.9609,111,69.9609" style="stroke:#181818;stroke-width:1.0;"/><line style="stroke:#181818;stroke-width:1.0;" x1="12" x2="113" y1="69.9609" y2="69.9609"/><text fill="#000000" font-family="sans-serif" font-size="13" font-weight="bold" lengthAdjust="spacing" textLength="7" x="15" y="65.1045">1</text><text fill="#000000" font-family="sans-serif" font-size="13" lengthAdjust="spacing" textLength="81" x="26" y="65.1045">toDTO(lRoles)</text><polygon fill="#181818" points="339,96.3125,349,100.3125,339,104.3125,343,100.3125" style="stroke:#181818;stroke-width:1.0;"/><line style="stroke:#181818;stroke-width:1.0;stroke-dasharray:2.0,2.0;" x1="129" x2="345" y1="100.3125" y2="100.3125"/><text fill="#000000" font-family="sans-serif" font-size="13" font-weight="bold" lengthAdjust="spacing" textLength="7" x="136" y="95.4561">2</text><text fill="#000000" font-family="sans-serif" font-size="13" lengthAdjust="spacing" textLength="44" x="147" y="95.4561">create()</text><rect fill="#E2E2F0" height="31.6094" rx="2.5" ry="2.5" style="stroke:#181818;stroke-width:0.5;" width="180" x="351" y="77.9609"/><text fill="#000000" font-family="sans-serif" font-size="14" lengthAdjust="spacing" textLength="166" x="358" y="99.4941">lRolesDto :List&lt;RoleDTO&gt;</text><path d="M63,127.5703 L136,127.5703 L136,135.9219 L126,145.9219 L63,145.9219 L63,127.5703 " fill="#EEEEEE" style="stroke:#000000;stroke-width:1.5;"/><rect fill="none" height="302.3672" style="stroke:#000000;stroke-width:1.5;" width="694" x="63" y="127.5703"/><text fill="#000000" font-family="sans-serif" font-size="13" font-weight="bold" lengthAdjust="spacing" textLength="28" x="78" y="142.0654">loop</text><text fill="#000000" font-family="sans-serif" font-size="11" font-weight="bold" lengthAdjust="spacing" textLength="142" x="151" y="140.9893">[for each object in rRoles]</text><polygon fill="#181818" points="246,164.2734,256,168.2734,246,172.2734,250,168.2734" style="stroke:#181818;stroke-width:1.0;"/><line style="stroke:#181818;stroke-width:1.0;" x1="129" x2="252" y1="168.2734" y2="168.2734"/><text fill="#000000" font-family="sans-serif" font-size="13" font-weight="bold" lengthAdjust="spacing" textLength="7" x="136" y="163.417">3</text><text fill="#000000" font-family="sans-serif" font-size="13" lengthAdjust="spacing" textLength="66" x="147" y="163.417">role = get(i)</text><polygon fill="#181818" points="571.5,224.625,581.5,228.625,571.5,232.625,575.5,228.625" style="stroke:#181818;stroke-width:1.0;"/><line style="stroke:#181818;stroke-width:1.0;" x1="129" x2="577.5" y1="228.625" y2="228.625"/><text fill="#000000" font-family="sans-serif" font-size="13" font-weight="bold" lengthAdjust="spacing" textLength="7" x="136" y="223.7686">4</text><text fill="#000000" font-family="sans-serif" font-size="13" lengthAdjust="spacing" textLength="62" x="147" y="223.7686">id = getld()</text><polygon fill="#181818" points="571.5,284.9766,581.5,288.9766,571.5,292.9766,575.5,288.9766" style="stroke:#181818;stroke-width:1.0;"/><line style="stroke:#181818;stroke-width:1.0;" x1="129" x2="577.5" y1="288.9766" y2="288.9766"/><text fill="#000000" font-family="sans-serif" font-size="13" font-weight="bold" lengthAdjust="spacing" textLength="7" x="136" y="284.1201">5</text><text fill="#000000" font-family="sans-serif" font-size="13" lengthAdjust="spacing" textLength="176" x="147" y="284.1201">designation = getDesignation()</text><polygon fill="#181818" points="634,345.3281,644,349.3281,634,353.3281,638,349.3281" style="stroke:#181818;stroke-width:1.0;"/><line style="stroke:#181818;stroke-width:1.0;stroke-dasharray:2.0,2.0;" x1="129" x2="640" y1="349.3281" y2="349.3281"/><text fill="#000000" font-family="sans-serif" font-size="13" font-weight="bold" lengthAdjust="spacing" textLength="7" x="136" y="344.4717">6</text><text fill="#000000" font-family="sans-serif" font-size="13" lengthAdjust="spacing" textLength="128" x="147" y="344.4717">create(id, designation)</text><rect fill="#E2E2F0" height="31.6094" rx="2.5" ry="2.5" style="stroke:#181818;stroke-width:0.5;" width="101" x="646" y="326.9766"/><text fill="#000000" font-family="sans-serif" font-size="14" lengthAdjust="spacing" textLength="87" x="653" y="348.5098">dto: RoleDTO</text><polygon fill="#181818" points="424,387.9375,434,391.9375,424,395.9375,428,391.9375" style="stroke:#181818;stroke-width:1.0;"/><line style="stroke:#181818;stroke-width:1.0;" x1="129" x2="430" y1="391.9375" y2="391.9375"/><text fill="#000000" font-family="sans-serif" font-size="13" font-weight="bold" lengthAdjust="spacing" textLength="7" x="136" y="387.0811">7</text><text fill="#000000" font-family="sans-serif" font-size="13" lengthAdjust="spacing" textLength="47" x="147" y="387.0811">add(dto)</text><polygon fill="#181818" points="11,455.2891,1,459.2891,11,463.2891,7,459.2891" style="stroke:#181818;stroke-width:1.0;"/><line style="stroke:#181818;stroke-width:1.0;stroke-dasharray:2.0,2.0;" x1="5" x2="123" y1="459.2891" y2="459.2891"/><text fill="#000000" font-family="sans-serif" font-size="13" font-weight="bold" lengthAdjust="spacing" textLength="7" x="17" y="454.4326">8</text><text fill="#000000" font-family="sans-serif" font-size="13" lengthAdjust="spacing" textLength="62" x="28" y="454.4326">return emp</text><!--MD5=[7a96455d4c85551d46fff7eb48464b32]
@startuml
autonumber
hide footbox


participant ":RolesMapper" as RMAP
participant "lRoles : List<OrgRole>" as LROLES
participant "lRolesDto :List<RoleDTO>" as LROLESDTO
participant "role:OrgRole" as ORG
participant "dto: RoleDTO" as ROLEDTO

[o-> RMAP : toDTO(lRoles)
activate RMAP
RMAP - -> LROLESDTO** : create()
loop for each object in rRoles
RMAP -> LROLES : role = get(i)
activate LROLES
deactivate LROLES
RMAP -> ORG : id = getld()
activate ORG
deactivate ORG
RMAP -> ORG : designation = getDesignation()
activate ORG
deactivate ORG
RMAP - -> ROLEDTO** : create(id, designation)
RMAP -> LROLESDTO : add(dto)
activate LROLESDTO
deactivate LROLESDTO
end
<- - RMAP : return emp
deactivate RMAP




@enduml

PlantUML version 1.2022.4(Sat Apr 09 14:29:17 BST 2022)
(GPL source distribution)
Java Runtime: OpenJDK Runtime Environment
JVM: OpenJDK 64-Bit Server VM
Default Encoding: Cp1252
Language: en
Country: US
--></g></svg>