<?xml version="1.0" encoding="UTF-8" standalone="no"?><svg xmlns="http://www.w3.org/2000/svg" xmlns:xlink="http://www.w3.org/1999/xlink" contentStyleType="text/css" height="955px" preserveAspectRatio="none" style="width:2026px;height:955px;background:#FFFFFF;" version="1.1" viewBox="0 0 2026 955" width="2026px" zoomAndPan="magnify"><defs/><g><rect fill="#FFFFFF" height="847.2734" style="stroke:#181818;stroke-width:1.0;" width="10" x="44.5" y="92.6094"/><rect fill="#FFFFFF" height="228.2031" style="stroke:#181818;stroke-width:1.0;" width="10" x="480.5" y="114.9609"/><rect fill="#FFFFFF" height="30.3516" style="stroke:#181818;stroke-width:1.0;" width="10" x="480.5" y="373.5156"/><rect fill="#FFFFFF" height="198.2031" style="stroke:#181818;stroke-width:1.0;" width="10" x="480.5" y="434.2188"/><rect fill="#FFFFFF" height="277.1094" style="stroke:#181818;stroke-width:1.0;" width="10" x="480.5" y="662.7734"/><rect fill="#FFFFFF" height="167.5" style="stroke:#181818;stroke-width:1.0;" width="10" x="674.5" y="145.3125"/><rect fill="#FFFFFF" height="137.5" style="stroke:#181818;stroke-width:1.0;" width="10" x="674.5" y="464.5703"/><rect fill="#FFFFFF" height="200.4063" style="stroke:#181818;stroke-width:1.0;" width="10" x="674.5" y="693.125"/><rect fill="#FFFFFF" height="30" style="stroke:#181818;stroke-width:1.0;" width="10" x="909.5" y="175.6641"/><rect fill="#FFFFFF" height="107.1484" style="stroke:#181818;stroke-width:1.0;" width="10" x="909.5" y="494.9219"/><rect fill="#FFFFFF" height="170.0547" style="stroke:#181818;stroke-width:1.0;" width="10" x="909.5" y="723.4766"/><rect fill="#FFFFFF" height="139.7031" style="stroke:#181818;stroke-width:1.0;" width="10" x="1073.5" y="753.8281"/><rect fill="#FFFFFF" height="28" style="stroke:#181818;stroke-width:1.0;" width="10" x="1078.5" y="792.1797"/><rect fill="#FFFFFF" height="28" style="stroke:#181818;stroke-width:1.0;" width="10" x="1078.5" y="865.5313"/><rect fill="#FFFFFF" height="76.7969" style="stroke:#181818;stroke-width:1.0;" width="10" x="1249.5" y="236.0156"/><rect fill="#FFFFFF" height="76.7969" style="stroke:#181818;stroke-width:1.0;" width="10" x="1564.5" y="525.2734"/><line style="stroke:#181818;stroke-width:0.5;stroke-dasharray:5.0,5.0;" x1="49" x2="49" y1="82.6094" y2="948.8828"/><line style="stroke:#181818;stroke-width:0.5;stroke-dasharray:5.0,5.0;" x1="485" x2="485" y1="82.6094" y2="948.8828"/><line style="stroke:#181818;stroke-width:0.5;stroke-dasharray:5.0,5.0;" x1="679" x2="679" y1="82.6094" y2="948.8828"/><line style="stroke:#181818;stroke-width:0.5;stroke-dasharray:5.0,5.0;" x1="914.5" x2="914.5" y1="82.6094" y2="948.8828"/><line style="stroke:#181818;stroke-width:0.5;stroke-dasharray:5.0,5.0;" x1="1078.5" x2="1078.5" y1="82.6094" y2="948.8828"/><line style="stroke:#181818;stroke-width:0.5;stroke-dasharray:5.0,5.0;" x1="1254.5" x2="1254.5" y1="82.6094" y2="948.8828"/><line style="stroke:#181818;stroke-width:0.5;stroke-dasharray:5.0,5.0;" x1="1405.5" x2="1405.5" y1="82.6094" y2="948.8828"/><line style="stroke:#181818;stroke-width:0.5;stroke-dasharray:5.0,5.0;" x1="1569.5" x2="1569.5" y1="82.6094" y2="948.8828"/><line style="stroke:#181818;stroke-width:0.5;stroke-dasharray:5.0,5.0;" x1="1720.5" x2="1720.5" y1="82.6094" y2="948.8828"/><line style="stroke:#181818;stroke-width:0.5;stroke-dasharray:5.0,5.0;" x1="1855.5" x2="1855.5" y1="82.6094" y2="948.8828"/><line style="stroke:#181818;stroke-width:0.5;stroke-dasharray:5.0,5.0;" x1="1966.5" x2="1966.5" y1="82.6094" y2="948.8828"/><text fill="#000000" font-family="sans-serif" font-size="14" lengthAdjust="spacing" textLength="83" x="5" y="79.5332">Administrator</text><ellipse cx="49.5" cy="13.5" fill="#E2E2F0" rx="8" ry="8" style="stroke:#181818;stroke-width:0.5;"/><path d="M49.5,21.5 L49.5,48.5 M36.5,29.5 L62.5,29.5 M49.5,48.5 L36.5,63.5 M49.5,48.5 L62.5,63.5 " fill="none" style="stroke:#181818;stroke-width:0.5;"/><rect fill="#E2E2F0" height="31.6094" rx="2.5" ry="2.5" style="stroke:#181818;stroke-width:0.5;" width="145" x="413" y="50"/><text fill="#000000" font-family="sans-serif" font-size="14" lengthAdjust="spacing" textLength="131" x="420" y="71.5332">:RegisterEmployeeUI</text><rect fill="#E2E2F0" height="31.6094" rx="2.5" ry="2.5" style="stroke:#181818;stroke-width:0.5;" width="195" x="582" y="50"/><text fill="#000000" font-family="sans-serif" font-size="14" lengthAdjust="spacing" textLength="181" x="589" y="71.5332">:RegisterEmployeeController</text><rect fill="#E2E2F0" height="31.6094" rx="2.5" ry="2.5" style="stroke:#181818;stroke-width:0.5;" width="78" x="875.5" y="50"/><text fill="#000000" font-family="sans-serif" font-size="14" lengthAdjust="spacing" textLength="64" x="882.5" y="71.5332">:Company</text><rect fill="#E2E2F0" height="31.6094" rx="2.5" ry="2.5" style="stroke:#181818;stroke-width:0.5;" width="164" x="996.5" y="50"/><text fill="#000000" font-family="sans-serif" font-size="14" lengthAdjust="spacing" textLength="150" x="1003.5" y="71.5332">eStore : EmployeeStore</text><rect fill="#E2E2F0" height="31.6094" rx="2.5" ry="2.5" style="stroke:#181818;stroke-width:0.5;" width="102" x="1203.5" y="50"/><text fill="#000000" font-family="sans-serif" font-size="14" lengthAdjust="spacing" textLength="88" x="1210.5" y="71.5332">:RolesMapper</text><rect fill="#E2E2F0" height="31.6094" rx="2.5" ry="2.5" style="stroke:#181818;stroke-width:0.5;" width="180" x="1315.5" y="50"/><text fill="#000000" font-family="sans-serif" font-size="14" lengthAdjust="spacing" textLength="166" x="1322.5" y="71.5332">lRolesDto :List&lt;RoleDTO&gt;</text><rect fill="#E2E2F0" height="31.6094" rx="2.5" ry="2.5" style="stroke:#181818;stroke-width:0.5;" width="128" x="1505.5" y="50"/><text fill="#000000" font-family="sans-serif" font-size="14" lengthAdjust="spacing" textLength="114" x="1512.5" y="71.5332">:EmployeeMapper</text><rect fill="#E2E2F0" height="31.6094" rx="2.5" ry="2.5" style="stroke:#181818;stroke-width:0.5;" width="155" x="1643.5" y="50"/><text fill="#000000" font-family="sans-serif" font-size="14" lengthAdjust="spacing" textLength="141" x="1650.5" y="71.5332">empDto: EmployeeDto</text><rect fill="#E2E2F0" height="31.6094" rx="2.5" ry="2.5" style="stroke:#181818;stroke-width:0.5;" width="95" x="1808.5" y="50"/><text fill="#000000" font-family="sans-serif" font-size="14" lengthAdjust="spacing" textLength="81" x="1815.5" y="71.5332">role:OrgRole</text><rect fill="#E2E2F0" height="31.6094" rx="2.5" ry="2.5" style="stroke:#181818;stroke-width:0.5;" width="107" x="1913.5" y="50"/><text fill="#000000" font-family="sans-serif" font-size="14" lengthAdjust="spacing" textLength="93" x="1920.5" y="71.5332">emp:Employee</text><rect fill="#FFFFFF" height="847.2734" style="stroke:#181818;stroke-width:1.0;" width="10" x="44.5" y="92.6094"/><rect fill="#FFFFFF" height="228.2031" style="stroke:#181818;stroke-width:1.0;" width="10" x="480.5" y="114.9609"/><rect fill="#FFFFFF" height="30.3516" style="stroke:#181818;stroke-width:1.0;" width="10" x="480.5" y="373.5156"/><rect fill="#FFFFFF" height="198.2031" style="stroke:#181818;stroke-width:1.0;" width="10" x="480.5" y="434.2188"/><rect fill="#FFFFFF" height="277.1094" style="stroke:#181818;stroke-width:1.0;" width="10" x="480.5" y="662.7734"/><rect fill="#FFFFFF" height="167.5" style="stroke:#181818;stroke-width:1.0;" width="10" x="674.5" y="145.3125"/><rect fill="#FFFFFF" height="137.5" style="stroke:#181818;stroke-width:1.0;" width="10" x="674.5" y="464.5703"/><rect fill="#FFFFFF" height="200.4063" style="stroke:#181818;stroke-width:1.0;" width="10" x="674.5" y="693.125"/><rect fill="#FFFFFF" height="30" style="stroke:#181818;stroke-width:1.0;" width="10" x="909.5" y="175.6641"/><rect fill="#FFFFFF" height="107.1484" style="stroke:#181818;stroke-width:1.0;" width="10" x="909.5" y="494.9219"/><rect fill="#FFFFFF" height="170.0547" style="stroke:#181818;stroke-width:1.0;" width="10" x="909.5" y="723.4766"/><rect fill="#FFFFFF" height="139.7031" style="stroke:#181818;stroke-width:1.0;" width="10" x="1073.5" y="753.8281"/><rect fill="#FFFFFF" height="28" style="stroke:#181818;stroke-width:1.0;" width="10" x="1078.5" y="792.1797"/><rect fill="#FFFFFF" height="28" style="stroke:#181818;stroke-width:1.0;" width="10" x="1078.5" y="865.5313"/><rect fill="#FFFFFF" height="76.7969" style="stroke:#181818;stroke-width:1.0;" width="10" x="1249.5" y="236.0156"/><rect fill="#FFFFFF" height="76.7969" style="stroke:#181818;stroke-width:1.0;" width="10" x="1564.5" y="525.2734"/><polygon fill="#181818" points="468.5,110.9609,478.5,114.9609,468.5,118.9609,472.5,114.9609" style="stroke:#181818;stroke-width:1.0;"/><line style="stroke:#181818;stroke-width:1.0;" x1="54.5" x2="474.5" y1="114.9609" y2="114.9609"/><text fill="#000000" font-family="sans-serif" font-size="13" font-weight="bold" lengthAdjust="spacing" textLength="7" x="61.5" y="110.1045">1</text><text fill="#000000" font-family="sans-serif" font-size="13" lengthAdjust="spacing" textLength="195" x="72.5" y="110.1045">starts registering a new employee</text><polygon fill="#181818" points="662.5,141.3125,672.5,145.3125,662.5,149.3125,666.5,145.3125" style="stroke:#181818;stroke-width:1.0;"/><line style="stroke:#181818;stroke-width:1.0;" x1="490.5" x2="668.5" y1="145.3125" y2="145.3125"/><text fill="#000000" font-family="sans-serif" font-size="13" font-weight="bold" lengthAdjust="spacing" textLength="7" x="497.5" y="140.4561">2</text><text fill="#000000" font-family="sans-serif" font-size="13" lengthAdjust="spacing" textLength="131" x="508.5" y="140.4561">lRolesDto = getRoles()</text><polygon fill="#181818" points="897.5,171.6641,907.5,175.6641,897.5,179.6641,901.5,175.6641" style="stroke:#181818;stroke-width:1.0;"/><line style="stroke:#181818;stroke-width:1.0;" x1="684.5" x2="903.5" y1="175.6641" y2="175.6641"/><text fill="#000000" font-family="sans-serif" font-size="13" font-weight="bold" lengthAdjust="spacing" textLength="7" x="691.5" y="170.8076">3</text><text fill="#000000" font-family="sans-serif" font-size="13" lengthAdjust="spacing" textLength="111" x="702.5" y="170.8076">lRoles = getRoles()</text><polygon fill="#181818" points="1237.5,232.0156,1247.5,236.0156,1237.5,240.0156,1241.5,236.0156" style="stroke:#181818;stroke-width:1.0;"/><line style="stroke:#181818;stroke-width:1.0;" x1="684.5" x2="1243.5" y1="236.0156" y2="236.0156"/><text fill="#000000" font-family="sans-serif" font-size="13" font-weight="bold" lengthAdjust="spacing" textLength="7" x="691.5" y="231.1592">4</text><text fill="#000000" font-family="sans-serif" font-size="13" lengthAdjust="spacing" textLength="81" x="702.5" y="231.1592">toDTO(lRoles)</text><a href="US010_SD_RolesMapper_toDTO.puml" target="_top" title="US010_SD_RolesMapper_toDTO.puml" xlink:actuate="onRequest" xlink:href="US010_SD_RolesMapper_toDTO.puml" xlink:show="new" xlink:title="US010_SD_RolesMapper_toDTO.puml" xlink:type="simple"><rect height="41.4453" style="stroke:#000000;stroke-width:1.5;fill:none;" width="706" x="1200.5" y="244.0156"/><path d="M1200.5,244.0156 L1262.5,244.0156 L1262.5,252.0156 L1252.5,262.0156 L1200.5,262.0156 L1200.5,244.0156 " fill="#EEEEEE" style="stroke:#000000;stroke-width:2.0;"/><text fill="#000000" font-family="sans-serif" font-size="13" font-weight="bold" lengthAdjust="spacing" textLength="17" x="1213.5" y="259.5107">ref</text><text fill="#000000" font-family="sans-serif" font-size="12" lengthAdjust="spacing" textLength="185" x="1461" y="278.4727">US010_SD_RolesMapper_toDTO</text></a><polygon fill="#181818" points="690.5,308.8125,680.5,312.8125,690.5,316.8125,686.5,312.8125" style="stroke:#181818;stroke-width:1.0;"/><line style="stroke:#181818;stroke-width:1.0;stroke-dasharray:2.0,2.0;" x1="684.5" x2="1253.5" y1="312.8125" y2="312.8125"/><text fill="#000000" font-family="sans-serif" font-size="13" font-weight="bold" lengthAdjust="spacing" textLength="7" x="696.5" y="307.9561">5</text><text fill="#000000" font-family="sans-serif" font-size="13" lengthAdjust="spacing" textLength="56" x="707.5" y="307.9561">lRolesDto</text><polygon fill="#181818" points="65.5,339.1641,55.5,343.1641,65.5,347.1641,61.5,343.1641" style="stroke:#181818;stroke-width:1.0;"/><line style="stroke:#181818;stroke-width:1.0;stroke-dasharray:2.0,2.0;" x1="59.5" x2="484.5" y1="343.1641" y2="343.1641"/><text fill="#000000" font-family="sans-serif" font-size="13" font-weight="bold" lengthAdjust="spacing" textLength="7" x="71.5" y="338.3076">6</text><text fill="#000000" font-family="sans-serif" font-size="13" lengthAdjust="spacing" textLength="182" x="82.5" y="338.3076">ask to select the employee role</text><polygon fill="#181818" points="468.5,369.5156,478.5,373.5156,468.5,377.5156,472.5,373.5156" style="stroke:#181818;stroke-width:1.0;"/><line style="stroke:#181818;stroke-width:1.0;" x1="54.5" x2="474.5" y1="373.5156" y2="373.5156"/><text fill="#000000" font-family="sans-serif" font-size="13" font-weight="bold" lengthAdjust="spacing" textLength="7" x="61.5" y="368.6592">7</text><text fill="#000000" font-family="sans-serif" font-size="13" lengthAdjust="spacing" textLength="135" x="72.5" y="368.6592">select the intended role</text><polygon fill="#181818" points="65.5,399.8672,55.5,403.8672,65.5,407.8672,61.5,403.8672" style="stroke:#181818;stroke-width:1.0;"/><line style="stroke:#181818;stroke-width:1.0;stroke-dasharray:2.0,2.0;" x1="59.5" x2="484.5" y1="403.8672" y2="403.8672"/><text fill="#000000" font-family="sans-serif" font-size="13" font-weight="bold" lengthAdjust="spacing" textLength="7" x="71.5" y="399.0107">8</text><text fill="#000000" font-family="sans-serif" font-size="13" lengthAdjust="spacing" textLength="391" x="82.5" y="399.0107">request data (i.e., name, address, phoneNumber, emailAddress, ...)</text><polygon fill="#181818" points="468.5,430.2188,478.5,434.2188,468.5,438.2188,472.5,434.2188" style="stroke:#181818;stroke-width:1.0;"/><line style="stroke:#181818;stroke-width:1.0;" x1="54.5" x2="474.5" y1="434.2188" y2="434.2188"/><text fill="#000000" font-family="sans-serif" font-size="13" font-weight="bold" lengthAdjust="spacing" textLength="7" x="61.5" y="429.3623">9</text><text fill="#000000" font-family="sans-serif" font-size="13" lengthAdjust="spacing" textLength="122" x="72.5" y="429.3623">types requested data</text><polygon fill="#181818" points="662.5,460.5703,672.5,464.5703,662.5,468.5703,666.5,464.5703" style="stroke:#181818;stroke-width:1.0;"/><line style="stroke:#181818;stroke-width:1.0;" x1="490.5" x2="668.5" y1="464.5703" y2="464.5703"/><text fill="#000000" font-family="sans-serif" font-size="13" font-weight="bold" lengthAdjust="spacing" textLength="14" x="497.5" y="459.7139">10</text><text fill="#000000" font-family="sans-serif" font-size="13" lengthAdjust="spacing" textLength="147" x="515.5" y="459.7139">createEmployee(empDto)</text><polygon fill="#181818" points="897.5,490.9219,907.5,494.9219,897.5,498.9219,901.5,494.9219" style="stroke:#181818;stroke-width:1.0;"/><line style="stroke:#181818;stroke-width:1.0;" x1="684.5" x2="903.5" y1="494.9219" y2="494.9219"/><text fill="#000000" font-family="sans-serif" font-size="13" font-weight="bold" lengthAdjust="spacing" textLength="14" x="691.5" y="490.0654">11</text><text fill="#000000" font-family="sans-serif" font-size="13" lengthAdjust="spacing" textLength="188" x="709.5" y="490.0654">emp = createEmployee(empDto)</text><polygon fill="#181818" points="1552.5,521.2734,1562.5,525.2734,1552.5,529.2734,1556.5,525.2734" style="stroke:#181818;stroke-width:1.0;"/><line style="stroke:#181818;stroke-width:1.0;" x1="919.5" x2="1558.5" y1="525.2734" y2="525.2734"/><text fill="#000000" font-family="sans-serif" font-size="13" font-weight="bold" lengthAdjust="spacing" textLength="14" x="926.5" y="520.417">12</text><text fill="#000000" font-family="sans-serif" font-size="13" lengthAdjust="spacing" textLength="147" x="944.5" y="520.417">createEmployee(empDto)</text><a href="US010_SD_EmployeeMapper_createEmployee.puml" target="_top" title="US010_SD_EmployeeMapper_createEmployee.puml" xlink:actuate="onRequest" xlink:href="US010_SD_EmployeeMapper_createEmployee.puml" xlink:show="new" xlink:title="US010_SD_EmployeeMapper_createEmployee.puml" xlink:type="simple"><rect height="41.4453" style="stroke:#000000;stroke-width:1.5;fill:none;" width="404" x="1502.5" y="533.2734"/><path d="M1502.5,533.2734 L1564.5,533.2734 L1564.5,541.2734 L1554.5,551.2734 L1502.5,551.2734 L1502.5,533.2734 " fill="#EEEEEE" style="stroke:#000000;stroke-width:2.0;"/><text fill="#000000" font-family="sans-serif" font-size="13" font-weight="bold" lengthAdjust="spacing" textLength="17" x="1515.5" y="548.7686">ref</text><text fill="#000000" font-family="sans-serif" font-size="12" lengthAdjust="spacing" textLength="292" x="1558.5" y="567.7305">US010_SD_EmployeeMapper_createEmployee.puml</text></a><polygon fill="#181818" points="925.5,598.0703,915.5,602.0703,925.5,606.0703,921.5,602.0703" style="stroke:#181818;stroke-width:1.0;"/><line style="stroke:#181818;stroke-width:1.0;stroke-dasharray:2.0,2.0;" x1="919.5" x2="1568.5" y1="602.0703" y2="602.0703"/><text fill="#000000" font-family="sans-serif" font-size="13" font-weight="bold" lengthAdjust="spacing" textLength="14" x="931.5" y="597.2139">13</text><text fill="#000000" font-family="sans-serif" font-size="13" lengthAdjust="spacing" textLength="62" x="949.5" y="597.2139">return emp</text><polygon fill="#181818" points="65.5,628.4219,55.5,632.4219,65.5,636.4219,61.5,632.4219" style="stroke:#181818;stroke-width:1.0;"/><line style="stroke:#181818;stroke-width:1.0;stroke-dasharray:2.0,2.0;" x1="59.5" x2="484.5" y1="632.4219" y2="632.4219"/><text fill="#000000" font-family="sans-serif" font-size="13" font-weight="bold" lengthAdjust="spacing" textLength="14" x="71.5" y="627.5654">14</text><text fill="#000000" font-family="sans-serif" font-size="13" lengthAdjust="spacing" textLength="252" x="89.5" y="627.5654">shows the data and requests a confirmation</text><polygon fill="#181818" points="468.5,658.7734,478.5,662.7734,468.5,666.7734,472.5,662.7734" style="stroke:#181818;stroke-width:1.0;"/><line style="stroke:#181818;stroke-width:1.0;" x1="54.5" x2="474.5" y1="662.7734" y2="662.7734"/><text fill="#000000" font-family="sans-serif" font-size="13" font-weight="bold" lengthAdjust="spacing" textLength="14" x="61.5" y="657.917">15</text><text fill="#000000" font-family="sans-serif" font-size="13" lengthAdjust="spacing" textLength="100" x="79.5" y="657.917">confirms the data</text><polygon fill="#181818" points="662.5,689.125,672.5,693.125,662.5,697.125,666.5,693.125" style="stroke:#181818;stroke-width:1.0;"/><line style="stroke:#181818;stroke-width:1.0;" x1="490.5" x2="668.5" y1="693.125" y2="693.125"/><text fill="#000000" font-family="sans-serif" font-size="13" font-weight="bold" lengthAdjust="spacing" textLength="14" x="497.5" y="688.2686">16</text><text fill="#000000" font-family="sans-serif" font-size="13" lengthAdjust="spacing" textLength="92" x="515.5" y="688.2686">saveEmployee()</text><polygon fill="#181818" points="897.5,719.4766,907.5,723.4766,897.5,727.4766,901.5,723.4766" style="stroke:#181818;stroke-width:1.0;"/><line style="stroke:#181818;stroke-width:1.0;" x1="684.5" x2="903.5" y1="723.4766" y2="723.4766"/><text fill="#000000" font-family="sans-serif" font-size="13" font-weight="bold" lengthAdjust="spacing" textLength="14" x="691.5" y="718.6201">17</text><text fill="#000000" font-family="sans-serif" font-size="13" lengthAdjust="spacing" textLength="117" x="709.5" y="718.6201">saveEmployee(emp)</text><polygon fill="#181818" points="1061.5,749.8281,1071.5,753.8281,1061.5,757.8281,1065.5,753.8281" style="stroke:#181818;stroke-width:1.0;"/><line style="stroke:#181818;stroke-width:1.0;" x1="919.5" x2="1067.5" y1="753.8281" y2="753.8281"/><text fill="#000000" font-family="sans-serif" font-size="13" font-weight="bold" lengthAdjust="spacing" textLength="14" x="926.5" y="748.9717">18</text><text fill="#000000" font-family="sans-serif" font-size="13" lengthAdjust="spacing" textLength="117" x="944.5" y="748.9717">saveEmployee(emp)</text><line style="stroke:#181818;stroke-width:1.0;" x1="1088.5" x2="1130.5" y1="784.1797" y2="784.1797"/><line style="stroke:#181818;stroke-width:1.0;" x1="1130.5" x2="1130.5" y1="784.1797" y2="797.1797"/><line style="stroke:#181818;stroke-width:1.0;" x1="1089.5" x2="1130.5" y1="797.1797" y2="797.1797"/><polygon fill="#181818" points="1099.5,793.1797,1089.5,797.1797,1099.5,801.1797,1095.5,797.1797" style="stroke:#181818;stroke-width:1.0;"/><text fill="#000000" font-family="sans-serif" font-size="13" font-weight="bold" lengthAdjust="spacing" textLength="14" x="1095.5" y="779.3232">19</text><text fill="#000000" font-family="sans-serif" font-size="13" lengthAdjust="spacing" textLength="134" x="1113.5" y="779.3232">validateEmployee(emp)</text><line style="stroke:#181818;stroke-width:1.0;" x1="1088.5" x2="1130.5" y1="857.5313" y2="857.5313"/><line style="stroke:#181818;stroke-width:1.0;" x1="1130.5" x2="1130.5" y1="857.5313" y2="870.5313"/><line style="stroke:#181818;stroke-width:1.0;" x1="1089.5" x2="1130.5" y1="870.5313" y2="870.5313"/><polygon fill="#181818" points="1099.5,866.5313,1089.5,870.5313,1099.5,874.5313,1095.5,870.5313" style="stroke:#181818;stroke-width:1.0;"/><text fill="#000000" font-family="sans-serif" font-size="13" font-weight="bold" lengthAdjust="spacing" textLength="14" x="1095.5" y="852.6748">20</text><text fill="#000000" font-family="sans-serif" font-size="13" lengthAdjust="spacing" textLength="112" x="1113.5" y="852.6748">addEmployee(emp)</text><polygon fill="#181818" points="65.5,926.8828,55.5,930.8828,65.5,934.8828,61.5,930.8828" style="stroke:#181818;stroke-width:1.0;"/><line style="stroke:#181818;stroke-width:1.0;stroke-dasharray:2.0,2.0;" x1="59.5" x2="479.5" y1="930.8828" y2="930.8828"/><text fill="#000000" font-family="sans-serif" font-size="13" font-weight="bold" lengthAdjust="spacing" textLength="14" x="71.5" y="926.0264">21</text><text fill="#000000" font-family="sans-serif" font-size="13" lengthAdjust="spacing" textLength="176" x="89.5" y="926.0264">informs the operation's sucess</text><!--MD5=[9dede3e6d83525430d0de321f6517203]
@startuml
autonumber
hide footbox
actor "Administrator" as ADM

participant ":RegisterEmployeeUI" as UI
participant ":RegisterEmployeeController" as CTRL
participant ":Company" as COMP
participant "eStore : EmployeeStore" as EMPSTORE
participant ":RolesMapper" as RMAP
participant "lRolesDto :List<RoleDTO>" as IROLESDTO
participant ":EmployeeMapper" as EMPMAP
participant "empDto: EmployeeDto" as EMPDTO
participant "role:OrgRole" as ROLE
participant "emp:Employee" as EMP


activate ADM
ADM -> UI : starts registering a new employee
activate UI
UI -> CTRL : lRolesDto = getRoles()
activate CTRL
CTRL -> COMP : lRoles = getRoles()
activate COMP
deactivate COMP
CTRL -> RMAP : toDTO(lRoles)
activate RMAP
ref over RMAP, ROLE [[US010_SD_RolesMapper_toDTO.puml]]: US010_SD_RolesMapper_toDTO
RMAP - -> CTRL : lRolesDto
deactivate RMAP
deactivate CTRL
UI - -> ADM : ask to select the employee role
deactivate UI
ADM -> UI : select the intended role
activate UI
UI - -> ADM : request data (i.e., name, address, phoneNumber, emailAddress, ...)
deactivate UI
ADM -> UI : types requested data
activate UI
UI -> CTRL : createEmployee(empDto)
activate CTRL
CTRL -> COMP : emp = createEmployee(empDto)
activate COMP
COMP -> EMPMAP : createEmployee(empDto)
activate EMPMAP
ref over EMPMAP, ROLE [[US010_SD_EmployeeMapper_createEmployee.puml]]: US010_SD_EmployeeMapper_createEmployee.puml
EMPMAP - -> COMP : return emp
deactivate COMP
deactivate EMPMAP
deactivate CTRL
deactivate ROLE
UI - -> ADM : shows the data and requests a confirmation
deactivate UI
ADM -> UI : confirms the data
activate UI
UI -> CTRL : saveEmployee()
activate CTRL
CTRL -> COMP : saveEmployee(emp)
activate COMP
COMP -> EMPSTORE : saveEmployee(emp)
activate EMPSTORE
EMPSTORE -> EMPSTORE : validateEmployee(emp)
activate EMPSTORE
deactivate EMPSTORE
EMPSTORE -> EMPSTORE : addEmployee(emp)
activate EMPSTORE
deactivate EMPSTORE
deactivate COMP
deactivate EMPSTORE
deactivate CTRL
deactivate COMP
UI - -> ADM : informs the operation's sucess
@enduml

PlantUML version 1.2022.4(Sat Apr 09 14:29:17 BST 2022)
(GPL source distribution)
Java Runtime: OpenJDK Runtime Environment
JVM: OpenJDK 64-Bit Server VM
Default Encoding: Cp1252
Language: en
Country: US
--></g></svg>