<?xml version="1.0" encoding="UTF-8" standalone="no"?><svg xmlns="http://www.w3.org/2000/svg" xmlns:xlink="http://www.w3.org/1999/xlink" contentStyleType="text/css" height="198px" preserveAspectRatio="none" style="width:682px;height:198px;background:#FFFFFF;" version="1.1" viewBox="0 0 682 198" width="682px" zoomAndPan="magnify"><defs/><g><!--MD5=[72be06cc7ae02ccc98efe28a50e62246]
class SNSUser--><g id="elem_SNSUser"><rect codeLine="6" fill="#F1F1F1" height="57.6094" id="SNSUser" rx="2.5" ry="2.5" style="stroke:#181818;stroke-width:0.5;" width="88" x="587" y="10.3564"/><ellipse cx="602" cy="26.3564" fill="#ADD1B2" rx="11" ry="11" style="stroke:#181818;stroke-width:1.0;"/><path d="M604,22.8564 Q604.2031,22.3564 604.4375,22.1064 Q604.6719,21.8564 604.9375,21.8564 Q605.4063,21.8564 605.7031,22.1377 Q606,22.4189 606,23.0752 L606,24.6377 Q606,25.2939 605.7188,25.5752 Q605.4375,25.8564 605,25.8564 Q604.6094,25.8564 604.3594,25.6846 Q604.1094,25.5127 604,25.0596 Q603.9531,24.7471 603.7813,24.5752 Q603.4688,24.2471 602.9063,24.0596 Q602.3438,23.8564 601.7813,23.8564 Q601.0781,23.8564 600.4844,24.1377 Q599.9063,24.4189 599.4531,25.0439 Q599,25.6689 599,26.5283 L599,27.4502 Q599,28.4814 599.8438,29.1689 Q600.6875,29.8564 602.1875,29.8564 Q603.0781,29.8564 603.7031,29.6533 Q604.0625,29.5439 604.4688,29.1846 Q604.7344,28.9814 604.875,28.9189 Q605.0156,28.8564 605.1875,28.8564 Q605.5156,28.8564 605.75,29.1221 Q606,29.3721 606,29.7314 Q606,30.0752 605.6563,30.4814 Q605.1563,31.0752 604.3594,31.4033 Q603.3125,31.8564 602.0313,31.8564 Q600.5313,31.8564 599.3281,31.2627 Q598.3594,30.7939 597.6719,29.7783 Q597,28.7627 597,27.5596 L597,26.4658 Q597,25.2158 597.5938,24.1221 Q598.2031,23.0283 599.25,22.4502 Q600.3125,21.8564 601.5,21.8564 Q602.2188,21.8564 602.8438,22.1064 Q603.4688,22.3564 604,22.8564 Z " fill="#000000"/><text fill="#000000" font-family="sans-serif" font-size="14" lengthAdjust="spacing" textLength="56" x="616" y="32.085">SNSUser</text><line style="stroke:#181818;stroke-width:0.5;" x1="588" x2="674" y1="42.3564" y2="42.3564"/><text fill="#000000" font-family="sans-serif" font-size="14" lengthAdjust="spacing" textLength="76" x="593" y="60.8896">-snsNumber</text></g><!--MD5=[c508b5b6bbe276ff5e2700b6641f837f]
class Appointment--><g id="elem_Appointment"><rect codeLine="10" fill="#F1F1F1" height="75.2188" id="Appointment" rx="2.5" ry="2.5" style="stroke:#181818;stroke-width:0.5;" width="111" x="7" y="42.8564"/><ellipse cx="22" cy="58.8564" fill="#ADD1B2" rx="11" ry="11" style="stroke:#181818;stroke-width:1.0;"/><path d="M24,55.3564 Q24.2031,54.8564 24.4375,54.6064 Q24.6719,54.3564 24.9375,54.3564 Q25.4063,54.3564 25.7031,54.6377 Q26,54.9189 26,55.5752 L26,57.1377 Q26,57.7939 25.7188,58.0752 Q25.4375,58.3564 25,58.3564 Q24.6094,58.3564 24.3594,58.1846 Q24.1094,58.0127 24,57.5596 Q23.9531,57.2471 23.7813,57.0752 Q23.4688,56.7471 22.9063,56.5596 Q22.3438,56.3564 21.7813,56.3564 Q21.0781,56.3564 20.4844,56.6377 Q19.9063,56.9189 19.4531,57.5439 Q19,58.1689 19,59.0283 L19,59.9502 Q19,60.9814 19.8438,61.6689 Q20.6875,62.3564 22.1875,62.3564 Q23.0781,62.3564 23.7031,62.1533 Q24.0625,62.0439 24.4688,61.6846 Q24.7344,61.4814 24.875,61.4189 Q25.0156,61.3564 25.1875,61.3564 Q25.5156,61.3564 25.75,61.6221 Q26,61.8721 26,62.2314 Q26,62.5752 25.6563,62.9814 Q25.1563,63.5752 24.3594,63.9033 Q23.3125,64.3564 22.0313,64.3564 Q20.5313,64.3564 19.3281,63.7627 Q18.3594,63.2939 17.6719,62.2783 Q17,61.2627 17,60.0596 L17,58.9658 Q17,57.7158 17.5938,56.6221 Q18.2031,55.5283 19.25,54.9502 Q20.3125,54.3564 21.5,54.3564 Q22.2188,54.3564 22.8438,54.6064 Q23.4688,54.8564 24,55.3564 Z " fill="#000000"/><text fill="#000000" font-family="sans-serif" font-size="14" lengthAdjust="spacing" textLength="79" x="36" y="64.585">Appointment</text><line style="stroke:#181818;stroke-width:0.5;" x1="8" x2="117" y1="74.8564" y2="74.8564"/><text fill="#000000" font-family="sans-serif" font-size="14" lengthAdjust="spacing" textLength="33" x="13" y="93.3896">-date</text><text fill="#000000" font-family="sans-serif" font-size="14" lengthAdjust="spacing" textLength="31" x="13" y="110.999">-time</text></g><!--MD5=[03960189e81aa2c066c762ffabbee709]
class Receptionist--><g id="elem_Receptionist"><rect codeLine="15" fill="#F1F1F1" height="40" id="Receptionist" rx="2.5" ry="2.5" style="stroke:#181818;stroke-width:0.5;" width="110" x="299" y="76.3564"/><ellipse cx="314" cy="92.3564" fill="#ADD1B2" rx="11" ry="11" style="stroke:#181818;stroke-width:1.0;"/><path d="M316,88.8564 Q316.2031,88.3564 316.4375,88.1064 Q316.6719,87.8564 316.9375,87.8564 Q317.4063,87.8564 317.7031,88.1377 Q318,88.4189 318,89.0752 L318,90.6377 Q318,91.2939 317.7188,91.5752 Q317.4375,91.8564 317,91.8564 Q316.6094,91.8564 316.3594,91.6846 Q316.1094,91.5127 316,91.0596 Q315.9531,90.7471 315.7813,90.5752 Q315.4688,90.2471 314.9063,90.0596 Q314.3438,89.8564 313.7813,89.8564 Q313.0781,89.8564 312.4844,90.1377 Q311.9063,90.4189 311.4531,91.0439 Q311,91.6689 311,92.5283 L311,93.4502 Q311,94.4814 311.8438,95.1689 Q312.6875,95.8564 314.1875,95.8564 Q315.0781,95.8564 315.7031,95.6533 Q316.0625,95.5439 316.4688,95.1846 Q316.7344,94.9814 316.875,94.9189 Q317.0156,94.8564 317.1875,94.8564 Q317.5156,94.8564 317.75,95.1221 Q318,95.3721 318,95.7314 Q318,96.0752 317.6563,96.4814 Q317.1563,97.0752 316.3594,97.4033 Q315.3125,97.8564 314.0313,97.8564 Q312.5313,97.8564 311.3281,97.2627 Q310.3594,96.7939 309.6719,95.7783 Q309,94.7627 309,93.5596 L309,92.4658 Q309,91.2158 309.5938,90.1221 Q310.2031,89.0283 311.25,88.4502 Q312.3125,87.8564 313.5,87.8564 Q314.2188,87.8564 314.8438,88.1064 Q315.4688,88.3564 316,88.8564 Z " fill="#000000"/><text fill="#000000" font-family="sans-serif" font-size="14" lengthAdjust="spacing" textLength="78" x="328" y="98.085">Receptionist</text><line style="stroke:#181818;stroke-width:0.5;" x1="300" x2="408" y1="108.3564" y2="108.3564"/></g><!--MD5=[0e501da62322464167c8ec4d233a6b7e]
class VaccineType--><g id="elem_VaccineType"><rect codeLine="18" fill="#F1F1F1" height="40" id="VaccineType" rx="2.5" ry="2.5" style="stroke:#181818;stroke-width:0.5;" width="114" x="297" y="151.3564"/><ellipse cx="312" cy="167.3564" fill="#ADD1B2" rx="11" ry="11" style="stroke:#181818;stroke-width:1.0;"/><path d="M314,163.8564 Q314.2031,163.3564 314.4375,163.1064 Q314.6719,162.8564 314.9375,162.8564 Q315.4063,162.8564 315.7031,163.1377 Q316,163.4189 316,164.0752 L316,165.6377 Q316,166.2939 315.7188,166.5752 Q315.4375,166.8564 315,166.8564 Q314.6094,166.8564 314.3594,166.6846 Q314.1094,166.5127 314,166.0596 Q313.9531,165.7471 313.7813,165.5752 Q313.4688,165.2471 312.9063,165.0596 Q312.3438,164.8564 311.7813,164.8564 Q311.0781,164.8564 310.4844,165.1377 Q309.9063,165.4189 309.4531,166.0439 Q309,166.6689 309,167.5283 L309,168.4502 Q309,169.4814 309.8438,170.1689 Q310.6875,170.8564 312.1875,170.8564 Q313.0781,170.8564 313.7031,170.6533 Q314.0625,170.5439 314.4688,170.1846 Q314.7344,169.9814 314.875,169.9189 Q315.0156,169.8564 315.1875,169.8564 Q315.5156,169.8564 315.75,170.1221 Q316,170.3721 316,170.7314 Q316,171.0752 315.6563,171.4814 Q315.1563,172.0752 314.3594,172.4033 Q313.3125,172.8564 312.0313,172.8564 Q310.5313,172.8564 309.3281,172.2627 Q308.3594,171.7939 307.6719,170.7783 Q307,169.7627 307,168.5596 L307,167.4658 Q307,166.2158 307.5938,165.1221 Q308.2031,164.0283 309.25,163.4502 Q310.3125,162.8564 311.5,162.8564 Q312.2188,162.8564 312.8438,163.1064 Q313.4688,163.3564 314,163.8564 Z " fill="#000000"/><text fill="#000000" font-family="sans-serif" font-size="14" lengthAdjust="spacing" textLength="82" x="326" y="173.085">VaccineType</text><line style="stroke:#181818;stroke-width:0.5;" x1="298" x2="410" y1="183.3564" y2="183.3564"/></g><!--MD5=[7690a4971bd8576b261a40a0340b8203]
link Receptionist to SNSUser--><g id="link_Receptionist_SNSUser"><path codeLine="23" d="M409,85.1664 C461.09,74.3664 538.91,58.2364 586.95,48.2764 " fill="none" id="Receptionist-SNSUser" style="stroke:#181818;stroke-width:1.0;"/><polygon fill="#000000" points="450.8959,45.5173,441.4426,44.4756,442.6357,50.2311,450.8959,45.5173" style="stroke:#000000;stroke-width:1.0;"/><text fill="#000000" font-family="sans-serif" font-size="13" lengthAdjust="spacing" textLength="101" x="455" y="51.8516">registers arrival of</text><text fill="#000000" font-family="sans-serif" font-size="13" lengthAdjust="spacing" textLength="7" x="416.8609" y="98.2565">1</text><text fill="#000000" font-family="sans-serif" font-size="13" lengthAdjust="spacing" textLength="20" x="559.0114" y="64.3112">1..*</text></g><!--MD5=[d205afa640eb10e9aa5da67d61820494]
link Receptionist to Appointment--><g id="link_Receptionist_Appointment"><path codeLine="24" d="M298.65,108.1764 C257.11,115.3864 198.57,121.6064 148,112.3564 C138.12,110.5464 127.91,107.6464 118.13,104.3064 " fill="none" id="Receptionist-Appointment" style="stroke:#181818;stroke-width:1.0;"/><polygon fill="#000000" points="179.0011,103.4251,187.9812,106.5572,188.1071,100.6807,179.0011,103.4251" style="stroke:#000000;stroke-width:1.0;"/><text fill="#000000" font-family="sans-serif" font-size="13" lengthAdjust="spacing" textLength="42" x="193" y="108.8516">checks</text><text fill="#000000" font-family="sans-serif" font-size="13" lengthAdjust="spacing" textLength="7" x="284.1098" y="124.2335">1</text><text fill="#000000" font-family="sans-serif" font-size="13" lengthAdjust="spacing" textLength="20" x="126.1287" y="121.7036">1..*</text></g><!--MD5=[e30c801b3ac7b558e113223f2c8633df]
link Appointment to Receptionist--><g id="link_Appointment_Receptionist"><path codeLine="25" d="M118.36,82.7464 C159.33,84.6064 216.68,87.3664 267,90.3564 C277.31,90.9664 288.31,91.6864 298.88,92.4064 " fill="none" id="Appointment-Receptionist" style="stroke:#181818;stroke-width:1.0;"/><polygon fill="#000000" points="172.4929,75.7994,163.6177,72.3813,163.3037,78.2508,172.4929,75.7994" style="stroke:#000000;stroke-width:1.0;"/><text fill="#000000" font-family="sans-serif" font-size="13" lengthAdjust="spacing" textLength="75" x="176.5" y="80.8516">requested by</text><text fill="#000000" font-family="sans-serif" font-size="13" lengthAdjust="spacing" textLength="20" x="125.9751" y="97.4506">1..*</text><text fill="#000000" font-family="sans-serif" font-size="13" lengthAdjust="spacing" textLength="7" x="284.0029" y="88.3194">1</text></g><!--MD5=[19ab43ca298c1d9fd9821023da273d0e]
link Appointment to SNSUser--><g id="link_Appointment_SNSUser"><path codeLine="26" d="M118.22,64.7864 C128.08,62.3564 138.3,60.0864 148,58.3564 C327.4,26.3264 375.19,16.9564 557,29.3564 C566.7,30.0164 577.07,31.1664 586.87,32.4564 " fill="none" id="Appointment-SNSUser" style="stroke:#181818;stroke-width:1.0;"/><polygon fill="#000000" points="318.9881,15.1881,309.7622,12.8787,310.1668,18.7426,318.9881,15.1881" style="stroke:#000000;stroke-width:1.0;"/><text fill="#000000" font-family="sans-serif" font-size="13" lengthAdjust="spacing" textLength="75" x="323" y="20.8516">requested by</text><text fill="#000000" font-family="sans-serif" font-size="13" lengthAdjust="spacing" textLength="7" x="126.1777" y="77.2733">1</text><text fill="#000000" font-family="sans-serif" font-size="13" lengthAdjust="spacing" textLength="7" x="571.9813" y="46.1952">1</text></g><!--MD5=[d63168792e55d79de1fe85cd885704ff]
link Appointment to VaccineType--><g id="link_Appointment_VaccineType"><path codeLine="27" d="M106.19,117.9364 C118.88,127.3164 133.34,136.3864 148,142.3564 C195.77,161.8164 254.4,168.5664 296.7,170.7464 " fill="none" id="Appointment-VaccineType" style="stroke:#181818;stroke-width:1.0;"/><polygon fill="#000000" points="157.8183,134.8679,149.887,129.6195,148.3168,135.2838,157.8183,134.8679" style="stroke:#000000;stroke-width:1.0;"/><text fill="#000000" font-family="sans-serif" font-size="13" lengthAdjust="spacing" textLength="104" x="162" y="138.8516">is associated with</text><text fill="#000000" font-family="sans-serif" font-size="13" lengthAdjust="spacing" textLength="5" x="108.527" y="139.5623">*</text><text fill="#000000" font-family="sans-serif" font-size="13" lengthAdjust="spacing" textLength="7" x="281.91" y="185.2109">1</text></g><!--MD5=[97c439371a95097c21d8996b46888d13]
@startuml
hide methods
left to right direction
skinparam classAttributeIconSize 0


class SNSUser {
  -snsNumber
}

class Appointment {
  -date
  -time
}

class Receptionist {
}

class VaccineType {
}



Receptionist "1" - - "1..*" SNSUser : registers arrival of >
Receptionist "1" - - "1..*" Appointment : checks >
Appointment "1..*" - - "1" Receptionist : requested by >
Appointment "1" - - "1" SNSUser : requested by >
Appointment "*" - - "1" VaccineType : is associated with >



@enduml

PlantUML version 1.2022.5(Sat Apr 30 11:55:52 BST 2022)
(GPL source distribution)
Java Runtime: OpenJDK Runtime Environment
JVM: OpenJDK 64-Bit Server VM
Default Encoding: Cp1252
Language: en
Country: US
--></g></svg>