<?xml version="1.0" encoding="UTF-8" standalone="no"?><svg xmlns="http://www.w3.org/2000/svg" xmlns:xlink="http://www.w3.org/1999/xlink" contentStyleType="text/css" height="840px" preserveAspectRatio="none" style="width:1095px;height:840px;background:#FFFFFF;" version="1.1" viewBox="0 0 1095 840" width="1095px" zoomAndPan="magnify"><defs/><g><rect fill="#FFFFFF" height="680.6953" style="stroke:#181818;stroke-width:1.0;" width="10" x="328" y="87.5703"/><rect fill="#FFFFFF" height="30" style="stroke:#181818;stroke-width:1.0;" width="10" x="616" y="693.9141"/><rect fill="#FFFFFF" height="30" style="stroke:#181818;stroke-width:1.0;" width="10" x="776.5" y="203.4922"/><rect fill="#FFFFFF" height="30" style="stroke:#181818;stroke-width:1.0;" width="10" x="776.5" y="289.1953"/><rect fill="#FFFFFF" height="30" style="stroke:#181818;stroke-width:1.0;" width="10" x="776.5" y="349.5469"/><rect fill="#FFFFFF" height="30" style="stroke:#181818;stroke-width:1.0;" width="10" x="776.5" y="409.8984"/><rect fill="#FFFFFF" height="30" style="stroke:#181818;stroke-width:1.0;" width="10" x="776.5" y="470.25"/><rect fill="#FFFFFF" height="30" style="stroke:#181818;stroke-width:1.0;" width="10" x="776.5" y="530.6016"/><rect fill="#FFFFFF" height="30" style="stroke:#181818;stroke-width:1.0;" width="10" x="776.5" y="590.9531"/><rect height="576.125" style="stroke:#000000;stroke-width:1.5;fill:none;" width="840" x="249" y="162.7891"/><rect height="483.4219" style="stroke:#000000;stroke-width:1.5;fill:none;" width="820" x="259" y="248.4922"/><line style="stroke:#181818;stroke-width:0.5;fill:none;stroke-dasharray:5.0,5.0;" x1="333" x2="333" y1="55.2188" y2="786.2656"/><line style="stroke:#181818;stroke-width:0.5;fill:none;stroke-dasharray:5.0,5.0;" x1="470" x2="470" y1="55.2188" y2="786.2656"/><line style="stroke:#181818;stroke-width:0.5;fill:none;stroke-dasharray:5.0,5.0;" x1="621" x2="621" y1="135.6797" y2="786.2656"/><line style="stroke:#181818;stroke-width:0.5;fill:none;stroke-dasharray:5.0,5.0;" x1="781" x2="781" y1="55.2188" y2="786.2656"/><line style="stroke:#181818;stroke-width:0.5;fill:none;stroke-dasharray:5.0,5.0;" x1="966" x2="966" y1="660.2578" y2="786.2656"/><rect fill="#E2E2F0" height="31.6094" rx="2.5" ry="2.5" style="stroke:#181818;stroke-width:0.5;" width="128" x="269" y="22.6094"/><text fill="#000000" font-family="sans-serif" font-size="14" lengthAdjust="spacing" textLength="114" x="276" y="44.1426">:EmployeeMapper</text><rect fill="#E2E2F0" height="31.6094" rx="2.5" ry="2.5" style="stroke:#181818;stroke-width:0.5;" width="128" x="269" y="785.2656"/><text fill="#000000" font-family="sans-serif" font-size="14" lengthAdjust="spacing" textLength="114" x="276" y="806.7988">:EmployeeMapper</text><rect fill="#E2E2F0" height="49.2188" rx="2.5" ry="2.5" style="stroke:#181818;stroke-width:0.5;" width="126" x="407" y="5"/><text fill="#000000" font-family="sans-serif" font-size="14" lengthAdjust="spacing" textLength="69" x="435.5" y="26.5332">:lEmployee</text><text fill="#000000" font-family="sans-serif" font-size="14" lengthAdjust="spacing" textLength="108" x="418" y="44.1426">:List &lt;Employee&gt;</text><rect fill="#E2E2F0" height="49.2188" rx="2.5" ry="2.5" style="stroke:#181818;stroke-width:0.5;" width="126" x="407" y="785.2656"/><text fill="#000000" font-family="sans-serif" font-size="14" lengthAdjust="spacing" textLength="69" x="435.5" y="806.7988">:lEmployee</text><text fill="#000000" font-family="sans-serif" font-size="14" lengthAdjust="spacing" textLength="108" x="418" y="824.4082">:List &lt;Employee&gt;</text><rect fill="#E2E2F0" height="49.2188" rx="2.5" ry="2.5" style="stroke:#181818;stroke-width:0.5;" width="156" x="543" y="785.2656"/><text fill="#000000" font-family="sans-serif" font-size="14" lengthAdjust="spacing" textLength="99" x="571.5" y="806.7988">:lEmployeeDTO</text><text fill="#000000" font-family="sans-serif" font-size="14" lengthAdjust="spacing" textLength="138" x="554" y="824.4082">:List &lt;EmployeeDTO&gt;</text><rect fill="#E2E2F0" height="31.6094" rx="2.5" ry="2.5" style="stroke:#181818;stroke-width:0.5;" width="145" x="709" y="22.6094"/><text fill="#000000" font-family="sans-serif" font-size="14" lengthAdjust="spacing" textLength="131" x="716" y="44.1426">employee: Employee</text><rect fill="#E2E2F0" height="31.6094" rx="2.5" ry="2.5" style="stroke:#181818;stroke-width:0.5;" width="145" x="709" y="785.2656"/><text fill="#000000" font-family="sans-serif" font-size="14" lengthAdjust="spacing" textLength="131" x="716" y="806.7988">employee: Employee</text><rect fill="#E2E2F0" height="31.6094" rx="2.5" ry="2.5" style="stroke:#181818;stroke-width:0.5;" width="205" x="864" y="785.2656"/><text fill="#000000" font-family="sans-serif" font-size="14" lengthAdjust="spacing" textLength="191" x="871" y="806.7988">employeeDTO: EmployeeDTO</text><rect fill="#FFFFFF" height="680.6953" style="stroke:#181818;stroke-width:1.0;" width="10" x="328" y="87.5703"/><rect fill="#FFFFFF" height="30" style="stroke:#181818;stroke-width:1.0;" width="10" x="616" y="693.9141"/><rect fill="#FFFFFF" height="30" style="stroke:#181818;stroke-width:1.0;" width="10" x="776.5" y="203.4922"/><rect fill="#FFFFFF" height="30" style="stroke:#181818;stroke-width:1.0;" width="10" x="776.5" y="289.1953"/><rect fill="#FFFFFF" height="30" style="stroke:#181818;stroke-width:1.0;" width="10" x="776.5" y="349.5469"/><rect fill="#FFFFFF" height="30" style="stroke:#181818;stroke-width:1.0;" width="10" x="776.5" y="409.8984"/><rect fill="#FFFFFF" height="30" style="stroke:#181818;stroke-width:1.0;" width="10" x="776.5" y="470.25"/><rect fill="#FFFFFF" height="30" style="stroke:#181818;stroke-width:1.0;" width="10" x="776.5" y="530.6016"/><rect fill="#FFFFFF" height="30" style="stroke:#181818;stroke-width:1.0;" width="10" x="776.5" y="590.9531"/><ellipse cx="7.5" cy="86.8203" fill="none" rx="4" ry="4" style="stroke:#181818;stroke-width:1.5;"/><polygon fill="#181818" points="316,83.5703,326,87.5703,316,91.5703,320,87.5703" style="stroke:#181818;stroke-width:1.0;"/><line style="stroke:#181818;stroke-width:1.0;" x1="12" x2="322" y1="87.5703" y2="87.5703"/><text fill="#000000" font-family="sans-serif" font-size="13" font-weight="bold" lengthAdjust="spacing" textLength="7" x="15" y="82.7139">1</text><text fill="#000000" font-family="sans-serif" font-size="13" lengthAdjust="spacing" textLength="290" x="26" y="82.7139">listOfEmployeeToDTO(listEmployee,selectedRole)</text><polygon fill="#181818" points="531,113.9219,541,117.9219,531,121.9219,535,117.9219" style="stroke:#181818;stroke-width:1.0;"/><line style="stroke:#181818;stroke-width:1.0;stroke-dasharray:2.0,2.0;" x1="338" x2="537" y1="117.9219" y2="117.9219"/><text fill="#000000" font-family="sans-serif" font-size="13" font-weight="bold" lengthAdjust="spacing" textLength="7" x="345" y="113.0654">2</text><text fill="#000000" font-family="sans-serif" font-size="13" lengthAdjust="spacing" textLength="44" x="356" y="113.0654">create()</text><rect fill="#E2E2F0" height="49.2188" rx="2.5" ry="2.5" style="stroke:#181818;stroke-width:0.5;" width="156" x="543" y="95.5703"/><text fill="#000000" font-family="sans-serif" font-size="14" lengthAdjust="spacing" textLength="99" x="571.5" y="117.1035">:lEmployeeDTO</text><text fill="#000000" font-family="sans-serif" font-size="14" lengthAdjust="spacing" textLength="138" x="554" y="134.7129">:List &lt;EmployeeDTO&gt;</text><path d="M249,162.7891 L322,162.7891 L322,171.1406 L312,181.1406 L249,181.1406 L249,162.7891 " fill="#EEEEEE" style="stroke:#000000;stroke-width:1.5;"/><rect fill="none" height="576.125" style="stroke:#000000;stroke-width:1.5;" width="840" x="249" y="162.7891"/><text fill="#000000" font-family="sans-serif" font-size="13" font-weight="bold" lengthAdjust="spacing" textLength="28" x="264" y="177.2842">loop</text><text fill="#000000" font-family="sans-serif" font-size="11" font-weight="bold" lengthAdjust="spacing" textLength="197" x="337" y="176.208">[for each Employee in listEmployee]</text><polygon fill="#181818" points="764.5,199.4922,774.5,203.4922,764.5,207.4922,768.5,203.4922" style="stroke:#181818;stroke-width:1.0;"/><line style="stroke:#181818;stroke-width:1.0;" x1="338" x2="770.5" y1="203.4922" y2="203.4922"/><text fill="#000000" font-family="sans-serif" font-size="13" font-weight="bold" lengthAdjust="spacing" textLength="7" x="345" y="198.6357">3</text><text fill="#000000" font-family="sans-serif" font-size="13" lengthAdjust="spacing" textLength="81" x="356" y="198.6357">role=getRole()</text><path d="M259,248.4922 L320,248.4922 L320,256.8438 L310,266.8438 L259,266.8438 L259,248.4922 " fill="#EEEEEE" style="stroke:#000000;stroke-width:1.5;"/><rect fill="none" height="483.4219" style="stroke:#000000;stroke-width:1.5;" width="820" x="259" y="248.4922"/><text fill="#000000" font-family="sans-serif" font-size="13" font-weight="bold" lengthAdjust="spacing" textLength="16" x="274" y="262.9873">alt</text><text fill="#000000" font-family="sans-serif" font-size="11" font-weight="bold" lengthAdjust="spacing" textLength="118" x="335" y="261.9111">[If selectedRole=role]</text><polygon fill="#181818" points="764.5,285.1953,774.5,289.1953,764.5,293.1953,768.5,289.1953" style="stroke:#181818;stroke-width:1.0;"/><line style="stroke:#181818;stroke-width:1.0;" x1="338" x2="770.5" y1="289.1953" y2="289.1953"/><text fill="#000000" font-family="sans-serif" font-size="13" font-weight="bold" lengthAdjust="spacing" textLength="7" x="345" y="284.3389">4</text><text fill="#000000" font-family="sans-serif" font-size="13" lengthAdjust="spacing" textLength="100" x="356" y="284.3389">name=getName()</text><polygon fill="#181818" points="764.5,345.5469,774.5,349.5469,764.5,353.5469,768.5,349.5469" style="stroke:#181818;stroke-width:1.0;"/><line style="stroke:#181818;stroke-width:1.0;" x1="338" x2="770.5" y1="349.5469" y2="349.5469"/><text fill="#000000" font-family="sans-serif" font-size="13" font-weight="bold" lengthAdjust="spacing" textLength="7" x="345" y="344.6904">5</text><text fill="#000000" font-family="sans-serif" font-size="13" lengthAdjust="spacing" textLength="168" x="356" y="344.6904">employeeId=getEmployeeId()</text><polygon fill="#181818" points="764.5,405.8984,774.5,409.8984,764.5,413.8984,768.5,409.8984" style="stroke:#181818;stroke-width:1.0;"/><line style="stroke:#181818;stroke-width:1.0;" x1="338" x2="770.5" y1="409.8984" y2="409.8984"/><text fill="#000000" font-family="sans-serif" font-size="13" font-weight="bold" lengthAdjust="spacing" textLength="7" x="345" y="405.042">6</text><text fill="#000000" font-family="sans-serif" font-size="13" lengthAdjust="spacing" textLength="121" x="356" y="405.042">address=getAdress()</text><polygon fill="#181818" points="764.5,466.25,774.5,470.25,764.5,474.25,768.5,470.25" style="stroke:#181818;stroke-width:1.0;"/><line style="stroke:#181818;stroke-width:1.0;" x1="338" x2="770.5" y1="470.25" y2="470.25"/><text fill="#000000" font-family="sans-serif" font-size="13" font-weight="bold" lengthAdjust="spacing" textLength="7" x="345" y="465.3936">7</text><text fill="#000000" font-family="sans-serif" font-size="13" lengthAdjust="spacing" textLength="196" x="356" y="465.3936">phoneNumber=getPhoneNumber()</text><polygon fill="#181818" points="764.5,526.6016,774.5,530.6016,764.5,534.6016,768.5,530.6016" style="stroke:#181818;stroke-width:1.0;"/><line style="stroke:#181818;stroke-width:1.0;" x1="338" x2="770.5" y1="530.6016" y2="530.6016"/><text fill="#000000" font-family="sans-serif" font-size="13" font-weight="bold" lengthAdjust="spacing" textLength="7" x="345" y="525.7451">8</text><text fill="#000000" font-family="sans-serif" font-size="13" lengthAdjust="spacing" textLength="187" x="356" y="525.7451">emailAdress=getEmailAddress()</text><polygon fill="#181818" points="764.5,586.9531,774.5,590.9531,764.5,594.9531,768.5,590.9531" style="stroke:#181818;stroke-width:1.0;"/><line style="stroke:#181818;stroke-width:1.0;" x1="338" x2="770.5" y1="590.9531" y2="590.9531"/><text fill="#000000" font-family="sans-serif" font-size="13" font-weight="bold" lengthAdjust="spacing" textLength="7" x="345" y="586.0967">9</text><text fill="#000000" font-family="sans-serif" font-size="13" lengthAdjust="spacing" textLength="154" x="356" y="586.0967">ccNumber=getCcNumber()</text><polygon fill="#181818" points="852,647.3047,862,651.3047,852,655.3047,856,651.3047" style="stroke:#181818;stroke-width:1.0;"/><line style="stroke:#181818;stroke-width:1.0;stroke-dasharray:2.0,2.0;" x1="338" x2="858" y1="651.3047" y2="651.3047"/><text fill="#000000" font-family="sans-serif" font-size="13" font-weight="bold" lengthAdjust="spacing" textLength="14" x="345" y="646.4482">10</text><text fill="#000000" font-family="sans-serif" font-size="13" lengthAdjust="spacing" textLength="392" x="363" y="646.4482">create(name,id,address,phoneNumber, emailAdress,ccNumber,role)</text><rect fill="#E2E2F0" height="31.6094" rx="2.5" ry="2.5" style="stroke:#181818;stroke-width:0.5;" width="205" x="864" y="628.9531"/><text fill="#000000" font-family="sans-serif" font-size="14" lengthAdjust="spacing" textLength="191" x="871" y="650.4863">employeeDTO: EmployeeDTO</text><polygon fill="#181818" points="604,689.9141,614,693.9141,604,697.9141,608,693.9141" style="stroke:#181818;stroke-width:1.0;"/><line style="stroke:#181818;stroke-width:1.0;" x1="338" x2="610" y1="693.9141" y2="693.9141"/><text fill="#000000" font-family="sans-serif" font-size="13" font-weight="bold" lengthAdjust="spacing" textLength="14" x="345" y="689.0576">11</text><text fill="#000000" font-family="sans-serif" font-size="13" lengthAdjust="spacing" textLength="111" x="363" y="689.0576">add(employeeDTO)</text><polygon fill="#181818" points="11,764.2656,1,768.2656,11,772.2656,7,768.2656" style="stroke:#181818;stroke-width:1.0;"/><line style="stroke:#181818;stroke-width:1.0;stroke-dasharray:2.0,2.0;" x1="5" x2="332" y1="768.2656" y2="768.2656"/><text fill="#000000" font-family="sans-serif" font-size="13" font-weight="bold" lengthAdjust="spacing" textLength="14" x="17" y="763.4092">12</text><text fill="#000000" font-family="sans-serif" font-size="13" lengthAdjust="spacing" textLength="87" x="35" y="763.4092">lEmployeeDTO</text><!--MD5=[e10d6f917adc997056c643ebd73ecdfd]
@startuml
autonumber
participant ":EmployeeMapper" as EMPLOYEE_MAPPER
participant ":lEmployee\n :List <Employee>" as LIST_EMPLOYEE
participant ":lEmployeeDTO\n :List <EmployeeDTO>" as LIST_EMPLOYEE_DTO
participant "employee: Employee" as EMPLOYEE
participant "employeeDTO: EmployeeDTO" as EMPLOYEE_DTO


[o->EMPLOYEE_MAPPER: listOfEmployeeToDTO(listEmployee,selectedRole)
activate EMPLOYEE_MAPPER
EMPLOYEE_MAPPER - -> LIST_EMPLOYEE_DTO **: create()
loop for each Employee in listEmployee

EMPLOYEE_MAPPER -> EMPLOYEE:role=getRole()
activate EMPLOYEE
deactivate EMPLOYEE
alt If selectedRole=role
EMPLOYEE_MAPPER -> EMPLOYEE: name=getName()
activate EMPLOYEE
deactivate EMPLOYEE
EMPLOYEE_MAPPER -> EMPLOYEE:employeeId=getEmployeeId()
activate EMPLOYEE
deactivate EMPLOYEE
EMPLOYEE_MAPPER -> EMPLOYEE:address=getAdress()
activate EMPLOYEE
deactivate EMPLOYEE
EMPLOYEE_MAPPER -> EMPLOYEE:phoneNumber=getPhoneNumber()
activate EMPLOYEE
deactivate EMPLOYEE
EMPLOYEE_MAPPER -> EMPLOYEE:emailAdress=getEmailAddress()
activate EMPLOYEE
deactivate EMPLOYEE
EMPLOYEE_MAPPER -> EMPLOYEE:ccNumber=getCcNumber()

activate EMPLOYEE
deactivate EMPLOYEE

EMPLOYEE_MAPPER - -> EMPLOYEE_DTO ** : create(name,id,address,phoneNumber, emailAdress,ccNumber,role)
EMPLOYEE_MAPPER -> LIST_EMPLOYEE_DTO : add(employeeDTO)
activate LIST_EMPLOYEE_DTO
deactivate LIST_EMPLOYEE_DTO
end
end loop

<- -EMPLOYEE_MAPPER : lEmployeeDTO
deactivate EMPLOYEE_MAPPER

@enduml

PlantUML version 1.2022.4(Sat Apr 09 14:29:17 BST 2022)
(GPL source distribution)
Java Runtime: OpenJDK Runtime Environment
JVM: OpenJDK 64-Bit Server VM
Default Encoding: Cp1252
Language: pt
Country: PT
--></g></svg>