<?xml version="1.0" encoding="UTF-8" standalone="no"?><svg xmlns="http://www.w3.org/2000/svg" xmlns:xlink="http://www.w3.org/1999/xlink" contentStyleType="text/css" height="523px" preserveAspectRatio="none" style="width:597px;height:523px;background:#FFFFFF;" version="1.1" viewBox="0 0 597 523" width="597px" zoomAndPan="magnify"><defs/><g><rect fill="#FFFFFF" height="373.1953" style="stroke:#181818;stroke-width:1.0;" width="10" x="114" y="87.5703"/><rect fill="#FFFFFF" height="30" style="stroke:#181818;stroke-width:1.0;" width="10" x="322" y="203.4922"/><rect fill="#FFFFFF" height="30" style="stroke:#181818;stroke-width:1.0;" width="10" x="322" y="263.8438"/><rect fill="#FFFFFF" height="30" style="stroke:#181818;stroke-width:1.0;" width="10" x="432" y="384.4141"/><rect height="259.625" style="stroke:#000000;stroke-width:1.5;fill:none;" width="530" x="61.5" y="162.7891"/><line style="stroke:#181818;stroke-width:0.5;fill:none;stroke-dasharray:5.0,5.0;" x1="118.5" x2="118.5" y1="55.2188" y2="469.7656"/><line style="stroke:#181818;stroke-width:0.5;fill:none;stroke-dasharray:5.0,5.0;" x1="326.5" x2="326.5" y1="55.2188" y2="469.7656"/><line style="stroke:#181818;stroke-width:0.5;fill:none;stroke-dasharray:5.0,5.0;" x1="436.5" x2="436.5" y1="135.6797" y2="469.7656"/><line style="stroke:#181818;stroke-width:0.5;fill:none;stroke-dasharray:5.0,5.0;" x1="542.5" x2="542.5" y1="341.9531" y2="469.7656"/><rect fill="#E2E2F0" height="31.6094" rx="2.5" ry="2.5" style="stroke:#181818;stroke-width:0.5;" width="95" x="71.5" y="22.6094"/><text fill="#000000" font-family="sans-serif" font-size="14" lengthAdjust="spacing" textLength="81" x="78.5" y="44.1426">:RoleMapper</text><rect fill="#E2E2F0" height="31.6094" rx="2.5" ry="2.5" style="stroke:#181818;stroke-width:0.5;" width="95" x="71.5" y="468.7656"/><text fill="#000000" font-family="sans-serif" font-size="14" lengthAdjust="spacing" textLength="81" x="78.5" y="490.2988">:RoleMapper</text><rect fill="#E2E2F0" height="49.2188" rx="2.5" ry="2.5" style="stroke:#181818;stroke-width:0.5;" width="85" x="284.5" y="5"/><text fill="#000000" font-family="sans-serif" font-size="14" lengthAdjust="spacing" textLength="8" x="323" y="26.5332">lr</text><text fill="#000000" font-family="sans-serif" font-size="14" lengthAdjust="spacing" textLength="71" x="291.5" y="44.1426">:List&lt;Role&gt;</text><rect fill="#E2E2F0" height="49.2188" rx="2.5" ry="2.5" style="stroke:#181818;stroke-width:0.5;" width="85" x="284.5" y="468.7656"/><text fill="#000000" font-family="sans-serif" font-size="14" lengthAdjust="spacing" textLength="8" x="323" y="490.2988">lr</text><text fill="#000000" font-family="sans-serif" font-size="14" lengthAdjust="spacing" textLength="71" x="291.5" y="507.9082">:List&lt;Role&gt;</text><rect fill="#E2E2F0" height="49.2188" rx="2.5" ry="2.5" style="stroke:#181818;stroke-width:0.5;" width="115" x="379.5" y="468.7656"/><text fill="#000000" font-family="sans-serif" font-size="14" lengthAdjust="spacing" textLength="38" x="418" y="490.2988">lrDTO</text><text fill="#000000" font-family="sans-serif" font-size="14" lengthAdjust="spacing" textLength="101" x="386.5" y="507.9082">:List&lt;RoleDTO&gt;</text><rect fill="#E2E2F0" height="49.2188" rx="2.5" ry="2.5" style="stroke:#181818;stroke-width:0.5;" width="77" x="504.5" y="468.7656"/><text fill="#000000" font-family="sans-serif" font-size="14" lengthAdjust="spacing" textLength="54" x="516" y="490.2988">roleDTO</text><text fill="#000000" font-family="sans-serif" font-size="14" lengthAdjust="spacing" textLength="63" x="511.5" y="507.9082">:RoleDTO</text><rect fill="#FFFFFF" height="373.1953" style="stroke:#181818;stroke-width:1.0;" width="10" x="114" y="87.5703"/><rect fill="#FFFFFF" height="30" style="stroke:#181818;stroke-width:1.0;" width="10" x="322" y="203.4922"/><rect fill="#FFFFFF" height="30" style="stroke:#181818;stroke-width:1.0;" width="10" x="322" y="263.8438"/><rect fill="#FFFFFF" height="30" style="stroke:#181818;stroke-width:1.0;" width="10" x="432" y="384.4141"/><ellipse cx="7.5" cy="86.8203" fill="none" rx="4" ry="4" style="stroke:#181818;stroke-width:1.5;"/><polygon fill="#181818" points="102,83.5703,112,87.5703,102,91.5703,106,87.5703" style="stroke:#181818;stroke-width:1.0;"/><line style="stroke:#181818;stroke-width:1.0;" x1="12" x2="108" y1="87.5703" y2="87.5703"/><text fill="#000000" font-family="sans-serif" font-size="13" font-weight="bold" lengthAdjust="spacing" textLength="7" x="15" y="82.7139">1</text><text fill="#000000" font-family="sans-serif" font-size="13" lengthAdjust="spacing" textLength="76" x="26" y="82.7139">roleToDTO(lr)</text><polygon fill="#181818" points="367.5,113.9219,377.5,117.9219,367.5,121.9219,371.5,117.9219" style="stroke:#181818;stroke-width:1.0;"/><line style="stroke:#181818;stroke-width:1.0;stroke-dasharray:2.0,2.0;" x1="124" x2="373.5" y1="117.9219" y2="117.9219"/><text fill="#000000" font-family="sans-serif" font-size="13" font-weight="bold" lengthAdjust="spacing" textLength="7" x="131" y="113.0654">2</text><text fill="#000000" font-family="sans-serif" font-size="13" lengthAdjust="spacing" textLength="44" x="142" y="113.0654">create()</text><rect fill="#E2E2F0" height="49.2188" rx="2.5" ry="2.5" style="stroke:#181818;stroke-width:0.5;" width="115" x="379.5" y="95.5703"/><text fill="#000000" font-family="sans-serif" font-size="14" lengthAdjust="spacing" textLength="38" x="418" y="117.1035">lrDTO</text><text fill="#000000" font-family="sans-serif" font-size="14" lengthAdjust="spacing" textLength="101" x="386.5" y="134.7129">:List&lt;RoleDTO&gt;</text><path d="M61.5,162.7891 L134.5,162.7891 L134.5,171.1406 L124.5,181.1406 L61.5,181.1406 L61.5,162.7891 " fill="#EEEEEE" style="stroke:#000000;stroke-width:1.5;"/><rect fill="none" height="259.625" style="stroke:#000000;stroke-width:1.5;" width="530" x="61.5" y="162.7891"/><text fill="#000000" font-family="sans-serif" font-size="13" font-weight="bold" lengthAdjust="spacing" textLength="28" x="76.5" y="177.2842">loop</text><text fill="#000000" font-family="sans-serif" font-size="11" font-weight="bold" lengthAdjust="spacing" textLength="102" x="149.5" y="176.208">[for each role in lr]</text><polygon fill="#181818" points="310,199.4922,320,203.4922,310,207.4922,314,203.4922" style="stroke:#181818;stroke-width:1.0;"/><line style="stroke:#181818;stroke-width:1.0;" x1="124" x2="316" y1="203.4922" y2="203.4922"/><text fill="#000000" font-family="sans-serif" font-size="13" font-weight="bold" lengthAdjust="spacing" textLength="7" x="131" y="198.6357">3</text><text fill="#000000" font-family="sans-serif" font-size="13" lengthAdjust="spacing" textLength="168" x="142" y="198.6357">designation=getDesignation()</text><polygon fill="#181818" points="310,259.8438,320,263.8438,310,267.8438,314,263.8438" style="stroke:#181818;stroke-width:1.0;"/><line style="stroke:#181818;stroke-width:1.0;" x1="124" x2="316" y1="263.8438" y2="263.8438"/><text fill="#000000" font-family="sans-serif" font-size="13" font-weight="bold" lengthAdjust="spacing" textLength="7" x="131" y="258.9873">4</text><text fill="#000000" font-family="sans-serif" font-size="13" lengthAdjust="spacing" textLength="101" x="142" y="258.9873">roleId=getRoleId()</text><polygon fill="#181818" points="492.5,320.1953,502.5,324.1953,492.5,328.1953,496.5,324.1953" style="stroke:#181818;stroke-width:1.0;"/><line style="stroke:#181818;stroke-width:1.0;stroke-dasharray:2.0,2.0;" x1="124" x2="498.5" y1="324.1953" y2="324.1953"/><text fill="#000000" font-family="sans-serif" font-size="13" font-weight="bold" lengthAdjust="spacing" textLength="7" x="131" y="319.3389">5</text><text fill="#000000" font-family="sans-serif" font-size="13" lengthAdjust="spacing" textLength="145" x="142" y="319.3389">create(designation,roleId)</text><rect fill="#E2E2F0" height="49.2188" rx="2.5" ry="2.5" style="stroke:#181818;stroke-width:0.5;" width="77" x="504.5" y="301.8438"/><text fill="#000000" font-family="sans-serif" font-size="14" lengthAdjust="spacing" textLength="54" x="516" y="323.377">roleDTO</text><text fill="#000000" font-family="sans-serif" font-size="14" lengthAdjust="spacing" textLength="63" x="511.5" y="340.9863">:RoleDTO</text><polygon fill="#181818" points="420,380.4141,430,384.4141,420,388.4141,424,384.4141" style="stroke:#181818;stroke-width:1.0;"/><line style="stroke:#181818;stroke-width:1.0;" x1="124" x2="426" y1="384.4141" y2="384.4141"/><text fill="#000000" font-family="sans-serif" font-size="13" font-weight="bold" lengthAdjust="spacing" textLength="7" x="131" y="379.5576">6</text><text fill="#000000" font-family="sans-serif" font-size="13" lengthAdjust="spacing" textLength="76" x="142" y="379.5576">add(roleDTO)</text><polygon fill="#181818" points="11,447.7656,1,451.7656,11,455.7656,7,451.7656" style="stroke:#181818;stroke-width:1.0;"/><line style="stroke:#181818;stroke-width:1.0;stroke-dasharray:2.0,2.0;" x1="5" x2="113" y1="451.7656" y2="451.7656"/><text fill="#000000" font-family="sans-serif" font-size="13" font-weight="bold" lengthAdjust="spacing" textLength="7" x="17" y="446.9092">7</text><text fill="#000000" font-family="sans-serif" font-size="13" lengthAdjust="spacing" textLength="33" x="28" y="446.9092">lrDTO</text><!--MD5=[b8bd3d118eb6ff1d0ca1d7469391cfd1]
@startuml
autonumber
participant ":RoleMapper" as ROLE_MAPPER
participant "lr\n:List<Role>" as LIST_CRT
participant "lrDTO\n:List<RoleDTO>" as listCRT_DTO
participant "roleDTO\n:RoleDTO" as ROLE_DTO

[o-> ROLE_MAPPER:roleToDTO(lr)
activate ROLE_MAPPER
ROLE_MAPPER - -> listCRT_DTO **: create()
loop for each role in lr

ROLE_MAPPER -> LIST_CRT:designation=getDesignation()
activate LIST_CRT
deactivate LIST_CRT
ROLE_MAPPER -> LIST_CRT: roleId=getRoleId()
activate LIST_CRT
deactivate LIST_CRT
ROLE_MAPPER - -> ROLE_DTO ** : create(designation,roleId)

ROLE_MAPPER -> listCRT_DTO : add(roleDTO)
activate listCRT_DTO
deactivate listCRT_DTO
end loop
<- -ROLE_MAPPER : lrDTO
@enduml

PlantUML version 1.2022.4(Sat Apr 09 14:29:17 BST 2022)
(GPL source distribution)
Java Runtime: OpenJDK Runtime Environment
JVM: OpenJDK 64-Bit Server VM
Default Encoding: Cp1252
Language: pt
Country: PT
--></g></svg>