<?xml version="1.0" encoding="UTF-8" standalone="no"?><svg xmlns="http://www.w3.org/2000/svg" xmlns:xlink="http://www.w3.org/1999/xlink" contentStyleType="text/css" height="858px" preserveAspectRatio="none" style="width:1029px;height:858px;background:#FFFFFF;" version="1.1" viewBox="0 0 1029 858" width="1029px" zoomAndPan="magnify"><defs/><g><rect fill="#FFFFFF" height="699.1953" style="stroke:#181818;stroke-width:1.0;" width="10" x="138" y="87.5703"/><rect fill="#FFFFFF" height="30" style="stroke:#181818;stroke-width:1.0;" width="10" x="358" y="203.4922"/><rect fill="#FFFFFF" height="30" style="stroke:#181818;stroke-width:1.0;" width="10" x="358" y="370.9922"/><rect fill="#FFFFFF" height="30" style="stroke:#181818;stroke-width:1.0;" width="10" x="358" y="538.4922"/><rect fill="#FFFFFF" height="30" style="stroke:#181818;stroke-width:1.0;" width="10" x="358" y="598.8438"/><rect fill="#FFFFFF" height="76.7969" style="stroke:#181818;stroke-width:1.0;" width="10" x="490.5" y="263.8438"/><rect fill="#FFFFFF" height="76.7969" style="stroke:#181818;stroke-width:1.0;" width="10" x="635.5" y="431.3438"/><rect fill="#FFFFFF" height="30" style="stroke:#181818;stroke-width:1.0;" width="10" x="926" y="719.4141"/><rect height="594.625" style="stroke:#000000;stroke-width:1.5;fill:none;" width="963" x="60.5" y="162.7891"/><line style="stroke:#181818;stroke-width:0.5;fill:none;stroke-dasharray:5.0,5.0;" x1="142.5" x2="142.5" y1="55.2188" y2="804.7656"/><line style="stroke:#181818;stroke-width:0.5;fill:none;stroke-dasharray:5.0,5.0;" x1="362.5" x2="362.5" y1="55.2188" y2="804.7656"/><line style="stroke:#181818;stroke-width:0.5;fill:none;stroke-dasharray:5.0,5.0;" x1="495.5" x2="495.5" y1="55.2188" y2="804.7656"/><line style="stroke:#181818;stroke-width:0.5;fill:none;stroke-dasharray:5.0,5.0;" x1="640.5" x2="640.5" y1="55.2188" y2="804.7656"/><line style="stroke:#181818;stroke-width:0.5;fill:none;stroke-dasharray:5.0,5.0;" x1="774.5" x2="774.5" y1="676.9531" y2="804.7656"/><line style="stroke:#181818;stroke-width:0.5;fill:none;stroke-dasharray:5.0,5.0;" x1="930.5" x2="930.5" y1="135.6797" y2="804.7656"/><rect fill="#E2E2F0" height="31.6094" rx="2.5" ry="2.5" style="stroke:#181818;stroke-width:0.5;" width="145" x="70.5" y="22.6094"/><text fill="#000000" font-family="sans-serif" font-size="14" lengthAdjust="spacing" textLength="131" x="77.5" y="44.1426">:AppointmentMapper</text><rect fill="#E2E2F0" height="31.6094" rx="2.5" ry="2.5" style="stroke:#181818;stroke-width:0.5;" width="145" x="70.5" y="803.7656"/><text fill="#000000" font-family="sans-serif" font-size="14" lengthAdjust="spacing" textLength="131" x="77.5" y="825.2988">:AppointmentMapper</text><rect fill="#E2E2F0" height="49.2188" rx="2.5" ry="2.5" style="stroke:#181818;stroke-width:0.5;" width="97" x="314.5" y="5"/><text fill="#000000" font-family="sans-serif" font-size="14" lengthAdjust="spacing" textLength="78" x="324" y="26.5332">appointment</text><text fill="#000000" font-family="sans-serif" font-size="14" lengthAdjust="spacing" textLength="83" x="321.5" y="44.1426">:Appointment</text><rect fill="#E2E2F0" height="49.2188" rx="2.5" ry="2.5" style="stroke:#181818;stroke-width:0.5;" width="97" x="314.5" y="803.7656"/><text fill="#000000" font-family="sans-serif" font-size="14" lengthAdjust="spacing" textLength="78" x="324" y="825.2988">appointment</text><text fill="#000000" font-family="sans-serif" font-size="14" lengthAdjust="spacing" textLength="83" x="321.5" y="842.9082">:Appointment</text><rect fill="#E2E2F0" height="31.6094" rx="2.5" ry="2.5" style="stroke:#181818;stroke-width:0.5;" width="148" x="421.5" y="22.6094"/><text fill="#000000" font-family="sans-serif" font-size="14" lengthAdjust="spacing" textLength="134" x="428.5" y="44.1426">:VaccineTypeMapper</text><rect fill="#E2E2F0" height="31.6094" rx="2.5" ry="2.5" style="stroke:#181818;stroke-width:0.5;" width="148" x="421.5" y="803.7656"/><text fill="#000000" font-family="sans-serif" font-size="14" lengthAdjust="spacing" textLength="134" x="428.5" y="825.2988">:VaccineTypeMapper</text><rect fill="#E2E2F0" height="31.6094" rx="2.5" ry="2.5" style="stroke:#181818;stroke-width:0.5;" width="122" x="579.5" y="22.6094"/><text fill="#000000" font-family="sans-serif" font-size="14" lengthAdjust="spacing" textLength="108" x="586.5" y="44.1426">:SNSUserMapper</text><rect fill="#E2E2F0" height="31.6094" rx="2.5" ry="2.5" style="stroke:#181818;stroke-width:0.5;" width="122" x="579.5" y="803.7656"/><text fill="#000000" font-family="sans-serif" font-size="14" lengthAdjust="spacing" textLength="108" x="586.5" y="825.2988">:SNSUserMapper</text><rect fill="#E2E2F0" height="49.2188" rx="2.5" ry="2.5" style="stroke:#181818;stroke-width:0.5;" width="127" x="711.5" y="803.7656"/><text fill="#000000" font-family="sans-serif" font-size="14" lengthAdjust="spacing" textLength="108" x="721" y="825.2988">appointmentDTO</text><text fill="#000000" font-family="sans-serif" font-size="14" lengthAdjust="spacing" textLength="113" x="718.5" y="842.9082">:AppointmentDTO</text><rect fill="#E2E2F0" height="49.2188" rx="2.5" ry="2.5" style="stroke:#181818;stroke-width:0.5;" width="165" x="848.5" y="803.7656"/><text fill="#000000" font-family="sans-serif" font-size="14" lengthAdjust="spacing" textLength="95" x="883.5" y="825.2988">waitingListDTO</text><text fill="#000000" font-family="sans-serif" font-size="14" lengthAdjust="spacing" textLength="151" x="855.5" y="842.9082">:List&lt;AppointmentDTO&gt;</text><rect fill="#FFFFFF" height="699.1953" style="stroke:#181818;stroke-width:1.0;" width="10" x="138" y="87.5703"/><rect fill="#FFFFFF" height="30" style="stroke:#181818;stroke-width:1.0;" width="10" x="358" y="203.4922"/><rect fill="#FFFFFF" height="30" style="stroke:#181818;stroke-width:1.0;" width="10" x="358" y="370.9922"/><rect fill="#FFFFFF" height="30" style="stroke:#181818;stroke-width:1.0;" width="10" x="358" y="538.4922"/><rect fill="#FFFFFF" height="30" style="stroke:#181818;stroke-width:1.0;" width="10" x="358" y="598.8438"/><rect fill="#FFFFFF" height="76.7969" style="stroke:#181818;stroke-width:1.0;" width="10" x="490.5" y="263.8438"/><rect fill="#FFFFFF" height="76.7969" style="stroke:#181818;stroke-width:1.0;" width="10" x="635.5" y="431.3438"/><rect fill="#FFFFFF" height="30" style="stroke:#181818;stroke-width:1.0;" width="10" x="926" y="719.4141"/><ellipse cx="7.5" cy="86.8203" fill="none" rx="4" ry="4" style="stroke:#181818;stroke-width:1.5;"/><polygon fill="#181818" points="126,83.5703,136,87.5703,126,91.5703,130,87.5703" style="stroke:#181818;stroke-width:1.0;"/><line style="stroke:#181818;stroke-width:1.0;" x1="12" x2="132" y1="87.5703" y2="87.5703"/><text fill="#000000" font-family="sans-serif" font-size="13" font-weight="bold" lengthAdjust="spacing" textLength="7" x="15" y="82.7139">1</text><text fill="#000000" font-family="sans-serif" font-size="13" lengthAdjust="spacing" textLength="100" x="26" y="82.7139">toDto(waitingList)</text><polygon fill="#181818" points="836.5,113.9219,846.5,117.9219,836.5,121.9219,840.5,117.9219" style="stroke:#181818;stroke-width:1.0;"/><line style="stroke:#181818;stroke-width:1.0;stroke-dasharray:2.0,2.0;" x1="148" x2="842.5" y1="117.9219" y2="117.9219"/><text fill="#000000" font-family="sans-serif" font-size="13" font-weight="bold" lengthAdjust="spacing" textLength="7" x="155" y="113.0654">2</text><text fill="#000000" font-family="sans-serif" font-size="13" lengthAdjust="spacing" textLength="44" x="166" y="113.0654">create()</text><rect fill="#E2E2F0" height="49.2188" rx="2.5" ry="2.5" style="stroke:#181818;stroke-width:0.5;" width="165" x="848.5" y="95.5703"/><text fill="#000000" font-family="sans-serif" font-size="14" lengthAdjust="spacing" textLength="95" x="883.5" y="117.1035">waitingListDTO</text><text fill="#000000" font-family="sans-serif" font-size="14" lengthAdjust="spacing" textLength="151" x="855.5" y="134.7129">:List&lt;AppointmentDTO&gt;</text><path d="M60.5,162.7891 L133.5,162.7891 L133.5,171.1406 L123.5,181.1406 L60.5,181.1406 L60.5,162.7891 " fill="#EEEEEE" style="stroke:#000000;stroke-width:1.5;"/><rect fill="none" height="594.625" style="stroke:#000000;stroke-width:1.5;" width="963" x="60.5" y="162.7891"/><text fill="#000000" font-family="sans-serif" font-size="13" font-weight="bold" lengthAdjust="spacing" textLength="28" x="75.5" y="177.2842">loop</text><text fill="#000000" font-family="sans-serif" font-size="11" font-weight="bold" lengthAdjust="spacing" textLength="203" x="148.5" y="176.208">[for each appointment in waitingList]</text><polygon fill="#181818" points="346,199.4922,356,203.4922,346,207.4922,350,203.4922" style="stroke:#181818;stroke-width:1.0;"/><line style="stroke:#181818;stroke-width:1.0;" x1="148" x2="352" y1="203.4922" y2="203.4922"/><text fill="#000000" font-family="sans-serif" font-size="13" font-weight="bold" lengthAdjust="spacing" textLength="7" x="155" y="198.6357">3</text><text fill="#000000" font-family="sans-serif" font-size="13" lengthAdjust="spacing" textLength="180" x="166" y="198.6357">vaccineType=getVaccineType()</text><polygon fill="#181818" points="478.5,259.8438,488.5,263.8438,478.5,267.8438,482.5,263.8438" style="stroke:#181818;stroke-width:1.0;"/><line style="stroke:#181818;stroke-width:1.0;" x1="148" x2="484.5" y1="263.8438" y2="263.8438"/><text fill="#000000" font-family="sans-serif" font-size="13" font-weight="bold" lengthAdjust="spacing" textLength="7" x="155" y="258.9873">4</text><text fill="#000000" font-family="sans-serif" font-size="13" lengthAdjust="spacing" textLength="215" x="166" y="258.9873">vaccineTypeDTO=toDto(vaccineType)</text><a href="US005_SD_vtMapper_ToDto.puml" target="_top" title="US005_SD_vtMapper_ToDto.puml" xlink:actuate="onRequest" xlink:href="US005_SD_vtMapper_ToDto.puml" xlink:show="new" xlink:title="US005_SD_vtMapper_ToDto.puml" xlink:type="simple"><rect height="41.4453" style="stroke:#000000;stroke-width:1.5;fill:none;" width="166" x="418.5" y="271.8438"/><path d="M418.5,271.8438 L480.5,271.8438 L480.5,279.8438 L470.5,289.8438 L418.5,289.8438 L418.5,271.8438 " fill="#EEEEEE" style="stroke:#000000;stroke-width:2.0;"/><text fill="#000000" font-family="sans-serif" font-size="13" font-weight="bold" lengthAdjust="spacing" textLength="17" x="431.5" y="287.3389">ref</text><text fill="#000000" font-family="sans-serif" font-size="12" lengthAdjust="spacing" textLength="158" x="422.5" y="306.3008">US005_SD_vtMapper_ToDto</text></a><polygon fill="#181818" points="159,336.6406,149,340.6406,159,344.6406,155,340.6406" style="stroke:#181818;stroke-width:1.0;"/><line style="stroke:#181818;stroke-width:1.0;stroke-dasharray:2.0,2.0;" x1="153" x2="494.5" y1="340.6406" y2="340.6406"/><text fill="#000000" font-family="sans-serif" font-size="13" font-weight="bold" lengthAdjust="spacing" textLength="7" x="165" y="335.7842">5</text><text fill="#000000" font-family="sans-serif" font-size="13" lengthAdjust="spacing" textLength="97" x="176" y="335.7842">vaccineTypeDTO</text><polygon fill="#181818" points="346,366.9922,356,370.9922,346,374.9922,350,370.9922" style="stroke:#181818;stroke-width:1.0;"/><line style="stroke:#181818;stroke-width:1.0;" x1="148" x2="352" y1="370.9922" y2="370.9922"/><text fill="#000000" font-family="sans-serif" font-size="13" font-weight="bold" lengthAdjust="spacing" textLength="7" x="155" y="366.1357">6</text><text fill="#000000" font-family="sans-serif" font-size="13" lengthAdjust="spacing" textLength="136" x="166" y="366.1357">snsUser=getSNSUser()</text><polygon fill="#181818" points="623.5,427.3438,633.5,431.3438,623.5,435.3438,627.5,431.3438" style="stroke:#181818;stroke-width:1.0;"/><line style="stroke:#181818;stroke-width:1.0;" x1="148" x2="629.5" y1="431.3438" y2="431.3438"/><text fill="#000000" font-family="sans-serif" font-size="13" font-weight="bold" lengthAdjust="spacing" textLength="7" x="155" y="426.4873">7</text><text fill="#000000" font-family="sans-serif" font-size="13" lengthAdjust="spacing" textLength="169" x="166" y="426.4873">snsUserDTO=toDto(snsUser)</text><a href="US005_SD_snsUserMapper_ToDto.puml" target="_top" title="US005_SD_snsUserMapper_ToDto.puml" xlink:actuate="onRequest" xlink:href="US005_SD_snsUserMapper_ToDto.puml" xlink:show="new" xlink:title="US005_SD_snsUserMapper_ToDto.puml" xlink:type="simple"><rect height="41.4453" style="stroke:#000000;stroke-width:1.5;fill:none;" width="206" x="576.5" y="439.3438"/><path d="M576.5,439.3438 L638.5,439.3438 L638.5,447.3438 L628.5,457.3438 L576.5,457.3438 L576.5,439.3438 " fill="#EEEEEE" style="stroke:#000000;stroke-width:2.0;"/><text fill="#000000" font-family="sans-serif" font-size="13" font-weight="bold" lengthAdjust="spacing" textLength="17" x="589.5" y="454.8389">ref</text><text fill="#000000" font-family="sans-serif" font-size="12" lengthAdjust="spacing" textLength="198" x="580.5" y="473.8008">US005_SD_snsUserMapper_ToDto</text></a><polygon fill="#181818" points="159,504.1406,149,508.1406,159,512.1406,155,508.1406" style="stroke:#181818;stroke-width:1.0;"/><line style="stroke:#181818;stroke-width:1.0;stroke-dasharray:2.0,2.0;" x1="153" x2="639.5" y1="508.1406" y2="508.1406"/><text fill="#000000" font-family="sans-serif" font-size="13" font-weight="bold" lengthAdjust="spacing" textLength="7" x="165" y="503.2842">8</text><text fill="#000000" font-family="sans-serif" font-size="13" lengthAdjust="spacing" textLength="74" x="176" y="503.2842">snsUserDTO</text><polygon fill="#181818" points="346,534.4922,356,538.4922,346,542.4922,350,538.4922" style="stroke:#181818;stroke-width:1.0;"/><line style="stroke:#181818;stroke-width:1.0;" x1="148" x2="352" y1="538.4922" y2="538.4922"/><text fill="#000000" font-family="sans-serif" font-size="13" font-weight="bold" lengthAdjust="spacing" textLength="7" x="155" y="533.6357">9</text><text fill="#000000" font-family="sans-serif" font-size="13" lengthAdjust="spacing" textLength="87" x="166" y="533.6357">time=getTime()</text><polygon fill="#181818" points="346,594.8438,356,598.8438,346,602.8438,350,598.8438" style="stroke:#181818;stroke-width:1.0;"/><line style="stroke:#181818;stroke-width:1.0;" x1="148" x2="352" y1="598.8438" y2="598.8438"/><text fill="#000000" font-family="sans-serif" font-size="13" font-weight="bold" lengthAdjust="spacing" textLength="14" x="155" y="593.9873">10</text><text fill="#000000" font-family="sans-serif" font-size="13" lengthAdjust="spacing" textLength="86" x="173" y="593.9873">date=getDate()</text><polygon fill="#181818" points="699.5,655.1953,709.5,659.1953,699.5,663.1953,703.5,659.1953" style="stroke:#181818;stroke-width:1.0;"/><line style="stroke:#181818;stroke-width:1.0;stroke-dasharray:2.0,2.0;" x1="148" x2="705.5" y1="659.1953" y2="659.1953"/><text fill="#000000" font-family="sans-serif" font-size="13" font-weight="bold" lengthAdjust="spacing" textLength="14" x="155" y="654.3389">11</text><text fill="#000000" font-family="sans-serif" font-size="13" lengthAdjust="spacing" textLength="289" x="173" y="654.3389">create(vaccineTypeDTO, snsUserDTO, date, time)</text><rect fill="#E2E2F0" height="49.2188" rx="2.5" ry="2.5" style="stroke:#181818;stroke-width:0.5;" width="127" x="711.5" y="636.8438"/><text fill="#000000" font-family="sans-serif" font-size="14" lengthAdjust="spacing" textLength="108" x="721" y="658.377">appointmentDTO</text><text fill="#000000" font-family="sans-serif" font-size="14" lengthAdjust="spacing" textLength="113" x="718.5" y="675.9863">:AppointmentDTO</text><polygon fill="#181818" points="914,715.4141,924,719.4141,914,723.4141,918,719.4141" style="stroke:#181818;stroke-width:1.0;"/><line style="stroke:#181818;stroke-width:1.0;" x1="148" x2="920" y1="719.4141" y2="719.4141"/><text fill="#000000" font-family="sans-serif" font-size="13" font-weight="bold" lengthAdjust="spacing" textLength="14" x="155" y="714.5576">12</text><text fill="#000000" font-family="sans-serif" font-size="13" lengthAdjust="spacing" textLength="126" x="173" y="714.5576">add(appointmentDTO)</text><polygon fill="#181818" points="11,782.7656,1,786.7656,11,790.7656,7,786.7656" style="stroke:#181818;stroke-width:1.0;"/><line style="stroke:#181818;stroke-width:1.0;" x1="5" x2="142" y1="786.7656" y2="786.7656"/><text fill="#000000" font-family="sans-serif" font-size="13" font-weight="bold" lengthAdjust="spacing" textLength="14" x="17" y="781.9092">13</text><text fill="#000000" font-family="sans-serif" font-size="13" lengthAdjust="spacing" textLength="87" x="35" y="781.9092">waitingListDTO</text><!--MD5=[08e6d590e64007f3294857da3c9f38b7]
@startuml
autonumber
participant ":AppointmentMapper" as appointmentMapper
participant "appointment\n:Appointment" as appointment
participant ":VaccineTypeMapper" as vaccineTypeMapper
participant ":SNSUserMapper" as snsUserMapper
participant "appointmentDTO\n:AppointmentDTO" as appointmentDTO
participant "waitingListDTO\n:List<AppointmentDTO>" as waitingListDTO


[o-> appointmentMapper : toDto(waitingList)
activate appointmentMapper

appointmentMapper - -> waitingListDTO ** : create()

loop for each appointment in waitingList

appointmentMapper -> appointment : vaccineType=getVaccineType()
activate appointment
deactivate appointment

appointmentMapper -> vaccineTypeMapper : vaccineTypeDTO=toDto(vaccineType)
activate vaccineTypeMapper
ref over vaccineTypeMapper [[US005_SD_vtMapper_ToDto.puml]] : US005_SD_vtMapper_ToDto
vaccineTypeMapper - -> appointmentMapper : vaccineTypeDTO
deactivate vaccineTypeMapper

appointmentMapper -> appointment : snsUser=getSNSUser()
activate appointment
deactivate appointment

appointmentMapper -> snsUserMapper : snsUserDTO=toDto(snsUser)
activate snsUserMapper
ref over snsUserMapper [[US005_SD_snsUserMapper_ToDto.puml]] : US005_SD_snsUserMapper_ToDto
snsUserMapper - -> appointmentMapper : snsUserDTO
deactivate snsUserMapper

appointmentMapper -> appointment : time=getTime()
activate appointment
deactivate appointment

appointmentMapper -> appointment : date=getDate()
activate appointment
deactivate appointment

appointmentMapper - -> appointmentDTO ** : create(vaccineTypeDTO, snsUserDTO, date, time)

appointmentMapper -> waitingListDTO : add(appointmentDTO)
activate waitingListDTO
deactivate waitingListDTO

end

<- appointmentMapper : waitingListDTO
deactivate appointmentMapper
@enduml

PlantUML version 1.2022.5(Sat Apr 30 11:55:52 BST 2022)
(GPL source distribution)
Java Runtime: OpenJDK Runtime Environment
JVM: OpenJDK 64-Bit Server VM
Default Encoding: Cp1252
Language: pt
Country: PT
--></g></svg>