<?xml version="1.0" encoding="UTF-8" standalone="no"?><svg xmlns="http://www.w3.org/2000/svg" xmlns:xlink="http://www.w3.org/1999/xlink" contentStyleType="text/css" height="780px" preserveAspectRatio="none" style="width:2001px;height:780px;background:#FFFFFF;" version="1.1" viewBox="0 0 2001 780" width="2001px" zoomAndPan="magnify"><defs/><g><rect fill="#FFFFFF" height="596.5859" style="stroke:#181818;stroke-width:1.0;" width="10" x="21.5" y="92.6094"/><rect fill="#FFFFFF" height="565.2344" style="stroke:#181818;stroke-width:1.0;" width="10" x="418.5" y="114.9609"/><rect fill="#FFFFFF" height="504.5313" style="stroke:#181818;stroke-width:1.0;" width="10" x="761.5" y="145.3125"/><rect fill="#FFFFFF" height="336.6797" style="stroke:#181818;stroke-width:1.0;" width="10" x="968.5" y="175.6641"/><rect fill="#FFFFFF" height="275.9766" style="stroke:#181818;stroke-width:1.0;" width="10" x="1175.5" y="206.0156"/><rect fill="#FFFFFF" height="30" style="stroke:#181818;stroke-width:1.0;" width="10" x="1374.5" y="347.2891"/><rect fill="#FFFFFF" height="76.7969" style="stroke:#181818;stroke-width:1.0;" width="10" x="1524.5" y="542.6953"/><rect fill="#FFFFFF" height="30" style="stroke:#181818;stroke-width:1.0;" width="10" x="1920.5" y="421.6406"/><rect height="111.0547" style="stroke:#000000;stroke-width:1.5;fill:none;" width="597" x="1039" y="281.2344"/><rect height="78.7031" style="stroke:#000000;stroke-width:1.5;fill:none;" width="577" x="1049" y="306.5859"/><line style="stroke:#181818;stroke-width:0.5;fill:none;stroke-dasharray:5.0,5.0;" x1="26" x2="26" y1="82.6094" y2="698.1953"/><line style="stroke:#181818;stroke-width:0.5;fill:none;stroke-dasharray:5.0,5.0;" x1="423.5" x2="423.5" y1="82.6094" y2="698.1953"/><line style="stroke:#181818;stroke-width:0.5;fill:none;stroke-dasharray:5.0,5.0;" x1="766.5" x2="766.5" y1="82.6094" y2="698.1953"/><line style="stroke:#181818;stroke-width:0.5;fill:none;stroke-dasharray:5.0,5.0;" x1="973.5" x2="973.5" y1="82.6094" y2="698.1953"/><line style="stroke:#181818;stroke-width:0.5;fill:none;stroke-dasharray:5.0,5.0;" x1="1180" x2="1180" y1="82.6094" y2="698.1953"/><line style="stroke:#181818;stroke-width:0.5;fill:none;stroke-dasharray:5.0,5.0;" x1="1379" x2="1379" y1="254.125" y2="698.1953"/><line style="stroke:#181818;stroke-width:0.5;fill:none;stroke-dasharray:5.0,5.0;" x1="1529" x2="1529" y1="82.6094" y2="698.1953"/><line style="stroke:#181818;stroke-width:0.5;fill:none;stroke-dasharray:5.0,5.0;" x1="1660" x2="1660" y1="82.6094" y2="698.1953"/><line style="stroke:#181818;stroke-width:0.5;fill:none;stroke-dasharray:5.0,5.0;" x1="1782" x2="1782" y1="82.6094" y2="698.1953"/><line style="stroke:#181818;stroke-width:0.5;fill:none;stroke-dasharray:5.0,5.0;" x1="1925" x2="1925" y1="82.6094" y2="698.1953"/><text fill="#000000" font-family="sans-serif" font-size="14" lengthAdjust="spacing" textLength="37" x="5" y="79.5332">Nurse</text><ellipse cx="26.5" cy="13.5" fill="#E2E2F0" rx="8" ry="8" style="stroke:#181818;stroke-width:0.5;"/><path d="M26.5,21.5 L26.5,48.5 M13.5,29.5 L39.5,29.5 M26.5,48.5 L13.5,63.5 M26.5,48.5 L39.5,63.5 " fill="none" style="stroke:#181818;stroke-width:0.5;"/><text fill="#000000" font-family="sans-serif" font-size="14" lengthAdjust="spacing" textLength="37" x="5" y="711.7285">Nurse</text><ellipse cx="26.5" cy="723.3047" fill="#E2E2F0" rx="8" ry="8" style="stroke:#181818;stroke-width:0.5;"/><path d="M26.5,731.3047 L26.5,758.3047 M13.5,739.3047 L39.5,739.3047 M26.5,758.3047 L13.5,773.3047 M26.5,758.3047 L39.5,773.3047 " fill="none" style="stroke:#181818;stroke-width:0.5;"/><rect fill="#E2E2F0" height="31.6094" rx="2.5" ry="2.5" style="stroke:#181818;stroke-width:0.5;" width="114" x="366.5" y="50"/><text fill="#000000" font-family="sans-serif" font-size="14" lengthAdjust="spacing" textLength="100" x="373.5" y="71.5332">:WaitingRoomUI</text><rect fill="#E2E2F0" height="31.6094" rx="2.5" ry="2.5" style="stroke:#181818;stroke-width:0.5;" width="114" x="366.5" y="697.1953"/><text fill="#000000" font-family="sans-serif" font-size="14" lengthAdjust="spacing" textLength="100" x="373.5" y="718.7285">:WaitingRoomUI</text><rect fill="#E2E2F0" height="31.6094" rx="2.5" ry="2.5" style="stroke:#181818;stroke-width:0.5;" width="164" x="684.5" y="50"/><text fill="#000000" font-family="sans-serif" font-size="14" lengthAdjust="spacing" textLength="150" x="691.5" y="71.5332">:WaitingRoomController</text><rect fill="#E2E2F0" height="31.6094" rx="2.5" ry="2.5" style="stroke:#181818;stroke-width:0.5;" width="164" x="684.5" y="697.1953"/><text fill="#000000" font-family="sans-serif" font-size="14" lengthAdjust="spacing" textLength="150" x="691.5" y="718.7285">:WaitingRoomController</text><rect fill="#E2E2F0" height="49.2188" rx="2.5" ry="2.5" style="stroke:#181818;stroke-width:0.5;" width="134" x="906.5" y="32.3906"/><text fill="#000000" font-family="sans-serif" font-size="14" lengthAdjust="spacing" textLength="114" x="916.5" y="53.9238">vaccinationCenter</text><text fill="#000000" font-family="sans-serif" font-size="14" lengthAdjust="spacing" textLength="120" x="913.5" y="71.5332">:VaccinationCenter</text><rect fill="#E2E2F0" height="49.2188" rx="2.5" ry="2.5" style="stroke:#181818;stroke-width:0.5;" width="134" x="906.5" y="697.1953"/><text fill="#000000" font-family="sans-serif" font-size="14" lengthAdjust="spacing" textLength="114" x="916.5" y="718.7285">vaccinationCenter</text><text fill="#000000" font-family="sans-serif" font-size="14" lengthAdjust="spacing" textLength="120" x="913.5" y="736.3379">:VaccinationCenter</text><rect fill="#E2E2F0" height="31.6094" rx="2.5" ry="2.5" style="stroke:#181818;stroke-width:0.5;" width="243" x="1059" y="50"/><text fill="#000000" font-family="sans-serif" font-size="14" lengthAdjust="spacing" textLength="229" x="1066" y="71.5332">appointmentStore:AppointmentStore</text><rect fill="#E2E2F0" height="31.6094" rx="2.5" ry="2.5" style="stroke:#181818;stroke-width:0.5;" width="243" x="1059" y="697.1953"/><text fill="#000000" font-family="sans-serif" font-size="14" lengthAdjust="spacing" textLength="229" x="1066" y="718.7285">appointmentStore:AppointmentStore</text><rect fill="#E2E2F0" height="49.2188" rx="2.5" ry="2.5" style="stroke:#181818;stroke-width:0.5;" width="135" x="1312" y="697.1953"/><text fill="#000000" font-family="sans-serif" font-size="14" lengthAdjust="spacing" textLength="65" x="1347" y="718.7285">waitingList</text><text fill="#000000" font-family="sans-serif" font-size="14" lengthAdjust="spacing" textLength="121" x="1319" y="736.3379">:List&lt;Appointment&gt;</text><rect fill="#E2E2F0" height="31.6094" rx="2.5" ry="2.5" style="stroke:#181818;stroke-width:0.5;" width="145" x="1457" y="50"/><text fill="#000000" font-family="sans-serif" font-size="14" lengthAdjust="spacing" textLength="131" x="1464" y="71.5332">:AppointmentMapper</text><rect fill="#E2E2F0" height="31.6094" rx="2.5" ry="2.5" style="stroke:#181818;stroke-width:0.5;" width="145" x="1457" y="697.1953"/><text fill="#000000" font-family="sans-serif" font-size="14" lengthAdjust="spacing" textLength="131" x="1464" y="718.7285">:AppointmentMapper</text><rect fill="#E2E2F0" height="49.2188" rx="2.5" ry="2.5" style="stroke:#181818;stroke-width:0.5;" width="97" x="1612" y="32.3906"/><text fill="#000000" font-family="sans-serif" font-size="14" lengthAdjust="spacing" textLength="78" x="1621.5" y="53.9238">appointment</text><text fill="#000000" font-family="sans-serif" font-size="14" lengthAdjust="spacing" textLength="83" x="1619" y="71.5332">:Appointment</text><rect fill="#E2E2F0" height="49.2188" rx="2.5" ry="2.5" style="stroke:#181818;stroke-width:0.5;" width="97" x="1612" y="697.1953"/><text fill="#000000" font-family="sans-serif" font-size="14" lengthAdjust="spacing" textLength="78" x="1621.5" y="718.7285">appointment</text><text fill="#000000" font-family="sans-serif" font-size="14" lengthAdjust="spacing" textLength="83" x="1619" y="736.3379">:Appointment</text><rect fill="#E2E2F0" height="49.2188" rx="2.5" ry="2.5" style="stroke:#181818;stroke-width:0.5;" width="127" x="1719" y="32.3906"/><text fill="#000000" font-family="sans-serif" font-size="14" lengthAdjust="spacing" textLength="108" x="1728.5" y="53.9238">appointmentDTO</text><text fill="#000000" font-family="sans-serif" font-size="14" lengthAdjust="spacing" textLength="113" x="1726" y="71.5332">:AppointmentDTO</text><rect fill="#E2E2F0" height="49.2188" rx="2.5" ry="2.5" style="stroke:#181818;stroke-width:0.5;" width="127" x="1719" y="697.1953"/><text fill="#000000" font-family="sans-serif" font-size="14" lengthAdjust="spacing" textLength="108" x="1728.5" y="718.7285">appointmentDTO</text><text fill="#000000" font-family="sans-serif" font-size="14" lengthAdjust="spacing" textLength="113" x="1726" y="736.3379">:AppointmentDTO</text><rect fill="#E2E2F0" height="31.6094" rx="2.5" ry="2.5" style="stroke:#181818;stroke-width:0.5;" width="139" x="1856" y="50"/><text fill="#000000" font-family="sans-serif" font-size="14" lengthAdjust="spacing" textLength="125" x="1863" y="71.5332">:java.util.Collections</text><rect fill="#E2E2F0" height="31.6094" rx="2.5" ry="2.5" style="stroke:#181818;stroke-width:0.5;" width="139" x="1856" y="697.1953"/><text fill="#000000" font-family="sans-serif" font-size="14" lengthAdjust="spacing" textLength="125" x="1863" y="718.7285">:java.util.Collections</text><rect fill="#FFFFFF" height="596.5859" style="stroke:#181818;stroke-width:1.0;" width="10" x="21.5" y="92.6094"/><rect fill="#FFFFFF" height="565.2344" style="stroke:#181818;stroke-width:1.0;" width="10" x="418.5" y="114.9609"/><rect fill="#FFFFFF" height="504.5313" style="stroke:#181818;stroke-width:1.0;" width="10" x="761.5" y="145.3125"/><rect fill="#FFFFFF" height="336.6797" style="stroke:#181818;stroke-width:1.0;" width="10" x="968.5" y="175.6641"/><rect fill="#FFFFFF" height="275.9766" style="stroke:#181818;stroke-width:1.0;" width="10" x="1175.5" y="206.0156"/><rect fill="#FFFFFF" height="30" style="stroke:#181818;stroke-width:1.0;" width="10" x="1374.5" y="347.2891"/><rect fill="#FFFFFF" height="76.7969" style="stroke:#181818;stroke-width:1.0;" width="10" x="1524.5" y="542.6953"/><rect fill="#FFFFFF" height="30" style="stroke:#181818;stroke-width:1.0;" width="10" x="1920.5" y="421.6406"/><polygon fill="#181818" points="406.5,110.9609,416.5,114.9609,406.5,118.9609,410.5,114.9609" style="stroke:#181818;stroke-width:1.0;"/><line style="stroke:#181818;stroke-width:1.0;" x1="31.5" x2="412.5" y1="114.9609" y2="114.9609"/><text fill="#000000" font-family="sans-serif" font-size="13" font-weight="bold" lengthAdjust="spacing" textLength="7" x="38.5" y="110.1045">1</text><text fill="#000000" font-family="sans-serif" font-size="13" lengthAdjust="spacing" textLength="252" x="49.5" y="110.1045">ask to consult the waiting list of SNS Users</text><polygon fill="#181818" points="749.5,141.3125,759.5,145.3125,749.5,149.3125,753.5,145.3125" style="stroke:#181818;stroke-width:1.0;"/><line style="stroke:#181818;stroke-width:1.0;" x1="428.5" x2="755.5" y1="145.3125" y2="145.3125"/><text fill="#000000" font-family="sans-serif" font-size="13" font-weight="bold" lengthAdjust="spacing" textLength="7" x="435.5" y="140.4561">2</text><text fill="#000000" font-family="sans-serif" font-size="13" lengthAdjust="spacing" textLength="303" x="446.5" y="140.4561">getWaitingListDTO(dateToCheck, vaccinationCenter)</text><polygon fill="#181818" points="956.5,171.6641,966.5,175.6641,956.5,179.6641,960.5,175.6641" style="stroke:#181818;stroke-width:1.0;"/><line style="stroke:#181818;stroke-width:1.0;" x1="771.5" x2="962.5" y1="175.6641" y2="175.6641"/><text fill="#000000" font-family="sans-serif" font-size="13" font-weight="bold" lengthAdjust="spacing" textLength="7" x="778.5" y="170.8076">3</text><text fill="#000000" font-family="sans-serif" font-size="13" lengthAdjust="spacing" textLength="167" x="789.5" y="170.8076">getWaitingList(dateToCheck)</text><polygon fill="#181818" points="1163.5,202.0156,1173.5,206.0156,1163.5,210.0156,1167.5,206.0156" style="stroke:#181818;stroke-width:1.0;"/><line style="stroke:#181818;stroke-width:1.0;" x1="978.5" x2="1169.5" y1="206.0156" y2="206.0156"/><text fill="#000000" font-family="sans-serif" font-size="13" font-weight="bold" lengthAdjust="spacing" textLength="7" x="985.5" y="201.1592">4</text><text fill="#000000" font-family="sans-serif" font-size="13" lengthAdjust="spacing" textLength="167" x="996.5" y="201.1592">getWaitingList(dateToCheck)</text><polygon fill="#181818" points="1300,232.3672,1310,236.3672,1300,240.3672,1304,236.3672" style="stroke:#181818;stroke-width:1.0;"/><line style="stroke:#181818;stroke-width:1.0;stroke-dasharray:2.0,2.0;" x1="1185.5" x2="1306" y1="236.3672" y2="236.3672"/><text fill="#000000" font-family="sans-serif" font-size="13" font-weight="bold" lengthAdjust="spacing" textLength="7" x="1192.5" y="231.5107">5</text><text fill="#000000" font-family="sans-serif" font-size="13" lengthAdjust="spacing" textLength="44" x="1203.5" y="231.5107">create()</text><rect fill="#E2E2F0" height="49.2188" rx="2.5" ry="2.5" style="stroke:#181818;stroke-width:0.5;" width="135" x="1312" y="214.0156"/><text fill="#000000" font-family="sans-serif" font-size="14" lengthAdjust="spacing" textLength="65" x="1347" y="235.5488">waitingList</text><text fill="#000000" font-family="sans-serif" font-size="14" lengthAdjust="spacing" textLength="121" x="1319" y="253.1582">:List&lt;Appointment&gt;</text><path d="M1039,281.2344 L1112,281.2344 L1112,289.5859 L1102,299.5859 L1039,299.5859 L1039,281.2344 " fill="#EEEEEE" style="stroke:#000000;stroke-width:1.5;"/><rect fill="none" height="111.0547" style="stroke:#000000;stroke-width:1.5;" width="597" x="1039" y="281.2344"/><text fill="#000000" font-family="sans-serif" font-size="13" font-weight="bold" lengthAdjust="spacing" textLength="28" x="1054" y="295.7295">loop</text><text fill="#000000" font-family="sans-serif" font-size="11" font-weight="bold" lengthAdjust="spacing" textLength="242" x="1127" y="294.6533">[for each appointment in appointmentStore]</text><path d="M1049,306.5859 L1110,306.5859 L1110,314.9375 L1100,324.9375 L1049,324.9375 L1049,306.5859 " fill="#EEEEEE" style="stroke:#000000;stroke-width:1.5;"/><rect fill="none" height="78.7031" style="stroke:#000000;stroke-width:1.5;" width="577" x="1049" y="306.5859"/><text fill="#000000" font-family="sans-serif" font-size="13" font-weight="bold" lengthAdjust="spacing" textLength="16" x="1064" y="321.0811">alt</text><text fill="#000000" font-family="sans-serif" font-size="11" font-weight="bold" lengthAdjust="spacing" textLength="496" x="1125" y="320.0049">[if (dateToCheck is equal to appointment date) and (appointment.checkWaitingState=true)]</text><polygon fill="#181818" points="1362.5,343.2891,1372.5,347.2891,1362.5,351.2891,1366.5,347.2891" style="stroke:#181818;stroke-width:1.0;"/><line style="stroke:#181818;stroke-width:1.0;" x1="1185.5" x2="1368.5" y1="347.2891" y2="347.2891"/><text fill="#000000" font-family="sans-serif" font-size="13" font-weight="bold" lengthAdjust="spacing" textLength="7" x="1192.5" y="342.4326">6</text><text fill="#000000" font-family="sans-serif" font-size="13" lengthAdjust="spacing" textLength="100" x="1203.5" y="342.4326">add(appointment)</text><polygon fill="#181818" points="1908.5,417.6406,1918.5,421.6406,1908.5,425.6406,1912.5,421.6406" style="stroke:#181818;stroke-width:1.0;"/><line style="stroke:#181818;stroke-width:1.0;" x1="1185.5" x2="1914.5" y1="421.6406" y2="421.6406"/><text fill="#000000" font-family="sans-serif" font-size="13" font-weight="bold" lengthAdjust="spacing" textLength="7" x="1192.5" y="416.7842">7</text><text fill="#000000" font-family="sans-serif" font-size="13" lengthAdjust="spacing" textLength="91" x="1203.5" y="416.7842">sort(waitingList)</text><polygon fill="#181818" points="989.5,477.9922,979.5,481.9922,989.5,485.9922,985.5,481.9922" style="stroke:#181818;stroke-width:1.0;"/><line style="stroke:#181818;stroke-width:1.0;stroke-dasharray:2.0,2.0;" x1="983.5" x2="1179.5" y1="481.9922" y2="481.9922"/><text fill="#000000" font-family="sans-serif" font-size="13" font-weight="bold" lengthAdjust="spacing" textLength="7" x="995.5" y="477.1357">8</text><text fill="#000000" font-family="sans-serif" font-size="13" lengthAdjust="spacing" textLength="61" x="1006.5" y="477.1357">waitingList</text><polygon fill="#181818" points="782.5,508.3438,772.5,512.3438,782.5,516.3438,778.5,512.3438" style="stroke:#181818;stroke-width:1.0;"/><line style="stroke:#181818;stroke-width:1.0;stroke-dasharray:2.0,2.0;" x1="776.5" x2="972.5" y1="512.3438" y2="512.3438"/><text fill="#000000" font-family="sans-serif" font-size="13" font-weight="bold" lengthAdjust="spacing" textLength="7" x="788.5" y="507.4873">9</text><text fill="#000000" font-family="sans-serif" font-size="13" lengthAdjust="spacing" textLength="61" x="799.5" y="507.4873">waitingList</text><polygon fill="#181818" points="1512.5,538.6953,1522.5,542.6953,1512.5,546.6953,1516.5,542.6953" style="stroke:#181818;stroke-width:1.0;"/><line style="stroke:#181818;stroke-width:1.0;" x1="771.5" x2="1518.5" y1="542.6953" y2="542.6953"/><text fill="#000000" font-family="sans-serif" font-size="13" font-weight="bold" lengthAdjust="spacing" textLength="14" x="778.5" y="537.8389">10</text><text fill="#000000" font-family="sans-serif" font-size="13" lengthAdjust="spacing" textLength="100" x="796.5" y="537.8389">toDto(waitingList)</text><a href="US005_SD_appointmentMapper_toDto.puml" target="_top" title="US005_SD_appointmentMapper_toDto.puml" xlink:actuate="onRequest" xlink:href="US005_SD_appointmentMapper_toDto.puml" xlink:show="new" xlink:title="US005_SD_appointmentMapper_toDto.puml" xlink:type="simple"><rect height="41.4453" style="stroke:#000000;stroke-width:1.5;fill:none;" width="223" x="1454" y="550.6953"/><path d="M1454,550.6953 L1516,550.6953 L1516,558.6953 L1506,568.6953 L1454,568.6953 L1454,550.6953 " fill="#EEEEEE" style="stroke:#000000;stroke-width:2.0;"/><text fill="#000000" font-family="sans-serif" font-size="13" font-weight="bold" lengthAdjust="spacing" textLength="17" x="1467" y="566.1904">ref</text><text fill="#000000" font-family="sans-serif" font-size="12" lengthAdjust="spacing" textLength="215" x="1458" y="585.1523">US005_SD_appointmentMapper_toDto</text></a><polygon fill="#181818" points="782.5,615.4922,772.5,619.4922,782.5,623.4922,778.5,619.4922" style="stroke:#181818;stroke-width:1.0;"/><line style="stroke:#181818;stroke-width:1.0;stroke-dasharray:2.0,2.0;" x1="776.5" x2="1528.5" y1="619.4922" y2="619.4922"/><text fill="#000000" font-family="sans-serif" font-size="13" font-weight="bold" lengthAdjust="spacing" textLength="14" x="788.5" y="614.6357">11</text><text fill="#000000" font-family="sans-serif" font-size="13" lengthAdjust="spacing" textLength="87" x="806.5" y="614.6357">waitingListDTO</text><polygon fill="#181818" points="439.5,645.8438,429.5,649.8438,439.5,653.8438,435.5,649.8438" style="stroke:#181818;stroke-width:1.0;"/><line style="stroke:#181818;stroke-width:1.0;stroke-dasharray:2.0,2.0;" x1="433.5" x2="765.5" y1="649.8438" y2="649.8438"/><text fill="#000000" font-family="sans-serif" font-size="13" font-weight="bold" lengthAdjust="spacing" textLength="14" x="445.5" y="644.9873">12</text><text fill="#000000" font-family="sans-serif" font-size="13" lengthAdjust="spacing" textLength="87" x="463.5" y="644.9873">waitingListDTO</text><polygon fill="#181818" points="42.5,676.1953,32.5,680.1953,42.5,684.1953,38.5,680.1953" style="stroke:#181818;stroke-width:1.0;"/><line style="stroke:#181818;stroke-width:1.0;stroke-dasharray:2.0,2.0;" x1="36.5" x2="422.5" y1="680.1953" y2="680.1953"/><text fill="#000000" font-family="sans-serif" font-size="13" font-weight="bold" lengthAdjust="spacing" textLength="14" x="48.5" y="675.3389">13</text><text fill="#000000" font-family="sans-serif" font-size="13" lengthAdjust="spacing" textLength="345" x="66.5" y="675.3389">shows the waiting list for Nurse's working vaccination center</text><!--MD5=[9fffb9aea610f842daa89dd1f6edd8b4]
@startuml
autonumber
actor "Nurse" as Nurse

participant ":WaitingRoomUI" as UI
participant ":WaitingRoomController" as Controller
participant "vaccinationCenter\n:VaccinationCenter" as VCenter
participant "appointmentStore:AppointmentStore" as appointmentStore
participant "waitingList\n:List<Appointment>" as waitingList
participant ":AppointmentMapper" as appointmentMapper
participant "appointment\n:Appointment" as appointment
participant "appointmentDTO\n:AppointmentDTO" as appointmentDTO
participant ":java.util.Collections" as javaCollections

activate Nurse
Nurse -> UI : ask to consult the waiting list of SNS Users
activate UI

UI -> Controller : getWaitingListDTO(dateToCheck, vaccinationCenter)
activate Controller

Controller -> VCenter : getWaitingList(dateToCheck)
activate VCenter

VCenter -> appointmentStore : getWaitingList(dateToCheck)
activate appointmentStore

appointmentStore - -> waitingList ** : create()
loop for each appointment in appointmentStore
alt if (dateToCheck is equal to appointment date) and (appointment.checkWaitingState=true)
appointmentStore -> waitingList : add(appointment)
activate waitingList
deactivate waitingList
end
end


appointmentStore -> javaCollections : sort(waitingList)
activate javaCollections
deactivate javaCollections


appointmentStore - -> VCenter : waitingList
deactivate appointmentStore

VCenter - -> Controller : waitingList
deactivate VCenter

Controller -> appointmentMapper : toDto(waitingList)
activate appointmentMapper
ref over appointmentMapper [[US005_SD_appointmentMapper_toDto.puml]] : US005_SD_appointmentMapper_toDto
appointmentMapper - -> Controller : waitingListDTO
deactivate appointmentMapper

Controller - -> UI : waitingListDTO
deactivate Controller

UI - -> Nurse : shows the waiting list for Nurse's working vaccination center
deactivate UI

@enduml

PlantUML version 1.2022.5(Sat Apr 30 11:55:52 BST 2022)
(GPL source distribution)
Java Runtime: OpenJDK Runtime Environment
JVM: OpenJDK 64-Bit Server VM
Default Encoding: Cp1252
Language: pt
Country: PT
--></g></svg>