<?xml version="1.0" encoding="UTF-8" standalone="no"?><svg xmlns="http://www.w3.org/2000/svg" xmlns:xlink="http://www.w3.org/1999/xlink" contentStyleType="text/css" height="845px" preserveAspectRatio="none" style="width:2571px;height:845px;background:#FFFFFF;" version="1.1" viewBox="0 0 2571 845" width="2571px" zoomAndPan="magnify"><defs/><g><!--MD5=[a126dd63c8621c017159ae62771fbe54]
class RegisterEmployeeUI--><g id="elem_RegisterEmployeeUI"><rect codeLine="3" fill="#F1F1F1" height="48" id="RegisterEmployeeUI" rx="2.5" ry="2.5" style="stroke:#181818;stroke-width:0.5;" width="159" x="98.5" y="24.5"/><ellipse cx="113.5" cy="40.5" fill="#ADD1B2" rx="11" ry="11" style="stroke:#181818;stroke-width:1.0;"/><path d="M115.5,37 Q115.7031,36.5 115.9375,36.25 Q116.1719,36 116.4375,36 Q116.9063,36 117.2031,36.2813 Q117.5,36.5625 117.5,37.2188 L117.5,38.7813 Q117.5,39.4375 117.2188,39.7188 Q116.9375,40 116.5,40 Q116.1094,40 115.8594,39.8281 Q115.6094,39.6563 115.5,39.2031 Q115.4531,38.8906 115.2813,38.7188 Q114.9688,38.3906 114.4063,38.2031 Q113.8438,38 113.2813,38 Q112.5781,38 111.9844,38.2813 Q111.4063,38.5625 110.9531,39.1875 Q110.5,39.8125 110.5,40.6719 L110.5,41.5938 Q110.5,42.625 111.3438,43.3125 Q112.1875,44 113.6875,44 Q114.5781,44 115.2031,43.7969 Q115.5625,43.6875 115.9688,43.3281 Q116.2344,43.125 116.375,43.0625 Q116.5156,43 116.6875,43 Q117.0156,43 117.25,43.2656 Q117.5,43.5156 117.5,43.875 Q117.5,44.2188 117.1563,44.625 Q116.6563,45.2188 115.8594,45.5469 Q114.8125,46 113.5313,46 Q112.0313,46 110.8281,45.4063 Q109.8594,44.9375 109.1719,43.9219 Q108.5,42.9063 108.5,41.7031 L108.5,40.6094 Q108.5,39.3594 109.0938,38.2656 Q109.7031,37.1719 110.75,36.5938 Q111.8125,36 113,36 Q113.7188,36 114.3438,36.25 Q114.9688,36.5 115.5,37 Z " fill="#000000"/><text fill="#000000" font-family="sans-serif" font-size="14" lengthAdjust="spacing" textLength="127" x="127.5" y="46.2285">RegisterEmployeeUI</text><line style="stroke:#181818;stroke-width:0.5;" x1="99.5" x2="256.5" y1="56.5" y2="56.5"/><line style="stroke:#181818;stroke-width:0.5;" x1="99.5" x2="256.5" y1="64.5" y2="64.5"/></g><!--MD5=[6a4e699b59c2ecf8286aba2faa72e4bd]
class RegisterEmployeeController--><g id="elem_RegisterEmployeeController"><rect codeLine="5" fill="#F1F1F1" height="100.8281" id="RegisterEmployeeController" rx="2.5" ry="2.5" style="stroke:#181818;stroke-width:0.5;" width="315" x="1714.5" y="159.5"/><ellipse cx="1779.25" cy="175.5" fill="#ADD1B2" rx="11" ry="11" style="stroke:#181818;stroke-width:1.0;"/><path d="M1781.25,172 Q1781.4531,171.5 1781.6875,171.25 Q1781.9219,171 1782.1875,171 Q1782.6563,171 1782.9531,171.2813 Q1783.25,171.5625 1783.25,172.2188 L1783.25,173.7813 Q1783.25,174.4375 1782.9688,174.7188 Q1782.6875,175 1782.25,175 Q1781.8594,175 1781.6094,174.8281 Q1781.3594,174.6563 1781.25,174.2031 Q1781.2031,173.8906 1781.0313,173.7188 Q1780.7188,173.3906 1780.1563,173.2031 Q1779.5938,173 1779.0313,173 Q1778.3281,173 1777.7344,173.2813 Q1777.1563,173.5625 1776.7031,174.1875 Q1776.25,174.8125 1776.25,175.6719 L1776.25,176.5938 Q1776.25,177.625 1777.0938,178.3125 Q1777.9375,179 1779.4375,179 Q1780.3281,179 1780.9531,178.7969 Q1781.3125,178.6875 1781.7188,178.3281 Q1781.9844,178.125 1782.125,178.0625 Q1782.2656,178 1782.4375,178 Q1782.7656,178 1783,178.2656 Q1783.25,178.5156 1783.25,178.875 Q1783.25,179.2188 1782.9063,179.625 Q1782.4063,180.2188 1781.6094,180.5469 Q1780.5625,181 1779.2813,181 Q1777.7813,181 1776.5781,180.4063 Q1775.6094,179.9375 1774.9219,178.9219 Q1774.25,177.9063 1774.25,176.7031 L1774.25,175.6094 Q1774.25,174.3594 1774.8438,173.2656 Q1775.4531,172.1719 1776.5,171.5938 Q1777.5625,171 1778.75,171 Q1779.4688,171 1780.0938,171.25 Q1780.7188,171.5 1781.25,172 Z " fill="#000000"/><text fill="#000000" font-family="sans-serif" font-size="14" lengthAdjust="spacing" textLength="177" x="1799.75" y="181.2285">RegisterEmployeeController</text><line style="stroke:#181818;stroke-width:0.5;" x1="1715.5" x2="2028.5" y1="191.5" y2="191.5"/><line style="stroke:#181818;stroke-width:0.5;" x1="1715.5" x2="2028.5" y1="199.5" y2="199.5"/><text fill="#000000" font-family="sans-serif" font-size="14" lengthAdjust="spacing" textLength="303" x="1720.5" y="218.0332">+createEmployee(empDto : EmployeeDto) : void</text><text fill="#000000" font-family="sans-serif" font-size="14" lengthAdjust="spacing" textLength="148" x="1720.5" y="235.6426">+saveEmployee() : void</text><text fill="#000000" font-family="sans-serif" font-size="14" lengthAdjust="spacing" textLength="183" x="1720.5" y="253.252">+getRoles() : List&lt;RoleDTO&gt;</text></g><!--MD5=[02e4b9b7573f1156f41e60aa5b4e25a4]
class Company--><g id="elem_Company"><rect codeLine="11" fill="#F1F1F1" height="136.0469" id="Company" rx="2.5" ry="2.5" style="stroke:#181818;stroke-width:0.5;" width="315" x="1484.5" y="408.5"/><ellipse cx="1607.75" cy="424.5" fill="#ADD1B2" rx="11" ry="11" style="stroke:#181818;stroke-width:1.0;"/><path d="M1609.75,421 Q1609.9531,420.5 1610.1875,420.25 Q1610.4219,420 1610.6875,420 Q1611.1563,420 1611.4531,420.2813 Q1611.75,420.5625 1611.75,421.2188 L1611.75,422.7813 Q1611.75,423.4375 1611.4688,423.7188 Q1611.1875,424 1610.75,424 Q1610.3594,424 1610.1094,423.8281 Q1609.8594,423.6563 1609.75,423.2031 Q1609.7031,422.8906 1609.5313,422.7188 Q1609.2188,422.3906 1608.6563,422.2031 Q1608.0938,422 1607.5313,422 Q1606.8281,422 1606.2344,422.2813 Q1605.6563,422.5625 1605.2031,423.1875 Q1604.75,423.8125 1604.75,424.6719 L1604.75,425.5938 Q1604.75,426.625 1605.5938,427.3125 Q1606.4375,428 1607.9375,428 Q1608.8281,428 1609.4531,427.7969 Q1609.8125,427.6875 1610.2188,427.3281 Q1610.4844,427.125 1610.625,427.0625 Q1610.7656,427 1610.9375,427 Q1611.2656,427 1611.5,427.2656 Q1611.75,427.5156 1611.75,427.875 Q1611.75,428.2188 1611.4063,428.625 Q1610.9063,429.2188 1610.1094,429.5469 Q1609.0625,430 1607.7813,430 Q1606.2813,430 1605.0781,429.4063 Q1604.1094,428.9375 1603.4219,427.9219 Q1602.75,426.9063 1602.75,425.7031 L1602.75,424.6094 Q1602.75,423.3594 1603.3438,422.2656 Q1603.9531,421.1719 1605,420.5938 Q1606.0625,420 1607.25,420 Q1607.9688,420 1608.5938,420.25 Q1609.2188,420.5 1609.75,421 Z " fill="#000000"/><text fill="#000000" font-family="sans-serif" font-size="14" lengthAdjust="spacing" textLength="60" x="1628.25" y="430.2285">Company</text><line style="stroke:#181818;stroke-width:0.5;" x1="1485.5" x2="1798.5" y1="440.5" y2="440.5"/><text fill="#000000" font-family="sans-serif" font-size="14" lengthAdjust="spacing" textLength="127" x="1490.5" y="459.0332">-designation : String</text><text fill="#000000" font-family="sans-serif" font-size="14" lengthAdjust="spacing" textLength="150" x="1490.5" y="476.6426">-List &lt;OrgRoles&gt; lRoles</text><line style="stroke:#181818;stroke-width:0.5;" x1="1485.5" x2="1798.5" y1="483.7188" y2="483.7188"/><text fill="#000000" font-family="sans-serif" font-size="14" lengthAdjust="spacing" textLength="249" x="1490.5" y="502.252">+saveEmployee(emp : Employee) : void</text><text fill="#000000" font-family="sans-serif" font-size="14" lengthAdjust="spacing" textLength="303" x="1490.5" y="519.8613">+createEmployee(empDto : EmployeeDto) : void</text><text fill="#000000" font-family="sans-serif" font-size="14" lengthAdjust="spacing" textLength="164" x="1490.5" y="537.4707">+getRoles() : List &lt;Roles&gt;</text></g><!--MD5=[b64d607bedbea291fc734da8fa2f1bc3]
class RoleMapper--><g id="elem_RoleMapper"><rect codeLine="19" fill="#F1F1F1" height="83.2188" id="RoleMapper" rx="2.5" ry="2.5" style="stroke:#181818;stroke-width:0.5;" width="303" x="292.5" y="7"/><ellipse cx="401.25" cy="23" fill="#ADD1B2" rx="11" ry="11" style="stroke:#181818;stroke-width:1.0;"/><path d="M403.25,19.5 Q403.4531,19 403.6875,18.75 Q403.9219,18.5 404.1875,18.5 Q404.6563,18.5 404.9531,18.7813 Q405.25,19.0625 405.25,19.7188 L405.25,21.2813 Q405.25,21.9375 404.9688,22.2188 Q404.6875,22.5 404.25,22.5 Q403.8594,22.5 403.6094,22.3281 Q403.3594,22.1563 403.25,21.7031 Q403.2031,21.3906 403.0313,21.2188 Q402.7188,20.8906 402.1563,20.7031 Q401.5938,20.5 401.0313,20.5 Q400.3281,20.5 399.7344,20.7813 Q399.1563,21.0625 398.7031,21.6875 Q398.25,22.3125 398.25,23.1719 L398.25,24.0938 Q398.25,25.125 399.0938,25.8125 Q399.9375,26.5 401.4375,26.5 Q402.3281,26.5 402.9531,26.2969 Q403.3125,26.1875 403.7188,25.8281 Q403.9844,25.625 404.125,25.5625 Q404.2656,25.5 404.4375,25.5 Q404.7656,25.5 405,25.7656 Q405.25,26.0156 405.25,26.375 Q405.25,26.7188 404.9063,27.125 Q404.4063,27.7188 403.6094,28.0469 Q402.5625,28.5 401.2813,28.5 Q399.7813,28.5 398.5781,27.9063 Q397.6094,27.4375 396.9219,26.4219 Q396.25,25.4063 396.25,24.2031 L396.25,23.1094 Q396.25,21.8594 396.8438,20.7656 Q397.4531,19.6719 398.5,19.0938 Q399.5625,18.5 400.75,18.5 Q401.4688,18.5 402.0938,18.75 Q402.7188,19 403.25,19.5 Z " fill="#000000"/><text fill="#000000" font-family="sans-serif" font-size="14" lengthAdjust="spacing" textLength="77" x="421.75" y="28.7285">RoleMapper</text><line style="stroke:#181818;stroke-width:0.5;" x1="293.5" x2="594.5" y1="39" y2="39"/><text fill="#000000" font-family="sans-serif" font-size="14" lengthAdjust="spacing" textLength="167" x="298.5" y="57.5332">-lRolesDto List&lt;RoleDTO&gt;</text><line style="stroke:#181818;stroke-width:0.5;" x1="293.5" x2="594.5" y1="64.6094" y2="64.6094"/><text fill="#000000" font-family="sans-serif" font-size="14" lengthAdjust="spacing" textLength="291" x="298.5" y="83.1426">+toDTO(lRoles : List&lt;Role&gt;) : List &lt;RoleDTO&gt;</text></g><!--MD5=[38bc9548dd9b3552396f9d08e2f99d94]
class EmployeeDto--><g id="elem_EmployeeDto"><rect codeLine="24" fill="#F1F1F1" height="171.2656" id="EmployeeDto" rx="2.5" ry="2.5" style="stroke:#181818;stroke-width:0.5;" width="882" x="7" y="667"/><ellipse cx="401.75" cy="683" fill="#ADD1B2" rx="11" ry="11" style="stroke:#181818;stroke-width:1.0;"/><path d="M403.75,679.5 Q403.9531,679 404.1875,678.75 Q404.4219,678.5 404.6875,678.5 Q405.1563,678.5 405.4531,678.7813 Q405.75,679.0625 405.75,679.7188 L405.75,681.2813 Q405.75,681.9375 405.4688,682.2188 Q405.1875,682.5 404.75,682.5 Q404.3594,682.5 404.1094,682.3281 Q403.8594,682.1563 403.75,681.7031 Q403.7031,681.3906 403.5313,681.2188 Q403.2188,680.8906 402.6563,680.7031 Q402.0938,680.5 401.5313,680.5 Q400.8281,680.5 400.2344,680.7813 Q399.6563,681.0625 399.2031,681.6875 Q398.75,682.3125 398.75,683.1719 L398.75,684.0938 Q398.75,685.125 399.5938,685.8125 Q400.4375,686.5 401.9375,686.5 Q402.8281,686.5 403.4531,686.2969 Q403.8125,686.1875 404.2188,685.8281 Q404.4844,685.625 404.625,685.5625 Q404.7656,685.5 404.9375,685.5 Q405.2656,685.5 405.5,685.7656 Q405.75,686.0156 405.75,686.375 Q405.75,686.7188 405.4063,687.125 Q404.9063,687.7188 404.1094,688.0469 Q403.0625,688.5 401.7813,688.5 Q400.2813,688.5 399.0781,687.9063 Q398.1094,687.4375 397.4219,686.4219 Q396.75,685.4063 396.75,684.2031 L396.75,683.1094 Q396.75,681.8594 397.3438,680.7656 Q397.9531,679.6719 399,679.0938 Q400.0625,678.5 401.25,678.5 Q401.9688,678.5 402.5938,678.75 Q403.2188,679 403.75,679.5 Z " fill="#000000"/><text fill="#000000" font-family="sans-serif" font-size="14" lengthAdjust="spacing" textLength="84" x="422.25" y="688.7285">EmployeeDto</text><line style="stroke:#181818;stroke-width:0.5;" x1="8" x2="888" y1="699" y2="699"/><text fill="#000000" font-family="sans-serif" font-size="14" lengthAdjust="spacing" textLength="89" x="13" y="717.5332">-name : String</text><text fill="#000000" font-family="sans-serif" font-size="14" lengthAdjust="spacing" textLength="126" x="13" y="735.1426">-employeeId : String</text><text fill="#000000" font-family="sans-serif" font-size="14" lengthAdjust="spacing" textLength="105" x="13" y="752.752">-address : String</text><text fill="#000000" font-family="sans-serif" font-size="14" lengthAdjust="spacing" textLength="143" x="13" y="770.3613">-phoneNumber : String</text><text fill="#000000" font-family="sans-serif" font-size="14" lengthAdjust="spacing" textLength="139" x="13" y="787.9707">-emailAddress : String</text><text fill="#000000" font-family="sans-serif" font-size="14" lengthAdjust="spacing" textLength="117" x="13" y="805.5801">-ccNumber : String</text><line style="stroke:#181818;stroke-width:0.5;" x1="8" x2="888" y1="812.6563" y2="812.6563"/><text fill="#000000" font-family="sans-serif" font-size="14" lengthAdjust="spacing" textLength="870" x="13" y="831.1895">+EmployeeDTO(name : String, id : String, address : String, phoneNumber : String, emailAdress : Email, ccNumber : String, role : RoleDTO)</text></g><!--MD5=[3fd616f346a44cd59a91eb10b19e157c]
class User--><g id="elem_User"><rect codeLine="34" fill="#F1F1F1" height="118.4375" id="User" rx="2.5" ry="2.5" style="stroke:#181818;stroke-width:0.5;" width="150" x="562" y="151"/><ellipse cx="618.25" cy="167" fill="#ADD1B2" rx="11" ry="11" style="stroke:#181818;stroke-width:1.0;"/><path d="M620.25,163.5 Q620.4531,163 620.6875,162.75 Q620.9219,162.5 621.1875,162.5 Q621.6563,162.5 621.9531,162.7813 Q622.25,163.0625 622.25,163.7188 L622.25,165.2813 Q622.25,165.9375 621.9688,166.2188 Q621.6875,166.5 621.25,166.5 Q620.8594,166.5 620.6094,166.3281 Q620.3594,166.1563 620.25,165.7031 Q620.2031,165.3906 620.0313,165.2188 Q619.7188,164.8906 619.1563,164.7031 Q618.5938,164.5 618.0313,164.5 Q617.3281,164.5 616.7344,164.7813 Q616.1563,165.0625 615.7031,165.6875 Q615.25,166.3125 615.25,167.1719 L615.25,168.0938 Q615.25,169.125 616.0938,169.8125 Q616.9375,170.5 618.4375,170.5 Q619.3281,170.5 619.9531,170.2969 Q620.3125,170.1875 620.7188,169.8281 Q620.9844,169.625 621.125,169.5625 Q621.2656,169.5 621.4375,169.5 Q621.7656,169.5 622,169.7656 Q622.25,170.0156 622.25,170.375 Q622.25,170.7188 621.9063,171.125 Q621.4063,171.7188 620.6094,172.0469 Q619.5625,172.5 618.2813,172.5 Q616.7813,172.5 615.5781,171.9063 Q614.6094,171.4375 613.9219,170.4219 Q613.25,169.4063 613.25,168.2031 L613.25,167.1094 Q613.25,165.8594 613.8438,164.7656 Q614.4531,163.6719 615.5,163.0938 Q616.5625,162.5 617.75,162.5 Q618.4688,162.5 619.0938,162.75 Q619.7188,163 620.25,163.5 Z " fill="#000000"/><text fill="#000000" font-family="sans-serif" font-size="14" lengthAdjust="spacing" textLength="29" x="638.75" y="172.7285">User</text><line style="stroke:#181818;stroke-width:0.5;" x1="563" x2="711" y1="183" y2="183"/><text fill="#000000" font-family="sans-serif" font-size="14" lengthAdjust="spacing" textLength="89" x="568" y="201.5332">-name : String</text><text fill="#000000" font-family="sans-serif" font-size="14" lengthAdjust="spacing" textLength="136" x="568" y="219.1426">-emailAddress : Email</text><text fill="#000000" font-family="sans-serif" font-size="14" lengthAdjust="spacing" textLength="138" x="568" y="236.752">-password : Password</text><line style="stroke:#181818;stroke-width:0.5;" x1="563" x2="711" y1="243.8281" y2="243.8281"/><text fill="#000000" font-family="sans-serif" font-size="14" lengthAdjust="spacing" textLength="95" x="568" y="262.3613">+getId() : Email</text></g><!--MD5=[b65e6cec79d32d494d76fa2df2ac0ae9]
class OrgRole--><g id="elem_OrgRole"><rect codeLine="41" fill="#F1F1F1" height="118.4375" id="OrgRole" rx="2.5" ry="2.5" style="stroke:#181818;stroke-width:0.5;" width="174" x="1869" y="417.5"/><ellipse cx="1925.25" cy="433.5" fill="#ADD1B2" rx="11" ry="11" style="stroke:#181818;stroke-width:1.0;"/><path d="M1927.25,430 Q1927.4531,429.5 1927.6875,429.25 Q1927.9219,429 1928.1875,429 Q1928.6563,429 1928.9531,429.2813 Q1929.25,429.5625 1929.25,430.2188 L1929.25,431.7813 Q1929.25,432.4375 1928.9688,432.7188 Q1928.6875,433 1928.25,433 Q1927.8594,433 1927.6094,432.8281 Q1927.3594,432.6563 1927.25,432.2031 Q1927.2031,431.8906 1927.0313,431.7188 Q1926.7188,431.3906 1926.1563,431.2031 Q1925.5938,431 1925.0313,431 Q1924.3281,431 1923.7344,431.2813 Q1923.1563,431.5625 1922.7031,432.1875 Q1922.25,432.8125 1922.25,433.6719 L1922.25,434.5938 Q1922.25,435.625 1923.0938,436.3125 Q1923.9375,437 1925.4375,437 Q1926.3281,437 1926.9531,436.7969 Q1927.3125,436.6875 1927.7188,436.3281 Q1927.9844,436.125 1928.125,436.0625 Q1928.2656,436 1928.4375,436 Q1928.7656,436 1929,436.2656 Q1929.25,436.5156 1929.25,436.875 Q1929.25,437.2188 1928.9063,437.625 Q1928.4063,438.2188 1927.6094,438.5469 Q1926.5625,439 1925.2813,439 Q1923.7813,439 1922.5781,438.4063 Q1921.6094,437.9375 1920.9219,436.9219 Q1920.25,435.9063 1920.25,434.7031 L1920.25,433.6094 Q1920.25,432.3594 1920.8438,431.2656 Q1921.4531,430.1719 1922.5,429.5938 Q1923.5625,429 1924.75,429 Q1925.4688,429 1926.0938,429.25 Q1926.7188,429.5 1927.25,430 Z " fill="#000000"/><text fill="#000000" font-family="sans-serif" font-size="14" lengthAdjust="spacing" textLength="53" x="1945.75" y="439.2285">OrgRole</text><line style="stroke:#181818;stroke-width:0.5;" x1="1870" x2="2042" y1="449.5" y2="449.5"/><text fill="#000000" font-family="sans-serif" font-size="14" lengthAdjust="spacing" textLength="127" x="1875" y="468.0332">-designation : String</text><text fill="#000000" font-family="sans-serif" font-size="14" lengthAdjust="spacing" textLength="89" x="1875" y="485.6426">-roleId : String</text><line style="stroke:#181818;stroke-width:0.5;" x1="1870" x2="2042" y1="492.7188" y2="492.7188"/><text fill="#000000" font-family="sans-serif" font-size="14" lengthAdjust="spacing" textLength="98" x="1875" y="511.252">+getId() : String</text><text fill="#000000" font-family="sans-serif" font-size="14" lengthAdjust="spacing" textLength="162" x="1875" y="528.8613">+getDesignation() : String</text></g><!--MD5=[4543091c387f147fceabade6c180ba98]
class EmployeeMapper--><g id="elem_EmployeeMapper"><rect codeLine="48" fill="#F1F1F1" height="65.6094" id="EmployeeMapper" rx="2.5" ry="2.5" style="stroke:#181818;stroke-width:0.5;" width="351" x="1098.5" y="443.5"/><ellipse cx="1214.75" cy="459.5" fill="#ADD1B2" rx="11" ry="11" style="stroke:#181818;stroke-width:1.0;"/><path d="M1216.75,456 Q1216.9531,455.5 1217.1875,455.25 Q1217.4219,455 1217.6875,455 Q1218.1563,455 1218.4531,455.2813 Q1218.75,455.5625 1218.75,456.2188 L1218.75,457.7813 Q1218.75,458.4375 1218.4688,458.7188 Q1218.1875,459 1217.75,459 Q1217.3594,459 1217.1094,458.8281 Q1216.8594,458.6563 1216.75,458.2031 Q1216.7031,457.8906 1216.5313,457.7188 Q1216.2188,457.3906 1215.6563,457.2031 Q1215.0938,457 1214.5313,457 Q1213.8281,457 1213.2344,457.2813 Q1212.6563,457.5625 1212.2031,458.1875 Q1211.75,458.8125 1211.75,459.6719 L1211.75,460.5938 Q1211.75,461.625 1212.5938,462.3125 Q1213.4375,463 1214.9375,463 Q1215.8281,463 1216.4531,462.7969 Q1216.8125,462.6875 1217.2188,462.3281 Q1217.4844,462.125 1217.625,462.0625 Q1217.7656,462 1217.9375,462 Q1218.2656,462 1218.5,462.2656 Q1218.75,462.5156 1218.75,462.875 Q1218.75,463.2188 1218.4063,463.625 Q1217.9063,464.2188 1217.1094,464.5469 Q1216.0625,465 1214.7813,465 Q1213.2813,465 1212.0781,464.4063 Q1211.1094,463.9375 1210.4219,462.9219 Q1209.75,461.9063 1209.75,460.7031 L1209.75,459.6094 Q1209.75,458.3594 1210.3438,457.2656 Q1210.9531,456.1719 1212,455.5938 Q1213.0625,455 1214.25,455 Q1214.9688,455 1215.5938,455.25 Q1216.2188,455.5 1216.75,456 Z " fill="#000000"/><text fill="#000000" font-family="sans-serif" font-size="14" lengthAdjust="spacing" textLength="110" x="1235.25" y="465.2285">EmployeeMapper</text><line style="stroke:#181818;stroke-width:0.5;" x1="1099.5" x2="1448.5" y1="475.5" y2="475.5"/><line style="stroke:#181818;stroke-width:0.5;" x1="1099.5" x2="1448.5" y1="483.5" y2="483.5"/><text fill="#000000" font-family="sans-serif" font-size="14" lengthAdjust="spacing" textLength="339" x="1104.5" y="502.0332">+createEmployee(empDto : EmployeeDto) : Employee</text></g><!--MD5=[7421f545a0d8420c5bec41e74b387d9c]
class Employee--><g id="elem_Employee"><rect codeLine="53" fill="#F1F1F1" height="259.3125" id="Employee" rx="2.5" ry="2.5" style="stroke:#181818;stroke-width:0.5;" width="852" x="211" y="347"/><ellipse cx="601.75" cy="363" fill="#ADD1B2" rx="11" ry="11" style="stroke:#181818;stroke-width:1.0;"/><path d="M603.75,359.5 Q603.9531,359 604.1875,358.75 Q604.4219,358.5 604.6875,358.5 Q605.1563,358.5 605.4531,358.7813 Q605.75,359.0625 605.75,359.7188 L605.75,361.2813 Q605.75,361.9375 605.4688,362.2188 Q605.1875,362.5 604.75,362.5 Q604.3594,362.5 604.1094,362.3281 Q603.8594,362.1563 603.75,361.7031 Q603.7031,361.3906 603.5313,361.2188 Q603.2188,360.8906 602.6563,360.7031 Q602.0938,360.5 601.5313,360.5 Q600.8281,360.5 600.2344,360.7813 Q599.6563,361.0625 599.2031,361.6875 Q598.75,362.3125 598.75,363.1719 L598.75,364.0938 Q598.75,365.125 599.5938,365.8125 Q600.4375,366.5 601.9375,366.5 Q602.8281,366.5 603.4531,366.2969 Q603.8125,366.1875 604.2188,365.8281 Q604.4844,365.625 604.625,365.5625 Q604.7656,365.5 604.9375,365.5 Q605.2656,365.5 605.5,365.7656 Q605.75,366.0156 605.75,366.375 Q605.75,366.7188 605.4063,367.125 Q604.9063,367.7188 604.1094,368.0469 Q603.0625,368.5 601.7813,368.5 Q600.2813,368.5 599.0781,367.9063 Q598.1094,367.4375 597.4219,366.4219 Q596.75,365.4063 596.75,364.2031 L596.75,363.1094 Q596.75,361.8594 597.3438,360.7656 Q597.9531,359.6719 599,359.0938 Q600.0625,358.5 601.25,358.5 Q601.9688,358.5 602.5938,358.75 Q603.2188,359 603.75,359.5 Z " fill="#000000"/><text fill="#000000" font-family="sans-serif" font-size="14" lengthAdjust="spacing" textLength="62" x="622.25" y="368.7285">Employee</text><line style="stroke:#181818;stroke-width:0.5;" x1="212" x2="1062" y1="379" y2="379"/><text fill="#000000" font-family="sans-serif" font-size="14" lengthAdjust="spacing" textLength="126" x="217" y="397.5332">-employeeId : String</text><text fill="#000000" font-family="sans-serif" font-size="14" lengthAdjust="spacing" textLength="105" x="217" y="415.1426">-address : String</text><text fill="#000000" font-family="sans-serif" font-size="14" lengthAdjust="spacing" textLength="143" x="217" y="432.752">-phoneNumber : String</text><text fill="#000000" font-family="sans-serif" font-size="14" lengthAdjust="spacing" textLength="117" x="217" y="450.3613">-ccNumber : String</text><line style="stroke:#181818;stroke-width:0.5;" x1="212" x2="1062" y1="457.4375" y2="457.4375"/><text fill="#000000" font-family="sans-serif" font-size="14" lengthAdjust="spacing" textLength="108" x="217" y="475.9707">+getRole() : Role</text><text fill="#000000" font-family="sans-serif" font-size="14" lengthAdjust="spacing" textLength="123" x="217" y="493.5801">+getName() : String</text><text fill="#000000" font-family="sans-serif" font-size="14" lengthAdjust="spacing" textLength="98" x="217" y="511.1895">+getId() : String</text><text fill="#000000" font-family="sans-serif" font-size="14" lengthAdjust="spacing" textLength="139" x="217" y="528.7988">+getAddress() : String</text><text fill="#000000" font-family="sans-serif" font-size="14" lengthAdjust="spacing" textLength="177" x="217" y="546.4082">+getPhoneNumber() : String</text><text fill="#000000" font-family="sans-serif" font-size="14" lengthAdjust="spacing" textLength="121" x="217" y="564.0176">+getEmail() : String</text><text fill="#000000" font-family="sans-serif" font-size="14" lengthAdjust="spacing" textLength="149" x="217" y="581.627">+getCcNumber(): String</text><text fill="#000000" font-family="sans-serif" font-size="14" lengthAdjust="spacing" textLength="840" x="217" y="599.2363">+Employee(name : String, id : String, address : String, phoneNumber : String, emailAdress : Email, ccNumber : String, role : RoleDTO)</text></g><!--MD5=[55c9fff7b2ef8c8cda97062974bd2787]
class RoleDTO--><g id="elem_RoleDTO"><rect codeLine="68" fill="#F1F1F1" height="118.4375" id="RoleDTO" rx="2.5" ry="2.5" style="stroke:#181818;stroke-width:0.5;" width="174" x="2390" y="693.5"/><ellipse cx="2443.25" cy="709.5" fill="#ADD1B2" rx="11" ry="11" style="stroke:#181818;stroke-width:1.0;"/><path d="M2445.25,706 Q2445.4531,705.5 2445.6875,705.25 Q2445.9219,705 2446.1875,705 Q2446.6563,705 2446.9531,705.2813 Q2447.25,705.5625 2447.25,706.2188 L2447.25,707.7813 Q2447.25,708.4375 2446.9688,708.7188 Q2446.6875,709 2446.25,709 Q2445.8594,709 2445.6094,708.8281 Q2445.3594,708.6563 2445.25,708.2031 Q2445.2031,707.8906 2445.0313,707.7188 Q2444.7188,707.3906 2444.1563,707.2031 Q2443.5938,707 2443.0313,707 Q2442.3281,707 2441.7344,707.2813 Q2441.1563,707.5625 2440.7031,708.1875 Q2440.25,708.8125 2440.25,709.6719 L2440.25,710.5938 Q2440.25,711.625 2441.0938,712.3125 Q2441.9375,713 2443.4375,713 Q2444.3281,713 2444.9531,712.7969 Q2445.3125,712.6875 2445.7188,712.3281 Q2445.9844,712.125 2446.125,712.0625 Q2446.2656,712 2446.4375,712 Q2446.7656,712 2447,712.2656 Q2447.25,712.5156 2447.25,712.875 Q2447.25,713.2188 2446.9063,713.625 Q2446.4063,714.2188 2445.6094,714.5469 Q2444.5625,715 2443.2813,715 Q2441.7813,715 2440.5781,714.4063 Q2439.6094,713.9375 2438.9219,712.9219 Q2438.25,711.9063 2438.25,710.7031 L2438.25,709.6094 Q2438.25,708.3594 2438.8438,707.2656 Q2439.4531,706.1719 2440.5,705.5938 Q2441.5625,705 2442.75,705 Q2443.4688,705 2444.0938,705.25 Q2444.7188,705.5 2445.25,706 Z " fill="#000000"/><text fill="#000000" font-family="sans-serif" font-size="14" lengthAdjust="spacing" textLength="59" x="2463.75" y="715.2285">RoleDTO</text><line style="stroke:#181818;stroke-width:0.5;" x1="2391" x2="2563" y1="725.5" y2="725.5"/><text fill="#000000" font-family="sans-serif" font-size="14" lengthAdjust="spacing" textLength="127" x="2396" y="744.0332">-designation : String</text><text fill="#000000" font-family="sans-serif" font-size="14" lengthAdjust="spacing" textLength="89" x="2396" y="761.6426">-roleId : String</text><line style="stroke:#181818;stroke-width:0.5;" x1="2391" x2="2563" y1="768.7188" y2="768.7188"/><text fill="#000000" font-family="sans-serif" font-size="14" lengthAdjust="spacing" textLength="98" x="2396" y="787.252">+getId() : String</text><text fill="#000000" font-family="sans-serif" font-size="14" lengthAdjust="spacing" textLength="162" x="2396" y="804.8613">+getDesignation() : String</text></g><!--MD5=[829fb52c07ade3ad64ef85b99d1fca10]
class EmployeeStore--><g id="elem_EmployeeStore"><rect codeLine="75" fill="#F1F1F1" height="118.4375" id="EmployeeStore" rx="2.5" ry="2.5" style="stroke:#181818;stroke-width:0.5;" width="305" x="2078.5" y="417.5"/><ellipse cx="2178.75" cy="433.5" fill="#ADD1B2" rx="11" ry="11" style="stroke:#181818;stroke-width:1.0;"/><path d="M2180.75,430 Q2180.9531,429.5 2181.1875,429.25 Q2181.4219,429 2181.6875,429 Q2182.1563,429 2182.4531,429.2813 Q2182.75,429.5625 2182.75,430.2188 L2182.75,431.7813 Q2182.75,432.4375 2182.4688,432.7188 Q2182.1875,433 2181.75,433 Q2181.3594,433 2181.1094,432.8281 Q2180.8594,432.6563 2180.75,432.2031 Q2180.7031,431.8906 2180.5313,431.7188 Q2180.2188,431.3906 2179.6563,431.2031 Q2179.0938,431 2178.5313,431 Q2177.8281,431 2177.2344,431.2813 Q2176.6563,431.5625 2176.2031,432.1875 Q2175.75,432.8125 2175.75,433.6719 L2175.75,434.5938 Q2175.75,435.625 2176.5938,436.3125 Q2177.4375,437 2178.9375,437 Q2179.8281,437 2180.4531,436.7969 Q2180.8125,436.6875 2181.2188,436.3281 Q2181.4844,436.125 2181.625,436.0625 Q2181.7656,436 2181.9375,436 Q2182.2656,436 2182.5,436.2656 Q2182.75,436.5156 2182.75,436.875 Q2182.75,437.2188 2182.4063,437.625 Q2181.9063,438.2188 2181.1094,438.5469 Q2180.0625,439 2178.7813,439 Q2177.2813,439 2176.0781,438.4063 Q2175.1094,437.9375 2174.4219,436.9219 Q2173.75,435.9063 2173.75,434.7031 L2173.75,433.6094 Q2173.75,432.3594 2174.3438,431.2656 Q2174.9531,430.1719 2176,429.5938 Q2177.0625,429 2178.25,429 Q2178.9688,429 2179.5938,429.25 Q2180.2188,429.5 2180.75,430 Z " fill="#000000"/><text fill="#000000" font-family="sans-serif" font-size="14" lengthAdjust="spacing" textLength="96" x="2199.25" y="439.2285">EmployeeStore</text><line style="stroke:#181818;stroke-width:0.5;" x1="2079.5" x2="2382.5" y1="449.5" y2="449.5"/><text fill="#000000" font-family="sans-serif" font-size="14" lengthAdjust="spacing" textLength="196" x="2084.5" y="468.0332">-listEmployee : List&lt;Employee&gt;</text><line style="stroke:#181818;stroke-width:0.5;" x1="2079.5" x2="2382.5" y1="475.1094" y2="475.1094"/><text fill="#000000" font-family="sans-serif" font-size="14" lengthAdjust="spacing" textLength="249" x="2084.5" y="493.6426">+saveEmployee(emp : Employee) : void</text><text fill="#000000" font-family="sans-serif" font-size="14" lengthAdjust="spacing" textLength="293" x="2084.5" y="511.252">+validateEmployee(emp : Employee) : boolean</text><text fill="#000000" font-family="sans-serif" font-size="14" lengthAdjust="spacing" textLength="243" x="2084.5" y="528.8613">+addEmployee(emp : Employee) : void</text></g><!--MD5=[0af8f8019f740f778e383a70d6c8693f]
class RolesMapper--><g id="elem_RolesMapper"><rect fill="#F1F1F1" height="48" id="RolesMapper" rx="2.5" ry="2.5" style="stroke:#181818;stroke-width:0.5;" width="116" x="2419" y="452.5"/><ellipse cx="2434" cy="468.5" fill="#ADD1B2" rx="11" ry="11" style="stroke:#181818;stroke-width:1.0;"/><path d="M2436,465 Q2436.2031,464.5 2436.4375,464.25 Q2436.6719,464 2436.9375,464 Q2437.4063,464 2437.7031,464.2813 Q2438,464.5625 2438,465.2188 L2438,466.7813 Q2438,467.4375 2437.7188,467.7188 Q2437.4375,468 2437,468 Q2436.6094,468 2436.3594,467.8281 Q2436.1094,467.6563 2436,467.2031 Q2435.9531,466.8906 2435.7813,466.7188 Q2435.4688,466.3906 2434.9063,466.2031 Q2434.3438,466 2433.7813,466 Q2433.0781,466 2432.4844,466.2813 Q2431.9063,466.5625 2431.4531,467.1875 Q2431,467.8125 2431,468.6719 L2431,469.5938 Q2431,470.625 2431.8438,471.3125 Q2432.6875,472 2434.1875,472 Q2435.0781,472 2435.7031,471.7969 Q2436.0625,471.6875 2436.4688,471.3281 Q2436.7344,471.125 2436.875,471.0625 Q2437.0156,471 2437.1875,471 Q2437.5156,471 2437.75,471.2656 Q2438,471.5156 2438,471.875 Q2438,472.2188 2437.6563,472.625 Q2437.1563,473.2188 2436.3594,473.5469 Q2435.3125,474 2434.0313,474 Q2432.5313,474 2431.3281,473.4063 Q2430.3594,472.9375 2429.6719,471.9219 Q2429,470.9063 2429,469.7031 L2429,468.6094 Q2429,467.3594 2429.5938,466.2656 Q2430.2031,465.1719 2431.25,464.5938 Q2432.3125,464 2433.5,464 Q2434.2188,464 2434.8438,464.25 Q2435.4688,464.5 2436,465 Z " fill="#000000"/><text fill="#000000" font-family="sans-serif" font-size="14" lengthAdjust="spacing" textLength="84" x="2448" y="474.2285">RolesMapper</text><line style="stroke:#181818;stroke-width:0.5;" x1="2420" x2="2534" y1="484.5" y2="484.5"/><line style="stroke:#181818;stroke-width:0.5;" x1="2420" x2="2534" y1="492.5" y2="492.5"/></g><!--MD5=[1e9705534ea2f5f3045e58998aa20e5a]
reverse link User to Employee--><g id="link_User_Employee"><path d="M637,289.14 C637,307.31 637,327.13 637,346.84 " fill="none" id="User-backto-Employee" style="stroke:#181818;stroke-width:1.0;"/><polygon fill="none" points="630,289.05,637,269.05,644,289.05,630,289.05" style="stroke:#181818;stroke-width:1.0;"/></g><!--MD5=[3fd241ca11f270f6bde54c00b8a8581a]
link RegisterEmployeeUI to RegisterEmployeeController--><g id="link_RegisterEmployeeUI_RegisterEmployeeController"><path codeLine="84" d="M224.83,72.62 C240.43,79.35 258.14,85.96 275,90 C543.9,154.37 1358.99,190.55 1709.22,203.49 " fill="none" id="RegisterEmployeeUI-to-RegisterEmployeeController" style="stroke:#181818;stroke-width:1.0;stroke-dasharray:7.0,7.0;"/><polygon fill="#181818" points="1714.34,203.68,1705.4947,199.3487,1709.3434,203.4944,1705.1977,207.3432,1714.34,203.68" style="stroke:#181818;stroke-width:1.0;"/></g><!--MD5=[65164d6313e624406ece12568ba409d6]
link RegisterEmployeeUI to EmployeeDto--><g id="link_RegisterEmployeeUI_EmployeeDto"><path codeLine="85" d="M171.21,72.62 C148.95,153.22 85.61,426.69 193,606 C206.26,628.14 224.24,647.21 244.57,663.56 " fill="none" id="RegisterEmployeeUI-to-EmployeeDto" style="stroke:#181818;stroke-width:1.0;stroke-dasharray:7.0,7.0;"/><polygon fill="#181818" points="248.67,666.8,244.0826,658.0848,244.7449,663.7027,239.1269,664.365,248.67,666.8" style="stroke:#181818;stroke-width:1.0;"/></g><!--MD5=[969ee03aa52aee79b0e607297418cbd4]
link RegisterEmployeeController to Company--><g id="link_RegisterEmployeeController_Company"><path codeLine="86" d="M1880.83,260.58 C1881.83,279.23 1880.01,300.01 1871,317 C1858.11,341.31 1811.42,375.33 1763.53,405.63 " fill="none" id="RegisterEmployeeController-to-Company" style="stroke:#181818;stroke-width:1.0;stroke-dasharray:7.0,7.0;"/><polygon fill="#181818" points="1759.19,408.36,1768.9386,406.9584,1763.4236,405.6997,1764.6822,400.1847,1759.19,408.36" style="stroke:#181818;stroke-width:1.0;"/></g><!--MD5=[f01afb9b2dd81b1950450cbc6f0313e4]
link RegisterEmployeeController to RolesMapper--><g id="link_RegisterEmployeeController_RolesMapper"><path codeLine="87" d="M2029.52,219.82 C2142.61,233.19 2293.43,266.21 2401,347 C2434.99,372.53 2456.62,418.09 2467.78,447.54 " fill="none" id="RegisterEmployeeController-to-RolesMapper" style="stroke:#181818;stroke-width:1.0;stroke-dasharray:7.0,7.0;"/><polygon fill="#181818" points="2469.61,452.48,2470.2215,442.6501,2467.8669,447.7937,2462.7234,445.4391,2469.61,452.48" style="stroke:#181818;stroke-width:1.0;"/></g><!--MD5=[7c63a46d16d075ca7ac66937a2a499f7]
link RegisterEmployeeController to Employee--><g id="link_RegisterEmployeeController_Employee"><path codeLine="88" d="M1714.14,232.85 C1553.74,256.28 1298.62,296.97 1081,347 C1076.71,347.99 1072.41,348.99 1068.08,350.01 " fill="none" id="RegisterEmployeeController-to-Employee" style="stroke:#181818;stroke-width:1.0;stroke-dasharray:7.0,7.0;"/><polygon fill="#181818" points="1063,351.21,1072.6757,353.0486,1067.8678,350.068,1070.8485,345.2601,1063,351.21" style="stroke:#181818;stroke-width:1.0;"/></g><!--MD5=[2d8a53e9624ba54287d0a5c6da82a9db]
link RegisterEmployeeController to EmployeeStore--><g id="link_RegisterEmployeeController_EmployeeStore"><path codeLine="89" d="M1941.42,260.76 C1976.99,286.37 2020.93,318.19 2060,347 C2089.49,368.74 2121.64,392.81 2150.02,414.18 " fill="none" id="RegisterEmployeeController-to-EmployeeStore" style="stroke:#181818;stroke-width:1.0;stroke-dasharray:7.0,7.0;"/><polygon fill="#181818" points="2154.19,417.31,2149.4048,408.7018,2150.1952,414.3031,2144.5938,415.0935,2154.19,417.31" style="stroke:#181818;stroke-width:1.0;"/></g><!--MD5=[51db8f27aeaa46bf9b0bf523f93f4904]
link RegisterEmployeeController to EmployeeMapper--><g id="link_RegisterEmployeeController_EmployeeMapper"><path codeLine="90" d="M1864.22,260.53 C1858.35,281.27 1848.05,303.62 1830,317 C1764.98,365.21 1543.44,320.39 1467,347 C1408.49,367.36 1350.58,409.68 1313.7,440.2 " fill="none" id="RegisterEmployeeController-to-EmployeeMapper" style="stroke:#181818;stroke-width:1.0;stroke-dasharray:7.0,7.0;"/><polygon fill="#181818" points="1309.75,443.48,1319.2257,440.7947,1313.5923,440.2805,1314.1065,434.647,1309.75,443.48" style="stroke:#181818;stroke-width:1.0;"/></g><!--MD5=[ce859576cba61219b3cb4d2d23fdcd81]
link Company to EmployeeStore--><g id="link_Company_EmployeeStore"><path codeLine="91" d="M1693.04,408.17 C1720.57,377.11 1757.41,343.63 1799,327 C1826.17,316.13 1877.84,276.92 2060,347 C2098.92,361.97 2136.51,388.62 2166.48,413.87 " fill="none" id="Company-to-EmployeeStore" style="stroke:#181818;stroke-width:1.0;"/><polygon fill="#181818" points="2170.47,417.26,2166.1848,408.3923,2166.6536,414.0296,2161.0162,414.4985,2170.47,417.26" style="stroke:#181818;stroke-width:1.0;"/><text fill="#000000" font-family="sans-serif" font-size="13" lengthAdjust="spacing" textLength="28" x="1800" y="313.4951">uses</text></g><!--MD5=[f971457f3a0bc2f57a543463b6bcf0af]
link EmployeeMapper to EmployeeDto--><g id="link_EmployeeMapper_EmployeeDto"><path codeLine="92" d="M1234.83,509.62 C1197.28,538.85 1137.91,581.13 1080,606 C1021.39,631.17 957.78,652.32 894.24,670.01 " fill="none" id="EmployeeMapper-to-EmployeeDto" style="stroke:#181818;stroke-width:1.0;stroke-dasharray:7.0,7.0;"/><polygon fill="#181818" points="889.27,671.38,899.0127,672.8223,894.0872,670.0403,896.8692,665.1148,889.27,671.38" style="stroke:#181818;stroke-width:1.0;"/></g><!--MD5=[83988c8176352aece03efa54b31392fa]
link RolesMapper to RoleDTO--><g id="link_RolesMapper_RoleDTO"><path codeLine="93" d="M2477,500.86 C2477,541.88 2477,628.15 2477,687.94 " fill="none" id="RolesMapper-to-RoleDTO" style="stroke:#181818;stroke-width:1.0;stroke-dasharray:7.0,7.0;"/><polygon fill="#181818" points="2477,693.28,2481,684.28,2477,688.28,2473,684.28,2477,693.28" style="stroke:#181818;stroke-width:1.0;"/></g><!--MD5=[e2bb0114ddaa017fadb3cfd71b75cde4]
link Company to OrgRole--><g id="link_Company_OrgRole"><path codeLine="94" d="M1799.92,476.5 C1821.74,476.5 1843.54,476.5 1863.63,476.5 " fill="none" id="Company-to-OrgRole" style="stroke:#181818;stroke-width:1.0;"/><polygon fill="#181818" points="1868.7,476.5,1859.7,472.5,1863.7,476.5,1859.7,480.5,1868.7,476.5" style="stroke:#181818;stroke-width:1.0;"/><text fill="#000000" font-family="sans-serif" font-size="13" lengthAdjust="spacing" textLength="33" x="1817.75" y="469.9951">saves</text></g><!--MD5=[8e2aea1ee802277a7440d0cb8f667b60]
@startuml
skinparam classAttributeIconSize 0

class RegisterEmployeeUI {}

class RegisterEmployeeController {
  +createEmployee(empDto : EmployeeDto) : void
  +saveEmployee() : void
  +getRoles() : List<RoleDTO>
}

class Company {
  -designation : String
  -List <OrgRoles> lRoles
  +saveEmployee(emp : Employee) : void
  +createEmployee(empDto : EmployeeDto) : void
  +getRoles() : List <Roles>
}

class RoleMapper {
  -lRolesDto List<RoleDTO>
  +toDTO(lRoles : List<Role>) : List <RoleDTO>
}

class EmployeeDto {
  -name : String
  -employeeId : String
  -address : String
  -phoneNumber : String
  -emailAddress : String
  -ccNumber : String
  +EmployeeDTO(name : String, id : String, address : String, phoneNumber : String, emailAdress : Email, ccNumber : String, role : RoleDTO)
}

class User {
  -name : String
  -emailAddress : Email
  -password : Password
  +getId() : Email
}

class OrgRole{
  -designation : String
  -roleId : String
  +getId() : String
  +getDesignation() : String
}

class EmployeeMapper {
  +createEmployee(empDto : EmployeeDto) : Employee

}

class Employee extends User {
  -employeeId : String
  -address : String
  -phoneNumber : String
  -ccNumber : String
  +getRole() : Role
  +getName() : String
  +getId() : String
  +getAddress() : String
  +getPhoneNumber() : String
  +getEmail() : String
  +getCcNumber(): String
  +Employee(name : String, id : String, address : String, phoneNumber : String, emailAdress : Email, ccNumber : String, role : RoleDTO)
}

class RoleDTO{
  -designation : String
  -roleId : String
  +getId() : String
  +getDesignation() : String
}

class EmployeeStore {
  -listEmployee : List<Employee>
  +saveEmployee(emp : Employee) : void
  +validateEmployee(emp : Employee) : boolean
  +addEmployee(emp : Employee) : void
}



RegisterEmployeeUI ..> RegisterEmployeeController
RegisterEmployeeUI ..> EmployeeDto
RegisterEmployeeController ..> Company
RegisterEmployeeController ..> RolesMapper
RegisterEmployeeController ..> Employee
RegisterEmployeeController ..> EmployeeStore
RegisterEmployeeController ..> EmployeeMapper
Company -> EmployeeStore : uses
EmployeeMapper ..> EmployeeDto
RolesMapper ..> RoleDTO
Company -> OrgRole : saves



@enduml

PlantUML version 1.2022.4(Sat Apr 09 14:29:17 BST 2022)
(GPL source distribution)
Java Runtime: OpenJDK Runtime Environment
JVM: OpenJDK 64-Bit Server VM
Default Encoding: Cp1252
Language: en
Country: US
--></g></svg>