<?xml version="1.0" encoding="UTF-8" standalone="no"?><svg xmlns="http://www.w3.org/2000/svg" xmlns:xlink="http://www.w3.org/1999/xlink" contentStyleType="text/css" height="355px" preserveAspectRatio="none" style="width:624px;height:355px;background:#FFFFFF;" version="1.1" viewBox="0 0 624 355" width="624px" zoomAndPan="magnify"><defs/><g><!--MD5=[02e4b9b7573f1156f41e60aa5b4e25a4]
class Company--><g id="elem_Company"><rect codeLine="5" fill="#F1F1F1" height="40" id="Company" rx="2.5" ry="2.5" style="stroke:#181818;stroke-width:0.5;" width="92" x="7" y="187"/><ellipse cx="22" cy="203" fill="#ADD1B2" rx="11" ry="11" style="stroke:#181818;stroke-width:1.0;"/><path d="M24,199.5 Q24.2031,199 24.4375,198.75 Q24.6719,198.5 24.9375,198.5 Q25.4063,198.5 25.7031,198.7813 Q26,199.0625 26,199.7188 L26,201.2813 Q26,201.9375 25.7188,202.2188 Q25.4375,202.5 25,202.5 Q24.6094,202.5 24.3594,202.3281 Q24.1094,202.1563 24,201.7031 Q23.9531,201.3906 23.7813,201.2188 Q23.4688,200.8906 22.9063,200.7031 Q22.3438,200.5 21.7813,200.5 Q21.0781,200.5 20.4844,200.7813 Q19.9063,201.0625 19.4531,201.6875 Q19,202.3125 19,203.1719 L19,204.0938 Q19,205.125 19.8438,205.8125 Q20.6875,206.5 22.1875,206.5 Q23.0781,206.5 23.7031,206.2969 Q24.0625,206.1875 24.4688,205.8281 Q24.7344,205.625 24.875,205.5625 Q25.0156,205.5 25.1875,205.5 Q25.5156,205.5 25.75,205.7656 Q26,206.0156 26,206.375 Q26,206.7188 25.6563,207.125 Q25.1563,207.7188 24.3594,208.0469 Q23.3125,208.5 22.0313,208.5 Q20.5313,208.5 19.3281,207.9063 Q18.3594,207.4375 17.6719,206.4219 Q17,205.4063 17,204.2031 L17,203.1094 Q17,201.8594 17.5938,200.7656 Q18.2031,199.6719 19.25,199.0938 Q20.3125,198.5 21.5,198.5 Q22.2188,198.5 22.8438,198.75 Q23.4688,199 24,199.5 Z " fill="#000000"/><text fill="#000000" font-family="sans-serif" font-size="14" lengthAdjust="spacing" textLength="60" x="36" y="208.7285">Company</text><line style="stroke:#181818;stroke-width:0.5;" x1="8" x2="98" y1="219" y2="219"/></g><!--MD5=[de60e6d4f424ae4d0522096f76a59010]
class VaccinationCenter--><g id="elem_VaccinationCenter"><rect codeLine="7" fill="#F1F1F1" height="40" id="VaccinationCenter" rx="2.5" ry="2.5" style="stroke:#181818;stroke-width:0.5;" width="148" x="214" y="57"/><ellipse cx="229" cy="73" fill="#ADD1B2" rx="11" ry="11" style="stroke:#181818;stroke-width:1.0;"/><path d="M231,69.5 Q231.2031,69 231.4375,68.75 Q231.6719,68.5 231.9375,68.5 Q232.4063,68.5 232.7031,68.7813 Q233,69.0625 233,69.7188 L233,71.2813 Q233,71.9375 232.7188,72.2188 Q232.4375,72.5 232,72.5 Q231.6094,72.5 231.3594,72.3281 Q231.1094,72.1563 231,71.7031 Q230.9531,71.3906 230.7813,71.2188 Q230.4688,70.8906 229.9063,70.7031 Q229.3438,70.5 228.7813,70.5 Q228.0781,70.5 227.4844,70.7813 Q226.9063,71.0625 226.4531,71.6875 Q226,72.3125 226,73.1719 L226,74.0938 Q226,75.125 226.8438,75.8125 Q227.6875,76.5 229.1875,76.5 Q230.0781,76.5 230.7031,76.2969 Q231.0625,76.1875 231.4688,75.8281 Q231.7344,75.625 231.875,75.5625 Q232.0156,75.5 232.1875,75.5 Q232.5156,75.5 232.75,75.7656 Q233,76.0156 233,76.375 Q233,76.7188 232.6563,77.125 Q232.1563,77.7188 231.3594,78.0469 Q230.3125,78.5 229.0313,78.5 Q227.5313,78.5 226.3281,77.9063 Q225.3594,77.4375 224.6719,76.4219 Q224,75.4063 224,74.2031 L224,73.1094 Q224,71.8594 224.5938,70.7656 Q225.2031,69.6719 226.25,69.0938 Q227.3125,68.5 228.5,68.5 Q229.2188,68.5 229.8438,68.75 Q230.4688,69 231,69.5 Z " fill="#000000"/><text fill="#000000" font-family="sans-serif" font-size="14" lengthAdjust="spacing" textLength="116" x="243" y="78.7285">VaccinationCenter</text><line style="stroke:#181818;stroke-width:0.5;" x1="215" x2="361" y1="89" y2="89"/></g><!--MD5=[c508b5b6bbe276ff5e2700b6641f837f]
class Appointment--><g id="elem_Appointment"><rect codeLine="9" fill="#F1F1F1" height="57.6094" id="Appointment" rx="2.5" ry="2.5" style="stroke:#181818;stroke-width:0.5;" width="113" x="474.5" y="7"/><ellipse cx="490.4" cy="23" fill="#ADD1B2" rx="11" ry="11" style="stroke:#181818;stroke-width:1.0;"/><path d="M492.4,19.5 Q492.6031,19 492.8375,18.75 Q493.0719,18.5 493.3375,18.5 Q493.8063,18.5 494.1031,18.7813 Q494.4,19.0625 494.4,19.7188 L494.4,21.2813 Q494.4,21.9375 494.1188,22.2188 Q493.8375,22.5 493.4,22.5 Q493.0094,22.5 492.7594,22.3281 Q492.5094,22.1563 492.4,21.7031 Q492.3531,21.3906 492.1813,21.2188 Q491.8688,20.8906 491.3063,20.7031 Q490.7438,20.5 490.1813,20.5 Q489.4781,20.5 488.8844,20.7813 Q488.3063,21.0625 487.8531,21.6875 Q487.4,22.3125 487.4,23.1719 L487.4,24.0938 Q487.4,25.125 488.2438,25.8125 Q489.0875,26.5 490.5875,26.5 Q491.4781,26.5 492.1031,26.2969 Q492.4625,26.1875 492.8688,25.8281 Q493.1344,25.625 493.275,25.5625 Q493.4156,25.5 493.5875,25.5 Q493.9156,25.5 494.15,25.7656 Q494.4,26.0156 494.4,26.375 Q494.4,26.7188 494.0563,27.125 Q493.5563,27.7188 492.7594,28.0469 Q491.7125,28.5 490.4313,28.5 Q488.9313,28.5 487.7281,27.9063 Q486.7594,27.4375 486.0719,26.4219 Q485.4,25.4063 485.4,24.2031 L485.4,23.1094 Q485.4,21.8594 485.9938,20.7656 Q486.6031,19.6719 487.65,19.0938 Q488.7125,18.5 489.9,18.5 Q490.6188,18.5 491.2438,18.75 Q491.8688,19 492.4,19.5 Z " fill="#000000"/><text fill="#000000" font-family="sans-serif" font-size="14" lengthAdjust="spacing" textLength="79" x="504.6" y="28.7285">Appointment</text><line style="stroke:#181818;stroke-width:0.5;" x1="475.5" x2="586.5" y1="39" y2="39"/><text fill="#000000" font-family="sans-serif" font-size="14" lengthAdjust="spacing" textLength="101" x="480.5" y="57.5332">-listAppointment</text></g><!--MD5=[2d935fd2dd068a13da1ae531f9857c4f]
class CenterCoordinator--><g id="elem_CenterCoordinator"><rect codeLine="12" fill="#F1F1F1" height="40" id="CenterCoordinator" rx="2.5" ry="2.5" style="stroke:#181818;stroke-width:0.5;" width="150" x="456" y="116"/><ellipse cx="471" cy="132" fill="#ADD1B2" rx="11" ry="11" style="stroke:#181818;stroke-width:1.0;"/><path d="M473,128.5 Q473.2031,128 473.4375,127.75 Q473.6719,127.5 473.9375,127.5 Q474.4063,127.5 474.7031,127.7813 Q475,128.0625 475,128.7188 L475,130.2813 Q475,130.9375 474.7188,131.2188 Q474.4375,131.5 474,131.5 Q473.6094,131.5 473.3594,131.3281 Q473.1094,131.1563 473,130.7031 Q472.9531,130.3906 472.7813,130.2188 Q472.4688,129.8906 471.9063,129.7031 Q471.3438,129.5 470.7813,129.5 Q470.0781,129.5 469.4844,129.7813 Q468.9063,130.0625 468.4531,130.6875 Q468,131.3125 468,132.1719 L468,133.0938 Q468,134.125 468.8438,134.8125 Q469.6875,135.5 471.1875,135.5 Q472.0781,135.5 472.7031,135.2969 Q473.0625,135.1875 473.4688,134.8281 Q473.7344,134.625 473.875,134.5625 Q474.0156,134.5 474.1875,134.5 Q474.5156,134.5 474.75,134.7656 Q475,135.0156 475,135.375 Q475,135.7188 474.6563,136.125 Q474.1563,136.7188 473.3594,137.0469 Q472.3125,137.5 471.0313,137.5 Q469.5313,137.5 468.3281,136.9063 Q467.3594,136.4375 466.6719,135.4219 Q466,134.4063 466,133.2031 L466,132.1094 Q466,130.8594 466.5938,129.7656 Q467.2031,128.6719 468.25,128.0938 Q469.3125,127.5 470.5,127.5 Q471.2188,127.5 471.8438,127.75 Q472.4688,128 473,128.5 Z " fill="#000000"/><text fill="#000000" font-family="sans-serif" font-size="14" lengthAdjust="spacing" textLength="118" x="485" y="137.7285">CenterCoordinator</text><line style="stroke:#181818;stroke-width:0.5;" x1="457" x2="605" y1="148" y2="148"/></g><!--MD5=[7421f545a0d8420c5bec41e74b387d9c]
class Employee--><g id="elem_Employee"><rect codeLine="22" fill="#F1F1F1" height="40" id="Employee" rx="2.5" ry="2.5" style="stroke:#181818;stroke-width:0.5;" width="94" x="241" y="132"/><ellipse cx="256" cy="148" fill="#ADD1B2" rx="11" ry="11" style="stroke:#181818;stroke-width:1.0;"/><path d="M258,144.5 Q258.2031,144 258.4375,143.75 Q258.6719,143.5 258.9375,143.5 Q259.4063,143.5 259.7031,143.7813 Q260,144.0625 260,144.7188 L260,146.2813 Q260,146.9375 259.7188,147.2188 Q259.4375,147.5 259,147.5 Q258.6094,147.5 258.3594,147.3281 Q258.1094,147.1563 258,146.7031 Q257.9531,146.3906 257.7813,146.2188 Q257.4688,145.8906 256.9063,145.7031 Q256.3438,145.5 255.7813,145.5 Q255.0781,145.5 254.4844,145.7813 Q253.9063,146.0625 253.4531,146.6875 Q253,147.3125 253,148.1719 L253,149.0938 Q253,150.125 253.8438,150.8125 Q254.6875,151.5 256.1875,151.5 Q257.0781,151.5 257.7031,151.2969 Q258.0625,151.1875 258.4688,150.8281 Q258.7344,150.625 258.875,150.5625 Q259.0156,150.5 259.1875,150.5 Q259.5156,150.5 259.75,150.7656 Q260,151.0156 260,151.375 Q260,151.7188 259.6563,152.125 Q259.1563,152.7188 258.3594,153.0469 Q257.3125,153.5 256.0313,153.5 Q254.5313,153.5 253.3281,152.9063 Q252.3594,152.4375 251.6719,151.4219 Q251,150.4063 251,149.2031 L251,148.1094 Q251,146.8594 251.5938,145.7656 Q252.2031,144.6719 253.25,144.0938 Q254.3125,143.5 255.5,143.5 Q256.2188,143.5 256.8438,143.75 Q257.4688,144 258,144.5 Z " fill="#000000"/><text fill="#000000" font-family="sans-serif" font-size="14" lengthAdjust="spacing" textLength="62" x="270" y="153.7285">Employee</text><line style="stroke:#181818;stroke-width:0.5;" x1="242" x2="334" y1="164" y2="164"/></g><!--MD5=[72be06cc7ae02ccc98efe28a50e62246]
class SNSUser--><g id="elem_SNSUser"><rect codeLine="14" fill="#F1F1F1" height="57.6094" id="SNSUser" rx="2.5" ry="2.5" style="stroke:#181818;stroke-width:0.5;" width="88" x="244" y="207"/><ellipse cx="259" cy="223" fill="#ADD1B2" rx="11" ry="11" style="stroke:#181818;stroke-width:1.0;"/><path d="M261,219.5 Q261.2031,219 261.4375,218.75 Q261.6719,218.5 261.9375,218.5 Q262.4063,218.5 262.7031,218.7813 Q263,219.0625 263,219.7188 L263,221.2813 Q263,221.9375 262.7188,222.2188 Q262.4375,222.5 262,222.5 Q261.6094,222.5 261.3594,222.3281 Q261.1094,222.1563 261,221.7031 Q260.9531,221.3906 260.7813,221.2188 Q260.4688,220.8906 259.9063,220.7031 Q259.3438,220.5 258.7813,220.5 Q258.0781,220.5 257.4844,220.7813 Q256.9063,221.0625 256.4531,221.6875 Q256,222.3125 256,223.1719 L256,224.0938 Q256,225.125 256.8438,225.8125 Q257.6875,226.5 259.1875,226.5 Q260.0781,226.5 260.7031,226.2969 Q261.0625,226.1875 261.4688,225.8281 Q261.7344,225.625 261.875,225.5625 Q262.0156,225.5 262.1875,225.5 Q262.5156,225.5 262.75,225.7656 Q263,226.0156 263,226.375 Q263,226.7188 262.6563,227.125 Q262.1563,227.7188 261.3594,228.0469 Q260.3125,228.5 259.0313,228.5 Q257.5313,228.5 256.3281,227.9063 Q255.3594,227.4375 254.6719,226.4219 Q254,225.4063 254,224.2031 L254,223.1094 Q254,221.8594 254.5938,220.7656 Q255.2031,219.6719 256.25,219.0938 Q257.3125,218.5 258.5,218.5 Q259.2188,218.5 259.8438,218.75 Q260.4688,219 261,219.5 Z " fill="#000000"/><text fill="#000000" font-family="sans-serif" font-size="14" lengthAdjust="spacing" textLength="56" x="273" y="228.7285">SNSUser</text><line style="stroke:#181818;stroke-width:0.5;" x1="245" x2="331" y1="239" y2="239"/><text fill="#000000" font-family="sans-serif" font-size="14" lengthAdjust="spacing" textLength="61" x="250" y="257.5332">-birthdate</text></g><!--MD5=[a2530d24bafc45bb45314d96545aa194]
class AdministrationProcess--><g id="elem_AdministrationProcess"><rect codeLine="17" fill="#F1F1F1" height="57.6094" id="AdministrationProcess" rx="2.5" ry="2.5" style="stroke:#181818;stroke-width:0.5;" width="172" x="445" y="291"/><ellipse cx="460" cy="307" fill="#ADD1B2" rx="11" ry="11" style="stroke:#181818;stroke-width:1.0;"/><path d="M462,303.5 Q462.2031,303 462.4375,302.75 Q462.6719,302.5 462.9375,302.5 Q463.4063,302.5 463.7031,302.7813 Q464,303.0625 464,303.7188 L464,305.2813 Q464,305.9375 463.7188,306.2188 Q463.4375,306.5 463,306.5 Q462.6094,306.5 462.3594,306.3281 Q462.1094,306.1563 462,305.7031 Q461.9531,305.3906 461.7813,305.2188 Q461.4688,304.8906 460.9063,304.7031 Q460.3438,304.5 459.7813,304.5 Q459.0781,304.5 458.4844,304.7813 Q457.9063,305.0625 457.4531,305.6875 Q457,306.3125 457,307.1719 L457,308.0938 Q457,309.125 457.8438,309.8125 Q458.6875,310.5 460.1875,310.5 Q461.0781,310.5 461.7031,310.2969 Q462.0625,310.1875 462.4688,309.8281 Q462.7344,309.625 462.875,309.5625 Q463.0156,309.5 463.1875,309.5 Q463.5156,309.5 463.75,309.7656 Q464,310.0156 464,310.375 Q464,310.7188 463.6563,311.125 Q463.1563,311.7188 462.3594,312.0469 Q461.3125,312.5 460.0313,312.5 Q458.5313,312.5 457.3281,311.9063 Q456.3594,311.4375 455.6719,310.4219 Q455,309.4063 455,308.2031 L455,307.1094 Q455,305.8594 455.5938,304.7656 Q456.2031,303.6719 457.25,303.0938 Q458.3125,302.5 459.5,302.5 Q460.2188,302.5 460.8438,302.75 Q461.4688,303 462,303.5 Z " fill="#000000"/><text fill="#000000" font-family="sans-serif" font-size="14" lengthAdjust="spacing" textLength="140" x="474" y="312.7285">AdministrationProcess</text><line style="stroke:#181818;stroke-width:0.5;" x1="446" x2="616" y1="323" y2="323"/><text fill="#000000" font-family="sans-serif" font-size="14" lengthAdjust="spacing" textLength="108" x="451" y="341.5332">-numberOfDoses</text></g><!--MD5=[19e445fc4d3b48519cbe33da05496394]
class Vaccine--><g id="elem_Vaccine"><rect codeLine="20" fill="#F1F1F1" height="40" id="Vaccine" rx="2.5" ry="2.5" style="stroke:#181818;stroke-width:0.5;" width="82" x="247" y="300"/><ellipse cx="262" cy="316" fill="#ADD1B2" rx="11" ry="11" style="stroke:#181818;stroke-width:1.0;"/><path d="M264,312.5 Q264.2031,312 264.4375,311.75 Q264.6719,311.5 264.9375,311.5 Q265.4063,311.5 265.7031,311.7813 Q266,312.0625 266,312.7188 L266,314.2813 Q266,314.9375 265.7188,315.2188 Q265.4375,315.5 265,315.5 Q264.6094,315.5 264.3594,315.3281 Q264.1094,315.1563 264,314.7031 Q263.9531,314.3906 263.7813,314.2188 Q263.4688,313.8906 262.9063,313.7031 Q262.3438,313.5 261.7813,313.5 Q261.0781,313.5 260.4844,313.7813 Q259.9063,314.0625 259.4531,314.6875 Q259,315.3125 259,316.1719 L259,317.0938 Q259,318.125 259.8438,318.8125 Q260.6875,319.5 262.1875,319.5 Q263.0781,319.5 263.7031,319.2969 Q264.0625,319.1875 264.4688,318.8281 Q264.7344,318.625 264.875,318.5625 Q265.0156,318.5 265.1875,318.5 Q265.5156,318.5 265.75,318.7656 Q266,319.0156 266,319.375 Q266,319.7188 265.6563,320.125 Q265.1563,320.7188 264.3594,321.0469 Q263.3125,321.5 262.0313,321.5 Q260.5313,321.5 259.3281,320.9063 Q258.3594,320.4375 257.6719,319.4219 Q257,318.4063 257,317.2031 L257,316.1094 Q257,314.8594 257.5938,313.7656 Q258.2031,312.6719 259.25,312.0938 Q260.3125,311.5 261.5,311.5 Q262.2188,311.5 262.8438,311.75 Q263.4688,312 264,312.5 Z " fill="#000000"/><text fill="#000000" font-family="sans-serif" font-size="14" lengthAdjust="spacing" textLength="50" x="276" y="321.7285">Vaccine</text><line style="stroke:#181818;stroke-width:0.5;" x1="248" x2="328" y1="332" y2="332"/></g><!--MD5=[98f7f3dc8d9719d04ad14614c4ea123f]
reverse link Employee to CenterCoordinator--><g id="link_Employee_CenterCoordinator"><path d="M355.56,147.58 C386.57,145.52 423.59,143.06 455.54,140.94 " fill="none" id="Employee-backto-CenterCoordinator" style="stroke:#181818;stroke-width:1.0;"/><polygon fill="none" points="355.6,154.59,335.18,148.93,354.67,140.62,355.6,154.59" style="stroke:#181818;stroke-width:1.0;"/></g><!--MD5=[c29c8d42883934cbaf5793c72a334947]
link Company to Vaccine--><g id="link_Company_Vaccine"><path codeLine="24" d="M80.52,227.17 C94.47,237.23 112.15,249.11 129,258 C165.61,277.32 209.62,294.11 241.88,305.32 " fill="none" id="Company-to-Vaccine" style="stroke:#181818;stroke-width:1.0;"/><polygon fill="#181818" points="246.96,307.07,239.7531,300.3573,242.2325,305.4418,237.148,307.9212,246.96,307.07" style="stroke:#181818;stroke-width:1.0;"/><text fill="#000000" font-family="sans-serif" font-size="13" lengthAdjust="spacing" textLength="41" x="136" y="254.4951">applies</text><text fill="#000000" font-family="sans-serif" font-size="13" lengthAdjust="spacing" textLength="7" x="80.2756" y="248.6374">1</text><text fill="#000000" font-family="sans-serif" font-size="13" lengthAdjust="spacing" textLength="5" x="233.9323" y="319.6886">*</text></g><!--MD5=[a98252b7739f22b1ddec3651c1c3aaea]
link Vaccine to AdministrationProcess--><g id="link_Vaccine_AdministrationProcess"><path codeLine="25" d="M329.07,320 C359.17,320 401.6,320 439.71,320 " fill="none" id="Vaccine-to-AdministrationProcess" style="stroke:#181818;stroke-width:1.0;"/><polygon fill="#181818" points="444.82,320,435.82,316,439.82,320,435.82,324,444.82,320" style="stroke:#181818;stroke-width:1.0;"/><text fill="#000000" font-family="sans-serif" font-size="13" lengthAdjust="spacing" textLength="21" x="393" y="316.4951">has</text><text fill="#000000" font-family="sans-serif" font-size="13" lengthAdjust="spacing" textLength="7" x="337.009" y="334.9514">1</text><text fill="#000000" font-family="sans-serif" font-size="13" lengthAdjust="spacing" textLength="20" x="416.8551" y="334.1883">1..*</text></g><!--MD5=[eebe9b198877275d05dd12630ed9e401]
link Company to VaccinationCenter--><g id="link_Company_VaccinationCenter"><path codeLine="26" d="M78.86,186.92 C93.09,175.91 111.53,162.42 129,152 C162.66,131.92 202.55,113.01 233.83,99.21 " fill="none" id="Company-to-VaccinationCenter" style="stroke:#181818;stroke-width:1.0;"/><polygon fill="#181818" points="238.77,97.04,228.9212,97.0085,234.1945,99.0561,232.1469,104.3294,238.77,97.04" style="stroke:#181818;stroke-width:1.0;"/><text fill="#000000" font-family="sans-serif" font-size="13" lengthAdjust="spacing" textLength="53" x="130" y="121.4951">manages</text><text fill="#000000" font-family="sans-serif" font-size="13" lengthAdjust="spacing" textLength="7" x="78.4283" y="176.2183">1</text><text fill="#000000" font-family="sans-serif" font-size="13" lengthAdjust="spacing" textLength="5" x="219.2209" y="118.4708">*</text></g><!--MD5=[8d58cf1c2119791001cf5144e9295faa]
link VaccinationCenter to CenterCoordinator--><g id="link_VaccinationCenter_CenterCoordinator"><path codeLine="27" d="M362.29,94.94 C390.3,101.8 422.36,109.65 450.9,116.63 " fill="none" id="VaccinationCenter-to-CenterCoordinator" style="stroke:#181818;stroke-width:1.0;"/><polygon fill="#181818" points="455.81,117.84,448.0154,111.8197,450.9526,116.6542,446.1181,119.5915,455.81,117.84" style="stroke:#181818;stroke-width:1.0;"/><text fill="#000000" font-family="sans-serif" font-size="13" lengthAdjust="spacing" textLength="21" x="393" y="99.4951">has</text><text fill="#000000" font-family="sans-serif" font-size="13" lengthAdjust="spacing" textLength="7" x="369.9475" y="111.0059">1</text><text fill="#000000" font-family="sans-serif" font-size="13" lengthAdjust="spacing" textLength="20" x="427.9565" y="130.4147">1..*</text></g><!--MD5=[09366576ee87d48d594df10cacc83f45]
link Company to Employee--><g id="link_Company_Employee"><path codeLine="28" d="M99.2,196.33 C138.37,187.08 195.01,173.71 235.83,164.08 " fill="none" id="Company-to-Employee" style="stroke:#181818;stroke-width:1.0;"/><polygon fill="#181818" points="240.73,162.92,231.048,161.1146,235.8661,164.0787,232.902,168.8968,240.73,162.92" style="stroke:#181818;stroke-width:1.0;"/><text fill="#000000" font-family="sans-serif" font-size="13" lengthAdjust="spacing" textLength="42" x="135.5" y="174.4951">employ</text><text fill="#000000" font-family="sans-serif" font-size="13" lengthAdjust="spacing" textLength="7" x="107.1209" y="209.4276">1</text><text fill="#000000" font-family="sans-serif" font-size="13" lengthAdjust="spacing" textLength="5" x="228.109" y="179.3392">*</text></g><!--MD5=[1a8aa2b864b87f860d28abceaa28b7a5]
link Company to SNSUser--><g id="link_Company_SNSUser"><path codeLine="29" d="M99.33,219.92 C109.05,222.28 119.31,224.48 129,226 C165.45,231.72 207.12,234.19 238.51,235.25 " fill="none" id="Company-to-SNSUser" style="stroke:#181818;stroke-width:1.0;"/><polygon fill="#181818" points="243.85,235.42,234.9923,231.114,238.8529,235.2487,234.7182,239.1093,243.85,235.42" style="stroke:#181818;stroke-width:1.0;"/><text fill="#000000" font-family="sans-serif" font-size="13" lengthAdjust="spacing" textLength="37" x="138" y="222.4951">knows</text><text fill="#000000" font-family="sans-serif" font-size="13" lengthAdjust="spacing" textLength="7" x="106.9602" y="236.6454">1</text><text fill="#000000" font-family="sans-serif" font-size="13" lengthAdjust="spacing" textLength="5" x="231.1236" y="250.2055">*</text></g><!--MD5=[f17e71def2e220f6a6398972244b7dbb]
link VaccinationCenter to Appointment--><g id="link_VaccinationCenter_Appointment"><path codeLine="30" d="M362.29,64.53 C396.47,58.72 436.66,51.88 469.13,46.35 " fill="none" id="VaccinationCenter-to-Appointment" style="stroke:#181818;stroke-width:1.0;"/><polygon fill="#181818" points="474.28,45.48,464.7345,43.0543,469.3515,46.3228,466.0831,50.9399,474.28,45.48" style="stroke:#181818;stroke-width:1.0;"/><text fill="#000000" font-family="sans-serif" font-size="13" lengthAdjust="spacing" textLength="21" x="393" y="53.4951">has</text><text fill="#000000" font-family="sans-serif" font-size="13" lengthAdjust="spacing" textLength="7" x="369.9475" y="77.6024">1</text><text fill="#000000" font-family="sans-serif" font-size="13" lengthAdjust="spacing" textLength="5" x="461.3223" y="61.3739">*</text></g><!--MD5=[e999ffb917618977f0d27c6ea249b9cf]
@startuml
hide methods
left to right direction
skinparam classAttributeIconSize 0

class Company {
}
class VaccinationCenter {
}
class Appointment{
-listAppointment
}
class CenterCoordinator extends Employee{
}
class SNSUser{
-birthdate
}
class AdministrationProcess{
-numberOfDoses
}
class Vaccine{
}
class Employee{}

Company"1" - -> "*"Vaccine: applies
Vaccine"1" - -> "1..*" AdministrationProcess: has
Company"1"- -> "*"VaccinationCenter: manages
VaccinationCenter"1" - -> "1..*" CenterCoordinator: has
Company"1" - -> "*"Employee: employ
Company"1" - -> "*" SNSUser: knows
VaccinationCenter"1" - -> "*"Appointment: has

@enduml

PlantUML version 1.2022.5(Sat Apr 30 11:55:52 BST 2022)
(GPL source distribution)
Java Runtime: OpenJDK Runtime Environment
JVM: OpenJDK 64-Bit Server VM
Default Encoding: Cp1252
Language: pt
Country: PT
--></g></svg>