<?xml version="1.0" encoding="UTF-8" standalone="no"?><svg xmlns="http://www.w3.org/2000/svg" xmlns:xlink="http://www.w3.org/1999/xlink" contentStyleType="text/css" height="521px" preserveAspectRatio="none" style="width:926px;height:521px;background:#FFFFFF;" version="1.1" viewBox="0 0 926 521" width="926px" zoomAndPan="magnify"><defs/><g><rect fill="#FFFFFF" height="362.1094" style="stroke:#181818;stroke-width:1.0;" width="10" x="177" y="87.5703"/><rect fill="#FFFFFF" height="30" style="stroke:#181818;stroke-width:1.0;" width="10" x="364.5" y="117.9219"/><rect fill="#FFFFFF" height="30" style="stroke:#181818;stroke-width:1.0;" width="10" x="428" y="178.2734"/><rect fill="#FFFFFF" height="30" style="stroke:#181818;stroke-width:1.0;" width="10" x="509" y="238.625"/><rect fill="#FFFFFF" height="30" style="stroke:#181818;stroke-width:1.0;" width="10" x="606.5" y="298.9766"/><rect fill="#FFFFFF" height="30" style="stroke:#181818;stroke-width:1.0;" width="10" x="712.5" y="359.3281"/><rect fill="#FFFFFF" height="30" style="stroke:#181818;stroke-width:1.0;" width="10" x="847.5" y="419.6797"/><line style="stroke:#181818;stroke-width:0.5;stroke-dasharray:5.0,5.0;" x1="182" x2="182" y1="55.2188" y2="467.6797"/><line style="stroke:#181818;stroke-width:0.5;stroke-dasharray:5.0,5.0;" x1="369" x2="369" y1="55.2188" y2="467.6797"/><line style="stroke:#181818;stroke-width:0.5;stroke-dasharray:5.0,5.0;" x1="432.5" x2="432.5" y1="55.2188" y2="467.6797"/><line style="stroke:#181818;stroke-width:0.5;stroke-dasharray:5.0,5.0;" x1="513.5" x2="513.5" y1="55.2188" y2="467.6797"/><line style="stroke:#181818;stroke-width:0.5;stroke-dasharray:5.0,5.0;" x1="611.5" x2="611.5" y1="55.2188" y2="467.6797"/><line style="stroke:#181818;stroke-width:0.5;stroke-dasharray:5.0,5.0;" x1="717.5" x2="717.5" y1="55.2188" y2="467.6797"/><line style="stroke:#181818;stroke-width:0.5;stroke-dasharray:5.0,5.0;" x1="852.5" x2="852.5" y1="55.2188" y2="467.6797"/><rect fill="#E2E2F0" height="31.6094" rx="2.5" ry="2.5" style="stroke:#181818;stroke-width:0.5;" width="314" x="25" y="22.6094"/><text fill="#000000" font-family="sans-serif" font-size="14" lengthAdjust="spacing" textLength="300" x="32" y="44.1426">:CheckAndExportVaccinationStatisticsController</text><rect fill="#E2E2F0" height="31.6094" rx="2.5" ry="2.5" style="stroke:#181818;stroke-width:0.5;" width="314" x="25" y="466.6797"/><text fill="#000000" font-family="sans-serif" font-size="14" lengthAdjust="spacing" textLength="300" x="32" y="488.2129">:CheckAndExportVaccinationStatisticsController</text><rect fill="#E2E2F0" height="31.6094" rx="2.5" ry="2.5" style="stroke:#181818;stroke-width:0.5;" width="41" x="349" y="22.6094"/><text fill="#000000" font-family="sans-serif" font-size="14" lengthAdjust="spacing" textLength="27" x="356" y="44.1426">APP</text><rect fill="#E2E2F0" height="31.6094" rx="2.5" ry="2.5" style="stroke:#181818;stroke-width:0.5;" width="41" x="349" y="466.6797"/><text fill="#000000" font-family="sans-serif" font-size="14" lengthAdjust="spacing" textLength="27" x="356" y="488.2129">APP</text><rect fill="#E2E2F0" height="49.2188" rx="2.5" ry="2.5" style="stroke:#181818;stroke-width:0.5;" width="45" x="410.5" y="5"/><text fill="#000000" font-family="sans-serif" font-size="14" lengthAdjust="spacing" textLength="24" x="421" y="26.5332">app</text><text fill="#000000" font-family="sans-serif" font-size="14" lengthAdjust="spacing" textLength="31" x="417.5" y="44.1426">:APP</text><rect fill="#E2E2F0" height="49.2188" rx="2.5" ry="2.5" style="stroke:#181818;stroke-width:0.5;" width="45" x="410.5" y="466.6797"/><text fill="#000000" font-family="sans-serif" font-size="14" lengthAdjust="spacing" textLength="24" x="421" y="488.2129">app</text><text fill="#000000" font-family="sans-serif" font-size="14" lengthAdjust="spacing" textLength="31" x="417.5" y="505.8223">:APP</text><rect fill="#E2E2F0" height="31.6094" rx="2.5" ry="2.5" style="stroke:#181818;stroke-width:0.5;" width="97" x="465.5" y="22.6094"/><text fill="#000000" font-family="sans-serif" font-size="14" lengthAdjust="spacing" textLength="83" x="472.5" y="44.1426">:UserSession</text><rect fill="#E2E2F0" height="31.6094" rx="2.5" ry="2.5" style="stroke:#181818;stroke-width:0.5;" width="97" x="465.5" y="466.6797"/><text fill="#000000" font-family="sans-serif" font-size="14" lengthAdjust="spacing" textLength="83" x="472.5" y="488.2129">:UserSession</text><rect fill="#E2E2F0" height="31.6094" rx="2.5" ry="2.5" style="stroke:#181818;stroke-width:0.5;" width="78" x="572.5" y="22.6094"/><text fill="#000000" font-family="sans-serif" font-size="14" lengthAdjust="spacing" textLength="64" x="579.5" y="44.1426">:Company</text><rect fill="#E2E2F0" height="31.6094" rx="2.5" ry="2.5" style="stroke:#181818;stroke-width:0.5;" width="78" x="572.5" y="466.6797"/><text fill="#000000" font-family="sans-serif" font-size="14" lengthAdjust="spacing" textLength="64" x="579.5" y="488.2129">:Company</text><rect fill="#E2E2F0" height="31.6094" rx="2.5" ry="2.5" style="stroke:#181818;stroke-width:0.5;" width="114" x="660.5" y="22.6094"/><text fill="#000000" font-family="sans-serif" font-size="14" lengthAdjust="spacing" textLength="100" x="667.5" y="44.1426">:EmployeeStore</text><rect fill="#E2E2F0" height="31.6094" rx="2.5" ry="2.5" style="stroke:#181818;stroke-width:0.5;" width="114" x="660.5" y="466.6797"/><text fill="#000000" font-family="sans-serif" font-size="14" lengthAdjust="spacing" textLength="100" x="667.5" y="488.2129">:EmployeeStore</text><rect fill="#E2E2F0" height="49.2188" rx="2.5" ry="2.5" style="stroke:#181818;stroke-width:0.5;" width="136" x="784.5" y="5"/><text fill="#000000" font-family="sans-serif" font-size="14" lengthAdjust="spacing" textLength="115" x="795" y="26.5332">centerCoordinator</text><text fill="#000000" font-family="sans-serif" font-size="14" lengthAdjust="spacing" textLength="122" x="791.5" y="44.1426">:CenterCoordinator</text><rect fill="#E2E2F0" height="49.2188" rx="2.5" ry="2.5" style="stroke:#181818;stroke-width:0.5;" width="136" x="784.5" y="466.6797"/><text fill="#000000" font-family="sans-serif" font-size="14" lengthAdjust="spacing" textLength="115" x="795" y="488.2129">centerCoordinator</text><text fill="#000000" font-family="sans-serif" font-size="14" lengthAdjust="spacing" textLength="122" x="791.5" y="505.8223">:CenterCoordinator</text><rect fill="#FFFFFF" height="362.1094" style="stroke:#181818;stroke-width:1.0;" width="10" x="177" y="87.5703"/><rect fill="#FFFFFF" height="30" style="stroke:#181818;stroke-width:1.0;" width="10" x="364.5" y="117.9219"/><rect fill="#FFFFFF" height="30" style="stroke:#181818;stroke-width:1.0;" width="10" x="428" y="178.2734"/><rect fill="#FFFFFF" height="30" style="stroke:#181818;stroke-width:1.0;" width="10" x="509" y="238.625"/><rect fill="#FFFFFF" height="30" style="stroke:#181818;stroke-width:1.0;" width="10" x="606.5" y="298.9766"/><rect fill="#FFFFFF" height="30" style="stroke:#181818;stroke-width:1.0;" width="10" x="712.5" y="359.3281"/><rect fill="#FFFFFF" height="30" style="stroke:#181818;stroke-width:1.0;" width="10" x="847.5" y="419.6797"/><ellipse cx="7.5" cy="86.8203" fill="none" rx="4" ry="4" style="stroke:#181818;stroke-width:1.5;"/><polygon fill="#181818" points="165,83.5703,175,87.5703,165,91.5703,169,87.5703" style="stroke:#181818;stroke-width:1.0;"/><line style="stroke:#181818;stroke-width:1.0;" x1="12" x2="171" y1="87.5703" y2="87.5703"/><text fill="#000000" font-family="sans-serif" font-size="13" lengthAdjust="spacing" textLength="150" x="15" y="82.7139">getCCVaccinationCenter()</text><polygon fill="#181818" points="352.5,113.9219,362.5,117.9219,352.5,121.9219,356.5,117.9219" style="stroke:#181818;stroke-width:1.0;"/><line style="stroke:#181818;stroke-width:1.0;" x1="187" x2="358.5" y1="117.9219" y2="117.9219"/><text fill="#000000" font-family="sans-serif" font-size="13" lengthAdjust="spacing" textLength="104" x="194" y="113.0654">app=getInstance()</text><polygon fill="#181818" points="416,174.2734,426,178.2734,416,182.2734,420,178.2734" style="stroke:#181818;stroke-width:1.0;"/><line style="stroke:#181818;stroke-width:1.0;" x1="187" x2="422" y1="178.2734" y2="178.2734"/><text fill="#000000" font-family="sans-serif" font-size="13" lengthAdjust="spacing" textLength="222" x="194" y="173.417">userSession=getCurrentUserSession()</text><polygon fill="#181818" points="497,234.625,507,238.625,497,242.625,501,238.625" style="stroke:#181818;stroke-width:1.0;"/><line style="stroke:#181818;stroke-width:1.0;" x1="187" x2="503" y1="238.625" y2="238.625"/><text fill="#000000" font-family="sans-serif" font-size="13" lengthAdjust="spacing" textLength="104" x="194" y="233.7686">email=getUserID()</text><polygon fill="#181818" points="594.5,294.9766,604.5,298.9766,594.5,302.9766,598.5,298.9766" style="stroke:#181818;stroke-width:1.0;"/><line style="stroke:#181818;stroke-width:1.0;" x1="187" x2="600.5" y1="298.9766" y2="298.9766"/><text fill="#000000" font-family="sans-serif" font-size="13" lengthAdjust="spacing" textLength="210" x="194" y="294.1201">employeeStore=getEmployeeStore()</text><polygon fill="#181818" points="700.5,355.3281,710.5,359.3281,700.5,363.3281,704.5,359.3281" style="stroke:#181818;stroke-width:1.0;"/><line style="stroke:#181818;stroke-width:1.0;" x1="187" x2="706.5" y1="359.3281" y2="359.3281"/><text fill="#000000" font-family="sans-serif" font-size="13" lengthAdjust="spacing" textLength="276" x="194" y="354.4717">centerCoordinator=findEmployeeByEmail(email)</text><polygon fill="#181818" points="835.5,415.6797,845.5,419.6797,835.5,423.6797,839.5,419.6797" style="stroke:#181818;stroke-width:1.0;"/><line style="stroke:#181818;stroke-width:1.0;" x1="187" x2="841.5" y1="419.6797" y2="419.6797"/><text fill="#000000" font-family="sans-serif" font-size="13" lengthAdjust="spacing" textLength="242" x="194" y="414.8232">vaccinationCenter=getVaccinationCenter()</text><!--MD5=[ba0fa4065ec04f313d60092ca687b4ad]
@startuml

participant ":CheckAndExportVaccinationStatisticsController" as Controller
participant "APP" as APP
participant "app\n:APP" as app
participant ":UserSession" as userSession
participant ":Company" as Company
participant ":EmployeeStore" as employeeStore
participant "centerCoordinator\n:CenterCoordinator" as cc

[o-> Controller : getCCVaccinationCenter()

activate Controller

Controller -> APP : app=getInstance()
activate APP
deactivate APP

Controller -> app : userSession=getCurrentUserSession()
activate app
deactivate app

Controller -> userSession : email=getUserID()
activate userSession
deactivate userSession

Controller -> Company : employeeStore=getEmployeeStore()
activate Company
deactivate Company

Controller -> employeeStore : centerCoordinator=findEmployeeByEmail(email)
activate employeeStore
deactivate employeeStore

Controller -> cc : vaccinationCenter=getVaccinationCenter()
activate cc
deactivate cc

deactivate Controller

@enduml

PlantUML version 1.2022.5(Sat Apr 30 11:55:52 BST 2022)
(GPL source distribution)
Java Runtime: OpenJDK Runtime Environment
JVM: OpenJDK 64-Bit Server VM
Default Encoding: Cp1252
Language: pt
Country: PT
--></g></svg>