<?xml version="1.0" encoding="UTF-8" standalone="no"?><svg xmlns="http://www.w3.org/2000/svg" xmlns:xlink="http://www.w3.org/1999/xlink" contentStyleType="text/css" height="368px" preserveAspectRatio="none" style="width:3661px;height:368px;background:#FFFFFF;" version="1.1" viewBox="0 0 3661 368" width="3661px" zoomAndPan="magnify"><defs/><g><!--MD5=[c5b08e60048ef1bcd788d24cf324082e]
class UserSession--><g id="elem_UserSession"><rect codeLine="2" fill="#F1F1F1" height="65.6094" id="UserSession" rx="2.5" ry="2.5" style="stroke:#181818;stroke-width:0.5;" width="137" x="883" y="286.5"/><ellipse cx="909.7" cy="302.5" fill="#ADD1B2" rx="11" ry="11" style="stroke:#181818;stroke-width:1.0;"/><path d="M911.7,299 Q911.9031,298.5 912.1375,298.25 Q912.3719,298 912.6375,298 Q913.1063,298 913.4031,298.2813 Q913.7,298.5625 913.7,299.2188 L913.7,300.7813 Q913.7,301.4375 913.4188,301.7188 Q913.1375,302 912.7,302 Q912.3094,302 912.0594,301.8281 Q911.8094,301.6563 911.7,301.2031 Q911.6531,300.8906 911.4813,300.7188 Q911.1688,300.3906 910.6063,300.2031 Q910.0438,300 909.4813,300 Q908.7781,300 908.1844,300.2813 Q907.6063,300.5625 907.1531,301.1875 Q906.7,301.8125 906.7,302.6719 L906.7,303.5938 Q906.7,304.625 907.5438,305.3125 Q908.3875,306 909.8875,306 Q910.7781,306 911.4031,305.7969 Q911.7625,305.6875 912.1688,305.3281 Q912.4344,305.125 912.575,305.0625 Q912.7156,305 912.8875,305 Q913.2156,305 913.45,305.2656 Q913.7,305.5156 913.7,305.875 Q913.7,306.2188 913.3563,306.625 Q912.8563,307.2188 912.0594,307.5469 Q911.0125,308 909.7313,308 Q908.2313,308 907.0281,307.4063 Q906.0594,306.9375 905.3719,305.9219 Q904.7,304.9063 904.7,303.7031 L904.7,302.6094 Q904.7,301.3594 905.2938,300.2656 Q905.9031,299.1719 906.95,298.5938 Q908.0125,298 909.2,298 Q909.9188,298 910.5438,298.25 Q911.1688,298.5 911.7,299 Z " fill="#000000"/><text fill="#000000" font-family="sans-serif" font-size="14" lengthAdjust="spacing" textLength="79" x="926.3" y="308.2285">UserSession</text><line style="stroke:#181818;stroke-width:0.5;" x1="884" x2="1019" y1="318.5" y2="318.5"/><line style="stroke:#181818;stroke-width:0.5;" x1="884" x2="1019" y1="326.5" y2="326.5"/><text fill="#000000" font-family="sans-serif" font-size="14" lengthAdjust="spacing" textLength="125" x="889" y="345.0332">+getUserID(): String</text></g><!--MD5=[a9d1bcd58ad070c449c7ed3707156698]
class APP--><g id="elem_APP"><rect codeLine="6" fill="#F1F1F1" height="83.2188" id="APP" rx="2.5" ry="2.5" style="stroke:#181818;stroke-width:0.5;" width="264" x="561.5" y="278"/><ellipse cx="675.75" cy="294" fill="#ADD1B2" rx="11" ry="11" style="stroke:#181818;stroke-width:1.0;"/><path d="M677.75,290.5 Q677.9531,290 678.1875,289.75 Q678.4219,289.5 678.6875,289.5 Q679.1563,289.5 679.4531,289.7813 Q679.75,290.0625 679.75,290.7188 L679.75,292.2813 Q679.75,292.9375 679.4688,293.2188 Q679.1875,293.5 678.75,293.5 Q678.3594,293.5 678.1094,293.3281 Q677.8594,293.1563 677.75,292.7031 Q677.7031,292.3906 677.5313,292.2188 Q677.2188,291.8906 676.6563,291.7031 Q676.0938,291.5 675.5313,291.5 Q674.8281,291.5 674.2344,291.7813 Q673.6563,292.0625 673.2031,292.6875 Q672.75,293.3125 672.75,294.1719 L672.75,295.0938 Q672.75,296.125 673.5938,296.8125 Q674.4375,297.5 675.9375,297.5 Q676.8281,297.5 677.4531,297.2969 Q677.8125,297.1875 678.2188,296.8281 Q678.4844,296.625 678.625,296.5625 Q678.7656,296.5 678.9375,296.5 Q679.2656,296.5 679.5,296.7656 Q679.75,297.0156 679.75,297.375 Q679.75,297.7188 679.4063,298.125 Q678.9063,298.7188 678.1094,299.0469 Q677.0625,299.5 675.7813,299.5 Q674.2813,299.5 673.0781,298.9063 Q672.1094,298.4375 671.4219,297.4219 Q670.75,296.4063 670.75,295.2031 L670.75,294.1094 Q670.75,292.8594 671.3438,291.7656 Q671.9531,290.6719 673,290.0938 Q674.0625,289.5 675.25,289.5 Q675.9688,289.5 676.5938,289.75 Q677.2188,290 677.75,290.5 Z " fill="#000000"/><text fill="#000000" font-family="sans-serif" font-size="14" lengthAdjust="spacing" textLength="27" x="696.25" y="299.7285">APP</text><line style="stroke:#181818;stroke-width:0.5;" x1="562.5" x2="824.5" y1="310" y2="310"/><line style="stroke:#181818;stroke-width:0.5;" x1="562.5" x2="824.5" y1="318" y2="318"/><text fill="#000000" font-family="sans-serif" font-size="14" lengthAdjust="spacing" textLength="126" x="567.5" y="336.5332">+getInstance(): APP</text><text fill="#000000" font-family="sans-serif" font-size="14" lengthAdjust="spacing" textLength="252" x="567.5" y="354.1426">+getCurrentUserSession(): UserSession</text></g><!--MD5=[3b05b00339990c8bac96769c0a2fc94b]
class AppointmentStore--><g id="elem_AppointmentStore"><rect codeLine="11" fill="#F1F1F1" height="83.2188" id="AppointmentStore" rx="2.5" ry="2.5" style="stroke:#181818;stroke-width:0.5;" width="562" x="2741.5" y="278"/><ellipse cx="2961.75" cy="294" fill="#ADD1B2" rx="11" ry="11" style="stroke:#181818;stroke-width:1.0;"/><path d="M2963.75,290.5 Q2963.9531,290 2964.1875,289.75 Q2964.4219,289.5 2964.6875,289.5 Q2965.1563,289.5 2965.4531,289.7813 Q2965.75,290.0625 2965.75,290.7188 L2965.75,292.2813 Q2965.75,292.9375 2965.4688,293.2188 Q2965.1875,293.5 2964.75,293.5 Q2964.3594,293.5 2964.1094,293.3281 Q2963.8594,293.1563 2963.75,292.7031 Q2963.7031,292.3906 2963.5313,292.2188 Q2963.2188,291.8906 2962.6563,291.7031 Q2962.0938,291.5 2961.5313,291.5 Q2960.8281,291.5 2960.2344,291.7813 Q2959.6563,292.0625 2959.2031,292.6875 Q2958.75,293.3125 2958.75,294.1719 L2958.75,295.0938 Q2958.75,296.125 2959.5938,296.8125 Q2960.4375,297.5 2961.9375,297.5 Q2962.8281,297.5 2963.4531,297.2969 Q2963.8125,297.1875 2964.2188,296.8281 Q2964.4844,296.625 2964.625,296.5625 Q2964.7656,296.5 2964.9375,296.5 Q2965.2656,296.5 2965.5,296.7656 Q2965.75,297.0156 2965.75,297.375 Q2965.75,297.7188 2965.4063,298.125 Q2964.9063,298.7188 2964.1094,299.0469 Q2963.0625,299.5 2961.7813,299.5 Q2960.2813,299.5 2959.0781,298.9063 Q2958.1094,298.4375 2957.4219,297.4219 Q2956.75,296.4063 2956.75,295.2031 L2956.75,294.1094 Q2956.75,292.8594 2957.3438,291.7656 Q2957.9531,290.6719 2959,290.0938 Q2960.0625,289.5 2961.25,289.5 Q2961.9688,289.5 2962.5938,289.75 Q2963.2188,290 2963.75,290.5 Z " fill="#000000"/><text fill="#000000" font-family="sans-serif" font-size="14" lengthAdjust="spacing" textLength="113" x="2982.25" y="299.7285">AppointmentStore</text><line style="stroke:#181818;stroke-width:0.5;" x1="2742.5" x2="3302.5" y1="310" y2="310"/><text fill="#000000" font-family="sans-serif" font-size="14" lengthAdjust="spacing" textLength="226" x="2747.5" y="328.5332">-listAppointment: List&lt;Appointment&gt;</text><line style="stroke:#181818;stroke-width:0.5;" x1="2742.5" x2="3302.5" y1="335.6094" y2="335.6094"/><text fill="#000000" font-family="sans-serif" font-size="14" lengthAdjust="spacing" textLength="550" x="2747.5" y="354.1426">+getNumberOfFullyVaccinated(initialDate:LocalDate,finalDate:LocalDate): List&lt;Integer&gt;</text></g><!--MD5=[02e4b9b7573f1156f41e60aa5b4e25a4]
class Company--><g id="elem_Company"><rect codeLine="16" fill="#F1F1F1" height="65.6094" id="Company" rx="2.5" ry="2.5" style="stroke:#181818;stroke-width:0.5;" width="250" x="1055.5" y="286.5"/><ellipse cx="1146.25" cy="302.5" fill="#ADD1B2" rx="11" ry="11" style="stroke:#181818;stroke-width:1.0;"/><path d="M1148.25,299 Q1148.4531,298.5 1148.6875,298.25 Q1148.9219,298 1149.1875,298 Q1149.6563,298 1149.9531,298.2813 Q1150.25,298.5625 1150.25,299.2188 L1150.25,300.7813 Q1150.25,301.4375 1149.9688,301.7188 Q1149.6875,302 1149.25,302 Q1148.8594,302 1148.6094,301.8281 Q1148.3594,301.6563 1148.25,301.2031 Q1148.2031,300.8906 1148.0313,300.7188 Q1147.7188,300.3906 1147.1563,300.2031 Q1146.5938,300 1146.0313,300 Q1145.3281,300 1144.7344,300.2813 Q1144.1563,300.5625 1143.7031,301.1875 Q1143.25,301.8125 1143.25,302.6719 L1143.25,303.5938 Q1143.25,304.625 1144.0938,305.3125 Q1144.9375,306 1146.4375,306 Q1147.3281,306 1147.9531,305.7969 Q1148.3125,305.6875 1148.7188,305.3281 Q1148.9844,305.125 1149.125,305.0625 Q1149.2656,305 1149.4375,305 Q1149.7656,305 1150,305.2656 Q1150.25,305.5156 1150.25,305.875 Q1150.25,306.2188 1149.9063,306.625 Q1149.4063,307.2188 1148.6094,307.5469 Q1147.5625,308 1146.2813,308 Q1144.7813,308 1143.5781,307.4063 Q1142.6094,306.9375 1141.9219,305.9219 Q1141.25,304.9063 1141.25,303.7031 L1141.25,302.6094 Q1141.25,301.3594 1141.8438,300.2656 Q1142.4531,299.1719 1143.5,298.5938 Q1144.5625,298 1145.75,298 Q1146.4688,298 1147.0938,298.25 Q1147.7188,298.5 1148.25,299 Z " fill="#000000"/><text fill="#000000" font-family="sans-serif" font-size="14" lengthAdjust="spacing" textLength="60" x="1166.75" y="308.2285">Company</text><line style="stroke:#181818;stroke-width:0.5;" x1="1056.5" x2="1304.5" y1="318.5" y2="318.5"/><line style="stroke:#181818;stroke-width:0.5;" x1="1056.5" x2="1304.5" y1="326.5" y2="326.5"/><text fill="#000000" font-family="sans-serif" font-size="14" lengthAdjust="spacing" textLength="238" x="1061.5" y="345.0332">+getEmployeeStore(): EmployeeStore</text></g><!--MD5=[829fb52c07ade3ad64ef85b99d1fca10]
class EmployeeStore--><g id="elem_EmployeeStore"><rect codeLine="19" fill="#F1F1F1" height="65.6094" id="EmployeeStore" rx="2.5" ry="2.5" style="stroke:#181818;stroke-width:0.5;" width="306" x="1370.5" y="286.5"/><ellipse cx="1471.25" cy="302.5" fill="#ADD1B2" rx="11" ry="11" style="stroke:#181818;stroke-width:1.0;"/><path d="M1473.25,299 Q1473.4531,298.5 1473.6875,298.25 Q1473.9219,298 1474.1875,298 Q1474.6563,298 1474.9531,298.2813 Q1475.25,298.5625 1475.25,299.2188 L1475.25,300.7813 Q1475.25,301.4375 1474.9688,301.7188 Q1474.6875,302 1474.25,302 Q1473.8594,302 1473.6094,301.8281 Q1473.3594,301.6563 1473.25,301.2031 Q1473.2031,300.8906 1473.0313,300.7188 Q1472.7188,300.3906 1472.1563,300.2031 Q1471.5938,300 1471.0313,300 Q1470.3281,300 1469.7344,300.2813 Q1469.1563,300.5625 1468.7031,301.1875 Q1468.25,301.8125 1468.25,302.6719 L1468.25,303.5938 Q1468.25,304.625 1469.0938,305.3125 Q1469.9375,306 1471.4375,306 Q1472.3281,306 1472.9531,305.7969 Q1473.3125,305.6875 1473.7188,305.3281 Q1473.9844,305.125 1474.125,305.0625 Q1474.2656,305 1474.4375,305 Q1474.7656,305 1475,305.2656 Q1475.25,305.5156 1475.25,305.875 Q1475.25,306.2188 1474.9063,306.625 Q1474.4063,307.2188 1473.6094,307.5469 Q1472.5625,308 1471.2813,308 Q1469.7813,308 1468.5781,307.4063 Q1467.6094,306.9375 1466.9219,305.9219 Q1466.25,304.9063 1466.25,303.7031 L1466.25,302.6094 Q1466.25,301.3594 1466.8438,300.2656 Q1467.4531,299.1719 1468.5,298.5938 Q1469.5625,298 1470.75,298 Q1471.4688,298 1472.0938,298.25 Q1472.7188,298.5 1473.25,299 Z " fill="#000000"/><text fill="#000000" font-family="sans-serif" font-size="14" lengthAdjust="spacing" textLength="96" x="1491.75" y="308.2285">EmployeeStore</text><line style="stroke:#181818;stroke-width:0.5;" x1="1371.5" x2="1675.5" y1="318.5" y2="318.5"/><line style="stroke:#181818;stroke-width:0.5;" x1="1371.5" x2="1675.5" y1="326.5" y2="326.5"/><text fill="#000000" font-family="sans-serif" font-size="14" lengthAdjust="spacing" textLength="294" x="1376.5" y="345.0332">+findEmployeeByEmail(email:Email): Employee</text></g><!--MD5=[de60e6d4f424ae4d0522096f76a59010]
class VaccinationCenter--><g id="elem_VaccinationCenter"><rect codeLine="22" fill="#F1F1F1" height="65.6094" id="VaccinationCenter" rx="2.5" ry="2.5" style="stroke:#181818;stroke-width:0.5;" width="558" x="2125.5" y="286.5"/><ellipse cx="2342.25" cy="302.5" fill="#ADD1B2" rx="11" ry="11" style="stroke:#181818;stroke-width:1.0;"/><path d="M2344.25,299 Q2344.4531,298.5 2344.6875,298.25 Q2344.9219,298 2345.1875,298 Q2345.6563,298 2345.9531,298.2813 Q2346.25,298.5625 2346.25,299.2188 L2346.25,300.7813 Q2346.25,301.4375 2345.9688,301.7188 Q2345.6875,302 2345.25,302 Q2344.8594,302 2344.6094,301.8281 Q2344.3594,301.6563 2344.25,301.2031 Q2344.2031,300.8906 2344.0313,300.7188 Q2343.7188,300.3906 2343.1563,300.2031 Q2342.5938,300 2342.0313,300 Q2341.3281,300 2340.7344,300.2813 Q2340.1563,300.5625 2339.7031,301.1875 Q2339.25,301.8125 2339.25,302.6719 L2339.25,303.5938 Q2339.25,304.625 2340.0938,305.3125 Q2340.9375,306 2342.4375,306 Q2343.3281,306 2343.9531,305.7969 Q2344.3125,305.6875 2344.7188,305.3281 Q2344.9844,305.125 2345.125,305.0625 Q2345.2656,305 2345.4375,305 Q2345.7656,305 2346,305.2656 Q2346.25,305.5156 2346.25,305.875 Q2346.25,306.2188 2345.9063,306.625 Q2345.4063,307.2188 2344.6094,307.5469 Q2343.5625,308 2342.2813,308 Q2340.7813,308 2339.5781,307.4063 Q2338.6094,306.9375 2337.9219,305.9219 Q2337.25,304.9063 2337.25,303.7031 L2337.25,302.6094 Q2337.25,301.3594 2337.8438,300.2656 Q2338.4531,299.1719 2339.5,298.5938 Q2340.5625,298 2341.75,298 Q2342.4688,298 2343.0938,298.25 Q2343.7188,298.5 2344.25,299 Z " fill="#000000"/><text fill="#000000" font-family="sans-serif" font-size="14" lengthAdjust="spacing" textLength="116" x="2362.75" y="308.2285">VaccinationCenter</text><line style="stroke:#181818;stroke-width:0.5;" x1="2126.5" x2="2682.5" y1="318.5" y2="318.5"/><line style="stroke:#181818;stroke-width:0.5;" x1="2126.5" x2="2682.5" y1="326.5" y2="326.5"/><text fill="#000000" font-family="sans-serif" font-size="14" lengthAdjust="spacing" textLength="546" x="2131.5" y="345.0332">+getNumberOfFullyVaccinated(initialDate:LocalDate,finalDate:LocalDate):List&lt;Integer&gt;</text></g><!--MD5=[2d935fd2dd068a13da1ae531f9857c4f]
class CenterCoordinator--><g id="elem_CenterCoordinator"><rect codeLine="25" fill="#F1F1F1" height="65.6094" id="CenterCoordinator" rx="2.5" ry="2.5" style="stroke:#181818;stroke-width:0.5;" width="286" x="1750.5" y="286.5"/><ellipse cx="1830.25" cy="302.5" fill="#ADD1B2" rx="11" ry="11" style="stroke:#181818;stroke-width:1.0;"/><path d="M1832.25,299 Q1832.4531,298.5 1832.6875,298.25 Q1832.9219,298 1833.1875,298 Q1833.6563,298 1833.9531,298.2813 Q1834.25,298.5625 1834.25,299.2188 L1834.25,300.7813 Q1834.25,301.4375 1833.9688,301.7188 Q1833.6875,302 1833.25,302 Q1832.8594,302 1832.6094,301.8281 Q1832.3594,301.6563 1832.25,301.2031 Q1832.2031,300.8906 1832.0313,300.7188 Q1831.7188,300.3906 1831.1563,300.2031 Q1830.5938,300 1830.0313,300 Q1829.3281,300 1828.7344,300.2813 Q1828.1563,300.5625 1827.7031,301.1875 Q1827.25,301.8125 1827.25,302.6719 L1827.25,303.5938 Q1827.25,304.625 1828.0938,305.3125 Q1828.9375,306 1830.4375,306 Q1831.3281,306 1831.9531,305.7969 Q1832.3125,305.6875 1832.7188,305.3281 Q1832.9844,305.125 1833.125,305.0625 Q1833.2656,305 1833.4375,305 Q1833.7656,305 1834,305.2656 Q1834.25,305.5156 1834.25,305.875 Q1834.25,306.2188 1833.9063,306.625 Q1833.4063,307.2188 1832.6094,307.5469 Q1831.5625,308 1830.2813,308 Q1828.7813,308 1827.5781,307.4063 Q1826.6094,306.9375 1825.9219,305.9219 Q1825.25,304.9063 1825.25,303.7031 L1825.25,302.6094 Q1825.25,301.3594 1825.8438,300.2656 Q1826.4531,299.1719 1827.5,298.5938 Q1828.5625,298 1829.75,298 Q1830.4688,298 1831.0938,298.25 Q1831.7188,298.5 1832.25,299 Z " fill="#000000"/><text fill="#000000" font-family="sans-serif" font-size="14" lengthAdjust="spacing" textLength="118" x="1850.75" y="308.2285">CenterCoordinator</text><line style="stroke:#181818;stroke-width:0.5;" x1="1751.5" x2="2035.5" y1="318.5" y2="318.5"/><line style="stroke:#181818;stroke-width:0.5;" x1="1751.5" x2="2035.5" y1="326.5" y2="326.5"/><text fill="#000000" font-family="sans-serif" font-size="14" lengthAdjust="spacing" textLength="274" x="1756.5" y="345.0332">+getVaccinationCenter():VaccinationCenter</text></g><!--MD5=[fb3f062055bc0f05a3cad202ed919856]
class CheckAndExportVaccinationStatisticsController--><g id="elem_CheckAndExportVaccinationStatisticsController"><rect codeLine="29" fill="#F1F1F1" height="65.6094" id="CheckAndExportVaccinationStatisticsController" rx="2.5" ry="2.5" style="stroke:#181818;stroke-width:0.5;" width="527" x="1012" y="134"/><ellipse cx="1123.25" cy="150" fill="#ADD1B2" rx="11" ry="11" style="stroke:#181818;stroke-width:1.0;"/><path d="M1125.25,146.5 Q1125.4531,146 1125.6875,145.75 Q1125.9219,145.5 1126.1875,145.5 Q1126.6563,145.5 1126.9531,145.7813 Q1127.25,146.0625 1127.25,146.7188 L1127.25,148.2813 Q1127.25,148.9375 1126.9688,149.2188 Q1126.6875,149.5 1126.25,149.5 Q1125.8594,149.5 1125.6094,149.3281 Q1125.3594,149.1563 1125.25,148.7031 Q1125.2031,148.3906 1125.0313,148.2188 Q1124.7188,147.8906 1124.1563,147.7031 Q1123.5938,147.5 1123.0313,147.5 Q1122.3281,147.5 1121.7344,147.7813 Q1121.1563,148.0625 1120.7031,148.6875 Q1120.25,149.3125 1120.25,150.1719 L1120.25,151.0938 Q1120.25,152.125 1121.0938,152.8125 Q1121.9375,153.5 1123.4375,153.5 Q1124.3281,153.5 1124.9531,153.2969 Q1125.3125,153.1875 1125.7188,152.8281 Q1125.9844,152.625 1126.125,152.5625 Q1126.2656,152.5 1126.4375,152.5 Q1126.7656,152.5 1127,152.7656 Q1127.25,153.0156 1127.25,153.375 Q1127.25,153.7188 1126.9063,154.125 Q1126.4063,154.7188 1125.6094,155.0469 Q1124.5625,155.5 1123.2813,155.5 Q1121.7813,155.5 1120.5781,154.9063 Q1119.6094,154.4375 1118.9219,153.4219 Q1118.25,152.4063 1118.25,151.2031 L1118.25,150.1094 Q1118.25,148.8594 1118.8438,147.7656 Q1119.4531,146.6719 1120.5,146.0938 Q1121.5625,145.5 1122.75,145.5 Q1123.4688,145.5 1124.0938,145.75 Q1124.7188,146 1125.25,146.5 Z " fill="#000000"/><text fill="#000000" font-family="sans-serif" font-size="14" lengthAdjust="spacing" textLength="296" x="1143.75" y="155.7285">CheckAndExportVaccinationStatisticsController</text><line style="stroke:#181818;stroke-width:0.5;" x1="1013" x2="1538" y1="166" y2="166"/><line style="stroke:#181818;stroke-width:0.5;" x1="1013" x2="1538" y1="174" y2="174"/><text fill="#000000" font-family="sans-serif" font-size="14" lengthAdjust="spacing" textLength="515" x="1018" y="192.5332">+getVaccinationStatistics(initialDate:LocalDate,finalDate:LocalDate): List&lt;Integer&gt;</text></g><!--MD5=[18256070d78a6c50224a4292646bb182]
class CheckAndExportVaccinationStatisticsUI--><g id="elem_CheckAndExportVaccinationStatisticsUI"><rect codeLine="33" fill="#F1F1F1" height="65.6094" id="CheckAndExportVaccinationStatisticsUI" rx="2.5" ry="2.5" style="stroke:#181818;stroke-width:0.5;" width="482" x="1034.5" y="7"/><ellipse cx="1148.25" cy="23" fill="#ADD1B2" rx="11" ry="11" style="stroke:#181818;stroke-width:1.0;"/><path d="M1150.25,19.5 Q1150.4531,19 1150.6875,18.75 Q1150.9219,18.5 1151.1875,18.5 Q1151.6563,18.5 1151.9531,18.7813 Q1152.25,19.0625 1152.25,19.7188 L1152.25,21.2813 Q1152.25,21.9375 1151.9688,22.2188 Q1151.6875,22.5 1151.25,22.5 Q1150.8594,22.5 1150.6094,22.3281 Q1150.3594,22.1563 1150.25,21.7031 Q1150.2031,21.3906 1150.0313,21.2188 Q1149.7188,20.8906 1149.1563,20.7031 Q1148.5938,20.5 1148.0313,20.5 Q1147.3281,20.5 1146.7344,20.7813 Q1146.1563,21.0625 1145.7031,21.6875 Q1145.25,22.3125 1145.25,23.1719 L1145.25,24.0938 Q1145.25,25.125 1146.0938,25.8125 Q1146.9375,26.5 1148.4375,26.5 Q1149.3281,26.5 1149.9531,26.2969 Q1150.3125,26.1875 1150.7188,25.8281 Q1150.9844,25.625 1151.125,25.5625 Q1151.2656,25.5 1151.4375,25.5 Q1151.7656,25.5 1152,25.7656 Q1152.25,26.0156 1152.25,26.375 Q1152.25,26.7188 1151.9063,27.125 Q1151.4063,27.7188 1150.6094,28.0469 Q1149.5625,28.5 1148.2813,28.5 Q1146.7813,28.5 1145.5781,27.9063 Q1144.6094,27.4375 1143.9219,26.4219 Q1143.25,25.4063 1143.25,24.2031 L1143.25,23.1094 Q1143.25,21.8594 1143.8438,20.7656 Q1144.4531,19.6719 1145.5,19.0938 Q1146.5625,18.5 1147.75,18.5 Q1148.4688,18.5 1149.0938,18.75 Q1149.7188,19 1150.25,19.5 Z " fill="#000000"/><text fill="#000000" font-family="sans-serif" font-size="14" lengthAdjust="spacing" textLength="246" x="1168.75" y="28.7285">CheckAndExportVaccinationStatisticsUI</text><line style="stroke:#181818;stroke-width:0.5;" x1="1035.5" x2="1515.5" y1="39" y2="39"/><line style="stroke:#181818;stroke-width:0.5;" x1="1035.5" x2="1515.5" y1="47" y2="47"/><text fill="#000000" font-family="sans-serif" font-size="14" lengthAdjust="spacing" textLength="470" x="1040.5" y="65.5332">+exportToCSVFile(fullVaccinatedArray: List&lt;Integer&gt;, fileName:String):void</text></g><!--MD5=[72be06cc7ae02ccc98efe28a50e62246]
class SNSUser--><g id="elem_SNSUser"><rect codeLine="36" fill="#F1F1F1" height="65.6094" id="SNSUser" rx="2.5" ry="2.5" style="stroke:#181818;stroke-width:0.5;" width="94" x="191.5" y="286.5"/><ellipse cx="209.2" cy="302.5" fill="#ADD1B2" rx="11" ry="11" style="stroke:#181818;stroke-width:1.0;"/><path d="M211.2,299 Q211.4031,298.5 211.6375,298.25 Q211.8719,298 212.1375,298 Q212.6063,298 212.9031,298.2813 Q213.2,298.5625 213.2,299.2188 L213.2,300.7813 Q213.2,301.4375 212.9188,301.7188 Q212.6375,302 212.2,302 Q211.8094,302 211.5594,301.8281 Q211.3094,301.6563 211.2,301.2031 Q211.1531,300.8906 210.9813,300.7188 Q210.6688,300.3906 210.1063,300.2031 Q209.5438,300 208.9813,300 Q208.2781,300 207.6844,300.2813 Q207.1063,300.5625 206.6531,301.1875 Q206.2,301.8125 206.2,302.6719 L206.2,303.5938 Q206.2,304.625 207.0438,305.3125 Q207.8875,306 209.3875,306 Q210.2781,306 210.9031,305.7969 Q211.2625,305.6875 211.6688,305.3281 Q211.9344,305.125 212.075,305.0625 Q212.2156,305 212.3875,305 Q212.7156,305 212.95,305.2656 Q213.2,305.5156 213.2,305.875 Q213.2,306.2188 212.8563,306.625 Q212.3563,307.2188 211.5594,307.5469 Q210.5125,308 209.2313,308 Q207.7313,308 206.5281,307.4063 Q205.5594,306.9375 204.8719,305.9219 Q204.2,304.9063 204.2,303.7031 L204.2,302.6094 Q204.2,301.3594 204.7938,300.2656 Q205.4031,299.1719 206.45,298.5938 Q207.5125,298 208.7,298 Q209.4188,298 210.0438,298.25 Q210.6688,298.5 211.2,299 Z " fill="#000000"/><text fill="#000000" font-family="sans-serif" font-size="14" lengthAdjust="spacing" textLength="56" x="223.8" y="308.2285">SNSUser</text><line style="stroke:#181818;stroke-width:0.5;" x1="192.5" x2="284.5" y1="318.5" y2="318.5"/><line style="stroke:#181818;stroke-width:0.5;" x1="192.5" x2="284.5" y1="326.5" y2="326.5"/><text fill="#000000" font-family="sans-serif" font-size="14" lengthAdjust="spacing" textLength="82" x="197.5" y="345.0332">+getAge():int</text></g><!--MD5=[c508b5b6bbe276ff5e2700b6641f837f]
class Appointment--><g id="elem_Appointment"><rect codeLine="39" fill="#F1F1F1" height="48" id="Appointment" rx="2.5" ry="2.5" style="stroke:#181818;stroke-width:0.5;" width="111" x="7" y="295.5"/><ellipse cx="22" cy="311.5" fill="#ADD1B2" rx="11" ry="11" style="stroke:#181818;stroke-width:1.0;"/><path d="M24,308 Q24.2031,307.5 24.4375,307.25 Q24.6719,307 24.9375,307 Q25.4063,307 25.7031,307.2813 Q26,307.5625 26,308.2188 L26,309.7813 Q26,310.4375 25.7188,310.7188 Q25.4375,311 25,311 Q24.6094,311 24.3594,310.8281 Q24.1094,310.6563 24,310.2031 Q23.9531,309.8906 23.7813,309.7188 Q23.4688,309.3906 22.9063,309.2031 Q22.3438,309 21.7813,309 Q21.0781,309 20.4844,309.2813 Q19.9063,309.5625 19.4531,310.1875 Q19,310.8125 19,311.6719 L19,312.5938 Q19,313.625 19.8438,314.3125 Q20.6875,315 22.1875,315 Q23.0781,315 23.7031,314.7969 Q24.0625,314.6875 24.4688,314.3281 Q24.7344,314.125 24.875,314.0625 Q25.0156,314 25.1875,314 Q25.5156,314 25.75,314.2656 Q26,314.5156 26,314.875 Q26,315.2188 25.6563,315.625 Q25.1563,316.2188 24.3594,316.5469 Q23.3125,317 22.0313,317 Q20.5313,317 19.3281,316.4063 Q18.3594,315.9375 17.6719,314.9219 Q17,313.9063 17,312.7031 L17,311.6094 Q17,310.3594 17.5938,309.2656 Q18.2031,308.1719 19.25,307.5938 Q20.3125,307 21.5,307 Q22.2188,307 22.8438,307.25 Q23.4688,307.5 24,308 Z " fill="#000000"/><text fill="#000000" font-family="sans-serif" font-size="14" lengthAdjust="spacing" textLength="79" x="36" y="317.2285">Appointment</text><line style="stroke:#181818;stroke-width:0.5;" x1="8" x2="117" y1="327.5" y2="327.5"/><line style="stroke:#181818;stroke-width:0.5;" x1="8" x2="117" y1="335.5" y2="335.5"/></g><!--MD5=[a2530d24bafc45bb45314d96545aa194]
class AdministrationProcess--><g id="elem_AdministrationProcess"><rect codeLine="40" fill="#F1F1F1" height="83.2188" id="AdministrationProcess" rx="2.5" ry="2.5" style="stroke:#181818;stroke-width:0.5;" width="205" x="321" y="278"/><ellipse cx="350.85" cy="294" fill="#ADD1B2" rx="11" ry="11" style="stroke:#181818;stroke-width:1.0;"/><path d="M352.85,290.5 Q353.0531,290 353.2875,289.75 Q353.5219,289.5 353.7875,289.5 Q354.2563,289.5 354.5531,289.7813 Q354.85,290.0625 354.85,290.7188 L354.85,292.2813 Q354.85,292.9375 354.5688,293.2188 Q354.2875,293.5 353.85,293.5 Q353.4594,293.5 353.2094,293.3281 Q352.9594,293.1563 352.85,292.7031 Q352.8031,292.3906 352.6313,292.2188 Q352.3188,291.8906 351.7563,291.7031 Q351.1938,291.5 350.6313,291.5 Q349.9281,291.5 349.3344,291.7813 Q348.7563,292.0625 348.3031,292.6875 Q347.85,293.3125 347.85,294.1719 L347.85,295.0938 Q347.85,296.125 348.6938,296.8125 Q349.5375,297.5 351.0375,297.5 Q351.9281,297.5 352.5531,297.2969 Q352.9125,297.1875 353.3188,296.8281 Q353.5844,296.625 353.725,296.5625 Q353.8656,296.5 354.0375,296.5 Q354.3656,296.5 354.6,296.7656 Q354.85,297.0156 354.85,297.375 Q354.85,297.7188 354.5063,298.125 Q354.0063,298.7188 353.2094,299.0469 Q352.1625,299.5 350.8813,299.5 Q349.3813,299.5 348.1781,298.9063 Q347.2094,298.4375 346.5219,297.4219 Q345.85,296.4063 345.85,295.2031 L345.85,294.1094 Q345.85,292.8594 346.4438,291.7656 Q347.0531,290.6719 348.1,290.0938 Q349.1625,289.5 350.35,289.5 Q351.0688,289.5 351.6938,289.75 Q352.3188,290 352.85,290.5 Z " fill="#000000"/><text fill="#000000" font-family="sans-serif" font-size="14" lengthAdjust="spacing" textLength="140" x="368.15" y="299.7285">AdministrationProcess</text><line style="stroke:#181818;stroke-width:0.5;" x1="322" x2="525" y1="310" y2="310"/><text fill="#000000" font-family="sans-serif" font-size="14" lengthAdjust="spacing" textLength="127" x="327" y="328.5332">-numberOfDoses:int</text><line style="stroke:#181818;stroke-width:0.5;" x1="322" x2="525" y1="335.6094" y2="335.6094"/><text fill="#000000" font-family="sans-serif" font-size="14" lengthAdjust="spacing" textLength="193" x="327" y="354.1426">+getTotalNumberOfDoses():int</text></g><!--MD5=[19e445fc4d3b48519cbe33da05496394]
class Vaccine--><g id="elem_Vaccine"><rect codeLine="45" fill="#F1F1F1" height="65.6094" id="Vaccine" rx="2.5" ry="2.5" style="stroke:#181818;stroke-width:0.5;" width="316" x="3338.5" y="286.5"/><ellipse cx="3467.25" cy="302.5" fill="#ADD1B2" rx="11" ry="11" style="stroke:#181818;stroke-width:1.0;"/><path d="M3469.25,299 Q3469.4531,298.5 3469.6875,298.25 Q3469.9219,298 3470.1875,298 Q3470.6563,298 3470.9531,298.2813 Q3471.25,298.5625 3471.25,299.2188 L3471.25,300.7813 Q3471.25,301.4375 3470.9688,301.7188 Q3470.6875,302 3470.25,302 Q3469.8594,302 3469.6094,301.8281 Q3469.3594,301.6563 3469.25,301.2031 Q3469.2031,300.8906 3469.0313,300.7188 Q3468.7188,300.3906 3468.1563,300.2031 Q3467.5938,300 3467.0313,300 Q3466.3281,300 3465.7344,300.2813 Q3465.1563,300.5625 3464.7031,301.1875 Q3464.25,301.8125 3464.25,302.6719 L3464.25,303.5938 Q3464.25,304.625 3465.0938,305.3125 Q3465.9375,306 3467.4375,306 Q3468.3281,306 3468.9531,305.7969 Q3469.3125,305.6875 3469.7188,305.3281 Q3469.9844,305.125 3470.125,305.0625 Q3470.2656,305 3470.4375,305 Q3470.7656,305 3471,305.2656 Q3471.25,305.5156 3471.25,305.875 Q3471.25,306.2188 3470.9063,306.625 Q3470.4063,307.2188 3469.6094,307.5469 Q3468.5625,308 3467.2813,308 Q3465.7813,308 3464.5781,307.4063 Q3463.6094,306.9375 3462.9219,305.9219 Q3462.25,304.9063 3462.25,303.7031 L3462.25,302.6094 Q3462.25,301.3594 3462.8438,300.2656 Q3463.4531,299.1719 3464.5,298.5938 Q3465.5625,298 3466.75,298 Q3467.4688,298 3468.0938,298.25 Q3468.7188,298.5 3469.25,299 Z " fill="#000000"/><text fill="#000000" font-family="sans-serif" font-size="14" lengthAdjust="spacing" textLength="50" x="3487.75" y="308.2285">Vaccine</text><line style="stroke:#181818;stroke-width:0.5;" x1="3339.5" x2="3653.5" y1="318.5" y2="318.5"/><line style="stroke:#181818;stroke-width:0.5;" x1="3339.5" x2="3653.5" y1="326.5" y2="326.5"/><text fill="#000000" font-family="sans-serif" font-size="14" lengthAdjust="spacing" textLength="304" x="3344.5" y="345.0332">+getAdmProcess(age:int):AdministrationProcess</text></g><!--MD5=[b31de0872ee34b54b59b1a29427916cf]
link CheckAndExportVaccinationStatisticsUI to CheckAndExportVaccinationStatisticsController--><g id="link_CheckAndExportVaccinationStatisticsUI_CheckAndExportVaccinationStatisticsController"><path codeLine="50" d="M1275.5,73.19 C1275.5,90.1 1275.5,110.92 1275.5,128.56 " fill="none" id="CheckAndExportVaccinationStatisticsUI-to-CheckAndExportVaccinationStatisticsController" style="stroke:#181818;stroke-width:1.0;stroke-dasharray:7.0,7.0;"/><polygon fill="#181818" points="1275.5,133.92,1279.5,124.92,1275.5,128.92,1271.5,124.92,1275.5,133.92" style="stroke:#181818;stroke-width:1.0;"/></g><!--MD5=[07c2e85c8b1c7a3f6c0af31f38899136]
link CheckAndExportVaccinationStatisticsController to VaccinationCenter--><g id="link_CheckAndExportVaccinationStatisticsController_VaccinationCenter"><path codeLine="51" d="M1515.62,200.01 C1705.1,225.27 1968.38,260.36 2159.19,285.8 " fill="none" id="CheckAndExportVaccinationStatisticsController-to-VaccinationCenter" style="stroke:#181818;stroke-width:1.0;stroke-dasharray:7.0,7.0;"/><polygon fill="#181818" points="2164.25,286.47,2155.8537,281.322,2159.2934,285.8129,2154.8024,289.2526,2164.25,286.47" style="stroke:#181818;stroke-width:1.0;"/></g><!--MD5=[4c2bdeb6fd33fbabe44b59af46d00578]
link CheckAndExportVaccinationStatisticsController to AppointmentStore--><g id="link_CheckAndExportVaccinationStatisticsController_AppointmentStore"><path codeLine="52" d="M1539.32,184.5 C1825.8,203.32 2296.67,236.87 2701.5,278 C2712.87,279.15 2724.46,280.38 2736.16,281.66 " fill="none" id="CheckAndExportVaccinationStatisticsController-to-AppointmentStore" style="stroke:#181818;stroke-width:1.0;stroke-dasharray:7.0,7.0;"/><polygon fill="#181818" points="2741.18,282.21,2732.6674,277.2567,2736.2095,281.6672,2731.799,285.2094,2741.18,282.21" style="stroke:#181818;stroke-width:1.0;"/></g><!--MD5=[19ab43ca298c1d9fd9821023da273d0e]
link Appointment to SNSUser--><g id="link_Appointment_SNSUser"><path codeLine="53" d="M118.19,319.5 C140,319.5 164.9,319.5 186.36,319.5 " fill="none" id="Appointment-to-SNSUser" style="stroke:#181818;stroke-width:1.0;"/><polygon fill="#181818" points="191.45,319.5,182.45,315.5,186.45,319.5,182.45,323.5,191.45,319.5" style="stroke:#181818;stroke-width:1.0;"/><text fill="#000000" font-family="sans-serif" font-size="13" lengthAdjust="spacing" textLength="37" x="136.25" y="312.9951">knows</text><text fill="#000000" font-family="sans-serif" font-size="13" lengthAdjust="spacing" textLength="20" x="126.196" y="333.9915">1..*</text><text fill="#000000" font-family="sans-serif" font-size="13" lengthAdjust="spacing" textLength="7" x="176.3936" y="315.7793">1</text></g><!--MD5=[60af1cac581cb5ace78331ed23bcc858]
link CheckAndExportVaccinationStatisticsController to APP--><g id="link_CheckAndExportVaccinationStatisticsController_APP"><path codeLine="54" d="M1014.42,200.04 C971.9,208.05 928.65,217.91 888.5,230 C850,241.59 809.23,259.18 774.98,275.64 " fill="none" id="CheckAndExportVaccinationStatisticsController-to-APP" style="stroke:#181818;stroke-width:1.0;stroke-dasharray:7.0,7.0;"/><polygon fill="#181818" points="770.4,277.84,780.2444,277.5434,774.9058,275.6726,776.7766,270.3341,770.4,277.84" style="stroke:#181818;stroke-width:1.0;"/></g><!--MD5=[d27860ddc1dfe848604925119fb18d30]
link CheckAndExportVaccinationStatisticsController to Company--><g id="link_CheckAndExportVaccinationStatisticsController_Company"><path codeLine="55" d="M1255.12,200.29 C1239.97,224.29 1219.28,257.07 1203.53,282.02 " fill="none" id="CheckAndExportVaccinationStatisticsController-to-Company" style="stroke:#181818;stroke-width:1.0;stroke-dasharray:7.0,7.0;"/><polygon fill="#181818" points="1200.85,286.27,1209.0337,280.7903,1203.5167,282.0405,1202.2665,276.5235,1200.85,286.27" style="stroke:#181818;stroke-width:1.0;"/></g><!--MD5=[62458bfb8497d482eee1dc5c9be8fe5e]
link CheckAndExportVaccinationStatisticsController to EmployeeStore--><g id="link_CheckAndExportVaccinationStatisticsController_EmployeeStore"><path codeLine="56" d="M1328.4,200.1 C1368.89,224.67 1424.65,258.52 1466.2,283.73 " fill="none" id="CheckAndExportVaccinationStatisticsController-to-EmployeeStore" style="stroke:#181818;stroke-width:1.0;stroke-dasharray:7.0,7.0;"/><polygon fill="#181818" points="1470.68,286.45,1465.072,278.3537,1466.409,283.8503,1460.9124,285.1873,1470.68,286.45" style="stroke:#181818;stroke-width:1.0;"/></g><!--MD5=[93c7815d097beebc3c970b9b2627ed16]
link CheckAndExportVaccinationStatisticsController to CenterCoordinator--><g id="link_CheckAndExportVaccinationStatisticsController_CenterCoordinator"><path codeLine="57" d="M1406.94,200.01 C1509.94,225.09 1652.79,259.88 1757.05,285.27 " fill="none" id="CheckAndExportVaccinationStatisticsController-to-CenterCoordinator" style="stroke:#181818;stroke-width:1.0;stroke-dasharray:7.0,7.0;"/><polygon fill="#181818" points="1761.99,286.47,1754.1954,280.4497,1757.1326,285.2842,1752.2981,288.2215,1761.99,286.47" style="stroke:#181818;stroke-width:1.0;"/></g><!--MD5=[db7b0f0461b9a9c10246a5cbcd726966]
link CheckAndExportVaccinationStatisticsController to UserSession--><g id="link_CheckAndExportVaccinationStatisticsController_UserSession"><path codeLine="58" d="M1205.66,200.12 C1158.2,221.98 1094.01,251.63 1037.5,278 C1033.13,280.04 1028.63,282.14 1024.09,284.27 " fill="none" id="CheckAndExportVaccinationStatisticsController-to-UserSession" style="stroke:#181818;stroke-width:1.0;stroke-dasharray:7.0,7.0;"/><polygon fill="#181818" points="1019.55,286.4,1029.3967,286.1916,1024.0751,284.2731,1025.9936,278.9515,1019.55,286.4" style="stroke:#181818;stroke-width:1.0;"/></g><!--MD5=[2be8c0f162c0d9735bd66754fdd7ede1]
link CheckAndExportVaccinationStatisticsController to SNSUser--><g id="link_CheckAndExportVaccinationStatisticsController_SNSUser"><path codeLine="59" d="M1011.99,170.73 C737.68,175.73 339.76,189.89 280.5,230 C263.25,241.68 252.89,262.44 246.78,280.92 " fill="none" id="CheckAndExportVaccinationStatisticsController-to-SNSUser" style="stroke:#181818;stroke-width:1.0;stroke-dasharray:7.0,7.0;"/><polygon fill="#181818" points="245.17,286.06,251.6648,278.6561,246.6565,281.2861,244.0265,276.2777,245.17,286.06" style="stroke:#181818;stroke-width:1.0;"/></g><!--MD5=[35c5f5f9655098cfee1ae5cb2e55af00]
link CheckAndExportVaccinationStatisticsController to AdministrationProcess--><g id="link_CheckAndExportVaccinationStatisticsController_AdministrationProcess"><path codeLine="60" d="M1011.93,175.86 C730.34,185.58 320.84,204.07 296.5,230 C278.75,248.91 292.43,266.13 316.36,280.26 " fill="none" id="CheckAndExportVaccinationStatisticsController-to-AdministrationProcess" style="stroke:#181818;stroke-width:1.0;stroke-dasharray:7.0,7.0;"/><polygon fill="#181818" points="320.94,282.86,315.0851,274.9404,316.5909,280.3931,311.1381,281.8989,320.94,282.86" style="stroke:#181818;stroke-width:1.0;"/></g><!--MD5=[c684027a9d0f3baf8a4ef980c10a5615]
link CheckAndExportVaccinationStatisticsController to Vaccine--><g id="link_CheckAndExportVaccinationStatisticsController_Vaccine"><path codeLine="61" d="M1539.33,167.59 C1930.42,170.28 2686.2,188.1 3321.5,278 C3335.65,280 3350.34,282.58 3364.92,285.48 " fill="none" id="CheckAndExportVaccinationStatisticsController-to-Vaccine" style="stroke:#181818;stroke-width:1.0;stroke-dasharray:7.0,7.0;"/><polygon fill="#181818" points="3369.86,286.47,3361.8256,280.7736,3364.9582,285.4839,3360.2479,288.6165,3369.86,286.47" style="stroke:#181818;stroke-width:1.0;"/></g><!--MD5=[6d823c2ceb6e02e262b8d56a30a96ea4]
link Appointment to AdministrationProcess--><g id="link_Appointment_AdministrationProcess"><path codeLine="62" d="M97.43,295.47 C147.32,264.25 241.71,216.67 321,243 C341.01,249.64 360.28,261.88 376.6,274.65 " fill="none" id="Appointment-to-AdministrationProcess" style="stroke:#181818;stroke-width:1.0;"/><polygon fill="#181818" points="380.69,277.91,376.1571,269.1663,376.7843,274.7883,371.1623,275.4155,380.69,277.91" style="stroke:#181818;stroke-width:1.0;"/><text fill="#000000" font-family="sans-serif" font-size="13" lengthAdjust="spacing" textLength="21" x="299" y="244.4951">has</text><text fill="#000000" font-family="sans-serif" font-size="13" lengthAdjust="spacing" textLength="20" x="83.8183" y="284.8025">1..*</text><text fill="#000000" font-family="sans-serif" font-size="13" lengthAdjust="spacing" textLength="7" x="366.0199" y="267.2028">1</text></g><!--MD5=[5d9cbe4c40a0e31535acea639b04f123]
link APP to UserSession--><g id="link_APP_UserSession"><path codeLine="63" d="M825.52,319.5 C843.5,319.5 861.4,319.5 877.82,319.5 " fill="none" id="APP-to-UserSession" style="stroke:#181818;stroke-width:1.0;"/><polygon fill="#181818" points="882.87,319.5,873.87,315.5,877.87,319.5,873.87,323.5,882.87,319.5" style="stroke:#181818;stroke-width:1.0;"/><text fill="#000000" font-family="sans-serif" font-size="13" lengthAdjust="spacing" textLength="21" x="843.75" y="312.9951">has</text><text fill="#000000" font-family="sans-serif" font-size="13" lengthAdjust="spacing" textLength="7" x="833.3548" y="316.5365">1</text><text fill="#000000" font-family="sans-serif" font-size="13" lengthAdjust="spacing" textLength="7" x="867.9808" y="316.1607">1</text></g><!--MD5=[ce859576cba61219b3cb4d2d23fdcd81]
link Company to EmployeeStore--><g id="link_Company_EmployeeStore"><path codeLine="64" d="M1305.79,319.5 C1325.1,319.5 1345.27,319.5 1365.19,319.5 " fill="none" id="Company-to-EmployeeStore" style="stroke:#181818;stroke-width:1.0;"/><polygon fill="#181818" points="1370.25,319.5,1361.25,315.5,1365.25,319.5,1361.25,323.5,1370.25,319.5" style="stroke:#181818;stroke-width:1.0;"/><text fill="#000000" font-family="sans-serif" font-size="13" lengthAdjust="spacing" textLength="28" x="1324" y="312.9951">uses</text><text fill="#000000" font-family="sans-serif" font-size="13" lengthAdjust="spacing" textLength="7" x="1313.6381" y="316.5302">1</text><text fill="#000000" font-family="sans-serif" font-size="13" lengthAdjust="spacing" textLength="7" x="1355.6574" y="316.6256">1</text></g><!--MD5=[fb893e62f8b20d0d4d4418da41d6e06b]
link EmployeeStore to CenterCoordinator--><g id="link_EmployeeStore_CenterCoordinator"><path codeLine="65" d="M1676.66,319.5 C1699.31,319.5 1722.6,319.5 1745.14,319.5 " fill="none" id="EmployeeStore-to-CenterCoordinator" style="stroke:#181818;stroke-width:1.0;"/><polygon fill="#181818" points="1750.25,319.5,1741.25,315.5,1745.25,319.5,1741.25,323.5,1750.25,319.5" style="stroke:#181818;stroke-width:1.0;"/><text fill="#000000" font-family="sans-serif" font-size="13" lengthAdjust="spacing" textLength="37" x="1695" y="312.9951">knows</text><text fill="#000000" font-family="sans-serif" font-size="13" lengthAdjust="spacing" textLength="7" x="1684.7378" y="316.6018">1</text><text fill="#000000" font-family="sans-serif" font-size="13" lengthAdjust="spacing" textLength="5" x="1737.2793" y="316.5779">*</text></g><!--MD5=[d5cf03d886352995267197dc535618ec]
link CenterCoordinator to VaccinationCenter--><g id="link_CenterCoordinator_VaccinationCenter"><path codeLine="66" d="M2036.52,319.5 C2062.9,319.5 2091.27,319.5 2120.14,319.5 " fill="none" id="CenterCoordinator-to-VaccinationCenter" style="stroke:#181818;stroke-width:1.0;"/><polygon fill="#181818" points="2125.16,319.5,2116.16,315.5,2120.16,319.5,2116.16,323.5,2125.16,319.5" style="stroke:#181818;stroke-width:1.0;"/><text fill="#000000" font-family="sans-serif" font-size="13" lengthAdjust="spacing" textLength="52" x="2055" y="312.9951">works on</text><text fill="#000000" font-family="sans-serif" font-size="13" lengthAdjust="spacing" textLength="7" x="2044.5328" y="316.5779">1</text><text fill="#000000" font-family="sans-serif" font-size="13" lengthAdjust="spacing" textLength="7" x="2110.6471" y="316.7925">1</text></g><!--MD5=[dcb9d0d4d922990057568a1038e0a0af]
link VaccinationCenter to AppointmentStore--><g id="link_VaccinationCenter_AppointmentStore"><path codeLine="68" d="M2683.67,319.5 C2701.06,319.5 2718.58,319.5 2736.01,319.5 " fill="none" id="VaccinationCenter-to-AppointmentStore" style="stroke:#181818;stroke-width:1.0;"/><polygon fill="#181818" points="2741.41,319.5,2732.41,315.5,2736.41,319.5,2732.41,323.5,2741.41,319.5" style="stroke:#181818;stroke-width:1.0;"/><text fill="#000000" font-family="sans-serif" font-size="13" lengthAdjust="spacing" textLength="21" x="2702" y="312.9951">has</text><text fill="#000000" font-family="sans-serif" font-size="13" lengthAdjust="spacing" textLength="7" x="2691.1784" y="316.7925">1</text><text fill="#000000" font-family="sans-serif" font-size="13" lengthAdjust="spacing" textLength="7" x="2726.8506" y="316.7844">1</text></g><!--MD5=[6bee4428fa029b10117c8017dc752ad2]
link Appointment to Vaccine--><g id="link_Appointment_Vaccine"><path codeLine="70" d="M116.55,295.47 C134.35,288.6 154.46,281.92 173.5,278 C488.82,213.08 575.16,250.78 897,243 C1435.68,229.98 2786.79,211.49 3321.5,278 C3336.25,279.84 3351.57,282.42 3366.74,285.42 " fill="none" id="Appointment-to-Vaccine" style="stroke:#181818;stroke-width:1.0;"/><polygon fill="#181818" points="3371.88,286.45,3363.8456,280.7536,3366.9782,285.4639,3362.2679,288.5965,3371.88,286.45" style="stroke:#181818;stroke-width:1.0;"/><text fill="#000000" font-family="sans-serif" font-size="13" lengthAdjust="spacing" textLength="37" x="898" y="244.4951">knows</text><text fill="#000000" font-family="sans-serif" font-size="13" lengthAdjust="spacing" textLength="20" x="107.8378" y="284.8025">1..*</text><text fill="#000000" font-family="sans-serif" font-size="13" lengthAdjust="spacing" textLength="7" x="3338.4553" y="275.5551">1</text></g><!--MD5=[4a3db2a9bed81f841a688803a756f4d4]
@startuml
skinparam classAttributeIconSize 0
class UserSession{
  +getUserID(): String
}

class APP {
  +getInstance(): APP
  +getCurrentUserSession(): UserSession
}

class AppointmentStore {
  -listAppointment: List<Appointment>
  +getNumberOfFullyVaccinated(initialDate:LocalDate,finalDate:LocalDate): List<Integer>
}

class Company {
 +getEmployeeStore(): EmployeeStore
}
class EmployeeStore{
+findEmployeeByEmail(email:Email): Employee
}
class VaccinationCenter {
  + getNumberOfFullyVaccinated(initialDate:LocalDate,finalDate:LocalDate):List<Integer>
}
class CenterCoordinator{
+getVaccinationCenter():VaccinationCenter
}

class CheckAndExportVaccinationStatisticsController {
  +getVaccinationStatistics(initialDate:LocalDate,finalDate:LocalDate): List<Integer>
}

class CheckAndExportVaccinationStatisticsUI {
+ exportToCSVFile(fullVaccinatedArray: List<Integer>, fileName:String):void
}
class SNSUser{
+getAge():int
}
class Appointment{}
class AdministrationProcess{
-numberOfDoses:int
+getTotalNumberOfDoses():int
}

class Vaccine{
+getAdmProcess(age:int):AdministrationProcess
}


CheckAndExportVaccinationStatisticsUI ..> CheckAndExportVaccinationStatisticsController
CheckAndExportVaccinationStatisticsController ..> VaccinationCenter
CheckAndExportVaccinationStatisticsController ..> AppointmentStore
Appointment "1..*" -> "1" SNSUser: knows
CheckAndExportVaccinationStatisticsController ..> APP
CheckAndExportVaccinationStatisticsController ..> Company
CheckAndExportVaccinationStatisticsController ..> EmployeeStore
CheckAndExportVaccinationStatisticsController ..> CenterCoordinator
CheckAndExportVaccinationStatisticsController ..> UserSession
CheckAndExportVaccinationStatisticsController ..> SNSUser
CheckAndExportVaccinationStatisticsController ..> AdministrationProcess
CheckAndExportVaccinationStatisticsController ..> Vaccine
Appointment "1..*" -> "1" AdministrationProcess: has
APP "1" -> "1" UserSession: has
Company "1" ->  "1" EmployeeStore: uses
EmployeeStore "1" -> "*" CenterCoordinator: knows
CenterCoordinator "1" -> "1" VaccinationCenter: works on

VaccinationCenter "1" ->  "1" AppointmentStore: has

Appointment "1..*" -> "1" Vaccine: knows


@enduml

PlantUML version 1.2022.5(Sat Apr 30 11:55:52 BST 2022)
(GPL source distribution)
Java Runtime: OpenJDK Runtime Environment
JVM: OpenJDK 64-Bit Server VM
Default Encoding: Cp1252
Language: pt
Country: PT
--></g></svg>