<?xml version="1.0" encoding="UTF-8" standalone="no"?><svg xmlns="http://www.w3.org/2000/svg" xmlns:xlink="http://www.w3.org/1999/xlink" contentStyleType="text/css" height="790px" preserveAspectRatio="none" style="width:1567px;height:790px;background:#FFFFFF;" version="1.1" viewBox="0 0 1567 790" width="1567px" zoomAndPan="magnify"><defs/><g><rect fill="#FFFFFF" height="598.2578" style="stroke:#181818;stroke-width:1.0;" width="10" x="64" y="92.6094"/><rect fill="#FFFFFF" height="575.9063" style="stroke:#181818;stroke-width:1.0;" width="10" x="304" y="114.9609"/><rect fill="#FFFFFF" height="28" style="stroke:#181818;stroke-width:1.0;" width="10" x="309" y="625.5156"/><rect fill="#FFFFFF" height="91.8906" style="stroke:#181818;stroke-width:1.0;" width="10" x="618" y="206.0156"/><rect fill="#FFFFFF" height="325.2578" style="stroke:#181818;stroke-width:1.0;" width="10" x="618" y="328.2578"/><rect fill="#FFFFFF" height="137.5" style="stroke:#181818;stroke-width:1.0;" width="10" x="950" y="358.6094"/><rect fill="#FFFFFF" height="107.1484" style="stroke:#181818;stroke-width:1.0;" width="10" x="1282" y="388.9609"/><line style="stroke:#181818;stroke-width:0.5;stroke-dasharray:5.0,5.0;" x1="69" x2="69" y1="82.6094" y2="708.8672"/><line style="stroke:#181818;stroke-width:0.5;stroke-dasharray:5.0,5.0;" x1="309" x2="309" y1="82.6094" y2="708.8672"/><line style="stroke:#181818;stroke-width:0.5;stroke-dasharray:5.0,5.0;" x1="623" x2="623" y1="82.6094" y2="708.8672"/><line style="stroke:#181818;stroke-width:0.5;stroke-dasharray:5.0,5.0;" x1="955" x2="955" y1="82.6094" y2="708.8672"/><line style="stroke:#181818;stroke-width:0.5;stroke-dasharray:5.0,5.0;" x1="1286.5" x2="1286.5" y1="82.6094" y2="708.8672"/><text fill="#000000" font-family="sans-serif" font-size="14" lengthAdjust="spacing" textLength="122" x="5" y="79.5332">Center Coordinator</text><ellipse cx="69" cy="13.5" fill="#E2E2F0" rx="8" ry="8" style="stroke:#181818;stroke-width:0.5;"/><path d="M69,21.5 L69,48.5 M56,29.5 L82,29.5 M69,48.5 L56,63.5 M69,48.5 L82,63.5 " fill="none" style="stroke:#181818;stroke-width:0.5;"/><text fill="#000000" font-family="sans-serif" font-size="14" lengthAdjust="spacing" textLength="122" x="5" y="722.4004">Center Coordinator</text><ellipse cx="69" cy="733.9766" fill="#E2E2F0" rx="8" ry="8" style="stroke:#181818;stroke-width:0.5;"/><path d="M69,741.9766 L69,768.9766 M56,749.9766 L82,749.9766 M69,768.9766 L56,783.9766 M69,768.9766 L82,783.9766 " fill="none" style="stroke:#181818;stroke-width:0.5;"/><rect fill="#E2E2F0" height="31.6094" rx="2.5" ry="2.5" style="stroke:#181818;stroke-width:0.5;" width="260" x="179" y="50"/><text fill="#000000" font-family="sans-serif" font-size="14" lengthAdjust="spacing" textLength="246" x="186" y="71.5332">CheckAndExportVaccinationStatisticsUI</text><rect fill="#E2E2F0" height="31.6094" rx="2.5" ry="2.5" style="stroke:#181818;stroke-width:0.5;" width="260" x="179" y="707.8672"/><text fill="#000000" font-family="sans-serif" font-size="14" lengthAdjust="spacing" textLength="246" x="186" y="729.4004">CheckAndExportVaccinationStatisticsUI</text><rect fill="#E2E2F0" height="31.6094" rx="2.5" ry="2.5" style="stroke:#181818;stroke-width:0.5;" width="310" x="468" y="50"/><text fill="#000000" font-family="sans-serif" font-size="14" lengthAdjust="spacing" textLength="296" x="475" y="71.5332">CheckAndExportVaccinationStatisticsController</text><rect fill="#E2E2F0" height="31.6094" rx="2.5" ry="2.5" style="stroke:#181818;stroke-width:0.5;" width="310" x="468" y="707.8672"/><text fill="#000000" font-family="sans-serif" font-size="14" lengthAdjust="spacing" textLength="296" x="475" y="729.4004">CheckAndExportVaccinationStatisticsController</text><rect fill="#E2E2F0" height="31.6094" rx="2.5" ry="2.5" style="stroke:#181818;stroke-width:0.5;" width="130" x="890" y="50"/><text fill="#000000" font-family="sans-serif" font-size="14" lengthAdjust="spacing" textLength="116" x="897" y="71.5332">VaccinationCenter</text><rect fill="#E2E2F0" height="31.6094" rx="2.5" ry="2.5" style="stroke:#181818;stroke-width:0.5;" width="130" x="890" y="707.8672"/><text fill="#000000" font-family="sans-serif" font-size="14" lengthAdjust="spacing" textLength="116" x="897" y="729.4004">VaccinationCenter</text><rect fill="#E2E2F0" height="31.6094" rx="2.5" ry="2.5" style="stroke:#181818;stroke-width:0.5;" width="127" x="1223.5" y="50"/><text fill="#000000" font-family="sans-serif" font-size="14" lengthAdjust="spacing" textLength="113" x="1230.5" y="71.5332">AppointmentStore</text><rect fill="#E2E2F0" height="31.6094" rx="2.5" ry="2.5" style="stroke:#181818;stroke-width:0.5;" width="127" x="1223.5" y="707.8672"/><text fill="#000000" font-family="sans-serif" font-size="14" lengthAdjust="spacing" textLength="113" x="1230.5" y="729.4004">AppointmentStore</text><rect fill="#FFFFFF" height="598.2578" style="stroke:#181818;stroke-width:1.0;" width="10" x="64" y="92.6094"/><rect fill="#FFFFFF" height="575.9063" style="stroke:#181818;stroke-width:1.0;" width="10" x="304" y="114.9609"/><rect fill="#FFFFFF" height="28" style="stroke:#181818;stroke-width:1.0;" width="10" x="309" y="625.5156"/><rect fill="#FFFFFF" height="91.8906" style="stroke:#181818;stroke-width:1.0;" width="10" x="618" y="206.0156"/><rect fill="#FFFFFF" height="325.2578" style="stroke:#181818;stroke-width:1.0;" width="10" x="618" y="328.2578"/><rect fill="#FFFFFF" height="137.5" style="stroke:#181818;stroke-width:1.0;" width="10" x="950" y="358.6094"/><rect fill="#FFFFFF" height="107.1484" style="stroke:#181818;stroke-width:1.0;" width="10" x="1282" y="388.9609"/><polygon fill="#181818" points="292,110.9609,302,114.9609,292,118.9609,296,114.9609" style="stroke:#181818;stroke-width:1.0;"/><line style="stroke:#181818;stroke-width:1.0;" x1="74" x2="298" y1="114.9609" y2="114.9609"/><text fill="#000000" font-family="sans-serif" font-size="13" font-weight="bold" lengthAdjust="spacing" textLength="7" x="81" y="110.1045">1</text><text fill="#000000" font-family="sans-serif" font-size="13" lengthAdjust="spacing" textLength="200" x="92" y="110.1045">ask to check vaccination statistics</text><polygon fill="#181818" points="85,141.3125,75,145.3125,85,149.3125,81,145.3125" style="stroke:#181818;stroke-width:1.0;"/><line style="stroke:#181818;stroke-width:1.0;stroke-dasharray:2.0,2.0;" x1="79" x2="303" y1="145.3125" y2="145.3125"/><text fill="#000000" font-family="sans-serif" font-size="13" font-weight="bold" lengthAdjust="spacing" textLength="7" x="91" y="140.4561">2</text><text fill="#000000" font-family="sans-serif" font-size="13" lengthAdjust="spacing" textLength="123" x="102" y="140.4561">requests date interval</text><polygon fill="#181818" points="292,171.6641,302,175.6641,292,179.6641,296,175.6641" style="stroke:#181818;stroke-width:1.0;"/><line style="stroke:#181818;stroke-width:1.0;" x1="74" x2="298" y1="175.6641" y2="175.6641"/><text fill="#000000" font-family="sans-serif" font-size="13" font-weight="bold" lengthAdjust="spacing" textLength="7" x="81" y="170.8076">3</text><text fill="#000000" font-family="sans-serif" font-size="13" lengthAdjust="spacing" textLength="122" x="92" y="170.8076">types requested data</text><polygon fill="#181818" points="606,202.0156,616,206.0156,606,210.0156,610,206.0156" style="stroke:#181818;stroke-width:1.0;"/><line style="stroke:#181818;stroke-width:1.0;" x1="314" x2="612" y1="206.0156" y2="206.0156"/><text fill="#000000" font-family="sans-serif" font-size="13" font-weight="bold" lengthAdjust="spacing" textLength="7" x="321" y="201.1592">4</text><text fill="#000000" font-family="sans-serif" font-size="13" lengthAdjust="spacing" textLength="150" x="332" y="201.1592">getCCVaccinationCenter()</text><a href="US015_SD_CheckAndExportVaccinationStatisticsController_getCCVaccinationCenter.puml" target="_top" title="US015_SD_CheckAndExportVaccinationStatisticsController_getCCVaccinationCenter.puml" xlink:actuate="onRequest" xlink:href="US015_SD_CheckAndExportVaccinationStatisticsController_getCCVaccinationCenter.puml" xlink:show="new" xlink:title="US015_SD_CheckAndExportVaccinationStatisticsController_getCCVaccinationCenter.puml" xlink:type="simple"><rect height="56.5391" style="stroke:#000000;stroke-width:1.5;fill:none;" width="316" x="465" y="214.0156"/><path d="M465,214.0156 L527,214.0156 L527,222.0156 L517,232.0156 L465,232.0156 L465,214.0156 " fill="#EEEEEE" style="stroke:#000000;stroke-width:2.0;"/><text fill="#000000" font-family="sans-serif" font-size="13" font-weight="bold" lengthAdjust="spacing" textLength="17" x="478" y="229.5107">ref</text><text fill="#000000" font-family="sans-serif" font-size="12" lengthAdjust="spacing" textLength="222" x="512" y="248.4727">US015_SD_CheckAndExportVaccination</text><text fill="#000000" font-family="sans-serif" font-size="12" lengthAdjust="spacing" textLength="246" x="500" y="263.5664">StatisticsController_getCCVaccinationCenter</text></a><polygon fill="#181818" points="325,293.9063,315,297.9063,325,301.9063,321,297.9063" style="stroke:#181818;stroke-width:1.0;"/><line style="stroke:#181818;stroke-width:1.0;stroke-dasharray:2.0,2.0;" x1="319" x2="622" y1="297.9063" y2="297.9063"/><text fill="#000000" font-family="sans-serif" font-size="13" font-weight="bold" lengthAdjust="spacing" textLength="7" x="331" y="293.0498">5</text><text fill="#000000" font-family="sans-serif" font-size="13" lengthAdjust="spacing" textLength="4" x="342" y="293.0498"> </text><polygon fill="#181818" points="606,324.2578,616,328.2578,606,332.2578,610,328.2578" style="stroke:#181818;stroke-width:1.0;"/><line style="stroke:#181818;stroke-width:1.0;" x1="314" x2="612" y1="328.2578" y2="328.2578"/><text fill="#000000" font-family="sans-serif" font-size="13" font-weight="bold" lengthAdjust="spacing" textLength="7" x="321" y="323.4014">6</text><text fill="#000000" font-family="sans-serif" font-size="13" lengthAdjust="spacing" textLength="264" x="332" y="323.4014">getVaccinationStatistics(initialDate, finalDate)</text><polygon fill="#181818" points="938,354.6094,948,358.6094,938,362.6094,942,358.6094" style="stroke:#181818;stroke-width:1.0;"/><line style="stroke:#181818;stroke-width:1.0;" x1="628" x2="944" y1="358.6094" y2="358.6094"/><text fill="#000000" font-family="sans-serif" font-size="13" font-weight="bold" lengthAdjust="spacing" textLength="7" x="635" y="353.7529">7</text><text fill="#000000" font-family="sans-serif" font-size="13" lengthAdjust="spacing" textLength="292" x="646" y="353.7529">getNumberOfFullyVaccinated(initialDate, finalDate)</text><polygon fill="#181818" points="1270,384.9609,1280,388.9609,1270,392.9609,1274,388.9609" style="stroke:#181818;stroke-width:1.0;"/><line style="stroke:#181818;stroke-width:1.0;" x1="960" x2="1276" y1="388.9609" y2="388.9609"/><text fill="#000000" font-family="sans-serif" font-size="13" font-weight="bold" lengthAdjust="spacing" textLength="7" x="967" y="384.1045">8</text><text fill="#000000" font-family="sans-serif" font-size="13" lengthAdjust="spacing" textLength="292" x="978" y="384.1045">getNumberOfFullyVaccinated(initialDate, finalDate)</text><a href="US015_SD_AppointmentStore_getNumberOfFullyVaccinated.puml" target="_top" title="US015_SD_AppointmentStore_getNumberOfFullyVaccinated.puml" xlink:actuate="onRequest" xlink:href="US015_SD_AppointmentStore_getNumberOfFullyVaccinated.puml" xlink:show="new" xlink:title="US015_SD_AppointmentStore_getNumberOfFullyVaccinated.puml" xlink:type="simple"><rect height="41.4453" style="stroke:#000000;stroke-width:1.5;fill:none;" width="341" x="1220.5" y="396.9609"/><path d="M1220.5,396.9609 L1282.5,396.9609 L1282.5,404.9609 L1272.5,414.9609 L1220.5,414.9609 L1220.5,396.9609 " fill="#EEEEEE" style="stroke:#000000;stroke-width:2.0;"/><text fill="#000000" font-family="sans-serif" font-size="13" font-weight="bold" lengthAdjust="spacing" textLength="17" x="1233.5" y="412.4561">ref</text><text fill="#000000" font-family="sans-serif" font-size="12" lengthAdjust="spacing" textLength="333" x="1224.5" y="431.418">US015_SD_AppointmentStore_getNumberOfFullyVaccinated</text></a><polygon fill="#181818" points="971,461.7578,961,465.7578,971,469.7578,967,465.7578" style="stroke:#181818;stroke-width:1.0;"/><line style="stroke:#181818;stroke-width:1.0;stroke-dasharray:2.0,2.0;" x1="965" x2="1281" y1="465.7578" y2="465.7578"/><text fill="#000000" font-family="sans-serif" font-size="13" font-weight="bold" lengthAdjust="spacing" textLength="7" x="977" y="460.9014">9</text><text fill="#000000" font-family="sans-serif" font-size="13" lengthAdjust="spacing" textLength="112" x="988" y="460.9014">fullVaccinatedArray</text><polygon fill="#181818" points="639,492.1094,629,496.1094,639,500.1094,635,496.1094" style="stroke:#181818;stroke-width:1.0;"/><line style="stroke:#181818;stroke-width:1.0;stroke-dasharray:2.0,2.0;" x1="633" x2="954" y1="496.1094" y2="496.1094"/><text fill="#000000" font-family="sans-serif" font-size="13" font-weight="bold" lengthAdjust="spacing" textLength="14" x="645" y="491.2529">10</text><text fill="#000000" font-family="sans-serif" font-size="13" lengthAdjust="spacing" textLength="112" x="663" y="491.2529">fullVaccinatedArray</text><polygon fill="#181818" points="325,522.4609,315,526.4609,325,530.4609,321,526.4609" style="stroke:#181818;stroke-width:1.0;"/><line style="stroke:#181818;stroke-width:1.0;stroke-dasharray:2.0,2.0;" x1="319" x2="617" y1="526.4609" y2="526.4609"/><text fill="#000000" font-family="sans-serif" font-size="13" font-weight="bold" lengthAdjust="spacing" textLength="14" x="331" y="521.6045">11</text><text fill="#000000" font-family="sans-serif" font-size="13" lengthAdjust="spacing" textLength="112" x="349" y="521.6045">fullVaccinatedArray</text><polygon fill="#181818" points="85,552.8125,75,556.8125,85,560.8125,81,556.8125" style="stroke:#181818;stroke-width:1.0;"/><line style="stroke:#181818;stroke-width:1.0;stroke-dasharray:2.0,2.0;" x1="79" x2="303" y1="556.8125" y2="556.8125"/><text fill="#000000" font-family="sans-serif" font-size="13" font-weight="bold" lengthAdjust="spacing" textLength="14" x="91" y="551.9561">12</text><text fill="#000000" font-family="sans-serif" font-size="13" lengthAdjust="spacing" textLength="106" x="109" y="551.9561">asks the file name</text><polygon fill="#181818" points="292,583.1641,302,587.1641,292,591.1641,296,587.1641" style="stroke:#181818;stroke-width:1.0;"/><line style="stroke:#181818;stroke-width:1.0;" x1="74" x2="298" y1="587.1641" y2="587.1641"/><text fill="#000000" font-family="sans-serif" font-size="13" font-weight="bold" lengthAdjust="spacing" textLength="14" x="81" y="582.3076">13</text><text fill="#000000" font-family="sans-serif" font-size="13" lengthAdjust="spacing" textLength="110" x="99" y="582.3076">types the file name</text><line style="stroke:#181818;stroke-width:1.0;" x1="319" x2="361" y1="617.5156" y2="617.5156"/><line style="stroke:#181818;stroke-width:1.0;" x1="361" x2="361" y1="617.5156" y2="630.5156"/><line style="stroke:#181818;stroke-width:1.0;" x1="320" x2="361" y1="630.5156" y2="630.5156"/><polygon fill="#181818" points="330,626.5156,320,630.5156,330,634.5156,326,630.5156" style="stroke:#181818;stroke-width:1.0;"/><text fill="#000000" font-family="sans-serif" font-size="13" font-weight="bold" lengthAdjust="spacing" textLength="14" x="326" y="612.6592">14</text><text fill="#000000" font-family="sans-serif" font-size="13" lengthAdjust="spacing" textLength="272" x="344" y="612.6592">exportToCSVFile(fullVaccinatedArray,fileName)</text><polygon fill="#181818" points="80,686.8672,70,690.8672,80,694.8672,76,690.8672" style="stroke:#181818;stroke-width:1.0;"/><line style="stroke:#181818;stroke-width:1.0;stroke-dasharray:2.0,2.0;" x1="74" x2="308" y1="690.8672" y2="690.8672"/><text fill="#000000" font-family="sans-serif" font-size="13" font-weight="bold" lengthAdjust="spacing" textLength="14" x="86" y="686.0107">15</text><text fill="#000000" font-family="sans-serif" font-size="13" lengthAdjust="spacing" textLength="159" x="104" y="686.0107">confirms operation success</text><!--MD5=[8432ff6ff8e3cf64dbd7dbfb4a7cb9b0]
@startuml
autonumber
actor "Center Coordinator" as CC
participant "CheckAndExportVaccinationStatisticsUI" as UI
participant "CheckAndExportVaccinationStatisticsController" as CTRL
participant "VaccinationCenter" as VC
participant "AppointmentStore" as AppointmentStore


activate CC
CC -> UI: ask to check vaccination statistics
activate UI
UI - -> CC: requests date interval
CC -> UI: types requested data
UI-> CTRL:getCCVaccinationCenter()
activate CTRL
ref over CTRL [[US015_SD_CheckAndExportVaccinationStatisticsController_getCCVaccinationCenter.puml]]:US015_SD_CheckAndExportVaccination\nStatisticsController_getCCVaccinationCenter
CTRL- ->UI
deactivate CTRL
UI -> CTRL: getVaccinationStatistics(initialDate, finalDate)
activate CTRL




CTRL -> VC: getNumberOfFullyVaccinated(initialDate, finalDate)
activate VC

VC -> AppointmentStore : getNumberOfFullyVaccinated(initialDate, finalDate)
ref over AppointmentStore [[US015_SD_AppointmentStore_getNumberOfFullyVaccinated.puml]] : US015_SD_AppointmentStore_getNumberOfFullyVaccinated
activate AppointmentStore
AppointmentStore - -> VC:fullVaccinatedArray
VC - -> CTRL:fullVaccinatedArray
deactivate AppointmentStore
deactivate VC
CTRL - -> UI: fullVaccinatedArray
UI- -> CC: asks the file name
CC->UI: types the file name
UI->UI:exportToCSVFile(fullVaccinatedArray,fileName)
activate UI
deactivate UI

deactivate CTRL
UI- -> CC: confirms operation success
deactivate UI
deactivate CC
@enduml

PlantUML version 1.2022.5(Sat Apr 30 11:55:52 BST 2022)
(GPL source distribution)
Java Runtime: OpenJDK Runtime Environment
JVM: OpenJDK 64-Bit Server VM
Default Encoding: Cp1252
Language: pt
Country: PT
--></g></svg>