<?xml version="1.0" encoding="UTF-8" standalone="no"?><svg xmlns="http://www.w3.org/2000/svg" xmlns:xlink="http://www.w3.org/1999/xlink" contentStyleType="text/css" height="548px" preserveAspectRatio="none" style="width:353px;height:548px;background:#FFFFFF;" version="1.1" viewBox="0 0 353 548" width="353px" zoomAndPan="magnify"><defs/><g><!--MD5=[02e4b9b7573f1156f41e60aa5b4e25a4]
class Company--><g id="elem_Company"><rect codeLine="6" fill="#F1F1F1" height="57.6094" id="Company" rx="2.5" ry="2.5" style="stroke:#181818;stroke-width:0.5;" width="92" x="146.5" y="7"/><ellipse cx="161.5" cy="23" fill="#ADD1B2" rx="11" ry="11" style="stroke:#181818;stroke-width:1.0;"/><path d="M163.5,19.5 Q163.7031,19 163.9375,18.75 Q164.1719,18.5 164.4375,18.5 Q164.9063,18.5 165.2031,18.7813 Q165.5,19.0625 165.5,19.7188 L165.5,21.2813 Q165.5,21.9375 165.2188,22.2188 Q164.9375,22.5 164.5,22.5 Q164.1094,22.5 163.8594,22.3281 Q163.6094,22.1563 163.5,21.7031 Q163.4531,21.3906 163.2813,21.2188 Q162.9688,20.8906 162.4063,20.7031 Q161.8438,20.5 161.2813,20.5 Q160.5781,20.5 159.9844,20.7813 Q159.4063,21.0625 158.9531,21.6875 Q158.5,22.3125 158.5,23.1719 L158.5,24.0938 Q158.5,25.125 159.3438,25.8125 Q160.1875,26.5 161.6875,26.5 Q162.5781,26.5 163.2031,26.2969 Q163.5625,26.1875 163.9688,25.8281 Q164.2344,25.625 164.375,25.5625 Q164.5156,25.5 164.6875,25.5 Q165.0156,25.5 165.25,25.7656 Q165.5,26.0156 165.5,26.375 Q165.5,26.7188 165.1563,27.125 Q164.6563,27.7188 163.8594,28.0469 Q162.8125,28.5 161.5313,28.5 Q160.0313,28.5 158.8281,27.9063 Q157.8594,27.4375 157.1719,26.4219 Q156.5,25.4063 156.5,24.2031 L156.5,23.1094 Q156.5,21.8594 157.0938,20.7656 Q157.7031,19.6719 158.75,19.0938 Q159.8125,18.5 161,18.5 Q161.7188,18.5 162.3438,18.75 Q162.9688,19 163.5,19.5 Z " fill="#000000"/><text fill="#000000" font-family="sans-serif" font-size="14" lengthAdjust="spacing" textLength="60" x="175.5" y="28.7285">Company</text><line style="stroke:#181818;stroke-width:0.5;" x1="147.5" x2="237.5" y1="39" y2="39"/><text fill="#000000" font-family="sans-serif" font-size="14" lengthAdjust="spacing" textLength="78" x="152.5" y="57.5332">-designation</text></g><!--MD5=[da547346deef918ea16944ba046651ef]
class Administrator--><g id="elem_Administrator"><rect codeLine="10" fill="#F1F1F1" height="40" id="Administrator" rx="2.5" ry="2.5" style="stroke:#181818;stroke-width:0.5;" width="115" x="7" y="143"/><ellipse cx="22" cy="159" fill="#ADD1B2" rx="11" ry="11" style="stroke:#181818;stroke-width:1.0;"/><path d="M24,155.5 Q24.2031,155 24.4375,154.75 Q24.6719,154.5 24.9375,154.5 Q25.4063,154.5 25.7031,154.7813 Q26,155.0625 26,155.7188 L26,157.2813 Q26,157.9375 25.7188,158.2188 Q25.4375,158.5 25,158.5 Q24.6094,158.5 24.3594,158.3281 Q24.1094,158.1563 24,157.7031 Q23.9531,157.3906 23.7813,157.2188 Q23.4688,156.8906 22.9063,156.7031 Q22.3438,156.5 21.7813,156.5 Q21.0781,156.5 20.4844,156.7813 Q19.9063,157.0625 19.4531,157.6875 Q19,158.3125 19,159.1719 L19,160.0938 Q19,161.125 19.8438,161.8125 Q20.6875,162.5 22.1875,162.5 Q23.0781,162.5 23.7031,162.2969 Q24.0625,162.1875 24.4688,161.8281 Q24.7344,161.625 24.875,161.5625 Q25.0156,161.5 25.1875,161.5 Q25.5156,161.5 25.75,161.7656 Q26,162.0156 26,162.375 Q26,162.7188 25.6563,163.125 Q25.1563,163.7188 24.3594,164.0469 Q23.3125,164.5 22.0313,164.5 Q20.5313,164.5 19.3281,163.9063 Q18.3594,163.4375 17.6719,162.4219 Q17,161.4063 17,160.2031 L17,159.1094 Q17,157.8594 17.5938,156.7656 Q18.2031,155.6719 19.25,155.0938 Q20.3125,154.5 21.5,154.5 Q22.2188,154.5 22.8438,154.75 Q23.4688,155 24,155.5 Z " fill="#000000"/><text fill="#000000" font-family="sans-serif" font-size="14" lengthAdjust="spacing" textLength="83" x="36" y="164.7285">Administrator</text><line style="stroke:#181818;stroke-width:0.5;" x1="8" x2="121" y1="175" y2="175"/></g><!--MD5=[3fd616f346a44cd59a91eb10b19e157c]
class User--><g id="elem_User"><rect codeLine="12" fill="#F1F1F1" height="92.8281" id="User" rx="2.5" ry="2.5" style="stroke:#181818;stroke-width:0.5;" width="77" x="136" y="449"/><ellipse cx="158.2" cy="465" fill="#ADD1B2" rx="11" ry="11" style="stroke:#181818;stroke-width:1.0;"/><path d="M160.2,461.5 Q160.4031,461 160.6375,460.75 Q160.8719,460.5 161.1375,460.5 Q161.6063,460.5 161.9031,460.7813 Q162.2,461.0625 162.2,461.7188 L162.2,463.2813 Q162.2,463.9375 161.9188,464.2188 Q161.6375,464.5 161.2,464.5 Q160.8094,464.5 160.5594,464.3281 Q160.3094,464.1563 160.2,463.7031 Q160.1531,463.3906 159.9813,463.2188 Q159.6688,462.8906 159.1063,462.7031 Q158.5438,462.5 157.9813,462.5 Q157.2781,462.5 156.6844,462.7813 Q156.1063,463.0625 155.6531,463.6875 Q155.2,464.3125 155.2,465.1719 L155.2,466.0938 Q155.2,467.125 156.0438,467.8125 Q156.8875,468.5 158.3875,468.5 Q159.2781,468.5 159.9031,468.2969 Q160.2625,468.1875 160.6688,467.8281 Q160.9344,467.625 161.075,467.5625 Q161.2156,467.5 161.3875,467.5 Q161.7156,467.5 161.95,467.7656 Q162.2,468.0156 162.2,468.375 Q162.2,468.7188 161.8563,469.125 Q161.3563,469.7188 160.5594,470.0469 Q159.5125,470.5 158.2313,470.5 Q156.7313,470.5 155.5281,469.9063 Q154.5594,469.4375 153.8719,468.4219 Q153.2,467.4063 153.2,466.2031 L153.2,465.1094 Q153.2,463.8594 153.7938,462.7656 Q154.4031,461.6719 155.45,461.0938 Q156.5125,460.5 157.7,460.5 Q158.4188,460.5 159.0438,460.75 Q159.6688,461 160.2,461.5 Z " fill="#000000"/><text fill="#000000" font-family="sans-serif" font-size="14" lengthAdjust="spacing" textLength="29" x="173.8" y="470.7285">User</text><line style="stroke:#181818;stroke-width:0.5;" x1="137" x2="212" y1="481" y2="481"/><text fill="#000000" font-family="sans-serif" font-size="14" lengthAdjust="spacing" textLength="40" x="142" y="499.5332">-name</text><text fill="#000000" font-family="sans-serif" font-size="14" lengthAdjust="spacing" textLength="38" x="142" y="517.1426">-eMail</text><text fill="#000000" font-family="sans-serif" font-size="14" lengthAdjust="spacing" textLength="65" x="142" y="534.752">-password</text></g><!--MD5=[a3638c1e5b65d287ecad7f06f5c0f212]
class Role--><g id="elem_Role"><rect codeLine="18" fill="#F1F1F1" height="75.2188" id="Role" rx="2.5" ry="2.5" style="stroke:#181818;stroke-width:0.5;" width="90" x="256.5" y="458"/><ellipse cx="284.55" cy="474" fill="#ADD1B2" rx="11" ry="11" style="stroke:#181818;stroke-width:1.0;"/><path d="M286.55,470.5 Q286.7531,470 286.9875,469.75 Q287.2219,469.5 287.4875,469.5 Q287.9563,469.5 288.2531,469.7813 Q288.55,470.0625 288.55,470.7188 L288.55,472.2813 Q288.55,472.9375 288.2688,473.2188 Q287.9875,473.5 287.55,473.5 Q287.1594,473.5 286.9094,473.3281 Q286.6594,473.1563 286.55,472.7031 Q286.5031,472.3906 286.3313,472.2188 Q286.0188,471.8906 285.4563,471.7031 Q284.8938,471.5 284.3313,471.5 Q283.6281,471.5 283.0344,471.7813 Q282.4563,472.0625 282.0031,472.6875 Q281.55,473.3125 281.55,474.1719 L281.55,475.0938 Q281.55,476.125 282.3938,476.8125 Q283.2375,477.5 284.7375,477.5 Q285.6281,477.5 286.2531,477.2969 Q286.6125,477.1875 287.0188,476.8281 Q287.2844,476.625 287.425,476.5625 Q287.5656,476.5 287.7375,476.5 Q288.0656,476.5 288.3,476.7656 Q288.55,477.0156 288.55,477.375 Q288.55,477.7188 288.2063,478.125 Q287.7063,478.7188 286.9094,479.0469 Q285.8625,479.5 284.5813,479.5 Q283.0813,479.5 281.8781,478.9063 Q280.9094,478.4375 280.2219,477.4219 Q279.55,476.4063 279.55,475.2031 L279.55,474.1094 Q279.55,472.8594 280.1438,471.7656 Q280.7531,470.6719 281.8,470.0938 Q282.8625,469.5 284.05,469.5 Q284.7688,469.5 285.3938,469.75 Q286.0188,470 286.55,470.5 Z " fill="#000000"/><text fill="#000000" font-family="sans-serif" font-size="14" lengthAdjust="spacing" textLength="29" x="301.45" y="479.7285">Role</text><line style="stroke:#181818;stroke-width:0.5;" x1="257.5" x2="345.5" y1="490" y2="490"/><text fill="#000000" font-family="sans-serif" font-size="14" lengthAdjust="spacing" textLength="78" x="262.5" y="508.5332">-designation</text><text fill="#000000" font-family="sans-serif" font-size="14" lengthAdjust="spacing" textLength="40" x="262.5" y="526.1426">-roleId</text></g><!--MD5=[7421f545a0d8420c5bec41e74b387d9c]
class Employee--><g id="elem_Employee"><rect codeLine="23" fill="#F1F1F1" height="110.4375" id="Employee" rx="2.5" ry="2.5" style="stroke:#181818;stroke-width:0.5;" width="106" x="130.5" y="261"/><ellipse cx="150.9" cy="277" fill="#ADD1B2" rx="11" ry="11" style="stroke:#181818;stroke-width:1.0;"/><path d="M152.9,273.5 Q153.1031,273 153.3375,272.75 Q153.5719,272.5 153.8375,272.5 Q154.3063,272.5 154.6031,272.7813 Q154.9,273.0625 154.9,273.7188 L154.9,275.2813 Q154.9,275.9375 154.6188,276.2188 Q154.3375,276.5 153.9,276.5 Q153.5094,276.5 153.2594,276.3281 Q153.0094,276.1563 152.9,275.7031 Q152.8531,275.3906 152.6813,275.2188 Q152.3688,274.8906 151.8063,274.7031 Q151.2438,274.5 150.6813,274.5 Q149.9781,274.5 149.3844,274.7813 Q148.8063,275.0625 148.3531,275.6875 Q147.9,276.3125 147.9,277.1719 L147.9,278.0938 Q147.9,279.125 148.7438,279.8125 Q149.5875,280.5 151.0875,280.5 Q151.9781,280.5 152.6031,280.2969 Q152.9625,280.1875 153.3688,279.8281 Q153.6344,279.625 153.775,279.5625 Q153.9156,279.5 154.0875,279.5 Q154.4156,279.5 154.65,279.7656 Q154.9,280.0156 154.9,280.375 Q154.9,280.7188 154.5563,281.125 Q154.0563,281.7188 153.2594,282.0469 Q152.2125,282.5 150.9313,282.5 Q149.4313,282.5 148.2281,281.9063 Q147.2594,281.4375 146.5719,280.4219 Q145.9,279.4063 145.9,278.2031 L145.9,277.1094 Q145.9,275.8594 146.4938,274.7656 Q147.1031,273.6719 148.15,273.0938 Q149.2125,272.5 150.4,272.5 Q151.1188,272.5 151.7438,272.75 Q152.3688,273 152.9,273.5 Z " fill="#000000"/><text fill="#000000" font-family="sans-serif" font-size="14" lengthAdjust="spacing" textLength="62" x="166.1" y="282.7285">Employee</text><line style="stroke:#181818;stroke-width:0.5;" x1="131.5" x2="235.5" y1="293" y2="293"/><text fill="#000000" font-family="sans-serif" font-size="14" lengthAdjust="spacing" textLength="16" x="136.5" y="311.5332">-id</text><text fill="#000000" font-family="sans-serif" font-size="14" lengthAdjust="spacing" textLength="56" x="136.5" y="329.1426">-address</text><text fill="#000000" font-family="sans-serif" font-size="14" lengthAdjust="spacing" textLength="94" x="136.5" y="346.752">-phoneNumber</text><text fill="#000000" font-family="sans-serif" font-size="14" lengthAdjust="spacing" textLength="68" x="136.5" y="364.3613">-ccNumber</text></g><!--MD5=[09366576ee87d48d594df10cacc83f45]
link Company to Employee--><g id="link_Company_Employee"><path codeLine="29" d="M191.59,65.19 C190.11,110.95 187.15,202.17 185.25,260.81 " fill="none" id="Company-Employee" style="stroke:#181818;stroke-width:1.0;"/><polygon fill="#000000" points="194.338,168.1732,197.5684,159.228,191.6936,159.0376,194.338,168.1732" style="stroke:#000000;stroke-width:1.0;"/><text fill="#000000" font-family="sans-serif" font-size="13" lengthAdjust="spacing" textLength="49" x="203.5" y="168.4951">employs</text><text fill="#000000" font-family="sans-serif" font-size="13" lengthAdjust="spacing" textLength="7" x="183.7218" y="86.08">1</text><text fill="#000000" font-family="sans-serif" font-size="13" lengthAdjust="spacing" textLength="7" x="178.0258" y="250.2034">1</text></g><!--MD5=[eaea43e34e45c5b9d20b595fc78f1f20]
link Company to Administrator--><g id="link_Company_Administrator"><path codeLine="30" d="M161.99,65.08 C151.89,74.5 140.63,85.12 130.5,95 C114.25,110.84 96.19,129.23 83.07,142.73 " fill="none" id="Company-Administrator" style="stroke:#181818;stroke-width:1.0;"/><polygon fill="#000000" points="131.9359,107.6825,140.4446,103.4337,136.3222,99.2438,131.9359,107.6825" style="stroke:#000000;stroke-width:1.0;"/><text fill="#000000" font-family="sans-serif" font-size="13" lengthAdjust="spacing" textLength="21" x="144.5" y="109.4951">has</text><text fill="#000000" font-family="sans-serif" font-size="13" lengthAdjust="spacing" textLength="7" x="147.9754" y="86.2994">1</text><text fill="#000000" font-family="sans-serif" font-size="13" lengthAdjust="spacing" textLength="5" x="82.7906" y="131.9724">*</text></g><!--MD5=[8f7dd94d56b58fc07b233ccd3dd98f8c]
link Administrator to Employee--><g id="link_Administrator_Employee"><path codeLine="31" d="M73.28,183.02 C80.09,196.9 90.25,215.85 101.5,231 C110.13,242.62 120.28,254.25 130.44,265 " fill="none" id="Administrator-Employee" style="stroke:#181818;stroke-width:1.0;"/><polygon fill="#000000" points="109.3597,226.2772,106.5972,217.1767,101.7757,220.5385,109.3597,226.2772" style="stroke:#000000;stroke-width:1.0;"/><text fill="#000000" font-family="sans-serif" font-size="13" lengthAdjust="spacing" textLength="50" x="115.5" y="227.4951">registers</text><text fill="#000000" font-family="sans-serif" font-size="13" lengthAdjust="spacing" textLength="7" x="67.765" y="204.4452">1</text><text fill="#000000" font-family="sans-serif" font-size="13" lengthAdjust="spacing" textLength="5" x="117.6269" y="254.1922">*</text></g><!--MD5=[22fb9506fac029fc1d2ae00f0eb8d606]
link Employee to User--><g id="link_Employee_User"><path codeLine="32" d="M174.62,371.1 C173.32,381.02 172.19,391.3 171.5,401 C170.93,408.98 171.34,411 171.5,419 C171.69,428.71 172.02,439.11 172.4,448.99 " fill="none" id="Employee-User" style="stroke:#181818;stroke-width:1.0;"/><polygon fill="#000000" points="176.3575,415.1738,179.553,406.2161,173.6775,406.0486,176.3575,415.1738" style="stroke:#000000;stroke-width:1.0;"/><text fill="#000000" font-family="sans-serif" font-size="13" lengthAdjust="spacing" textLength="21" x="185.5" y="415.4951">is a</text><text fill="#000000" font-family="sans-serif" font-size="13" lengthAdjust="spacing" textLength="7" x="165.9564" y="393.0684">1</text><text fill="#000000" font-family="sans-serif" font-size="13" lengthAdjust="spacing" textLength="7" x="164.5425" y="438.1783">1</text></g><!--MD5=[cd331ae55148281aa750447c4ddc276b]
link Company to Role--><g id="link_Company_Role"><path codeLine="33" d="M216.09,65.19 C231.72,85.5 251.17,114.28 261.5,143 C300.88,252.52 303.88,392.5 302.78,457.84 " fill="none" id="Company-Role" style="stroke:#181818;stroke-width:1.0;"/><polygon fill="#000000" points="290.5779,227.0582,291.4977,217.5922,285.7581,218.8594,290.5779,227.0582" style="stroke:#000000;stroke-width:1.0;"/><text fill="#000000" font-family="sans-serif" font-size="13" lengthAdjust="spacing" textLength="37" x="298.5" y="227.4951">knows</text><text fill="#000000" font-family="sans-serif" font-size="13" lengthAdjust="spacing" textLength="7" x="213.0452" y="86.08">1</text><text fill="#000000" font-family="sans-serif" font-size="13" lengthAdjust="spacing" textLength="5" x="297.5627" y="447.2138">*</text></g><!--MD5=[ffab42d7305e6830f0674a21f59219d7]
link Employee to Role--><g id="link_Employee_Role"><path codeLine="34" d="M216.61,371.12 C226.37,386.7 237.2,403.63 247.5,419 C256.12,431.85 265.86,445.68 274.68,457.95 " fill="none" id="Employee-Role" style="stroke:#181818;stroke-width:1.0;"/><polygon fill="#000000" points="255.2796,414.332,252.6942,405.1796,247.8083,408.4471,255.2796,414.332" style="stroke:#000000;stroke-width:1.0;"/><text fill="#000000" font-family="sans-serif" font-size="13" lengthAdjust="spacing" textLength="21" x="261.5" y="415.4951">has</text><text fill="#000000" font-family="sans-serif" font-size="13" lengthAdjust="spacing" textLength="12" x="208.2529" y="393.0911">1*</text><text fill="#000000" font-family="sans-serif" font-size="13" lengthAdjust="spacing" textLength="7" x="262.0898" y="447.0591">1</text></g><!--MD5=[1aa30beb1ce35beca30ddb6f747e40f6]
@startuml
hide methods
top to bottom direction
skinparam classAttributeIconSize 0


class Company {
   -designation
}

class Administrator {}

class User {
  -name
  -eMail
  -password
}

class Role {
  -designation
  -roleId
}

class Employee {
  -id
  -address
  -phoneNumber
  -ccNumber
}
Company "1" - - "1" Employee  : employs >
Company "1" - - "*" Administrator : has >
Administrator "1" - - "*" Employee : registers >
Employee "1" - -  "1" User : is a >
Company "1" - - "*" Role : knows >
Employee "1*" - - "1" Role : has >



@enduml

PlantUML version 1.2022.4(Sat Apr 09 14:29:17 BST 2022)
(GPL source distribution)
Java Runtime: OpenJDK Runtime Environment
JVM: OpenJDK 64-Bit Server VM
Default Encoding: Cp1252
Language: en
Country: US
--></g></svg>