<?xml version="1.0" encoding="UTF-8" standalone="no"?><svg xmlns="http://www.w3.org/2000/svg" xmlns:xlink="http://www.w3.org/1999/xlink" contentStyleType="text/css" height="434px" preserveAspectRatio="none" style="width:1123px;height:434px;background:#FFFFFF;" version="1.1" viewBox="0 0 1123 434" width="1123px" zoomAndPan="magnify"><defs/><g><rect fill="#FFFFFF" height="283.8125" style="stroke:#181818;stroke-width:1.0;" width="10" x="209" y="87.5703"/><rect fill="#FFFFFF" height="30.3516" style="stroke:#181818;stroke-width:1.0;" width="10" x="422.5" y="117.9219"/><rect fill="#FFFFFF" height="30" style="stroke:#181818;stroke-width:1.0;" width="10" x="546.5" y="178.625"/><rect fill="#FFFFFF" height="123.4063" style="stroke:#181818;stroke-width:1.0;" width="10" x="707.5" y="238.9766"/><rect fill="#FFFFFF" height="30.3516" style="stroke:#181818;stroke-width:1.0;" width="10" x="928.5" y="294.6797"/><rect height="79.0547" style="stroke:#000000;stroke-width:1.5;fill:none;" width="515" x="602" y="253.9766"/><line style="stroke:#181818;stroke-width:0.5;fill:none;stroke-dasharray:5.0,5.0;" x1="214" x2="214" y1="55.2188" y2="380.3828"/><line style="stroke:#181818;stroke-width:0.5;fill:none;stroke-dasharray:5.0,5.0;" x1="427" x2="427" y1="55.2188" y2="380.3828"/><line style="stroke:#181818;stroke-width:0.5;fill:none;stroke-dasharray:5.0,5.0;" x1="551" x2="551" y1="55.2188" y2="380.3828"/><line style="stroke:#181818;stroke-width:0.5;fill:none;stroke-dasharray:5.0,5.0;" x1="712" x2="712" y1="55.2188" y2="380.3828"/><line style="stroke:#181818;stroke-width:0.5;fill:none;stroke-dasharray:5.0,5.0;" x1="933" x2="933" y1="55.2188" y2="380.3828"/><rect fill="#E2E2F0" height="31.6094" rx="2.5" ry="2.5" style="stroke:#181818;stroke-width:0.5;" width="280" x="74" y="22.6094"/><text fill="#000000" font-family="sans-serif" font-size="14" lengthAdjust="spacing" textLength="266" x="81" y="44.1426">:RecordAdministrationOfVaccineController</text><rect fill="#E2E2F0" height="31.6094" rx="2.5" ry="2.5" style="stroke:#181818;stroke-width:0.5;" width="280" x="74" y="379.3828"/><text fill="#000000" font-family="sans-serif" font-size="14" lengthAdjust="spacing" textLength="266" x="81" y="400.916">:RecordAdministrationOfVaccineController</text><rect fill="#E2E2F0" height="49.2188" rx="2.5" ry="2.5" style="stroke:#181818;stroke-width:0.5;" width="127" x="364" y="5"/><text fill="#000000" font-family="sans-serif" font-size="14" lengthAdjust="spacing" textLength="108" x="373.5" y="26.5332">appointmentDTO</text><text fill="#000000" font-family="sans-serif" font-size="14" lengthAdjust="spacing" textLength="113" x="371" y="44.1426">:AppointmentDTO</text><rect fill="#E2E2F0" height="49.2188" rx="2.5" ry="2.5" style="stroke:#181818;stroke-width:0.5;" width="127" x="364" y="379.3828"/><text fill="#000000" font-family="sans-serif" font-size="14" lengthAdjust="spacing" textLength="108" x="373.5" y="400.916">appointmentDTO</text><text fill="#000000" font-family="sans-serif" font-size="14" lengthAdjust="spacing" textLength="113" x="371" y="418.5254">:AppointmentDTO</text><rect fill="#E2E2F0" height="49.2188" rx="2.5" ry="2.5" style="stroke:#181818;stroke-width:0.5;" width="101" x="501" y="5"/><text fill="#000000" font-family="sans-serif" font-size="14" lengthAdjust="spacing" textLength="81" x="511" y="26.5332">snsUserDTO</text><text fill="#000000" font-family="sans-serif" font-size="14" lengthAdjust="spacing" textLength="87" x="508" y="44.1426">:SnsUserDTO</text><rect fill="#E2E2F0" height="49.2188" rx="2.5" ry="2.5" style="stroke:#181818;stroke-width:0.5;" width="101" x="501" y="379.3828"/><text fill="#000000" font-family="sans-serif" font-size="14" lengthAdjust="spacing" textLength="81" x="511" y="400.916">snsUserDTO</text><text fill="#000000" font-family="sans-serif" font-size="14" lengthAdjust="spacing" textLength="87" x="508" y="418.5254">:SnsUserDTO</text><rect fill="#E2E2F0" height="31.6094" rx="2.5" ry="2.5" style="stroke:#181818;stroke-width:0.5;" width="201" x="612" y="22.6094"/><text fill="#000000" font-family="sans-serif" font-size="14" lengthAdjust="spacing" textLength="187" x="619" y="44.1426">snsUserStore : SNSUserStore</text><rect fill="#E2E2F0" height="31.6094" rx="2.5" ry="2.5" style="stroke:#181818;stroke-width:0.5;" width="201" x="612" y="379.3828"/><text fill="#000000" font-family="sans-serif" font-size="14" lengthAdjust="spacing" textLength="187" x="619" y="400.916">snsUserStore : SNSUserStore</text><rect fill="#E2E2F0" height="31.6094" rx="2.5" ry="2.5" style="stroke:#181818;stroke-width:0.5;" width="137" x="865" y="22.6094"/><text fill="#000000" font-family="sans-serif" font-size="14" lengthAdjust="spacing" textLength="123" x="872" y="44.1426">snsUser : SNS User</text><rect fill="#E2E2F0" height="31.6094" rx="2.5" ry="2.5" style="stroke:#181818;stroke-width:0.5;" width="137" x="865" y="379.3828"/><text fill="#000000" font-family="sans-serif" font-size="14" lengthAdjust="spacing" textLength="123" x="872" y="400.916">snsUser : SNS User</text><rect fill="#FFFFFF" height="283.8125" style="stroke:#181818;stroke-width:1.0;" width="10" x="209" y="87.5703"/><rect fill="#FFFFFF" height="30.3516" style="stroke:#181818;stroke-width:1.0;" width="10" x="422.5" y="117.9219"/><rect fill="#FFFFFF" height="30" style="stroke:#181818;stroke-width:1.0;" width="10" x="546.5" y="178.625"/><rect fill="#FFFFFF" height="123.4063" style="stroke:#181818;stroke-width:1.0;" width="10" x="707.5" y="238.9766"/><rect fill="#FFFFFF" height="30.3516" style="stroke:#181818;stroke-width:1.0;" width="10" x="928.5" y="294.6797"/><ellipse cx="7.5" cy="86.8203" fill="none" rx="4" ry="4" style="stroke:#181818;stroke-width:1.5;"/><polygon fill="#181818" points="197,83.5703,207,87.5703,197,91.5703,201,87.5703" style="stroke:#181818;stroke-width:1.0;"/><line style="stroke:#181818;stroke-width:1.0;" x1="12" x2="203" y1="87.5703" y2="87.5703"/><text fill="#000000" font-family="sans-serif" font-size="13" font-weight="bold" lengthAdjust="spacing" textLength="7" x="15" y="82.7139">1</text><text fill="#000000" font-family="sans-serif" font-size="13" lengthAdjust="spacing" textLength="171" x="26" y="82.7139">getSNSUser(appointmentDto)</text><polygon fill="#181818" points="410.5,113.9219,420.5,117.9219,410.5,121.9219,414.5,117.9219" style="stroke:#181818;stroke-width:1.0;"/><line style="stroke:#181818;stroke-width:1.0;" x1="219" x2="416.5" y1="117.9219" y2="117.9219"/><text fill="#000000" font-family="sans-serif" font-size="13" font-weight="bold" lengthAdjust="spacing" textLength="7" x="226" y="113.0654">2</text><text fill="#000000" font-family="sans-serif" font-size="13" lengthAdjust="spacing" textLength="80" x="237" y="113.0654">getSNSUser()</text><polygon fill="#181818" points="230,144.2734,220,148.2734,230,152.2734,226,148.2734" style="stroke:#181818;stroke-width:1.0;"/><line style="stroke:#181818;stroke-width:1.0;stroke-dasharray:2.0,2.0;" x1="224" x2="426.5" y1="148.2734" y2="148.2734"/><text fill="#000000" font-family="sans-serif" font-size="13" font-weight="bold" lengthAdjust="spacing" textLength="7" x="236" y="143.417">3</text><text fill="#000000" font-family="sans-serif" font-size="13" lengthAdjust="spacing" textLength="74" x="247" y="143.417">snsUserDTO</text><polygon fill="#181818" points="534.5,174.625,544.5,178.625,534.5,182.625,538.5,178.625" style="stroke:#181818;stroke-width:1.0;"/><line style="stroke:#181818;stroke-width:1.0;" x1="219" x2="540.5" y1="178.625" y2="178.625"/><text fill="#000000" font-family="sans-serif" font-size="13" font-weight="bold" lengthAdjust="spacing" textLength="7" x="226" y="173.7686">4</text><text fill="#000000" font-family="sans-serif" font-size="13" lengthAdjust="spacing" textLength="94" x="237" y="173.7686">getSnsNumber()</text><polygon fill="#181818" points="695.5,234.9766,705.5,238.9766,695.5,242.9766,699.5,238.9766" style="stroke:#181818;stroke-width:1.0;"/><line style="stroke:#181818;stroke-width:1.0;" x1="219" x2="701.5" y1="238.9766" y2="238.9766"/><text fill="#000000" font-family="sans-serif" font-size="13" font-weight="bold" lengthAdjust="spacing" textLength="7" x="226" y="234.1201">5</text><text fill="#000000" font-family="sans-serif" font-size="13" lengthAdjust="spacing" textLength="209" x="237" y="234.1201">findSNSUserByNumber(snsNumber)</text><path d="M602,253.9766 L675,253.9766 L675,262.3281 L665,272.3281 L602,272.3281 L602,253.9766 " fill="#EEEEEE" style="stroke:#000000;stroke-width:1.5;"/><rect fill="none" height="79.0547" style="stroke:#000000;stroke-width:1.5;" width="515" x="602" y="253.9766"/><text fill="#000000" font-family="sans-serif" font-size="13" font-weight="bold" lengthAdjust="spacing" textLength="28" x="617" y="268.4717">loop</text><text fill="#000000" font-family="sans-serif" font-size="11" font-weight="bold" lengthAdjust="spacing" textLength="422" x="690" y="267.3955">[For each user in SnsUserStore until checkUserNumber(snsNumber) is true]</text><polygon fill="#181818" points="916.5,290.6797,926.5,294.6797,916.5,298.6797,920.5,294.6797" style="stroke:#181818;stroke-width:1.0;"/><line style="stroke:#181818;stroke-width:1.0;" x1="717.5" x2="922.5" y1="294.6797" y2="294.6797"/><text fill="#000000" font-family="sans-serif" font-size="13" font-weight="bold" lengthAdjust="spacing" textLength="7" x="724.5" y="289.8232">6</text><text fill="#000000" font-family="sans-serif" font-size="13" lengthAdjust="spacing" textLength="181" x="735.5" y="289.8232">checkUserNumber(snsNumber)</text><polygon fill="#181818" points="728.5,321.0313,718.5,325.0313,728.5,329.0313,724.5,325.0313" style="stroke:#181818;stroke-width:1.0;"/><line style="stroke:#181818;stroke-width:1.0;stroke-dasharray:2.0,2.0;" x1="722.5" x2="932.5" y1="325.0313" y2="325.0313"/><text fill="#000000" font-family="sans-serif" font-size="13" font-weight="bold" lengthAdjust="spacing" textLength="7" x="734.5" y="320.1748">7</text><text fill="#000000" font-family="sans-serif" font-size="13" lengthAdjust="spacing" textLength="53" x="745.5" y="320.1748">true/false</text><polygon fill="#181818" points="230,358.3828,220,362.3828,230,366.3828,226,362.3828" style="stroke:#181818;stroke-width:1.0;"/><line style="stroke:#181818;stroke-width:1.0;stroke-dasharray:2.0,2.0;" x1="224" x2="711.5" y1="362.3828" y2="362.3828"/><text fill="#000000" font-family="sans-serif" font-size="13" font-weight="bold" lengthAdjust="spacing" textLength="7" x="236" y="357.5264">8</text><text fill="#000000" font-family="sans-serif" font-size="13" lengthAdjust="spacing" textLength="48" x="247" y="357.5264">snsUser</text><!--MD5=[f444ca434f57b1cf34e0fd6ff37ebeee]
@startuml
autonumber

participant ":RecordAdministrationOfVaccineController" as CTRL
participant "appointmentDTO\n:AppointmentDTO" as APPOINTMENTDTO
participant "snsUserDTO\n:SnsUserDTO" as SNSUSERDTO
participant "snsUserStore : SNSUserStore" as SNSUSERSTORE
participant "snsUser : SNS User" as SNSUSER

[o-> CTRL : getSNSUser(appointmentDto)
activate CTRL
CTRL -> APPOINTMENTDTO : getSNSUser()
activate APPOINTMENTDTO
APPOINTMENTDTO - -> CTRL : snsUserDTO
deactivate APPOINTMENTDTO
CTRL -> SNSUSERDTO : getSnsNumber()
activate SNSUSERDTO
deactivate SNSUSERDTO
CTRL -> SNSUSERSTORE : findSNSUserByNumber(snsNumber)

activate SNSUSERSTORE
loop For each user in SnsUserStore until checkUserNumber(snsNumber) is true
SNSUSERSTORE-> SNSUSER:checkUserNumber(snsNumber)

activate SNSUSER
SNSUSER - -> SNSUSERSTORE:true/false

deactivate SNSUSER

end loop
SNSUSERSTORE - -> CTRL : snsUser
deactivate SNSUSERSTORE


@enduml

PlantUML version 1.2022.5(Sat Apr 30 11:55:52 BST 2022)
(GPL source distribution)
Java Runtime: OpenJDK Runtime Environment
JVM: OpenJDK 64-Bit Server VM
Default Encoding: Cp1252
Language: en
Country: US
--></g></svg>