<?xml version="1.0" encoding="UTF-8" standalone="no"?><svg xmlns="http://www.w3.org/2000/svg" xmlns:xlink="http://www.w3.org/1999/xlink" contentStyleType="text/css" height="600px" preserveAspectRatio="none" style="width:1445px;height:600px;background:#FFFFFF;" version="1.1" viewBox="0 0 1445 600" width="1445px" zoomAndPan="magnify"><defs/><g><rect fill="#FFFFFF" height="440.6641" style="stroke:#181818;stroke-width:1.0;" width="10" x="140" y="87.5703"/><rect fill="#FFFFFF" height="30.3516" style="stroke:#181818;stroke-width:1.0;" width="10" x="353.5" y="117.9219"/><rect fill="#FFFFFF" height="30" style="stroke:#181818;stroke-width:1.0;" width="10" x="496.5" y="178.625"/><rect fill="#FFFFFF" height="30.3516" style="stroke:#181818;stroke-width:1.0;" width="10" x="704" y="238.9766"/><rect fill="#FFFFFF" height="30.3516" style="stroke:#181818;stroke-width:1.0;" width="10" x="936" y="299.6797"/><rect fill="#FFFFFF" height="30.3516" style="stroke:#181818;stroke-width:1.0;" width="10" x="1136" y="360.3828"/><rect fill="#FFFFFF" height="76.7969" style="stroke:#181818;stroke-width:1.0;" width="10" x="1300" y="421.0859"/><line style="stroke:#181818;stroke-width:0.5;stroke-dasharray:5.0,5.0;" x1="145" x2="145" y1="55.2188" y2="546.2344"/><line style="stroke:#181818;stroke-width:0.5;stroke-dasharray:5.0,5.0;" x1="358" x2="358" y1="55.2188" y2="546.2344"/><line style="stroke:#181818;stroke-width:0.5;stroke-dasharray:5.0,5.0;" x1="501" x2="501" y1="55.2188" y2="546.2344"/><line style="stroke:#181818;stroke-width:0.5;stroke-dasharray:5.0,5.0;" x1="709" x2="709" y1="55.2188" y2="546.2344"/><line style="stroke:#181818;stroke-width:0.5;stroke-dasharray:5.0,5.0;" x1="941" x2="941" y1="55.2188" y2="546.2344"/><line style="stroke:#181818;stroke-width:0.5;stroke-dasharray:5.0,5.0;" x1="1141" x2="1141" y1="55.2188" y2="546.2344"/><line style="stroke:#181818;stroke-width:0.5;stroke-dasharray:5.0,5.0;" x1="1305" x2="1305" y1="55.2188" y2="546.2344"/><rect fill="#E2E2F0" height="31.6094" rx="2.5" ry="2.5" style="stroke:#181818;stroke-width:0.5;" width="280" x="5" y="22.6094"/><text fill="#000000" font-family="sans-serif" font-size="14" lengthAdjust="spacing" textLength="266" x="12" y="44.1426">:RecordAdministrationOfVaccineController</text><rect fill="#E2E2F0" height="31.6094" rx="2.5" ry="2.5" style="stroke:#181818;stroke-width:0.5;" width="280" x="5" y="545.2344"/><text fill="#000000" font-family="sans-serif" font-size="14" lengthAdjust="spacing" textLength="266" x="12" y="566.7676">:RecordAdministrationOfVaccineController</text><rect fill="#E2E2F0" height="49.2188" rx="2.5" ry="2.5" style="stroke:#181818;stroke-width:0.5;" width="127" x="295" y="5"/><text fill="#000000" font-family="sans-serif" font-size="14" lengthAdjust="spacing" textLength="108" x="304.5" y="26.5332">appointmentDTO</text><text fill="#000000" font-family="sans-serif" font-size="14" lengthAdjust="spacing" textLength="113" x="302" y="44.1426">:AppointmentDTO</text><rect fill="#E2E2F0" height="49.2188" rx="2.5" ry="2.5" style="stroke:#181818;stroke-width:0.5;" width="127" x="295" y="545.2344"/><text fill="#000000" font-family="sans-serif" font-size="14" lengthAdjust="spacing" textLength="108" x="304.5" y="566.7676">appointmentDTO</text><text fill="#000000" font-family="sans-serif" font-size="14" lengthAdjust="spacing" textLength="113" x="302" y="584.377">:AppointmentDTO</text><rect fill="#E2E2F0" height="31.6094" rx="2.5" ry="2.5" style="stroke:#181818;stroke-width:0.5;" width="139" x="432" y="22.6094"/><text fill="#000000" font-family="sans-serif" font-size="14" lengthAdjust="spacing" textLength="125" x="439" y="44.1426">company :Company</text><rect fill="#E2E2F0" height="31.6094" rx="2.5" ry="2.5" style="stroke:#181818;stroke-width:0.5;" width="139" x="432" y="545.2344"/><text fill="#000000" font-family="sans-serif" font-size="14" lengthAdjust="spacing" textLength="125" x="439" y="566.7676">company :Company</text><rect fill="#E2E2F0" height="31.6094" rx="2.5" ry="2.5" style="stroke:#181818;stroke-width:0.5;" width="256" x="581" y="22.6094"/><text fill="#000000" font-family="sans-serif" font-size="14" lengthAdjust="spacing" textLength="242" x="588" y="44.1426">vaccineTypeStore : VaccineTypeStore</text><rect fill="#E2E2F0" height="31.6094" rx="2.5" ry="2.5" style="stroke:#181818;stroke-width:0.5;" width="256" x="581" y="545.2344"/><text fill="#000000" font-family="sans-serif" font-size="14" lengthAdjust="spacing" textLength="242" x="588" y="566.7676">vaccineTypeStore : VaccineTypeStore</text><rect fill="#E2E2F0" height="31.6094" rx="2.5" ry="2.5" style="stroke:#181818;stroke-width:0.5;" width="188" x="847" y="22.6094"/><text fill="#000000" font-family="sans-serif" font-size="14" lengthAdjust="spacing" textLength="174" x="854" y="44.1426">vaccineType : VaccineType</text><rect fill="#E2E2F0" height="31.6094" rx="2.5" ry="2.5" style="stroke:#181818;stroke-width:0.5;" width="188" x="847" y="545.2344"/><text fill="#000000" font-family="sans-serif" font-size="14" lengthAdjust="spacing" textLength="174" x="854" y="566.7676">vaccineType : VaccineType</text><rect fill="#E2E2F0" height="31.6094" rx="2.5" ry="2.5" style="stroke:#181818;stroke-width:0.5;" width="192" x="1045" y="22.6094"/><text fill="#000000" font-family="sans-serif" font-size="14" lengthAdjust="spacing" textLength="178" x="1052" y="44.1426">vaccineStore : VaccineStore</text><rect fill="#E2E2F0" height="31.6094" rx="2.5" ry="2.5" style="stroke:#181818;stroke-width:0.5;" width="192" x="1045" y="545.2344"/><text fill="#000000" font-family="sans-serif" font-size="14" lengthAdjust="spacing" textLength="178" x="1052" y="566.7676">vaccineStore : VaccineStore</text><rect fill="#E2E2F0" height="31.6094" rx="2.5" ry="2.5" style="stroke:#181818;stroke-width:0.5;" width="116" x="1247" y="22.6094"/><text fill="#000000" font-family="sans-serif" font-size="14" lengthAdjust="spacing" textLength="102" x="1254" y="44.1426">:VaccineMapper</text><rect fill="#E2E2F0" height="31.6094" rx="2.5" ry="2.5" style="stroke:#181818;stroke-width:0.5;" width="116" x="1247" y="545.2344"/><text fill="#000000" font-family="sans-serif" font-size="14" lengthAdjust="spacing" textLength="102" x="1254" y="566.7676">:VaccineMapper</text><rect fill="#FFFFFF" height="440.6641" style="stroke:#181818;stroke-width:1.0;" width="10" x="140" y="87.5703"/><rect fill="#FFFFFF" height="30.3516" style="stroke:#181818;stroke-width:1.0;" width="10" x="353.5" y="117.9219"/><rect fill="#FFFFFF" height="30" style="stroke:#181818;stroke-width:1.0;" width="10" x="496.5" y="178.625"/><rect fill="#FFFFFF" height="30.3516" style="stroke:#181818;stroke-width:1.0;" width="10" x="704" y="238.9766"/><rect fill="#FFFFFF" height="30.3516" style="stroke:#181818;stroke-width:1.0;" width="10" x="936" y="299.6797"/><rect fill="#FFFFFF" height="30.3516" style="stroke:#181818;stroke-width:1.0;" width="10" x="1136" y="360.3828"/><rect fill="#FFFFFF" height="76.7969" style="stroke:#181818;stroke-width:1.0;" width="10" x="1300" y="421.0859"/><ellipse cx="7.5" cy="86.8203" fill="none" rx="4" ry="4" style="stroke:#181818;stroke-width:1.5;"/><polygon fill="#181818" points="128,83.5703,138,87.5703,128,91.5703,132,87.5703" style="stroke:#181818;stroke-width:1.0;"/><line style="stroke:#181818;stroke-width:1.0;" x1="12" x2="134" y1="87.5703" y2="87.5703"/><text fill="#000000" font-family="sans-serif" font-size="13" font-weight="bold" lengthAdjust="spacing" textLength="7" x="15" y="82.7139">1</text><text fill="#000000" font-family="sans-serif" font-size="13" lengthAdjust="spacing" textLength="94" x="26" y="82.7139">getVaccineList()</text><polygon fill="#181818" points="341.5,113.9219,351.5,117.9219,341.5,121.9219,345.5,117.9219" style="stroke:#181818;stroke-width:1.0;"/><line style="stroke:#181818;stroke-width:1.0;" x1="150" x2="347.5" y1="117.9219" y2="117.9219"/><text fill="#000000" font-family="sans-serif" font-size="13" font-weight="bold" lengthAdjust="spacing" textLength="7" x="157" y="113.0654">2</text><text fill="#000000" font-family="sans-serif" font-size="13" lengthAdjust="spacing" textLength="101" x="168" y="113.0654">getVaccineType()</text><polygon fill="#181818" points="161,144.2734,151,148.2734,161,152.2734,157,148.2734" style="stroke:#181818;stroke-width:1.0;"/><line style="stroke:#181818;stroke-width:1.0;stroke-dasharray:2.0,2.0;" x1="155" x2="357.5" y1="148.2734" y2="148.2734"/><text fill="#000000" font-family="sans-serif" font-size="13" font-weight="bold" lengthAdjust="spacing" textLength="7" x="167" y="143.417">3</text><text fill="#000000" font-family="sans-serif" font-size="13" lengthAdjust="spacing" textLength="91" x="178" y="143.417">vaccineTypeDto</text><polygon fill="#181818" points="484.5,174.625,494.5,178.625,484.5,182.625,488.5,178.625" style="stroke:#181818;stroke-width:1.0;"/><line style="stroke:#181818;stroke-width:1.0;" x1="150" x2="490.5" y1="178.625" y2="178.625"/><text fill="#000000" font-family="sans-serif" font-size="13" font-weight="bold" lengthAdjust="spacing" textLength="7" x="157" y="173.7686">4</text><text fill="#000000" font-family="sans-serif" font-size="13" lengthAdjust="spacing" textLength="132" x="168" y="173.7686">getVaccineTypeStore()</text><polygon fill="#181818" points="692,234.9766,702,238.9766,692,242.9766,696,238.9766" style="stroke:#181818;stroke-width:1.0;"/><line style="stroke:#181818;stroke-width:1.0;" x1="150" x2="698" y1="238.9766" y2="238.9766"/><text fill="#000000" font-family="sans-serif" font-size="13" font-weight="bold" lengthAdjust="spacing" textLength="7" x="157" y="234.1201">5</text><text fill="#000000" font-family="sans-serif" font-size="13" lengthAdjust="spacing" textLength="119" x="168" y="234.1201">find(vaccineTypeDto)</text><polygon fill="#181818" points="161,265.3281,151,269.3281,161,273.3281,157,269.3281" style="stroke:#181818;stroke-width:1.0;"/><line style="stroke:#181818;stroke-width:1.0;stroke-dasharray:2.0,2.0;" x1="155" x2="708" y1="269.3281" y2="269.3281"/><text fill="#000000" font-family="sans-serif" font-size="13" font-weight="bold" lengthAdjust="spacing" textLength="7" x="167" y="264.4717">6</text><text fill="#000000" font-family="sans-serif" font-size="13" lengthAdjust="spacing" textLength="71" x="178" y="264.4717">vaccineType</text><polygon fill="#181818" points="924,295.6797,934,299.6797,924,303.6797,928,299.6797" style="stroke:#181818;stroke-width:1.0;"/><line style="stroke:#181818;stroke-width:1.0;" x1="150" x2="930" y1="299.6797" y2="299.6797"/><text fill="#000000" font-family="sans-serif" font-size="13" font-weight="bold" lengthAdjust="spacing" textLength="7" x="157" y="294.8232">7</text><text fill="#000000" font-family="sans-serif" font-size="13" lengthAdjust="spacing" textLength="104" x="168" y="294.8232">getVaccineStore()</text><polygon fill="#181818" points="161,326.0313,151,330.0313,161,334.0313,157,330.0313" style="stroke:#181818;stroke-width:1.0;"/><line style="stroke:#181818;stroke-width:1.0;stroke-dasharray:2.0,2.0;" x1="155" x2="940" y1="330.0313" y2="330.0313"/><text fill="#000000" font-family="sans-serif" font-size="13" font-weight="bold" lengthAdjust="spacing" textLength="7" x="167" y="325.1748">8</text><text fill="#000000" font-family="sans-serif" font-size="13" lengthAdjust="spacing" textLength="74" x="178" y="325.1748">vaccineStore</text><polygon fill="#181818" points="1124,356.3828,1134,360.3828,1124,364.3828,1128,360.3828" style="stroke:#181818;stroke-width:1.0;"/><line style="stroke:#181818;stroke-width:1.0;" x1="150" x2="1130" y1="360.3828" y2="360.3828"/><text fill="#000000" font-family="sans-serif" font-size="13" font-weight="bold" lengthAdjust="spacing" textLength="7" x="157" y="355.5264">9</text><text fill="#000000" font-family="sans-serif" font-size="13" lengthAdjust="spacing" textLength="94" x="168" y="355.5264">getVaccineList()</text><polygon fill="#181818" points="161,386.7344,151,390.7344,161,394.7344,157,390.7344" style="stroke:#181818;stroke-width:1.0;"/><line style="stroke:#181818;stroke-width:1.0;stroke-dasharray:2.0,2.0;" x1="155" x2="1140" y1="390.7344" y2="390.7344"/><text fill="#000000" font-family="sans-serif" font-size="13" font-weight="bold" lengthAdjust="spacing" textLength="14" x="167" y="385.8779">10</text><text fill="#000000" font-family="sans-serif" font-size="13" lengthAdjust="spacing" textLength="57" x="185" y="385.8779">lVaccines</text><polygon fill="#181818" points="1288,417.0859,1298,421.0859,1288,425.0859,1292,421.0859" style="stroke:#181818;stroke-width:1.0;"/><line style="stroke:#181818;stroke-width:1.0;" x1="150" x2="1294" y1="421.0859" y2="421.0859"/><text fill="#000000" font-family="sans-serif" font-size="13" font-weight="bold" lengthAdjust="spacing" textLength="14" x="157" y="416.2295">11</text><text fill="#000000" font-family="sans-serif" font-size="13" lengthAdjust="spacing" textLength="96" x="175" y="416.2295">toDto(lVaccines)</text><a href="US008_SD_vaccineMapper_toDto.puml" target="_top" title="US008_SD_vaccineMapper_toDto.puml" xlink:actuate="onRequest" xlink:href="US008_SD_vaccineMapper_toDto.puml" xlink:show="new" xlink:title="US008_SD_vaccineMapper_toDto.puml" xlink:type="simple"><rect height="41.4453" style="stroke:#000000;stroke-width:1.5;fill:none;" width="195" x="1244" y="429.0859"/><path d="M1244,429.0859 L1306,429.0859 L1306,437.0859 L1296,447.0859 L1244,447.0859 L1244,429.0859 " fill="#EEEEEE" style="stroke:#000000;stroke-width:2.0;"/><text fill="#000000" font-family="sans-serif" font-size="13" font-weight="bold" lengthAdjust="spacing" textLength="17" x="1257" y="444.5811">ref</text><text fill="#000000" font-family="sans-serif" font-size="12" lengthAdjust="spacing" textLength="187" x="1248" y="463.543">US008_SD_vaccineMapper_toDto</text></a><polygon fill="#181818" points="161,493.8828,151,497.8828,161,501.8828,157,497.8828" style="stroke:#181818;stroke-width:1.0;"/><line style="stroke:#181818;stroke-width:1.0;stroke-dasharray:2.0,2.0;" x1="155" x2="1304" y1="497.8828" y2="497.8828"/><text fill="#000000" font-family="sans-serif" font-size="13" font-weight="bold" lengthAdjust="spacing" textLength="14" x="167" y="493.0264">12</text><text fill="#000000" font-family="sans-serif" font-size="13" lengthAdjust="spacing" textLength="77" x="185" y="493.0264">lVaccinesDto</text><polygon fill="#181818" points="11,524.2344,1,528.2344,11,532.2344,7,528.2344" style="stroke:#181818;stroke-width:1.0;"/><line style="stroke:#181818;stroke-width:1.0;stroke-dasharray:2.0,2.0;" x1="5" x2="144" y1="528.2344" y2="528.2344"/><text fill="#000000" font-family="sans-serif" font-size="13" font-weight="bold" lengthAdjust="spacing" textLength="14" x="17" y="523.3779">13</text><text fill="#000000" font-family="sans-serif" font-size="13" lengthAdjust="spacing" textLength="77" x="35" y="523.3779">lVaccinesDto</text><!--MD5=[964aac529cb16683f54e0d5b4ce0ab00]
@startuml
autonumber

participant ":RecordAdministrationOfVaccineController" as CTRL
participant "appointmentDTO\n:AppointmentDTO" as APPOINTMENTDTO
participant "company :Company" as COMPANY
participant "vaccineTypeStore : VaccineTypeStore" as VACCINETYPESTORE
participant "vaccineType : VaccineType" as VACCINETYPE
participant "vaccineStore : VaccineStore" as VACCINESTORE
participant ":VaccineMapper" as VACCINEMAPPER

[o-> CTRL : getVaccineList()
activate CTRL
CTRL -> APPOINTMENTDTO : getVaccineType()
activate APPOINTMENTDTO
APPOINTMENTDTO - -> CTRL : vaccineTypeDto
deactivate APPOINTMENTDTO
CTRL -> COMPANY : getVaccineTypeStore()
activate COMPANY
deactivate COMPANY
CTRL -> VACCINETYPESTORE :  find(vaccineTypeDto)
activate VACCINETYPESTORE
VACCINETYPESTORE - -> CTRL : vaccineType
deactivate VACCINETYPESTORE
CTRL -> VACCINETYPE : getVaccineStore()
activate VACCINETYPE
VACCINETYPE - -> CTRL  : vaccineStore
deactivate VACCINETYPE
CTRL -> VACCINESTORE : getVaccineList()
activate VACCINESTORE
VACCINESTORE - -> CTRL : lVaccines
deactivate VACCINESTORE
CTRL -> VACCINEMAPPER : toDto(lVaccines)
activate VACCINEMAPPER
ref over VACCINEMAPPER [[US008_SD_vaccineMapper_toDto.puml]] : US008_SD_vaccineMapper_toDto
VACCINEMAPPER - -> CTRL : lVaccinesDto
deactivate VACCINEMAPPER
deactivate VACCINESTORE
deactivate APPOINTMENTDTO
<- - CTRL : lVaccinesDto
deactivate CTRL


@enduml

PlantUML version 1.2022.5(Sat Apr 30 11:55:52 BST 2022)
(GPL source distribution)
Java Runtime: OpenJDK Runtime Environment
JVM: OpenJDK 64-Bit Server VM
Default Encoding: Cp1252
Language: en
Country: US
--></g></svg>