<?xml version="1.0" encoding="UTF-8" standalone="no"?><svg xmlns="http://www.w3.org/2000/svg" xmlns:xlink="http://www.w3.org/1999/xlink" contentStyleType="text/css" height="584px" preserveAspectRatio="none" style="width:581px;height:584px;background:#FFFFFF;" version="1.1" viewBox="0 0 581 584" width="581px" zoomAndPan="magnify"><defs/><g><rect fill="#FFFFFF" height="433.5469" style="stroke:#181818;stroke-width:1.0;" width="10" x="134" y="87.5703"/><rect fill="#FFFFFF" height="30" style="stroke:#181818;stroke-width:1.0;" width="10" x="274" y="203.4922"/><rect fill="#FFFFFF" height="30" style="stroke:#181818;stroke-width:1.0;" width="10" x="274" y="263.8438"/><rect fill="#FFFFFF" height="30" style="stroke:#181818;stroke-width:1.0;" width="10" x="274" y="324.1953"/><rect fill="#FFFFFF" height="30" style="stroke:#181818;stroke-width:1.0;" width="10" x="398.5" y="444.7656"/><rect height="319.9766" style="stroke:#000000;stroke-width:1.5;fill:none;" width="504" x="71" y="162.7891"/><line style="stroke:#181818;stroke-width:0.5;fill:none;stroke-dasharray:5.0,5.0;" x1="139" x2="139" y1="55.2188" y2="530.1172"/><line style="stroke:#181818;stroke-width:0.5;fill:none;stroke-dasharray:5.0,5.0;" x1="279" x2="279" y1="55.2188" y2="530.1172"/><line style="stroke:#181818;stroke-width:0.5;fill:none;stroke-dasharray:5.0,5.0;" x1="403" x2="403" y1="135.6797" y2="530.1172"/><line style="stroke:#181818;stroke-width:0.5;fill:none;stroke-dasharray:5.0,5.0;" x1="520" x2="520" y1="402.3047" y2="530.1172"/><rect fill="#E2E2F0" height="31.6094" rx="2.5" ry="2.5" style="stroke:#181818;stroke-width:0.5;" width="116" x="81" y="22.6094"/><text fill="#000000" font-family="sans-serif" font-size="14" lengthAdjust="spacing" textLength="102" x="88" y="44.1426">:VaccineMapper</text><rect fill="#E2E2F0" height="31.6094" rx="2.5" ry="2.5" style="stroke:#181818;stroke-width:0.5;" width="116" x="81" y="529.1172"/><text fill="#000000" font-family="sans-serif" font-size="14" lengthAdjust="spacing" textLength="102" x="88" y="550.6504">:VaccineMapper</text><rect fill="#E2E2F0" height="49.2188" rx="2.5" ry="2.5" style="stroke:#181818;stroke-width:0.5;" width="106" x="226" y="5"/><text fill="#000000" font-family="sans-serif" font-size="14" lengthAdjust="spacing" textLength="60" x="249" y="26.5332">lVaccines</text><text fill="#000000" font-family="sans-serif" font-size="14" lengthAdjust="spacing" textLength="92" x="233" y="44.1426">:List&lt;Vaccine&gt;</text><rect fill="#E2E2F0" height="49.2188" rx="2.5" ry="2.5" style="stroke:#181818;stroke-width:0.5;" width="106" x="226" y="529.1172"/><text fill="#000000" font-family="sans-serif" font-size="14" lengthAdjust="spacing" textLength="60" x="249" y="550.6504">lVaccines</text><text fill="#000000" font-family="sans-serif" font-size="14" lengthAdjust="spacing" textLength="92" x="233" y="568.2598">:List&lt;Vaccine&gt;</text><rect fill="#E2E2F0" height="49.2188" rx="2.5" ry="2.5" style="stroke:#181818;stroke-width:0.5;" width="123" x="342" y="529.1172"/><text fill="#000000" font-family="sans-serif" font-size="14" lengthAdjust="spacing" textLength="82" x="362.5" y="550.6504">lVaccinesDto</text><text fill="#000000" font-family="sans-serif" font-size="14" lengthAdjust="spacing" textLength="109" x="349" y="568.2598">:list&lt;VaccineDto&gt;</text><rect fill="#E2E2F0" height="49.2188" rx="2.5" ry="2.5" style="stroke:#181818;stroke-width:0.5;" width="90" x="475" y="529.1172"/><text fill="#000000" font-family="sans-serif" font-size="14" lengthAdjust="spacing" textLength="72" x="484" y="550.6504">VaccineDto</text><text fill="#000000" font-family="sans-serif" font-size="14" lengthAdjust="spacing" textLength="76" x="482" y="568.2598">:VaccineDto</text><rect fill="#FFFFFF" height="433.5469" style="stroke:#181818;stroke-width:1.0;" width="10" x="134" y="87.5703"/><rect fill="#FFFFFF" height="30" style="stroke:#181818;stroke-width:1.0;" width="10" x="274" y="203.4922"/><rect fill="#FFFFFF" height="30" style="stroke:#181818;stroke-width:1.0;" width="10" x="274" y="263.8438"/><rect fill="#FFFFFF" height="30" style="stroke:#181818;stroke-width:1.0;" width="10" x="274" y="324.1953"/><rect fill="#FFFFFF" height="30" style="stroke:#181818;stroke-width:1.0;" width="10" x="398.5" y="444.7656"/><ellipse cx="7.5" cy="86.8203" fill="none" rx="4" ry="4" style="stroke:#181818;stroke-width:1.5;"/><polygon fill="#181818" points="122,83.5703,132,87.5703,122,91.5703,126,87.5703" style="stroke:#181818;stroke-width:1.0;"/><line style="stroke:#181818;stroke-width:1.0;" x1="12" x2="128" y1="87.5703" y2="87.5703"/><text fill="#000000" font-family="sans-serif" font-size="13" font-weight="bold" lengthAdjust="spacing" textLength="7" x="15" y="82.7139">1</text><text fill="#000000" font-family="sans-serif" font-size="13" lengthAdjust="spacing" textLength="96" x="26" y="82.7139">toDto(lVaccines)</text><polygon fill="#181818" points="330,113.9219,340,117.9219,330,121.9219,334,117.9219" style="stroke:#181818;stroke-width:1.0;"/><line style="stroke:#181818;stroke-width:1.0;stroke-dasharray:2.0,2.0;" x1="144" x2="336" y1="117.9219" y2="117.9219"/><text fill="#000000" font-family="sans-serif" font-size="13" font-weight="bold" lengthAdjust="spacing" textLength="7" x="151" y="113.0654">2</text><text fill="#000000" font-family="sans-serif" font-size="13" lengthAdjust="spacing" textLength="44" x="162" y="113.0654">create()</text><rect fill="#E2E2F0" height="49.2188" rx="2.5" ry="2.5" style="stroke:#181818;stroke-width:0.5;" width="123" x="342" y="95.5703"/><text fill="#000000" font-family="sans-serif" font-size="14" lengthAdjust="spacing" textLength="82" x="362.5" y="117.1035">lVaccinesDto</text><text fill="#000000" font-family="sans-serif" font-size="14" lengthAdjust="spacing" textLength="109" x="349" y="134.7129">:list&lt;VaccineDto&gt;</text><path d="M71,162.7891 L144,162.7891 L144,171.1406 L134,181.1406 L71,181.1406 L71,162.7891 " fill="#EEEEEE" style="stroke:#000000;stroke-width:1.5;"/><rect fill="none" height="319.9766" style="stroke:#000000;stroke-width:1.5;" width="504" x="71" y="162.7891"/><text fill="#000000" font-family="sans-serif" font-size="13" font-weight="bold" lengthAdjust="spacing" textLength="28" x="86" y="177.2842">loop</text><text fill="#000000" font-family="sans-serif" font-size="11" font-weight="bold" lengthAdjust="spacing" textLength="159" x="159" y="176.208">[for each object in lVaccines]</text><polygon fill="#181818" points="262,199.4922,272,203.4922,262,207.4922,266,203.4922" style="stroke:#181818;stroke-width:1.0;"/><line style="stroke:#181818;stroke-width:1.0;" x1="144" x2="268" y1="203.4922" y2="203.4922"/><text fill="#000000" font-family="sans-serif" font-size="13" font-weight="bold" lengthAdjust="spacing" textLength="7" x="151" y="198.6357">3</text><text fill="#000000" font-family="sans-serif" font-size="13" lengthAdjust="spacing" textLength="90" x="162" y="198.6357">vacineId=getId()</text><polygon fill="#181818" points="262,259.8438,272,263.8438,262,267.8438,266,263.8438" style="stroke:#181818;stroke-width:1.0;"/><line style="stroke:#181818;stroke-width:1.0;" x1="144" x2="268" y1="263.8438" y2="263.8438"/><text fill="#000000" font-family="sans-serif" font-size="13" font-weight="bold" lengthAdjust="spacing" textLength="7" x="151" y="258.9873">4</text><text fill="#000000" font-family="sans-serif" font-size="13" lengthAdjust="spacing" textLength="100" x="162" y="258.9873">name=getName()</text><polygon fill="#181818" points="262,320.1953,272,324.1953,262,328.1953,266,324.1953" style="stroke:#181818;stroke-width:1.0;"/><line style="stroke:#181818;stroke-width:1.0;" x1="144" x2="268" y1="324.1953" y2="324.1953"/><text fill="#000000" font-family="sans-serif" font-size="13" font-weight="bold" lengthAdjust="spacing" textLength="7" x="151" y="319.3389">5</text><text fill="#000000" font-family="sans-serif" font-size="13" lengthAdjust="spacing" textLength="100" x="162" y="319.3389">brand=getBrand()</text><polygon fill="#181818" points="463,380.5469,473,384.5469,463,388.5469,467,384.5469" style="stroke:#181818;stroke-width:1.0;"/><line style="stroke:#181818;stroke-width:1.0;stroke-dasharray:2.0,2.0;" x1="144" x2="469" y1="384.5469" y2="384.5469"/><text fill="#000000" font-family="sans-serif" font-size="13" font-weight="bold" lengthAdjust="spacing" textLength="7" x="151" y="379.6904">6</text><text fill="#000000" font-family="sans-serif" font-size="13" lengthAdjust="spacing" textLength="177" x="162" y="379.6904">create(vaccineId, name, brand)</text><rect fill="#E2E2F0" height="49.2188" rx="2.5" ry="2.5" style="stroke:#181818;stroke-width:0.5;" width="90" x="475" y="362.1953"/><text fill="#000000" font-family="sans-serif" font-size="14" lengthAdjust="spacing" textLength="72" x="484" y="383.7285">VaccineDto</text><text fill="#000000" font-family="sans-serif" font-size="14" lengthAdjust="spacing" textLength="76" x="482" y="401.3379">:VaccineDto</text><polygon fill="#181818" points="386.5,440.7656,396.5,444.7656,386.5,448.7656,390.5,444.7656" style="stroke:#181818;stroke-width:1.0;"/><line style="stroke:#181818;stroke-width:1.0;" x1="144" x2="392.5" y1="444.7656" y2="444.7656"/><text fill="#000000" font-family="sans-serif" font-size="13" font-weight="bold" lengthAdjust="spacing" textLength="7" x="151" y="439.9092">7</text><text fill="#000000" font-family="sans-serif" font-size="13" lengthAdjust="spacing" textLength="92" x="162" y="439.9092">add(vaccineDto)</text><polygon fill="#181818" points="11,508.1172,1,512.1172,11,516.1172,7,512.1172" style="stroke:#181818;stroke-width:1.0;"/><line style="stroke:#181818;stroke-width:1.0;stroke-dasharray:2.0,2.0;" x1="5" x2="133" y1="512.1172" y2="512.1172"/><text fill="#000000" font-family="sans-serif" font-size="13" font-weight="bold" lengthAdjust="spacing" textLength="7" x="17" y="507.2607">8</text><text fill="#000000" font-family="sans-serif" font-size="13" lengthAdjust="spacing" textLength="77" x="28" y="507.2607">lVaccinesDto</text><!--MD5=[6ef063978b3dd89585240c4fdccd429e]
@startuml

autonumber
participant ":VaccineMapper" as VACCINEMAPPER
participant "lVaccines\n:List<Vaccine>" as LVACCINES
participant "lVaccinesDto\n:list<VaccineDto>" as lVaccinesDto
participant "VaccineDto\n:VaccineDto" as VACCINEDTO

[o->VACCINEMAPPER : toDto(lVaccines)
activate VACCINEMAPPER

VACCINEMAPPER - -> lVaccinesDto **: create()

loop for each object in lVaccines

VACCINEMAPPER -> LVACCINES : vacineId=getId()
activate LVACCINES
deactivate LVACCINES
VACCINEMAPPER -> LVACCINES : name=getName()
activate LVACCINES
deactivate LVACCINES
VACCINEMAPPER -> LVACCINES : brand=getBrand()
activate LVACCINES
deactivate LVACCINES

VACCINEMAPPER - -> VACCINEDTO **: create(vaccineId, name, brand)

VACCINEMAPPER -> lVaccinesDto : add(vaccineDto)
activate lVaccinesDto
deactivate lVaccinesDto
end loop
[<- - VACCINEMAPPER : lVaccinesDto


@enduml

PlantUML version 1.2022.5(Sat Apr 30 11:55:52 BST 2022)
(GPL source distribution)
Java Runtime: OpenJDK Runtime Environment
JVM: OpenJDK 64-Bit Server VM
Default Encoding: Cp1252
Language: en
Country: US
--></g></svg>