<?xml version="1.0" encoding="UTF-8" standalone="no"?><svg xmlns="http://www.w3.org/2000/svg" xmlns:xlink="http://www.w3.org/1999/xlink" contentStyleType="text/css" height="391px" preserveAspectRatio="none" style="width:1042px;height:391px;background:#FFFFFF;" version="1.1" viewBox="0 0 1042 391" width="1042px" zoomAndPan="magnify"><defs/><g><rect fill="#FFFFFF" height="275.625" style="stroke:#181818;stroke-width:1.0;" width="10" x="186" y="69.9609"/><rect fill="#FFFFFF" height="30" style="stroke:#181818;stroke-width:1.0;" width="10" x="404.5" y="100.3125"/><rect fill="#FFFFFF" height="30.3516" style="stroke:#181818;stroke-width:1.0;" width="10" x="557" y="160.6641"/><rect fill="#FFFFFF" height="111.9609" style="stroke:#181818;stroke-width:1.0;" width="10" x="688.5" y="233.625"/><rect fill="#FFFFFF" height="30" style="stroke:#181818;stroke-width:1.0;" width="10" x="1008" y="263.9766"/><line style="stroke:#181818;stroke-width:0.5;stroke-dasharray:5.0,5.0;" x1="191" x2="191" y1="37.6094" y2="354.5859"/><line style="stroke:#181818;stroke-width:0.5;stroke-dasharray:5.0,5.0;" x1="409" x2="409" y1="37.6094" y2="354.5859"/><line style="stroke:#181818;stroke-width:0.5;stroke-dasharray:5.0,5.0;" x1="562" x2="562" y1="37.6094" y2="354.5859"/><line style="stroke:#181818;stroke-width:0.5;stroke-dasharray:5.0,5.0;" x1="693" x2="693" y1="37.6094" y2="354.5859"/><line style="stroke:#181818;stroke-width:0.5;stroke-dasharray:5.0,5.0;" x1="913.5" x2="913.5" y1="333.2813" y2="354.5859"/><line style="stroke:#181818;stroke-width:0.5;stroke-dasharray:5.0,5.0;" x1="1012.5" x2="1012.5" y1="199.9688" y2="354.5859"/><rect fill="#E2E2F0" height="31.6094" rx="2.5" ry="2.5" style="stroke:#181818;stroke-width:0.5;" width="280" x="51" y="5"/><text fill="#000000" font-family="sans-serif" font-size="14" lengthAdjust="spacing" textLength="266" x="58" y="26.5332">:RecordAdministrationOfVaccineController</text><rect fill="#E2E2F0" height="31.6094" rx="2.5" ry="2.5" style="stroke:#181818;stroke-width:0.5;" width="280" x="51" y="353.5859"/><text fill="#000000" font-family="sans-serif" font-size="14" lengthAdjust="spacing" textLength="266" x="58" y="375.1191">:RecordAdministrationOfVaccineController</text><rect fill="#E2E2F0" height="31.6094" rx="2.5" ry="2.5" style="stroke:#181818;stroke-width:0.5;" width="137" x="341" y="5"/><text fill="#000000" font-family="sans-serif" font-size="14" lengthAdjust="spacing" textLength="123" x="348" y="26.5332">snsUser : SNS User</text><rect fill="#E2E2F0" height="31.6094" rx="2.5" ry="2.5" style="stroke:#181818;stroke-width:0.5;" width="137" x="341" y="353.5859"/><text fill="#000000" font-family="sans-serif" font-size="14" lengthAdjust="spacing" textLength="123" x="348" y="375.1191">snsUser : SNS User</text><rect fill="#E2E2F0" height="31.6094" rx="2.5" ry="2.5" style="stroke:#181818;stroke-width:0.5;" width="148" x="488" y="5"/><text fill="#000000" font-family="sans-serif" font-size="14" lengthAdjust="spacing" textLength="134" x="495" y="26.5332">smsStore : SMSStore</text><rect fill="#E2E2F0" height="31.6094" rx="2.5" ry="2.5" style="stroke:#181818;stroke-width:0.5;" width="148" x="488" y="353.5859"/><text fill="#000000" font-family="sans-serif" font-size="14" lengthAdjust="spacing" textLength="134" x="495" y="375.1191">smsStore : SMSStore</text><rect fill="#E2E2F0" height="31.6094" rx="2.5" ry="2.5" style="stroke:#181818;stroke-width:0.5;" width="95" x="646" y="5"/><text fill="#000000" font-family="sans-serif" font-size="14" lengthAdjust="spacing" textLength="81" x="653" y="26.5332">:SMSMapper</text><rect fill="#E2E2F0" height="31.6094" rx="2.5" ry="2.5" style="stroke:#181818;stroke-width:0.5;" width="95" x="646" y="353.5859"/><text fill="#000000" font-family="sans-serif" font-size="14" lengthAdjust="spacing" textLength="81" x="653" y="375.1191">:SMSMapper</text><rect fill="#E2E2F0" height="31.6094" rx="2.5" ry="2.5" style="stroke:#181818;stroke-width:0.5;" width="132" x="847.5" y="353.5859"/><text fill="#000000" font-family="sans-serif" font-size="14" lengthAdjust="spacing" textLength="118" x="854.5" y="375.1191">smsDto : SMSDTO</text><rect fill="#E2E2F0" height="31.6094" rx="2.5" ry="2.5" style="stroke:#181818;stroke-width:0.5;" width="47" x="989.5" y="353.5859"/><text fill="#000000" font-family="sans-serif" font-size="14" lengthAdjust="spacing" textLength="33" x="996.5" y="375.1191">:SMS</text><rect fill="#FFFFFF" height="275.625" style="stroke:#181818;stroke-width:1.0;" width="10" x="186" y="69.9609"/><rect fill="#FFFFFF" height="30" style="stroke:#181818;stroke-width:1.0;" width="10" x="404.5" y="100.3125"/><rect fill="#FFFFFF" height="30.3516" style="stroke:#181818;stroke-width:1.0;" width="10" x="557" y="160.6641"/><rect fill="#FFFFFF" height="111.9609" style="stroke:#181818;stroke-width:1.0;" width="10" x="688.5" y="233.625"/><rect fill="#FFFFFF" height="30" style="stroke:#181818;stroke-width:1.0;" width="10" x="1008" y="263.9766"/><ellipse cx="7.5" cy="69.2109" fill="none" rx="4" ry="4" style="stroke:#181818;stroke-width:1.5;"/><polygon fill="#181818" points="174,65.9609,184,69.9609,174,73.9609,178,69.9609" style="stroke:#181818;stroke-width:1.0;"/><line style="stroke:#181818;stroke-width:1.0;" x1="12" x2="180" y1="69.9609" y2="69.9609"/><text fill="#000000" font-family="sans-serif" font-size="13" font-weight="bold" lengthAdjust="spacing" textLength="7" x="15" y="65.1045">1</text><text fill="#000000" font-family="sans-serif" font-size="13" lengthAdjust="spacing" textLength="148" x="26" y="65.1045">smsDto = generateSMS()</text><polygon fill="#181818" points="392.5,96.3125,402.5,100.3125,392.5,104.3125,396.5,100.3125" style="stroke:#181818;stroke-width:1.0;"/><line style="stroke:#181818;stroke-width:1.0;" x1="196" x2="398.5" y1="100.3125" y2="100.3125"/><text fill="#000000" font-family="sans-serif" font-size="13" font-weight="bold" lengthAdjust="spacing" textLength="7" x="203" y="95.4561">2</text><text fill="#000000" font-family="sans-serif" font-size="13" lengthAdjust="spacing" textLength="148" x="214" y="95.4561">smsStore=getSmsStore()</text><polygon fill="#181818" points="545,156.6641,555,160.6641,545,164.6641,549,160.6641" style="stroke:#181818;stroke-width:1.0;"/><line style="stroke:#181818;stroke-width:1.0;" x1="196" x2="551" y1="160.6641" y2="160.6641"/><text fill="#000000" font-family="sans-serif" font-size="13" font-weight="bold" lengthAdjust="spacing" textLength="7" x="203" y="155.8076">3</text><text fill="#000000" font-family="sans-serif" font-size="13" lengthAdjust="spacing" textLength="120" x="214" y="155.8076">sms=generateSMS()</text><polygon fill="#181818" points="977.5,187.0156,987.5,191.0156,977.5,195.0156,981.5,191.0156" style="stroke:#181818;stroke-width:1.0;"/><line style="stroke:#181818;stroke-width:1.0;stroke-dasharray:2.0,2.0;" x1="562" x2="983.5" y1="191.0156" y2="191.0156"/><text fill="#000000" font-family="sans-serif" font-size="13" font-weight="bold" lengthAdjust="spacing" textLength="7" x="569" y="186.1592">4</text><text fill="#000000" font-family="sans-serif" font-size="13" lengthAdjust="spacing" textLength="225" x="580" y="186.1592">create(appointment, vaccinationCenter)</text><rect fill="#E2E2F0" height="31.6094" rx="2.5" ry="2.5" style="stroke:#181818;stroke-width:0.5;" width="47" x="989.5" y="168.6641"/><text fill="#000000" font-family="sans-serif" font-size="14" lengthAdjust="spacing" textLength="33" x="996.5" y="190.1973">:SMS</text><polygon fill="#181818" points="676.5,229.625,686.5,233.625,676.5,237.625,680.5,233.625" style="stroke:#181818;stroke-width:1.0;"/><line style="stroke:#181818;stroke-width:1.0;" x1="196" x2="682.5" y1="233.625" y2="233.625"/><text fill="#000000" font-family="sans-serif" font-size="13" font-weight="bold" lengthAdjust="spacing" textLength="7" x="203" y="228.7686">5</text><text fill="#000000" font-family="sans-serif" font-size="13" lengthAdjust="spacing" textLength="92" x="214" y="228.7686">smsToDto(sms)</text><polygon fill="#181818" points="996,259.9766,1006,263.9766,996,267.9766,1000,263.9766" style="stroke:#181818;stroke-width:1.0;"/><line style="stroke:#181818;stroke-width:1.0;" x1="698.5" x2="1002" y1="263.9766" y2="263.9766"/><text fill="#000000" font-family="sans-serif" font-size="13" font-weight="bold" lengthAdjust="spacing" textLength="7" x="705.5" y="259.1201">6</text><text fill="#000000" font-family="sans-serif" font-size="13" lengthAdjust="spacing" textLength="178" x="716.5" y="259.1201">smsContent=getSMSContent()</text><polygon fill="#181818" points="835.5,320.3281,845.5,324.3281,835.5,328.3281,839.5,324.3281" style="stroke:#181818;stroke-width:1.0;"/><line style="stroke:#181818;stroke-width:1.0;stroke-dasharray:2.0,2.0;" x1="698.5" x2="841.5" y1="324.3281" y2="324.3281"/><text fill="#000000" font-family="sans-serif" font-size="13" font-weight="bold" lengthAdjust="spacing" textLength="7" x="705.5" y="319.4717">7</text><text fill="#000000" font-family="sans-serif" font-size="13" lengthAdjust="spacing" textLength="114" x="716.5" y="319.4717">create(smsContent)</text><rect fill="#E2E2F0" height="31.6094" rx="2.5" ry="2.5" style="stroke:#181818;stroke-width:0.5;" width="132" x="847.5" y="301.9766"/><text fill="#000000" font-family="sans-serif" font-size="14" lengthAdjust="spacing" textLength="118" x="854.5" y="323.5098">smsDto : SMSDTO</text><!--MD5=[447858fd641dcd4905a5e09147c13520]
@startuml
autonumber

participant ":RecordAdministrationOfVaccineController" as CTRL
participant "snsUser : SNS User" as SNSUSER
participant "smsStore : SMSStore" as SMSSTORE
participant ":SMSMapper" as SMSMAPPER
participant "smsDto : SMSDTO" as SMSDTO
participant ":SMS" as SMS


[o-> CTRL : smsDto = generateSMS()
activate CTRL
CTRL -> SNSUSER: smsStore=getSmsStore()
activate SNSUSER

deactivate SNSUSER
CTRL -> SMSSTORE: sms=generateSMS()
activate SMSSTORE
SMSSTORE - -> SMS ** : create(appointment, vaccinationCenter)
deactivate SMSSTORE
CTRL -> SMSMAPPER: smsToDto(sms)
activate SMSMAPPER
SMSMAPPER -> SMS : smsContent=getSMSContent()
activate SMS
deactivate SMS
SMSMAPPER - -> SMSDTO**: create(smsContent)


@enduml

PlantUML version 1.2022.5(Sat Apr 30 11:55:52 BST 2022)
(GPL source distribution)
Java Runtime: OpenJDK Runtime Environment
JVM: OpenJDK 64-Bit Server VM
Default Encoding: Cp1252
Language: en
Country: US
--></g></svg>