<?xml version="1.0" encoding="UTF-8" standalone="no"?><svg xmlns="http://www.w3.org/2000/svg" xmlns:xlink="http://www.w3.org/1999/xlink" contentStyleType="text/css" height="316px" preserveAspectRatio="none" style="width:1634px;height:316px;background:#FFFFFF;" version="1.1" viewBox="0 0 1634 316" width="1634px" zoomAndPan="magnify"><defs/><g><!--MD5=[a059576e163b46f56762f12600c49258]
class Nurse--><g id="elem_Nurse"><rect codeLine="6" fill="#F1F1F1" height="40" id="Nurse" rx="2.5" ry="2.5" style="stroke:#181818;stroke-width:0.5;" width="69" x="418" y="170.5"/><ellipse cx="433" cy="186.5" fill="#ADD1B2" rx="11" ry="11" style="stroke:#181818;stroke-width:1.0;"/><path d="M435,183 Q435.2031,182.5 435.4375,182.25 Q435.6719,182 435.9375,182 Q436.4063,182 436.7031,182.2813 Q437,182.5625 437,183.2188 L437,184.7813 Q437,185.4375 436.7188,185.7188 Q436.4375,186 436,186 Q435.6094,186 435.3594,185.8281 Q435.1094,185.6563 435,185.2031 Q434.9531,184.8906 434.7813,184.7188 Q434.4688,184.3906 433.9063,184.2031 Q433.3438,184 432.7813,184 Q432.0781,184 431.4844,184.2813 Q430.9063,184.5625 430.4531,185.1875 Q430,185.8125 430,186.6719 L430,187.5938 Q430,188.625 430.8438,189.3125 Q431.6875,190 433.1875,190 Q434.0781,190 434.7031,189.7969 Q435.0625,189.6875 435.4688,189.3281 Q435.7344,189.125 435.875,189.0625 Q436.0156,189 436.1875,189 Q436.5156,189 436.75,189.2656 Q437,189.5156 437,189.875 Q437,190.2188 436.6563,190.625 Q436.1563,191.2188 435.3594,191.5469 Q434.3125,192 433.0313,192 Q431.5313,192 430.3281,191.4063 Q429.3594,190.9375 428.6719,189.9219 Q428,188.9063 428,187.7031 L428,186.6094 Q428,185.3594 428.5938,184.2656 Q429.2031,183.1719 430.25,182.5938 Q431.3125,182 432.5,182 Q433.2188,182 433.8438,182.25 Q434.4688,182.5 435,183 Z " fill="#000000"/><text fill="#000000" font-family="sans-serif" font-size="14" lengthAdjust="spacing" textLength="37" x="447" y="192.2285">Nurse</text><line style="stroke:#181818;stroke-width:0.5;" x1="419" x2="486" y1="202.5" y2="202.5"/></g><!--MD5=[7421f545a0d8420c5bec41e74b387d9c]
class Employee--><g id="elem_Employee"><rect codeLine="44" fill="#F1F1F1" height="110.4375" id="Employee" rx="2.5" ry="2.5" style="stroke:#181818;stroke-width:0.5;" width="106" x="216" y="135.5"/><ellipse cx="236.4" cy="151.5" fill="#ADD1B2" rx="11" ry="11" style="stroke:#181818;stroke-width:1.0;"/><path d="M238.4,148 Q238.6031,147.5 238.8375,147.25 Q239.0719,147 239.3375,147 Q239.8063,147 240.1031,147.2813 Q240.4,147.5625 240.4,148.2188 L240.4,149.7813 Q240.4,150.4375 240.1188,150.7188 Q239.8375,151 239.4,151 Q239.0094,151 238.7594,150.8281 Q238.5094,150.6563 238.4,150.2031 Q238.3531,149.8906 238.1813,149.7188 Q237.8688,149.3906 237.3063,149.2031 Q236.7438,149 236.1813,149 Q235.4781,149 234.8844,149.2813 Q234.3063,149.5625 233.8531,150.1875 Q233.4,150.8125 233.4,151.6719 L233.4,152.5938 Q233.4,153.625 234.2438,154.3125 Q235.0875,155 236.5875,155 Q237.4781,155 238.1031,154.7969 Q238.4625,154.6875 238.8688,154.3281 Q239.1344,154.125 239.275,154.0625 Q239.4156,154 239.5875,154 Q239.9156,154 240.15,154.2656 Q240.4,154.5156 240.4,154.875 Q240.4,155.2188 240.0563,155.625 Q239.5563,156.2188 238.7594,156.5469 Q237.7125,157 236.4313,157 Q234.9313,157 233.7281,156.4063 Q232.7594,155.9375 232.0719,154.9219 Q231.4,153.9063 231.4,152.7031 L231.4,151.6094 Q231.4,150.3594 231.9938,149.2656 Q232.6031,148.1719 233.65,147.5938 Q234.7125,147 235.9,147 Q236.6188,147 237.2438,147.25 Q237.8688,147.5 238.4,148 Z " fill="#000000"/><text fill="#000000" font-family="sans-serif" font-size="14" lengthAdjust="spacing" textLength="62" x="251.6" y="157.2285">Employee</text><line style="stroke:#181818;stroke-width:0.5;" x1="217" x2="321" y1="167.5" y2="167.5"/><text fill="#000000" font-family="sans-serif" font-size="14" lengthAdjust="spacing" textLength="77" x="222" y="186.0332">-employeeId</text><text fill="#000000" font-family="sans-serif" font-size="14" lengthAdjust="spacing" textLength="56" x="222" y="203.6426">-address</text><text fill="#000000" font-family="sans-serif" font-size="14" lengthAdjust="spacing" textLength="94" x="222" y="221.252">-phoneNumber</text><text fill="#000000" font-family="sans-serif" font-size="14" lengthAdjust="spacing" textLength="68" x="222" y="238.8613">-ccNumber</text></g><!--MD5=[e1e97d7833504f0497ef1970beed5a32]
class VacccineAdministration--><g id="elem_VacccineAdministration"><rect codeLine="9" fill="#F1F1F1" height="75.2188" id="VacccineAdministration" rx="2.5" ry="2.5" style="stroke:#181818;stroke-width:0.5;" width="178" x="719" y="153"/><ellipse cx="734" cy="169" fill="#ADD1B2" rx="11" ry="11" style="stroke:#181818;stroke-width:1.0;"/><path d="M736,165.5 Q736.2031,165 736.4375,164.75 Q736.6719,164.5 736.9375,164.5 Q737.4063,164.5 737.7031,164.7813 Q738,165.0625 738,165.7188 L738,167.2813 Q738,167.9375 737.7188,168.2188 Q737.4375,168.5 737,168.5 Q736.6094,168.5 736.3594,168.3281 Q736.1094,168.1563 736,167.7031 Q735.9531,167.3906 735.7813,167.2188 Q735.4688,166.8906 734.9063,166.7031 Q734.3438,166.5 733.7813,166.5 Q733.0781,166.5 732.4844,166.7813 Q731.9063,167.0625 731.4531,167.6875 Q731,168.3125 731,169.1719 L731,170.0938 Q731,171.125 731.8438,171.8125 Q732.6875,172.5 734.1875,172.5 Q735.0781,172.5 735.7031,172.2969 Q736.0625,172.1875 736.4688,171.8281 Q736.7344,171.625 736.875,171.5625 Q737.0156,171.5 737.1875,171.5 Q737.5156,171.5 737.75,171.7656 Q738,172.0156 738,172.375 Q738,172.7188 737.6563,173.125 Q737.1563,173.7188 736.3594,174.0469 Q735.3125,174.5 734.0313,174.5 Q732.5313,174.5 731.3281,173.9063 Q730.3594,173.4375 729.6719,172.4219 Q729,171.4063 729,170.2031 L729,169.1094 Q729,167.8594 729.5938,166.7656 Q730.2031,165.6719 731.25,165.0938 Q732.3125,164.5 733.5,164.5 Q734.2188,164.5 734.8438,164.75 Q735.4688,165 736,165.5 Z " fill="#000000"/><text fill="#000000" font-family="sans-serif" font-size="14" lengthAdjust="spacing" textLength="146" x="748" y="174.7285">VacccineAdministration</text><line style="stroke:#181818;stroke-width:0.5;" x1="720" x2="896" y1="185" y2="185"/><text fill="#000000" font-family="sans-serif" font-size="14" lengthAdjust="spacing" textLength="69" x="725" y="203.5332">-lotNumber</text><text fill="#000000" font-family="sans-serif" font-size="14" lengthAdjust="spacing" textLength="137" x="725" y="221.1426">-dateOfAdministration</text></g><!--MD5=[03e3bb7aef77bf14822eb3fb6d15ab17]
class Dose--><g id="elem_Dose"><rect codeLine="14" fill="#F1F1F1" height="92.8281" id="Dose" rx="2.5" ry="2.5" style="stroke:#181818;stroke-width:0.5;" width="137" x="1064" y="80"/><ellipse cx="1111.75" cy="96" fill="#ADD1B2" rx="11" ry="11" style="stroke:#181818;stroke-width:1.0;"/><path d="M1113.75,92.5 Q1113.9531,92 1114.1875,91.75 Q1114.4219,91.5 1114.6875,91.5 Q1115.1563,91.5 1115.4531,91.7813 Q1115.75,92.0625 1115.75,92.7188 L1115.75,94.2813 Q1115.75,94.9375 1115.4688,95.2188 Q1115.1875,95.5 1114.75,95.5 Q1114.3594,95.5 1114.1094,95.3281 Q1113.8594,95.1563 1113.75,94.7031 Q1113.7031,94.3906 1113.5313,94.2188 Q1113.2188,93.8906 1112.6563,93.7031 Q1112.0938,93.5 1111.5313,93.5 Q1110.8281,93.5 1110.2344,93.7813 Q1109.6563,94.0625 1109.2031,94.6875 Q1108.75,95.3125 1108.75,96.1719 L1108.75,97.0938 Q1108.75,98.125 1109.5938,98.8125 Q1110.4375,99.5 1111.9375,99.5 Q1112.8281,99.5 1113.4531,99.2969 Q1113.8125,99.1875 1114.2188,98.8281 Q1114.4844,98.625 1114.625,98.5625 Q1114.7656,98.5 1114.9375,98.5 Q1115.2656,98.5 1115.5,98.7656 Q1115.75,99.0156 1115.75,99.375 Q1115.75,99.7188 1115.4063,100.125 Q1114.9063,100.7188 1114.1094,101.0469 Q1113.0625,101.5 1111.7813,101.5 Q1110.2813,101.5 1109.0781,100.9063 Q1108.1094,100.4375 1107.4219,99.4219 Q1106.75,98.4063 1106.75,97.2031 L1106.75,96.1094 Q1106.75,94.8594 1107.3438,93.7656 Q1107.9531,92.6719 1109,92.0938 Q1110.0625,91.5 1111.25,91.5 Q1111.9688,91.5 1112.5938,91.75 Q1113.2188,92 1113.75,92.5 Z " fill="#000000"/><text fill="#000000" font-family="sans-serif" font-size="14" lengthAdjust="spacing" textLength="33" x="1132.25" y="101.7285">Dose</text><line style="stroke:#181818;stroke-width:0.5;" x1="1065" x2="1200" y1="112" y2="112"/><text fill="#000000" font-family="sans-serif" font-size="14" lengthAdjust="spacing" textLength="85" x="1070" y="130.5332">-doseNumber</text><text fill="#000000" font-family="sans-serif" font-size="14" lengthAdjust="spacing" textLength="52" x="1070" y="148.1426">-dosage</text><text fill="#000000" font-family="sans-serif" font-size="14" lengthAdjust="spacing" textLength="125" x="1070" y="165.752">-timeBetweenDoses</text></g><!--MD5=[72be06cc7ae02ccc98efe28a50e62246]
class SNSUser--><g id="elem_SNSUser"><rect codeLine="20" fill="#F1F1F1" height="75.2188" id="SNSUser" rx="2.5" ry="2.5" style="stroke:#181818;stroke-width:0.5;" width="88" x="1088.5" y="234"/><ellipse cx="1103.5" cy="250" fill="#ADD1B2" rx="11" ry="11" style="stroke:#181818;stroke-width:1.0;"/><path d="M1105.5,246.5 Q1105.7031,246 1105.9375,245.75 Q1106.1719,245.5 1106.4375,245.5 Q1106.9063,245.5 1107.2031,245.7813 Q1107.5,246.0625 1107.5,246.7188 L1107.5,248.2813 Q1107.5,248.9375 1107.2188,249.2188 Q1106.9375,249.5 1106.5,249.5 Q1106.1094,249.5 1105.8594,249.3281 Q1105.6094,249.1563 1105.5,248.7031 Q1105.4531,248.3906 1105.2813,248.2188 Q1104.9688,247.8906 1104.4063,247.7031 Q1103.8438,247.5 1103.2813,247.5 Q1102.5781,247.5 1101.9844,247.7813 Q1101.4063,248.0625 1100.9531,248.6875 Q1100.5,249.3125 1100.5,250.1719 L1100.5,251.0938 Q1100.5,252.125 1101.3438,252.8125 Q1102.1875,253.5 1103.6875,253.5 Q1104.5781,253.5 1105.2031,253.2969 Q1105.5625,253.1875 1105.9688,252.8281 Q1106.2344,252.625 1106.375,252.5625 Q1106.5156,252.5 1106.6875,252.5 Q1107.0156,252.5 1107.25,252.7656 Q1107.5,253.0156 1107.5,253.375 Q1107.5,253.7188 1107.1563,254.125 Q1106.6563,254.7188 1105.8594,255.0469 Q1104.8125,255.5 1103.5313,255.5 Q1102.0313,255.5 1100.8281,254.9063 Q1099.8594,254.4375 1099.1719,253.4219 Q1098.5,252.4063 1098.5,251.2031 L1098.5,250.1094 Q1098.5,248.8594 1099.0938,247.7656 Q1099.7031,246.6719 1100.75,246.0938 Q1101.8125,245.5 1103,245.5 Q1103.7188,245.5 1104.3438,245.75 Q1104.9688,246 1105.5,246.5 Z " fill="#000000"/><text fill="#000000" font-family="sans-serif" font-size="14" lengthAdjust="spacing" textLength="56" x="1117.5" y="255.7285">SNSUser</text><line style="stroke:#181818;stroke-width:0.5;" x1="1089.5" x2="1175.5" y1="266" y2="266"/><text fill="#000000" font-family="sans-serif" font-size="14" lengthAdjust="spacing" textLength="76" x="1094.5" y="284.5332">-snsNumber</text><text fill="#000000" font-family="sans-serif" font-size="14" lengthAdjust="spacing" textLength="61" x="1094.5" y="302.1426">-birthdate</text></g><!--MD5=[76b5e19c9337179d2d7ae334371d68c8]
class Notification--><g id="elem_Notification"><rect codeLine="25" fill="#F1F1F1" height="57.6094" id="Notification" rx="2.5" ry="2.5" style="stroke:#181818;stroke-width:0.5;" width="113" x="1323" y="242.5"/><ellipse cx="1343.4" cy="258.5" fill="#ADD1B2" rx="11" ry="11" style="stroke:#181818;stroke-width:1.0;"/><path d="M1345.4,255 Q1345.6031,254.5 1345.8375,254.25 Q1346.0719,254 1346.3375,254 Q1346.8063,254 1347.1031,254.2813 Q1347.4,254.5625 1347.4,255.2188 L1347.4,256.7813 Q1347.4,257.4375 1347.1188,257.7188 Q1346.8375,258 1346.4,258 Q1346.0094,258 1345.7594,257.8281 Q1345.5094,257.6563 1345.4,257.2031 Q1345.3531,256.8906 1345.1813,256.7188 Q1344.8688,256.3906 1344.3063,256.2031 Q1343.7438,256 1343.1813,256 Q1342.4781,256 1341.8844,256.2813 Q1341.3063,256.5625 1340.8531,257.1875 Q1340.4,257.8125 1340.4,258.6719 L1340.4,259.5938 Q1340.4,260.625 1341.2438,261.3125 Q1342.0875,262 1343.5875,262 Q1344.4781,262 1345.1031,261.7969 Q1345.4625,261.6875 1345.8688,261.3281 Q1346.1344,261.125 1346.275,261.0625 Q1346.4156,261 1346.5875,261 Q1346.9156,261 1347.15,261.2656 Q1347.4,261.5156 1347.4,261.875 Q1347.4,262.2188 1347.0563,262.625 Q1346.5563,263.2188 1345.7594,263.5469 Q1344.7125,264 1343.4313,264 Q1341.9313,264 1340.7281,263.4063 Q1339.7594,262.9375 1339.0719,261.9219 Q1338.4,260.9063 1338.4,259.7031 L1338.4,258.6094 Q1338.4,257.3594 1338.9938,256.2656 Q1339.6031,255.1719 1340.65,254.5938 Q1341.7125,254 1342.9,254 Q1343.6188,254 1344.2438,254.25 Q1344.8688,254.5 1345.4,255 Z " fill="#000000"/><text fill="#000000" font-family="sans-serif" font-size="14" lengthAdjust="spacing" textLength="69" x="1358.6" y="264.2285">Notification</text><line style="stroke:#181818;stroke-width:0.5;" x1="1324" x2="1435" y1="274.5" y2="274.5"/><text fill="#000000" font-family="sans-serif" font-size="14" lengthAdjust="spacing" textLength="101" x="1329" y="293.0332">-recoveryPeriod</text></g><!--MD5=[17d776304760d17bcc13ba401441cbdd]
class SMSNotification--><g id="elem_SMSNotification"><rect codeLine="29" fill="#F1F1F1" height="40" id="SMSNotification" rx="2.5" ry="2.5" style="stroke:#181818;stroke-width:0.5;" width="130" x="1497" y="251.5"/><ellipse cx="1512" cy="267.5" fill="#ADD1B2" rx="11" ry="11" style="stroke:#181818;stroke-width:1.0;"/><path d="M1514,264 Q1514.2031,263.5 1514.4375,263.25 Q1514.6719,263 1514.9375,263 Q1515.4063,263 1515.7031,263.2813 Q1516,263.5625 1516,264.2188 L1516,265.7813 Q1516,266.4375 1515.7188,266.7188 Q1515.4375,267 1515,267 Q1514.6094,267 1514.3594,266.8281 Q1514.1094,266.6563 1514,266.2031 Q1513.9531,265.8906 1513.7813,265.7188 Q1513.4688,265.3906 1512.9063,265.2031 Q1512.3438,265 1511.7813,265 Q1511.0781,265 1510.4844,265.2813 Q1509.9063,265.5625 1509.4531,266.1875 Q1509,266.8125 1509,267.6719 L1509,268.5938 Q1509,269.625 1509.8438,270.3125 Q1510.6875,271 1512.1875,271 Q1513.0781,271 1513.7031,270.7969 Q1514.0625,270.6875 1514.4688,270.3281 Q1514.7344,270.125 1514.875,270.0625 Q1515.0156,270 1515.1875,270 Q1515.5156,270 1515.75,270.2656 Q1516,270.5156 1516,270.875 Q1516,271.2188 1515.6563,271.625 Q1515.1563,272.2188 1514.3594,272.5469 Q1513.3125,273 1512.0313,273 Q1510.5313,273 1509.3281,272.4063 Q1508.3594,271.9375 1507.6719,270.9219 Q1507,269.9063 1507,268.7031 L1507,267.6094 Q1507,266.3594 1507.5938,265.2656 Q1508.2031,264.1719 1509.25,263.5938 Q1510.3125,263 1511.5,263 Q1512.2188,263 1512.8438,263.25 Q1513.4688,263.5 1514,264 Z " fill="#000000"/><text fill="#000000" font-family="sans-serif" font-size="14" lengthAdjust="spacing" textLength="98" x="1526" y="273.2285">SMSNotification</text><line style="stroke:#181818;stroke-width:0.5;" x1="1498" x2="1626" y1="283.5" y2="283.5"/></g><!--MD5=[19e445fc4d3b48519cbe33da05496394]
class Vaccine--><g id="elem_Vaccine"><rect codeLine="32" fill="#F1F1F1" height="92.8281" id="Vaccine" rx="2.5" ry="2.5" style="stroke:#181818;stroke-width:0.5;" width="82" x="228" y="7"/><ellipse cx="243" cy="23" fill="#ADD1B2" rx="11" ry="11" style="stroke:#181818;stroke-width:1.0;"/><path d="M245,19.5 Q245.2031,19 245.4375,18.75 Q245.6719,18.5 245.9375,18.5 Q246.4063,18.5 246.7031,18.7813 Q247,19.0625 247,19.7188 L247,21.2813 Q247,21.9375 246.7188,22.2188 Q246.4375,22.5 246,22.5 Q245.6094,22.5 245.3594,22.3281 Q245.1094,22.1563 245,21.7031 Q244.9531,21.3906 244.7813,21.2188 Q244.4688,20.8906 243.9063,20.7031 Q243.3438,20.5 242.7813,20.5 Q242.0781,20.5 241.4844,20.7813 Q240.9063,21.0625 240.4531,21.6875 Q240,22.3125 240,23.1719 L240,24.0938 Q240,25.125 240.8438,25.8125 Q241.6875,26.5 243.1875,26.5 Q244.0781,26.5 244.7031,26.2969 Q245.0625,26.1875 245.4688,25.8281 Q245.7344,25.625 245.875,25.5625 Q246.0156,25.5 246.1875,25.5 Q246.5156,25.5 246.75,25.7656 Q247,26.0156 247,26.375 Q247,26.7188 246.6563,27.125 Q246.1563,27.7188 245.3594,28.0469 Q244.3125,28.5 243.0313,28.5 Q241.5313,28.5 240.3281,27.9063 Q239.3594,27.4375 238.6719,26.4219 Q238,25.4063 238,24.2031 L238,23.1094 Q238,21.8594 238.5938,20.7656 Q239.2031,19.6719 240.25,19.0938 Q241.3125,18.5 242.5,18.5 Q243.2188,18.5 243.8438,18.75 Q244.4688,19 245,19.5 Z " fill="#000000"/><text fill="#000000" font-family="sans-serif" font-size="14" lengthAdjust="spacing" textLength="50" x="257" y="28.7285">Vaccine</text><line style="stroke:#181818;stroke-width:0.5;" x1="229" x2="309" y1="39" y2="39"/><text fill="#000000" font-family="sans-serif" font-size="14" lengthAdjust="spacing" textLength="57" x="234" y="57.5332">-vacineId</text><text fill="#000000" font-family="sans-serif" font-size="14" lengthAdjust="spacing" textLength="40" x="234" y="75.1426">-name</text><text fill="#000000" font-family="sans-serif" font-size="14" lengthAdjust="spacing" textLength="42" x="234" y="92.752">-brand</text></g><!--MD5=[a2530d24bafc45bb45314d96545aa194]
class AdministrationProcess--><g id="elem_AdministrationProcess"><rect codeLine="38" fill="#F1F1F1" height="92.8281" id="AdministrationProcess" rx="2.5" ry="2.5" style="stroke:#181818;stroke-width:0.5;" width="172" x="517" y="25"/><ellipse cx="532" cy="41" fill="#ADD1B2" rx="11" ry="11" style="stroke:#181818;stroke-width:1.0;"/><path d="M534,37.5 Q534.2031,37 534.4375,36.75 Q534.6719,36.5 534.9375,36.5 Q535.4063,36.5 535.7031,36.7813 Q536,37.0625 536,37.7188 L536,39.2813 Q536,39.9375 535.7188,40.2188 Q535.4375,40.5 535,40.5 Q534.6094,40.5 534.3594,40.3281 Q534.1094,40.1563 534,39.7031 Q533.9531,39.3906 533.7813,39.2188 Q533.4688,38.8906 532.9063,38.7031 Q532.3438,38.5 531.7813,38.5 Q531.0781,38.5 530.4844,38.7813 Q529.9063,39.0625 529.4531,39.6875 Q529,40.3125 529,41.1719 L529,42.0938 Q529,43.125 529.8438,43.8125 Q530.6875,44.5 532.1875,44.5 Q533.0781,44.5 533.7031,44.2969 Q534.0625,44.1875 534.4688,43.8281 Q534.7344,43.625 534.875,43.5625 Q535.0156,43.5 535.1875,43.5 Q535.5156,43.5 535.75,43.7656 Q536,44.0156 536,44.375 Q536,44.7188 535.6563,45.125 Q535.1563,45.7188 534.3594,46.0469 Q533.3125,46.5 532.0313,46.5 Q530.5313,46.5 529.3281,45.9063 Q528.3594,45.4375 527.6719,44.4219 Q527,43.4063 527,42.2031 L527,41.1094 Q527,39.8594 527.5938,38.7656 Q528.2031,37.6719 529.25,37.0938 Q530.3125,36.5 531.5,36.5 Q532.2188,36.5 532.8438,36.75 Q533.4688,37 534,37.5 Z " fill="#000000"/><text fill="#000000" font-family="sans-serif" font-size="14" lengthAdjust="spacing" textLength="140" x="546" y="46.7285">AdministrationProcess</text><line style="stroke:#181818;stroke-width:0.5;" x1="518" x2="688" y1="57" y2="57"/><text fill="#000000" font-family="sans-serif" font-size="14" lengthAdjust="spacing" textLength="101" x="523" y="75.5332">-numberOfDose</text><text fill="#000000" font-family="sans-serif" font-size="14" lengthAdjust="spacing" textLength="88" x="523" y="93.1426">-maximumAge</text><text fill="#000000" font-family="sans-serif" font-size="14" lengthAdjust="spacing" textLength="85" x="523" y="110.752">-minimumAge</text></g><!--MD5=[02e4b9b7573f1156f41e60aa5b4e25a4]
class Company--><g id="elem_Company"><rect codeLine="51" fill="#F1F1F1" height="57.6094" id="Company" rx="2.5" ry="2.5" style="stroke:#181818;stroke-width:0.5;" width="92" x="7" y="161.5"/><ellipse cx="22" cy="177.5" fill="#ADD1B2" rx="11" ry="11" style="stroke:#181818;stroke-width:1.0;"/><path d="M24,174 Q24.2031,173.5 24.4375,173.25 Q24.6719,173 24.9375,173 Q25.4063,173 25.7031,173.2813 Q26,173.5625 26,174.2188 L26,175.7813 Q26,176.4375 25.7188,176.7188 Q25.4375,177 25,177 Q24.6094,177 24.3594,176.8281 Q24.1094,176.6563 24,176.2031 Q23.9531,175.8906 23.7813,175.7188 Q23.4688,175.3906 22.9063,175.2031 Q22.3438,175 21.7813,175 Q21.0781,175 20.4844,175.2813 Q19.9063,175.5625 19.4531,176.1875 Q19,176.8125 19,177.6719 L19,178.5938 Q19,179.625 19.8438,180.3125 Q20.6875,181 22.1875,181 Q23.0781,181 23.7031,180.7969 Q24.0625,180.6875 24.4688,180.3281 Q24.7344,180.125 24.875,180.0625 Q25.0156,180 25.1875,180 Q25.5156,180 25.75,180.2656 Q26,180.5156 26,180.875 Q26,181.2188 25.6563,181.625 Q25.1563,182.2188 24.3594,182.5469 Q23.3125,183 22.0313,183 Q20.5313,183 19.3281,182.4063 Q18.3594,181.9375 17.6719,180.9219 Q17,179.9063 17,178.7031 L17,177.6094 Q17,176.3594 17.5938,175.2656 Q18.2031,174.1719 19.25,173.5938 Q20.3125,173 21.5,173 Q22.2188,173 22.8438,173.25 Q23.4688,173.5 24,174 Z " fill="#000000"/><text fill="#000000" font-family="sans-serif" font-size="14" lengthAdjust="spacing" textLength="60" x="36" y="183.2285">Company</text><line style="stroke:#181818;stroke-width:0.5;" x1="8" x2="98" y1="193.5" y2="193.5"/><text fill="#000000" font-family="sans-serif" font-size="14" lengthAdjust="spacing" textLength="78" x="13" y="212.0332">-designation</text></g><!--MD5=[6716344a46572fc99c27bf4e50ddbd3d]
reverse link Employee to Nurse--><g id="link_Employee_Nurse"><path d="M342.3,190.5 C368.39,190.5 396.6,190.5 417.81,190.5 " fill="none" id="Employee-backto-Nurse" style="stroke:#181818;stroke-width:1.0;"/><polygon fill="none" points="342.01,197.5,322.01,190.5,342.01,183.5,342.01,197.5" style="stroke:#181818;stroke-width:1.0;"/></g><!--MD5=[0e746bf0fb50d7a50210c7c405534661]
reverse link Notification to SMSNotification--><g id="link_Notification_SMSNotification"><path d="M1456.59,271.5 C1469.94,271.5 1483.71,271.5 1496.71,271.5 " fill="none" id="Notification-backto-SMSNotification" style="stroke:#181818;stroke-width:1.0;"/><polygon fill="none" points="1456.13,278.5,1436.13,271.5,1456.13,264.5,1456.13,278.5" style="stroke:#181818;stroke-width:1.0;"/></g><!--MD5=[dcd6bf8b5f63d4b5e337feae740fccd2]
link Nurse to VacccineAdministration--><g id="link_Nurse_VacccineAdministration"><path codeLine="56" d="M487.08,190.5 C539.81,190.5 643.79,190.5 718.92,190.5 " fill="none" id="Nurse-VacccineAdministration" style="stroke:#181818;stroke-width:1.0;"/><polygon fill="#000000" points="580.5,181.6758,571.4549,178.7369,571.4549,184.6147,580.5,181.6758" style="stroke:#000000;stroke-width:1.0;"/><text fill="#000000" font-family="sans-serif" font-size="13" lengthAdjust="spacing" textLength="50" x="584.5" y="186.9951">performs</text><text fill="#000000" font-family="sans-serif" font-size="13" lengthAdjust="spacing" textLength="7" x="494.934" y="205.6814">1</text><text fill="#000000" font-family="sans-serif" font-size="13" lengthAdjust="spacing" textLength="5" x="706.0498" y="204.6883">*</text></g><!--MD5=[32444f4f6bd17d9e216886f5b383344a]
link VacccineAdministration to Dose--><g id="link_VacccineAdministration_Dose"><path codeLine="57" d="M897.12,173.01 C949.72,162.57 1015.48,149.53 1063.94,139.91 " fill="none" id="VacccineAdministration-Dose" style="stroke:#181818;stroke-width:1.0;"/><polygon fill="#000000" points="968.9044,137.7027,959.4603,136.5803,960.6042,142.3458,968.9044,137.7027" style="stroke:#000000;stroke-width:1.0;"/><text fill="#000000" font-family="sans-serif" font-size="13" lengthAdjust="spacing" textLength="28" x="973" y="143.9951">uses</text><text fill="#000000" font-family="sans-serif" font-size="13" lengthAdjust="spacing" textLength="7" x="905.0795" y="185.6953">1</text><text fill="#000000" font-family="sans-serif" font-size="13" lengthAdjust="spacing" textLength="7" x="1049.0584" y="155.7755">1</text></g><!--MD5=[b33037cd3ef065df48af27a703d274e2]
link VacccineAdministration to SNSUser--><g id="link_VacccineAdministration_SNSUser"><path codeLine="58" d="M897.12,212.63 C959.23,228.23 1039.69,248.44 1088.36,260.67 " fill="none" id="VacccineAdministration-SNSUser" style="stroke:#181818;stroke-width:1.0;"/><polygon fill="#000000" points="936.8493,213.8939,928.7928,208.8399,927.3608,214.5406,936.8493,213.8939" style="stroke:#000000;stroke-width:1.0;"/><text fill="#000000" font-family="sans-serif" font-size="13" lengthAdjust="spacing" textLength="92" x="941" y="217.9951">administered on</text><text fill="#000000" font-family="sans-serif" font-size="13" lengthAdjust="spacing" textLength="5" x="904.9936" y="228.7201">*</text><text fill="#000000" font-family="sans-serif" font-size="13" lengthAdjust="spacing" textLength="7" x="1073.4696" y="273.7074">1</text></g><!--MD5=[1d6d671bbc18d64756cbd8abf269fed7]
link SNSUser to Notification--><g id="link_SNSUser_Notification"><path codeLine="59" d="M1176.74,271.5 C1217.4,271.5 1278.48,271.5 1322.78,271.5 " fill="none" id="SNSUser-Notification" style="stroke:#181818;stroke-width:1.0;"/><polygon fill="#000000" points="1241,262.6758,1231.9549,259.7369,1231.9549,265.6147,1241,262.6758" style="stroke:#000000;stroke-width:1.0;"/><text fill="#000000" font-family="sans-serif" font-size="13" lengthAdjust="spacing" textLength="47" x="1245" y="267.9951">receives</text><text fill="#000000" font-family="sans-serif" font-size="13" lengthAdjust="spacing" textLength="7" x="1184.6469" y="286.3311">1</text><text fill="#000000" font-family="sans-serif" font-size="13" lengthAdjust="spacing" textLength="5" x="1309.8223" y="286.12">*</text></g><!--MD5=[a98252b7739f22b1ddec3651c1c3aaea]
link Vaccine to AdministrationProcess--><g id="link_Vaccine_AdministrationProcess"><path codeLine="60" d="M310.05,55.67 C361.01,58.43 450.4,63.28 516.88,66.88 " fill="none" id="Vaccine-AdministrationProcess" style="stroke:#181818;stroke-width:1.0;"/><polygon fill="#000000" points="361.9927,49.9464,353.1199,46.5222,352.8018,52.3915,361.9927,49.9464" style="stroke:#000000;stroke-width:1.0;"/><text fill="#000000" font-family="sans-serif" font-size="13" lengthAdjust="spacing" textLength="21" x="366" y="54.9951">has</text><text fill="#000000" font-family="sans-serif" font-size="13" lengthAdjust="spacing" textLength="7" x="317.9855" y="71.0233">1</text><text fill="#000000" font-family="sans-serif" font-size="13" lengthAdjust="spacing" textLength="20" x="488.9201" y="80.6767">1..*</text></g><!--MD5=[73a7b597172a59150090f17cb277cab0]
link AdministrationProcess to Dose--><g id="link_AdministrationProcess_Dose"><path codeLine="61" d="M689.04,80.37 C793.37,91.24 968.12,109.47 1063.81,119.44 " fill="none" id="AdministrationProcess-Dose" style="stroke:#181818;stroke-width:1.0;"/><polygon fill="#000000" points="799.973,76.1942,791.2815,72.3333,790.672,78.1794,799.973,76.1942" style="stroke:#000000;stroke-width:1.0;"/><text fill="#000000" font-family="sans-serif" font-size="13" lengthAdjust="spacing" textLength="21" x="804" y="80.9951">has</text><text fill="#000000" font-family="sans-serif" font-size="13" lengthAdjust="spacing" textLength="7" x="697.0147" y="95.3909">1</text><text fill="#000000" font-family="sans-serif" font-size="13" lengthAdjust="spacing" textLength="20" x="1036.064" y="133.0534">1..*</text></g><!--MD5=[09366576ee87d48d594df10cacc83f45]
link Company to Employee--><g id="link_Company_Employee"><path codeLine="62" d="M99.12,190.5 C133.21,190.5 180.07,190.5 215.78,190.5 " fill="none" id="Company-Employee" style="stroke:#181818;stroke-width:1.0;"/><polygon fill="#000000" points="139,181.6758,129.9549,178.7369,129.9549,184.6147,139,181.6758" style="stroke:#000000;stroke-width:1.0;"/><text fill="#000000" font-family="sans-serif" font-size="13" lengthAdjust="spacing" textLength="42" x="143" y="186.9951">employ</text><text fill="#000000" font-family="sans-serif" font-size="13" lengthAdjust="spacing" textLength="7" x="107.0282" y="205.3293">1</text><text fill="#000000" font-family="sans-serif" font-size="13" lengthAdjust="spacing" textLength="5" x="202.9444" y="205.1141">*</text></g><!--MD5=[c29c8d42883934cbaf5793c72a334947]
link Company to Vaccine--><g id="link_Company_Vaccine"><path codeLine="63" d="M99.12,161.61 C137.26,137.2 191.38,102.55 227.99,79.12 " fill="none" id="Company-Vaccine" style="stroke:#181818;stroke-width:1.0;"/><polygon fill="#000000" points="138.7112,98.9802,129.5087,101.3813,132.6775,106.3318,138.7112,98.9802" style="stroke:#000000;stroke-width:1.0;"/><text fill="#000000" font-family="sans-serif" font-size="13" lengthAdjust="spacing" textLength="41" x="143.5" y="106.9951">applies</text><text fill="#000000" font-family="sans-serif" font-size="13" lengthAdjust="spacing" textLength="7" x="107.0282" y="171.8349">1</text><text fill="#000000" font-family="sans-serif" font-size="13" lengthAdjust="spacing" textLength="5" x="214.9678" y="98.8621">*</text></g><!--MD5=[1a8aa2b864b87f860d28abceaa28b7a5]
link Company to SNSUser--><g id="link_Company_SNSUser"><path codeLine="64" d="M87.34,219.73 C127.35,251.71 197.88,298.5 268,298.5 C268,298.5 268,298.5 809,298.5 C909.29,298.5 1026.52,285.37 1088.3,277.43 " fill="none" id="Company-SNSUser" style="stroke:#181818;stroke-width:1.0;"/><polygon fill="#000000" points="436.4917,289.9635,427.6308,286.5089,427.2925,292.377,436.4917,289.9635" style="stroke:#000000;stroke-width:1.0;"/><text fill="#000000" font-family="sans-serif" font-size="13" lengthAdjust="spacing" textLength="37" x="440.5" y="294.9951">knows</text><text fill="#000000" font-family="sans-serif" font-size="13" lengthAdjust="spacing" textLength="7" x="86.4116" y="240.6278">1</text><text fill="#000000" font-family="sans-serif" font-size="13" lengthAdjust="spacing" textLength="5" x="1075.5653" y="293.2433">*</text></g><!--MD5=[1987907bc623abdb27525f1cef6df3a6]
@startuml
hide methods
left to right direction
skinparam classAttributeIconSize 0


class Nurse extends Employee {
}

class VacccineAdministration {
-lotNumber
-dateOfAdministration
}

class Dose {
-doseNumber
-dosage
-timeBetweenDoses
}

class SNSUser {
-snsNumber
-birthdate
}

class Notification {
-recoveryPeriod
}

class SMSNotification extends Notification {
}

class Vaccine {
-vacineId
-name
-brand
}

class AdministrationProcess {
-numberOfDose
-maximumAge
-minimumAge
}

class Employee {
-employeeId
-address
-phoneNumber
-ccNumber
}

class Company {
-designation
}


Nurse "1" - - "*" VacccineAdministration : performs >
VacccineAdministration "1" - - "1" Dose : uses >
VacccineAdministration "*" - - "1" SNSUser : administered on >
SNSUser "1" - - "*" Notification: receives >
Vaccine "1" - - "1..*" AdministrationProcess: has >
AdministrationProcess "1" - - "1..*" Dose: has >
Company "1" - - "*" Employee: employ >
Company "1" - - "*" Vaccine: applies >
Company "1" - - "*" SNSUser: knows >

@enduml

PlantUML version 1.2022.5(Sat Apr 30 11:55:52 BST 2022)
(GPL source distribution)
Java Runtime: OpenJDK Runtime Environment
JVM: OpenJDK 64-Bit Server VM
Default Encoding: Cp1252
Language: en
Country: US
--></g></svg>