<?xml version="1.0" encoding="UTF-8" standalone="no"?><svg xmlns="http://www.w3.org/2000/svg" xmlns:xlink="http://www.w3.org/1999/xlink" contentStyleType="text/css" height="644px" preserveAspectRatio="none" style="width:750px;height:644px;background:#FFFFFF;" version="1.1" viewBox="0 0 750 644" width="750px" zoomAndPan="magnify"><defs/><g><rect fill="#FFFFFF" height="493.8984" style="stroke:#181818;stroke-width:1.0;" width="10" x="161" y="87.5703"/><rect fill="#FFFFFF" height="30" style="stroke:#181818;stroke-width:1.0;" width="10" x="405" y="203.4922"/><rect fill="#FFFFFF" height="30" style="stroke:#181818;stroke-width:1.0;" width="10" x="405" y="263.8438"/><rect fill="#FFFFFF" height="30" style="stroke:#181818;stroke-width:1.0;" width="10" x="405" y="324.1953"/><rect fill="#FFFFFF" height="30" style="stroke:#181818;stroke-width:1.0;" width="10" x="405" y="384.5469"/><rect fill="#FFFFFF" height="30" style="stroke:#181818;stroke-width:1.0;" width="10" x="583.5" y="505.1172"/><rect height="380.3281" style="stroke:#000000;stroke-width:1.5;fill:none;" width="651.5" x="93" y="162.7891"/><line style="stroke:#181818;stroke-width:0.5;fill:none;stroke-dasharray:5.0,5.0;" x1="166" x2="166" y1="55.2188" y2="590.4688"/><line style="stroke:#181818;stroke-width:0.5;fill:none;stroke-dasharray:5.0,5.0;" x1="409.5" x2="409.5" y1="55.2188" y2="590.4688"/><line style="stroke:#181818;stroke-width:0.5;fill:none;stroke-dasharray:5.0,5.0;" x1="588.5" x2="588.5" y1="135.6797" y2="590.4688"/><line style="stroke:#181818;stroke-width:0.5;fill:none;stroke-dasharray:5.0,5.0;" x1="699.5" x2="699.5" y1="462.6563" y2="590.4688"/><rect fill="#E2E2F0" height="31.6094" rx="2.5" ry="2.5" style="stroke:#181818;stroke-width:0.5;" width="126" x="103" y="22.6094"/><text fill="#000000" font-family="sans-serif" font-size="14" lengthAdjust="spacing" textLength="112" x="110" y="44.1426">:MVcenterMapper</text><rect fill="#E2E2F0" height="31.6094" rx="2.5" ry="2.5" style="stroke:#181818;stroke-width:0.5;" width="126" x="103" y="589.4688"/><text fill="#000000" font-family="sans-serif" font-size="14" lengthAdjust="spacing" textLength="112" x="110" y="611.002">:MVcenterMapper</text><rect fill="#E2E2F0" height="49.2188" rx="2.5" ry="2.5" style="stroke:#181818;stroke-width:0.5;" width="205" x="307.5" y="5"/><text fill="#000000" font-family="sans-serif" font-size="14" lengthAdjust="spacing" textLength="88" x="366" y="26.5332">mvcWithVtList</text><text fill="#000000" font-family="sans-serif" font-size="14" lengthAdjust="spacing" textLength="191" x="314.5" y="44.1426">:List&lt;MassVaccinationCenter&gt;</text><rect fill="#E2E2F0" height="49.2188" rx="2.5" ry="2.5" style="stroke:#181818;stroke-width:0.5;" width="205" x="307.5" y="589.4688"/><text fill="#000000" font-family="sans-serif" font-size="14" lengthAdjust="spacing" textLength="88" x="366" y="611.002">mvcWithVtList</text><text fill="#000000" font-family="sans-serif" font-size="14" lengthAdjust="spacing" textLength="191" x="314.5" y="628.6113">:List&lt;MassVaccinationCenter&gt;</text><rect fill="#E2E2F0" height="49.2188" rx="2.5" ry="2.5" style="stroke:#181818;stroke-width:0.5;" width="132" x="522.5" y="589.4688"/><text fill="#000000" font-family="sans-serif" font-size="14" lengthAdjust="spacing" textLength="118" x="529.5" y="611.002">mvcWithVtDTOList</text><text fill="#000000" font-family="sans-serif" font-size="14" lengthAdjust="spacing" textLength="89" x="544" y="628.6113">:list&lt;MVCDto&gt;</text><rect fill="#E2E2F0" height="49.2188" rx="2.5" ry="2.5" style="stroke:#181818;stroke-width:0.5;" width="70" x="664.5" y="589.4688"/><text fill="#000000" font-family="sans-serif" font-size="14" lengthAdjust="spacing" textLength="47" x="676" y="611.002">mvcDto</text><text fill="#000000" font-family="sans-serif" font-size="14" lengthAdjust="spacing" textLength="56" x="671.5" y="628.6113">:MVCDto</text><rect fill="#FFFFFF" height="493.8984" style="stroke:#181818;stroke-width:1.0;" width="10" x="161" y="87.5703"/><rect fill="#FFFFFF" height="30" style="stroke:#181818;stroke-width:1.0;" width="10" x="405" y="203.4922"/><rect fill="#FFFFFF" height="30" style="stroke:#181818;stroke-width:1.0;" width="10" x="405" y="263.8438"/><rect fill="#FFFFFF" height="30" style="stroke:#181818;stroke-width:1.0;" width="10" x="405" y="324.1953"/><rect fill="#FFFFFF" height="30" style="stroke:#181818;stroke-width:1.0;" width="10" x="405" y="384.5469"/><rect fill="#FFFFFF" height="30" style="stroke:#181818;stroke-width:1.0;" width="10" x="583.5" y="505.1172"/><ellipse cx="7.5" cy="86.8203" fill="none" rx="4" ry="4" style="stroke:#181818;stroke-width:1.5;"/><polygon fill="#181818" points="149,83.5703,159,87.5703,149,91.5703,153,87.5703" style="stroke:#181818;stroke-width:1.0;"/><line style="stroke:#181818;stroke-width:1.0;" x1="12" x2="155" y1="87.5703" y2="87.5703"/><text fill="#000000" font-family="sans-serif" font-size="13" font-weight="bold" lengthAdjust="spacing" textLength="7" x="15" y="82.7139">1</text><text fill="#000000" font-family="sans-serif" font-size="13" lengthAdjust="spacing" textLength="123" x="26" y="82.7139">toDto(mvcWithVtList)</text><polygon fill="#181818" points="510.5,113.9219,520.5,117.9219,510.5,121.9219,514.5,117.9219" style="stroke:#181818;stroke-width:1.0;"/><line style="stroke:#181818;stroke-width:1.0;stroke-dasharray:2.0,2.0;" x1="171" x2="516.5" y1="117.9219" y2="117.9219"/><text fill="#000000" font-family="sans-serif" font-size="13" font-weight="bold" lengthAdjust="spacing" textLength="7" x="178" y="113.0654">2</text><text fill="#000000" font-family="sans-serif" font-size="13" lengthAdjust="spacing" textLength="44" x="189" y="113.0654">create()</text><rect fill="#E2E2F0" height="49.2188" rx="2.5" ry="2.5" style="stroke:#181818;stroke-width:0.5;" width="132" x="522.5" y="95.5703"/><text fill="#000000" font-family="sans-serif" font-size="14" lengthAdjust="spacing" textLength="118" x="529.5" y="117.1035">mvcWithVtDTOList</text><text fill="#000000" font-family="sans-serif" font-size="14" lengthAdjust="spacing" textLength="89" x="544" y="134.7129">:list&lt;MVCDto&gt;</text><path d="M93,162.7891 L166,162.7891 L166,171.1406 L156,181.1406 L93,181.1406 L93,162.7891 " fill="#EEEEEE" style="stroke:#000000;stroke-width:1.5;"/><rect fill="none" height="380.3281" style="stroke:#000000;stroke-width:1.5;" width="651.5" x="93" y="162.7891"/><text fill="#000000" font-family="sans-serif" font-size="13" font-weight="bold" lengthAdjust="spacing" textLength="28" x="108" y="177.2842">loop</text><text fill="#000000" font-family="sans-serif" font-size="11" font-weight="bold" lengthAdjust="spacing" textLength="186" x="181" y="176.208">[for each object in mvcWithVtList]</text><polygon fill="#181818" points="393,199.4922,403,203.4922,393,207.4922,397,203.4922" style="stroke:#181818;stroke-width:1.0;"/><line style="stroke:#181818;stroke-width:1.0;" x1="171" x2="399" y1="203.4922" y2="203.4922"/><text fill="#000000" font-family="sans-serif" font-size="13" font-weight="bold" lengthAdjust="spacing" textLength="7" x="178" y="198.6357">3</text><text fill="#000000" font-family="sans-serif" font-size="13" lengthAdjust="spacing" textLength="108" x="189" y="198.6357">name = getName()</text><polygon fill="#181818" points="393,259.8438,403,263.8438,393,267.8438,397,263.8438" style="stroke:#181818;stroke-width:1.0;"/><line style="stroke:#181818;stroke-width:1.0;" x1="171" x2="399" y1="263.8438" y2="263.8438"/><text fill="#000000" font-family="sans-serif" font-size="13" font-weight="bold" lengthAdjust="spacing" textLength="7" x="178" y="258.9873">4</text><text fill="#000000" font-family="sans-serif" font-size="13" lengthAdjust="spacing" textLength="204" x="189" y="258.9873">phoneNumber = getPhoneNumber()</text><polygon fill="#181818" points="393,320.1953,403,324.1953,393,328.1953,397,324.1953" style="stroke:#181818;stroke-width:1.0;"/><line style="stroke:#181818;stroke-width:1.0;" x1="171" x2="399" y1="324.1953" y2="324.1953"/><text fill="#000000" font-family="sans-serif" font-size="13" font-weight="bold" lengthAdjust="spacing" textLength="7" x="178" y="319.3389">5</text><text fill="#000000" font-family="sans-serif" font-size="13" lengthAdjust="spacing" textLength="202" x="189" y="319.3389">emailAddress = getEmailAddress()</text><polygon fill="#181818" points="393,380.5469,403,384.5469,393,388.5469,397,384.5469" style="stroke:#181818;stroke-width:1.0;"/><line style="stroke:#181818;stroke-width:1.0;" x1="171" x2="399" y1="384.5469" y2="384.5469"/><text fill="#000000" font-family="sans-serif" font-size="13" font-weight="bold" lengthAdjust="spacing" textLength="7" x="178" y="379.6904">6</text><text fill="#000000" font-family="sans-serif" font-size="13" lengthAdjust="spacing" textLength="180" x="189" y="379.6904">vaccineType=getVaccineType()</text><polygon fill="#181818" points="652.5,440.8984,662.5,444.8984,652.5,448.8984,656.5,444.8984" style="stroke:#181818;stroke-width:1.0;"/><line style="stroke:#181818;stroke-width:1.0;stroke-dasharray:2.0,2.0;" x1="171" x2="658.5" y1="444.8984" y2="444.8984"/><text fill="#000000" font-family="sans-serif" font-size="13" font-weight="bold" lengthAdjust="spacing" textLength="7" x="178" y="440.042">7</text><text fill="#000000" font-family="sans-serif" font-size="13" lengthAdjust="spacing" textLength="330" x="189" y="440.042">create(name, phoneNumber, emailAddress, vaccineType)</text><rect fill="#E2E2F0" height="49.2188" rx="2.5" ry="2.5" style="stroke:#181818;stroke-width:0.5;" width="70" x="664.5" y="422.5469"/><text fill="#000000" font-family="sans-serif" font-size="14" lengthAdjust="spacing" textLength="47" x="676" y="444.0801">mvcDto</text><text fill="#000000" font-family="sans-serif" font-size="14" lengthAdjust="spacing" textLength="56" x="671.5" y="461.6895">:MVCDto</text><polygon fill="#181818" points="571.5,501.1172,581.5,505.1172,571.5,509.1172,575.5,505.1172" style="stroke:#181818;stroke-width:1.0;"/><line style="stroke:#181818;stroke-width:1.0;" x1="171" x2="577.5" y1="505.1172" y2="505.1172"/><text fill="#000000" font-family="sans-serif" font-size="13" font-weight="bold" lengthAdjust="spacing" textLength="7" x="178" y="500.2607">8</text><text fill="#000000" font-family="sans-serif" font-size="13" lengthAdjust="spacing" textLength="72" x="189" y="500.2607">add(mvcDto)</text><polygon fill="#181818" points="11,568.4688,1,572.4688,11,576.4688,7,572.4688" style="stroke:#181818;stroke-width:1.0;"/><line style="stroke:#181818;stroke-width:1.0;stroke-dasharray:2.0,2.0;" x1="5" x2="160" y1="572.4688" y2="572.4688"/><text fill="#000000" font-family="sans-serif" font-size="13" font-weight="bold" lengthAdjust="spacing" textLength="7" x="17" y="567.6123">9</text><text fill="#000000" font-family="sans-serif" font-size="13" lengthAdjust="spacing" textLength="110" x="28" y="567.6123">mvcWithVtDTOList</text><!--MD5=[75728c33103e47dede9df10fcab23dcf]
@startuml
autonumber
participant ":MVcenterMapper" as VcMapper
participant "mvcWithVtList\n:List<MassVaccinationCenter>" as mvcWithVtList
participant "mvcWithVtDTOList\n:list<MVCDto>" as mvcWithVtDtoList
participant "mvcDto\n:MVCDto" as MVCDto

[o->VcMapper : toDto(mvcWithVtList)
activate VcMapper

VcMapper - -> mvcWithVtDtoList **: create()

loop for each object in mvcWithVtList

VcMapper -> mvcWithVtList : name = getName()
activate mvcWithVtList
deactivate mvcWithVtList
VcMapper -> mvcWithVtList : phoneNumber = getPhoneNumber()
activate mvcWithVtList
deactivate mvcWithVtList
VcMapper -> mvcWithVtList : emailAddress = getEmailAddress()
activate mvcWithVtList
deactivate mvcWithVtList
VcMapper -> mvcWithVtList : vaccineType=getVaccineType()
activate mvcWithVtList
deactivate mvcWithVtList



VcMapper - -> MVCDto **: create(name, phoneNumber, emailAddress, vaccineType)

VcMapper -> mvcWithVtDtoList : add(mvcDto)
activate mvcWithVtDtoList
deactivate mvcWithVtDtoList
end loop
[<- - VcMapper : mvcWithVtDTOList

@enduml

PlantUML version 1.2022.5(Sat Apr 30 11:55:52 BST 2022)
(GPL source distribution)
Java Runtime: OpenJDK Runtime Environment
JVM: OpenJDK 64-Bit Server VM
Default Encoding: Cp1252
Language: pt
Country: PT
--></g></svg>