<?xml version="1.0" encoding="UTF-8" standalone="no"?><svg xmlns="http://www.w3.org/2000/svg" xmlns:xlink="http://www.w3.org/1999/xlink" contentStyleType="text/css" height="657px" preserveAspectRatio="none" style="width:1249px;height:657px;background:#FFFFFF;" version="1.1" viewBox="0 0 1249 657" width="1249px" zoomAndPan="magnify"><defs/><g><!--MD5=[02e4b9b7573f1156f41e60aa5b4e25a4]
class Company--><g id="elem_Company"><rect codeLine="5" fill="#F1F1F1" height="57.6094" id="Company" rx="2.5" ry="2.5" style="stroke:#181818;stroke-width:0.5;" width="92" x="7" y="131.3564"/><ellipse cx="22" cy="147.3564" fill="#ADD1B2" rx="11" ry="11" style="stroke:#181818;stroke-width:1.0;"/><path d="M24,143.8564 Q24.2031,143.3564 24.4375,143.1064 Q24.6719,142.8564 24.9375,142.8564 Q25.4063,142.8564 25.7031,143.1377 Q26,143.4189 26,144.0752 L26,145.6377 Q26,146.2939 25.7188,146.5752 Q25.4375,146.8564 25,146.8564 Q24.6094,146.8564 24.3594,146.6846 Q24.1094,146.5127 24,146.0596 Q23.9531,145.7471 23.7813,145.5752 Q23.4688,145.2471 22.9063,145.0596 Q22.3438,144.8564 21.7813,144.8564 Q21.0781,144.8564 20.4844,145.1377 Q19.9063,145.4189 19.4531,146.0439 Q19,146.6689 19,147.5283 L19,148.4502 Q19,149.4814 19.8438,150.1689 Q20.6875,150.8564 22.1875,150.8564 Q23.0781,150.8564 23.7031,150.6533 Q24.0625,150.5439 24.4688,150.1846 Q24.7344,149.9814 24.875,149.9189 Q25.0156,149.8564 25.1875,149.8564 Q25.5156,149.8564 25.75,150.1221 Q26,150.3721 26,150.7314 Q26,151.0752 25.6563,151.4814 Q25.1563,152.0752 24.3594,152.4033 Q23.3125,152.8564 22.0313,152.8564 Q20.5313,152.8564 19.3281,152.2627 Q18.3594,151.7939 17.6719,150.7783 Q17,149.7627 17,148.5596 L17,147.4658 Q17,146.2158 17.5938,145.1221 Q18.2031,144.0283 19.25,143.4502 Q20.3125,142.8564 21.5,142.8564 Q22.2188,142.8564 22.8438,143.1064 Q23.4688,143.3564 24,143.8564 Z " fill="#000000"/><text fill="#000000" font-family="sans-serif" font-size="14" lengthAdjust="spacing" textLength="60" x="36" y="153.085">Company</text><line style="stroke:#181818;stroke-width:0.5;" x1="8" x2="98" y1="163.3564" y2="163.3564"/><text fill="#000000" font-family="sans-serif" font-size="14" lengthAdjust="spacing" textLength="78" x="13" y="181.8896">-designation</text></g><!--MD5=[72be06cc7ae02ccc98efe28a50e62246]
class SNSUser--><g id="elem_SNSUser"><rect codeLine="9" fill="#F1F1F1" height="180.875" id="SNSUser" rx="2.5" ry="2.5" style="stroke:#181818;stroke-width:0.5;" width="106" x="853" y="77.8564"/><ellipse cx="876.1" cy="93.8564" fill="#ADD1B2" rx="11" ry="11" style="stroke:#181818;stroke-width:1.0;"/><path d="M878.1,90.3564 Q878.3031,89.8564 878.5375,89.6064 Q878.7719,89.3564 879.0375,89.3564 Q879.5063,89.3564 879.8031,89.6377 Q880.1,89.9189 880.1,90.5752 L880.1,92.1377 Q880.1,92.7939 879.8188,93.0752 Q879.5375,93.3564 879.1,93.3564 Q878.7094,93.3564 878.4594,93.1846 Q878.2094,93.0127 878.1,92.5596 Q878.0531,92.2471 877.8813,92.0752 Q877.5688,91.7471 877.0063,91.5596 Q876.4438,91.3564 875.8813,91.3564 Q875.1781,91.3564 874.5844,91.6377 Q874.0063,91.9189 873.5531,92.5439 Q873.1,93.1689 873.1,94.0283 L873.1,94.9502 Q873.1,95.9814 873.9438,96.6689 Q874.7875,97.3564 876.2875,97.3564 Q877.1781,97.3564 877.8031,97.1533 Q878.1625,97.0439 878.5688,96.6846 Q878.8344,96.4814 878.975,96.4189 Q879.1156,96.3564 879.2875,96.3564 Q879.6156,96.3564 879.85,96.6221 Q880.1,96.8721 880.1,97.2314 Q880.1,97.5752 879.7563,97.9814 Q879.2563,98.5752 878.4594,98.9033 Q877.4125,99.3564 876.1313,99.3564 Q874.6313,99.3564 873.4281,98.7627 Q872.4594,98.2939 871.7719,97.2783 Q871.1,96.2627 871.1,95.0596 L871.1,93.9658 Q871.1,92.7158 871.6938,91.6221 Q872.3031,90.5283 873.35,89.9502 Q874.4125,89.3564 875.6,89.3564 Q876.3188,89.3564 876.9438,89.6064 Q877.5688,89.8564 878.1,90.3564 Z " fill="#000000"/><text fill="#000000" font-family="sans-serif" font-size="14" lengthAdjust="spacing" textLength="56" x="891.9" y="99.585">SNSUser</text><line style="stroke:#181818;stroke-width:0.5;" x1="854" x2="958" y1="109.8564" y2="109.8564"/><text fill="#000000" font-family="sans-serif" font-size="14" lengthAdjust="spacing" textLength="40" x="859" y="128.3896">-name</text><text fill="#000000" font-family="sans-serif" font-size="14" lengthAdjust="spacing" textLength="56" x="859" y="145.999">-address</text><text fill="#000000" font-family="sans-serif" font-size="14" lengthAdjust="spacing" textLength="26" x="859" y="163.6084">-sex</text><text fill="#000000" font-family="sans-serif" font-size="14" lengthAdjust="spacing" textLength="94" x="859" y="181.2178">-phoneNumber</text><text fill="#000000" font-family="sans-serif" font-size="14" lengthAdjust="spacing" textLength="38" x="859" y="198.8271">-email</text><text fill="#000000" font-family="sans-serif" font-size="14" lengthAdjust="spacing" textLength="63" x="859" y="216.4365">-birthDate</text><text fill="#000000" font-family="sans-serif" font-size="14" lengthAdjust="spacing" textLength="76" x="859" y="234.0459">-snsNumber</text><text fill="#000000" font-family="sans-serif" font-size="14" lengthAdjust="spacing" textLength="75" x="859" y="251.6553">-citizenCard</text></g><!--MD5=[c508b5b6bbe276ff5e2700b6641f837f]
class Appointment--><g id="elem_Appointment"><rect codeLine="20" fill="#F1F1F1" height="75.2188" id="Appointment" rx="2.5" ry="2.5" style="stroke:#181818;stroke-width:0.5;" width="111" x="526" y="174.8564"/><ellipse cx="541" cy="190.8564" fill="#ADD1B2" rx="11" ry="11" style="stroke:#181818;stroke-width:1.0;"/><path d="M543,187.3564 Q543.2031,186.8564 543.4375,186.6064 Q543.6719,186.3564 543.9375,186.3564 Q544.4063,186.3564 544.7031,186.6377 Q545,186.9189 545,187.5752 L545,189.1377 Q545,189.7939 544.7188,190.0752 Q544.4375,190.3564 544,190.3564 Q543.6094,190.3564 543.3594,190.1846 Q543.1094,190.0127 543,189.5596 Q542.9531,189.2471 542.7813,189.0752 Q542.4688,188.7471 541.9063,188.5596 Q541.3438,188.3564 540.7813,188.3564 Q540.0781,188.3564 539.4844,188.6377 Q538.9063,188.9189 538.4531,189.5439 Q538,190.1689 538,191.0283 L538,191.9502 Q538,192.9814 538.8438,193.6689 Q539.6875,194.3564 541.1875,194.3564 Q542.0781,194.3564 542.7031,194.1533 Q543.0625,194.0439 543.4688,193.6846 Q543.7344,193.4814 543.875,193.4189 Q544.0156,193.3564 544.1875,193.3564 Q544.5156,193.3564 544.75,193.6221 Q545,193.8721 545,194.2314 Q545,194.5752 544.6563,194.9814 Q544.1563,195.5752 543.3594,195.9033 Q542.3125,196.3564 541.0313,196.3564 Q539.5313,196.3564 538.3281,195.7627 Q537.3594,195.2939 536.6719,194.2783 Q536,193.2627 536,192.0596 L536,190.9658 Q536,189.7158 536.5938,188.6221 Q537.2031,187.5283 538.25,186.9502 Q539.3125,186.3564 540.5,186.3564 Q541.2188,186.3564 541.8438,186.6064 Q542.4688,186.8564 543,187.3564 Z " fill="#000000"/><text fill="#000000" font-family="sans-serif" font-size="14" lengthAdjust="spacing" textLength="79" x="555" y="196.585">Appointment</text><line style="stroke:#181818;stroke-width:0.5;" x1="527" x2="636" y1="206.8564" y2="206.8564"/><text fill="#000000" font-family="sans-serif" font-size="14" lengthAdjust="spacing" textLength="33" x="532" y="225.3896">-date</text><text fill="#000000" font-family="sans-serif" font-size="14" lengthAdjust="spacing" textLength="31" x="532" y="242.999">-time</text></g><!--MD5=[531738926630841faced5b36d0124f7f]
class DaySchedule--><g id="elem_DaySchedule"><rect codeLine="25" fill="#F1F1F1" height="75.2188" id="DaySchedule" rx="2.5" ry="2.5" style="stroke:#181818;stroke-width:0.5;" width="116" x="523.5" y="284.8564"/><ellipse cx="538.5" cy="300.8564" fill="#ADD1B2" rx="11" ry="11" style="stroke:#181818;stroke-width:1.0;"/><path d="M540.5,297.3564 Q540.7031,296.8564 540.9375,296.6064 Q541.1719,296.3564 541.4375,296.3564 Q541.9063,296.3564 542.2031,296.6377 Q542.5,296.9189 542.5,297.5752 L542.5,299.1377 Q542.5,299.7939 542.2188,300.0752 Q541.9375,300.3564 541.5,300.3564 Q541.1094,300.3564 540.8594,300.1846 Q540.6094,300.0127 540.5,299.5596 Q540.4531,299.2471 540.2813,299.0752 Q539.9688,298.7471 539.4063,298.5596 Q538.8438,298.3564 538.2813,298.3564 Q537.5781,298.3564 536.9844,298.6377 Q536.4063,298.9189 535.9531,299.5439 Q535.5,300.1689 535.5,301.0283 L535.5,301.9502 Q535.5,302.9814 536.3438,303.6689 Q537.1875,304.3564 538.6875,304.3564 Q539.5781,304.3564 540.2031,304.1533 Q540.5625,304.0439 540.9688,303.6846 Q541.2344,303.4814 541.375,303.4189 Q541.5156,303.3564 541.6875,303.3564 Q542.0156,303.3564 542.25,303.6221 Q542.5,303.8721 542.5,304.2314 Q542.5,304.5752 542.1563,304.9814 Q541.6563,305.5752 540.8594,305.9033 Q539.8125,306.3564 538.5313,306.3564 Q537.0313,306.3564 535.8281,305.7627 Q534.8594,305.2939 534.1719,304.2783 Q533.5,303.2627 533.5,302.0596 L533.5,300.9658 Q533.5,299.7158 534.0938,298.6221 Q534.7031,297.5283 535.75,296.9502 Q536.8125,296.3564 538,296.3564 Q538.7188,296.3564 539.3438,296.6064 Q539.9688,296.8564 540.5,297.3564 Z " fill="#000000"/><text fill="#000000" font-family="sans-serif" font-size="14" lengthAdjust="spacing" textLength="84" x="552.5" y="306.585">DaySchedule</text><line style="stroke:#181818;stroke-width:0.5;" x1="524.5" x2="638.5" y1="316.8564" y2="316.8564"/><text fill="#000000" font-family="sans-serif" font-size="14" lengthAdjust="spacing" textLength="86" x="529.5" y="335.3896">-openingHour</text><text fill="#000000" font-family="sans-serif" font-size="14" lengthAdjust="spacing" textLength="79" x="529.5" y="352.999">-closingHour</text></g><!--MD5=[45c6380d22fb72521f5065026b277fb9]
class Slot--><g id="elem_Slot"><rect codeLine="30" fill="#F1F1F1" height="75.2188" id="Slot" rx="2.5" ry="2.5" style="stroke:#181818;stroke-width:0.5;" width="168" x="822" y="293.8564"/><ellipse cx="889.75" cy="309.8564" fill="#ADD1B2" rx="11" ry="11" style="stroke:#181818;stroke-width:1.0;"/><path d="M891.75,306.3564 Q891.9531,305.8564 892.1875,305.6064 Q892.4219,305.3564 892.6875,305.3564 Q893.1563,305.3564 893.4531,305.6377 Q893.75,305.9189 893.75,306.5752 L893.75,308.1377 Q893.75,308.7939 893.4688,309.0752 Q893.1875,309.3564 892.75,309.3564 Q892.3594,309.3564 892.1094,309.1846 Q891.8594,309.0127 891.75,308.5596 Q891.7031,308.2471 891.5313,308.0752 Q891.2188,307.7471 890.6563,307.5596 Q890.0938,307.3564 889.5313,307.3564 Q888.8281,307.3564 888.2344,307.6377 Q887.6563,307.9189 887.2031,308.5439 Q886.75,309.1689 886.75,310.0283 L886.75,310.9502 Q886.75,311.9814 887.5938,312.6689 Q888.4375,313.3564 889.9375,313.3564 Q890.8281,313.3564 891.4531,313.1533 Q891.8125,313.0439 892.2188,312.6846 Q892.4844,312.4814 892.625,312.4189 Q892.7656,312.3564 892.9375,312.3564 Q893.2656,312.3564 893.5,312.6221 Q893.75,312.8721 893.75,313.2314 Q893.75,313.5752 893.4063,313.9814 Q892.9063,314.5752 892.1094,314.9033 Q891.0625,315.3564 889.7813,315.3564 Q888.2813,315.3564 887.0781,314.7627 Q886.1094,314.2939 885.4219,313.2783 Q884.75,312.2627 884.75,311.0596 L884.75,309.9658 Q884.75,308.7158 885.3438,307.6221 Q885.9531,306.5283 887,305.9502 Q888.0625,305.3564 889.25,305.3564 Q889.9688,305.3564 890.5938,305.6064 Q891.2188,305.8564 891.75,306.3564 Z " fill="#000000"/><text fill="#000000" font-family="sans-serif" font-size="14" lengthAdjust="spacing" textLength="24" x="910.25" y="315.585">Slot</text><line style="stroke:#181818;stroke-width:0.5;" x1="823" x2="989" y1="325.8564" y2="325.8564"/><text fill="#000000" font-family="sans-serif" font-size="14" lengthAdjust="spacing" textLength="156" x="828" y="344.3896">-numberOfVaccinesSlots</text><text fill="#000000" font-family="sans-serif" font-size="14" lengthAdjust="spacing" textLength="57" x="828" y="361.999">-duration</text></g><!--MD5=[17d776304760d17bcc13ba401441cbdd]
class SMSNotification--><g id="elem_SMSNotification"><rect codeLine="35" fill="#F1F1F1" height="40" id="SMSNotification" rx="2.5" ry="2.5" style="stroke:#181818;stroke-width:0.5;" width="130" x="1112" y="76.3564"/><ellipse cx="1127" cy="92.3564" fill="#ADD1B2" rx="11" ry="11" style="stroke:#181818;stroke-width:1.0;"/><path d="M1129,88.8564 Q1129.2031,88.3564 1129.4375,88.1064 Q1129.6719,87.8564 1129.9375,87.8564 Q1130.4063,87.8564 1130.7031,88.1377 Q1131,88.4189 1131,89.0752 L1131,90.6377 Q1131,91.2939 1130.7188,91.5752 Q1130.4375,91.8564 1130,91.8564 Q1129.6094,91.8564 1129.3594,91.6846 Q1129.1094,91.5127 1129,91.0596 Q1128.9531,90.7471 1128.7813,90.5752 Q1128.4688,90.2471 1127.9063,90.0596 Q1127.3438,89.8564 1126.7813,89.8564 Q1126.0781,89.8564 1125.4844,90.1377 Q1124.9063,90.4189 1124.4531,91.0439 Q1124,91.6689 1124,92.5283 L1124,93.4502 Q1124,94.4814 1124.8438,95.1689 Q1125.6875,95.8564 1127.1875,95.8564 Q1128.0781,95.8564 1128.7031,95.6533 Q1129.0625,95.5439 1129.4688,95.1846 Q1129.7344,94.9814 1129.875,94.9189 Q1130.0156,94.8564 1130.1875,94.8564 Q1130.5156,94.8564 1130.75,95.1221 Q1131,95.3721 1131,95.7314 Q1131,96.0752 1130.6563,96.4814 Q1130.1563,97.0752 1129.3594,97.4033 Q1128.3125,97.8564 1127.0313,97.8564 Q1125.5313,97.8564 1124.3281,97.2627 Q1123.3594,96.7939 1122.6719,95.7783 Q1122,94.7627 1122,93.5596 L1122,92.4658 Q1122,91.2158 1122.5938,90.1221 Q1123.2031,89.0283 1124.25,88.4502 Q1125.3125,87.8564 1126.5,87.8564 Q1127.2188,87.8564 1127.8438,88.1064 Q1128.4688,88.3564 1129,88.8564 Z " fill="#000000"/><text fill="#000000" font-family="sans-serif" font-size="14" lengthAdjust="spacing" textLength="98" x="1141" y="98.085">SMSNotification</text><line style="stroke:#181818;stroke-width:0.5;" x1="1113" x2="1241" y1="108.3564" y2="108.3564"/></g><!--MD5=[0e501da62322464167c8ec4d233a6b7e]
class VaccineType--><g id="elem_VaccineType"><rect codeLine="38" fill="#F1F1F1" height="92.8281" id="VaccineType" rx="2.5" ry="2.5" style="stroke:#181818;stroke-width:0.5;" width="139" x="836.5" y="443.8564"/><ellipse cx="862.75" cy="459.8564" fill="#ADD1B2" rx="11" ry="11" style="stroke:#181818;stroke-width:1.0;"/><path d="M864.75,456.3564 Q864.9531,455.8564 865.1875,455.6064 Q865.4219,455.3564 865.6875,455.3564 Q866.1563,455.3564 866.4531,455.6377 Q866.75,455.9189 866.75,456.5752 L866.75,458.1377 Q866.75,458.7939 866.4688,459.0752 Q866.1875,459.3564 865.75,459.3564 Q865.3594,459.3564 865.1094,459.1846 Q864.8594,459.0127 864.75,458.5596 Q864.7031,458.2471 864.5313,458.0752 Q864.2188,457.7471 863.6563,457.5596 Q863.0938,457.3564 862.5313,457.3564 Q861.8281,457.3564 861.2344,457.6377 Q860.6563,457.9189 860.2031,458.5439 Q859.75,459.1689 859.75,460.0283 L859.75,460.9502 Q859.75,461.9814 860.5938,462.6689 Q861.4375,463.3564 862.9375,463.3564 Q863.8281,463.3564 864.4531,463.1533 Q864.8125,463.0439 865.2188,462.6846 Q865.4844,462.4814 865.625,462.4189 Q865.7656,462.3564 865.9375,462.3564 Q866.2656,462.3564 866.5,462.6221 Q866.75,462.8721 866.75,463.2314 Q866.75,463.5752 866.4063,463.9814 Q865.9063,464.5752 865.1094,464.9033 Q864.0625,465.3564 862.7813,465.3564 Q861.2813,465.3564 860.0781,464.7627 Q859.1094,464.2939 858.4219,463.2783 Q857.75,462.2627 857.75,461.0596 L857.75,459.9658 Q857.75,458.7158 858.3438,457.6221 Q858.9531,456.5283 860,455.9502 Q861.0625,455.3564 862.25,455.3564 Q862.9688,455.3564 863.5938,455.6064 Q864.2188,455.8564 864.75,456.3564 Z " fill="#000000"/><text fill="#000000" font-family="sans-serif" font-size="14" lengthAdjust="spacing" textLength="82" x="879.25" y="465.585">VaccineType</text><line style="stroke:#181818;stroke-width:0.5;" x1="837.5" x2="974.5" y1="475.8564" y2="475.8564"/><text fill="#000000" font-family="sans-serif" font-size="14" lengthAdjust="spacing" textLength="36" x="842.5" y="494.3896">-code</text><text fill="#000000" font-family="sans-serif" font-size="14" lengthAdjust="spacing" textLength="74" x="842.5" y="511.999">-description</text><text fill="#000000" font-family="sans-serif" font-size="14" lengthAdjust="spacing" textLength="127" x="842.5" y="529.6084">-vaccineTechnology</text></g><!--MD5=[de60e6d4f424ae4d0522096f76a59010]
class VaccinationCenter--><g id="elem_VaccinationCenter"><rect codeLine="44" fill="#F1F1F1" height="145.6563" id="VaccinationCenter" rx="2.5" ry="2.5" style="stroke:#181818;stroke-width:0.5;" width="148" x="227" y="208.3564"/><ellipse cx="242" cy="224.3564" fill="#ADD1B2" rx="11" ry="11" style="stroke:#181818;stroke-width:1.0;"/><path d="M244,220.8564 Q244.2031,220.3564 244.4375,220.1064 Q244.6719,219.8564 244.9375,219.8564 Q245.4063,219.8564 245.7031,220.1377 Q246,220.4189 246,221.0752 L246,222.6377 Q246,223.2939 245.7188,223.5752 Q245.4375,223.8564 245,223.8564 Q244.6094,223.8564 244.3594,223.6846 Q244.1094,223.5127 244,223.0596 Q243.9531,222.7471 243.7813,222.5752 Q243.4688,222.2471 242.9063,222.0596 Q242.3438,221.8564 241.7813,221.8564 Q241.0781,221.8564 240.4844,222.1377 Q239.9063,222.4189 239.4531,223.0439 Q239,223.6689 239,224.5283 L239,225.4502 Q239,226.4814 239.8438,227.1689 Q240.6875,227.8564 242.1875,227.8564 Q243.0781,227.8564 243.7031,227.6533 Q244.0625,227.5439 244.4688,227.1846 Q244.7344,226.9814 244.875,226.9189 Q245.0156,226.8564 245.1875,226.8564 Q245.5156,226.8564 245.75,227.1221 Q246,227.3721 246,227.7314 Q246,228.0752 245.6563,228.4814 Q245.1563,229.0752 244.3594,229.4033 Q243.3125,229.8564 242.0313,229.8564 Q240.5313,229.8564 239.3281,229.2627 Q238.3594,228.7939 237.6719,227.7783 Q237,226.7627 237,225.5596 L237,224.4658 Q237,223.2158 237.5938,222.1221 Q238.2031,221.0283 239.25,220.4502 Q240.3125,219.8564 241.5,219.8564 Q242.2188,219.8564 242.8438,220.1064 Q243.4688,220.3564 244,220.8564 Z " fill="#000000"/><text fill="#000000" font-family="sans-serif" font-size="14" lengthAdjust="spacing" textLength="116" x="256" y="230.085">VaccinationCenter</text><line style="stroke:#181818;stroke-width:0.5;" x1="228" x2="374" y1="240.3564" y2="240.3564"/><text fill="#000000" font-family="sans-serif" font-size="14" lengthAdjust="spacing" textLength="40" x="233" y="258.8896">-name</text><text fill="#000000" font-family="sans-serif" font-size="14" lengthAdjust="spacing" textLength="56" x="233" y="276.499">-address</text><text fill="#000000" font-family="sans-serif" font-size="14" lengthAdjust="spacing" textLength="94" x="233" y="294.1084">-phoneNumber</text><text fill="#000000" font-family="sans-serif" font-size="14" lengthAdjust="spacing" textLength="82" x="233" y="311.7178">-emailAdress</text><text fill="#000000" font-family="sans-serif" font-size="14" lengthAdjust="spacing" textLength="72" x="233" y="329.3271">-faxNumber</text><text fill="#000000" font-family="sans-serif" font-size="14" lengthAdjust="spacing" textLength="104" x="233" y="346.9365">-websiteAddress</text></g><!--MD5=[76480a6701b5d2883bc606a2560c3cfe]
class MassVaccinationCenter--><g id="elem_MassVaccinationCenter"><rect codeLine="53" fill="#F1F1F1" height="40" id="MassVaccinationCenter" rx="2.5" ry="2.5" style="stroke:#181818;stroke-width:0.5;" width="181" x="491" y="395.3564"/><ellipse cx="506" cy="411.3564" fill="#ADD1B2" rx="11" ry="11" style="stroke:#181818;stroke-width:1.0;"/><path d="M508,407.8564 Q508.2031,407.3564 508.4375,407.1064 Q508.6719,406.8564 508.9375,406.8564 Q509.4063,406.8564 509.7031,407.1377 Q510,407.4189 510,408.0752 L510,409.6377 Q510,410.2939 509.7188,410.5752 Q509.4375,410.8564 509,410.8564 Q508.6094,410.8564 508.3594,410.6846 Q508.1094,410.5127 508,410.0596 Q507.9531,409.7471 507.7813,409.5752 Q507.4688,409.2471 506.9063,409.0596 Q506.3438,408.8564 505.7813,408.8564 Q505.0781,408.8564 504.4844,409.1377 Q503.9063,409.4189 503.4531,410.0439 Q503,410.6689 503,411.5283 L503,412.4502 Q503,413.4814 503.8438,414.1689 Q504.6875,414.8564 506.1875,414.8564 Q507.0781,414.8564 507.7031,414.6533 Q508.0625,414.5439 508.4688,414.1846 Q508.7344,413.9814 508.875,413.9189 Q509.0156,413.8564 509.1875,413.8564 Q509.5156,413.8564 509.75,414.1221 Q510,414.3721 510,414.7314 Q510,415.0752 509.6563,415.4814 Q509.1563,416.0752 508.3594,416.4033 Q507.3125,416.8564 506.0313,416.8564 Q504.5313,416.8564 503.3281,416.2627 Q502.3594,415.7939 501.6719,414.7783 Q501,413.7627 501,412.5596 L501,411.4658 Q501,410.2158 501.5938,409.1221 Q502.2031,408.0283 503.25,407.4502 Q504.3125,406.8564 505.5,406.8564 Q506.2188,406.8564 506.8438,407.1064 Q507.4688,407.3564 508,407.8564 Z " fill="#000000"/><text fill="#000000" font-family="sans-serif" font-size="14" lengthAdjust="spacing" textLength="149" x="520" y="417.085">MassVaccinationCenter</text><line style="stroke:#181818;stroke-width:0.5;" x1="492" x2="671" y1="427.3564" y2="427.3564"/></g><!--MD5=[0b1ce5251ebf137e6b3550dd84e6af65]
class HealthcareCenter--><g id="elem_HealthcareCenter"><rect codeLine="55" fill="#F1F1F1" height="40" id="HealthcareCenter" rx="2.5" ry="2.5" style="stroke:#181818;stroke-width:0.5;" width="143" x="510" y="470.3564"/><ellipse cx="525" cy="486.3564" fill="#ADD1B2" rx="11" ry="11" style="stroke:#181818;stroke-width:1.0;"/><path d="M527,482.8564 Q527.2031,482.3564 527.4375,482.1064 Q527.6719,481.8564 527.9375,481.8564 Q528.4063,481.8564 528.7031,482.1377 Q529,482.4189 529,483.0752 L529,484.6377 Q529,485.2939 528.7188,485.5752 Q528.4375,485.8564 528,485.8564 Q527.6094,485.8564 527.3594,485.6846 Q527.1094,485.5127 527,485.0596 Q526.9531,484.7471 526.7813,484.5752 Q526.4688,484.2471 525.9063,484.0596 Q525.3438,483.8564 524.7813,483.8564 Q524.0781,483.8564 523.4844,484.1377 Q522.9063,484.4189 522.4531,485.0439 Q522,485.6689 522,486.5283 L522,487.4502 Q522,488.4814 522.8438,489.1689 Q523.6875,489.8564 525.1875,489.8564 Q526.0781,489.8564 526.7031,489.6533 Q527.0625,489.5439 527.4688,489.1846 Q527.7344,488.9814 527.875,488.9189 Q528.0156,488.8564 528.1875,488.8564 Q528.5156,488.8564 528.75,489.1221 Q529,489.3721 529,489.7314 Q529,490.0752 528.6563,490.4814 Q528.1563,491.0752 527.3594,491.4033 Q526.3125,491.8564 525.0313,491.8564 Q523.5313,491.8564 522.3281,491.2627 Q521.3594,490.7939 520.6719,489.7783 Q520,488.7627 520,487.5596 L520,486.4658 Q520,485.2158 520.5938,484.1221 Q521.2031,483.0283 522.25,482.4502 Q523.3125,481.8564 524.5,481.8564 Q525.2188,481.8564 525.8438,482.1064 Q526.4688,482.3564 527,482.8564 Z " fill="#000000"/><text fill="#000000" font-family="sans-serif" font-size="14" lengthAdjust="spacing" textLength="111" x="539" y="492.085">HealthcareCenter</text><line style="stroke:#181818;stroke-width:0.5;" x1="511" x2="652" y1="502.3564" y2="502.3564"/></g><!--MD5=[f44bde12c85835f4e3e4c64f18a8c09c]
class ARS--><g id="elem_ARS"><rect codeLine="57" fill="#F1F1F1" height="40" id="ARS" rx="2.5" ry="2.5" style="stroke:#181818;stroke-width:0.5;" width="60" x="271" y="395.3564"/><ellipse cx="286" cy="411.3564" fill="#ADD1B2" rx="11" ry="11" style="stroke:#181818;stroke-width:1.0;"/><path d="M288,407.8564 Q288.2031,407.3564 288.4375,407.1064 Q288.6719,406.8564 288.9375,406.8564 Q289.4063,406.8564 289.7031,407.1377 Q290,407.4189 290,408.0752 L290,409.6377 Q290,410.2939 289.7188,410.5752 Q289.4375,410.8564 289,410.8564 Q288.6094,410.8564 288.3594,410.6846 Q288.1094,410.5127 288,410.0596 Q287.9531,409.7471 287.7813,409.5752 Q287.4688,409.2471 286.9063,409.0596 Q286.3438,408.8564 285.7813,408.8564 Q285.0781,408.8564 284.4844,409.1377 Q283.9063,409.4189 283.4531,410.0439 Q283,410.6689 283,411.5283 L283,412.4502 Q283,413.4814 283.8438,414.1689 Q284.6875,414.8564 286.1875,414.8564 Q287.0781,414.8564 287.7031,414.6533 Q288.0625,414.5439 288.4688,414.1846 Q288.7344,413.9814 288.875,413.9189 Q289.0156,413.8564 289.1875,413.8564 Q289.5156,413.8564 289.75,414.1221 Q290,414.3721 290,414.7314 Q290,415.0752 289.6563,415.4814 Q289.1563,416.0752 288.3594,416.4033 Q287.3125,416.8564 286.0313,416.8564 Q284.5313,416.8564 283.3281,416.2627 Q282.3594,415.7939 281.6719,414.7783 Q281,413.7627 281,412.5596 L281,411.4658 Q281,410.2158 281.5938,409.1221 Q282.2031,408.0283 283.25,407.4502 Q284.3125,406.8564 285.5,406.8564 Q286.2188,406.8564 286.8438,407.1064 Q287.4688,407.3564 288,407.8564 Z " fill="#000000"/><text fill="#000000" font-family="sans-serif" font-size="14" lengthAdjust="spacing" textLength="28" x="300" y="417.085">ARS</text><line style="stroke:#181818;stroke-width:0.5;" x1="272" x2="330" y1="427.3564" y2="427.3564"/></g><!--MD5=[f82bce4b1ca59a5351fb9c30bdff39e8]
class ACES--><g id="elem_ACES"><rect codeLine="59" fill="#F1F1F1" height="40" id="ACES" rx="2.5" ry="2.5" style="stroke:#181818;stroke-width:0.5;" width="69" x="266.5" y="470.3564"/><ellipse cx="281.5" cy="486.3564" fill="#ADD1B2" rx="11" ry="11" style="stroke:#181818;stroke-width:1.0;"/><path d="M283.5,482.8564 Q283.7031,482.3564 283.9375,482.1064 Q284.1719,481.8564 284.4375,481.8564 Q284.9063,481.8564 285.2031,482.1377 Q285.5,482.4189 285.5,483.0752 L285.5,484.6377 Q285.5,485.2939 285.2188,485.5752 Q284.9375,485.8564 284.5,485.8564 Q284.1094,485.8564 283.8594,485.6846 Q283.6094,485.5127 283.5,485.0596 Q283.4531,484.7471 283.2813,484.5752 Q282.9688,484.2471 282.4063,484.0596 Q281.8438,483.8564 281.2813,483.8564 Q280.5781,483.8564 279.9844,484.1377 Q279.4063,484.4189 278.9531,485.0439 Q278.5,485.6689 278.5,486.5283 L278.5,487.4502 Q278.5,488.4814 279.3438,489.1689 Q280.1875,489.8564 281.6875,489.8564 Q282.5781,489.8564 283.2031,489.6533 Q283.5625,489.5439 283.9688,489.1846 Q284.2344,488.9814 284.375,488.9189 Q284.5156,488.8564 284.6875,488.8564 Q285.0156,488.8564 285.25,489.1221 Q285.5,489.3721 285.5,489.7314 Q285.5,490.0752 285.1563,490.4814 Q284.6563,491.0752 283.8594,491.4033 Q282.8125,491.8564 281.5313,491.8564 Q280.0313,491.8564 278.8281,491.2627 Q277.8594,490.7939 277.1719,489.7783 Q276.5,488.7627 276.5,487.5596 L276.5,486.4658 Q276.5,485.2158 277.0938,484.1221 Q277.7031,483.0283 278.75,482.4502 Q279.8125,481.8564 281,481.8564 Q281.7188,481.8564 282.3438,482.1064 Q282.9688,482.3564 283.5,482.8564 Z " fill="#000000"/><text fill="#000000" font-family="sans-serif" font-size="14" lengthAdjust="spacing" textLength="37" x="295.5" y="492.085">ACES</text><line style="stroke:#181818;stroke-width:0.5;" x1="267.5" x2="334.5" y1="502.3564" y2="502.3564"/></g><!--MD5=[a09fc339ad85d4e67aa3195beeccb7d9]
reverse link VaccinationCenter to MassVaccinationCenter--><g id="link_VaccinationCenter_MassVaccinationCenter"><path d="M392.93,326.6364 C415.24,337.8764 439.03,349.9664 461,361.3564 C474.42,368.3064 477.37,370.8364 491,377.3564 C503.79,383.4664 517.83,389.6564 530.91,395.2164 " fill="none" id="VaccinationCenter-backto-MassVaccinationCenter" style="stroke:#181818;stroke-width:1.0;"/><polygon fill="none" points="389.73,332.8664,375.01,317.6264,396.02,320.3564,389.73,332.8664" style="stroke:#181818;stroke-width:1.0;"/></g><!--MD5=[860a319d9f073c66a49856aa2bd7c3ed]
reverse link VaccinationCenter to HealthcareCenter--><g id="link_VaccinationCenter_HealthcareCenter"><path d="M390.42,352.4064 C414.07,372.6264 439.12,395.1964 461,417.3564 C475.63,432.1764 474.22,441.0164 491,453.3564 C499.94,459.9264 510.22,465.5664 520.55,470.3264 " fill="none" id="VaccinationCenter-backto-HealthcareCenter" style="stroke:#181818;stroke-width:1.0;"/><polygon fill="none" points="385.89,357.7464,375.13,339.4864,394.92,347.0464,385.89,357.7464" style="stroke:#181818;stroke-width:1.0;"/></g><!--MD5=[05986564e1c13a00611587b35563d868]
link Company to VaccineType--><g id="link_Company_VaccineType"><path codeLine="61" d="M57.35,189.3764 C67.47,261.9264 104.97,450.8764 227,528.3564 C418.84,650.1464 706.16,566.9964 836.42,518.4664 " fill="none" id="Company-VaccineType" style="stroke:#181818;stroke-width:1.0;"/><polygon fill="#000000" points="414.6059,580.4778,407.4173,574.2509,405.1301,579.6655,414.6059,580.4778" style="stroke:#000000;stroke-width:1.0;"/><text fill="#000000" font-family="sans-serif" font-size="13" lengthAdjust="spacing" textLength="41" x="419" y="583.8516">applies</text><text fill="#000000" font-family="sans-serif" font-size="13" lengthAdjust="spacing" textLength="7" x="50.5253" y="210.5835">1</text><text fill="#000000" font-family="sans-serif" font-size="13" lengthAdjust="spacing" textLength="5" x="823.5363" y="535.9397">*</text></g><!--MD5=[eebe9b198877275d05dd12630ed9e401]
link Company to VaccinationCenter--><g id="link_Company_VaccinationCenter"><path codeLine="62" d="M99.12,182.5464 C134.77,200.0764 185.24,224.9064 226.68,245.2864 " fill="none" id="Company-VaccinationCenter" style="stroke:#181818;stroke-width:1.0;"/><polygon fill="#000000" points="138.4867,193.739,131.6673,187.1097,129.0731,192.3841,138.4867,193.739" style="stroke:#000000;stroke-width:1.0;"/><text fill="#000000" font-family="sans-serif" font-size="13" lengthAdjust="spacing" textLength="53" x="143" y="196.8516">manages</text><text fill="#000000" font-family="sans-serif" font-size="13" lengthAdjust="spacing" textLength="7" x="107.0282" y="200.9122">1</text><text fill="#000000" font-family="sans-serif" font-size="13" lengthAdjust="spacing" textLength="5" x="214.118" y="256.0526">*</text></g><!--MD5=[0206201934089beebc55d52d0c92e6cc]
link VaccinationCenter to DaySchedule--><g id="link_VaccinationCenter_DaySchedule"><path codeLine="63" d="M375.17,292.1264 C421.43,298.9364 480.34,307.6064 523.19,313.9164 " fill="none" id="VaccinationCenter-DaySchedule" style="stroke:#181818;stroke-width:1.0;"/><polygon fill="#000000" points="424.9467,288.2604,416.4261,284.0355,415.57,289.8507,424.9467,288.2604" style="stroke:#000000;stroke-width:1.0;"/><text fill="#000000" font-family="sans-serif" font-size="13" lengthAdjust="spacing" textLength="21" x="429" y="292.8516">has</text><text fill="#000000" font-family="sans-serif" font-size="13" lengthAdjust="spacing" textLength="20" x="382.9294" y="307.384">1..*</text><text fill="#000000" font-family="sans-serif" font-size="13" lengthAdjust="spacing" textLength="5" x="510.3987" y="327.3637">*</text></g><!--MD5=[150ef71d13b6dde556209defa5dfd620]
link DaySchedule to Slot--><g id="link_DaySchedule_Slot"><path codeLine="64" d="M639.78,323.9564 C690.38,325.3664 764.77,327.4364 821.9,329.0364 " fill="none" id="DaySchedule-Slot" style="stroke:#181818;stroke-width:1.0;"/><polygon fill="#000000" points="738.9981,316.6716,730.0384,313.4817,729.8745,319.3572,738.9981,316.6716" style="stroke:#000000;stroke-width:1.0;"/><text fill="#000000" font-family="sans-serif" font-size="13" lengthAdjust="spacing" textLength="21" x="743" y="321.8516">has</text><text fill="#000000" font-family="sans-serif" font-size="13" lengthAdjust="spacing" textLength="12" x="647.6141" y="338.6297">1*</text><text fill="#000000" font-family="sans-serif" font-size="13" lengthAdjust="spacing" textLength="20" x="794.1073" y="343.0074">1..*</text></g><!--MD5=[f17e71def2e220f6a6398972244b7dbb]
link VaccinationCenter to Appointment--><g id="link_VaccinationCenter_Appointment"><path codeLine="65" d="M375.17,263.2264 C422.39,251.5264 482.81,236.5564 525.86,225.8864 " fill="none" id="VaccinationCenter-Appointment" style="stroke:#181818;stroke-width:1.0;"/><polygon fill="#000000" points="416.8532,233.3296,407.3668,232.6525,408.7805,238.3578,416.8532,233.3296" style="stroke:#000000;stroke-width:1.0;"/><text fill="#000000" font-family="sans-serif" font-size="13" lengthAdjust="spacing" textLength="37" x="421" y="239.8516">knows</text><text fill="#000000" font-family="sans-serif" font-size="13" lengthAdjust="spacing" textLength="7" x="383.1797" y="275.7128">1</text><text fill="#000000" font-family="sans-serif" font-size="13" lengthAdjust="spacing" textLength="5" x="513.0474" y="242.2836">*</text></g><!--MD5=[97a02de57101d59f46a9b59224ebbfbb]
link Company to SMSNotification--><g id="link_Company_SMSNotification"><path codeLine="66" d="M83.31,131.1764 C126.7,91.2164 212.4,24.3564 300,24.3564 C300,24.3564 300,24.3564 907,24.3564 C987.74,24.3564 1077.61,54.9964 1130.34,76.2964 " fill="none" id="Company-SMSNotification" style="stroke:#181818;stroke-width:1.0;"/><polygon fill="#000000" points="566.4931,15.2705,557.3066,12.8091,557.6143,18.6789,566.4931,15.2705" style="stroke:#000000;stroke-width:1.0;"/><text fill="#000000" font-family="sans-serif" font-size="13" lengthAdjust="spacing" textLength="35" x="570.5" y="20.8516">sends</text><text fill="#000000" font-family="sans-serif" font-size="13" lengthAdjust="spacing" textLength="7" x="82.1747" y="120.6196">1</text><text fill="#000000" font-family="sans-serif" font-size="13" lengthAdjust="spacing" textLength="5" x="1110.8993" y="65.6006">*</text></g><!--MD5=[015c196d7fe5aee017e6155a02cecdd2]
link SNSUser to SMSNotification--><g id="link_SNSUser_SMSNotification"><path codeLine="67" d="M959.18,154.3864 C1002.73,142.7264 1064.98,126.0664 1111.61,113.5864 " fill="none" id="SNSUser-SMSNotification" style="stroke:#181818;stroke-width:1.0;"/><polygon fill="#000000" points="1029.83,112.2394,1020.3326,111.7391,1021.8524,117.4171,1029.83,112.2394" style="stroke:#000000;stroke-width:1.0;"/><text fill="#000000" font-family="sans-serif" font-size="13" lengthAdjust="spacing" textLength="47" x="1034" y="118.8516">receives</text><text fill="#000000" font-family="sans-serif" font-size="13" lengthAdjust="spacing" textLength="7" x="967.1506" y="167.0755">1</text><text fill="#000000" font-family="sans-serif" font-size="13" lengthAdjust="spacing" textLength="5" x="1099.1845" y="129.8603">*</text></g><!--MD5=[1a8aa2b864b87f860d28abceaa28b7a5]
link Company to SNSUser--><g id="link_Company_SNSUser"><path codeLine="68" d="M99.36,159.8564 C201.56,158.7864 457.68,156.4564 672,157.3564 C725.33,157.5764 738.73,155.7764 792,158.3564 C811.87,159.3164 833.65,161.0764 852.74,162.8464 " fill="none" id="Company-SNSUser" style="stroke:#181818;stroke-width:1.0;"/><polygon fill="#000000" points="417,148.5521,407.9666,145.5773,407.9433,151.4551,417,148.5521" style="stroke:#000000;stroke-width:1.0;"/><text fill="#000000" font-family="sans-serif" font-size="13" lengthAdjust="spacing" textLength="37" x="421" y="153.8516">knows</text><text fill="#000000" font-family="sans-serif" font-size="13" lengthAdjust="spacing" textLength="7" x="106.9948" y="174.5568">1</text><text fill="#000000" font-family="sans-serif" font-size="13" lengthAdjust="spacing" textLength="5" x="839.8988" y="176.7252">*</text></g><!--MD5=[621e86b706bec9720bc9ed1d445091d9]
link MassVaccinationCenter to VaccineType--><g id="link_MassVaccinationCenter_VaccineType"><path codeLine="69" d="M668.5,435.3564 C721.03,447.5664 787.28,462.9764 836.3,474.3764 " fill="none" id="MassVaccinationCenter-VaccineType" style="stroke:#181818;stroke-width:1.0;"/><polygon fill="#000000" points="715.8701,435.6647,707.7257,430.7535,706.3944,436.4786,715.8701,435.6647" style="stroke:#000000;stroke-width:1.0;"/><text fill="#000000" font-family="sans-serif" font-size="13" lengthAdjust="spacing" textLength="67" x="720" y="439.8516">administers</text><text fill="#000000" font-family="sans-serif" font-size="13" lengthAdjust="spacing" textLength="5" x="680.1359" y="454.3987">*</text><text fill="#000000" font-family="sans-serif" font-size="13" lengthAdjust="spacing" textLength="7" x="821.2937" y="487.0274">1</text></g><!--MD5=[fadf3c4cc459913b8138733d6e23cb41]
link HealthcareCenter to VaccineType--><g id="link_HealthcareCenter_VaccineType"><path codeLine="70" d="M653.27,490.3564 C707.69,490.3564 782.44,490.3564 836.33,490.3564 " fill="none" id="HealthcareCenter-VaccineType" style="stroke:#181818;stroke-width:1.0;"/><polygon fill="#000000" points="716,481.5322,706.9549,478.5933,706.9549,484.4712,716,481.5322" style="stroke:#000000;stroke-width:1.0;"/><text fill="#000000" font-family="sans-serif" font-size="13" lengthAdjust="spacing" textLength="67" x="720" y="486.8516">administers</text><text fill="#000000" font-family="sans-serif" font-size="13" lengthAdjust="spacing" textLength="20" x="661.0637" y="504.6308">1..*</text><text fill="#000000" font-family="sans-serif" font-size="13" lengthAdjust="spacing" textLength="5" x="823.4364" y="504.7552">*</text></g><!--MD5=[9c838218c931b2367de41d26315e4de2]
link ACES to HealthcareCenter--><g id="link_ACES_HealthcareCenter"><path codeLine="71" d="M335.59,490.3564 C378.56,490.3564 454.09,490.3564 509.94,490.3564 " fill="none" id="ACES-HealthcareCenter" style="stroke:#181818;stroke-width:1.0;"/><polygon fill="#000000" points="420.5,481.5322,411.4549,478.5933,411.4549,484.4712,420.5,481.5322" style="stroke:#000000;stroke-width:1.0;"/><text fill="#000000" font-family="sans-serif" font-size="13" lengthAdjust="spacing" textLength="30" x="424.5" y="486.8516">owns</text><text fill="#000000" font-family="sans-serif" font-size="13" lengthAdjust="spacing" textLength="7" x="343.4461" y="505.5378">1</text><text fill="#000000" font-family="sans-serif" font-size="13" lengthAdjust="spacing" textLength="20" x="481.9114" y="504.6564">1..*</text></g><!--MD5=[fa857053713b0be6454ddfc395ad942a]
link ARS to HealthcareCenter--><g id="link_ARS_HealthcareCenter"><path codeLine="72" d="M331.02,423.1664 C373.02,434.4764 452.07,455.7664 509.96,471.3564 " fill="none" id="ARS-HealthcareCenter" style="stroke:#181818;stroke-width:1.0;"/><polygon fill="#000000" points="420.328,435.8324,412.3583,430.6425,410.8298,436.3181,420.328,435.8324" style="stroke:#000000;stroke-width:1.0;"/><text fill="#000000" font-family="sans-serif" font-size="13" lengthAdjust="spacing" textLength="30" x="424.5" y="439.8516">owns</text><text fill="#000000" font-family="sans-serif" font-size="13" lengthAdjust="spacing" textLength="7" x="339.1905" y="440.5581">1</text><text fill="#000000" font-family="sans-serif" font-size="13" lengthAdjust="spacing" textLength="20" x="481.9334" y="483.7861">1..*</text></g><!--MD5=[19ab43ca298c1d9fd9821023da273d0e]
link Appointment to SNSUser--><g id="link_Appointment_SNSUser"><path codeLine="73" d="M637.21,204.8864 C697.5,196.6664 793.76,183.5264 852.97,175.4564 " fill="none" id="Appointment-SNSUser" style="stroke:#181818;stroke-width:1.0;"/><polygon fill="#000000" points="711.9541,174.8565,702.5948,173.167,703.3892,178.9909,711.9541,174.8565" style="stroke:#000000;stroke-width:1.0;"/><text fill="#000000" font-family="sans-serif" font-size="13" lengthAdjust="spacing" textLength="75" x="716" y="180.8516">requested by</text><text fill="#000000" font-family="sans-serif" font-size="13" lengthAdjust="spacing" textLength="7" x="645.1663" y="218.4617">1</text><text fill="#000000" font-family="sans-serif" font-size="13" lengthAdjust="spacing" textLength="7" x="838.0205" y="191.1085">1</text></g><!--MD5=[7d44433572a684e892ef92dfeb84a890]
@startuml
hide methods
left to right direction
skinparam classAttributeIconSize 0

class Company {
 -designation
}

class SNSUser {
-name
-address
-sex
-phoneNumber
-email
-birthDate
-snsNumber
-citizenCard
}

class Appointment{
-date
-time
}

class DaySchedule{
-openingHour
-closingHour
}

class Slot{
-numberOfVaccinesSlots
-duration
}

class SMSNotification {
}

class VaccineType {
  -code
  -description
  -vaccineTechnology
}

class VaccinationCenter{
-name
-address
-phoneNumber
-emailAdress
-faxNumber
-websiteAddress
}

class MassVaccinationCenter extends VaccinationCenter{}

class HealthcareCenter extends VaccinationCenter{}

class ARS{}

class ACES{}

Company "1" - - "*" VaccineType: applies >
Company "1" - - "*" VaccinationCenter: manages >
VaccinationCenter "1..*"  - - "*" DaySchedule: has >
DaySchedule "1*" - - "1..*" Slot: has >
VaccinationCenter"1" - - "*"Appointment: knows >
Company "1" - - "*" SMSNotification: sends >
SNSUser "1" - - "*" SMSNotification: receives >
Company "1" - - "*" SNSUser: knows >
MassVaccinationCenter "*" - - "1" VaccineType : administers >
HealthcareCenter "1..*" - - "*" VaccineType : administers >
ACES"1" - - "1..*" HealthcareCenter :owns >
ARS"1" - - "1..*" HealthcareCenter : owns >
Appointment "1"- -"1" SNSUser : requested by >


@enduml

PlantUML version 1.2022.5(Sat Apr 30 11:55:52 BST 2022)
(GPL source distribution)
Java Runtime: OpenJDK Runtime Environment
JVM: OpenJDK 64-Bit Server VM
Default Encoding: Cp1252
Language: pt
Country: PT
--></g></svg>