<?xml version="1.0" encoding="UTF-8" standalone="no"?><svg xmlns="http://www.w3.org/2000/svg" xmlns:xlink="http://www.w3.org/1999/xlink" contentStyleType="text/css" height="584px" preserveAspectRatio="none" style="width:813px;height:584px;background:#FFFFFF;" version="1.1" viewBox="0 0 813 584" width="813px" zoomAndPan="magnify"><defs/><g><rect fill="#FFFFFF" height="433.5469" style="stroke:#181818;stroke-width:1.0;" width="10" x="196" y="87.5703"/><rect fill="#FFFFFF" height="30" style="stroke:#181818;stroke-width:1.0;" width="10" x="511" y="444.7656"/><rect fill="#FFFFFF" height="30" style="stroke:#181818;stroke-width:1.0;" width="10" x="726.5" y="203.4922"/><rect fill="#FFFFFF" height="30" style="stroke:#181818;stroke-width:1.0;" width="10" x="726.5" y="263.8438"/><rect fill="#FFFFFF" height="30" style="stroke:#181818;stroke-width:1.0;" width="10" x="726.5" y="324.1953"/><rect height="319.9766" style="stroke:#000000;stroke-width:1.5;fill:none;" width="680" x="127" y="162.7891"/><line style="stroke:#181818;stroke-width:0.5;fill:none;stroke-dasharray:5.0,5.0;" x1="201" x2="201" y1="55.2188" y2="530.1172"/><line style="stroke:#181818;stroke-width:0.5;fill:none;stroke-dasharray:5.0,5.0;" x1="360" x2="360" y1="55.2188" y2="530.1172"/><line style="stroke:#181818;stroke-width:0.5;fill:none;stroke-dasharray:5.0,5.0;" x1="516" x2="516" y1="135.6797" y2="530.1172"/><line style="stroke:#181818;stroke-width:0.5;fill:none;stroke-dasharray:5.0,5.0;" x1="621" x2="621" y1="402.3047" y2="530.1172"/><line style="stroke:#181818;stroke-width:0.5;fill:none;stroke-dasharray:5.0,5.0;" x1="731" x2="731" y1="55.2188" y2="530.1172"/><rect fill="#E2E2F0" height="31.6094" rx="2.5" ry="2.5" style="stroke:#181818;stroke-width:0.5;" width="128" x="137" y="22.6094"/><text fill="#000000" font-family="sans-serif" font-size="14" lengthAdjust="spacing" textLength="114" x="144" y="44.1426">:HCCenterMapper</text><rect fill="#E2E2F0" height="31.6094" rx="2.5" ry="2.5" style="stroke:#181818;stroke-width:0.5;" width="128" x="137" y="529.1172"/><text fill="#000000" font-family="sans-serif" font-size="14" lengthAdjust="spacing" textLength="114" x="144" y="550.6504">:HCCenterMapper</text><rect fill="#E2E2F0" height="49.2188" rx="2.5" ry="2.5" style="stroke:#181818;stroke-width:0.5;" width="170" x="275" y="5"/><text fill="#000000" font-family="sans-serif" font-size="14" lengthAdjust="spacing" textLength="132" x="294" y="26.5332">healthcareCenterList</text><text fill="#000000" font-family="sans-serif" font-size="14" lengthAdjust="spacing" textLength="156" x="282" y="44.1426">:List&lt;HealthCareCenter&gt;</text><rect fill="#E2E2F0" height="49.2188" rx="2.5" ry="2.5" style="stroke:#181818;stroke-width:0.5;" width="170" x="275" y="529.1172"/><text fill="#000000" font-family="sans-serif" font-size="14" lengthAdjust="spacing" textLength="132" x="294" y="550.6504">healthcareCenterList</text><text fill="#000000" font-family="sans-serif" font-size="14" lengthAdjust="spacing" textLength="156" x="282" y="568.2598">:List&lt;HealthCareCenter&gt;</text><rect fill="#E2E2F0" height="49.2188" rx="2.5" ry="2.5" style="stroke:#181818;stroke-width:0.5;" width="122" x="455" y="529.1172"/><text fill="#000000" font-family="sans-serif" font-size="14" lengthAdjust="spacing" textLength="108" x="462" y="550.6504">hhcenterListDTO</text><text fill="#000000" font-family="sans-serif" font-size="14" lengthAdjust="spacing" textLength="88" x="472" y="568.2598">:list&lt;HCCDto&gt;</text><rect fill="#E2E2F0" height="49.2188" rx="2.5" ry="2.5" style="stroke:#181818;stroke-width:0.5;" width="69" x="587" y="529.1172"/><text fill="#000000" font-family="sans-serif" font-size="14" lengthAdjust="spacing" textLength="44" x="599.5" y="550.6504">hccDto</text><text fill="#000000" font-family="sans-serif" font-size="14" lengthAdjust="spacing" textLength="55" x="594" y="568.2598">:HCCDto</text><rect fill="#E2E2F0" height="31.6094" rx="2.5" ry="2.5" style="stroke:#181818;stroke-width:0.5;" width="131" x="666" y="22.6094"/><text fill="#000000" font-family="sans-serif" font-size="14" lengthAdjust="spacing" textLength="117" x="673" y="44.1426">healthcareCenters</text><rect fill="#E2E2F0" height="31.6094" rx="2.5" ry="2.5" style="stroke:#181818;stroke-width:0.5;" width="131" x="666" y="529.1172"/><text fill="#000000" font-family="sans-serif" font-size="14" lengthAdjust="spacing" textLength="117" x="673" y="550.6504">healthcareCenters</text><rect fill="#FFFFFF" height="433.5469" style="stroke:#181818;stroke-width:1.0;" width="10" x="196" y="87.5703"/><rect fill="#FFFFFF" height="30" style="stroke:#181818;stroke-width:1.0;" width="10" x="511" y="444.7656"/><rect fill="#FFFFFF" height="30" style="stroke:#181818;stroke-width:1.0;" width="10" x="726.5" y="203.4922"/><rect fill="#FFFFFF" height="30" style="stroke:#181818;stroke-width:1.0;" width="10" x="726.5" y="263.8438"/><rect fill="#FFFFFF" height="30" style="stroke:#181818;stroke-width:1.0;" width="10" x="726.5" y="324.1953"/><ellipse cx="7.5" cy="86.8203" fill="none" rx="4" ry="4" style="stroke:#181818;stroke-width:1.5;"/><polygon fill="#181818" points="184,83.5703,194,87.5703,184,91.5703,188,87.5703" style="stroke:#181818;stroke-width:1.0;"/><line style="stroke:#181818;stroke-width:1.0;" x1="12" x2="190" y1="87.5703" y2="87.5703"/><text fill="#000000" font-family="sans-serif" font-size="13" font-weight="bold" lengthAdjust="spacing" textLength="7" x="15" y="82.7139">1</text><text fill="#000000" font-family="sans-serif" font-size="13" lengthAdjust="spacing" textLength="158" x="26" y="82.7139">toDto(healthcareCenterList)</text><polygon fill="#181818" points="443,113.9219,453,117.9219,443,121.9219,447,117.9219" style="stroke:#181818;stroke-width:1.0;"/><line style="stroke:#181818;stroke-width:1.0;stroke-dasharray:2.0,2.0;" x1="206" x2="449" y1="117.9219" y2="117.9219"/><text fill="#000000" font-family="sans-serif" font-size="13" font-weight="bold" lengthAdjust="spacing" textLength="7" x="213" y="113.0654">2</text><text fill="#000000" font-family="sans-serif" font-size="13" lengthAdjust="spacing" textLength="44" x="224" y="113.0654">create()</text><rect fill="#E2E2F0" height="49.2188" rx="2.5" ry="2.5" style="stroke:#181818;stroke-width:0.5;" width="122" x="455" y="95.5703"/><text fill="#000000" font-family="sans-serif" font-size="14" lengthAdjust="spacing" textLength="108" x="462" y="117.1035">hhcenterListDTO</text><text fill="#000000" font-family="sans-serif" font-size="14" lengthAdjust="spacing" textLength="88" x="472" y="134.7129">:list&lt;HCCDto&gt;</text><path d="M127,162.7891 L200,162.7891 L200,171.1406 L190,181.1406 L127,181.1406 L127,162.7891 " fill="#EEEEEE" style="stroke:#000000;stroke-width:1.5;"/><rect fill="none" height="319.9766" style="stroke:#000000;stroke-width:1.5;" width="680" x="127" y="162.7891"/><text fill="#000000" font-family="sans-serif" font-size="13" font-weight="bold" lengthAdjust="spacing" textLength="28" x="142" y="177.2842">loop</text><text fill="#000000" font-family="sans-serif" font-size="11" font-weight="bold" lengthAdjust="spacing" textLength="209" x="215" y="176.208">[for each object in healthcareCenters]</text><polygon fill="#181818" points="714.5,199.4922,724.5,203.4922,714.5,207.4922,718.5,203.4922" style="stroke:#181818;stroke-width:1.0;"/><line style="stroke:#181818;stroke-width:1.0;" x1="206" x2="720.5" y1="203.4922" y2="203.4922"/><text fill="#000000" font-family="sans-serif" font-size="13" font-weight="bold" lengthAdjust="spacing" textLength="7" x="213" y="198.6357">3</text><text fill="#000000" font-family="sans-serif" font-size="13" lengthAdjust="spacing" textLength="108" x="224" y="198.6357">name = getName()</text><polygon fill="#181818" points="714.5,259.8438,724.5,263.8438,714.5,267.8438,718.5,263.8438" style="stroke:#181818;stroke-width:1.0;"/><line style="stroke:#181818;stroke-width:1.0;" x1="206" x2="720.5" y1="263.8438" y2="263.8438"/><text fill="#000000" font-family="sans-serif" font-size="13" font-weight="bold" lengthAdjust="spacing" textLength="7" x="213" y="258.9873">4</text><text fill="#000000" font-family="sans-serif" font-size="13" lengthAdjust="spacing" textLength="204" x="224" y="258.9873">phoneNumber = getPhoneNumber()</text><polygon fill="#181818" points="714.5,320.1953,724.5,324.1953,714.5,328.1953,718.5,324.1953" style="stroke:#181818;stroke-width:1.0;"/><line style="stroke:#181818;stroke-width:1.0;" x1="206" x2="720.5" y1="324.1953" y2="324.1953"/><text fill="#000000" font-family="sans-serif" font-size="13" font-weight="bold" lengthAdjust="spacing" textLength="7" x="213" y="319.3389">5</text><text fill="#000000" font-family="sans-serif" font-size="13" lengthAdjust="spacing" textLength="202" x="224" y="319.3389">emailAddress = getEmailAddress()</text><polygon fill="#181818" points="575,380.5469,585,384.5469,575,388.5469,579,384.5469" style="stroke:#181818;stroke-width:1.0;"/><line style="stroke:#181818;stroke-width:1.0;stroke-dasharray:2.0,2.0;" x1="206" x2="581" y1="384.5469" y2="384.5469"/><text fill="#000000" font-family="sans-serif" font-size="13" font-weight="bold" lengthAdjust="spacing" textLength="7" x="213" y="379.6904">6</text><text fill="#000000" font-family="sans-serif" font-size="13" lengthAdjust="spacing" textLength="251" x="224" y="379.6904">create(name, phoneNumber, emailAddress)</text><rect fill="#E2E2F0" height="49.2188" rx="2.5" ry="2.5" style="stroke:#181818;stroke-width:0.5;" width="69" x="587" y="362.1953"/><text fill="#000000" font-family="sans-serif" font-size="14" lengthAdjust="spacing" textLength="44" x="599.5" y="383.7285">hccDto</text><text fill="#000000" font-family="sans-serif" font-size="14" lengthAdjust="spacing" textLength="55" x="594" y="401.3379">:HCCDto</text><polygon fill="#181818" points="499,440.7656,509,444.7656,499,448.7656,503,444.7656" style="stroke:#181818;stroke-width:1.0;"/><line style="stroke:#181818;stroke-width:1.0;" x1="206" x2="505" y1="444.7656" y2="444.7656"/><text fill="#000000" font-family="sans-serif" font-size="13" font-weight="bold" lengthAdjust="spacing" textLength="7" x="213" y="439.9092">7</text><text fill="#000000" font-family="sans-serif" font-size="13" lengthAdjust="spacing" textLength="70" x="224" y="439.9092">add(hccDto)</text><polygon fill="#181818" points="11,508.1172,1,512.1172,11,516.1172,7,512.1172" style="stroke:#181818;stroke-width:1.0;"/><line style="stroke:#181818;stroke-width:1.0;stroke-dasharray:2.0,2.0;" x1="5" x2="195" y1="512.1172" y2="512.1172"/><text fill="#000000" font-family="sans-serif" font-size="13" font-weight="bold" lengthAdjust="spacing" textLength="7" x="17" y="507.2607">8</text><text fill="#000000" font-family="sans-serif" font-size="13" lengthAdjust="spacing" textLength="97" x="28" y="507.2607">hccenterListDTO</text><!--MD5=[1dced491cc652d0aedf7744aae46041a]
@startuml
autonumber
participant ":HCCenterMapper" as vcMapper
participant "healthcareCenterList\n:List<HealthCareCenter>" as healthcareCenterList
participant "hhcenterListDTO\n:list<HCCDto>" as hhcenterListDTO
participant "hccDto\n:HCCDto" as HCCDto

[o->vcMapper : toDto(healthcareCenterList)
activate vcMapper

vcMapper - -> hhcenterListDTO **: create()

loop for each object in healthcareCenters

vcMapper -> healthcareCenters : name = getName()
activate healthcareCenters
deactivate healthcareCenters
vcMapper -> healthcareCenters : phoneNumber = getPhoneNumber()
activate healthcareCenters
deactivate healthcareCenters
vcMapper -> healthcareCenters : emailAddress = getEmailAddress()
activate healthcareCenters
deactivate healthcareCenters

vcMapper - -> HCCDto **: create(name, phoneNumber, emailAddress)

vcMapper -> hhcenterListDTO : add(hccDto)
activate hhcenterListDTO
deactivate hhcenterListDTO
end loop
[<- - vcMapper : hccenterListDTO

@enduml

PlantUML version 1.2022.5(Sat Apr 30 11:55:52 BST 2022)
(GPL source distribution)
Java Runtime: OpenJDK Runtime Environment
JVM: OpenJDK 64-Bit Server VM
Default Encoding: Cp1252
Language: pt
Country: PT
--></g></svg>