<?xml version="1.0" encoding="UTF-8" standalone="no"?><svg xmlns="http://www.w3.org/2000/svg" xmlns:xlink="http://www.w3.org/1999/xlink" contentStyleType="text/css" height="521px" preserveAspectRatio="none" style="width:996px;height:521px;background:#FFFFFF;" version="1.1" viewBox="0 0 996 521" width="996px" zoomAndPan="magnify"><defs/><g><rect fill="#FFFFFF" height="362.1953" style="stroke:#181818;stroke-width:1.0;" width="10" x="257" y="87.5703"/><rect fill="#FFFFFF" height="30" style="stroke:#181818;stroke-width:1.0;" width="10" x="397.5" y="117.9219"/><rect fill="#FFFFFF" height="30" style="stroke:#181818;stroke-width:1.0;" width="10" x="397.5" y="178.2734"/><rect fill="#FFFFFF" height="30" style="stroke:#181818;stroke-width:1.0;" width="10" x="397.5" y="238.625"/><rect fill="#FFFFFF" height="30.3516" style="stroke:#181818;stroke-width:1.0;" width="10" x="672" y="359.1953"/><line style="stroke:#181818;stroke-width:0.5;stroke-dasharray:5.0,5.0;" x1="262" x2="262" y1="55.2188" y2="467.7656"/><line style="stroke:#181818;stroke-width:0.5;stroke-dasharray:5.0,5.0;" x1="402" x2="402" y1="55.2188" y2="467.7656"/><line style="stroke:#181818;stroke-width:0.5;stroke-dasharray:5.0,5.0;" x1="550" x2="550" y1="316.7344" y2="467.7656"/><line style="stroke:#181818;stroke-width:0.5;stroke-dasharray:5.0,5.0;" x1="677" x2="677" y1="55.2188" y2="467.7656"/><line style="stroke:#181818;stroke-width:0.5;stroke-dasharray:5.0,5.0;" x1="956" x2="956" y1="407.3047" y2="467.7656"/><rect fill="#E2E2F0" height="31.6094" rx="2.5" ry="2.5" style="stroke:#181818;stroke-width:0.5;" width="116" x="204" y="22.6094"/><text fill="#000000" font-family="sans-serif" font-size="14" lengthAdjust="spacing" textLength="102" x="211" y="44.1426">:VaccineMapper</text><rect fill="#E2E2F0" height="31.6094" rx="2.5" ry="2.5" style="stroke:#181818;stroke-width:0.5;" width="116" x="204" y="466.7656"/><text fill="#000000" font-family="sans-serif" font-size="14" lengthAdjust="spacing" textLength="102" x="211" y="488.2988">:VaccineMapper</text><rect fill="#E2E2F0" height="31.6094" rx="2.5" ry="2.5" style="stroke:#181818;stroke-width:0.5;" width="145" x="330" y="22.6094"/><text fill="#000000" font-family="sans-serif" font-size="14" lengthAdjust="spacing" textLength="131" x="337" y="44.1426">vaccDto: VaccineDto</text><rect fill="#E2E2F0" height="31.6094" rx="2.5" ry="2.5" style="stroke:#181818;stroke-width:0.5;" width="145" x="330" y="466.7656"/><text fill="#000000" font-family="sans-serif" font-size="14" lengthAdjust="spacing" textLength="131" x="337" y="488.2988">vaccDto: VaccineDto</text><rect fill="#E2E2F0" height="49.2188" rx="2.5" ry="2.5" style="stroke:#181818;stroke-width:0.5;" width="131" x="485" y="466.7656"/><text fill="#000000" font-family="sans-serif" font-size="14" lengthAdjust="spacing" textLength="69" x="516" y="488.2988">admpStore</text><text fill="#000000" font-family="sans-serif" font-size="14" lengthAdjust="spacing" textLength="117" x="492" y="505.9082">:AdmProcessStore</text><rect fill="#E2E2F0" height="49.2188" rx="2.5" ry="2.5" style="stroke:#181818;stroke-width:0.5;" width="102" x="626" y="5"/><text fill="#000000" font-family="sans-serif" font-size="14" lengthAdjust="spacing" textLength="63" x="645.5" y="26.5332">vaccStore</text><text fill="#000000" font-family="sans-serif" font-size="14" lengthAdjust="spacing" textLength="88" x="633" y="44.1426">:VaccineStore</text><rect fill="#E2E2F0" height="49.2188" rx="2.5" ry="2.5" style="stroke:#181818;stroke-width:0.5;" width="102" x="626" y="466.7656"/><text fill="#000000" font-family="sans-serif" font-size="14" lengthAdjust="spacing" textLength="63" x="645.5" y="488.2988">vaccStore</text><text fill="#000000" font-family="sans-serif" font-size="14" lengthAdjust="spacing" textLength="88" x="633" y="505.9082">:VaccineStore</text><rect fill="#E2E2F0" height="49.2188" rx="2.5" ry="2.5" style="stroke:#181818;stroke-width:0.5;" width="68" x="922" y="466.7656"/><text fill="#000000" font-family="sans-serif" font-size="14" lengthAdjust="spacing" textLength="48" x="932" y="488.2988">vaccine</text><text fill="#000000" font-family="sans-serif" font-size="14" lengthAdjust="spacing" textLength="54" x="929" y="505.9082">:Vaccine</text><rect fill="#FFFFFF" height="362.1953" style="stroke:#181818;stroke-width:1.0;" width="10" x="257" y="87.5703"/><rect fill="#FFFFFF" height="30" style="stroke:#181818;stroke-width:1.0;" width="10" x="397.5" y="117.9219"/><rect fill="#FFFFFF" height="30" style="stroke:#181818;stroke-width:1.0;" width="10" x="397.5" y="178.2734"/><rect fill="#FFFFFF" height="30" style="stroke:#181818;stroke-width:1.0;" width="10" x="397.5" y="238.625"/><rect fill="#FFFFFF" height="30.3516" style="stroke:#181818;stroke-width:1.0;" width="10" x="672" y="359.1953"/><ellipse cx="7.5" cy="86.8203" fill="none" rx="4" ry="4" style="stroke:#181818;stroke-width:1.5;"/><polygon fill="#181818" points="245,83.5703,255,87.5703,245,91.5703,249,87.5703" style="stroke:#181818;stroke-width:1.0;"/><line style="stroke:#181818;stroke-width:1.0;" x1="12" x2="251" y1="87.5703" y2="87.5703"/><text fill="#000000" font-family="sans-serif" font-size="13" font-weight="bold" lengthAdjust="spacing" textLength="7" x="15" y="82.7139">1</text><text fill="#000000" font-family="sans-serif" font-size="13" lengthAdjust="spacing" textLength="219" x="26" y="82.7139">createVaccine(vaccineDto, vaccStore)</text><polygon fill="#181818" points="385.5,113.9219,395.5,117.9219,385.5,121.9219,389.5,117.9219" style="stroke:#181818;stroke-width:1.0;"/><line style="stroke:#181818;stroke-width:1.0;" x1="267" x2="391.5" y1="117.9219" y2="117.9219"/><text fill="#000000" font-family="sans-serif" font-size="13" font-weight="bold" lengthAdjust="spacing" textLength="7" x="274" y="113.0654">2</text><text fill="#000000" font-family="sans-serif" font-size="13" lengthAdjust="spacing" textLength="54" x="285" y="113.0654">id=getId()</text><polygon fill="#181818" points="385.5,174.2734,395.5,178.2734,385.5,182.2734,389.5,178.2734" style="stroke:#181818;stroke-width:1.0;"/><line style="stroke:#181818;stroke-width:1.0;" x1="267" x2="391.5" y1="178.2734" y2="178.2734"/><text fill="#000000" font-family="sans-serif" font-size="13" font-weight="bold" lengthAdjust="spacing" textLength="7" x="274" y="173.417">3</text><text fill="#000000" font-family="sans-serif" font-size="13" lengthAdjust="spacing" textLength="100" x="285" y="173.417">name=getName()</text><polygon fill="#181818" points="385.5,234.625,395.5,238.625,385.5,242.625,389.5,238.625" style="stroke:#181818;stroke-width:1.0;"/><line style="stroke:#181818;stroke-width:1.0;" x1="267" x2="391.5" y1="238.625" y2="238.625"/><text fill="#000000" font-family="sans-serif" font-size="13" font-weight="bold" lengthAdjust="spacing" textLength="7" x="274" y="233.7686">4</text><text fill="#000000" font-family="sans-serif" font-size="13" lengthAdjust="spacing" textLength="100" x="285" y="233.7686">brand=getBrand()</text><polygon fill="#181818" points="473,294.9766,483,298.9766,473,302.9766,477,298.9766" style="stroke:#181818;stroke-width:1.0;"/><line style="stroke:#181818;stroke-width:1.0;stroke-dasharray:2.0,2.0;" x1="267" x2="479" y1="298.9766" y2="298.9766"/><text fill="#000000" font-family="sans-serif" font-size="13" font-weight="bold" lengthAdjust="spacing" textLength="7" x="274" y="294.1201">5</text><text fill="#000000" font-family="sans-serif" font-size="13" lengthAdjust="spacing" textLength="44" x="285" y="294.1201">create()</text><rect fill="#E2E2F0" height="49.2188" rx="2.5" ry="2.5" style="stroke:#181818;stroke-width:0.5;" width="131" x="485" y="276.625"/><text fill="#000000" font-family="sans-serif" font-size="14" lengthAdjust="spacing" textLength="69" x="516" y="298.1582">admpStore</text><text fill="#000000" font-family="sans-serif" font-size="14" lengthAdjust="spacing" textLength="117" x="492" y="315.7676">:AdmProcessStore</text><polygon fill="#181818" points="660,355.1953,670,359.1953,660,363.1953,664,359.1953" style="stroke:#181818;stroke-width:1.0;"/><line style="stroke:#181818;stroke-width:1.0;" x1="267" x2="666" y1="359.1953" y2="359.1953"/><text fill="#000000" font-family="sans-serif" font-size="13" font-weight="bold" lengthAdjust="spacing" textLength="7" x="274" y="354.3389">6</text><text fill="#000000" font-family="sans-serif" font-size="13" lengthAdjust="spacing" textLength="252" x="285" y="354.3389">createVaccine(id, name, brand, admpStore)</text><polygon fill="#181818" points="910,385.5469,920,389.5469,910,393.5469,914,389.5469" style="stroke:#181818;stroke-width:1.0;"/><line style="stroke:#181818;stroke-width:1.0;stroke-dasharray:2.0,2.0;" x1="677" x2="916" y1="389.5469" y2="389.5469"/><text fill="#000000" font-family="sans-serif" font-size="13" font-weight="bold" lengthAdjust="spacing" textLength="7" x="684" y="384.6904">7</text><text fill="#000000" font-family="sans-serif" font-size="13" lengthAdjust="spacing" textLength="205" x="695" y="384.6904">create(id, name, brand, admpStore)</text><rect fill="#E2E2F0" height="49.2188" rx="2.5" ry="2.5" style="stroke:#181818;stroke-width:0.5;" width="68" x="922" y="367.1953"/><text fill="#000000" font-family="sans-serif" font-size="14" lengthAdjust="spacing" textLength="48" x="932" y="388.7285">vaccine</text><text fill="#000000" font-family="sans-serif" font-size="14" lengthAdjust="spacing" textLength="54" x="929" y="406.3379">:Vaccine</text><polygon fill="#181818" points="11,445.7656,1,449.7656,11,453.7656,7,449.7656" style="stroke:#181818;stroke-width:1.0;"/><line style="stroke:#181818;stroke-width:1.0;stroke-dasharray:2.0,2.0;" x1="5" x2="261" y1="449.7656" y2="449.7656"/><text fill="#000000" font-family="sans-serif" font-size="13" font-weight="bold" lengthAdjust="spacing" textLength="7" x="17" y="444.9092">8</text><text fill="#000000" font-family="sans-serif" font-size="13" lengthAdjust="spacing" textLength="43" x="28" y="444.9092">vaccine</text><!--MD5=[eea0dac6c3da21bb3b4372f569fe102f]
@startuml
autonumber
participant ":VaccineMapper" as vaccMapper
participant "vaccDto: VaccineDto" as vaccDto
participant "admpStore\n:AdmProcessStore" as admpStore
participant "vaccStore\n:VaccineStore" as vaccStore
participant "vaccine\n:Vaccine" as vaccine

[o->vaccMapper : createVaccine(vaccineDto, vaccStore)
activate vaccMapper

vaccMapper -> vaccDto : id=getId()
activate vaccDto
deactivate vaccDto

vaccMapper -> vaccDto : name=getName()
activate vaccDto
deactivate vaccDto

vaccMapper -> vaccDto : brand=getBrand()
activate vaccDto
deactivate vaccDto

vaccMapper - -> admpStore ** :create()

vaccMapper -> vaccStore : createVaccine(id, name, brand, admpStore)
activate vaccStore
vaccStore - -> vaccine ** : create(id, name, brand, admpStore)
deactivate vaccStore

[<- - vaccMapper : vaccine
deactivate vaccMapper

@enduml

PlantUML version 1.2022.4(Sat Apr 09 14:29:17 BST 2022)
(GPL source distribution)
Java Runtime: OpenJDK Runtime Environment
JVM: OpenJDK 64-Bit Server VM
Default Encoding: Cp1252
Language: pt
Country: PT
--></g></svg>