<?xml version="1.0" encoding="UTF-8" standalone="no"?><svg xmlns="http://www.w3.org/2000/svg" xmlns:xlink="http://www.w3.org/1999/xlink" contentStyleType="text/css" height="619px" preserveAspectRatio="none" style="width:645px;height:619px;background:#FFFFFF;" version="1.1" viewBox="0 0 645 619" width="645px" zoomAndPan="magnify"><defs/><g><!--MD5=[02e4b9b7573f1156f41e60aa5b4e25a4]
class Company--><g id="elem_Company"><rect codeLine="4" fill="#F1F1F1" height="57.6094" id="Company" rx="2.5" ry="2.5" style="stroke:#181818;stroke-width:0.5;" width="92" x="178.5" y="24.5"/><ellipse cx="193.5" cy="40.5" fill="#ADD1B2" rx="11" ry="11" style="stroke:#181818;stroke-width:1.0;"/><path d="M195.5,37 Q195.7031,36.5 195.9375,36.25 Q196.1719,36 196.4375,36 Q196.9063,36 197.2031,36.2813 Q197.5,36.5625 197.5,37.2188 L197.5,38.7813 Q197.5,39.4375 197.2188,39.7188 Q196.9375,40 196.5,40 Q196.1094,40 195.8594,39.8281 Q195.6094,39.6563 195.5,39.2031 Q195.4531,38.8906 195.2813,38.7188 Q194.9688,38.3906 194.4063,38.2031 Q193.8438,38 193.2813,38 Q192.5781,38 191.9844,38.2813 Q191.4063,38.5625 190.9531,39.1875 Q190.5,39.8125 190.5,40.6719 L190.5,41.5938 Q190.5,42.625 191.3438,43.3125 Q192.1875,44 193.6875,44 Q194.5781,44 195.2031,43.7969 Q195.5625,43.6875 195.9688,43.3281 Q196.2344,43.125 196.375,43.0625 Q196.5156,43 196.6875,43 Q197.0156,43 197.25,43.2656 Q197.5,43.5156 197.5,43.875 Q197.5,44.2188 197.1563,44.625 Q196.6563,45.2188 195.8594,45.5469 Q194.8125,46 193.5313,46 Q192.0313,46 190.8281,45.4063 Q189.8594,44.9375 189.1719,43.9219 Q188.5,42.9063 188.5,41.7031 L188.5,40.6094 Q188.5,39.3594 189.0938,38.2656 Q189.7031,37.1719 190.75,36.5938 Q191.8125,36 193,36 Q193.7188,36 194.3438,36.25 Q194.9688,36.5 195.5,37 Z " fill="#000000"/><text fill="#000000" font-family="sans-serif" font-size="14" lengthAdjust="spacing" textLength="60" x="207.5" y="46.2285">Company</text><line style="stroke:#181818;stroke-width:0.5;" x1="179.5" x2="269.5" y1="56.5" y2="56.5"/><text fill="#000000" font-family="sans-serif" font-size="14" lengthAdjust="spacing" textLength="78" x="184.5" y="75.0332">-designation</text></g><!--MD5=[19e445fc4d3b48519cbe33da05496394]
class Vaccine--><g id="elem_Vaccine"><rect codeLine="8" fill="#F1F1F1" height="92.8281" id="Vaccine" rx="2.5" ry="2.5" style="stroke:#181818;stroke-width:0.5;" width="82" x="234.5" y="349"/><ellipse cx="249.5" cy="365" fill="#ADD1B2" rx="11" ry="11" style="stroke:#181818;stroke-width:1.0;"/><path d="M251.5,361.5 Q251.7031,361 251.9375,360.75 Q252.1719,360.5 252.4375,360.5 Q252.9063,360.5 253.2031,360.7813 Q253.5,361.0625 253.5,361.7188 L253.5,363.2813 Q253.5,363.9375 253.2188,364.2188 Q252.9375,364.5 252.5,364.5 Q252.1094,364.5 251.8594,364.3281 Q251.6094,364.1563 251.5,363.7031 Q251.4531,363.3906 251.2813,363.2188 Q250.9688,362.8906 250.4063,362.7031 Q249.8438,362.5 249.2813,362.5 Q248.5781,362.5 247.9844,362.7813 Q247.4063,363.0625 246.9531,363.6875 Q246.5,364.3125 246.5,365.1719 L246.5,366.0938 Q246.5,367.125 247.3438,367.8125 Q248.1875,368.5 249.6875,368.5 Q250.5781,368.5 251.2031,368.2969 Q251.5625,368.1875 251.9688,367.8281 Q252.2344,367.625 252.375,367.5625 Q252.5156,367.5 252.6875,367.5 Q253.0156,367.5 253.25,367.7656 Q253.5,368.0156 253.5,368.375 Q253.5,368.7188 253.1563,369.125 Q252.6563,369.7188 251.8594,370.0469 Q250.8125,370.5 249.5313,370.5 Q248.0313,370.5 246.8281,369.9063 Q245.8594,369.4375 245.1719,368.4219 Q244.5,367.4063 244.5,366.2031 L244.5,365.1094 Q244.5,363.8594 245.0938,362.7656 Q245.7031,361.6719 246.75,361.0938 Q247.8125,360.5 249,360.5 Q249.7188,360.5 250.3438,360.75 Q250.9688,361 251.5,361.5 Z " fill="#000000"/><text fill="#000000" font-family="sans-serif" font-size="14" lengthAdjust="spacing" textLength="50" x="263.5" y="370.7285">Vaccine</text><line style="stroke:#181818;stroke-width:0.5;" x1="235.5" x2="315.5" y1="381" y2="381"/><text fill="#000000" font-family="sans-serif" font-size="14" lengthAdjust="spacing" textLength="64" x="240.5" y="399.5332">-vaccineId</text><text fill="#000000" font-family="sans-serif" font-size="14" lengthAdjust="spacing" textLength="40" x="240.5" y="417.1426">-name</text><text fill="#000000" font-family="sans-serif" font-size="14" lengthAdjust="spacing" textLength="42" x="240.5" y="434.752">-brand</text></g><!--MD5=[a2530d24bafc45bb45314d96545aa194]
class AdministrationProcess--><g id="elem_AdministrationProcess"><rect codeLine="14" fill="#F1F1F1" height="92.8281" id="AdministrationProcess" rx="2.5" ry="2.5" style="stroke:#181818;stroke-width:0.5;" width="172" x="466.5" y="178"/><ellipse cx="481.5" cy="194" fill="#ADD1B2" rx="11" ry="11" style="stroke:#181818;stroke-width:1.0;"/><path d="M483.5,190.5 Q483.7031,190 483.9375,189.75 Q484.1719,189.5 484.4375,189.5 Q484.9063,189.5 485.2031,189.7813 Q485.5,190.0625 485.5,190.7188 L485.5,192.2813 Q485.5,192.9375 485.2188,193.2188 Q484.9375,193.5 484.5,193.5 Q484.1094,193.5 483.8594,193.3281 Q483.6094,193.1563 483.5,192.7031 Q483.4531,192.3906 483.2813,192.2188 Q482.9688,191.8906 482.4063,191.7031 Q481.8438,191.5 481.2813,191.5 Q480.5781,191.5 479.9844,191.7813 Q479.4063,192.0625 478.9531,192.6875 Q478.5,193.3125 478.5,194.1719 L478.5,195.0938 Q478.5,196.125 479.3438,196.8125 Q480.1875,197.5 481.6875,197.5 Q482.5781,197.5 483.2031,197.2969 Q483.5625,197.1875 483.9688,196.8281 Q484.2344,196.625 484.375,196.5625 Q484.5156,196.5 484.6875,196.5 Q485.0156,196.5 485.25,196.7656 Q485.5,197.0156 485.5,197.375 Q485.5,197.7188 485.1563,198.125 Q484.6563,198.7188 483.8594,199.0469 Q482.8125,199.5 481.5313,199.5 Q480.0313,199.5 478.8281,198.9063 Q477.8594,198.4375 477.1719,197.4219 Q476.5,196.4063 476.5,195.2031 L476.5,194.1094 Q476.5,192.8594 477.0938,191.7656 Q477.7031,190.6719 478.75,190.0938 Q479.8125,189.5 481,189.5 Q481.7188,189.5 482.3438,189.75 Q482.9688,190 483.5,190.5 Z " fill="#000000"/><text fill="#000000" font-family="sans-serif" font-size="14" lengthAdjust="spacing" textLength="140" x="495.5" y="199.7285">AdministrationProcess</text><line style="stroke:#181818;stroke-width:0.5;" x1="467.5" x2="637.5" y1="210" y2="210"/><text fill="#000000" font-family="sans-serif" font-size="14" lengthAdjust="spacing" textLength="108" x="472.5" y="228.5332">-numberOfDoses</text><text fill="#000000" font-family="sans-serif" font-size="14" lengthAdjust="spacing" textLength="88" x="472.5" y="246.1426">-maximumAge</text><text fill="#000000" font-family="sans-serif" font-size="14" lengthAdjust="spacing" textLength="90" x="472.5" y="263.752">-minumumAge</text></g><!--MD5=[da547346deef918ea16944ba046651ef]
class Administrator--><g id="elem_Administrator"><rect codeLine="20" fill="#F1F1F1" height="40" id="Administrator" rx="2.5" ry="2.5" style="stroke:#181818;stroke-width:0.5;" width="115" x="316" y="204.5"/><ellipse cx="331" cy="220.5" fill="#ADD1B2" rx="11" ry="11" style="stroke:#181818;stroke-width:1.0;"/><path d="M333,217 Q333.2031,216.5 333.4375,216.25 Q333.6719,216 333.9375,216 Q334.4063,216 334.7031,216.2813 Q335,216.5625 335,217.2188 L335,218.7813 Q335,219.4375 334.7188,219.7188 Q334.4375,220 334,220 Q333.6094,220 333.3594,219.8281 Q333.1094,219.6563 333,219.2031 Q332.9531,218.8906 332.7813,218.7188 Q332.4688,218.3906 331.9063,218.2031 Q331.3438,218 330.7813,218 Q330.0781,218 329.4844,218.2813 Q328.9063,218.5625 328.4531,219.1875 Q328,219.8125 328,220.6719 L328,221.5938 Q328,222.625 328.8438,223.3125 Q329.6875,224 331.1875,224 Q332.0781,224 332.7031,223.7969 Q333.0625,223.6875 333.4688,223.3281 Q333.7344,223.125 333.875,223.0625 Q334.0156,223 334.1875,223 Q334.5156,223 334.75,223.2656 Q335,223.5156 335,223.875 Q335,224.2188 334.6563,224.625 Q334.1563,225.2188 333.3594,225.5469 Q332.3125,226 331.0313,226 Q329.5313,226 328.3281,225.4063 Q327.3594,224.9375 326.6719,223.9219 Q326,222.9063 326,221.7031 L326,220.6094 Q326,219.3594 326.5938,218.2656 Q327.2031,217.1719 328.25,216.5938 Q329.3125,216 330.5,216 Q331.2188,216 331.8438,216.25 Q332.4688,216.5 333,217 Z " fill="#000000"/><text fill="#000000" font-family="sans-serif" font-size="14" lengthAdjust="spacing" textLength="83" x="345" y="226.2285">Administrator</text><line style="stroke:#181818;stroke-width:0.5;" x1="317" x2="430" y1="236.5" y2="236.5"/></g><!--MD5=[03e3bb7aef77bf14822eb3fb6d15ab17]
class Dose--><g id="elem_Dose"><rect codeLine="22" fill="#F1F1F1" height="92.8281" id="Dose" rx="2.5" ry="2.5" style="stroke:#181818;stroke-width:0.5;" width="137" x="484" y="7"/><ellipse cx="531.75" cy="23" fill="#ADD1B2" rx="11" ry="11" style="stroke:#181818;stroke-width:1.0;"/><path d="M533.75,19.5 Q533.9531,19 534.1875,18.75 Q534.4219,18.5 534.6875,18.5 Q535.1563,18.5 535.4531,18.7813 Q535.75,19.0625 535.75,19.7188 L535.75,21.2813 Q535.75,21.9375 535.4688,22.2188 Q535.1875,22.5 534.75,22.5 Q534.3594,22.5 534.1094,22.3281 Q533.8594,22.1563 533.75,21.7031 Q533.7031,21.3906 533.5313,21.2188 Q533.2188,20.8906 532.6563,20.7031 Q532.0938,20.5 531.5313,20.5 Q530.8281,20.5 530.2344,20.7813 Q529.6563,21.0625 529.2031,21.6875 Q528.75,22.3125 528.75,23.1719 L528.75,24.0938 Q528.75,25.125 529.5938,25.8125 Q530.4375,26.5 531.9375,26.5 Q532.8281,26.5 533.4531,26.2969 Q533.8125,26.1875 534.2188,25.8281 Q534.4844,25.625 534.625,25.5625 Q534.7656,25.5 534.9375,25.5 Q535.2656,25.5 535.5,25.7656 Q535.75,26.0156 535.75,26.375 Q535.75,26.7188 535.4063,27.125 Q534.9063,27.7188 534.1094,28.0469 Q533.0625,28.5 531.7813,28.5 Q530.2813,28.5 529.0781,27.9063 Q528.1094,27.4375 527.4219,26.4219 Q526.75,25.4063 526.75,24.2031 L526.75,23.1094 Q526.75,21.8594 527.3438,20.7656 Q527.9531,19.6719 529,19.0938 Q530.0625,18.5 531.25,18.5 Q531.9688,18.5 532.5938,18.75 Q533.2188,19 533.75,19.5 Z " fill="#000000"/><text fill="#000000" font-family="sans-serif" font-size="14" lengthAdjust="spacing" textLength="33" x="552.25" y="28.7285">Dose</text><line style="stroke:#181818;stroke-width:0.5;" x1="485" x2="620" y1="39" y2="39"/><text fill="#000000" font-family="sans-serif" font-size="14" lengthAdjust="spacing" textLength="85" x="490" y="57.5332">-doseNumber</text><text fill="#000000" font-family="sans-serif" font-size="14" lengthAdjust="spacing" textLength="52" x="490" y="75.1426">-dosage</text><text fill="#000000" font-family="sans-serif" font-size="14" lengthAdjust="spacing" textLength="125" x="490" y="92.752">-timeBetweenDoses</text></g><!--MD5=[0e501da62322464167c8ec4d233a6b7e]
class VaccineType--><g id="elem_VaccineType"><rect codeLine="29" fill="#F1F1F1" height="92.8281" id="VaccineType" rx="2.5" ry="2.5" style="stroke:#181818;stroke-width:0.5;" width="139" x="7" y="520"/><ellipse cx="33.25" cy="536" fill="#ADD1B2" rx="11" ry="11" style="stroke:#181818;stroke-width:1.0;"/><path d="M35.25,532.5 Q35.4531,532 35.6875,531.75 Q35.9219,531.5 36.1875,531.5 Q36.6563,531.5 36.9531,531.7813 Q37.25,532.0625 37.25,532.7188 L37.25,534.2813 Q37.25,534.9375 36.9688,535.2188 Q36.6875,535.5 36.25,535.5 Q35.8594,535.5 35.6094,535.3281 Q35.3594,535.1563 35.25,534.7031 Q35.2031,534.3906 35.0313,534.2188 Q34.7188,533.8906 34.1563,533.7031 Q33.5938,533.5 33.0313,533.5 Q32.3281,533.5 31.7344,533.7813 Q31.1563,534.0625 30.7031,534.6875 Q30.25,535.3125 30.25,536.1719 L30.25,537.0938 Q30.25,538.125 31.0938,538.8125 Q31.9375,539.5 33.4375,539.5 Q34.3281,539.5 34.9531,539.2969 Q35.3125,539.1875 35.7188,538.8281 Q35.9844,538.625 36.125,538.5625 Q36.2656,538.5 36.4375,538.5 Q36.7656,538.5 37,538.7656 Q37.25,539.0156 37.25,539.375 Q37.25,539.7188 36.9063,540.125 Q36.4063,540.7188 35.6094,541.0469 Q34.5625,541.5 33.2813,541.5 Q31.7813,541.5 30.5781,540.9063 Q29.6094,540.4375 28.9219,539.4219 Q28.25,538.4063 28.25,537.2031 L28.25,536.1094 Q28.25,534.8594 28.8438,533.7656 Q29.4531,532.6719 30.5,532.0938 Q31.5625,531.5 32.75,531.5 Q33.4688,531.5 34.0938,531.75 Q34.7188,532 35.25,532.5 Z " fill="#000000"/><text fill="#000000" font-family="sans-serif" font-size="14" lengthAdjust="spacing" textLength="82" x="49.75" y="541.7285">VaccineType</text><line style="stroke:#181818;stroke-width:0.5;" x1="8" x2="145" y1="552" y2="552"/><text fill="#000000" font-family="sans-serif" font-size="14" lengthAdjust="spacing" textLength="36" x="13" y="570.5332">-code</text><text fill="#000000" font-family="sans-serif" font-size="14" lengthAdjust="spacing" textLength="74" x="13" y="588.1426">-description</text><text fill="#000000" font-family="sans-serif" font-size="14" lengthAdjust="spacing" textLength="127" x="13" y="605.752">-vaccineTechnology</text></g><!--MD5=[c29c8d42883934cbaf5793c72a334947]
link Company to Vaccine--><g id="link_Company_Vaccine"><path codeLine="35" d="M225.24,82.73 C226.7,124.25 230.88,204.11 242.5,271 C247.04,297.13 254.53,325.78 261.23,348.89 " fill="none" id="Company-Vaccine" style="stroke:#181818;stroke-width:1.0;"/><polygon fill="#000000" points="248.17,229.6307,249.8704,220.2734,244.0455,221.061,248.17,229.6307" style="stroke:#000000;stroke-width:1.0;"/><text fill="#000000" font-family="sans-serif" font-size="13" lengthAdjust="spacing" textLength="41" x="256.5" y="229.9951">applies</text><text fill="#000000" font-family="sans-serif" font-size="13" lengthAdjust="spacing" textLength="7" x="217.6966" y="103.6278">1</text><text fill="#000000" font-family="sans-serif" font-size="13" lengthAdjust="spacing" textLength="20" x="237.5137" y="338.063">1..*</text></g><!--MD5=[eaea43e34e45c5b9d20b595fc78f1f20]
link Company to Administrator--><g id="link_Company_Administrator"><path codeLine="36" d="M249.44,82.79 C279.76,117.18 330.13,174.31 356.39,204.09 " fill="none" id="Company-Administrator" style="stroke:#181818;stroke-width:1.0;"/><polygon fill="#000000" points="311.8067,142.9262,308.0292,134.198,303.6204,138.0853,311.8067,142.9262" style="stroke:#000000;stroke-width:1.0;"/><text fill="#000000" font-family="sans-serif" font-size="13" lengthAdjust="spacing" textLength="37" x="317.5" y="144.4951">knows</text><text fill="#000000" font-family="sans-serif" font-size="13" lengthAdjust="spacing" textLength="7" x="246.661" y="103.6996">1</text><text fill="#000000" font-family="sans-serif" font-size="13" lengthAdjust="spacing" textLength="5" x="345.8747" y="193.6442">*</text></g><!--MD5=[0e439f75a3d966f965fe5f237a1bacbe]
link Administrator to Vaccine--><g id="link_Administrator_Vaccine"><path codeLine="37" d="M362.45,244.56 C347.88,269.68 321.79,314.68 301.97,348.85 " fill="none" id="Administrator-Vaccine" style="stroke:#181818;stroke-width:1.0;"/><polygon fill="#000000" points="329.9917,314.5011,337.0716,308.1509,331.9869,305.2022,329.9917,314.5011" style="stroke:#000000;stroke-width:1.0;"/><text fill="#000000" font-family="sans-serif" font-size="13" lengthAdjust="spacing" textLength="50" x="341.5" y="315.4951">registers</text><text fill="#000000" font-family="sans-serif" font-size="13" lengthAdjust="spacing" textLength="20" x="336.5297" y="265.9964">1..*</text><text fill="#000000" font-family="sans-serif" font-size="13" lengthAdjust="spacing" textLength="5" x="300.6404" y="338.0169">*</text></g><!--MD5=[3568623adf67b2630dce9e60c05bd02a]
link Vaccine to VaccineType--><g id="link_Vaccine_VaccineType"><path codeLine="38" d="M234.27,431.52 C204.1,457.14 162.9,492.13 130.16,519.93 " fill="none" id="Vaccine-VaccineType" style="stroke:#181818;stroke-width:1.0;"/><polygon fill="#000000" points="183.6888,484.4122,192.4857,480.7976,188.681,476.3173,183.6888,484.4122" style="stroke:#000000;stroke-width:1.0;"/><text fill="#000000" font-family="sans-serif" font-size="13" lengthAdjust="spacing" textLength="24" x="196.5" y="486.4951">is of</text><text fill="#000000" font-family="sans-serif" font-size="13" lengthAdjust="spacing" textLength="20" x="206.4254" y="433.3458">1..*</text><text fill="#000000" font-family="sans-serif" font-size="13" lengthAdjust="spacing" textLength="7" x="130.8408" y="509.1092">1</text></g><!--MD5=[ffb370db50a907c235422904daa744f4]
link AdministrationProcess to Vaccine--><g id="link_AdministrationProcess_Vaccine"><path codeLine="39" d="M478.74,271.04 C453.91,286.32 426.03,303.44 400.5,319 C372.57,336.02 341.05,355.06 316.65,369.76 " fill="none" id="AdministrationProcess-Vaccine" style="stroke:#181818;stroke-width:1.0;"/><polygon fill="#000000" points="439.7703,307.575,430.5165,309.7699,433.574,314.7899,439.7703,307.575" style="stroke:#000000;stroke-width:1.0;"/><text fill="#000000" font-family="sans-serif" font-size="13" lengthAdjust="spacing" textLength="21" x="444.5" y="315.4951">has</text><text fill="#000000" font-family="sans-serif" font-size="13" lengthAdjust="spacing" textLength="20" x="446.9613" y="292.2416">1..*</text><text fill="#000000" font-family="sans-serif" font-size="13" lengthAdjust="spacing" textLength="7" x="324.6033" y="361.2918">1</text></g><!--MD5=[3cda8cb5cd46471c93796da6937f76e1]
link Dose to AdministrationProcess--><g id="link_Dose_AdministrationProcess"><path codeLine="40" d="M552.5,100.23 C552.5,124.28 552.5,153.68 552.5,177.73 " fill="none" id="Dose-AdministrationProcess" style="stroke:#181818;stroke-width:1.0;"/><polygon fill="#000000" points="557.5,134.1758,554.5611,143.2209,560.4389,143.2209,557.5,134.1758" style="stroke:#000000;stroke-width:1.0;"/><text fill="#000000" font-family="sans-serif" font-size="13" lengthAdjust="spacing" textLength="21" x="566.5" y="144.4951">has</text><text fill="#000000" font-family="sans-serif" font-size="13" lengthAdjust="spacing" textLength="20" x="531.0938" y="121.4583">1..*</text><text fill="#000000" font-family="sans-serif" font-size="13" lengthAdjust="spacing" textLength="7" x="544.9859" y="167.2192">1</text></g><!--MD5=[05986564e1c13a00611587b35563d868]
link Company to VaccineType--><g id="link_Company_VaccineType"><path codeLine="41" d="M203.09,82.52 C171.03,126.34 111.71,214.99 87.5,301 C66.58,375.32 68.38,466.01 72.09,519.57 " fill="none" id="Company-VaccineType" style="stroke:#181818;stroke-width:1.0;"/><polygon fill="#000000" points="91.0644,314.9653,96.4766,307.1448,90.8462,305.4572,91.0644,314.9653" style="stroke:#000000;stroke-width:1.0;"/><text fill="#000000" font-family="sans-serif" font-size="13" lengthAdjust="spacing" textLength="139" x="101.5" y="315.4951">promotes administration</text><text fill="#000000" font-family="sans-serif" font-size="13" lengthAdjust="spacing" textLength="7" x="190.9523" y="103.727">1</text><text fill="#000000" font-family="sans-serif" font-size="13" lengthAdjust="spacing" textLength="20" x="49.9735" y="509.0357">1..*</text></g><!--MD5=[fb3752ce51161bb50cf4cf2d461b4d61]
@startuml
hide methods
skinparam classAttributeIconSize 0

class Company {
-designation
}

class Vaccine {
-vaccineId
-name
-brand
}

class AdministrationProcess {
-numberOfDoses
-maximumAge
-minumumAge
}

class Administrator {}

class Dose {
-doseNumber
-dosage
-timeBetweenDoses
}


class VaccineType {
-code
-description
-vaccineTechnology
}

Company "1" - - "1..*" Vaccine : applies >
Company "1" - - "*" Administrator : knows >
Administrator "1..*" - - "*" Vaccine : registers >
Vaccine "1..*" - - "1" VaccineType : is of >
AdministrationProcess "1..*" - - "1" Vaccine : has <
Dose "1..*" - - "1" AdministrationProcess : has <
Company "1" - - "1..*" VaccineType : promotes administration >

@enduml

PlantUML version 1.2022.5(Sat Apr 30 11:55:52 BST 2022)
(GPL source distribution)
Java Runtime: OpenJDK Runtime Environment
JVM: OpenJDK 64-Bit Server VM
Default Encoding: Cp1252
Language: pt
Country: PT
--></g></svg>